<svg width="351" height="535" viewBox="0 0 351 535" fill="none" xmlns="http://www.w3.org/2000/svg">
<path fill-rule="evenodd" clip-rule="evenodd" d="M16.5173 0.0703468C16.5364 0.13666 16.5654 0.366419 16.5817 0.580888C16.6543 1.53319 16.2633 2.29176 15.4364 2.80283L15.149 2.98045L15.503 3.0827C15.6978 3.13893 15.9642 3.2473 16.0952 3.32345C16.3816 3.48993 16.9189 4.02699 17.0644 4.292L17.1693 4.48318L16.7032 4.25607C16.4468 4.13116 16.042 3.96965 15.8036 3.89712C15.4045 3.77573 15.3033 3.76507 14.5273 3.76251C13.7858 3.7601 13.6386 3.77308 13.302 3.87069C12.3526 4.14592 11.642 4.70435 11.2644 5.47184C10.9595 6.09143 10.851 6.60529 10.8466 7.44918C10.843 8.14901 10.8889 8.72706 10.9568 8.83707C10.9794 8.87368 11.2266 8.91356 11.6163 8.94351C11.9592 8.96984 12.3697 9.00679 12.5287 9.0256L12.8176 9.05979L12.5768 9.09393C12.4444 9.1127 12.0481 9.14429 11.6962 9.16416C11.3442 9.18398 11.0466 9.21585 11.0349 9.23495C11.0231 9.2541 11.0661 9.47243 11.1306 9.72017C11.195 9.96792 11.2403 10.1781 11.2311 10.1874C11.2068 10.2117 10.809 9.71424 10.6456 9.45525L10.5059 9.2338L10.1792 9.2337L9.8524 9.2336L9.884 9.47218C9.92489 9.78089 9.88776 9.91713 9.70615 10.1243C9.52381 10.3322 9.2569 10.4164 9.00285 10.3462C8.90542 10.3193 8.8154 10.3075 8.80283 10.3201C8.79031 10.3327 8.77052 10.4575 8.75897 10.5976L8.73787 10.8522L9.15071 11.1048C9.61074 11.3863 9.89888 11.6193 9.73533 11.5776C9.46438 11.5085 8.7843 11.3997 8.76205 11.4219C8.74803 11.436 8.71813 11.7144 8.69564 12.0406C8.64478 12.7778 8.59517 13.2924 8.57677 13.274C8.55688 13.254 8.46913 12.3807 8.43181 11.8307L8.40017 11.3654L8.00823 11.3451C7.43747 11.3156 6.57092 11.3877 6.12558 11.5016C4.82614 11.8341 4.01969 12.6237 3.68858 13.8876C3.53273 14.4826 3.54385 15.4602 3.71377 16.106C3.83393 16.5626 4.18531 17.3667 4.41456 17.7096C4.47216 17.7958 4.49827 17.8664 4.4725 17.8664C4.34333 17.8664 3.91855 17.5696 3.61379 17.2664C3.25528 16.9098 3.10328 16.6662 2.96713 16.2301L2.88545 15.9684L2.73003 16.2945C2.4388 16.9056 1.83636 17.3882 1.19644 17.5232C0.872462 17.5915 -0.0345513 17.5957 0.00681915 17.5288C0.0231956 17.5022 0.0732368 17.4805 0.118029 17.4805C0.162817 17.4805 0.337443 17.4151 0.506056 17.3352C1.31964 16.9498 1.83935 16.0049 2.08371 14.467C2.45566 12.1264 4.12135 10.3833 6.10284 10.2612C6.77555 10.2198 7.58649 10.3682 8.30394 10.664C8.35258 10.6841 8.3627 10.5498 8.3521 10.0261L8.33866 9.3628L8.02943 9.27556C7.48882 9.12302 6.58743 8.99241 6.08112 8.99328C5.26479 8.99468 4.69139 9.17071 4.27451 9.5479C4.17342 9.63934 4.07666 9.70006 4.05951 9.68284C4.0102 9.6335 4.02364 8.98701 4.07801 8.79102C4.10503 8.69345 4.19702 8.50946 4.28241 8.38214C4.77076 7.65385 6.19386 7.63813 7.68396 8.34467C7.93315 8.46278 8.14602 8.55036 8.15709 8.53927C8.16817 8.52823 8.14583 8.45748 8.10744 8.38205C8.00447 8.17964 7.70847 7.27594 7.63604 6.94279C7.60146 6.78364 7.57353 6.4147 7.57397 6.12292C7.57464 5.68487 7.59409 5.54298 7.6856 5.30879C7.9133 4.7261 8.33664 4.44638 8.99072 4.44638C9.19087 4.44638 9.40124 4.46118 9.45817 4.47927C9.55618 4.51042 9.55188 4.52099 9.3773 4.67893C9.10567 4.9247 8.8669 5.41658 8.7699 5.93001C8.64887 6.57095 8.73127 7.86818 8.94361 8.66427L8.99111 8.84243L9.62023 8.85718C9.96627 8.86528 10.255 8.86621 10.2618 8.85926C10.2687 8.85232 10.2152 8.7221 10.1429 8.56989C9.69198 7.62 9.56075 6.53247 9.78937 5.64064C10.1124 4.38069 11.1972 3.22178 12.6361 2.59946C12.8419 2.51043 13.276 2.371 13.6009 2.28959C14.7491 2.00186 15.2879 1.75195 15.8058 1.26678C16.1389 0.954745 16.3796 0.536995 16.4466 0.154598C16.4788 -0.0295352 16.486 -0.0380208 16.5173 0.0703468ZM19.4239 2.81614C20.1625 3.08236 20.6992 3.76261 20.8645 4.64194C21.0296 5.52031 20.6976 6.31298 19.9695 6.77833L19.7528 6.91684L20.0659 6.91727C21.314 6.91901 23.366 6.63789 25.0162 6.23905C25.9735 6.00765 27.6727 5.4745 27.7933 5.36767C27.8184 5.34539 26.4412 5.32716 24.7326 5.32716C22.3808 5.32716 21.6122 5.31313 21.5685 5.26929C21.485 5.18571 21.4974 5.06481 21.5988 4.97293C21.6791 4.90016 22.0077 4.89311 25.332 4.89311L28.9771 4.89311L29.5515 4.60476C30.7364 4.00997 31.9379 3.55137 32.9248 3.31723C33.3013 3.22791 33.6213 3.19053 34.1771 3.17105C35.0817 3.13936 35.5 3.21012 36.0976 3.49591C37.0091 3.93189 37.718 5.00009 37.4349 5.51091C37.2778 5.79454 36.8927 5.88848 36.6085 5.71255C36.4248 5.59893 36.3876 5.51202 36.2475 4.869C36.1367 4.36039 35.953 3.8853 35.8211 3.76579C35.7777 3.72654 35.5801 3.64942 35.382 3.59444C34.5739 3.37028 33.3227 3.5015 31.9976 3.94949C31.2505 4.20201 29.8424 4.81658 29.8426 4.88998C29.8426 4.90498 31.0292 4.92485 32.4794 4.93415C34.8194 4.94915 35.1229 4.95972 35.1763 5.02777C35.2545 5.12736 35.2523 5.15981 35.1609 5.2514C35.0937 5.31872 34.7392 5.32716 31.9854 5.32716L28.8857 5.32716L28.1721 5.61103C26.0937 6.4378 23.6392 7.01248 21.3421 7.21011C20.5603 7.27739 18.8683 7.27691 18.3561 7.20925C18.1442 7.18128 17.8071 7.14501 17.6069 7.12871C16.9414 7.07455 16.1062 7.32345 15.8641 7.64812C15.5942 8.01007 15.7997 8.7044 16.1993 8.78123C16.3326 8.80679 16.3621 8.79391 16.4098 8.68911C16.4543 8.59135 16.4498 8.53623 16.3873 8.41074C16.2925 8.22048 16.286 7.96266 16.3741 7.8894C16.4097 7.85979 16.5033 7.82265 16.582 7.80688C16.7537 7.77254 16.9844 7.94178 17.0796 8.17187C17.1617 8.37042 17.1206 8.79902 17.0044 8.95639C16.7837 9.25516 16.3514 9.36117 15.9827 9.20693C15.5859 9.04098 15.3489 8.67141 15.3471 8.21595C15.3445 7.53749 15.69 7.19902 16.5742 7.01402L16.8631 6.95359L16.5983 6.85439C16.3767 6.77139 16.2192 6.75489 15.635 6.75359C14.9526 6.752 14.9279 6.75562 14.5514 6.91163C14.1061 7.09615 13.8827 7.25197 13.7808 7.44927C13.6735 7.65699 13.6914 7.83582 13.8343 7.98518C13.9034 8.05743 13.9455 8.13999 13.9277 8.16868C13.9101 8.19733 13.7633 8.22082 13.6016 8.22082C13.0314 8.22082 12.6223 7.81195 12.6299 7.24966C12.6336 6.98238 12.6307 6.97645 12.4848 6.94776C12.033 6.85887 11.5219 6.69234 11.4757 6.61899C11.36 6.43524 11.9493 6.03924 12.5768 5.87903C12.8242 5.81585 13.1896 5.78552 13.9494 5.76502L14.9849 5.7371L15.013 5.44773C15.0477 5.09056 15.1415 4.90387 15.3961 4.68573C15.6153 4.49779 15.8478 4.43239 16.0385 4.50502C16.1771 4.55779 16.2069 4.70165 16.0979 4.79222C15.9846 4.88641 15.9203 5.23731 15.978 5.44672C16.1104 5.92673 16.4562 6.21344 17.1749 6.4391C18.1323 6.7397 18.8879 6.75292 19.4278 6.4785C20.7411 5.81098 20.8222 3.70078 19.5584 3.08163C19.2607 2.93574 19.0815 2.94997 18.9097 3.13309C18.7965 3.25376 18.7954 3.30126 18.8913 3.89345C18.9924 4.51747 18.2143 4.74703 17.9286 4.17751C17.7399 3.80143 17.8103 3.38754 18.1146 3.08274C18.4584 2.73845 18.9377 2.64083 19.4239 2.81614ZM5.59349 4.98383C5.80015 5.11308 6.01837 5.35875 6.1983 5.66475C6.37828 5.97086 6.69508 6.83958 6.63425 6.86032C6.56721 6.88323 5.95499 6.6378 5.64204 6.46254C5.08612 6.15123 4.75067 5.77018 4.75067 5.45009C4.75067 5.02067 5.22915 4.75595 5.59349 4.98383ZM6.48398 11.8132C6.51673 11.8527 6.60338 12.1163 6.67658 12.3989L6.80969 12.9128L7.10396 12.9204C7.34563 12.9266 7.43477 12.9537 7.60286 13.0719C7.95756 13.3216 8.12843 13.6974 8.04993 14.0553C8.01261 14.2255 7.88662 14.2499 7.79598 14.1046C7.70862 13.9645 7.42052 13.9763 7.19599 14.1291C6.97397 14.2801 6.72378 14.7877 6.60376 15.3304C6.50311 15.7858 6.52886 16.3852 6.66829 16.8309L6.75831 17.1188L6.81413 16.9018C6.97431 16.2793 7.02454 16.1674 7.2467 15.9384C7.4314 15.7481 7.52036 15.6958 7.74253 15.6468C8.44144 15.4926 9.09489 15.9684 9.10105 16.636C9.10534 17.099 8.83231 17.3904 8.36587 17.4208C8.04488 17.4416 7.80721 17.3318 7.6712 17.0999C7.59381 16.9679 7.58991 16.9272 7.6426 16.7999C7.72587 16.5985 7.88258 16.5463 8.11886 16.6409C8.37758 16.7446 8.57493 16.7166 8.59521 16.5735C8.64929 16.1913 7.91485 15.8857 7.52378 16.1278C7.1161 16.3801 6.83831 17.3967 6.98847 18.0867C7.27792 19.4168 7.16238 21.9247 6.70316 24.2786C6.40534 25.8052 6.04509 27.0361 5.44246 28.5864L5.18412 29.2511L5.18412 32.5676C5.18412 35.0829 5.17016 35.8982 5.12633 35.9421C5.03786 36.0307 4.85624 36.0109 4.80051 35.9067C4.76791 35.8456 4.74927 34.8323 4.74667 32.9768L4.74272 30.1403L4.48101 30.6888C3.49997 32.7449 3.13381 34.6668 3.50898 35.7911C3.61817 36.1183 3.62096 36.1215 3.93193 36.2771C4.11966 36.3709 4.4474 36.4744 4.75067 36.5357C5.38683 36.664 5.50636 36.7256 5.62026 36.9835C5.84801 37.4991 5.40325 37.9471 4.82459 37.7849C4.31394 37.6417 3.64023 37.033 3.35882 36.4606C3.08753 35.9088 3.00238 35.4858 3.00392 34.6978C3.00657 33.366 3.38593 32.0802 4.39514 29.9822L4.75067 29.2431L4.75067 25.8289C4.75067 22.5199 4.75352 22.4121 4.84343 22.3306C4.96075 22.2243 5.09377 22.2485 5.16369 22.389C5.20261 22.4671 5.21316 23.2693 5.20103 25.2265C5.19169 26.7272 5.19813 27.9779 5.21533 28.0057C5.25424 28.0687 5.40344 27.666 5.711 26.6679C6.32206 24.6847 6.66618 22.7298 6.7572 20.7238C6.77435 20.3458 6.77464 20.0366 6.75783 20.0366C6.74097 20.0366 6.68361 20.1222 6.6303 20.2268C6.48765 20.5068 6.10328 20.8681 5.78045 21.0256C5.53339 21.146 5.42907 21.1663 4.96465 21.1838C4.49278 21.2016 4.39356 21.1904 4.09284 21.0857C2.74077 20.6148 2.11275 19.2301 2.88602 18.4249C3.02342 18.2818 3.15813 18.1949 3.30242 18.1562C3.89581 17.9973 4.46903 18.3944 4.31612 18.8584C4.21219 19.1738 3.87284 19.3031 3.51365 19.1644C3.27001 19.0702 3.05531 19.0978 2.93423 19.2387C2.63144 19.5912 3.03672 20.2862 3.73086 20.6047C4.48227 20.9495 5.55245 20.7026 6.07524 20.0637C6.35004 19.7279 6.45181 19.4426 6.47507 18.9431C6.49982 18.4105 6.43968 18.0349 6.22647 17.3911C6.04548 16.8445 5.89401 16.6153 5.58342 16.4181C5.25737 16.211 5.03964 16.1917 4.7317 16.3426C4.59116 16.4114 4.45357 16.4677 4.42593 16.4677C4.28005 16.4677 4.2798 16.0065 4.42559 15.7921C4.63798 15.4797 4.86192 15.345 5.2199 15.3142L5.54533 15.2862L5.57519 14.2731C5.61521 12.9158 5.74428 12.4032 6.17528 11.8904C6.31374 11.7256 6.3946 11.7054 6.48398 11.8132Z" fill="#D4AF37"/>
<path fill-rule="evenodd" clip-rule="evenodd" d="M333.493 2.7266C333.474 2.79291 333.445 3.02267 333.429 3.23714C333.356 4.18944 333.747 4.94801 334.574 5.45908L334.862 5.6367L334.508 5.73895C334.313 5.79518 334.047 5.90355 333.916 5.9797C333.629 6.14618 333.092 6.68324 332.946 6.94825L332.841 7.13943L333.308 6.91232C333.564 6.78741 333.969 6.6259 334.207 6.55337C334.606 6.43198 334.707 6.42132 335.483 6.41876C336.225 6.41635 336.372 6.42933 336.709 6.52694C337.658 6.80217 338.369 7.3606 338.746 8.12809C339.051 8.74768 339.16 9.26154 339.164 10.1054C339.168 10.8053 339.122 11.3833 339.054 11.4933C339.031 11.5299 338.784 11.5698 338.394 11.5998C338.052 11.6261 337.641 11.663 337.482 11.6818L337.193 11.716L337.434 11.7502C337.566 11.7689 337.963 11.8005 338.315 11.8204C338.666 11.8402 338.964 11.8721 338.976 11.8912C338.988 11.9103 338.945 12.1287 338.88 12.3764C338.816 12.6242 338.77 12.8344 338.78 12.8436C338.804 12.8679 339.202 12.3705 339.365 12.1115L339.505 11.89L339.832 11.8899L340.158 11.8899L340.127 12.1284C340.086 12.4371 340.123 12.5734 340.305 12.7805C340.487 12.9885 340.754 13.0727 341.008 13.0025C341.105 12.9755 341.195 12.9638 341.208 12.9763C341.22 12.9889 341.24 13.1138 341.252 13.2538L341.273 13.5085L340.86 13.7611C340.4 14.0426 340.112 14.2756 340.275 14.2339C340.546 14.1647 341.226 14.0559 341.249 14.0782C341.263 14.0923 341.293 14.3706 341.315 14.6968C341.366 15.434 341.416 15.9486 341.434 15.9303C341.454 15.9103 341.542 15.037 341.579 14.487L341.611 14.0216L342.003 14.0014C342.573 13.9719 343.44 14.0439 343.885 14.1579C345.185 14.4903 345.991 15.28 346.322 16.5438C346.478 17.1388 346.467 18.1164 346.297 18.7623C346.177 19.2189 345.825 20.023 345.596 20.3659C345.539 20.452 345.512 20.5226 345.538 20.5226C345.667 20.5226 346.092 20.2258 346.397 19.9227C346.755 19.566 346.907 19.3224 347.044 18.8864L347.125 18.6247L347.281 18.9508C347.572 19.5618 348.174 20.0445 348.814 20.1794C349.138 20.2478 350.045 20.252 350.004 20.185C349.988 20.1585 349.938 20.1368 349.893 20.1367C349.848 20.1367 349.673 20.0713 349.505 19.9915C348.691 19.606 348.171 18.6612 347.927 17.1232C347.555 14.7827 345.889 13.0396 343.908 12.9175C343.235 12.8761 342.424 13.0244 341.707 13.3202C341.658 13.3403 341.648 13.206 341.659 12.6824L341.672 12.0191L341.981 11.9318C342.522 11.7793 343.423 11.6487 343.93 11.6495C344.746 11.6509 345.319 11.827 345.736 12.2041C345.837 12.2956 345.934 12.3563 345.951 12.3391C346.001 12.2898 345.987 11.6433 345.933 11.4473C345.906 11.3497 345.814 11.1657 345.728 11.0384C345.24 10.3101 343.817 10.2944 342.327 11.0009C342.078 11.119 341.865 11.2066 341.854 11.1955C341.843 11.1845 341.865 11.1137 341.903 11.0383C342.006 10.8359 342.302 9.93219 342.375 9.59904C342.409 9.43989 342.437 9.07095 342.437 8.77917C342.436 8.34112 342.417 8.19923 342.325 7.96504C342.097 7.38235 341.674 7.10263 341.02 7.10263C340.82 7.10263 340.609 7.11743 340.553 7.13552C340.455 7.16667 340.459 7.17724 340.633 7.33518C340.905 7.58095 341.144 8.07283 341.241 8.58626C341.362 9.2272 341.279 10.5244 341.067 11.3205L341.02 11.4987L340.391 11.5134C340.044 11.5215 339.756 11.5225 339.749 11.5155C339.742 11.5086 339.796 11.3784 339.868 11.2261C340.319 10.2763 340.45 9.18872 340.221 8.29689C339.898 7.03694 338.814 5.87803 337.375 5.25571C337.169 5.16668 336.735 5.02725 336.41 4.94584C335.262 4.65811 334.723 4.4082 334.205 3.92303C333.872 3.61099 333.631 3.19325 333.564 2.81085C333.532 2.62671 333.525 2.61823 333.493 2.7266ZM330.587 5.47239C329.848 5.73861 329.312 6.41886 329.146 7.29819C328.981 8.17656 329.313 8.96923 330.041 9.43458L330.258 9.57309L329.945 9.57352C328.697 9.57526 326.645 9.29414 324.995 8.8953C324.037 8.6639 322.338 8.13075 322.217 8.02392C322.192 8.00164 323.57 7.98341 325.278 7.98341C327.63 7.98341 328.398 7.96938 328.442 7.92554C328.526 7.84196 328.513 7.72106 328.412 7.62918C328.332 7.55641 328.003 7.54936 324.679 7.54936L321.034 7.54936L320.459 7.26101C319.274 6.66622 318.073 6.20762 317.086 5.97348C316.709 5.88416 316.389 5.84678 315.834 5.8273C314.929 5.79561 314.511 5.86637 313.913 6.15216C313.002 6.58814 312.293 7.65634 312.576 8.16716C312.733 8.45079 313.118 8.54473 313.402 8.3688C313.586 8.25518 313.623 8.16827 313.763 7.52525C313.874 7.01664 314.058 6.54155 314.19 6.42204C314.233 6.38279 314.431 6.30567 314.629 6.25069C315.437 6.02653 316.688 6.15775 318.013 6.60574C318.76 6.85826 320.168 7.47283 320.168 7.54623C320.168 7.56123 318.982 7.5811 317.531 7.5904C315.191 7.6054 314.888 7.61597 314.834 7.68402C314.756 7.78361 314.758 7.81606 314.85 7.90765C314.917 7.97497 315.272 7.98341 318.025 7.98341L321.125 7.98341L321.839 8.26728C323.917 9.09405 326.372 9.66873 328.669 9.86636C329.45 9.93364 331.142 9.93316 331.655 9.8655C331.867 9.83753 332.204 9.80126 332.404 9.78496C333.069 9.7308 333.905 9.9797 334.147 10.3044C334.417 10.6663 334.211 11.3607 333.811 11.4375C333.678 11.463 333.649 11.4502 333.601 11.3454C333.556 11.2476 333.561 11.1925 333.623 11.067C333.718 10.8767 333.725 10.6189 333.637 10.5457C333.601 10.516 333.507 10.4789 333.429 10.4631C333.257 10.4288 333.026 10.598 332.931 10.8281C332.849 11.0267 332.89 11.4553 333.006 11.6126C333.227 11.9114 333.659 12.0174 334.028 11.8632C334.425 11.6972 334.662 11.3277 334.664 10.8722C334.666 10.1937 334.321 9.85527 333.437 9.67027L333.148 9.60984L333.412 9.51064C333.634 9.42764 333.792 9.41114 334.376 9.40984C335.058 9.40825 335.083 9.41187 335.459 9.56788C335.905 9.7524 336.128 9.90822 336.23 10.1055C336.337 10.3132 336.319 10.4921 336.176 10.6414C336.107 10.7137 336.065 10.7962 336.083 10.8249C336.101 10.8536 336.247 10.8771 336.409 10.8771C336.979 10.8771 337.388 10.4682 337.381 9.90591C337.377 9.63863 337.38 9.6327 337.526 9.60401C337.978 9.51512 338.489 9.34859 338.535 9.27524C338.651 9.09149 338.061 8.69549 337.434 8.53528C337.187 8.4721 336.821 8.44177 336.061 8.42127L335.026 8.39335L334.998 8.10398C334.963 7.74681 334.869 7.56012 334.615 7.34198C334.395 7.15404 334.163 7.08864 333.972 7.16127C333.834 7.21404 333.804 7.3579 333.913 7.44847C334.026 7.54266 334.09 7.89356 334.033 8.10297C333.9 8.58298 333.555 8.86969 332.836 9.09535C331.878 9.39595 331.123 9.40917 330.583 9.13475C329.27 8.46723 329.189 6.35703 330.452 5.73788C330.75 5.59199 330.929 5.60622 331.101 5.78934C331.214 5.91001 331.215 5.95751 331.119 6.5497C331.018 7.17372 331.796 7.40328 332.082 6.83376C332.271 6.45768 332.2 6.04379 331.896 5.73899C331.552 5.3947 331.073 5.29708 330.587 5.47239ZM344.417 7.64008C344.211 7.76933 343.992 8.015 343.812 8.321C343.632 8.62711 343.316 9.49583 343.376 9.51657C343.444 9.53948 344.056 9.29405 344.369 9.11879C344.925 8.80748 345.26 8.42643 345.26 8.10634C345.26 7.67692 344.782 7.4122 344.417 7.64008ZM343.527 14.4695C343.494 14.509 343.407 14.7725 343.334 15.0552L343.201 15.569L342.907 15.5766C342.665 15.5828 342.576 15.6099 342.408 15.7282C342.053 15.9779 341.882 16.3537 341.961 16.7116C341.998 16.8817 342.124 16.9062 342.215 16.7608C342.302 16.6208 342.59 16.6325 342.815 16.7853C343.037 16.9364 343.287 17.4439 343.407 17.9867C343.508 18.442 343.482 19.0414 343.342 19.4872L343.252 19.7751L343.197 19.558C343.036 18.9355 342.986 18.8236 342.764 18.5947C342.579 18.4043 342.49 18.3521 342.268 18.303C341.569 18.1489 340.916 18.6247 340.91 19.2922C340.905 19.7552 341.178 20.0467 341.645 20.077C341.966 20.0979 342.204 19.9881 342.34 19.7562C342.417 19.6242 342.421 19.5835 342.368 19.4561C342.285 19.2548 342.128 19.2025 341.892 19.2972C341.633 19.4008 341.436 19.3729 341.416 19.2297C341.361 18.8475 342.096 18.542 342.487 18.784C342.895 19.0363 343.172 20.0529 343.022 20.7429C342.733 22.0731 342.848 24.5809 343.308 26.9349C343.605 28.4614 343.966 29.6924 344.568 31.2427L344.827 31.9073L344.827 35.2239C344.827 37.7392 344.841 38.5544 344.884 38.5983C344.973 38.6869 345.155 38.6672 345.21 38.5629C345.243 38.5019 345.261 37.4886 345.264 35.6331L345.268 32.7965L345.53 33.345C346.511 35.4011 346.877 37.323 346.502 38.4474C346.393 38.7746 346.39 38.7778 346.079 38.9333C345.891 39.0272 345.563 39.1307 345.26 39.1919C344.624 39.3203 344.504 39.3818 344.39 39.6398C344.163 40.1554 344.607 40.6033 345.186 40.4411C345.697 40.2979 346.371 39.6892 346.652 39.1168C346.923 38.565 347.008 38.142 347.007 37.3541C347.004 36.0223 346.625 34.7365 345.616 32.6384L345.26 31.8994L345.26 28.4852C345.26 25.1762 345.257 25.0683 345.167 24.9869C345.05 24.8805 344.917 24.9048 344.847 25.0453C344.808 25.1234 344.798 25.9255 344.81 27.8827C344.819 29.3835 344.813 30.6341 344.795 30.662C344.757 30.725 344.607 30.3222 344.3 29.3242C343.689 27.341 343.345 25.3861 343.254 23.3801C343.236 23.0021 343.236 22.6928 343.253 22.6928C343.27 22.6928 343.327 22.7785 343.38 22.8831C343.523 23.1631 343.907 23.5243 344.23 23.6818C344.477 23.8023 344.582 23.8225 345.046 23.84C345.518 23.8578 345.617 23.8467 345.918 23.7419C347.27 23.2711 347.898 21.8864 347.125 21.0811C346.987 20.938 346.853 20.8511 346.708 20.8125C346.115 20.6536 345.542 21.0506 345.695 21.5146C345.799 21.83 346.138 21.9594 346.497 21.8206C346.741 21.7265 346.955 21.754 347.077 21.895C347.379 22.2475 346.974 22.9424 346.28 23.261C345.528 23.6058 344.458 23.3588 343.936 22.7199C343.661 22.3841 343.559 22.0988 343.536 21.5993C343.511 21.0668 343.571 20.6911 343.784 20.0473C343.965 19.5008 344.117 19.2715 344.427 19.0743C344.753 18.8672 344.971 18.8479 345.279 18.9989C345.42 19.0677 345.557 19.124 345.585 19.124C345.731 19.124 345.731 18.6628 345.585 18.4484C345.373 18.136 345.149 18.0012 344.791 17.9704L344.465 17.9424L344.436 16.9293C344.396 15.5721 344.266 15.0595 343.835 14.5466C343.697 14.3818 343.616 14.3616 343.527 14.4695Z" fill="#D4AF37"/>
<path fill-rule="evenodd" clip-rule="evenodd" d="M16.7353 531.994C16.7547 531.927 16.7841 531.696 16.8006 531.481C16.8741 530.524 16.4778 529.762 15.6398 529.248L15.3485 529.07L15.7073 528.967C15.9047 528.91 16.1748 528.802 16.3075 528.725C16.5978 528.558 17.1424 528.018 17.2898 527.752L17.3961 527.56L16.9237 527.788C16.6639 527.913 16.2536 528.076 16.012 528.149C15.6075 528.271 15.5049 528.281 14.7184 528.284C13.9668 528.286 13.8176 528.273 13.4765 528.175C12.5143 527.899 11.7941 527.338 11.4113 526.566C11.1023 525.944 10.9923 525.427 10.9879 524.58C10.9843 523.876 11.0308 523.296 11.0996 523.185C11.1225 523.148 11.373 523.108 11.768 523.078C12.1155 523.052 12.5316 523.014 12.6927 522.996L12.9856 522.961L12.7415 522.927C12.6073 522.908 12.2056 522.876 11.8489 522.856C11.4923 522.836 11.1906 522.804 11.1787 522.785C11.1667 522.766 11.2104 522.547 11.2757 522.298C11.341 522.049 11.3869 521.837 11.3775 521.828C11.3529 521.804 10.9498 522.304 10.7842 522.564L10.6426 522.786L10.3114 522.786L9.98022 522.787L10.0122 522.547C10.0537 522.237 10.0161 522.1 9.83198 521.892C9.64718 521.683 9.37666 521.598 9.11917 521.669C9.02042 521.696 8.92919 521.707 8.91645 521.695C8.90375 521.682 8.8837 521.557 8.87198 521.416L8.8506 521.16L9.26903 520.906C9.73529 520.624 10.0273 520.389 9.86156 520.431C9.58694 520.501 8.89766 520.61 8.87511 520.588C8.8609 520.574 8.83059 520.294 8.8078 519.966C8.75625 519.225 8.70597 518.708 8.68733 518.727C8.66717 518.747 8.57823 519.624 8.5404 520.177L8.50833 520.645L8.11108 520.665C7.53261 520.695 6.65433 520.622 6.20296 520.508C4.88594 520.174 4.06857 519.38 3.73298 518.11C3.57502 517.512 3.58629 516.53 3.75851 515.881C3.88029 515.422 4.23643 514.614 4.46878 514.27C4.52716 514.183 4.55363 514.112 4.52751 514.112C4.39659 514.112 3.96606 514.411 3.65718 514.715C3.29381 515.074 3.13976 515.318 3.00176 515.756L2.91897 516.019L2.76146 515.692C2.46629 515.078 1.85569 514.593 1.20711 514.457C0.878748 514.389 -0.0405365 514.384 0.00139464 514.452C0.0179886 514.478 0.0687088 514.5 0.114104 514.5C0.159502 514.5 0.336489 514.566 0.507384 514.646C1.33198 515.033 1.85872 515.983 2.10639 517.528C2.48337 519.88 4.1716 521.631 6.17991 521.754C6.86172 521.796 7.68364 521.647 8.4108 521.349C8.4601 521.329 8.47035 521.464 8.45961 521.99L8.44599 522.657L8.13257 522.744C7.58465 522.898 6.67107 523.029 6.1579 523.028C5.33052 523.027 4.74936 522.85 4.32683 522.471C4.22438 522.379 4.12631 522.318 4.10893 522.335C4.05895 522.385 4.07257 523.034 4.12768 523.231C4.15506 523.329 4.2483 523.514 4.33484 523.642C4.8298 524.374 6.27217 524.39 7.78243 523.68C8.03499 523.561 8.25074 523.473 8.26197 523.484C8.27319 523.495 8.25055 523.566 8.21164 523.642C8.10728 523.846 7.80727 524.754 7.73386 525.088C7.69881 525.248 7.67051 525.619 7.67095 525.912C7.67163 526.352 7.69134 526.495 7.78409 526.73C8.01488 527.316 8.44394 527.597 9.10687 527.597C9.30974 527.597 9.52295 527.582 9.58065 527.564C9.67998 527.532 9.67563 527.522 9.49868 527.363C9.22338 527.116 8.98137 526.622 8.88307 526.106C8.7604 525.462 8.84392 524.159 9.05913 523.359L9.10726 523.18L9.7449 523.165C10.0956 523.157 10.3882 523.156 10.3952 523.163C10.4021 523.17 10.3479 523.301 10.2747 523.453C9.81762 524.408 9.68462 525.501 9.91633 526.397C10.2438 527.663 11.3432 528.827 12.8016 529.453C13.0102 529.542 13.4502 529.682 13.7794 529.764C14.9432 530.053 15.4893 530.304 16.0142 530.792C16.3518 531.105 16.5958 531.525 16.6636 531.909C16.6963 532.094 16.7035 532.103 16.7353 531.994ZM19.6813 529.235C20.4298 528.967 20.9738 528.284 21.1413 527.4C21.3087 526.518 20.9722 525.721 20.2343 525.254L20.0146 525.114L20.3319 525.114C21.597 525.112 23.6767 525.395 25.3492 525.795C26.3195 526.028 28.0417 526.564 28.1639 526.671C28.1894 526.693 26.7935 526.712 25.0618 526.712C22.6782 526.712 21.8992 526.726 21.8548 526.77C21.7702 526.854 21.7828 526.975 21.8856 527.068C21.9669 527.141 22.3 527.148 25.6693 527.148L29.3638 527.148L29.9459 527.438C31.1469 528.035 32.3646 528.496 33.3649 528.731C33.7465 528.821 34.0708 528.859 34.6341 528.878C35.5509 528.91 35.9749 528.839 36.5806 528.552C37.5044 528.114 38.223 527.04 37.936 526.527C37.7768 526.242 37.3865 526.148 37.0984 526.325C36.9123 526.439 36.8746 526.526 36.7326 527.172C36.6202 527.683 36.4341 528.161 36.3003 528.281C36.2564 528.32 36.0561 528.398 35.8553 528.453C35.0363 528.678 33.7681 528.546 32.4251 528.096C31.6679 527.842 30.2407 527.225 30.241 527.151C30.241 527.136 31.4436 527.116 32.9135 527.107C35.2851 527.092 35.5927 527.081 35.6469 527.013C35.7261 526.913 35.7239 526.88 35.6312 526.788C35.5631 526.72 35.2038 526.712 32.4128 526.712L29.2711 526.712L28.5478 526.427C26.4413 525.596 23.9535 525.018 21.6254 524.82C20.833 524.752 19.1181 524.753 18.599 524.821C18.3843 524.849 18.0425 524.885 17.8397 524.902C17.1652 524.956 16.3186 524.706 16.0733 524.38C15.7997 524.016 16.008 523.318 16.4131 523.241C16.5481 523.215 16.578 523.228 16.6263 523.334C16.6714 523.432 16.6669 523.487 16.6035 523.613C16.5075 523.805 16.5009 524.064 16.5902 524.137C16.6263 524.167 16.7211 524.204 16.8009 524.22C16.9749 524.255 17.2087 524.085 17.3052 523.853C17.3884 523.654 17.3468 523.223 17.229 523.065C17.0053 522.765 16.5672 522.658 16.1935 522.813C15.7913 522.98 15.5511 523.351 15.5493 523.809C15.5466 524.491 15.8968 524.831 16.793 525.017L17.0858 525.078L16.8174 525.177C16.5928 525.261 16.4332 525.277 15.8411 525.278C15.1494 525.28 15.1245 525.276 14.7428 525.12C14.2915 524.934 14.065 524.778 13.9618 524.579C13.8531 524.371 13.8711 524.191 14.016 524.041C14.086 523.968 14.1287 523.885 14.1107 523.857C14.0928 523.828 13.9441 523.804 13.7802 523.804C13.2022 523.804 12.7876 524.215 12.7954 524.78C12.799 525.049 12.7961 525.055 12.6483 525.083C12.1904 525.173 11.6723 525.34 11.6255 525.414C11.5083 525.598 12.1055 525.996 12.7415 526.157C12.9923 526.221 13.3626 526.251 14.1327 526.272L15.1821 526.3L15.2107 526.591C15.2458 526.949 15.3409 527.137 15.5989 527.356C15.8211 527.545 16.0567 527.611 16.25 527.538C16.3905 527.485 16.4207 527.34 16.3103 527.249C16.1954 527.155 16.1302 526.802 16.1888 526.592C16.3229 526.109 16.6734 525.821 17.4019 525.594C18.3722 525.292 19.138 525.279 19.6852 525.555C21.0162 526.226 21.0985 528.346 19.8176 528.968C19.5159 529.115 19.3342 529.1 19.1601 528.916C19.0454 528.795 19.0442 528.747 19.1414 528.152C19.2439 527.525 18.4553 527.295 18.1657 527.867C17.9745 528.245 18.0458 528.661 18.3542 528.967C18.7027 529.313 19.1885 529.411 19.6813 529.235ZM5.66367 527.057C5.87312 526.927 6.0943 526.68 6.27666 526.373C6.45908 526.065 6.78017 525.192 6.71852 525.171C6.65057 525.148 6.03006 525.395 5.71287 525.571C5.14943 525.884 4.80944 526.267 4.80944 526.588C4.80944 527.02 5.2944 527.286 5.66367 527.057ZM6.56621 520.195C6.59941 520.155 6.68722 519.89 6.76142 519.606L6.89633 519.09L7.19458 519.082C7.43952 519.076 7.52987 519.049 7.70023 518.93C8.05974 518.679 8.23292 518.301 8.15335 517.942C8.11552 517.771 7.98783 517.746 7.89597 517.892C7.80742 518.033 7.51542 518.021 7.28786 517.868C7.06283 517.716 6.80925 517.206 6.68761 516.66C6.58559 516.203 6.6117 515.601 6.75302 515.153L6.84425 514.864L6.90082 515.082C7.06318 515.707 7.11408 515.82 7.33926 516.05C7.52645 516.241 7.61662 516.293 7.84179 516.343C8.55016 516.498 9.21245 516.019 9.2187 515.349C9.22305 514.883 8.94632 514.591 8.47357 514.56C8.14823 514.539 7.90735 514.649 7.7695 514.883C7.69106 515.015 7.68711 515.056 7.74051 515.184C7.8249 515.386 7.98374 515.439 8.22321 515.344C8.48543 515.24 8.68546 515.268 8.70601 515.412C8.76083 515.796 8.01645 516.103 7.62009 515.859C7.20689 515.606 6.92533 514.584 7.07753 513.891C7.3709 512.554 7.25379 510.035 6.78836 507.669C6.4865 506.136 6.12138 504.899 5.51059 503.341L5.24876 502.673L5.24876 499.341C5.24876 496.813 5.2346 495.994 5.19018 495.95C5.10051 495.861 4.91644 495.881 4.85996 495.986C4.82691 496.047 4.80803 497.065 4.80539 498.929L4.80139 501.78L4.53614 501.228C3.54182 499.163 3.1707 497.231 3.55095 496.102C3.66161 495.773 3.66444 495.77 3.97963 495.613C4.1699 495.519 4.50207 495.415 4.80944 495.354C5.45421 495.225 5.57536 495.163 5.6908 494.904C5.92164 494.385 5.47085 493.935 4.88437 494.098C4.36681 494.242 3.68397 494.854 3.39876 495.429C3.1238 495.983 3.03749 496.408 3.03906 497.2C3.04174 498.538 3.42624 499.83 4.44911 501.939L4.80944 502.681L4.80944 506.112C4.80944 509.437 4.81233 509.545 4.90346 509.627C5.02237 509.734 5.15718 509.709 5.22806 509.568C5.2675 509.49 5.2782 508.684 5.2659 506.717C5.25643 505.209 5.26296 503.952 5.28039 503.924C5.31983 503.861 5.47105 504.266 5.78277 505.269C6.4021 507.261 6.75088 509.226 6.84313 511.241C6.86051 511.621 6.8608 511.932 6.84376 511.932C6.82668 511.932 6.76855 511.846 6.71451 511.741C6.56993 511.459 6.18035 511.096 5.85316 510.938C5.60275 510.817 5.49703 510.797 5.02633 510.779C4.54806 510.761 4.4475 510.772 4.14271 510.878C2.77235 511.351 2.13582 512.742 2.91956 513.551C3.05882 513.695 3.19535 513.782 3.3416 513.821C3.94302 513.981 4.52399 513.582 4.36901 513.116C4.26367 512.799 3.91973 512.669 3.55569 512.808C3.30874 512.903 3.09114 512.875 2.96842 512.733C2.66154 512.379 3.07229 511.681 3.77583 511.361C4.53741 511.014 5.62208 511.263 6.15194 511.905C6.43046 512.242 6.5336 512.529 6.55718 513.031C6.58227 513.566 6.52131 513.943 6.30522 514.59C6.12178 515.139 5.96826 515.369 5.65347 515.568C5.323 515.776 5.10232 515.795 4.79021 515.643C4.64778 515.574 4.50832 515.518 4.4803 515.518C4.33245 515.518 4.3322 515.981 4.47996 516.197C4.69522 516.511 4.9222 516.646 5.28502 516.677L5.61486 516.705L5.64513 517.723C5.68569 519.087 5.8165 519.602 6.25333 520.117C6.39367 520.283 6.47562 520.303 6.56621 520.195Z" fill="#D4AF37"/>
<path fill-rule="evenodd" clip-rule="evenodd" d="M334.265 533.994C334.245 533.927 334.216 533.696 334.199 533.481C334.126 532.524 334.522 531.762 335.36 531.248L335.652 531.07L335.293 530.967C335.095 530.91 334.825 530.802 334.692 530.725C334.402 530.558 333.858 530.018 333.71 529.752L333.604 529.56L334.076 529.788C334.336 529.913 334.746 530.076 334.988 530.149C335.393 530.271 335.495 530.281 336.282 530.284C337.033 530.286 337.182 530.273 337.524 530.175C338.486 529.899 339.206 529.338 339.589 528.566C339.898 527.944 340.008 527.427 340.012 526.58C340.016 525.876 339.969 525.296 339.9 525.185C339.878 525.148 339.627 525.108 339.232 525.078C338.885 525.052 338.468 525.014 338.307 524.996L338.014 524.961L338.258 524.927C338.393 524.908 338.794 524.876 339.151 524.856C339.508 524.836 339.809 524.804 339.821 524.785C339.833 524.766 339.79 524.547 339.724 524.298C339.659 524.049 339.613 523.837 339.622 523.828C339.647 523.804 340.05 524.304 340.216 524.564L340.357 524.786L340.689 524.786L341.02 524.787L340.988 524.547C340.946 524.237 340.984 524.1 341.168 523.892C341.353 523.683 341.623 523.598 341.881 523.669C341.98 523.696 342.071 523.707 342.084 523.695C342.096 523.682 342.116 523.557 342.128 523.416L342.149 523.16L341.731 522.906C341.265 522.623 340.973 522.389 341.138 522.431C341.413 522.501 342.102 522.61 342.125 522.588C342.139 522.574 342.169 522.294 342.192 521.966C342.244 521.225 342.294 520.708 342.313 520.727C342.333 520.747 342.422 521.624 342.46 522.177L342.492 522.645L342.889 522.665C343.467 522.695 344.346 522.622 344.797 522.508C346.114 522.174 346.931 521.38 347.267 520.11C347.425 519.512 347.414 518.53 347.241 517.881C347.12 517.422 346.764 516.614 346.531 516.27C346.473 516.183 346.446 516.112 346.472 516.112C346.603 516.112 347.034 516.411 347.343 516.715C347.706 517.074 347.86 517.318 347.998 517.756L348.081 518.019L348.239 517.692C348.534 517.078 349.144 516.593 349.793 516.457C350.121 516.389 351.041 516.384 350.999 516.452C350.982 516.478 350.931 516.5 350.886 516.5C350.841 516.5 350.664 516.566 350.493 516.646C349.668 517.033 349.141 517.983 348.894 519.528C348.517 521.88 346.828 523.631 344.82 523.754C344.138 523.796 343.316 523.647 342.589 523.349C342.54 523.329 342.53 523.464 342.54 523.99L342.554 524.657L342.867 524.744C343.415 524.898 344.329 525.029 344.842 525.028C345.669 525.027 346.251 524.85 346.673 524.471C346.776 524.379 346.874 524.318 346.891 524.335C346.941 524.385 346.927 525.034 346.872 525.231C346.845 525.329 346.752 525.514 346.665 525.642C346.17 526.374 344.728 526.39 343.218 525.68C342.965 525.561 342.749 525.473 342.738 525.484C342.727 525.495 342.749 525.566 342.788 525.642C342.893 525.846 343.193 526.754 343.266 527.088C343.301 527.248 343.329 527.619 343.329 527.912C343.328 528.352 343.309 528.495 343.216 528.73C342.985 529.316 342.556 529.597 341.893 529.597C341.69 529.597 341.477 529.582 341.419 529.564C341.32 529.532 341.324 529.522 341.501 529.363C341.777 529.116 342.019 528.622 342.117 528.106C342.24 527.462 342.156 526.159 341.941 525.359L341.893 525.18L341.255 525.165C340.904 525.157 340.612 525.156 340.605 525.163C340.598 525.17 340.652 525.301 340.725 525.453C341.182 526.408 341.315 527.501 341.084 528.397C340.756 529.663 339.657 530.827 338.198 531.453C337.99 531.542 337.55 531.682 337.221 531.764C336.057 532.053 335.511 532.304 334.986 532.792C334.648 533.105 334.404 533.525 334.336 533.909C334.304 534.094 334.296 534.103 334.265 533.994ZM331.319 531.235C330.57 530.967 330.026 530.284 329.859 529.4C329.691 528.518 330.028 527.721 330.766 527.254L330.985 527.114L330.668 527.114C329.403 527.112 327.323 527.395 325.651 527.795C324.681 528.028 322.958 528.564 322.836 528.671C322.811 528.693 324.207 528.712 325.938 528.712C328.322 528.712 329.101 528.726 329.145 528.77C329.23 528.854 329.217 528.975 329.114 529.068C329.033 529.141 328.7 529.148 325.331 529.148L321.636 529.148L321.054 529.438C319.853 530.035 318.635 530.496 317.635 530.731C317.254 530.821 316.929 530.859 316.366 530.878C315.449 530.91 315.025 530.839 314.419 530.552C313.496 530.114 312.777 529.04 313.064 528.527C313.223 528.242 313.614 528.148 313.902 528.325C314.088 528.439 314.125 528.526 314.267 529.172C314.38 529.683 314.566 530.161 314.7 530.281C314.744 530.32 314.944 530.398 315.145 530.453C315.964 530.678 317.232 530.546 318.575 530.096C319.332 529.842 320.759 529.225 320.759 529.151C320.759 529.136 319.556 529.116 318.087 529.107C315.715 529.092 315.407 529.081 315.353 529.013C315.274 528.913 315.276 528.88 315.369 528.788C315.437 528.72 315.796 528.712 318.587 528.712L321.729 528.712L322.452 528.427C324.559 527.596 327.046 527.018 329.375 526.82C330.167 526.752 331.882 526.753 332.401 526.821C332.616 526.849 332.957 526.885 333.16 526.902C333.835 526.956 334.681 526.706 334.927 526.38C335.2 526.016 334.992 525.318 334.587 525.241C334.452 525.215 334.422 525.228 334.374 525.334C334.329 525.432 334.333 525.487 334.396 525.613C334.493 525.805 334.499 526.064 334.41 526.137C334.374 526.167 334.279 526.204 334.199 526.22C334.025 526.255 333.791 526.085 333.695 525.853C333.612 525.654 333.653 525.223 333.771 525.065C333.995 524.765 334.433 524.658 334.807 524.813C335.209 524.98 335.449 525.351 335.451 525.809C335.453 526.491 335.103 526.831 334.207 527.017L333.914 527.078L334.183 527.177C334.407 527.261 334.567 527.277 335.159 527.278C335.851 527.28 335.876 527.276 336.257 527.12C336.709 526.934 336.935 526.778 337.038 526.579C337.147 526.371 337.129 526.191 336.984 526.041C336.914 525.968 336.871 525.885 336.889 525.857C336.907 525.828 337.056 525.804 337.22 525.804C337.798 525.804 338.212 526.215 338.205 526.78C338.201 527.049 338.204 527.055 338.352 527.083C338.81 527.173 339.328 527.34 339.375 527.414C339.492 527.598 338.894 527.996 338.258 528.157C338.008 528.221 337.637 528.251 336.867 528.272L335.818 528.3L335.789 528.591C335.754 528.949 335.659 529.137 335.401 529.356C335.179 529.545 334.943 529.611 334.75 529.538C334.609 529.485 334.579 529.34 334.69 529.249C334.805 529.155 334.87 528.802 334.811 528.592C334.677 528.109 334.327 527.821 333.598 527.594C332.628 527.292 331.862 527.279 331.315 527.555C329.984 528.226 329.902 530.346 331.182 530.968C331.484 531.115 331.666 531.1 331.84 530.916C331.955 530.795 331.956 530.747 331.859 530.152C331.756 529.525 332.545 529.295 332.834 529.867C333.026 530.245 332.954 530.661 332.646 530.967C332.297 531.313 331.812 531.411 331.319 531.235ZM345.336 529.057C345.127 528.927 344.906 528.68 344.723 528.373C344.541 528.065 344.22 527.192 344.281 527.171C344.349 527.148 344.97 527.395 345.287 527.571C345.851 527.884 346.191 528.267 346.191 528.588C346.191 529.02 345.706 529.286 345.336 529.057ZM344.434 522.195C344.401 522.155 344.313 521.89 344.239 521.606L344.104 521.09L343.805 521.082C343.56 521.076 343.47 521.049 343.3 520.93C342.94 520.679 342.767 520.301 342.847 519.942C342.884 519.771 343.012 519.746 343.104 519.892C343.193 520.033 343.485 520.021 343.712 519.868C343.937 519.716 344.191 519.206 344.312 518.66C344.414 518.203 344.388 517.601 344.247 517.153L344.156 516.864L344.099 517.082C343.937 517.707 343.886 517.82 343.661 518.05C343.474 518.241 343.383 518.293 343.158 518.343C342.45 518.498 341.788 518.019 341.781 517.349C341.777 516.883 342.054 516.591 342.526 516.56C342.852 516.539 343.093 516.649 343.231 516.883C343.309 517.015 343.313 517.056 343.259 517.184C343.175 517.386 343.016 517.439 342.777 517.344C342.515 517.24 342.315 517.268 342.294 517.412C342.239 517.796 342.984 518.103 343.38 517.859C343.793 517.606 344.075 516.584 343.922 515.891C343.629 514.554 343.746 512.035 344.212 509.669C344.513 508.136 344.879 506.899 345.489 505.341L345.751 504.673L345.751 501.341C345.751 498.813 345.765 497.994 345.81 497.95C345.899 497.861 346.084 497.881 346.14 497.986C346.173 498.047 346.192 499.065 346.195 500.929L346.199 503.78L346.464 503.228C347.458 501.163 347.829 499.231 347.449 498.102C347.338 497.773 347.336 497.77 347.02 497.613C346.83 497.519 346.498 497.415 346.191 497.354C345.546 497.225 345.425 497.163 345.309 496.904C345.078 496.385 345.529 495.935 346.116 496.098C346.633 496.242 347.316 496.854 347.601 497.429C347.876 497.983 347.963 498.408 347.961 499.2C347.958 500.538 347.574 501.83 346.551 503.939L346.191 504.681L346.191 508.112C346.191 511.437 346.188 511.545 346.097 511.627C345.978 511.734 345.843 511.709 345.772 511.568C345.733 511.49 345.722 510.684 345.734 508.717C345.744 507.209 345.737 505.952 345.72 505.924C345.68 505.861 345.529 506.266 345.217 507.269C344.598 509.261 344.249 511.226 344.157 513.241C344.139 513.621 344.139 513.932 344.156 513.932C344.173 513.932 344.231 513.846 344.285 513.741C344.43 513.459 344.82 513.096 345.147 512.938C345.397 512.817 345.503 512.797 345.974 512.779C346.452 512.761 346.552 512.772 346.857 512.878C348.228 513.351 348.864 514.742 348.08 515.551C347.941 515.695 347.805 515.782 347.658 515.821C347.057 515.981 346.476 515.582 346.631 515.116C346.736 514.799 347.08 514.669 347.444 514.808C347.691 514.903 347.909 514.875 348.032 514.733C348.338 514.379 347.928 513.681 347.224 513.361C346.463 513.014 345.378 513.263 344.848 513.905C344.57 514.242 344.466 514.529 344.443 515.031C344.418 515.566 344.479 515.943 344.695 516.59C344.878 517.139 345.032 517.369 345.347 517.568C345.677 517.776 345.898 517.795 346.21 517.643C346.352 517.574 346.492 517.518 346.52 517.518C346.668 517.518 346.668 517.981 346.52 518.197C346.305 518.511 346.078 518.646 345.715 518.677L345.385 518.705L345.355 519.723C345.314 521.087 345.183 521.602 344.747 522.117C344.606 522.283 344.524 522.303 344.434 522.195Z" fill="#D4AF37"/>
<path d="M192.52 527.966C198.766 527.987 203.683 527.894 211.297 527.907C218.91 527.92 220.051 527.97 228.77 527.959C237.489 527.947 246.213 527.981 250.095 527.961C253.977 527.941 254.387 528.002 259.9 527.988C265.412 527.975 268.753 527.983 273.575 528.003C278.396 528.023 293.209 528.04 298.595 528.015C303.981 527.991 310.125 528.033 313.819 528.043C314.97 528.047 315.876 528.051 316.57 528.055C316.864 528.057 317 528.061 317 528.065C317 528.065 317 528.065 317 528.065C317 528.07 316.789 528.075 316.411 528.076C314.576 528.079 311.834 528.086 308.594 528.104C302.553 528.137 301.893 528.101 293.736 528.118C285.579 528.135 280.678 528.169 271.08 528.147C261.482 528.125 259.277 528.217 245.729 528.164C232.181 528.112 230.755 528.208 217.254 528.221C203.753 528.234 186.71 528.181 178.572 528.185C170.433 528.19 159.502 528.201 147.965 528.188C136.427 528.176 122.184 528.208 109.448 528.185C96.7129 528.162 78.7075 528.134 70.3892 528.115C62.0713 528.096 60.0439 528.091 52.0375 528.103C47.4353 528.11 41.0953 528.103 35.7401 528.079C33.0451 528.066 33.6558 528.049 36.3685 528.041C40.3353 528.028 43.5916 528.036 45.6356 528.015C49.7198 527.972 51.4556 527.955 56.6116 527.98C61.7674 528.005 64.1968 527.948 67.2023 527.955C70.2079 527.961 70.1585 527.995 85.4407 527.969C100.723 527.943 109.101 527.936 114.888 527.93C120.676 527.924 132.76 527.953 142.192 527.943C151.624 527.932 170.799 527.942 178.528 527.924C186.258 527.907 186.274 527.945 192.52 527.966Z" fill="#D4AF37"/>
<path d="M191.509 5.64535C197.709 5.69522 202.589 5.47481 210.146 5.50596C217.702 5.53712 218.834 5.65403 227.488 5.62773C236.141 5.60142 244.8 5.68139 248.653 5.63336C252.506 5.58531 252.913 5.73058 258.384 5.69831C263.856 5.66605 267.172 5.68501 271.957 5.73223C276.742 5.77945 291.444 5.81977 296.79 5.76176C302.136 5.70375 308.233 5.8044 311.9 5.82827C313.042 5.83571 313.941 5.84588 314.63 5.85647C314.922 5.86096 315.057 5.87035 315.057 5.87962C315.057 5.87963 315.057 5.87963 315.057 5.87964C315.057 5.89118 314.848 5.90253 314.473 5.90399C312.651 5.91107 309.929 5.92974 306.714 5.9716C300.718 6.04964 300.063 5.9634 291.967 6.0035C283.871 6.04361 279.007 6.12379 269.481 6.07194C259.955 6.0201 257.767 6.23705 244.32 6.1141C230.873 5.99115 229.458 6.21805 216.058 6.24822C202.658 6.27839 185.743 6.1532 177.665 6.16358C169.588 6.17397 158.739 6.2004 147.288 6.17045C135.836 6.14051 121.7 6.2161 109.06 6.16267C96.4199 6.10924 78.5494 6.04176 70.2934 5.99655C62.0378 5.95133 60.0256 5.94113 52.0791 5.96876C47.5114 5.98464 41.2189 5.96967 35.9039 5.91126C33.229 5.88187 33.8351 5.84094 36.5275 5.82136C40.4646 5.79273 43.6965 5.81186 45.7252 5.76071C49.7788 5.65848 51.5016 5.61927 56.619 5.67877C61.7362 5.73826 64.1474 5.60306 67.1304 5.61862C70.1135 5.63419 70.0644 5.71393 85.2322 5.65249C100.4 5.59105 108.715 5.57537 114.459 5.56062C120.203 5.54587 132.197 5.61508 141.558 5.5901C150.92 5.56512 169.951 5.58801 177.623 5.54711C185.294 5.50622 185.31 5.59548 191.509 5.64535Z" fill="#D4AF37"/>
<path d="M5.23843 287.063C5.18856 296.996 5.40897 304.815 5.37782 316.921C5.34666 329.027 5.22975 330.84 5.25605 344.705C5.28235 358.569 5.20239 372.44 5.25042 378.614C5.29847 384.787 5.1532 385.438 5.18546 394.204C5.21772 402.97 5.19876 408.283 5.15154 415.949C5.10432 423.616 5.06401 447.169 5.12202 455.734C5.18002 464.299 5.07937 474.067 5.0555 479.942C5.04807 481.772 5.03789 483.212 5.0273 484.316C5.02281 484.784 5.01342 485 5.00415 485C5.00415 485 5.00414 485 5.00414 485C4.99259 485 4.98125 484.665 4.97979 484.064C4.97271 481.146 4.95403 476.785 4.91218 471.633C4.83413 462.028 4.92037 460.978 4.88027 448.007C4.84017 435.037 4.75999 427.244 4.81184 411.982C4.86368 396.72 4.64672 393.215 4.76968 371.672C4.89262 350.129 4.66573 347.861 4.63555 326.393C4.60539 304.925 4.73058 277.826 4.7202 264.884C4.70982 251.943 4.68339 234.562 4.71333 216.216C4.74328 197.87 4.66769 175.222 4.72112 154.971C4.77454 134.72 4.84202 106.09 4.88724 92.8627C4.93246 79.6364 4.94266 76.4125 4.91503 63.6815C4.89915 56.3635 4.91412 46.2823 4.97252 37.767C5.00192 33.4816 5.04285 34.4526 5.06243 38.7661C5.09106 45.0738 5.07193 50.2517 5.12308 53.5018C5.2253 59.9961 5.26452 62.7563 5.20502 70.9549C5.14553 79.1531 5.28073 83.0161 5.26517 87.7952C5.2496 92.5745 5.16985 92.4958 5.2313 116.796C5.29274 141.097 5.30842 154.419 5.32317 163.621C5.33792 172.824 5.2687 192.039 5.29369 207.037C5.31867 222.035 5.29577 252.525 5.33667 264.816C5.37756 277.106 5.2883 277.131 5.23843 287.063Z" fill="#D4AF37"/>
<path d="M346.238 296.063C346.189 305.996 346.409 313.815 346.378 325.921C346.347 338.027 346.23 339.84 346.256 353.705C346.282 367.569 346.202 381.44 346.25 387.614C346.298 393.787 346.153 394.438 346.185 403.204C346.218 411.97 346.199 417.283 346.152 424.949C346.104 432.616 346.064 456.169 346.122 464.734C346.18 473.299 346.079 483.067 346.056 488.942C346.048 490.772 346.038 492.212 346.027 493.316C346.023 493.784 346.013 494 346.004 494C346.004 494 346.004 494 346.004 494C345.993 494 345.981 493.665 345.98 493.064C345.973 490.146 345.954 485.785 345.912 480.633C345.834 471.028 345.92 469.978 345.88 457.007C345.84 444.037 345.76 436.244 345.812 420.982C345.864 405.72 345.647 402.215 345.77 380.672C345.893 359.129 345.666 356.861 345.636 335.393C345.605 313.925 345.731 286.826 345.72 273.884C345.71 260.943 345.683 243.562 345.713 225.216C345.743 206.87 345.668 184.222 345.721 163.971C345.775 143.72 345.842 115.09 345.887 101.863C345.932 88.6364 345.943 85.4125 345.915 72.6815C345.899 65.3635 345.914 55.2823 345.973 46.767C346.002 42.4816 346.043 43.4526 346.062 47.7661C346.091 54.0738 346.072 59.2517 346.123 62.5018C346.225 68.9961 346.265 71.7563 346.205 79.9549C346.146 88.1531 346.281 92.0161 346.265 96.7952C346.25 101.574 346.17 101.496 346.231 125.796C346.293 150.097 346.308 163.419 346.323 172.621C346.338 181.824 346.269 201.039 346.294 216.037C346.319 231.035 346.296 261.525 346.337 273.816C346.378 286.106 346.288 286.131 346.238 296.063Z" fill="#D4AF37"/>
</svg>
