<svg width="60" height="507" viewBox="0 0 60 507" fill="none" xmlns="http://www.w3.org/2000/svg">
<g filter="url(#filter0_g_522_1988)">
<path d="M33.3503 373.862C33.7826 375.245 33.715 376.635 33.1532 378.012C32.6621 379.215 32.6549 380.405 33.1308 381.605C33.441 382.387 33.3178 383.17 32.8203 383.909C32.3358 384.629 31.4949 385.314 30.3452 385.976C29.2363 386.614 28.4304 387.238 27.9092 387.842C27.3909 388.442 27.1687 389.003 27.1754 389.528C27.1911 390.746 27.5511 391.975 28.2671 393.219C29.031 394.546 29.5333 395.884 29.7693 397.228C29.9844 398.453 30.5396 399.693 31.4499 400.948C31.9828 401.683 32.1282 402.47 31.8162 403.26C31.517 404.018 30.8179 404.723 29.8117 405.389C27.8741 406.673 26.9975 407.876 26.9364 408.977C26.8691 410.198 27.1358 411.429 27.7489 412.669C28.443 414.074 28.4271 415.499 27.7037 416.903C27.0618 418.149 26.7597 419.383 26.7862 420.605C26.7979 421.119 27.0575 421.675 27.6519 422.278C28.2479 422.883 29.1561 423.507 30.3967 424.142C31.6655 424.791 32.5393 425.493 32.8569 426.279C33.0228 426.691 33.031 427.117 32.8779 427.533C32.7285 427.937 32.4345 428.311 32.0366 428.66C30.6109 429.914 30.1434 431.076 30.3994 432.17C30.6931 433.423 31.1978 434.683 31.9193 435.948C32.3371 436.68 32.4354 437.44 32.1853 438.202C31.9409 438.948 31.3782 439.654 30.5542 440.328C29.7961 440.947 29.4671 441.508 29.4288 442.002C29.3916 442.485 29.6248 443.024 30.2732 443.627C31.7163 444.97 32.3509 446.403 31.9732 447.891C31.6739 449.07 31.881 450.257 32.6307 451.474C33.4676 452.832 33.7904 454.22 33.5686 455.621C33.3626 456.921 33.1344 458.222 32.8823 459.522C32.6226 460.86 32.1328 462.193 31.4191 463.52C30.7651 464.736 30.6205 465.927 30.9597 467.114C31.326 468.395 31.7669 469.678 32.2795 470.96C32.8336 472.346 32.8278 473.745 32.2645 475.133C31.7161 476.483 30.844 477.772 29.6598 478.996C29.3783 479.288 29.1663 479.535 29.0181 479.738C28.8935 479.91 28.8306 480.035 28.8004 480.115C28.831 480.12 28.8723 480.124 28.9279 480.124L30.2024 480.027L30.6211 479.993L30.6223 480.512C30.6228 480.726 30.4492 480.901 30.2347 480.901C30.1494 480.901 30.0741 480.869 30.0099 480.823L28.9721 480.904L28.9417 480.904C28.7037 480.905 28.4324 480.87 28.2341 480.705C27.9927 480.505 27.9675 480.216 28.0261 479.977C28.0809 479.755 28.2163 479.519 28.3888 479.282C28.5661 479.038 28.8043 478.76 29.1002 478.454C30.2276 477.288 31.0399 476.085 31.5445 474.843C32.0333 473.64 32.0376 472.447 31.5577 471.247C31.0358 469.941 30.5873 468.635 30.2136 467.328C29.813 465.927 29.9951 464.527 30.7354 463.151C31.4163 461.885 31.8771 460.625 32.1201 459.372C32.3704 458.082 32.596 456.791 32.8005 455.501C32.989 454.311 32.7231 453.109 31.9669 451.882C31.1233 450.513 30.8616 449.11 31.2201 447.698C31.4999 446.595 31.0755 445.439 29.7433 444.199C29.004 443.511 28.5922 442.755 28.6548 441.943C28.7166 441.143 29.2319 440.406 30.0611 439.728C30.8244 439.104 31.2666 438.511 31.4473 437.961C31.6222 437.428 31.5665 436.893 31.2464 436.332C30.4922 435.01 29.9568 433.682 29.6441 432.347C29.2939 430.852 29.9986 429.421 31.5254 428.079C31.8653 427.78 32.0592 427.504 32.1489 427.261C32.2341 427.029 32.2322 426.806 32.1382 426.572C31.9342 426.066 31.2885 425.474 30.0401 424.835C28.7629 424.181 27.7749 423.513 27.0977 422.826C26.4195 422.138 26.0262 421.399 26.0093 420.619C25.9799 419.252 26.3205 417.893 27.0139 416.546C27.6256 415.359 27.6355 414.192 27.0516 413.01C26.3866 411.665 26.0841 410.305 26.1593 408.936C26.2413 407.448 27.3982 406.055 29.3824 404.741C30.3377 404.108 30.8803 403.515 31.0933 402.977C31.2927 402.472 31.2238 401.962 30.8196 401.405C29.8549 400.075 29.2442 398.727 29.0048 397.363C28.7865 396.12 28.3187 394.868 27.5942 393.609C26.8217 392.267 26.4159 390.906 26.3984 389.536C26.389 388.766 26.7205 388.03 27.3223 387.333C27.922 386.639 28.8089 385.965 29.9583 385.303C31.0657 384.665 31.7879 384.051 32.1759 383.474C32.5508 382.917 32.609 382.404 32.4061 381.892C31.8557 380.505 31.8666 379.104 32.4332 377.716C32.9288 376.501 32.9836 375.299 32.6072 374.094C32.2094 372.821 31.6928 371.547 31.0569 370.271C30.3962 368.945 29.9637 367.612 29.7611 366.273C29.5674 364.993 29.2995 363.711 28.9604 362.43C28.5608 360.916 29.3306 359.479 30.9723 358.143C31.7396 357.518 32.1819 356.926 32.3614 356.376C32.5352 355.844 32.4763 355.311 32.1514 354.75C31.4128 353.474 30.5351 352.196 29.5206 350.916C28.9707 350.223 28.6633 349.497 28.6447 348.745C28.6261 347.992 28.8983 347.261 29.4168 346.561C30.3487 345.304 30.8952 344.065 31.0748 342.846C31.2572 341.607 31.1685 340.367 30.8086 339.125C30.4445 337.869 29.8725 336.608 29.0914 335.341C28.6601 334.642 28.444 333.92 28.4644 333.185C28.4849 332.45 28.7423 331.731 29.2093 331.034C29.6056 330.443 29.7681 329.879 29.7336 329.333C29.6988 328.785 29.4609 328.212 28.9801 327.611C28.4164 326.906 28.1497 326.157 28.2467 325.379C28.3426 324.611 28.7858 323.884 29.5014 323.2C30.8255 321.934 31.6058 320.7 31.894 319.501C32.171 318.347 31.874 317.172 30.9179 315.949C29.8464 314.579 29.4971 313.153 29.9615 311.708C30.3645 310.457 30.5265 309.209 30.4479 307.965C30.3663 306.676 30.2577 305.385 30.1206 304.096C29.9799 302.773 29.9867 301.45 30.1421 300.126C30.2731 299.01 29.7229 297.833 28.3132 296.582C27.5456 295.901 27.0869 295.16 27.0578 294.363C27.029 293.563 27.4401 292.814 28.1636 292.124C29.4786 290.87 30.0197 289.68 29.9282 288.548C29.8245 287.264 29.662 285.981 29.4431 284.697C29.2248 283.418 28.9306 282.137 28.5604 280.857C28.1741 279.52 28.0347 278.179 28.1418 276.836C28.2538 275.432 28.9339 274.059 30.1267 272.719C31.2299 271.481 31.6236 270.3 31.4178 269.159C31.2052 267.984 30.4225 266.762 28.9907 265.501C28.2188 264.822 27.7468 264.088 27.6898 263.298C27.6322 262.499 28.0066 261.748 28.6924 261.053C29.9326 259.795 30.5496 258.582 30.6237 257.412C30.6936 256.307 30.0352 255.121 28.4367 253.86C26.7603 252.537 25.9056 251.121 26.1297 249.619C26.3208 248.34 26.4306 247.06 26.4611 245.782C26.4933 244.427 26.8354 243.077 27.4749 241.737C28.0818 240.465 28.5228 239.196 28.8018 237.931C29.0655 236.736 28.8842 235.535 28.2323 234.315C27.8526 233.604 27.707 232.873 27.8177 232.133C27.9279 231.398 28.2851 230.685 28.857 229.997C29.908 228.734 30.5764 227.489 30.8822 226.263C31.1988 224.993 31.3766 223.725 31.4171 222.459C31.4596 221.124 31.7027 219.789 32.1457 218.46C32.5376 217.283 32.3915 216.105 31.6734 214.898C30.9061 213.608 30.1172 212.317 29.3035 211.027C28.4448 209.666 28.1221 208.274 28.3776 206.868C28.5969 205.662 28.4167 204.45 27.8172 203.224C27.1365 201.832 27.0871 200.42 27.6803 199.018C28.1948 197.802 28.2628 196.6 27.8938 195.396C27.4375 193.907 28.0319 192.466 29.4625 191.114C30.1175 190.494 30.5005 189.903 30.6575 189.344C30.8115 188.797 30.7572 188.249 30.4747 187.682C29.7693 186.266 29.8366 184.831 30.6564 183.426C31.0049 182.829 31.167 182.249 31.1624 181.683C31.1578 181.116 30.9864 180.536 30.6274 179.939C29.8347 178.621 29.2349 177.298 28.8309 175.97C28.4115 174.591 28.4662 173.207 28.9917 171.833C29.2084 171.266 29.2225 170.709 29.0395 170.148C28.8539 169.58 28.4582 168.986 27.8185 168.369C27.087 167.664 26.759 166.869 27.0363 166.028C27.2963 165.241 28.0576 164.529 29.1743 163.868C30.2602 163.225 30.6721 162.666 30.7064 162.226C30.7387 161.809 30.4392 161.274 29.4615 160.641C28.4398 159.98 27.7093 159.29 27.3263 158.558C26.9311 157.802 26.9173 157.024 27.2938 156.264C27.8747 155.091 27.8243 153.935 27.1191 152.749C26.6925 152.032 26.5394 151.287 26.6923 150.532C26.8435 149.786 27.2851 149.071 27.9653 148.389C29.2071 147.143 29.6568 145.966 29.4658 144.841C29.2213 143.399 29.7399 141.99 30.9163 140.634C31.4366 140.034 31.6536 139.476 31.641 138.954C31.6282 138.43 31.3834 137.867 30.8299 137.265C30.2008 136.581 29.8049 135.868 29.6931 135.122C29.5805 134.369 29.7635 133.627 30.2041 132.914C30.9876 131.646 31.5423 130.385 31.8741 129.132C32.0072 128.629 31.8915 128.105 31.4396 127.53C30.9783 126.944 30.1816 126.327 29.0135 125.693C27.8053 125.038 26.9188 124.358 26.4079 123.641C25.8824 122.904 25.7498 122.116 26.0749 121.326C26.6208 120.002 27.3472 118.681 28.2514 117.364C29.118 116.102 29.6739 114.854 29.9275 113.618C30.1688 112.442 29.9059 111.252 29.0909 110.029C28.2262 108.732 27.3918 107.435 26.5935 106.138C26.1278 105.381 26.088 104.588 26.4912 103.813C26.8776 103.071 27.6551 102.374 28.7507 101.711C30.8874 100.417 31.6833 99.2375 31.5655 98.196C31.4343 97.0365 30.7017 95.8241 29.2629 94.5651C27.734 93.2273 27.0421 91.7925 27.4324 90.2927C27.7619 89.026 27.9374 87.7607 27.9611 86.4977C27.9889 85.0434 28.8573 83.6502 30.4163 82.319C31.1286 81.7105 31.3208 81.1931 31.2293 80.748C31.1291 80.2636 30.6664 79.6921 29.6625 79.061C28.6131 78.4012 27.879 77.7045 27.5454 76.9533C27.1962 76.1662 27.3101 75.3747 27.8285 74.6308C28.7053 73.3743 29.2141 72.1343 29.3742 70.9124C29.5227 69.7788 29.0477 68.5983 27.8123 67.3558C27.1247 66.6641 26.7473 65.9148 26.7936 65.1182C26.8399 64.3285 27.298 63.5928 28.0544 62.9088C29.4522 61.6447 30.1683 60.4287 30.2983 59.2648C30.4409 57.9833 30.5134 56.6998 30.5173 55.4189C30.5205 54.297 29.8294 53.103 28.2695 51.8425C27.4417 51.1733 26.8632 50.4752 26.5864 49.7399C26.3039 48.9891 26.3496 48.2301 26.7059 47.4906C27.3327 46.1895 27.9948 44.887 28.6912 43.5861C29.3856 42.2889 30.0892 40.9907 30.801 39.6935C31.0907 39.1651 31.0853 38.6605 30.7824 38.1305C30.4623 37.5707 29.7988 36.9669 28.7267 36.3352C27.6105 35.6776 26.8294 34.981 26.4821 34.2248C26.3048 33.8383 26.2427 33.438 26.3065 33.0324C26.3698 32.6299 26.5546 32.2472 26.835 31.8839C27.7759 30.6654 28.4523 28.8373 28.835 26.3617L28.8348 26.2889C28.8344 26.0743 29.0079 25.9 29.2225 25.8995C29.437 25.899 29.6113 26.0726 29.6118 26.2872L29.6121 26.4177L29.6061 26.448C29.2146 29.0029 28.5067 30.9858 27.4492 32.356C27.229 32.6413 27.1102 32.907 27.0716 33.1521C27.0335 33.3939 27.0691 33.6414 27.1886 33.9015C27.4354 34.4387 28.0468 35.0344 29.1198 35.6666C30.2368 36.3247 31.0393 37.0132 31.4584 37.7465C31.8938 38.5092 31.9029 39.3009 31.4817 40.0683C30.7709 41.3636 30.0683 42.6596 29.3749 43.9549C28.6836 45.2464 28.0266 46.5379 27.4047 47.829C27.1367 48.3855 27.1102 48.9224 27.3142 49.4651C27.5242 50.0232 27.9902 50.6185 28.7598 51.2404C30.3953 52.5622 31.2989 53.9556 31.2943 55.4232C31.2902 56.7315 31.215 58.0397 31.0694 59.3481C30.9106 60.7743 30.0472 62.1526 28.5746 63.4844C27.8958 64.0983 27.5971 64.6598 27.5677 65.165C27.539 65.6631 27.7669 66.2082 28.3635 66.8082C29.6975 68.1499 30.3363 69.5569 30.1453 71.0139C29.966 72.3824 29.3997 73.7355 28.4669 75.0725C28.0815 75.6248 28.0309 76.1304 28.2549 76.6361C28.4952 77.1779 29.0744 77.7743 30.0768 78.4045C31.1245 79.0632 31.8243 79.785 31.9907 80.5946C32.1644 81.4431 31.7285 82.2236 30.9215 82.9127C29.4398 84.1779 28.7595 85.3788 28.7382 86.5142C28.7131 87.8404 28.53 89.1674 28.1855 90.4914C27.9021 91.5826 28.3515 92.736 29.7746 93.9812C31.2872 95.305 32.1747 96.68 32.3362 98.1093C32.5111 99.6568 31.3078 101.073 29.1528 102.378C28.1033 103.013 27.4701 103.615 27.181 104.17C26.9095 104.691 26.9277 105.194 27.2573 105.73C28.0504 107.019 28.8769 108.308 29.7365 109.597C30.6453 110.96 30.977 112.359 30.6866 113.774C30.4085 115.129 29.8072 116.474 28.8928 117.805C28.0161 119.082 27.3174 120.354 26.7949 121.622C26.5863 122.128 26.6462 122.636 27.0412 123.191C27.4514 123.766 28.2171 124.379 29.3853 125.013C30.593 125.668 31.4931 126.344 32.0486 127.049C32.6133 127.767 32.8341 128.538 32.6242 129.33C32.2702 130.668 31.6824 132.001 30.8637 133.326C30.5036 133.909 30.38 134.464 30.4607 135.005C30.5427 135.553 30.84 136.134 31.3994 136.742C32.0344 137.432 32.399 138.164 32.418 138.934C32.4368 139.706 32.1081 140.445 31.5032 141.142C30.4285 142.381 30.0388 143.565 30.2334 144.712C30.4815 146.174 29.8574 147.591 28.5128 148.94C27.9005 149.555 27.5625 150.139 27.4514 150.688C27.3425 151.227 27.4435 151.778 27.7859 152.353C28.6191 153.754 28.6957 155.188 27.9927 156.608C27.7273 157.144 27.7331 157.66 28.0144 158.198C28.308 158.759 28.9124 159.362 29.885 159.991C30.9018 160.649 31.5482 161.407 31.4805 162.285C31.4143 163.14 30.6795 163.878 29.5703 164.535C28.4924 165.173 27.9429 165.761 27.7744 166.269C27.6243 166.724 27.7496 167.223 28.3575 167.81C29.0573 168.484 29.5429 169.184 29.7796 169.91C30.0184 170.643 29.9965 171.381 29.7177 172.11C29.2521 173.328 29.2062 174.534 29.574 175.744C29.9572 177.003 30.528 178.268 31.2912 179.537C31.71 180.233 31.9333 180.947 31.9394 181.675C31.9454 182.403 31.7361 183.12 31.3281 183.819C30.6341 185.008 30.5887 186.163 31.172 187.334C31.5336 188.06 31.6178 188.807 31.4076 189.555C31.2003 190.292 30.7153 190.998 29.998 191.677C28.6834 192.92 28.3001 194.072 28.6369 195.17C29.0614 196.555 28.9794 197.944 28.3973 199.32C27.8938 200.51 27.9299 201.687 28.5145 202.883C29.1798 204.243 29.3944 205.621 29.1428 207.006C28.9275 208.19 29.1855 209.388 29.9581 210.613C30.7757 211.909 31.5722 213.205 32.3433 214.502C33.1633 215.88 33.3549 217.293 32.8838 218.707C32.4635 219.969 32.2342 221.226 32.1941 222.481C32.1519 223.804 31.9648 225.128 31.6354 226.449C31.2949 227.814 30.5597 229.163 29.453 230.494C28.9467 231.103 28.6698 231.687 28.5859 232.247C28.5027 232.802 28.6064 233.367 28.9174 233.949C29.6467 235.315 29.8689 236.704 29.561 238.099C29.2683 239.426 28.8039 240.749 28.1737 242.069C27.5762 243.321 27.2676 244.564 27.2381 245.798C27.2069 247.11 27.0936 248.422 26.8978 249.733C26.7352 250.821 27.3221 251.993 28.9179 253.252C30.5922 254.573 31.4911 255.975 31.3978 257.459C31.3081 258.879 30.5626 260.26 29.243 261.598C28.6489 262.2 28.4279 262.745 28.4636 263.241C28.5 263.746 28.8103 264.305 29.5053 264.917C31.0071 266.24 31.9266 267.607 32.1823 269.021C32.4434 270.468 31.9141 271.879 30.7075 273.234C29.5897 274.489 29.0109 275.709 28.9158 276.895C28.8163 278.142 28.945 279.392 29.3066 280.643C29.6847 281.95 29.9874 283.259 30.2107 284.568C30.4333 285.873 30.5965 287.179 30.702 288.485C30.8197 289.942 30.1055 291.346 28.6991 292.687C28.0619 293.295 27.8167 293.843 27.8347 294.337C27.8533 294.835 28.1435 295.388 28.8309 295.998C30.332 297.33 31.0861 298.74 30.9132 300.215C30.7645 301.482 30.7567 302.749 30.8913 304.015C31.0295 305.315 31.1395 306.615 31.2217 307.915C31.3068 309.26 31.1336 310.604 30.7026 311.943C30.3333 313.09 30.5797 314.253 31.5299 315.468C32.5953 316.83 32.9952 318.244 32.6501 319.681C32.3157 321.074 31.4299 322.434 30.0399 323.763C29.3983 324.377 29.0807 324.947 29.0148 325.474C28.9502 325.992 29.1192 326.537 29.5891 327.124C30.1419 327.816 30.463 328.537 30.5105 329.283C30.558 330.032 30.326 330.765 29.8537 331.47C29.4519 332.07 29.257 332.647 29.2414 333.207C29.226 333.767 29.3893 334.34 29.7552 334.933C30.5686 336.252 31.1689 337.579 31.5547 338.911C31.9445 340.257 32.0421 341.608 31.8429 342.959C31.6409 344.331 31.033 345.685 30.0431 347.021C29.6012 347.618 29.4084 348.184 29.4216 348.725C29.435 349.268 29.655 349.837 30.1296 350.435C31.1651 351.741 32.065 353.049 32.8244 354.36C33.2481 355.092 33.349 355.854 33.0995 356.617C32.8557 357.363 32.29 358.069 31.4623 358.743C29.9135 360.003 29.4283 361.159 29.7127 362.234C30.0586 363.541 30.3308 364.848 30.5288 366.156C30.718 367.407 31.1259 368.662 31.7542 369.923C32.4073 371.234 32.9394 372.547 33.3503 373.862Z" fill="#D4AF37"/>
</g>
<defs>
<filter id="filter0_g_522_1988" x="-0.000841141" y="0.000135422" width="59.5368" height="506.803" filterUnits="userSpaceOnUse" color-interpolation-filters="sRGB">
<feFlood flood-opacity="0" result="BackgroundImageFix"/>
<feBlend mode="normal" in="SourceGraphic" in2="BackgroundImageFix" result="shape"/>
<feTurbulence type="fractalNoise" baseFrequency="1.2870371341705322 1.2870371341705322" numOctaves="3" seed="2514" />
<feDisplacementMap in="shape" scale="51.798557281494141" xChannelSelector="R" yChannelSelector="G" result="displacedImage" width="100%" height="100%" />
<feMerge result="effect1_texture_522_1988">
<feMergeNode in="displacedImage"/>
</feMerge>
</filter>
</defs>
</svg>
