<svg width="8" height="7" viewBox="0 0 8 7" fill="none" xmlns="http://www.w3.org/2000/svg">
<path d="M3.33609 0.146179C3.41173 -0.0490008 3.6879 -0.0490006 3.76355 0.146179L4.53924 2.14756C4.57176 2.23147 4.65038 2.28859 4.74023 2.29359L6.88336 2.41285C7.09236 2.42448 7.1777 2.68713 7.01545 2.81939L5.35173 4.17558C5.28197 4.23244 5.25194 4.32486 5.27495 4.41186L5.82379 6.48695C5.87731 6.68932 5.65389 6.85164 5.47797 6.7382L3.67404 5.57499C3.5984 5.52622 3.50123 5.52622 3.4256 5.57499L1.62167 6.7382C1.44575 6.85164 1.22232 6.68932 1.27585 6.48695L1.82468 4.41186C1.84769 4.32486 1.81767 4.23244 1.74791 4.17558L0.0841846 2.81939C-0.0780661 2.68713 0.00727409 2.42448 0.216277 2.41285L2.3594 2.29359C2.44926 2.28859 2.52788 2.23147 2.5604 2.14756L3.33609 0.146179Z" fill="#D4AF37"/>
</svg>
