<svg width="204" height="5" viewBox="0 0 204 5" fill="none" xmlns="http://www.w3.org/2000/svg">
<g filter="url(#filter0_g_522_2041)">
<path d="M89.8059 2.60319C85.3914 2.54002 81.9164 2.81921 76.5358 2.77975C71.1553 2.74028 70.3494 2.59219 64.1874 2.62551C58.0257 2.65883 51.8604 2.55753 49.1168 2.61838C46.3733 2.67924 46.0837 2.49523 42.1877 2.5361C38.2918 2.57696 35.9306 2.55294 32.5233 2.49313C29.1158 2.43332 18.6476 2.38226 14.8411 2.45573C11.0345 2.52921 6.69295 2.40172 4.08195 2.37148C3.26867 2.36206 2.62861 2.34918 2.13795 2.33577C1.93009 2.33008 1.83407 2.31818 1.83399 2.30644C1.83399 2.30643 1.83399 2.30643 1.83399 2.30642C1.83405 2.2918 1.98297 2.27743 2.2501 2.27558C3.54688 2.26661 5.48501 2.24295 7.77465 2.18994C12.0438 2.09108 12.5103 2.20032 18.2752 2.14952C24.04 2.09872 27.5035 1.99717 34.2865 2.06284C41.0694 2.12851 42.6274 1.85369 52.2022 2.00944C61.7767 2.16517 62.7844 1.87776 72.3258 1.83955C81.8673 1.80133 93.9115 1.95991 99.6632 1.94676C105.415 1.93361 113.14 1.90013 121.294 1.93806C129.448 1.97599 139.513 1.88025 148.514 1.94792C157.514 2.0156 170.239 2.10107 176.117 2.15834C181.996 2.21562 183.428 2.22854 189.087 2.19354C192.339 2.17343 196.82 2.19239 200.604 2.26637C202.509 2.3036 202.077 2.35544 200.16 2.38025C197.357 2.41652 195.055 2.39229 193.611 2.45708C190.725 2.58656 189.498 2.63623 185.854 2.56087C182.21 2.48551 180.493 2.65677 178.369 2.63706C176.245 2.61734 176.28 2.51632 165.48 2.59415C154.68 2.67198 148.759 2.69183 144.669 2.71052C140.579 2.7292 132.039 2.64153 125.373 2.67318C118.707 2.70482 105.156 2.67582 99.6937 2.72762C94.2313 2.77942 94.22 2.66636 89.8059 2.60319Z" fill="#D4AF37"/>
</g>
<defs>
<filter id="filter0_g_522_2041" x="0.000211239" y="0.000211239" width="203.668" height="4.61677" filterUnits="userSpaceOnUse" color-interpolation-filters="sRGB">
<feFlood flood-opacity="0" result="BackgroundImageFix"/>
<feBlend mode="normal" in="SourceGraphic" in2="BackgroundImageFix" result="shape"/>
<feTurbulence type="fractalNoise" baseFrequency="4.3625898361206055 4.3625898361206055" numOctaves="3" seed="8102" />
<feDisplacementMap in="shape" scale="3.667546272277832" xChannelSelector="R" yChannelSelector="G" result="displacedImage" width="100%" height="100%" />
<feMerge result="effect1_texture_522_2041">
<feMergeNode in="displacedImage"/>
</feMerge>
</filter>
</defs>
</svg>
