<svg width="85" height="88" viewBox="0 0 85 88" fill="none" xmlns="http://www.w3.org/2000/svg">
<path fill-rule="evenodd" clip-rule="evenodd" d="M34.7989 0.186542C31.856 0.792504 28.925 2.80379 28.274 4.66351C28.0049 5.43263 27.8468 5.48637 25.7809 5.50825C24.5675 5.52112 23.1309 5.7155 22.5881 5.94012C21.4137 6.42669 20.4427 8.23009 20.7331 9.38666C20.8912 10.0158 20.6916 10.4029 19.7531 11.2873C18.6588 12.319 18.5864 12.5024 18.739 13.855C18.8584 14.9124 18.756 15.5087 18.3665 16.03C16.1174 19.0393 6.39558 35.5737 6.8756 35.5737C6.97476 35.5737 7.35885 34.9803 7.72877 34.2552C8.099 33.5302 8.47278 33.0079 8.5597 33.0948C8.64663 33.1817 7.7674 35.1486 6.6055 37.4656C5.44392 39.7829 4.49709 41.7894 4.50159 41.9248C4.5061 42.06 5.77971 39.7089 7.33213 36.7C8.88423 33.6911 10.718 30.2269 11.407 29.0021C12.0956 27.7769 12.4694 26.892 12.237 27.0355C11.9501 27.2128 11.8667 27.153 11.9771 26.8492C12.0667 26.6033 12.2984 26.4369 12.4923 26.4794C12.6861 26.5219 13.0087 26.2509 13.2086 25.8773C13.4909 25.3499 13.4838 25.253 13.1764 25.4429C12.9185 25.6022 12.8371 25.5317 12.943 25.2401C13.0325 24.9943 13.2633 24.8276 13.4562 24.8697C13.6587 24.9138 13.7205 24.7217 13.6027 24.4147C13.4716 24.0733 13.5254 23.9613 13.753 24.1019C13.9478 24.2223 14.2121 24.1515 14.3402 23.9442C14.4858 23.709 14.4339 23.6536 14.2018 23.7972C13.7073 24.1026 13.7466 23.6427 14.2745 22.9479C14.5076 22.6409 14.8161 22.4961 14.9596 22.6261C15.1032 22.7558 15.1341 22.7095 15.0282 22.5228C14.9223 22.3362 15.4661 21.1828 16.2368 19.9603L17.6382 17.7372L18.2164 19.0125C19.0525 20.8568 19.6095 21.4142 20.6156 21.4142C21.3461 21.4142 21.5727 21.6143 21.8734 22.5251C22.2672 23.7177 22.9851 24.1093 24.6634 24.0478C25.4915 24.0176 25.7149 24.1582 25.8797 24.815C25.9908 25.2575 26.4399 25.7827 26.8777 25.9822C27.3153 26.1814 27.6736 26.4939 27.6736 26.6764C27.6736 27.1121 25.1811 31.301 24.7712 31.554C24.5968 31.6618 24.4541 31.9791 24.4541 32.2591C24.4541 33.0607 26.6035 30.1757 27.7386 27.8503C28.3001 26.6999 28.7244 25.6253 28.6813 25.4628C28.6385 25.3 28.8564 25.3724 29.1661 25.6237C29.4755 25.8747 29.6294 25.9146 29.508 25.7119C29.3863 25.5092 29.5109 25.2575 29.7849 25.1523C30.1117 25.0268 30.2137 25.0982 30.0817 25.3598C29.7002 26.1164 31.5585 23.8239 32.4319 22.4607C33.0362 21.5175 33.5323 21.0933 34.032 21.093C34.8778 21.0924 34.9386 21.3746 34.2786 22.2377C33.1032 23.7746 33.0298 26.8849 34.1688 26.8849C34.4756 26.8849 34.4773 26.799 34.1769 26.4987C33.5877 25.9098 33.701 25.2652 34.354 25.4902C34.8523 25.6617 34.8485 25.6305 34.3195 25.2179C33.7471 24.7713 33.7587 24.7272 34.588 24.184C35.0645 23.8718 35.7174 23.029 36.039 22.3107C36.4952 21.2922 36.6581 21.1384 36.7798 21.6118C36.9124 22.1296 36.9408 22.1141 36.9726 21.5059C37.0155 20.6917 37.622 20.3046 39.3415 19.9944C40.534 19.7791 40.543 19.7855 40.2269 20.6164C39.7398 21.8972 39.8254 22.2637 40.8978 23.4847L41.8881 24.612L40.8804 25.2247C40.0813 25.7103 39.9796 25.8783 40.3898 26.0356C40.7079 26.1576 40.826 26.1032 40.6969 25.8944C40.5727 25.6936 40.7249 25.5964 41.0697 25.6566C41.4477 25.7229 41.8083 25.4397 42.0964 24.8501C42.4892 24.0472 42.4753 23.8699 41.976 23.3183C41.6425 22.9502 41.4 22.1476 41.3839 21.3582C41.3572 20.0713 41.4158 19.9912 42.966 19.1895C43.8513 18.7316 44.5757 18.1881 44.5757 17.9815C44.5757 17.7752 44.7077 17.4856 44.8687 17.3379C45.039 17.1821 45.0647 17.2384 44.9302 17.4721C44.7673 17.7552 44.9801 17.8743 45.6494 17.8743C46.2505 17.8743 46.962 18.2119 47.5833 18.7921C48.3154 19.4759 48.6654 19.6195 48.9548 19.3553C49.1683 19.1602 49.1035 19.3588 48.8106 19.7965C48.1171 20.8324 48.1377 21.9844 48.8705 23.1861C49.4039 24.0601 50.0311 26.1698 49.6418 25.7811C49.4039 25.543 48.2781 26.2114 48.2781 26.5908C48.2781 26.7707 48.7851 27.1295 49.4049 27.3882C50.0246 27.6473 50.5317 28.0518 50.5317 28.2873C50.5317 28.8489 49.61 29.6425 48.6 29.9504C47.1049 30.4061 46.3451 31.1018 46.3728 31.9904L46.3989 32.8383L46.8374 31.8391C47.1175 31.201 47.6609 30.6989 48.3405 30.4505C51.3984 29.3322 51.777 28.6703 50.2011 27.1983C49.5581 26.5985 49.354 26.2413 49.6534 26.2413C50.7052 26.2413 50.8527 25.4471 50.0449 24.1331C49.5185 23.2765 49.2607 22.3728 49.2539 21.3608C49.2449 19.9809 49.3514 19.7739 50.5726 18.8072C51.3034 18.2289 52.1839 17.3115 52.529 16.7689C52.9653 16.0838 53.0963 15.9953 52.9582 16.4796C52.8487 16.8629 52.8916 17.2584 53.0535 17.3585C53.2154 17.4585 53.444 16.8159 53.5615 15.9306C53.7553 14.4709 53.6633 14.1195 52.5728 12.1555C51.0346 9.38474 48.771 6.75011 47.2385 5.94688C46.5779 5.60061 45.8303 4.92063 45.577 4.43567C43.9846 1.38913 38.8296 -0.643397 34.7989 0.186542ZM34.1125 0.870381C32.4844 1.31415 30.5376 2.74812 29.8065 4.0421L29.1735 5.16295L30.2491 4.19754L31.3248 3.23212L30.5453 4.35844C29.2791 6.18887 29.4736 6.80481 30.9085 5.5089C32.5192 4.05433 33.4345 3.55907 33.3414 4.19239C33.3038 4.45048 33.1486 4.77454 32.9969 4.91227C32.8456 5.05 32.8373 4.96311 32.9789 4.71886C33.1457 4.43116 33.0987 4.32078 32.8453 4.4051C32.6303 4.47686 32.5015 4.61138 32.5591 4.70406C32.6167 4.79674 32.1213 5.506 31.4584 6.28026C30.0431 7.93274 30.0982 8.28576 31.5962 7.16427C32.1834 6.72468 33.1708 6.12902 33.7905 5.84004C34.4103 5.55105 34.6321 5.49763 34.2831 5.72161C33.9345 5.94526 33.2204 6.56281 32.6959 7.09379C32.1718 7.62477 31.854 7.84199 31.9899 7.5765C32.1254 7.31101 31.9378 7.45583 31.572 7.89831C30.829 8.79776 30.7272 9.18554 31.234 9.18554C31.4214 9.18554 31.4854 9.33035 31.376 9.50734C31.091 9.96785 31.9664 9.90542 32.5034 9.42689C32.8833 9.08803 32.8917 9.10831 32.5565 9.55369C32.2336 9.98298 32.2558 10.1802 32.6756 10.5996C33.3121 11.2358 33.5024 11.2412 34.2925 10.644C34.636 10.3839 35.0622 10.1715 35.2393 10.1715C35.4164 10.1715 35.2853 10.3801 34.9486 10.635C34.4196 11.035 34.4042 11.1251 34.8369 11.2908C35.3468 11.4865 37.4211 10.5709 39.0222 9.4433C39.5093 9.10058 39.9075 8.89687 39.9075 8.99116C39.9075 9.08513 39.3644 9.545 38.7002 10.0129L37.4929 10.8638L38.4588 10.6906C38.99 10.5957 39.7143 10.4251 40.0685 10.3122C40.5195 10.168 40.4715 10.2543 39.9075 10.5999C39.4648 10.8715 38.7862 11.0987 38.3992 11.1051C38.0122 11.1112 37.2878 11.2789 36.7895 11.4778C35.9067 11.8298 35.9331 11.8501 37.8149 12.2617C41.5456 13.0775 43.351 12.6858 45.7354 10.5432C47.1741 9.25022 47.8872 8.15865 46.9098 8.74562C46.6436 8.90556 46.659 8.80033 46.9559 8.43508C47.2021 8.1313 47.311 7.78986 47.1973 7.67594C47.0833 7.56234 46.9903 7.64666 46.9903 7.86355C46.9903 8.08045 46.8383 8.16412 46.6526 8.04956C46.4192 7.90539 46.424 7.70973 46.6684 7.4156C47.3068 6.6468 46.4198 6.54833 44.9015 7.21994C43.1994 7.97232 43.0111 7.83556 44.4952 6.92485L45.5415 6.28252L44.4147 6.47463C43.795 6.58019 43.0706 6.72693 42.805 6.80062C42.4786 6.89105 42.5143 6.78518 42.9161 6.47367C43.4692 6.04438 43.4363 6.00384 42.4332 5.88059C41.4863 5.76474 41.5311 5.73931 42.805 5.67109L44.2538 5.59354L42.966 4.98435C42.2577 4.64935 41.8955 4.36648 42.1611 4.35554C42.9489 4.32304 41.1241 3.41716 40.2455 3.40428C39.7018 3.39656 39.5605 3.2894 39.79 3.05995C40.0199 2.83018 40.6148 2.93059 41.7056 3.3824L43.2879 4.03792L42.3504 3.25947C41.8347 2.83114 40.6757 2.26348 39.7749 1.99767C38.8737 1.73153 38.4542 1.5024 38.8422 1.48824C39.9603 1.44705 39.9964 0.916721 38.8963 0.696927C37.5348 0.424679 35.4734 0.499338 34.1125 0.870381ZM37.2717 1.03837C37.5039 1.13137 37.7817 1.11978 37.8886 1.01294C37.9955 0.906099 37.8055 0.830155 37.4662 0.843993C37.0911 0.859439 37.0148 0.935709 37.2717 1.03837ZM39.9606 1.4226C39.6342 1.62952 39.6921 1.73668 40.2027 1.87023C40.572 1.96677 40.7932 1.91432 40.6937 1.75406C40.5945 1.59348 40.6016 1.46218 40.7095 1.46218C41.1093 1.46218 42.9921 2.52511 43.7686 3.18932L44.5712 3.87573L43.9296 3.11756C43.3282 2.40669 41.2091 1.13426 40.6448 1.14521C40.5047 1.1481 40.1969 1.27264 39.9606 1.4226ZM37.5773 2.65512C37.9778 2.73203 38.5573 2.72914 38.8651 2.64868C39.1728 2.56823 38.8451 2.50516 38.1368 2.5087C37.4285 2.51224 37.1768 2.5782 37.5773 2.65512ZM35.0783 3.71483C34.4898 4.09488 34.9982 4.09488 35.8832 3.71483C36.3078 3.53236 36.3626 3.43228 36.0442 3.42069C35.7786 3.41072 35.3439 3.5433 35.0783 3.71483ZM26.4586 5.91566C26.1453 6.11421 26.2026 6.31502 26.7 6.76523C27.0584 7.08929 27.3516 7.1958 27.3516 7.00175C27.3516 6.8077 27.2045 6.55798 27.0245 6.44696C26.8446 6.33561 26.7805 6.11003 26.8826 5.94527C27.1076 5.58098 26.9985 5.57325 26.4586 5.91566ZM22.3798 7.00465C22.1043 7.3979 21.8953 8.0856 21.9159 8.53323C21.9446 9.15496 21.99 9.20292 22.1094 8.73662C22.2372 8.23782 22.3238 8.20853 22.5856 8.57572C22.8357 8.92681 22.8653 8.90138 22.7227 8.45857C22.6226 8.14739 22.6776 7.53209 22.8454 7.0909C23.2233 6.0978 23.0392 6.06369 22.3798 7.00465ZM23.4992 7.40241C23.1783 7.7889 23.2555 7.90828 23.9384 8.07981C24.3943 8.19405 25.1312 8.30862 25.5761 8.33436C26.0214 8.36011 26.3855 8.49043 26.3855 8.62462C26.3858 8.75849 26.7432 9.17846 27.1797 9.55787C27.6163 9.9376 27.8977 10.3711 27.8046 10.5214C27.7116 10.6716 27.7892 10.7946 27.9765 10.7946C28.1639 10.7946 28.3175 10.4576 28.3175 10.046C28.3175 9.15271 26.9283 7.74481 26.2886 7.99035C26.04 8.0856 25.5993 7.88672 25.3095 7.54818C24.6801 6.8135 24.0317 6.76105 23.4992 7.40241ZM23.8968 8.76493C24.2101 8.84667 24.6447 8.8412 24.8627 8.75303C25.0806 8.66485 24.8244 8.59824 24.2932 8.60468C23.762 8.61111 23.5836 8.68319 23.8968 8.76493ZM46.6516 10.3289C44.7428 12.273 42.3926 13.1512 39.5856 12.9693C37.0113 12.8026 33.6965 11.8507 33.9972 11.3645C34.1276 11.1531 34.0607 11.1103 33.8263 11.2554C33.6138 11.3864 33.0481 11.2567 32.5691 10.9667C31.8489 10.531 31.8827 10.6031 32.7645 11.3815C34.2361 12.681 36.5866 13.9132 38.6535 14.4686C39.6509 14.737 40.0479 14.9414 39.5856 14.9491C39.1429 14.9568 37.9188 14.6086 36.8658 14.1758C34.6585 13.2689 34.117 13.3391 35.9334 14.2971C37.3809 15.0601 36.869 15.1966 35.1894 14.4953C34.2931 14.1211 34.1141 14.1095 34.3923 14.4445C34.5893 14.682 34.6434 14.9948 34.512 15.1396C34.381 15.2844 34.4393 15.3082 34.6418 15.1927C34.8443 15.0768 35.5278 15.1985 36.1607 15.463C37.5637 16.049 40.3141 16.0477 41.8392 15.4608C42.8665 15.0653 42.8948 15.0218 42.1611 14.9697C41.4834 14.9211 41.534 14.869 42.4831 14.6376C43.1028 14.4866 43.8816 14.4445 44.2135 14.5443C44.6124 14.6637 44.7409 14.6015 44.5921 14.3608C44.4682 14.1607 44.4862 14.0175 44.6324 14.0429C45.4331 14.1819 46.0396 13.9759 45.8297 13.6361C45.6739 13.3841 45.7714 13.3265 46.1243 13.462C46.414 13.573 46.764 13.4755 46.9014 13.2454C47.2359 12.6845 48.7687 11.714 48.9822 11.9276C49.0759 12.021 49.354 11.8488 49.6003 11.545C49.8971 11.1798 49.9126 11.0745 49.6463 11.2345C49.3646 11.4037 49.2439 11.219 49.2439 10.6182C49.2439 10.0013 49.1129 9.81049 48.7774 9.93921C48.4774 10.0544 48.3702 9.96366 48.4774 9.68433C48.865 8.67482 47.9632 8.9931 46.6516 10.3289ZM49.1129 9.26599C49.5607 10.0528 50.3147 10.7946 50.6621 10.7897C50.8559 10.7868 50.7973 10.6443 50.5317 10.4728C50.1396 10.2195 50.1338 10.16 50.5005 10.1558C50.7934 10.1526 50.6914 9.92472 50.2097 9.50734C49.3785 8.78682 48.7633 8.65134 49.1129 9.26599ZM23.4883 9.50734C23.7539 9.67886 24.3334 9.81917 24.7761 9.81917C25.4132 9.81917 25.4802 9.75417 25.098 9.50734C24.8324 9.33582 24.2529 9.19551 23.8102 9.19551C23.1731 9.19551 23.1062 9.26052 23.4883 9.50734ZM28.727 10.4728C28.727 11.2692 28.7898 11.5952 28.8667 11.1968C28.9433 10.7984 28.9433 10.1471 28.8667 9.7487C28.7898 9.3503 28.727 9.67629 28.727 10.4728ZM33.6106 9.68594C33.0105 10.1667 33.0143 10.1725 33.7101 9.83558C34.1083 9.6425 34.4344 9.41724 34.4344 9.33517C34.4344 9.08899 34.2673 9.16011 33.6106 9.68594ZM23.024 10.1809C23.1232 10.3415 23.4403 10.4728 23.7285 10.4728C24.1264 10.4728 24.0346 10.7003 23.3483 11.4163C22.5228 12.2775 22.4761 12.4509 22.8093 13.4067C23.2459 14.6582 24.061 15.6217 24.684 15.6217C24.9325 15.6217 25.0475 15.4785 24.9393 15.3034C24.8263 15.1209 24.9564 15.0675 25.2448 15.1779C25.7995 15.3909 27.3516 14.5127 27.3516 13.9862C27.3516 13.8028 27.219 13.7346 27.0571 13.8347C26.8951 13.9348 26.7142 13.9071 26.6546 13.7732C26.4116 13.2252 24.4541 12.0725 24.4493 12.4744C24.4458 12.7618 24.3498 12.7405 24.1322 12.4036C23.8563 11.9766 23.8196 11.9775 23.8151 12.4123C23.8074 13.192 24.7168 14.2794 25.504 14.432C25.9003 14.5089 25.7506 14.5269 25.1714 14.4722C24.4239 14.4014 24.1847 14.4838 24.3479 14.7557C24.4825 14.9803 24.3524 14.9562 24.033 14.6974C23.3344 14.1307 23.2897 11.6818 23.9677 11.1193C24.5388 10.6456 24.3798 10.2906 23.4928 10.0589C23.1358 9.96559 22.9246 10.0206 23.024 10.1809ZM29.6307 10.3386C29.6461 10.7135 29.7224 10.7897 29.8251 10.5333C29.9182 10.3009 29.9066 10.0232 29.7997 9.91636C29.6928 9.80952 29.6168 9.99939 29.6307 10.3386ZM30.1571 10.7904C30.0447 11.2197 30.0193 11.6377 30.101 11.7191C30.1825 11.8005 30.2504 11.6622 30.2524 11.4115C30.254 11.1605 30.5978 11.6795 31.0163 12.5645C31.8878 14.4072 33.1341 15.6761 34.7564 16.3724C35.3761 16.6386 35.6659 16.8854 35.4003 16.9208C35.1347 16.9562 35.6417 17.1831 36.5271 17.4251L38.1368 17.8647L36.4736 17.7012C34.9898 17.5551 31.8766 16.6669 32.6486 16.6096C32.8173 16.5974 32.4149 16.0336 31.7539 15.3571C31.093 14.6807 30.2736 13.4138 29.933 12.5413C29.4082 11.1984 29.311 11.0935 29.2984 11.8565C29.2823 12.8075 29.9739 14.4014 30.8515 15.4357C31.14 15.7758 31.2076 15.956 31.0019 15.8363C30.7684 15.7005 30.6577 15.8312 30.7076 16.1832C30.8071 16.8841 32.6634 18.1781 33.9364 18.4336C34.7718 18.6013 34.8108 18.6553 34.2583 18.8793C33.383 19.2339 37.8998 18.8552 39.1767 18.4668C39.7488 18.2927 40.3869 18.2553 40.5949 18.3837C40.8128 18.5186 40.8872 18.479 40.771 18.2907C40.6599 18.1112 41.1808 17.6964 41.9283 17.3691C42.6762 17.0418 43.8153 16.4506 44.4598 16.0551C45.1043 15.66 45.7434 15.437 45.8796 15.5596C46.0161 15.6822 46.028 15.6088 45.906 15.3964C45.7421 15.111 45.4147 15.1686 44.6472 15.6181C43.4914 16.2949 38.6355 17.6754 38.3641 17.4042C38.2685 17.3089 38.4681 17.2201 38.8074 17.2072C39.1471 17.1943 38.6336 16.9031 37.6664 16.56C36.6996 16.217 35.765 15.7932 35.5899 15.6181C35.4148 15.4431 35.1195 15.3021 34.9334 15.3047C34.7474 15.3076 34.8127 15.4501 35.0783 15.6217C35.3439 15.7932 35.4164 15.9312 35.2393 15.9283C34.8195 15.9213 33.7175 15.0849 33.8495 14.8731C33.9058 14.7834 33.8195 14.5893 33.6586 14.4416C33.4882 14.2858 33.4625 14.3422 33.5971 14.5758C33.7242 14.7972 33.6824 14.9781 33.504 14.9781C32.9441 14.9781 31.4639 12.784 31.7221 12.337C31.8598 12.0979 31.8392 12.0332 31.6734 12.1848C31.5115 12.3325 31.1593 11.9122 30.8728 11.229C30.3863 10.0689 30.3512 10.0477 30.1571 10.7904ZM30.893 10.4499C30.893 10.7524 31.7829 11.76 32.0501 11.76C32.1303 11.76 31.9584 11.398 31.6683 10.9555C31.1094 10.103 30.893 9.96173 30.893 10.4499ZM25.334 10.7141C25.2658 10.847 25.221 11.3175 25.2345 11.76C25.2548 12.4316 25.4374 12.5816 26.3385 12.6678C27.1643 12.747 27.3578 12.6713 27.162 12.346C26.9621 12.0142 27.0255 12.0178 27.4508 12.3624C27.9144 12.7383 27.9955 12.736 27.9955 12.3463C27.9955 11.6522 27.3172 11.1189 26.4019 11.0938C25.6547 11.0733 25.6386 11.0462 26.2248 10.7946C26.8455 10.5278 26.8433 10.5172 26.1633 10.4953C25.7754 10.4831 25.4023 10.5812 25.334 10.7141ZM20.7556 11.4926C20.2479 11.8919 19.9488 12.4493 19.9517 12.9903C19.9553 13.585 20.0412 13.7188 20.2293 13.4221C20.4392 13.091 20.5383 13.1338 20.6629 13.6101C20.8725 14.411 21.8786 14.4204 21.8786 13.6213C21.8786 13.2879 22.0914 12.6038 22.3515 12.1008C22.7906 11.2525 22.7794 11.1743 22.1944 11.0214C21.838 10.9284 21.2131 11.1328 20.7556 11.4926ZM42.1611 11.5991C41.7184 11.852 41.5011 12.0589 41.6782 12.0589C41.8553 12.0589 42.3623 11.852 42.805 11.5991C43.2477 11.3461 43.465 11.1392 43.2879 11.1392C43.1109 11.1392 42.6038 11.3461 42.1611 11.5991ZM50.4512 11.6512C50.6727 11.7407 51.0349 11.7407 51.2561 11.6512C51.4776 11.5621 51.2963 11.489 50.8536 11.489C50.411 11.489 50.23 11.5621 50.4512 11.6512ZM21.0383 12.2192C20.9411 12.4718 20.9156 13.015 20.9816 13.426C21.0698 13.9759 21.1449 13.8546 21.2646 12.9668C21.433 11.7175 21.3438 11.4227 21.0383 12.2192ZM50.5317 12.4036C50.1499 12.6504 50.2188 12.7167 50.8623 12.7206C51.3102 12.7232 52.0133 12.9616 52.4254 13.25C53.1459 13.7545 53.1613 13.7497 52.8281 13.127C52.3066 12.1529 51.3742 11.8591 50.5317 12.4036ZM24.4541 13.3346C24.4541 13.4926 24.6921 13.713 24.9824 13.8247C25.4245 13.9943 25.4444 13.947 25.1041 13.5373C24.6405 12.979 24.4541 12.9207 24.4541 13.3346ZM47.8612 14.0931C45.9166 16.729 45.6961 17.2307 46.4826 17.2307C46.7347 17.2307 47.3757 17.5966 47.9072 18.0436C48.4387 18.4906 48.9403 18.7442 49.0221 18.6067C49.3476 18.0584 49.6096 14.9449 49.4078 14.0255C49.1341 12.7798 48.8199 12.7936 47.8612 14.0931ZM28.49 14.2273C28.6391 14.8184 28.5535 14.9005 27.9283 14.7666C27.2103 14.6128 27.2074 14.6221 27.8156 15.1151C28.2051 15.4308 28.2814 15.6217 28.0177 15.6217C27.6762 15.6217 27.6797 15.7243 28.0367 16.1562C28.4401 16.6444 28.417 16.6521 27.7669 16.2476C27.2615 15.9332 27.1681 15.733 27.445 15.5573C27.7122 15.3874 27.6578 15.3082 27.2712 15.3047C26.5204 15.2983 25.42 16.4317 25.42 17.2117C25.42 17.9602 25.9422 18.3657 26.172 17.7958C26.2702 17.5519 26.3449 17.6149 26.3604 17.9548C26.3742 18.2643 26.4463 18.5179 26.5204 18.5179C26.5944 18.5179 26.908 18.6148 27.2171 18.7335C27.5979 18.8796 27.7048 18.8288 27.5487 18.5762C27.3977 18.3319 27.492 18.2701 27.822 18.3966C28.4153 18.6244 29.2833 17.9931 29.2833 17.334C29.2833 16.9449 29.1709 16.951 28.5676 17.3733C27.5867 18.0603 27.0297 18.0011 27.0297 17.2104C27.0297 16.7094 27.2045 16.5713 27.7425 16.6473C28.6848 16.7805 29.2534 15.3597 28.6941 14.2701C28.3368 13.5743 28.3246 13.5718 28.49 14.2273ZM22.0843 15.1383C21.969 15.4382 22.0193 15.5728 22.2041 15.4585C22.3792 15.3504 22.5225 15.5602 22.5225 15.9245C22.5225 16.4432 22.7282 16.5871 23.4693 16.5871C23.9902 16.5871 24.5056 16.4423 24.6151 16.2653C24.7246 16.0883 24.5613 15.9435 24.2523 15.9435C23.9435 15.9435 23.374 15.6461 22.9867 15.2825C22.3676 14.701 22.2588 14.6836 22.0843 15.1383ZM50.2606 15.2999C50.2606 15.7423 50.3337 15.9235 50.4229 15.7021C50.5124 15.481 50.5124 15.119 50.4229 14.8976C50.3337 14.6765 50.2606 14.8574 50.2606 15.2999ZM43.2879 15.4492C42.7567 15.6921 42.5478 15.9029 42.824 15.9174C43.0999 15.9316 43.607 15.7308 43.9508 15.4711C44.727 14.8841 44.5361 14.878 43.2879 15.4492ZM19.6894 16.0078C19.4769 16.2202 19.3226 16.7631 19.3468 17.2146L19.3906 18.0352L19.5371 17.259C19.6504 16.6572 19.7486 16.5848 19.973 16.9372C20.1793 17.261 20.2431 17.1374 20.1954 16.5066C20.1584 16.0201 20.1166 15.6217 20.1021 15.6217C20.0876 15.6217 19.9018 15.7954 19.6894 16.0078ZM20.9127 16.2865C20.9127 16.4751 21.0814 16.9456 21.2875 17.3324C21.6381 17.9902 21.6226 18.0053 21.046 17.5702C20.4717 17.1364 20.4643 17.1428 20.9375 17.6639C21.3451 18.1125 21.6149 18.1581 22.3058 17.8956C23.2919 17.5206 23.4226 17.2819 22.6065 17.3469C22.2984 17.3716 21.9018 17.0659 21.7253 16.6675C21.3911 15.9148 20.9127 15.6902 20.9127 16.2865ZM41.457 16.1633C41.6891 16.2563 41.967 16.2447 42.0739 16.1378C42.1808 16.031 41.9908 15.9551 41.6515 15.9689C41.2764 15.9843 41.2001 16.0606 41.457 16.1633ZM39.187 16.4928C39.5875 16.5697 40.167 16.5668 40.4748 16.4864C40.7826 16.4059 40.4548 16.3428 39.7465 16.3464C39.0383 16.3499 38.7865 16.4159 39.187 16.4928ZM50.3685 16.6991C49.8752 17.2629 49.2262 18.841 49.4921 18.8298C49.9013 18.8121 50.9016 17.231 50.795 16.7705C50.7187 16.442 50.6096 16.4236 50.3685 16.6991ZM18.4119 17.8743C18.4119 18.4938 18.4782 18.7471 18.559 18.4375C18.6401 18.1279 18.6401 17.6207 18.559 17.3111C18.4782 17.0016 18.4119 17.2548 18.4119 17.8743ZM23.5401 18.3017C23.0373 18.8368 22.8602 19.3794 22.9207 20.2013C22.9674 20.834 23.1039 21.2909 23.2246 21.2166C23.345 21.1426 23.5347 21.2291 23.6461 21.409C23.7571 21.5889 24.383 21.7267 25.0365 21.7157C26.0481 21.6983 26.1202 21.653 25.5214 21.4119C24.7896 21.1172 24.1232 20.1546 24.1447 19.4241C24.1518 19.1911 24.3621 19.4711 24.6122 20.0465C24.9799 20.8919 25.2516 21.0924 26.0294 21.0924C27.2873 21.0924 27.539 20.6373 26.5342 20.1797C26.0957 19.9802 25.494 19.3073 25.1969 18.6846C24.8997 18.0619 24.5639 17.5525 24.4506 17.5525C24.3373 17.5525 23.9274 17.8898 23.5401 18.3017ZM52.2718 18.5984L51.6585 19.3224L52.3829 18.7094C53.0635 18.1334 53.2537 17.8743 52.9962 17.8743C52.935 17.8743 52.6092 18.2 52.2718 18.5984ZM32.3418 18.5179C32.4513 18.6949 32.7858 18.8375 33.0852 18.8349C33.5542 18.8304 33.5629 18.7866 33.1467 18.5179C32.5163 18.1105 32.09 18.1105 32.3418 18.5179ZM43.127 18.5179C42.8369 18.7052 42.797 18.8317 43.0275 18.8349C43.2383 18.8375 43.5004 18.6949 43.6099 18.5179C43.8568 18.1182 43.7454 18.1182 43.127 18.5179ZM29.2904 19.2487C29.2817 20.3509 30.4105 20.9714 31.7546 20.6035L32.6637 20.3548L31.5601 20.1089C30.9533 19.9738 30.1957 19.5242 29.877 19.11L29.2975 18.357L29.2904 19.2487ZM19.4688 19.5094C20.1066 20.2344 20.1066 20.2357 19.464 20.0201C18.9057 19.8325 18.9212 19.8895 19.5802 20.4481C20.3915 21.1358 21.2347 21.3003 21.2347 20.7706C21.2347 20.5936 21.0811 20.4488 20.8937 20.4488C20.7064 20.4488 20.6223 20.3361 20.7073 20.1987C20.7923 20.0613 20.4047 19.6864 19.8458 19.3659L18.8298 18.7828L19.4688 19.5094ZM38.733 19.0418C38.5296 19.1252 37.443 19.3128 36.3185 19.4586L34.2735 19.7234L36.2051 19.753C37.3416 19.7704 38.4681 19.5931 38.9417 19.3224C39.6947 18.8922 39.5556 18.7049 38.733 19.0418ZM20.8525 19.3813C21.0847 19.4743 21.3625 19.4627 21.4694 19.3559C21.5763 19.2491 21.3863 19.1731 21.047 19.187C20.6719 19.2024 20.5956 19.2787 20.8525 19.3813ZM22.0795 19.6568C21.969 19.9442 21.8879 20.3487 21.8989 20.5556C21.9101 20.7622 22.0582 20.5846 22.2279 20.1607C22.3976 19.7366 22.4787 19.3324 22.4082 19.2619C22.3377 19.1915 22.1896 19.3691 22.0795 19.6568ZM44.4147 19.4029C44.4147 20.1569 45.7875 21.4142 46.6114 21.4148C47.3792 21.4155 47.5308 21.6105 48.0009 23.2063L48.5282 24.9972L47.6986 25.3126C47.2421 25.486 46.6619 25.9233 46.4089 26.2841C46.1169 26.7011 45.7215 26.8807 45.3246 26.7771C44.7949 26.6387 44.7621 26.6886 45.1085 27.106C45.4421 27.5076 45.4298 27.6659 45.0425 27.9655C44.7814 28.1676 44.3915 28.7314 44.1762 29.218C43.6469 30.4141 42.9496 30.3398 40.6264 28.8389C38.7041 27.597 38.1838 26.613 39.2916 26.3147C39.6474 26.2191 39.6413 26.2667 39.2636 26.5338C38.6934 26.9367 39.2282 26.9995 39.8541 26.603C40.1973 26.3854 40.177 26.2899 39.753 26.1274C39.4558 26.0134 39.3235 25.7611 39.452 25.5536C39.5778 25.3499 39.2266 25.4516 38.6712 25.7792C37.6832 26.3626 37.6513 26.362 37.1584 25.7451C36.6681 25.1317 36.66 25.1346 36.859 25.8545C36.9714 26.2612 36.9302 26.7681 36.7676 26.9808C36.4292 27.423 36.4131 31.8658 36.7486 32.2011C36.8703 32.3231 38.0209 32.623 39.3055 32.8676C44.1524 33.7905 46.0264 35.6197 46.0229 39.4231C46.0212 41.1306 45.3068 50.0225 44.2637 61.3182C43.994 64.2386 43.7844 67.2072 43.7976 67.9152C43.8208 69.1445 43.8359 69.1635 44.1401 68.3323C44.4923 67.3701 44.6456 67.3012 47.5939 66.7841C51.3327 66.1285 57.3228 63.6214 59.474 61.8122C60.0783 61.3037 60.6839 60.3206 61.0223 59.2972C61.6691 57.3413 62.6645 55.685 63.8538 54.5847L64.6973 53.8043L64.7282 54.5847C64.7459 55.0327 64.9246 54.68 65.148 53.7557C65.3711 52.8318 65.7008 52.1808 65.922 52.2271C66.1338 52.2712 66.307 52.1628 66.307 51.9858C66.307 51.8088 66.4155 51.6643 66.5485 51.6646C67.0336 51.6659 66.9126 53.5478 66.4 53.9701C65.9313 54.3565 65.9194 54.3247 66.2803 53.6476C66.5008 53.2344 66.5971 52.8119 66.4941 52.7092C66.391 52.6062 66.3047 52.7272 66.3022 52.9779C66.2983 53.3374 66.2413 53.3461 66.0343 53.0201C65.8711 52.763 65.7671 53.068 65.7594 53.8246C65.7529 54.4946 65.6419 55.405 65.5128 55.8475C65.3093 56.5442 65.3647 56.5168 65.9274 55.6412C66.2845 55.0854 66.7696 54.5117 67.0053 54.3665C67.2651 54.2063 67.2072 54.4486 66.8585 54.9818C66.3176 55.8089 66.315 55.9282 66.8179 56.987C67.249 57.8951 67.4396 58.0406 67.8034 57.7391C68.3694 57.2692 68.427 57.3432 68.6572 58.8329C68.8443 60.0432 68.8311 60.0599 65.7249 62.634C64.0086 64.0561 61.6629 65.7404 60.512 66.377C59.361 67.0138 56.5028 68.6773 54.16 70.0739C48.7059 73.3258 42.7979 76.1647 41.0842 76.3578C40.0559 76.4737 39.6216 76.3704 39.2144 75.9128C38.0351 74.5882 37.8834 72.9985 37.6687 59.7092L37.4582 46.676L37.395 55.8887C37.3268 65.8605 37.3825 65.5664 35.4843 65.9718C34.9109 66.0944 34.3649 66.3191 34.2709 66.4713C34.1769 66.6232 34.5729 66.6119 35.1504 66.4465C36.7618 65.9844 37.3319 66.069 37.3319 66.7699C37.3319 67.558 37.1867 67.641 35.3198 67.9204C33.7976 68.1482 33.7905 68.145 33.7947 67.2278C33.8047 65.0103 32.6814 54.799 32.507 55.5228C32.2845 56.447 31.0472 57.0021 29.8686 56.7064C29.4327 56.597 28.688 55.9627 28.2138 55.2962C27.7396 54.6301 27.3516 54.2594 27.3516 54.4724C27.3516 54.6854 27.7863 55.3545 28.3175 55.9591C29.3062 57.0848 29.5743 57.6744 28.9115 57.265C28.6793 57.1215 28.6275 57.1769 28.773 57.4121C28.9012 57.6193 29.1655 57.6901 29.3603 57.5698C29.5869 57.4298 29.642 57.5402 29.5132 57.8761C29.2064 58.6749 29.7682 58.8094 30.4169 58.0924C30.9706 57.4813 30.97 57.4565 30.4062 57.4565C29.5141 57.4565 29.9423 57.2464 31.3566 56.9905C32.4554 56.7917 32.572 56.8245 32.2285 57.2383C31.9133 57.618 31.9171 57.7461 32.2478 57.8639C32.4767 57.9453 32.5585 58.1249 32.43 58.263C32.3015 58.4007 32.007 58.3566 31.7755 58.1645C31.5073 57.9421 31.1828 57.9238 30.8821 58.1136C30.5965 58.2942 30.5605 58.4139 30.7916 58.4171C31.0015 58.4197 31.5504 58.5655 32.0118 58.7408C32.7281 59.0128 32.7999 59.1537 32.5044 59.7063C32.2922 60.1027 32.2793 60.3528 32.4715 60.3528C32.6438 60.3528 32.7629 60.6424 32.7362 60.9964C32.7094 61.3504 32.5775 61.64 32.4426 61.64C32.1023 61.64 31.1538 59.7465 31.3418 59.4424C31.4262 59.3059 31.2279 59.0272 30.9008 58.8232C30.4275 58.5278 30.2685 58.551 30.1204 58.9365C30.0151 59.211 30.0724 59.3355 30.2527 59.2242C30.4278 59.1161 30.5711 59.2416 30.5711 59.5029C30.5711 59.7642 30.9198 60.6778 31.3457 61.5331C31.7716 62.3885 32.3408 63.8399 32.6103 64.7586C33.0652 66.3081 33.0617 66.4143 32.561 66.2222C32.0669 66.0327 32.0688 66.0877 32.5842 66.8735C33.3337 68.0169 33.2954 68.2454 32.3418 68.3242C31.8991 68.3606 31.5369 68.239 31.5369 68.0536C31.5369 67.8679 31.6612 67.7929 31.8131 67.8869C32.2851 68.1785 31.9516 65.7565 31.2179 63.5683C30.8328 62.4191 30.1052 60.8052 29.6008 59.9817C29.0966 59.1585 28.7705 58.3981 28.8764 58.2922C28.982 58.1867 28.895 58.1001 28.6826 58.1001C28.4704 58.1001 28.1916 57.8465 28.0635 57.537C27.935 57.2274 27.2737 56.1262 26.5938 55.0903C25.6624 53.6711 25.4489 53.1157 25.7281 52.8376C26.0069 52.5599 26.2519 52.6674 26.718 53.273C27.0587 53.7155 27.3407 53.9237 27.3446 53.7355C27.3484 53.5472 26.9138 52.9741 26.3787 52.4618C25.8437 51.9491 24.9876 50.7999 24.4763 49.9076C23.9651 49.0152 23.3013 47.9954 23.0009 47.6414C22.4755 47.0226 22.4726 47.0287 22.9246 47.8023C24.7432 50.9145 25.4605 52.3469 25.3569 52.6574C25.2912 52.8547 24.4635 51.7502 23.5176 50.203C21.5 46.9029 21.5219 47.6874 23.147 36.8895C23.6908 33.2769 24.0826 30.268 24.0179 30.2034C23.7224 29.9079 22.8583 33.9814 23.0093 34.959C23.1464 35.8462 23.1161 35.9331 22.8515 35.4128C22.5904 34.8998 22.5637 34.9896 22.7185 35.8552C22.8257 36.4525 22.772 37.0318 22.5991 37.1425C22.242 37.3713 20.4752 46.8288 20.7402 47.0934C20.8351 47.1883 20.915 46.9885 20.9176 46.6493C20.9205 46.3101 21.0695 45.8152 21.2495 45.5497C21.4881 45.197 21.5183 45.327 21.3609 46.0324C21.2427 46.5634 21.0322 47.1439 20.8934 47.3225C20.5805 47.7244 19.6134 51.8271 19.6565 52.5689C19.6739 52.8675 19.8896 52.4605 20.1356 51.664L20.5827 50.2159L20.424 51.5031C20.3365 52.2111 19.9488 55.1073 19.5622 57.9392C19.1758 60.7711 18.8655 63.957 18.8726 65.019C18.8797 66.0809 18.8069 66.7326 18.7106 66.4671C18.4383 65.7147 17.693 71.9504 17.8932 73.3055C17.9914 73.9694 17.9505 74.5123 17.8021 74.5123C17.6537 74.5123 17.5165 74.9827 17.4972 75.5581C17.4779 76.1335 17.3739 77.1833 17.2657 77.8912C17.1579 78.5992 17.1424 78.9545 17.2313 78.6809C17.3205 78.4071 18.8732 77.404 20.6822 76.4515C22.4912 75.4992 24.0475 74.6085 24.1406 74.4723C24.2339 74.3359 24.4834 74.3314 24.6956 74.4624C24.9483 74.6188 24.0871 75.6164 22.1883 77.3667C20.5975 78.8332 19.387 80.1805 19.4984 80.3604C19.6098 80.5406 18.9965 81.4346 18.1353 82.347C17.2741 83.2593 17.6192 82.9957 18.9022 81.7616C20.1851 80.5275 21.2347 79.6657 21.2347 79.8468C21.2347 80.028 21.1262 80.3221 20.9932 80.5004C20.8603 80.679 21.3268 80.1651 22.0299 79.358C24.3257 76.7227 27.8207 73.3991 28.9662 72.7616C29.9346 72.2223 29.8242 72.4022 28.1565 74.0772C27.0941 75.144 25.5977 76.9454 24.8308 78.0805C24.0643 79.2155 23.827 79.7094 24.3041 79.1785C24.9419 78.4685 25.1141 78.3833 24.9548 78.8566C24.685 79.6579 24.7828 79.5489 27.484 76.0457C29.7009 73.17 30.405 72.4446 30.0299 73.422C29.9124 73.7277 29.9501 73.8925 30.1139 73.7914C30.2768 73.6907 30.4101 73.9446 30.4101 74.3552C30.4101 74.7662 30.301 75.078 30.1677 75.0487C30.0341 75.0191 29.1851 76.353 28.2811 78.0126C27.3768 79.6721 26.8018 80.9284 27.003 80.8039C27.2042 80.6797 27.9537 79.4153 28.6684 77.9945C29.9697 75.4072 30.5685 74.788 29.8915 76.7292C29.6931 77.2978 29.6101 77.8426 29.707 77.9395C29.8042 78.0364 30.0959 77.4133 30.3557 76.5554C31.3264 73.3483 32.5082 71.1925 33.0172 71.701C33.1402 71.8242 32.3882 74.0585 30.7166 78.5348C30.5544 78.9693 30.5827 79.0739 30.8032 78.8566C30.9832 78.6796 31.3875 77.8436 31.7021 76.9992C32.0166 76.1544 32.3279 75.5173 32.3939 75.5835C32.4599 75.6495 32.2941 76.7482 32.0256 78.0251C31.7568 79.302 31.5492 80.5909 31.5637 80.8889C31.5785 81.1872 32.0823 79.1292 32.6834 76.316C33.7632 71.2623 34.3552 69.4473 34.0062 72.2596L33.8266 73.7077L34.1711 72.3648C34.4406 71.3135 34.6991 70.9782 35.3603 70.8208C35.8249 70.7104 36.4588 70.5447 36.7685 70.4527C37.2177 70.3194 37.3319 70.4826 37.3319 71.2565C37.3319 73.0319 38.027 75.5015 38.7698 76.3646C39.3296 77.0149 39.7816 77.2087 40.6805 77.1832C41.3282 77.1649 42.0694 76.9744 42.3276 76.7604C42.6991 76.4521 42.8266 76.4624 42.9367 76.809C43.0133 77.0504 43.1485 77.4648 43.2371 77.7303C43.3256 77.9958 43.4096 77.7255 43.4235 77.1295C43.445 76.2098 43.5461 76.0717 44.0928 76.2146C44.4469 76.307 44.7367 76.2667 44.7367 76.1248C44.7367 75.7171 48.0794 74.0778 48.1963 74.4283C48.2539 74.6011 48.5157 75.0168 48.7777 75.3515C49.2124 75.9066 49.2207 75.8816 48.8714 75.0667C48.374 73.905 48.9168 73.2015 49.7735 73.8982C50.2648 74.2982 50.306 74.2863 50.1231 73.7985C50.0092 73.4944 50.0404 73.1687 50.1927 73.0747C50.5501 72.854 53.6861 78.1081 55.2868 81.61C55.97 83.1045 56.7014 84.6894 56.9123 85.1319L57.2961 85.9364L57.0978 85.1319C56.989 84.6894 56.3364 83.1125 55.6474 81.628C54.2621 78.642 54.2357 78.5593 54.7662 78.8869C54.97 79.013 54.3358 77.5823 53.3561 75.7074C52.0767 73.2585 51.6936 72.2532 51.9959 72.1373C52.6137 71.9005 52.9321 72.3989 55.7205 77.9668C57.1164 80.7537 58.2584 82.9091 58.2584 82.7563C58.2584 82.6034 57.3177 80.5049 56.168 78.093C55.018 75.6811 54.3026 73.9974 54.5782 74.3514C55.405 75.413 58.4335 81.2335 59.7451 84.2813C60.4199 85.8492 61.0178 86.9945 61.0735 86.8268C61.3185 86.0921 56.7533 76.5895 54.5644 73.2775C53.9401 72.3326 53.4292 71.4413 53.4292 71.2968C53.4292 70.9132 61.2125 66.4671 61.8838 66.4671C62.0213 66.4671 62.0432 66.8288 61.9321 67.271C61.821 67.7131 61.8262 68.3242 61.9434 68.6296C62.1259 69.1046 62.1993 69.1165 62.4559 68.7107C62.7077 68.3133 62.7566 68.3275 62.7608 68.8002C62.7695 69.7914 63.3638 69.4023 63.4987 68.3175L63.6284 67.2716L63.6799 68.283C63.7356 69.3782 64.5943 70.006 64.9101 69.1831C65.0762 68.751 65.1705 68.7571 65.6969 69.233C66.2619 69.744 66.3118 69.7318 66.6026 69.0055C66.8263 68.4465 66.9155 68.3905 66.9306 68.8002C66.9416 69.1098 67.0958 69.3633 67.2728 69.3633C67.4692 69.3633 67.5948 67.883 67.5948 65.566C67.5948 61.9621 67.8124 60.9964 68.625 60.9964C69.0429 60.9964 68.9199 64.8822 68.41 67.7926C67.854 70.9669 66.9985 73.551 64.7124 78.9648C63.7904 81.1482 63.0888 82.9877 63.1532 83.0524C63.2179 83.1171 64.0473 81.4028 64.9964 79.2431C68.6318 70.9714 69.3545 67.8113 69.1263 61.1888C69.0403 58.6935 68.8668 56.3624 68.7409 56.0084C68.5162 55.3764 68.5194 55.3764 68.9109 55.9936C69.1305 56.3392 69.3545 56.9909 69.409 57.4417C69.4634 57.8922 69.6507 59.0575 69.8256 60.031L70.143 61.8009L70.0075 60.031C69.9331 59.0575 69.7818 57.899 69.6713 57.4565C69.5149 56.8293 69.5467 56.7585 69.8156 57.1347C70.3217 57.8427 70.2238 57.1073 69.6874 56.1693C68.9872 54.9451 69.1269 54.5831 69.8587 55.7249C70.2125 56.2768 70.8509 57.7265 71.2772 58.9461C73.7423 65.9989 73.6503 73.0104 70.9743 82.0171C70.7106 82.9053 70.5499 83.6879 70.6179 83.7555C70.6858 83.8234 71.0374 82.8937 71.3992 81.6895C73.177 75.7731 73.2127 75.5353 73.2188 69.5243C73.2246 63.928 73.1892 63.6114 72.1806 60.1771C71.6062 58.2221 71.1362 56.4924 71.1362 56.3328C71.1362 56.1735 71.6432 56.5342 72.263 57.1347C73.4957 58.3289 73.649 58.2475 72.8985 56.7968C72.6284 56.2748 72.4945 55.8475 72.601 55.8475C72.7073 55.8475 72.2054 55.2319 71.4858 54.4798C70.7663 53.7277 70.1803 52.9673 70.1839 52.7903C70.1877 52.6133 70.4826 52.8595 70.8397 53.3374C71.2588 53.8989 71.6828 54.1445 72.0367 54.0312C72.5102 53.8799 72.5189 53.9073 72.102 54.2326C71.6729 54.5673 71.6729 54.5931 72.102 54.464C72.3676 54.3842 72.5489 54.1561 72.5044 53.9569C72.4603 53.7577 72.6052 53.5926 72.8264 53.59C73.0946 53.5865 73.0679 53.4809 72.7459 53.273C72.0882 52.8482 71.4974 52.875 72.102 53.3023C72.4217 53.5285 72.441 53.6058 72.1584 53.5308C71.1626 53.2672 71.7344 52.7829 73.1483 52.6922C74.5903 52.5998 74.6776 52.64 74.6776 53.3972C74.6776 53.8391 74.8225 54.2899 74.9995 54.3993C75.1995 54.5229 75.3215 53.9198 75.3215 52.8093C75.3215 51.8255 75.4576 51.0204 75.6244 51.0204C76.0903 51.0204 76.3385 51.5945 75.9705 51.8217C75.5726 52.0675 75.5294 54.8821 75.9235 54.8821C76.0777 54.8821 76.3861 54.2304 76.6093 53.4339C77.0574 51.8339 77.5751 51.5134 77.5751 52.8354C77.5751 53.8066 78.8255 56.4911 79.2779 56.4911C79.4472 56.4911 79.4887 55.964 79.3728 55.2843L79.1674 54.0775L79.7746 55.3648C80.1085 56.0727 80.6918 56.9278 81.0711 57.265C81.7526 57.871 81.7604 57.87 81.7604 57.1685C81.7604 56.1796 81.0215 54.8644 79.9417 53.9308L79.0274 53.1404L79.8303 52.9351C80.535 52.7552 80.4559 52.6918 79.1848 52.4199L77.7361 52.11L79.1285 51.8793C80.7041 51.6183 80.8448 50.8595 79.3175 50.8595C78.493 50.8595 78.3597 50.724 78.2109 49.7332C78.0548 48.6931 78.0249 48.667 77.822 49.3946C77.701 49.8278 77.7444 50.3539 77.9186 50.5637C78.3072 51.0316 77.5014 51.4172 76.7432 51.1263C76.3327 50.9689 76.3169 50.8778 76.6627 50.6587C76.9515 50.4759 76.7706 50.3851 76.1102 50.3816C75.5703 50.379 74.9773 50.5277 74.7928 50.7121C74.5597 50.9451 74.3183 50.8785 74.0041 50.4955C73.5994 50.0025 73.621 49.9613 74.2043 50.1113C74.9815 50.3114 75.6434 49.7415 75.6434 48.8726C75.6434 48.7532 76.0017 48.992 76.4399 49.4033C77.1266 50.0482 77.2638 50.0804 77.4344 49.636C77.5432 49.3525 77.5246 48.9463 77.3929 48.7333C77.2303 48.4704 77.2902 48.4308 77.5799 48.6101C77.8993 48.807 77.9501 48.7185 77.7824 48.2573C77.6594 47.9185 77.935 48.1119 78.3951 48.6873C79.3616 49.8957 80.0309 50.0926 79.4894 49.0091C79.1787 48.387 79.2337 48.4057 79.8805 49.1397C80.7147 50.0865 82.034 50.854 82.3257 50.5624C82.4294 50.4588 82.1744 50.0128 81.7591 49.571L81.0041 48.7677L82.4287 48.7574C83.751 48.7481 83.8083 48.7133 83.2281 48.2747C82.8582 47.9954 81.8724 47.7978 80.8135 47.791C79.0992 47.7801 79.0576 47.7602 79.8287 47.3196C80.4491 46.965 80.5035 46.8572 80.0657 46.8482C79.7534 46.842 79.2321 47.0029 78.907 47.2057C78.5345 47.4383 77.9714 47.4783 77.3822 47.3138C76.8684 47.1706 76.3218 47.0828 76.1672 47.1191C76.0127 47.1555 75.9853 46.9257 76.1061 46.6087C76.2558 46.2155 76.2203 46.1363 75.995 46.3597C75.5201 46.8298 75.9248 48.1196 76.4801 47.9066C76.7454 47.8046 76.9312 47.9355 76.9312 48.2242C76.9312 48.4942 77.0159 48.9804 77.1192 49.3045C77.2712 49.7821 77.1846 49.756 76.6633 49.1677C76.1215 48.5566 75.8842 48.4926 75.1666 48.7655C74.0147 49.2031 73.8837 49.1755 74.3653 48.5952C74.7275 48.1589 74.6129 48.1267 73.3885 48.3227C72.0804 48.5315 72.0116 48.5045 72.1825 47.8509C72.2823 47.4699 72.2324 47.2388 72.0721 47.3383C71.9114 47.4374 71.7801 47.8229 71.7801 48.1949C71.7801 48.5669 71.3194 49.2823 70.7563 49.785C69.6787 50.7462 69.6562 50.7131 71.4803 50.8453C71.7579 50.8653 72.3934 51.2025 72.8918 51.5948C73.6432 52.1853 73.6944 52.307 73.1918 52.3031C72.8579 52.3008 72.2305 52.204 71.7975 52.0881C71.0679 51.8931 71.056 51.8596 71.6365 51.6325C72.1622 51.4268 72.1188 51.3837 71.3648 51.3647C70.8706 51.3525 70.0364 51.0246 69.5113 50.6365C68.7715 50.0897 68.4695 50.0173 68.172 50.3147C67.6866 50.7999 65.3412 50.8221 65.3412 50.341C65.3412 50.1444 65.0875 50.2963 64.7778 50.6789C64.4681 51.0612 63.6638 51.4979 62.991 51.6495C61.9324 51.8883 61.6562 51.8223 60.9412 51.1594C60.1949 50.4682 60.1366 50.2445 60.3433 48.8566C60.4692 48.0112 60.7213 47.1387 60.9035 46.9173C61.1353 46.6358 61.1208 46.5151 60.8542 46.5151C60.6453 46.5151 60.5442 46.4012 60.6305 46.2621C60.7164 46.1231 60.5075 46.0095 60.1665 46.0095C59.4621 46.0095 59.3852 46.2255 59.9045 46.7445C60.3301 47.17 59.9724 47.905 59.486 47.6041C59.3002 47.4895 58.6695 47.2877 58.0842 47.1558C57.0537 46.9235 57.0311 46.9399 57.3692 47.681C57.5987 48.1849 57.9883 48.4459 58.5105 48.4459C59.2078 48.4459 59.2506 48.5093 58.8662 48.9724C58.6257 49.2617 58.4268 49.7325 58.4242 50.0183C58.4216 50.3037 58.202 50.5377 57.9364 50.5377C57.6708 50.5377 57.4857 50.3687 57.525 50.1624C57.5939 49.8004 55.0859 48.7677 54.1371 48.7677C53.351 48.7677 54.2769 49.6179 55.9504 50.4328C56.7823 50.8379 57.2378 51.2115 56.9706 51.2695C55.9945 51.4812 53.4292 55.443 53.4292 56.7389C53.4292 57.4588 54.6127 56.3324 55.3802 54.8824C55.9252 53.852 55.9774 53.823 55.9906 54.5442C56.0106 55.6579 56.5582 55.006 56.9278 53.4285C57.0929 52.7234 57.2446 52.4363 57.2652 52.7903C57.3502 54.2603 57.8331 54.3562 58.7036 53.0758C59.4901 51.9185 59.5478 51.8893 59.5687 52.6352C59.5896 53.375 59.6128 53.3866 59.8832 52.7903C60.0912 52.3314 60.1205 52.4933 59.9856 53.3535C59.8259 54.3726 59.8868 54.5602 60.3787 54.5602C60.7679 54.5602 60.4907 54.9059 59.541 55.6039C57.8215 56.8679 58.4329 57.1929 60.6697 56.204L62.142 55.553L61.653 56.4241C61.3838 56.9036 60.8629 58.1249 60.4956 59.1386C60.0864 60.2672 59.4921 61.2181 58.9625 61.5917C57.6779 62.4983 54.5096 64.0317 52.1768 64.8761L50.1196 65.6207L49.2249 64.6199C48.1776 63.4485 47.7816 61.1837 48.0369 57.8276C48.1615 56.1892 48.5115 55.0481 49.5266 52.9683C51.6604 48.5969 51.3137 46.0971 48.1094 42.7541C46.7894 41.3771 46.6684 41.1139 46.6684 39.6168C46.6684 37.4018 46.2096 35.9643 45.1456 34.8451C43.9041 33.5395 42.8755 33.0658 39.9915 32.4721C38.6175 32.1892 37.3864 31.7937 37.2563 31.5936C36.9163 31.0697 36.9546 29.3873 37.302 29.6016C37.4623 29.701 37.5248 29.5182 37.4404 29.1961C37.3561 28.8737 37.5113 28.4241 37.7849 28.1969C38.2018 27.851 38.4794 27.9388 39.4973 28.7385C42.2561 30.9055 44.1408 31.2383 44.5448 29.6293C44.6552 29.1884 45.2508 28.3234 45.868 27.7061C46.4852 27.0892 46.9903 26.4492 46.9903 26.2834C46.9903 26.118 47.4249 25.831 47.9561 25.6459C49.0733 25.2565 49.0987 25.1336 48.4059 23.4763C48.092 22.7252 47.9539 21.7646 48.0534 21.0235C48.1458 20.3358 48.0901 19.8833 47.9256 19.985C47.7652 20.0838 47.6342 20.3857 47.6342 20.6554C47.6342 20.9254 47.4533 21.0821 47.2318 21.0036C47.0106 20.9254 46.8593 20.4597 46.8956 19.9693C46.9555 19.167 46.9201 19.1345 46.547 19.6446C46.1513 20.1852 46.0911 20.1855 45.2734 19.6497C44.8011 19.3405 44.4147 19.2294 44.4147 19.4029ZM50.8124 19.7247C50.4123 20.2351 50.4235 20.2463 50.9341 19.8463C51.4705 19.4257 51.6408 19.1615 51.3758 19.1615C51.3092 19.1615 51.0555 19.4151 50.8124 19.7247ZM23.4883 20.108C23.4883 20.2747 23.6316 20.4993 23.8067 20.6074C23.9889 20.72 24.043 20.591 23.9332 20.3046C23.7191 19.7472 23.4883 19.6452 23.4883 20.108ZM29.7064 21.1728C30.0441 21.4824 30.6303 21.7234 31.0093 21.7083C31.5678 21.6858 31.5266 21.6292 30.7919 21.4087C30.2936 21.2594 29.7073 21.0184 29.489 20.8732C29.2708 20.7284 29.3683 20.8633 29.7064 21.1728ZM27.2576 22.0607C27.1652 22.4137 27.2213 22.6213 27.3816 22.5218C27.6292 22.369 27.7782 22.7111 27.7402 23.345C27.7212 23.6617 30.5354 23.6633 30.7311 23.3466C30.8444 23.1632 30.5853 23.0232 30.132 23.0232C29.6922 23.0232 28.9037 22.6621 28.379 22.2213C27.4588 21.4473 27.4196 21.4415 27.2576 22.0607ZM34.4612 22.7227C34.0565 23.4422 33.796 24.1016 33.8823 24.1875C34.1456 24.4508 35.4003 22.6544 35.4003 22.0143C35.4003 21.1645 35.2908 21.2472 34.4612 22.7227ZM40.5768 21.9236C40.5923 22.2985 40.6686 22.3748 40.7713 22.1183C40.8643 21.8859 40.8527 21.6082 40.7458 21.5014C40.639 21.3946 40.563 21.5844 40.5768 21.9236ZM29.2833 22.1939C30.1803 22.7342 30.8856 22.8752 30.394 22.4156C30.226 22.2586 29.726 22.0353 29.2833 21.9197L28.4785 21.7093L29.2833 22.1939ZM22.3966 22.8375C22.4932 23.0892 22.8064 23.3852 23.0926 23.495C23.5202 23.6588 23.507 23.577 23.0179 23.0371C22.3167 22.2625 22.1561 22.211 22.3966 22.8375ZM26.3858 24.9199C26.3858 25.2955 27.1295 25.9195 27.577 25.9195C28.2579 25.9195 28.0509 25.4648 27.1881 25.0648C26.7467 24.8601 26.3858 24.7951 26.3858 24.9199ZM17.8749 26.7906C17.7004 27.2492 17.7371 27.2862 18.0552 26.9708C18.2754 26.7523 18.3742 26.4926 18.275 26.3938C18.1759 26.2947 17.9959 26.4733 17.8749 26.7906ZM15.9094 27.2283C15.7925 27.4168 15.7661 27.6405 15.8505 27.7248C15.9348 27.8091 16.0897 27.6547 16.1946 27.3814C16.4123 26.8144 16.2268 26.7147 15.9094 27.2283ZM10.1456 29.9601C9.29665 31.4713 8.67495 32.7807 8.76381 32.8695C8.85267 32.9583 9.60312 31.7776 10.4315 30.2458C11.2602 28.7144 11.8819 27.4049 11.8133 27.3364C11.7447 27.2678 10.9943 28.4486 10.1456 29.9601ZM22.7234 27.702C22.6129 27.9893 22.5318 28.3938 22.5427 28.6008C22.554 28.8074 22.7021 28.6297 22.8718 28.2059C23.0414 27.7818 23.1226 27.3776 23.0521 27.3071C22.9816 27.2366 22.8335 27.4143 22.7234 27.702ZM17.0494 28.1721C16.8598 28.5261 16.7774 28.8157 16.8659 28.8157C16.9544 28.8157 17.1817 28.5261 17.3713 28.1721C17.561 27.8181 17.6434 27.5285 17.5549 27.5285C17.4663 27.5285 17.239 27.8181 17.0494 28.1721ZM34.5632 28.6226C33.9612 29.2244 33.4686 30.028 33.4686 30.4087C33.4686 31.6148 34.3655 32.8933 35.6276 33.4861C36.2995 33.8015 36.9556 34.2195 37.0857 34.4145C37.2505 34.662 37.3236 34.6494 37.3271 34.3733C37.3297 34.1558 36.7624 33.6872 36.0661 33.3323C35.3697 32.977 34.693 32.5133 34.5619 32.3015C34.0504 31.4739 34.1939 29.935 34.8501 29.218C35.2142 28.8196 35.3871 28.4939 35.2338 28.4939C35.0806 28.4939 35.2364 28.2812 35.5802 28.0215C35.9238 27.7615 36.0818 27.5443 35.9315 27.5388C35.7811 27.533 35.1653 28.0209 34.5632 28.6226ZM23.8357 28.3597C23.8511 28.7346 23.9274 28.8109 24.0301 28.5544C24.1232 28.3221 24.1116 28.0444 24.0047 27.9375C23.8978 27.8307 23.8218 28.0205 23.8357 28.3597ZM35.0336 29.4317C34.6154 29.7705 34.3575 30.1319 34.4599 30.2349C34.5626 30.3379 34.9863 30.0608 35.4016 29.619C36.2975 28.6654 36.1018 28.566 35.0336 29.4317ZM21.9079 30.4541C21.6902 31.1804 21.5711 31.834 21.6436 31.9064C21.716 31.9788 21.9536 31.4436 22.1712 30.7173C22.3889 29.991 22.508 29.3374 22.4355 29.265C22.3631 29.1926 22.1255 29.7277 21.9079 30.4541ZM15.723 30.5052C15.5121 30.9036 15.1293 31.5913 14.8727 32.0338C14.4249 32.8055 14.4278 32.8122 14.9474 32.1947C15.5891 31.432 16.4895 29.7812 16.2642 29.7812C16.1772 29.7812 15.9339 30.1068 15.723 30.5052ZM69.8207 31.6776C69.5255 32.662 69.5113 33.3017 69.7657 34.1307C70.1658 35.4334 70.011 35.5167 68.9837 34.5522C67.9747 33.6045 67.9705 34.4441 68.9769 35.9309C70.2776 37.8524 70.3722 38.0506 69.7493 37.5457C69.1582 37.0662 69.0339 37.3803 69.5145 38.1398C69.7032 38.4384 69.6958 38.6871 69.4943 38.8117C69.3021 38.9304 69.3735 39.1747 69.6723 39.4228C70.0866 39.7665 70.1703 39.7488 70.1703 39.3163C70.1703 39.0305 70.605 38.4098 71.1362 37.9364C71.6674 37.4633 72.102 36.8831 72.102 36.6469C72.102 36.0738 71.7936 36.1053 71.0792 36.7518C70.1169 37.622 70.0532 37.0144 70.9469 35.4903C72.0399 33.6261 72.0299 32.9812 70.9237 33.9891C70.17 34.6755 70.0989 34.6919 70.332 34.1255C70.7769 33.0427 70.9063 31.0317 70.5535 30.679C70.3233 30.4489 70.0963 30.7585 69.8207 31.6776ZM65.346 31.4706C65.3502 32.056 65.4107 32.1023 65.6631 31.712C66.0665 31.088 66.0665 30.7466 65.6631 30.7466C65.486 30.7466 65.3434 31.0722 65.346 31.4706ZM64.6973 31.9302C64.6973 32.5731 65.5131 33.0205 65.9284 32.6053C66.4493 32.0846 66.4081 31.5495 65.8808 31.9868C65.5698 32.2449 65.3524 32.2381 65.0759 31.9617C64.8251 31.711 64.6973 31.7001 64.6973 31.9302ZM47.3122 32.1548C47.3122 32.2301 47.8193 32.5912 48.439 32.9564C49.1699 33.3876 49.5791 33.8794 49.6032 34.356C49.6322 34.9252 49.6743 34.9603 49.7909 34.5123C49.8733 34.1941 49.7584 33.7139 49.5353 33.4452C49.1264 32.9529 47.3122 31.8996 47.3122 32.1548ZM21.0966 33.183C20.9784 33.6547 20.9436 34.1027 21.0193 34.1786C21.0953 34.2543 21.2543 33.9305 21.3728 33.4591C21.491 32.9873 21.5257 32.5394 21.4501 32.4634C21.3741 32.3878 21.215 32.7115 21.0966 33.183ZM16.7126 33.3487C16.515 33.7178 16.4139 34.0805 16.4883 34.1545C16.5623 34.2285 16.7883 33.9267 16.9902 33.4832C17.4338 32.5101 17.2178 32.4052 16.7126 33.3487ZM10.9324 33.6428C10.7428 33.9968 10.6604 34.2864 10.7489 34.2864C10.8375 34.2864 11.0648 33.9968 11.2544 33.6428C11.444 33.2888 11.5264 32.9992 11.4379 32.9992C11.3494 32.9992 11.1221 33.2888 10.9324 33.6428ZM13.8299 33.6428C13.6403 33.9968 13.5579 34.2864 13.6464 34.2864C13.735 34.2864 13.9623 33.9968 14.1519 33.6428C14.3415 33.2888 14.4239 32.9992 14.3354 32.9992C14.2469 32.9992 14.0196 33.2888 13.8299 33.6428ZM73.7658 33.8639C73.3074 34.7199 73.2775 35.5737 73.7056 35.5737C74.0775 35.5737 74.4796 34.1757 74.28 33.5772C74.1895 33.3053 74.0118 33.4044 73.7658 33.8639ZM64.6973 34.3711C64.6973 34.6379 64.9088 35.3436 65.1676 35.9389L65.638 37.0218L65.6506 35.8543C65.6576 35.1959 65.4526 34.5124 65.1802 34.2864C64.7871 33.9605 64.6973 33.9762 64.6973 34.3711ZM56.0608 35.369C56.1358 36.0126 56.1719 36.5391 56.1403 36.5391C56.1091 36.5391 55.5431 36.3135 54.8825 36.0374C53.3304 35.3893 53.1652 35.6023 54.2917 36.7994C54.9166 37.4636 55.6265 37.8257 56.5682 37.9602C58.1531 38.1867 58.223 38.0056 57.3189 36.0155C56.478 34.1648 55.8844 33.8594 56.0608 35.369ZM62.1217 35.2042C62.1217 35.7323 63.8 37.8263 64.2234 37.8263C64.5898 37.8263 63.9246 36.0078 63.311 35.3323C62.5119 34.4525 62.1217 34.4103 62.1217 35.2042ZM16.9284 35.7471C16.6177 36.5561 16.7091 36.765 17.0887 36.1127C17.2767 35.7896 17.3627 35.4575 17.2796 35.3748C17.1969 35.2918 17.0385 35.4594 16.9284 35.7471ZM4.02897 40.7663C2.69226 43.4856 1.60085 45.8554 1.60375 46.0324C1.60665 46.2094 2.74795 44.0372 4.14037 41.2053C5.53278 38.3734 6.62416 36.0036 6.56557 35.9392C6.50729 35.8752 5.36569 38.0474 4.02897 40.7663ZM14.374 37.771C13.7031 39.0035 13.6278 39.3282 14.0138 39.3282C14.2881 39.3282 14.4294 39.1403 14.3367 38.8989C14.2462 38.663 14.2807 38.4699 14.4133 38.4699C14.667 38.4699 15.5034 36.4953 15.3251 36.3174C15.2684 36.2604 14.8402 36.9146 14.374 37.771ZM58.3582 37.3507C58.4593 37.9743 58.4158 38.4062 58.2616 38.311C58.1071 38.2157 57.8901 38.2849 57.7787 38.4648C57.6676 38.6447 57.2314 38.7917 56.8096 38.7917C56.3879 38.7917 55.9558 38.9324 55.8496 39.1042C55.6728 39.3897 55.9619 39.4939 58.1911 39.9477C58.5967 40.0304 58.8495 40.2257 58.7529 40.3821C58.6563 40.5382 58.8314 40.6254 59.1421 40.5755C59.5848 40.5047 59.6904 40.2144 59.6295 39.2362C59.5378 37.7636 58.9589 36.2173 58.4992 36.2173C58.307 36.2173 58.2494 36.681 58.3582 37.3507ZM68.5252 37.7459L68.6823 38.9526L68.8861 37.9872C69.0979 36.9825 69.0123 36.5391 68.6063 36.5391C68.4753 36.5391 68.4386 37.0823 68.5252 37.7459ZM73.3901 36.7C73.3492 36.877 73.3392 37.2625 73.3682 37.5563C73.3969 37.8505 73.2687 38.1848 73.0833 38.2994C72.5244 38.6447 72.6702 40.9465 73.2652 41.1747C73.5946 41.3012 73.7236 41.6079 73.6174 42.0133C73.5257 42.3651 73.5817 42.7339 73.742 42.833C73.9023 42.9321 74.0337 43.2069 74.0337 43.4438C74.0337 43.9371 75.6486 45.8715 76.06 45.8715C76.2104 45.8715 76.1057 45.644 75.8272 45.3659C75.1827 44.7213 75.1808 44.2624 75.8234 44.2624C76.1247 44.2624 76.2322 44.413 76.0922 44.6393C75.9641 44.8465 76.241 44.7377 76.7071 44.3979C77.7766 43.6179 77.7808 43.4183 76.7322 43.1554C75.5732 42.8645 76.0146 42.5508 77.6276 42.5189C79.3835 42.4845 79.7411 41.6899 78.0042 41.6832C77.089 41.6793 76.8948 41.5976 77.2531 41.3662C77.5187 41.1947 78.0368 41.0521 78.4044 41.0492C78.7718 41.0466 79.4128 40.6823 79.8287 40.2399L80.585 39.4353H79.7672C79.3175 39.4353 78.568 39.7356 78.1015 40.1025L77.2531 40.7692V39.8917C77.2531 39.0341 77.2383 39.0273 76.6093 39.5962C76.2551 39.9164 75.9676 40.4098 75.9702 40.692C75.9747 41.1409 76.0143 41.1448 76.2873 40.7226C76.5584 40.3033 76.5999 40.3094 76.6044 40.7673C76.607 41.0576 76.3108 41.6368 75.946 42.0545L75.2832 42.8143L75.4416 41.2053C75.5285 40.3203 75.5327 39.8176 75.4509 40.0883C75.3688 40.3586 75.0314 40.7486 74.7011 40.9549C74.2111 41.2609 73.9963 41.2146 73.5331 40.7029C73.0344 40.152 73.0147 39.9274 73.3727 38.8439C73.5965 38.1658 73.7085 37.3339 73.6219 36.9948C73.5353 36.6556 73.431 36.523 73.3901 36.7ZM74.1106 37.8122C73.9297 38.5253 73.8994 39.0357 74.0437 38.9465C74.356 38.7534 74.8041 36.8799 74.5894 36.6656C74.507 36.5832 74.2916 37.0993 74.1106 37.8122ZM66.2658 37.4241C65.8656 37.9344 65.8769 37.9457 66.3875 37.5457C66.9239 37.1251 67.0942 36.8609 66.8292 36.8609C66.7626 36.8609 66.5089 37.1145 66.2658 37.4241ZM76.2966 37.8138C76.0362 37.9785 75.9213 38.2112 76.0414 38.3312C76.3359 38.6257 77.2531 38.2511 77.2531 37.8363C77.2531 37.4276 76.9199 37.4199 76.2966 37.8138ZM66.4628 38.1565C66.3527 38.3348 66.1277 38.3972 65.9629 38.2952C65.798 38.1935 65.6609 38.2997 65.6583 38.5314C65.6547 38.8374 65.5678 38.8207 65.3412 38.4699C65.1 38.0973 65.0279 38.2003 65.0241 38.9221C65.0196 39.7897 65.0598 39.8205 65.5826 39.3536C65.8923 39.0769 66.4574 38.8011 66.8382 38.7406C67.409 38.6501 67.4544 38.561 67.0967 38.2318C66.8179 37.9753 66.5916 37.9483 66.4628 38.1565ZM61.8033 38.7917C61.7734 39.2342 61.6787 39.4234 61.5924 39.212C61.5065 39.0009 61.2161 38.9124 60.9473 39.0154C60.5509 39.1676 60.5394 39.2535 60.8874 39.4685C61.1237 39.6143 61.3175 39.8476 61.3182 39.9869C61.3188 40.1259 61.717 40.9173 62.2035 41.7453C63.3084 43.6269 63.3084 43.9297 62.2022 43.9844C61.3986 44.0243 61.3867 44.0417 62.0718 44.1717C62.6388 44.2795 62.7856 44.4739 62.6607 44.9508C62.5367 45.4251 62.5943 45.5033 62.8883 45.2597C63.1049 45.0802 63.6274 45.0232 64.0495 45.1336L64.8167 45.3341L64.1133 44.3464C63.7263 43.8032 63.4095 43.2446 63.4095 43.1052C63.4095 42.9662 63.6046 43.1191 63.8432 43.445C64.1232 43.828 64.3534 43.9146 64.4925 43.6899C64.611 43.4982 64.5605 43.2507 64.3805 43.1393C64.2005 43.0283 64.0534 42.5199 64.0534 42.0098C64.0534 41.4997 63.8841 40.9778 63.6767 40.8497C63.4211 40.6917 63.3683 40.7947 63.5122 41.1692C63.6381 41.4972 63.5949 41.6417 63.406 41.5248C63.2308 41.4167 63.0876 41.0473 63.0876 40.7036C63.0876 40.3599 62.9469 40.079 62.7749 40.079C62.6027 40.079 62.3262 39.6085 62.16 39.0331C61.8864 38.086 61.8526 38.0632 61.8033 38.7917ZM22.2514 39.4353C22.2514 39.8778 22.3245 40.059 22.4136 39.8376C22.5031 39.6165 22.5031 39.2545 22.4136 39.0331C22.3245 38.812 22.2514 38.9929 22.2514 39.4353ZM58.4193 39.4353C58.3099 39.6123 58.4548 39.7572 58.7413 39.7572C59.0278 39.7572 59.1727 39.6123 59.0632 39.4353C58.9538 39.2584 58.8089 39.1135 58.7413 39.1135C58.6737 39.1135 58.5288 39.2584 58.4193 39.4353ZM12.8641 40.4008C12.6745 40.7548 12.5921 41.0444 12.6806 41.0444C12.7691 41.0444 12.9964 40.7548 13.1861 40.4008C13.3757 40.0468 13.4581 39.7572 13.3696 39.7572C13.281 39.7572 13.0537 40.0468 12.8641 40.4008ZM60.3378 40.1005C60.221 40.2891 60.1946 40.5127 60.2789 40.5971C60.3633 40.6814 60.5181 40.5269 60.6231 40.2537C60.8407 39.6867 60.6553 39.5869 60.3378 40.1005ZM64.0534 40.2399C64.0534 40.5054 64.1104 40.7226 64.1799 40.7226C64.2495 40.7226 64.3898 40.5054 64.4919 40.2399C64.5936 39.9744 64.5366 39.7572 64.3654 39.7572C64.1938 39.7572 64.0534 39.9744 64.0534 40.2399ZM21.9414 41.2053C21.9478 41.7363 22.0199 41.9145 22.1017 41.6014C22.1835 41.2883 22.178 40.8539 22.0898 40.636C22.0016 40.4181 21.9349 40.6743 21.9414 41.2053ZM70.7035 41.2198C70.8014 41.4753 71.0113 41.6043 71.17 41.5062C71.5692 41.2597 71.5325 41.1419 70.9916 40.9343C70.6803 40.8149 70.5844 40.9099 70.7035 41.2198ZM56.3267 41.5271C56.3267 41.7926 56.544 42.0098 56.8096 42.0098C57.542 42.0098 57.3869 42.5536 56.5959 42.7606C56.007 42.9144 55.9632 43.0203 56.3132 43.4415C56.8618 44.1022 57.2913 44.0742 57.2974 43.3775C57.3012 42.9389 57.3637 42.9109 57.5791 43.251C57.7539 43.5265 57.931 43.5664 58.0591 43.3588C58.1708 43.1779 58.0803 42.9643 57.8579 42.8838C57.534 42.7667 57.5337 42.6019 57.8559 42.0561C58.4171 41.1062 58.3826 41.0444 57.2925 41.0444C56.6487 41.0444 56.3267 41.2053 56.3267 41.5271ZM74.3894 41.4862C74.0021 41.9525 74.2236 42.9752 74.712 42.9752C74.8701 42.9752 74.9995 42.5408 74.9995 42.0098C74.9995 40.9256 74.9152 40.8532 74.3894 41.4862ZM56.9104 41.586C57.1425 41.679 57.4204 41.6674 57.5272 41.5606C57.6341 41.4537 57.4442 41.3778 57.1048 41.3916C56.7298 41.4071 56.6535 41.4833 56.9104 41.586ZM70.8142 42.8143C70.8142 43.2568 70.9591 43.6188 71.1362 43.6188C71.3133 43.6188 71.4581 43.8602 71.4581 44.1553C71.4581 44.4501 71.5261 44.6235 71.6091 44.5405C71.8596 44.2901 71.3954 42.0098 71.094 42.0098C70.9401 42.0098 70.8142 42.3718 70.8142 42.8143ZM3.99741 42.675C3.88055 42.8635 3.85415 43.0872 3.9385 43.1715C4.02285 43.2558 4.1777 43.1014 4.28265 42.8281C4.50029 42.2611 4.31485 42.1614 3.99741 42.675ZM21.6075 42.9752C21.6075 43.4177 21.6806 43.5989 21.7698 43.3775C21.8593 43.1564 21.8593 42.7944 21.7698 42.573C21.6806 42.3519 21.6075 42.5327 21.6075 42.9752ZM45.9111 49.8136C45.5979 53.9289 45.2061 58.4428 45.0409 59.8453C44.8758 61.2477 44.7834 62.4377 44.8355 62.4899C44.8877 62.542 45.4662 62.42 46.1214 62.2192L47.3122 61.8537V59.3738C47.3122 56.6829 47.742 55.117 49.2771 52.2127C50.4097 50.0704 50.6177 47.5861 49.7961 46.0166C49.2249 44.9263 47.0528 42.3316 46.7109 42.3316C46.5847 42.3316 46.2247 45.6983 45.9111 49.8136ZM11.114 43.5245C10.9395 43.9831 10.9762 44.0201 11.2943 43.7048C11.5145 43.4862 11.6134 43.2265 11.5142 43.1278C11.415 43.0286 11.2351 43.2072 11.114 43.5245ZM28.5048 44.6821C28.7473 47.1249 29.7701 50.7732 30.7784 52.79C32.0878 55.4101 32.1934 55.1405 31.0105 52.1959C30.4034 50.6841 29.6168 48.0997 29.2624 46.4527C28.4636 42.7374 28.266 42.2759 28.5048 44.6821ZM54.5286 43.7859C54.7192 44.544 54.6697 44.6341 54.17 44.4365C53.0976 44.013 51.4975 43.8528 51.4975 44.1688C51.4975 44.6763 53.0358 45.2269 54.4907 45.2404L55.8438 45.253L54.7975 45.7077C53.7672 46.1553 53.2653 47.0921 54.2605 46.7104C54.5405 46.6029 54.9388 46.5106 55.1458 46.5048C55.3525 46.4993 55.7855 46.2946 56.1081 46.0504C56.6541 45.6369 56.6593 45.5384 56.1854 44.6219C55.9053 44.0806 55.3683 43.4734 54.9919 43.2719C54.3551 42.9311 54.3232 42.9665 54.5286 43.7859ZM3.25791 44.4372C2.71865 45.6205 2.82167 45.8731 3.40471 44.7973C3.67708 44.2946 3.83967 43.8235 3.76627 43.7498C3.69255 43.6764 3.46395 43.9857 3.25791 44.4372ZM55.0389 44.0623C55.0389 44.1289 55.2926 44.3825 55.6023 44.6254C56.1129 45.0254 56.1242 45.0142 55.724 44.5038C55.3032 43.9677 55.0389 43.7974 55.0389 44.0623ZM65.6631 44.2814C65.6631 44.4687 65.808 44.5328 65.9851 44.4233C66.1621 44.3139 66.307 44.1608 66.307 44.0826C66.307 44.0044 66.1621 43.9406 65.9851 43.9406C65.808 43.9406 65.6631 44.0941 65.6631 44.2814ZM70.1703 44.2624C69.8803 44.4497 69.8403 44.5762 70.0709 44.5794C70.2817 44.582 70.5438 44.4394 70.6533 44.2624C70.9002 43.8628 70.7888 43.8628 70.1703 44.2624ZM81.4037 44.8279C80.8029 45.0924 79.9926 45.3312 79.6027 45.3588C78.9308 45.4061 77.1147 46.806 77.3806 47.0715C77.4492 47.1404 78.0645 46.9453 78.7476 46.6383C79.4308 46.3313 80.5692 46.0964 81.2775 46.1164C82.4957 46.1508 82.5131 46.1386 81.5994 45.8892L80.6336 45.6259L81.6184 45.5876C82.1599 45.5667 82.8695 45.355 83.1953 45.1168C83.7651 44.7004 83.7632 44.6779 83.1415 44.5154C82.7861 44.4224 82.0041 44.563 81.4037 44.8279ZM6.40943 45.9027C6.03919 46.6277 5.79162 47.2762 5.85923 47.3437C5.92652 47.4113 6.29706 46.8179 6.68211 46.0253C7.55973 44.2203 7.32246 44.1134 6.40943 45.9027ZM56.996 45.2691C56.9822 45.5571 57.2243 45.9915 57.534 46.2345C58.0237 46.6181 58.0504 46.6126 57.7381 46.1933C57.5408 45.9278 57.2987 45.4934 57.2001 45.2279C57.0508 44.824 57.0173 44.8307 56.996 45.2691ZM65.1802 46.8369C64.9056 47.3679 64.8061 47.8023 64.9594 47.8023C65.1126 47.8023 65.4114 48.183 65.6235 48.6483C65.8357 49.1137 66.0878 49.4159 66.1837 49.32C66.28 49.2241 66.109 48.7648 65.8041 48.2998C65.3579 47.6189 65.3202 47.3 65.6106 46.6628C66.1225 45.54 65.7793 45.6787 65.1802 46.8369ZM0.998494 47.4001C0.647252 48.2207 0.655309 48.2396 1.10796 47.6604C1.37647 47.3167 1.59603 46.9186 1.59603 46.7754C1.59603 46.2863 1.37775 46.5148 0.998494 47.4001ZM2.09956 47.0644C1.92507 47.523 1.96177 47.56 2.27985 47.2446C2.50006 47.0261 2.59889 46.7664 2.49973 46.6676C2.40057 46.5685 2.22061 46.7471 2.09956 47.0644ZM10.9846 47.9771C10.4453 49.1603 10.5484 49.4129 11.1314 48.3372C11.4038 47.8345 11.5664 47.3634 11.493 47.2897C11.4192 47.2163 11.1906 47.5256 10.9846 47.9771ZM55.6828 47.7997C55.6828 48.4852 55.9211 48.5914 56.5553 48.1885C56.8364 48.0099 56.7691 47.8313 56.3138 47.5471C55.7659 47.205 55.6828 47.2382 55.6828 47.7997ZM5.13743 48.4459C4.9478 48.7999 4.86538 49.0895 4.95392 49.0895C5.04245 49.0895 5.26975 48.7999 5.45937 48.4459C5.649 48.0919 5.73142 47.8023 5.64288 47.8023C5.55435 47.8023 5.32705 48.0919 5.13743 48.4459ZM20.9646 48.285C20.8983 49.2376 21.5785 51.2427 23.9129 56.9738C26.4099 63.1039 27.8877 66.2988 28.4366 66.7541C28.7157 66.9858 29.2128 66.9733 30.0589 66.7139C31.2105 66.3606 31.2688 66.2798 31.1042 65.2658C30.8277 63.5615 29.5641 61.0817 26.4451 56.1197C24.8485 53.58 23.14 50.706 22.6483 49.7328C21.8193 48.0913 21.7392 48.0215 21.5418 48.7677C21.3309 49.5648 21.3274 49.5632 21.169 48.6068C21.0795 48.0662 20.9897 47.9246 20.9646 48.285ZM0.187206 49.263C-0.123472 50.072 -0.0320437 50.2809 0.34753 49.6286C0.535546 49.3055 0.621511 48.9734 0.538449 48.8907C0.455709 48.8076 0.297311 48.9753 0.187206 49.263ZM14.9967 49.263C14.686 50.072 14.7774 50.2809 15.157 49.6286C15.345 49.3055 15.431 48.9734 15.3479 48.8907C15.2652 48.8076 15.1068 48.9753 14.9967 49.263ZM10.0188 50.2297C9.4795 51.413 9.58252 51.6656 10.1656 50.5898C10.4379 50.0871 10.6005 49.616 10.5271 49.5423C10.4534 49.469 10.2248 49.7782 10.0188 50.2297ZM52.5825 50.5184C50.909 51.2463 50.8398 51.7998 52.4543 51.5417C54.3162 51.2444 55.2801 50.7269 54.68 50.3472C54.0885 49.9726 53.7792 49.998 52.5825 50.5184ZM70.8142 50.3768C70.8142 50.5538 70.9591 50.6986 71.1362 50.6986C71.3133 50.6986 71.4581 50.5538 71.4581 50.3768C71.4581 50.1998 71.3133 50.055 71.1362 50.055C70.9591 50.055 70.8142 50.1998 70.8142 50.3768ZM68.2387 51.0014C68.2387 51.1681 68.382 51.3927 68.5571 51.5008C68.7393 51.6135 68.7934 51.4844 68.6836 51.198C68.4695 50.6406 68.2387 50.5386 68.2387 51.0014ZM57.5128 51.5835C57.4361 51.7164 57.4635 52.0717 57.5742 52.3733C57.7455 52.8405 57.8305 52.8048 58.1476 52.1319C58.4451 51.5002 58.4329 51.3422 58.0861 51.3422C57.8476 51.3422 57.5897 51.4506 57.5128 51.5835ZM9.05292 52.4823C8.51366 53.6656 8.61668 53.9182 9.19972 52.8424C9.47209 52.3398 9.63469 51.8687 9.56128 51.795C9.48756 51.7216 9.25896 52.0308 9.05292 52.4823ZM20.4437 56.5651C20.1224 59.0906 19.7817 62.0262 19.6871 63.0881C19.547 64.6605 19.4662 64.8696 19.2525 64.2144C19.0484 63.5895 19.0274 63.6616 19.1581 64.5362C19.3983 66.1446 18.5844 72.9109 18.2715 71.9066C18.1273 71.4435 18.0973 71.727 18.1965 72.6129C18.2873 73.4265 18.2065 74.7851 18.0165 75.6321C17.8269 76.4791 17.719 77.2196 17.777 77.2775C17.8349 77.3358 18.5281 76.9467 19.3172 76.4132C20.1063 75.8796 21.452 75.0803 22.308 74.6368C23.5208 74.0083 23.8128 73.7103 23.6309 73.2865C23.1638 72.1991 23.1013 70.9556 23.4899 70.4877C24.0659 69.7939 27.802 68.7197 29.6391 68.7197C31.0791 68.7197 31.215 68.6544 31.215 67.9625C31.215 67.251 31.1206 67.2143 29.6584 67.3546C28.1642 67.4982 28.0751 67.4595 27.4498 66.4002C26.86 65.4009 22.9243 56.3521 21.8799 53.5948C21.6455 52.9754 21.3577 52.3568 21.2408 52.2207C21.1239 52.0843 20.7653 54.0392 20.4437 56.5651ZM63.329 52.1988C63.5505 52.2883 63.9127 52.2883 64.1339 52.1988C64.3554 52.1097 64.1741 52.0366 63.7314 52.0366C63.2888 52.0366 63.1078 52.1097 63.329 52.1988ZM68.2387 52.6294C68.4283 52.9834 68.6556 53.273 68.7441 53.273C68.8327 53.273 68.7503 52.9834 68.5606 52.6294C68.371 52.2754 68.1437 51.9858 68.0552 51.9858C67.9666 51.9858 68.049 52.2754 68.2387 52.6294ZM82.2971 52.5222C81.9049 52.9142 82.0752 53.5948 82.5652 53.5948C82.8308 53.5948 83.0482 53.4413 83.0482 53.254C83.0482 53.0667 83.2294 53.022 83.4506 53.1549C83.7239 53.319 83.7114 53.2222 83.4113 52.8521C82.9377 52.2687 82.639 52.1802 82.2971 52.5222ZM60.673 53.5948C60.4376 53.9755 60.7528 53.9755 61.6388 53.5948C62.2595 53.3281 62.2573 53.3174 61.5773 53.2956C61.1894 53.2833 60.7824 53.4178 60.673 53.5948ZM8.08129 54.8016C7.73005 55.6222 7.7381 55.6412 8.19076 55.0619C8.45926 54.7183 8.67882 54.3202 8.67882 54.177C8.67882 53.6878 8.46054 53.9163 8.08129 54.8016ZM13.065 54.4119C12.7543 55.2209 12.8458 55.4298 13.2253 54.7775C13.4134 54.4544 13.4993 54.1223 13.4163 54.0396C13.3335 53.9565 13.1751 54.1242 13.065 54.4119ZM69.2045 54.0483C69.2045 54.1094 69.4218 54.3398 69.6874 54.5602C69.9659 54.7913 70.1703 54.8225 70.1703 54.6339C70.1703 54.4544 69.953 54.224 69.6874 54.1219C69.4218 54.0203 69.2045 53.9871 69.2045 54.0483ZM84.0745 54.2587C84.1518 54.4907 84.4055 54.7443 84.6379 54.8219C84.8794 54.9023 85.0001 54.7816 84.9196 54.5403C84.842 54.3079 84.5883 54.0544 84.3562 53.9771C84.1148 53.8967 83.994 54.0174 84.0745 54.2587ZM67.6556 55.6866C67.6695 56.0406 67.5735 56.5838 67.4425 56.8933C67.3034 57.2213 67.3437 57.4565 67.5388 57.4565C68.0484 57.4565 68.3192 56.2549 67.9541 55.6126C67.6556 55.0877 67.6321 55.0935 67.6556 55.6866ZM74.6161 56.3276C74.7024 57.0645 75.1789 57.9231 76.0005 58.8216L77.2531 60.1915V59.2857C77.2531 58.1918 76.8063 57.2695 75.7049 56.0888C74.628 54.9348 74.458 54.9722 74.6161 56.3276ZM19.0065 56.0351C19.0219 56.41 19.0983 56.4863 19.201 56.2298C19.294 55.9974 19.2824 55.7197 19.1755 55.6129C19.0686 55.506 18.9927 55.6959 19.0065 56.0351ZM6.65218 57.6264C6.17699 58.5951 5.85666 59.3873 5.94036 59.3873C6.15703 59.3873 7.78093 56.13 7.63637 55.9855C7.57037 55.9196 7.1277 56.6578 6.65218 57.6264ZM12.046 57.1563C11.9292 57.3448 11.9028 57.5685 11.9871 57.6528C12.0715 57.7371 12.2263 57.5827 12.3313 57.3094C12.5489 56.7424 12.3635 56.6427 12.046 57.1563ZM70.3532 58.5828C71.0251 61.482 71.15 62.5069 71.3342 66.628C71.5743 72.0076 71.0522 75.6299 69.4051 80.0139C68.2509 83.0849 68.1582 83.8614 69.2454 81.3506C70.1452 79.2721 71.0222 76.3504 71.4362 74.0508C72.1819 69.9088 71.5666 59.8524 70.4623 58.1349C70.2125 57.7461 70.1852 57.8575 70.3532 58.5828ZM32.1808 62.0834C32.1808 62.1501 32.3981 62.385 32.6637 62.6054C33.0594 62.9337 33.1467 62.9115 33.1467 62.4838C33.1467 62.1967 32.9293 61.9618 32.6637 61.9618C32.3981 61.9618 32.1808 62.0165 32.1808 62.0834ZM70.0734 65.1458C69.8271 69.1896 69.0728 72.1164 66.4661 79.1476C65.3161 82.2485 64.3799 84.9722 64.385 85.2001C64.4024 85.9277 68.8584 73.8091 69.5487 71.1574C70.1539 68.833 70.8113 61.9618 70.4286 61.9618C70.34 61.9618 70.1803 63.3945 70.0734 65.1458ZM45.9794 62.6624C45.0277 62.9156 44.7705 63.1609 44.6089 63.9676C44.4997 64.514 44.4753 65.0257 44.5545 65.1049C44.6337 65.1844 45.4314 65.0614 46.3274 64.832C47.9722 64.4104 48.2372 64.0336 47.7607 62.7927C47.5431 62.226 47.6013 62.2302 45.9794 62.6624ZM66.1225 63.0814C65.5778 63.4933 65.5685 63.5515 66.0465 63.5605C66.346 63.5663 66.6866 63.4164 66.8031 63.2275C67.1537 62.6604 66.7841 62.581 66.1225 63.0814ZM32.8501 64.0803C32.8656 64.4552 32.9419 64.5314 33.0446 64.2749C33.1376 64.0426 33.1261 63.7649 33.0192 63.658C32.9123 63.5512 32.8363 63.7411 32.8501 64.0803ZM65.732 63.9338C65.1503 64.1015 64.7536 64.3673 64.8508 64.524C64.9478 64.6811 64.7717 64.8758 64.4597 64.9572C64.1477 65.0386 64.5444 65.1197 65.3412 65.1377C66.3856 65.1609 66.655 65.083 66.307 64.8581C65.8943 64.5916 65.9059 64.5453 66.3875 64.5411C66.6972 64.5385 66.9509 64.319 66.9509 64.0535C66.9509 63.7881 66.9148 63.584 66.8704 63.5998C66.826 63.6159 66.3138 63.7662 65.732 63.9338ZM48.3792 64.9794C48.5463 65.4141 48.4812 65.4672 48.0662 65.2352C47.5006 64.9186 46.3464 65.0988 46.3464 65.5036C46.3464 65.6401 46.1655 65.7453 45.944 65.7369C44.8523 65.6964 44.4147 65.8695 44.4147 66.3409C44.4147 66.7458 44.6079 66.8095 45.3001 66.6338C45.7872 66.5102 46.6761 66.3622 47.2759 66.3049C48.6551 66.1736 49.41 65.1976 48.5453 64.6634C48.2903 64.5057 48.2366 64.6077 48.3792 64.9794ZM66.3698 66.628C66.3762 67.159 66.4483 67.3372 66.5301 67.0241C66.6119 66.711 66.6064 66.2766 66.5182 66.0587C66.43 65.8409 66.3633 66.097 66.3698 66.628ZM35.4003 68.3754C34.7805 68.4993 33.9473 68.7773 33.5491 68.9933C33.0646 69.2559 32.8247 69.272 32.8247 69.0415C32.8247 68.797 32.6383 68.797 32.1808 69.0415C31.8041 69.243 31.5369 69.7154 31.5369 70.1791C31.5369 71.1799 32.3547 71.2318 32.6312 70.2483C32.8212 69.5738 32.8585 69.5641 33.1788 70.107C33.4332 70.5383 33.7667 70.6428 34.4615 70.5093C34.9779 70.4099 35.8349 70.2448 36.3661 70.1424C37.1761 69.986 37.3319 69.8042 37.3319 69.0161C37.3319 68.0246 37.2653 68.0024 35.4003 68.3754ZM27.8346 69.3955C25.7995 69.8528 23.8814 70.6445 23.7069 71.0992C23.4577 71.7486 24.6801 74.1905 25.2545 74.1905C25.7967 74.1905 27.1759 73.3818 27.9981 72.5814C28.2708 72.3159 29.0338 71.8123 29.6935 71.4625C30.6368 70.9621 30.893 70.6355 30.893 69.9339C30.893 69.1671 30.7684 69.046 30.0077 69.0737C29.5206 69.0917 28.5428 69.2365 27.8346 69.3955ZM50.8536 72.6718C50.8536 72.7426 51.578 74.0051 52.4634 75.4777C53.3487 76.9503 54.0731 78.3006 54.0731 78.4788C54.0731 78.6571 54.1616 78.7144 54.2698 78.6063C54.4881 78.3881 51.6611 73.0422 51.1659 72.7362C50.994 72.6303 50.8536 72.6014 50.8536 72.6718ZM29.406 74.2709C29.2756 74.4923 28.962 75.0352 28.7093 75.4777C28.2679 76.25 28.2711 76.2564 28.7901 75.6386C29.444 74.8598 30.0077 73.8686 29.7965 73.8686C29.7121 73.8686 29.5364 74.0498 29.406 74.2709ZM50.2097 74.5737C50.2097 74.6667 50.9357 76.2474 51.823 78.0869C52.7103 79.9263 53.3416 81.0691 53.2261 80.6266C52.8899 79.3426 50.2097 73.9639 50.2097 74.5737ZM34.8192 76.2822C34.8256 76.8132 34.8977 76.9915 34.9795 76.6783C35.0613 76.3652 35.0558 75.9308 34.9676 75.7129C34.8794 75.4951 34.8127 75.7512 34.8192 76.2822ZM21.8786 78.0447C20.5506 79.2724 19.6272 80.2832 19.8271 80.2906C20.0267 80.2983 20.369 80.0892 20.5879 79.8256C20.8068 79.562 21.0892 79.4105 21.2157 79.4887C21.4137 79.6106 22.3444 78.5992 24.0929 76.3626C24.8743 75.3631 24.3427 75.7667 21.8786 78.0447ZM26.0017 77.0063C25.4345 77.6666 25.0092 78.3739 25.1795 78.3739C25.2452 78.3739 25.6202 77.9395 26.013 77.4085C26.7889 76.3594 26.7818 76.0984 26.0017 77.0063ZM49.2668 76.604C49.2668 76.781 49.4738 77.2878 49.7268 77.7303C49.9799 78.1728 50.1869 78.39 50.1869 78.213C50.1869 78.036 49.9799 77.5292 49.7268 77.0867C49.4738 76.6442 49.2668 76.427 49.2668 76.604ZM15.1686 78.6957C15.1686 79.1382 15.2417 79.3194 15.3309 79.098C15.4204 78.8769 15.4204 78.5149 15.3309 78.2935C15.2417 78.0724 15.1686 78.2533 15.1686 78.6957ZM29.3087 78.8834C29.3242 79.2583 29.4005 79.3345 29.5032 79.078C29.5962 78.8457 29.5847 78.568 29.4778 78.4611C29.3709 78.3543 29.2949 78.5442 29.3087 78.8834ZM43.6453 79.3394C43.7551 79.9588 43.975 80.6829 44.1343 80.9484C44.4769 81.5199 44.1475 79.8517 43.7213 78.8566C43.5355 78.4225 43.5107 78.5796 43.6453 79.3394ZM50.5417 79.8221C50.5417 79.9991 50.682 80.3611 50.8536 80.6266C51.0252 80.8921 51.1656 80.9645 51.1656 80.7875C51.1656 80.6105 51.0252 80.2485 50.8536 79.983C50.682 79.7175 50.5417 79.6451 50.5417 79.8221ZM22.8032 80.8679C22.403 81.3783 22.4143 81.3896 22.9249 80.9896C23.4613 80.569 23.6316 80.3048 23.3666 80.3048C23.3 80.3048 23.0463 80.5584 22.8032 80.8679ZM19.9057 81.8334C19.5055 82.3437 19.5168 82.355 20.0274 81.955C20.5638 81.5344 20.7341 81.2702 20.4691 81.2702C20.4025 81.2702 20.1488 81.5238 19.9057 81.8334ZM21.8786 82.2356C21.6889 82.5896 21.6065 82.8792 21.6951 82.8792C21.7836 82.8792 22.0109 82.5896 22.2005 82.2356C22.3901 81.8816 22.4726 81.592 22.384 81.592C22.2955 81.592 22.0682 81.8816 21.8786 82.2356ZM58.2812 83.3619C58.2812 83.5389 58.4882 84.0458 58.7413 84.4883C58.9943 84.9307 59.2014 85.148 59.2014 84.971C59.2014 84.794 58.9943 84.2871 58.7413 83.8446C58.4882 83.4022 58.2812 83.1849 58.2812 83.3619ZM57.3025 86.2582C57.3025 86.4352 57.4429 86.7972 57.6145 87.0627C57.7861 87.3282 57.9264 87.4006 57.9264 87.2236C57.9264 87.0466 57.7861 86.6846 57.6145 86.4191C57.4429 86.1536 57.3025 86.0812 57.3025 86.2582Z" fill="#1D6235"/>
</svg>
