<svg width="28" height="19" viewBox="0 0 28 19" fill="none" xmlns="http://www.w3.org/2000/svg">
<path fill-rule="evenodd" clip-rule="evenodd" d="M7.77581 0.286319C7.68931 0.437715 7.49522 0.632703 7.34451 0.71959C7.02741 0.902415 6.9658 1.35943 7.22867 1.57854C7.4525 1.76516 8.50415 1.75572 8.62183 1.56609C8.78649 1.30046 8.83792 0.627351 8.71181 0.386925C8.46415 -0.0849741 8.01552 -0.133234 7.77581 0.286319ZM9.49178 0.164986C9.49178 0.336816 9.70031 0.306943 9.76017 0.126551C9.78128 0.0629176 9.72947 0.0109612 9.6451 0.0109612C9.56074 0.0109612 9.49178 0.0802387 9.49178 0.164986ZM7.99915 0.643404C7.96167 0.79373 7.86966 0.886651 7.75837 0.886651C7.65939 0.886651 7.52263 0.954175 7.45444 1.03668C7.26712 1.26349 7.46335 1.39037 7.94675 1.35505C8.31935 1.32781 8.3735 1.29258 8.44265 1.0326C8.48527 0.872056 8.49611 0.664031 8.46677 0.570429C8.38541 0.311225 8.06985 0.360459 7.99915 0.643404ZM10.8348 1.97085C10.5804 2.24446 10.538 2.25992 10.4327 2.11816C10.368 2.03088 10.1752 1.93193 10.0041 1.89817C9.74331 1.84679 9.64578 1.88455 9.3988 2.13266C9.06155 2.47146 9.04092 2.62022 9.26514 3.09485C9.57159 3.74364 10.9446 4.69746 10.9446 4.26166C10.9446 4.19141 11.0792 4.00527 11.2438 3.84814C11.6706 3.44055 12.0276 2.78943 12.0387 2.39858C12.0593 1.66747 11.3509 1.41586 10.8348 1.97085ZM11.0415 2.29748C10.9751 2.37775 10.8427 2.44343 10.7471 2.44343C10.6515 2.44343 10.5556 2.49675 10.534 2.56194C10.5085 2.63881 10.4299 2.60456 10.3107 2.46464C10.109 2.22801 9.78971 2.18306 9.60801 2.36559C9.37023 2.60446 9.49178 2.90492 10.0487 3.45534L10.6056 4.00576L10.8753 3.68681C11.2332 3.26317 11.6241 2.46347 11.558 2.29018C11.4885 2.10853 11.1941 2.11271 11.0415 2.29748ZM7.77261 2.89704C7.60524 2.96495 7.62035 3.28624 7.79401 3.35327C7.87237 3.38344 8.00128 3.34306 8.08051 3.26357C8.33466 3.00816 8.12225 2.75537 7.77261 2.89704ZM12.4943 3.74986C12.4943 3.84006 12.5771 3.90291 12.696 3.90291C12.9321 3.90291 12.8988 3.67553 12.6557 3.62824C12.5601 3.60956 12.4943 3.65918 12.4943 3.74986ZM22.7073 4.20327C22.6075 4.36557 22.8319 4.5516 22.9656 4.41733C23.0773 4.30505 23.0074 4.09751 22.8578 4.09751C22.8108 4.09751 22.7431 4.14509 22.7073 4.20327ZM13.3176 4.77413C11.2862 4.83971 11.2775 4.84457 10.3447 6.45321L9.90962 7.20348L9.46563 6.68692C9.22146 6.40281 8.87685 6.11111 8.6998 6.03882C8.52285 5.96653 8.32497 5.8342 8.26027 5.74488C8.03256 5.43061 7.48379 5.2543 6.73336 5.2543C5.9712 5.2543 5.71928 5.33749 5.32702 5.7189C5.19385 5.8484 4.96459 6.05108 4.81756 6.1692C4.35508 6.54088 4.31227 7.05053 4.31324 12.1733C4.31402 16.954 4.40477 18.4855 4.70521 18.7896C4.81466 18.9005 5.0873 18.9355 5.8388 18.935C7.51197 18.934 9.4267 18.7787 9.59697 18.6304C9.79513 18.4575 10.8282 18.324 12.5983 18.2421C13.8252 18.1855 14.0849 18.2007 14.5838 18.3585C14.9818 18.4843 15.425 18.5369 16.0295 18.5301C25.6306 18.422 25.5471 18.4262 25.7222 18.0345C26.064 17.2701 25.6697 8.2189 25.2737 7.7396C25.211 7.66371 24.998 7.55795 24.8003 7.50443C24.5475 7.43603 24.3713 7.29874 24.2063 7.04158C23.723 6.28858 22.671 6.10994 22.0784 6.68031C21.9211 6.8317 21.7924 7.01307 21.7924 7.08332C21.7924 7.15357 21.6942 7.20854 21.5744 7.20533C21.4131 7.20115 21.2434 7.02193 20.9207 6.5152C20.4051 5.70547 19.676 4.91356 19.3212 4.77812C19.0613 4.67887 16.3238 4.67702 13.3176 4.77413ZM11.7418 5.29701C11.4236 5.47497 10.3635 6.89748 10.3635 7.14666C10.3635 7.18208 11.0308 7.21107 11.8465 7.21107C13.1091 7.21107 13.3866 7.18344 13.7133 7.02484C15.1938 6.30629 17.1187 6.32361 18.7436 7.07028C19.2529 7.30428 19.8425 7.36257 20.3166 7.22567C20.5347 7.16272 20.5341 7.16009 20.1907 6.6483C20.0009 6.36545 19.6591 5.9386 19.4312 5.69963L19.0168 5.2651H15.6181C13.7489 5.2651 12.1615 5.24466 12.0906 5.21956C12.0196 5.19455 11.8627 5.22939 11.7418 5.29701ZM5.98079 5.62404C5.57158 5.73145 5.88771 5.80151 6.85307 5.81717C7.80621 5.83274 7.86927 5.82281 7.60311 5.69993C7.32843 5.57315 6.34932 5.52732 5.98079 5.62404ZM25.8603 5.70294C25.8603 5.78321 25.9256 5.84889 26.0055 5.84889C26.0855 5.84889 26.1508 5.78321 26.1508 5.70294C26.1508 5.62267 26.0855 5.55699 26.0055 5.55699C25.9256 5.55699 25.8603 5.62267 25.8603 5.70294ZM25.0128 6.16511C25.0738 6.3492 25.376 6.37537 25.376 6.19654C25.376 6.10634 25.2932 6.04349 25.1742 6.04349C25.0559 6.04349 24.9891 6.09379 25.0128 6.16511ZM5.36577 6.47433C5.20053 6.54652 5.032 6.68712 4.99113 6.78675C4.76884 7.32793 4.86386 17.2275 5.0996 18.0966L5.16237 18.3279L7.15758 18.2573C8.25495 18.2185 9.17458 18.1657 9.20122 18.1398C9.22785 18.114 9.2634 17.3301 9.28006 16.3979C9.3036 15.0926 9.33933 14.7031 9.4358 14.7031C9.57237 14.7031 9.63212 15.1244 9.74457 16.8795L9.81237 17.9369L10.7901 17.8745C11.3279 17.8403 12.0381 17.7865 12.3683 17.755L12.9688 17.6977L12.5074 17.3313C11.0139 16.1454 10.1747 14.4134 10.1712 12.51C10.1683 10.9333 10.8093 9.39271 11.9332 8.27475L12.6192 7.59239L11.2152 7.65904L9.81111 7.72569L9.2326 7.11504C8.72721 6.58145 8.59394 6.49437 8.17708 6.42568C7.39991 6.29753 5.70292 6.32692 5.36577 6.47433ZM22.6156 6.71816C22.5091 6.76263 22.3389 6.89164 22.2374 7.005L22.0529 7.21107L22.6248 7.21214C22.9394 7.21273 23.3661 7.24133 23.5729 7.27568C23.8639 7.32394 23.9393 7.30847 23.9058 7.20748C23.7906 6.86012 22.997 6.55917 22.6156 6.71816ZM27.1153 6.97269C27.0125 7.09733 27.0188 7.15172 27.1519 7.28541C27.3012 7.43535 27.3248 7.43554 27.4716 7.28813C27.6476 7.11124 27.5885 6.82188 27.3764 6.82188C27.3014 6.82188 27.1839 6.88979 27.1153 6.97269ZM15.2547 7.0731C15.1481 7.09898 14.8648 7.16875 14.6251 7.2282C13.2822 7.56126 11.8603 8.72845 11.2086 10.0327C10.1169 12.2175 10.504 14.5635 12.2456 16.3166C13.316 17.3942 14.5414 17.9105 16.0334 17.9128C17.5654 17.915 18.8231 17.394 19.9049 16.3087C21.0413 15.1687 21.5716 13.7668 21.4693 12.1733C21.2873 9.33939 19.1041 7.18704 16.2855 7.06289C15.825 7.04265 15.3612 7.04722 15.2547 7.0731ZM20.2427 7.68784L19.8068 7.74622L20.1204 7.97088C20.2928 8.09435 20.6313 8.45329 20.8726 8.76834C23.0844 11.656 22.412 15.64 19.3722 17.6583L18.8409 18.0112H21.7725C24.4747 18.0112 24.7092 17.9979 24.7703 17.841C24.8877 17.5387 24.8456 12.1781 24.7167 11.0196C24.5829 9.8179 24.2172 8.79597 23.8353 8.55633C23.5819 8.39734 23.5718 8.18406 23.8177 8.18406C24.2767 8.18406 24.8229 9.31516 25.012 10.6573C25.0762 11.1124 25.1251 12.8063 25.1283 14.6788C25.1324 17.0373 25.1639 17.9139 25.2446 17.9139C25.4451 17.9139 25.4728 17.6273 25.4728 15.5496C25.4728 13.2802 25.3246 10.2682 25.1461 8.9138C25.0424 8.12675 25.0058 8.02615 24.7848 7.91951C24.2441 7.65875 21.5039 7.51903 20.2427 7.68784ZM26.1885 7.89547C25.9087 8.00182 25.8462 8.21792 26.0222 8.47032C26.1234 8.61549 26.25 8.67231 26.4266 8.65178C26.6369 8.62736 26.689 8.56567 26.7134 8.31211C26.7479 7.95356 26.5174 7.77064 26.1885 7.89547ZM15.3999 8.05758C14.502 8.21209 13.3807 8.84063 12.7799 9.5263C10.4597 12.1742 11.9758 16.2665 15.4874 16.8346C18.0614 17.251 20.5332 15.0955 20.5332 12.4345C20.5332 9.80662 17.9645 7.61642 15.3999 8.05758ZM9.29807 10.6165C9.29807 12.5967 9.32248 13.049 9.42912 13.049C9.58341 13.049 9.68549 12.0802 9.68549 10.6165C9.68549 9.15286 9.58341 8.18406 9.42912 8.18406C9.32248 8.18406 9.29807 8.6364 9.29807 10.6165ZM26.2477 8.28136C26.2477 8.33488 26.2913 8.37866 26.3445 8.37866C26.3978 8.37866 26.4414 8.33488 26.4414 8.28136C26.4414 8.22785 26.3978 8.18406 26.3445 8.18406C26.2913 8.18406 26.2477 8.22785 26.2477 8.28136ZM15.5136 8.67571C14.284 8.849 12.9208 9.93155 12.496 11.0719C12.0748 12.203 12.1692 13.5937 12.7329 14.56C13.0576 15.1164 13.7598 15.7751 14.3588 16.085C16.3144 17.0965 18.7218 16.2541 19.6976 14.2166C19.9778 13.6317 20.0005 13.5073 20.0005 12.5625C20.0005 11.6202 19.9772 11.4918 19.6997 10.9084C18.9436 9.31924 17.2722 8.4277 15.5136 8.67571ZM14.8811 9.79484C13.9408 10.1412 13.3665 10.7959 13.1704 11.7446C13.0464 12.3448 13.1792 13.2421 13.4221 13.4446C13.6409 13.6271 13.6848 13.4957 13.5763 12.9827C13.3028 11.6904 14.0474 10.56 15.3145 10.3437C15.6612 10.2845 15.7449 10.2292 15.7716 10.0414C15.8282 9.64335 15.5224 9.5587 14.8811 9.79484ZM26.4625 10.2423C26.5128 10.3939 26.7294 10.4204 26.7371 10.276C26.7399 10.2225 26.6695 10.1636 26.5807 10.145C26.4797 10.1241 26.4354 10.1605 26.4625 10.2423ZM15.7389 10.8313C14.6626 11.2092 14.14 12.4439 14.6135 13.4908C15.2526 14.9044 17.2516 14.9766 18.014 13.6137C18.2882 13.1236 18.3212 12.2817 18.0841 11.8228C17.6447 10.9729 16.597 10.5299 15.7389 10.8313ZM16.0228 11.101C15.2177 11.284 14.719 11.9073 14.726 12.7217C14.7383 14.1576 16.3486 14.9235 17.4019 13.9944C18.032 13.4388 18.1719 12.7549 17.8096 12.003C17.4818 11.3228 16.7257 10.9411 16.0228 11.101ZM26.7752 12.8629C26.6921 12.998 26.8763 13.1884 27.0098 13.1055C27.1211 13.0364 27.0498 12.7571 26.921 12.7571C26.8766 12.7571 26.811 12.8047 26.7752 12.8629ZM2.52201 14.1634C2.35755 14.3624 2.36239 14.7998 2.53033 14.9096C2.74012 15.0468 3.1136 14.9649 3.25423 14.7509C3.53859 14.3177 2.85063 13.7656 2.52201 14.1634ZM2.71194 14.5652C2.71194 14.65 2.76366 14.702 2.827 14.6808C3.00657 14.6207 3.03631 14.4112 2.86526 14.4112C2.7809 14.4112 2.71194 14.4805 2.71194 14.5652ZM1.02376 15.0813C0.994604 15.1287 1.0317 15.2184 1.10628 15.2805C1.25727 15.4065 1.41185 15.2618 1.30754 15.0923C1.23345 14.9718 1.09446 14.9664 1.02376 15.0813ZM2.95146 16.0695C2.87553 16.1929 3.07573 16.4545 3.24609 16.4545C3.38896 16.4545 3.47699 16.2653 3.41597 16.0896C3.36484 15.9422 3.03844 15.9282 2.95146 16.0695ZM0 16.8923C0 16.9726 0.0653771 17.0383 0.145282 17.0383C0.225188 17.0383 0.290565 16.9726 0.290565 16.8923C0.290565 16.812 0.225188 16.7464 0.145282 16.7464C0.0653771 16.7464 0 16.812 0 16.8923ZM1.97487 16.8851C1.88674 17.1158 2.01139 17.3487 2.20316 17.3117C2.31038 17.2909 2.37295 17.1901 2.37295 17.0383C2.37295 16.7609 2.06727 16.6433 1.97487 16.8851Z" fill="#1D6235"/>
</svg>
