<svg width="67" height="67" viewBox="0 0 67 67" fill="none" xmlns="http://www.w3.org/2000/svg">
<g filter="url(#filter0_g_522_2035)">
<path fill-rule="evenodd" clip-rule="evenodd" d="M65.7405 29.2723C65.6266 29.3052 65.2321 29.3549 64.8638 29.383C63.2284 29.5075 61.9258 28.8361 61.0481 27.4161L60.7431 26.9226L60.5675 27.5306C60.471 27.8649 60.2849 28.3225 60.1541 28.5475C59.8682 29.0393 58.9459 29.962 58.4908 30.2118L58.1625 30.392L58.5525 29.5915C58.767 29.1512 59.0444 28.4561 59.169 28.0467C59.3774 27.3614 59.3957 27.1876 59.4001 25.855C59.4043 24.5815 59.382 24.3288 59.2143 23.7508C58.7417 22.1205 57.7827 20.9002 56.4647 20.2517C55.4008 19.7282 54.5183 19.5418 53.0691 19.5343C51.8673 19.5281 50.8747 19.6069 50.6858 19.7235C50.6229 19.7623 50.5544 20.1868 50.503 20.8561C50.4578 21.4448 50.3943 22.1499 50.362 22.4228L50.3033 22.919L50.2447 22.5055C50.2124 22.278 50.1582 21.5975 50.1241 20.9932C50.09 20.3888 50.0353 19.8777 50.0025 19.8575C49.9696 19.8373 49.5947 19.9112 49.1692 20.0219C48.7438 20.1326 48.3828 20.2102 48.367 20.1945C48.3252 20.1528 49.1794 19.4697 49.6242 19.1891L50.0045 18.9492L50.0047 18.3881L50.0048 17.8269L49.5951 17.8812C49.065 17.9514 48.831 17.8877 48.4753 17.5758C48.1182 17.2627 47.9736 16.8043 48.0942 16.368C48.1405 16.2007 48.1606 16.0461 48.1391 16.0246C48.1174 16.0031 47.903 15.9691 47.6625 15.9492L47.2252 15.913L46.7914 16.6219C46.308 17.4119 45.9079 17.9068 45.9795 17.6259C46.0983 17.1606 46.2851 15.9927 46.2469 15.9545C46.2227 15.9304 45.7447 15.8791 45.1845 15.8405C43.9186 15.7531 43.0348 15.6679 43.0664 15.6364C43.1007 15.6022 44.6003 15.4515 45.5449 15.3874L46.344 15.3331L46.3788 14.66C46.4294 13.6799 46.3057 12.1918 46.1101 11.427C45.5391 9.19554 44.1831 7.81064 42.0127 7.24204C40.991 6.97441 39.3122 6.99351 38.203 7.28529C37.419 7.49164 36.0381 8.09506 35.4493 8.48873C35.3013 8.58765 35.1801 8.63248 35.1801 8.58824C35.1801 8.36642 35.6898 7.63696 36.2104 7.1136C36.8228 6.49795 37.2412 6.23693 37.9899 6.00312L38.4393 5.86285L37.8794 5.59596C36.8301 5.09584 36.0012 4.06128 35.7695 2.96238C35.6521 2.40603 35.6448 0.848449 35.7599 0.919492C35.8054 0.947612 35.8427 1.03355 35.8428 1.11046C35.8428 1.18738 35.9551 1.48726 36.0922 1.77681C36.7541 3.17394 38.3767 4.06642 41.0177 4.48606C45.037 5.12479 48.0304 7.98522 48.2401 11.3879C48.3112 12.5432 48.0565 13.9358 47.5485 15.1678C47.514 15.2514 47.7446 15.2687 48.6438 15.2505L49.7829 15.2275L49.9328 14.6964C50.1947 13.768 50.419 12.2201 50.4175 11.3507C50.4151 9.94881 50.1128 8.96412 49.4651 8.24823C49.3081 8.07463 49.2038 7.90847 49.2334 7.87903C49.3181 7.79434 50.4283 7.81741 50.7649 7.91079C50.9324 7.95719 51.2484 8.11516 51.467 8.2618C52.7177 9.10043 52.7447 11.5443 51.5313 14.1032C51.3285 14.5311 51.1781 14.8966 51.1972 14.9157C51.2161 14.9347 51.3376 14.8963 51.4672 14.8304C51.8148 14.6536 53.3666 14.1452 53.9387 14.0209C54.212 13.9615 54.8456 13.9135 55.3467 13.9143C56.0989 13.9154 56.3426 13.9488 56.7447 14.106C57.7454 14.497 58.2257 15.224 58.2257 16.3472C58.2257 16.6909 58.2003 17.0522 58.1693 17.1499C58.1157 17.3182 58.0976 17.3109 57.8264 17.0111C57.4043 16.5446 56.5596 16.1346 55.678 15.968C54.5773 15.7602 52.3496 15.9017 50.9825 16.2663L50.6766 16.3479L50.6512 17.4282C50.6373 18.0225 50.6357 18.5183 50.6477 18.53C50.6596 18.5418 50.8832 18.4499 51.1446 18.3258C52.7758 17.5515 54.6434 17.3261 56.1749 17.7187C58.3385 18.2735 60.3287 20.1363 61.3974 22.6073C61.5503 22.9607 61.7897 23.7062 61.9295 24.264C62.4236 26.2359 62.8528 27.1611 63.6859 28.0505C64.2218 28.6225 64.9392 29.0359 65.5958 29.1508C65.912 29.2063 65.9266 29.2185 65.7405 29.2723ZM61.0253 34.2637C60.5681 35.532 59.3999 36.4537 57.8899 36.7375C56.3815 37.0211 55.0203 36.4509 54.2212 35.2007L53.9833 34.8285L53.9826 35.3661C53.9796 37.5096 54.4623 41.0334 55.1472 43.8671C55.5446 45.511 56.4602 48.4291 56.6436 48.6361C56.6819 48.6793 56.7132 46.3142 56.7132 43.3802C56.7132 39.3415 56.7373 38.0217 56.8126 37.9465C56.9561 37.8032 57.1637 37.8244 57.3215 37.9985C57.4465 38.1364 57.4586 38.7008 57.4586 44.4094L57.4586 50.6691L57.9537 51.6555C58.9752 53.6903 59.7627 55.7535 60.1648 57.4483C60.3182 58.0948 60.3823 58.6443 60.4158 59.5987C60.4702 61.1522 60.3487 61.8706 59.8579 62.8968C59.1092 64.462 57.2749 65.6795 56.3976 65.1934C55.9106 64.9235 55.7493 64.2622 56.0514 63.7741C56.2465 63.4588 56.3957 63.3949 57.5 63.1543C58.3734 62.9639 59.1892 62.6486 59.3945 62.422C59.4619 62.3475 59.5943 62.0082 59.6887 61.6679C60.0737 60.2802 59.8483 58.1316 59.079 55.856C58.6454 54.5731 57.59 52.155 57.4639 52.1554C57.4382 52.1554 57.4041 54.1931 57.3881 56.6835C57.3623 60.7018 57.3442 61.2231 57.2273 61.3148C57.0563 61.449 57.0006 61.4452 56.8433 61.2882C56.7277 61.1728 56.7132 60.5641 56.7132 55.8352L56.7132 50.512L56.2257 49.2867C54.8059 45.7175 53.8191 41.5024 53.4797 37.5578C53.3641 36.2152 53.365 33.3096 53.4812 32.4301C53.5292 32.0662 53.5915 31.4872 53.6195 31.1434C53.7125 30.0006 53.285 28.5663 52.7275 28.1506C52.1059 27.6871 50.9136 28.0399 50.7817 28.7263C50.7378 28.9552 50.7599 29.0058 50.9398 29.0876C51.1077 29.1641 51.2024 29.1564 51.4179 29.049C51.7446 28.8862 52.1874 28.8751 52.3132 29.0264C52.364 29.0876 52.4278 29.2483 52.4549 29.3835C52.5138 29.6782 52.2232 30.0745 51.8281 30.2379C51.4871 30.3789 50.7511 30.3084 50.4809 30.1088C49.9678 29.7298 49.7858 28.9874 50.0506 28.3542C50.3356 27.6729 50.9702 27.2659 51.7524 27.2628C52.9175 27.2583 53.4987 27.8516 53.8164 29.37L53.9202 29.8662L54.0906 29.4114C54.2331 29.0308 54.2614 28.7605 54.2636 27.7573C54.2664 26.5853 54.2602 26.543 53.9922 25.8964C53.6754 25.1316 53.4078 24.748 53.069 24.573C52.7123 24.3888 52.4052 24.4194 52.1487 24.6648C52.0246 24.7835 51.8828 24.8558 51.8336 24.8254C51.7844 24.795 51.744 24.543 51.744 24.2654C51.744 23.2861 52.4462 22.5836 53.4118 22.5967C53.8707 22.6029 53.8809 22.598 53.9302 22.3475C54.0828 21.5717 54.3688 20.6938 54.4948 20.6145C54.8103 20.4159 55.4904 21.4279 55.7655 22.5055C55.874 22.9303 55.9261 23.5578 55.9613 24.8626L56.0092 26.6407L56.5061 26.689C57.1195 26.7486 57.4401 26.9098 57.8147 27.3469C58.1374 27.7233 58.2497 28.1226 58.125 28.4501C58.0344 28.6881 57.7874 28.7392 57.6318 28.5521C57.4701 28.3575 56.8675 28.2471 56.5079 28.3463C55.6836 28.5736 55.1912 29.1674 54.8037 30.4017C54.2875 32.0458 54.2648 33.3432 54.736 34.2703C55.8823 36.5256 59.5061 36.665 60.5694 34.4947C60.8199 33.9835 60.7955 33.6757 60.481 33.3807C60.2738 33.1863 60.1922 33.1844 59.1753 33.3491C58.1037 33.5227 57.7094 32.1865 58.6874 31.6959C59.3333 31.3719 60.044 31.4927 60.5674 32.0153C61.1587 32.6058 61.3263 33.4288 61.0253 34.2637ZM57.3028 10.5133C57.0808 10.8682 56.659 11.2429 56.1335 11.5519C55.6078 11.861 54.116 12.405 54.0804 12.3005C54.041 12.1854 54.4625 11.1341 54.7635 10.5966C55.2981 9.64198 55.9524 9.06593 56.5021 9.06593C57.2395 9.06593 57.6941 9.88761 57.3028 10.5133ZM45.575 12.0425C45.5071 12.0987 45.0545 12.2475 44.5691 12.3732L43.6867 12.6018L43.6737 13.1071C43.663 13.5222 43.6164 13.6752 43.4134 13.9639C42.9846 14.573 42.3393 14.8664 41.7247 14.7316C41.4325 14.6675 41.3905 14.4512 41.64 14.2955C41.8806 14.1455 41.8604 13.6508 41.598 13.2652C41.3386 12.8839 40.467 12.4543 39.5349 12.2482C38.753 12.0753 37.7237 12.1196 36.9583 12.359L36.4638 12.5136L36.8365 12.6094C37.9055 12.8845 38.0977 12.9708 38.4909 13.3523C38.8177 13.6694 38.9075 13.8222 38.9917 14.2037C39.2564 15.4039 38.4394 16.5261 37.293 16.5367C36.4979 16.544 35.9974 16.0752 35.9453 15.2742C35.9095 14.7229 36.098 14.3148 36.4963 14.0813C36.723 13.9483 36.7929 13.9416 37.0115 14.0321C37.3573 14.1751 37.4471 14.4442 37.2845 14.85C37.1065 15.2943 37.1545 15.6332 37.4004 15.668C38.0567 15.7609 38.5813 14.4997 38.1657 13.8281C37.7324 13.128 35.9867 12.6509 34.8018 12.9088C32.5175 13.4059 28.2109 13.2075 24.1686 12.4189C21.5471 11.9074 19.4332 11.2888 16.7709 10.2539L15.6296 9.81027L9.93416 9.81027C5.61479 9.81027 4.21472 9.78629 4.13936 9.71103C3.98722 9.5591 4.0211 9.24721 4.20016 9.15152C4.30501 9.09553 6.04513 9.06353 9.23144 9.05906L14.1025 9.05228L13.1606 8.60285C9.62979 6.91815 6.32936 6.28936 4.39859 6.93363C3.83666 7.12112 3.83118 7.12592 3.56409 7.65994C3.40292 7.98233 3.22521 8.54513 3.12003 9.06593C2.89956 10.1584 2.79387 10.3636 2.35095 10.5592C1.46553 10.9504 0.69622 10.1866 0.974825 9.19287C1.22072 8.31595 2.26598 7.15901 3.24897 6.67576C4.19659 6.20989 4.92292 6.06365 6.2761 6.0663C8.56308 6.07085 10.7711 6.72231 14.3741 8.45539L15.6432 9.06593L21.5063 9.06593C27.1887 9.06593 27.3739 9.07081 27.5138 9.22522C27.6964 9.42669 27.6548 9.65511 27.4135 9.7752C27.2794 9.84203 25.9019 9.86015 22.5409 9.83931C19.9637 9.82326 17.816 9.83434 17.7681 9.86386C17.66 9.93069 18.3516 10.1869 20.0656 10.7151C23.4712 11.7644 26.8283 12.3554 30.2731 12.5117C30.9222 12.5411 31.4532 12.5416 31.4532 12.5127C31.4532 12.4838 31.3062 12.3853 31.1266 12.2937C30.6457 12.0488 30.0253 11.3887 29.7549 10.8343C29.5481 10.4101 29.5133 10.2309 29.4832 9.4334C29.4526 8.62305 29.4718 8.45268 29.6517 7.93627C30.4602 5.61441 32.8381 4.53593 34.221 5.86384C34.4667 6.0998 34.616 6.33112 34.6823 6.57891C34.9552 7.59791 34.2734 8.58228 33.4765 8.31969C32.935 8.14121 32.7128 7.55846 32.9511 6.94165C33.1128 6.52324 33.0655 6.15454 32.8234 5.94662C32.2181 5.42666 31.0246 6.12262 30.4776 7.31465C29.8855 8.60501 30.3096 10.4428 31.4068 11.3406C31.9834 11.8125 32.4733 11.9872 33.3311 12.0272C34.2457 12.0697 34.8907 11.9664 35.9963 11.6003C36.9349 11.2895 37.3285 11.0293 37.6672 10.496C38.0228 9.93607 38.0559 9.56216 37.7968 9.03334C37.6786 8.79201 37.5819 8.55573 37.5819 8.50826C37.5819 8.25774 38.3739 8.25732 38.7421 8.50767C39.2786 8.8724 39.51 9.25697 39.5628 9.87172L39.611 10.4306L41.3508 10.4818C43.6815 10.5506 44.5617 10.7722 45.4425 11.5124C45.7254 11.7501 45.7601 11.889 45.575 12.0425Z" fill="#D4AF37" fill-opacity="0.5"/>
</g>
<defs>
<filter id="filter0_g_522_2035" x="-0.000871003" y="0.00010556" width="66.7791" height="66.2185" filterUnits="userSpaceOnUse" color-interpolation-filters="sRGB">
<feFlood flood-opacity="0" result="BackgroundImageFix"/>
<feBlend mode="normal" in="SourceGraphic" in2="BackgroundImageFix" result="shape"/>
<feTurbulence type="fractalNoise" baseFrequency="4.3625893592834473 4.3625893592834473" numOctaves="3" seed="1956" />
<feDisplacementMap in="shape" scale="1.8337732553482056" xChannelSelector="R" yChannelSelector="G" result="displacedImage" width="100%" height="100%" />
<feMerge result="effect1_texture_522_2035">
<feMergeNode in="displacedImage"/>
</feMerge>
</filter>
</defs>
</svg>
