<svg width="67" height="65" viewBox="0 0 67 65" fill="none" xmlns="http://www.w3.org/2000/svg">
<g filter="url(#filter0_g_522_2036)">
<path fill-rule="evenodd" clip-rule="evenodd" d="M65.7405 36.9465C65.6266 36.9136 65.2321 36.8638 64.8638 36.8358C63.2284 36.7112 61.9258 37.3827 61.0481 38.8027L60.7431 39.2962L60.5675 38.6882C60.471 38.3538 60.2849 37.8962 60.1541 37.6713C59.8682 37.1795 58.9459 36.2568 58.4908 36.007L58.1625 35.8268L58.5525 36.6273C58.767 37.0675 59.0444 37.7626 59.169 38.172C59.3774 38.8573 59.3957 39.0312 59.4001 40.3637C59.4043 41.6372 59.382 41.89 59.2143 42.468C58.7417 44.0983 57.7827 45.3186 56.4647 45.9671C55.4008 46.4906 54.5183 46.677 53.0691 46.6844C51.8673 46.6906 50.8747 46.6118 50.6858 46.4952C50.6229 46.4564 50.5544 46.0319 50.503 45.3627C50.4578 44.774 50.3943 44.0689 50.362 43.796L50.3033 43.2997L50.2447 43.7133C50.2124 43.9407 50.1582 44.6213 50.1241 45.2256C50.09 45.8299 50.0353 46.3411 50.0025 46.3612C49.9696 46.3815 49.5947 46.3076 49.1692 46.1968C48.7438 46.0862 48.3828 46.0085 48.367 46.0243C48.3252 46.066 49.1794 46.749 49.6242 47.0297L50.0045 47.2696L50.0047 47.8306L50.0048 48.3918L49.5951 48.3376C49.065 48.2673 48.831 48.3311 48.4753 48.643C48.1182 48.9561 47.9736 49.4144 48.0942 49.8507C48.1405 50.018 48.1606 50.1726 48.1391 50.1942C48.1174 50.2157 47.903 50.2497 47.6625 50.2695L47.2252 50.3058L46.7914 49.5968C46.308 48.8068 45.9079 48.312 45.9795 48.5929C46.0983 49.0582 46.2851 50.226 46.2469 50.2642C46.2227 50.2883 45.7447 50.3397 45.1845 50.3783C43.9186 50.4656 43.0348 50.5508 43.0664 50.5824C43.1007 50.6166 44.6003 50.7672 45.5449 50.8313L46.344 50.8857L46.3788 51.5587C46.4294 52.5389 46.3057 54.027 46.1101 54.7917C45.5391 57.0232 44.1831 58.4081 42.0127 58.9767C40.991 59.2443 39.3122 59.2252 38.203 58.9335C37.419 58.7271 36.0381 58.1237 35.4493 57.73C35.3013 57.6311 35.1801 57.5863 35.1801 57.6305C35.1801 57.8523 35.6898 58.5818 36.2104 59.1051C36.8228 59.7208 37.2412 59.9818 37.9899 60.2156L38.4393 60.3559L37.8794 60.6228C36.8301 61.1229 36.0012 62.1575 35.7695 63.2564C35.6521 63.8127 35.6448 65.3703 35.7599 65.2993C35.8054 65.2711 35.8427 65.1852 35.8428 65.1083C35.8428 65.0314 35.9551 64.7315 36.0922 64.4419C36.7541 63.0448 38.3767 62.1523 41.0177 61.7327C45.037 61.094 48.0304 58.2335 48.2401 54.8308C48.3112 53.6756 48.0565 52.283 47.5485 51.0509C47.514 50.9674 47.7446 50.95 48.6438 50.9682L49.7829 50.9913L49.9328 51.5223C50.1947 52.4507 50.419 53.9986 50.4175 54.8681C50.4151 56.2699 50.1128 57.2546 49.4651 57.9705C49.3081 58.1441 49.2038 58.3103 49.2334 58.3397C49.3181 58.4244 50.4283 58.4013 50.7649 58.308C50.9324 58.2616 51.2484 58.1036 51.467 57.957C52.7177 57.1183 52.7447 54.6745 51.5313 52.1156C51.3285 51.6877 51.1781 51.3221 51.1972 51.3031C51.2161 51.2841 51.3376 51.3225 51.4672 51.3884C51.8148 51.5652 53.3666 52.0735 53.9387 52.1979C54.212 52.2573 54.8456 52.3052 55.3467 52.3045C56.0989 52.3033 56.3426 52.2699 56.7447 52.1128C57.7454 51.7218 58.2257 50.9948 58.2257 49.8716C58.2257 49.5278 58.2003 49.1666 58.1693 49.0688C58.1157 48.9005 58.0976 48.9079 57.8264 49.2077C57.4043 49.6741 56.5596 50.0842 55.678 50.2508C54.5773 50.4586 52.3496 50.3171 50.9825 49.9524L50.6766 49.8709L50.6512 48.7905C50.6373 48.1963 50.6357 47.7005 50.6477 47.6887C50.6596 47.677 50.8832 47.7689 51.1446 47.8929C52.7758 48.6673 54.6434 48.8927 56.1749 48.5001C58.3385 47.9453 60.3287 46.0824 61.3974 43.6115C61.5503 43.2581 61.7897 42.5126 61.9295 41.9547C62.4236 39.9829 62.8528 39.0576 63.6859 38.1682C64.2218 37.5962 64.9392 37.1829 65.5958 37.0679C65.912 37.0125 65.9266 37.0003 65.7405 36.9465ZM61.0253 31.955C60.5681 30.6867 59.3999 29.7651 57.8899 29.4812C56.3815 29.1976 55.0203 29.7678 54.2212 31.0181L53.9833 31.3902L53.9826 30.8526C53.9796 28.7092 54.4623 25.1854 55.1472 22.3516C55.5446 20.7077 56.4602 17.7896 56.6436 17.5826C56.6819 17.5395 56.7132 19.9046 56.7132 22.8385C56.7132 26.8773 56.7373 28.1971 56.8126 28.2723C56.9561 28.4156 57.1637 28.3943 57.3215 28.2202C57.4465 28.0823 57.4586 27.518 57.4586 21.8094L57.4586 15.5497L57.9537 14.5632C58.9752 12.5284 59.7627 10.4653 60.1648 8.77042C60.3182 8.12392 60.3823 7.57443 60.4158 6.62001C60.4702 5.06656 60.3487 4.34819 59.8579 3.32199C59.1092 1.75671 57.2749 0.539212 56.3976 1.02535C55.9106 1.29522 55.7493 1.95652 56.0514 2.44464C56.2465 2.76 56.3957 2.82386 57.5 3.06444C58.3734 3.25483 59.1892 3.57018 59.3945 3.79679C59.4619 3.87123 59.5943 4.21056 59.6887 4.55081C60.0737 5.93852 59.8483 8.08719 59.079 10.3627C58.6454 11.6457 57.59 14.0638 57.4639 14.0634C57.4382 14.0634 57.4041 12.0257 57.3881 9.53528C57.3623 5.51698 57.3442 4.99568 57.2273 4.90396C57.0563 4.76973 57.0006 4.77354 56.8433 4.93052C56.7277 5.04597 56.7132 5.65467 56.7132 10.3836L56.7132 15.7067L56.2257 16.9321C54.8059 20.5013 53.8191 24.7163 53.4797 28.661C53.3641 30.0036 53.365 32.9092 53.4812 33.7887C53.5292 34.1526 53.5915 34.7316 53.6195 35.0753C53.7125 36.2181 53.285 37.6525 52.7275 38.0681C52.1059 38.5316 50.9136 38.1788 50.7817 37.4924C50.7378 37.2636 50.7599 37.213 50.9398 37.1311C51.1077 37.0547 51.2024 37.0624 51.4179 37.1697C51.7446 37.3325 52.1874 37.3437 52.3132 37.1924C52.364 37.1312 52.4278 36.9705 52.4549 36.8353C52.5138 36.5405 52.2232 36.1443 51.8281 35.9809C51.4871 35.8398 50.7511 35.9104 50.4809 36.1099C49.9678 36.489 49.7858 37.2313 50.0506 37.8645C50.3356 38.5459 50.9702 38.9529 51.7524 38.9559C52.9175 38.9605 53.4987 38.3671 53.8164 36.8488L53.9202 36.3525L54.0906 36.8074C54.2331 37.1879 54.2614 37.4583 54.2636 38.4615C54.2664 39.6334 54.2602 39.6758 53.9922 40.3224C53.6754 41.0871 53.4078 41.4708 53.069 41.6457C52.7123 41.8299 52.4052 41.7993 52.1487 41.5539C52.0246 41.4352 51.8828 41.3629 51.8336 41.3934C51.7844 41.4237 51.744 41.6757 51.744 41.9534C51.744 42.9327 52.4462 43.6352 53.4118 43.622C53.8707 43.6158 53.8809 43.6207 53.9302 43.8712C54.0828 44.6471 54.3688 45.5249 54.4948 45.6042C54.8103 45.8028 55.4904 44.7908 55.7655 43.7133C55.874 43.2884 55.9261 42.6609 55.9613 41.3562L56.0092 39.578L56.5061 39.5297C57.1195 39.4702 57.4401 39.309 57.8147 38.8719C58.1374 38.4954 58.2497 38.0962 58.125 37.7687C58.0344 37.5307 57.7874 37.4795 57.6318 37.6666C57.4701 37.8612 56.8675 37.9716 56.5079 37.8725C55.6836 37.6452 55.1912 37.0514 54.8037 35.8171C54.2875 34.173 54.2648 32.8755 54.736 31.9484C55.8823 29.6931 59.5061 29.5538 60.5694 31.724C60.8199 32.2352 60.7955 32.5431 60.481 32.8381C60.2738 33.0324 60.1922 33.0344 59.1753 32.8696C58.1037 32.696 57.7094 34.0322 58.6874 34.5228C59.3333 34.8469 60.044 34.726 60.5674 34.2034C61.1587 33.613 61.3263 32.7899 61.0253 31.955ZM57.3028 55.7055C57.0808 55.3506 56.659 54.9758 56.1335 54.6669C55.6078 54.3578 54.116 53.8138 54.0804 53.9182C54.041 54.0333 54.4625 55.0847 54.7635 55.6221C55.2981 56.5768 55.9524 57.1528 56.5021 57.1528C57.2395 57.1528 57.6941 56.3311 57.3028 55.7055ZM45.575 54.1763C45.5071 54.12 45.0545 53.9712 44.5691 53.8455L43.6867 53.6169L43.6737 53.1116C43.663 52.6966 43.6164 52.5435 43.4134 52.2549C42.9846 51.6458 42.3393 51.3523 41.7247 51.4871C41.4325 51.5512 41.3905 51.7676 41.64 51.9232C41.8806 52.0733 41.8604 52.568 41.598 52.9536C41.3386 53.3348 40.467 53.7645 39.5349 53.9706C38.753 54.1434 37.7237 54.0992 36.9583 53.8598L36.4638 53.7052L36.8365 53.6093C37.9055 53.3343 38.0977 53.248 38.4909 52.8665C38.8177 52.5493 38.9075 52.3965 38.9917 52.015C39.2564 50.8148 38.4394 49.6927 37.293 49.6821C36.4979 49.6747 35.9974 50.1436 35.9453 50.9446C35.9095 51.4958 36.098 51.9039 36.4963 52.1375C36.723 52.2704 36.7929 52.2771 37.0115 52.1866C37.3573 52.0436 37.4471 51.7745 37.2845 51.3688C37.1065 50.9245 37.1545 50.5856 37.4004 50.5507C38.0567 50.4579 38.5813 51.7191 38.1657 52.3907C37.7324 53.0908 35.9867 53.5678 34.8018 53.3099C32.5175 52.8129 28.2109 53.0113 24.1686 53.7999C21.5471 54.3113 19.4332 54.93 16.7709 55.9648L15.6296 56.4085L9.93416 56.4085C5.61479 56.4085 4.21472 56.4325 4.13936 56.5077C3.98722 56.6596 4.0211 56.9715 4.20016 57.0672C4.30501 57.1232 6.04513 57.1552 9.23144 57.1597L14.1025 57.1665L13.1606 57.6159C9.62979 59.3006 6.32936 59.9294 4.39859 59.2851C3.83666 59.0976 3.83118 59.0928 3.56409 58.5588C3.40292 58.2364 3.22521 57.6736 3.12003 57.1528C2.89956 56.0604 2.79387 55.8551 2.35095 55.6595C1.46553 55.2684 0.69622 56.0322 0.974825 57.0259C1.22072 57.9028 2.26598 59.0597 3.24897 59.543C4.19659 60.0089 4.92292 60.1551 6.2761 60.1525C8.56308 60.1479 10.7711 59.4964 14.3741 57.7634L15.6432 57.1528L21.5063 57.1528C27.1887 57.1528 27.3739 57.1479 27.5138 56.9935C27.6964 56.7921 27.6548 56.5636 27.4135 56.4435C27.2794 56.3767 25.9019 56.3586 22.5409 56.3794C19.9637 56.3955 17.816 56.3844 17.7681 56.3549C17.66 56.2881 18.3516 56.0318 20.0656 55.5037C23.4712 54.4543 26.8283 53.8634 30.2731 53.7071C30.9222 53.6776 31.4532 53.6771 31.4532 53.706C31.4532 53.735 31.3062 53.8335 31.1266 53.925C30.6457 54.17 30.0253 54.83 29.7549 55.3844C29.5481 55.8087 29.5133 55.9878 29.4832 56.7854C29.4526 57.5957 29.4718 57.7661 29.6517 58.2825C30.4602 60.6043 32.8381 61.6828 34.221 60.3549C34.4667 60.119 34.616 59.8876 34.6823 59.6398C34.9552 58.6208 34.2734 57.6365 33.4765 57.8991C32.935 58.0775 32.7128 58.6603 32.9511 59.2771C33.1128 59.6955 33.0655 60.0642 32.8234 60.2721C32.2181 60.7921 31.0246 60.0961 30.4776 58.9041C29.8855 57.6137 30.3096 55.776 31.4068 54.8782C31.9834 54.4063 32.4733 54.2315 33.3311 54.1916C34.2457 54.1491 34.8907 54.2524 35.9963 54.6185C36.9349 54.9293 37.3285 55.1894 37.6672 55.7228C38.0228 56.2827 38.0559 56.6566 37.7968 57.1854C37.6786 57.4267 37.5819 57.663 37.5819 57.7105C37.5819 57.961 38.3739 57.9614 38.7421 57.7111C39.2786 57.3463 39.51 56.9618 39.5628 56.347L39.611 55.7882L41.3508 55.7369C43.6815 55.6682 44.5617 55.4465 45.4425 54.7064C45.7254 54.4686 45.7601 54.3298 45.575 54.1763Z" fill="#D4AF37" fill-opacity="0.5"/>
</g>
<defs>
<filter id="filter0_g_522_2036" x="-0.000871003" y="0.00010556" width="66.7791" height="66.2185" filterUnits="userSpaceOnUse" color-interpolation-filters="sRGB">
<feFlood flood-opacity="0" result="BackgroundImageFix"/>
<feBlend mode="normal" in="SourceGraphic" in2="BackgroundImageFix" result="shape"/>
<feTurbulence type="fractalNoise" baseFrequency="4.3625893592834473 4.3625893592834473" numOctaves="3" seed="1956" />
<feDisplacementMap in="shape" scale="1.8337732553482056" xChannelSelector="R" yChannelSelector="G" result="displacedImage" width="100%" height="100%" />
<feMerge result="effect1_texture_522_2036">
<feMergeNode in="displacedImage"/>
</feMerge>
</filter>
</defs>
</svg>
