<svg width="111" height="43" viewBox="0 0 111 43" fill="none" xmlns="http://www.w3.org/2000/svg">
<path fill-rule="evenodd" clip-rule="evenodd" d="M1.06813 1.469C1.51312 3.24386 0.879006 7.03148 0.13657 7.03148C-0.605866 7.03148 1.91231 5.2367 2.3573 3.46184C2.55989 2.6538 -0.173169 0 0.13657 0C0.446308 0 0.865539 0.660962 1.06813 1.469ZM10.6659 3.09737C12.3534 3.95169 13.3968 6.40978 12.7422 7.98835C12.3499 8.9335 12.2199 8.84327 11.7866 7.32505C10.7409 3.66282 6.55208 2.8624 4.04431 5.84551C1.77895 8.53915 1.5383 10.7511 3.16604 13.9159C3.9278 15.3978 4.87047 16.7162 5.25984 16.8463C5.75636 17.0121 5.70952 16.5855 5.10585 15.4265C3.45528 12.26 4.44655 8.2034 6.87001 8.2034C7.7559 8.2034 9.50485 9.76438 9.50485 10.5543C9.50485 11.4203 8.44798 11.7695 8.18625 10.9902C7.71315 9.58391 5.99174 11.759 5.99174 13.763C5.99174 18.1617 7.44349 22.7156 14.7004 22.2176C20.1363 21.8449 25.5007 18.211 21.0501 18.1822C17.6981 18.1612 14.189 16.8187 14.189 15.5577C14.189 14.1866 16.7255 14.4292 20.3551 16.1478C22.0959 16.9722 24.517 17.7686 25.7349 17.9174L27.9487 18.1881L25.5036 17.0467C21.9999 15.4118 20.8159 12.7885 22.7206 10.8818C23.2271 10.3755 24.2401 9.96127 24.972 9.96127C26.4557 9.96127 28.6449 11.9863 27.7555 12.5366C27.4464 12.7276 27.0423 12.4903 26.8573 12.0086C26.4738 11.009 23.8197 10.8203 23.2441 11.7525C22.5444 12.8858 23.5094 15.0251 25.0346 15.7206C26.9159 16.5785 36.0604 18.0899 43.2267 18.9047C62.7499 21.1247 89.1576 14.9536 93.4758 16.3388C97.9263 17.7662 102.363 20.9521 104.871 24.52C106.533 26.8849 106.669 27.4831 106.943 33.5953C107.234 40.0982 106.236 42.2112 107.685 42.2112C108.832 42.2112 110.232 39.7619 110.527 38.3802L110.903 36.6223L110.972 38.4095C111.093 41.5285 108.662 42.6559 106.639 40.4187L105.569 39.2351L104.06 40.6402C103.23 41.4131 101.976 42.3418 101.273 42.7034C99.468 43.6309 96.0995 41.6487 94.1509 40.6402C91.6338 39.3376 87.1768 37.8183 86.2353 34.7262C85.7675 33.191 84.9384 31.061 84.3927 29.994C83.8464 28.9264 83.5817 27.8716 83.8042 27.6501C84.3798 27.0759 86.4057 29.7444 86.7792 31.569C86.9525 32.4146 87.3173 33.8976 87.5902 34.8644L88.0867 36.6223L88.1464 35.0244C88.2167 33.1464 90.516 31.3669 92.1871 31.8972C92.7984 32.0911 93.5701 32.8476 93.9026 33.5777C94.4765 34.8387 94.4033 34.8937 92.4605 34.6664C90.1647 34.3986 89.4 35.1322 89.386 37.6179C89.3678 40.874 95.3817 43.5899 99.5564 42.2112C102.121 41.3645 104.928 38.2343 105.737 35.3197C106.655 32.0103 106.425 30.3514 105.427 33.0808C103.854 37.3776 100.644 39.7296 97.8198 38.655C95.4279 37.745 96.4344 36.6223 99.6425 36.6223C102.22 36.6223 102.612 36.4366 103.836 34.6312C105.855 31.654 106.047 23.7899 103.836 20.7353C101.814 17.9408 96.3015 17.9672 94.1509 17.9742C93.2966 17.9772 91.1144 18.6844 89.3016 19.5458C87.4403 20.4306 85.5795 20.9485 85.025 20.7353C84.152 20.4001 84.193 20.1985 85.3933 18.9047C86.1352 18.1049 87.2693 17.2453 87.9134 16.9945C88.8859 16.616 88.6997 16.4648 86.8144 16.1009C84.0782 15.5724 36.6941 16.6541 34.3251 17.6654C30.3506 19.3629 28.8306 22.1861 31.2066 23.4582C32.6962 24.2563 34.0967 23.3029 34.0967 21.4917C34.0967 20.6063 34.2724 20.4499 34.7402 20.9181C35.7432 21.9218 34.7671 23.9809 33.089 24.4022C30.1925 25.1299 28.293 22.4498 29.734 19.6688C30.4735 18.2432 30.4554 18.1254 29.5419 18.4073C18.5775 21.7865 8.59905 21.3898 4.33414 17.4041C-0.104667 13.2567 1.55156 8.0318 6.47167 5.48582C8.5848 4.39184 8.7378 2.12116 10.6659 3.09737ZM93.4758 10.6974C100.122 11.431 103.864 17.376 106.399 22.3496C107.791 25.079 107.856 26.1706 106.479 23.6803C102.819 17.0607 96.5427 13.535 87.3279 12.9215C83.4945 12.6666 82.6964 12.495 84.4003 12.2916C85.6884 12.1381 91.4517 10.4741 93.4758 10.6974Z" fill="#D4AF37"/>
</svg>
