<svg width="20" height="25" viewBox="0 0 20 25" fill="none" xmlns="http://www.w3.org/2000/svg">
<path fill-rule="evenodd" clip-rule="evenodd" d="M4.52877 0.257154C4.42555 0.51609 3.66156 3.18796 3.44878 4.03425C2.80787 6.58336 2.75592 8.75333 3.30105 10.2047C3.37154 10.3924 3.59463 10.8771 3.79684 11.2819C4.29755 12.2844 4.39695 12.6177 4.39234 13.2778C4.3903 13.5663 4.36328 14.0393 4.33222 14.3288C4.20491 15.5175 3.53477 19.8493 3.36127 20.605C3.22286 21.2082 2.95577 21.6985 2.62976 21.9481C2.46437 22.0747 2.41766 22.0818 1.60141 22.1035C0.27518 22.1388 -0.0242231 22.2491 0.0599888 22.6716C0.122519 22.9854 0.316605 23.1167 1.08509 23.365C2.1822 23.7195 3.3222 23.9285 4.70295 24.0282C5.73287 24.1026 6.23851 24.0476 6.41542 23.8419C6.56792 23.6646 6.56514 23.4725 6.40803 23.3272C6.28936 23.2176 5.08033 22.6551 4.71123 22.5378C4.56511 22.4914 4.5063 22.4171 4.32484 22.0495C4.02952 21.4515 4.01868 21.2011 4.22601 19.7692C4.48101 18.0082 5.14564 14.0498 5.28421 13.4666C5.31569 13.3344 5.42436 13.0488 5.52569 12.832C5.69019 12.4802 5.80137 12.3474 6.55996 11.597C7.45361 10.7128 7.60176 10.527 7.9207 9.89035C8.72056 8.29364 8.96602 6.86242 9.18115 2.53986C9.23756 1.40678 9.25039 0.769824 9.2175 0.73682C9.044 0.562707 6.70518 0.188202 5.14051 0.0840388L4.61183 0.0488281L4.52877 0.257154ZM4.64791 0.207332C4.64791 0.277125 5.25426 0.468476 5.77388 0.562706C6.67884 0.726781 6.80322 0.753794 6.77651 0.78065C6.74106 0.816177 6.12895 0.715534 5.38922 0.55251C5.06242 0.48051 4.79015 0.429218 4.78418 0.438468C4.77821 0.44777 4.71945 0.70371 4.65357 1.00721C4.58768 1.31072 4.51232 1.58153 4.48609 1.60896C4.41523 1.68322 4.42445 1.61748 4.56941 1.01699C4.71573 0.410929 4.72018 0.376558 4.65205 0.376558C4.62555 0.376558 4.58837 0.453393 4.56941 0.54736C4.55045 0.641328 4.39538 1.18285 4.22481 1.75081C4.05429 2.31876 3.91472 2.80642 3.91472 2.83448C3.91472 2.93397 5.74329 2.99425 7.05695 2.93807C7.74091 2.90885 8.52867 2.95893 8.87437 3.05358C9.04117 3.0993 9.04222 3.09836 9.06867 2.8811C9.08328 2.76096 9.1092 2.24881 9.12622 1.74298L9.15722 0.823272L8.59613 0.811867C8.28751 0.805613 7.76522 0.763045 7.43549 0.717322C6.54624 0.593872 4.87111 0.282538 4.75187 0.218474C4.69468 0.187782 4.64791 0.182737 4.64791 0.207332ZM5.09306 0.223467C5.58115 0.372774 7.65094 0.671336 8.49714 0.714431L9.02085 0.74113L8.73281 0.665345C8.03806 0.482613 5.63735 0.155934 5.09882 0.170859L4.93595 0.175379L5.09306 0.223467ZM13.8913 0.520033C12.6596 0.595396 10.7405 0.938892 10.219 1.17733L10.0796 1.24108L10.1125 1.84677C10.2042 3.5405 10.5904 7.1695 10.781 8.12836C11.1121 9.7946 11.5697 10.6548 12.7941 11.9123C13.1882 12.317 13.5779 12.7459 13.6601 12.8654C13.9864 13.3399 14.1089 13.8111 14.573 16.3794C15.295 20.3752 15.3361 21.3415 14.8141 22.0645C14.6862 22.2417 14.6016 22.2945 14.2782 22.3988C14.067 22.467 13.6343 22.6541 13.3167 22.8146C12.7814 23.0851 12.738 23.1184 12.7232 23.271C12.6739 23.7795 13.3978 23.919 15.1482 23.7381C16.4721 23.6012 17.233 23.4347 18.081 23.0961C18.3402 22.9926 18.6523 22.8392 18.7744 22.7553C19.121 22.5172 19.1397 22.1884 18.8146 22.0521C18.6247 21.9725 17.7011 21.8715 17.1625 21.8714C16.8229 21.8714 16.8182 21.8694 16.5788 21.6217C16.446 21.4845 16.2893 21.2755 16.2305 21.1573C16.0293 20.753 15.8265 19.7618 15.3873 17.0364C14.9759 14.4835 14.8904 13.8216 14.8883 13.1736C14.8861 12.4524 14.8634 12.5148 15.519 11.4371C16.1709 10.3656 16.3408 9.75518 16.3448 8.46996C16.3476 7.55446 16.2908 7.05419 16.0374 5.7634C15.7715 4.40975 14.93 1.22111 14.7022 0.703973C14.5925 0.45518 14.6688 0.472471 13.8913 0.520033ZM12.9942 0.668971C12.0867 0.779388 10.5528 1.11684 10.6258 1.19005C10.7174 1.28202 14.1793 0.71564 14.1793 0.608691C14.1793 0.567383 13.5771 0.598075 12.9942 0.668971ZM14.5326 0.617626C14.4835 0.666975 12.6869 1.04537 12.0845 1.13324C11.7821 1.17733 11.2224 1.24234 10.8407 1.27766C10.459 1.31297 10.1468 1.36122 10.1468 1.38476C10.1468 1.43196 10.2546 1.44052 10.8014 1.43685C11.1332 1.43459 11.1481 1.43874 10.9586 1.48052C10.8433 1.5059 10.6254 1.52808 10.4741 1.52971C10.29 1.53176 10.1996 1.55446 10.2003 1.59845C10.2009 1.63461 10.2356 2.08984 10.2774 2.61013C10.3192 3.13042 10.354 3.5888 10.3548 3.62879C10.3568 3.72612 11.533 3.6793 12.0689 3.56052C12.6613 3.42924 13.3413 3.37406 14.3792 3.37306C15.268 3.37222 15.3366 3.36539 15.3114 3.2802C15.0522 2.40038 14.6507 0.940521 14.6507 0.877613C14.6507 0.819015 14.6164 0.802775 14.5328 0.821852C13.8532 0.976888 13.642 0.9833 14.1661 0.832994C14.4873 0.740866 14.6397 0.663295 14.5924 0.615891C14.5765 0.599862 14.5496 0.600651 14.5326 0.617626ZM14.4955 0.928381C14.4937 1.00359 14.789 2.1117 14.8526 2.26852C14.9686 2.55442 14.9116 2.17829 14.7531 1.61191C14.6059 1.08578 14.4985 0.800936 14.4955 0.928381ZM6.69314 3.0478C6.59384 3.05726 6.48554 3.10225 6.45239 3.14776C6.40955 3.20646 6.38132 3.21293 6.35488 3.16989C6.30978 3.09668 6.06191 3.08858 6.06191 3.16032C6.06191 3.18828 6.02897 3.19853 5.98865 3.18297C5.94838 3.16747 5.89977 3.18013 5.88071 3.21109C5.85657 3.25035 5.81541 3.25087 5.7446 3.21282C5.58964 3.12963 4.94841 3.16621 4.87614 3.26238C4.82461 3.33097 4.80413 3.33175 4.72778 3.26816C4.6411 3.19595 4.57438 3.17829 4.25513 3.14298C4.16872 3.13341 4.03832 3.10887 3.96542 3.08837C3.83402 3.05153 3.83098 3.05794 3.63454 3.79087C3.18787 5.45743 3.02699 6.47982 3.02547 7.66162C3.02437 8.50233 3.09973 9.08495 3.29015 9.70741C3.43071 10.1671 3.93049 11.1834 4.10755 11.3698C4.29567 11.5677 4.66294 11.7128 5.22037 11.8093C5.93733 11.9335 6.10376 11.8721 6.75184 11.2442C7.71352 10.3124 8.35323 9.04958 8.64975 7.4977C8.90941 6.13885 9.138 3.22454 8.99199 3.13404C8.96177 3.11528 8.79089 3.09347 8.61231 3.08559C8.43377 3.0777 8.24608 3.05348 8.19523 3.03182C8.10604 2.99383 8.04042 3.00255 7.81633 3.08212C7.73259 3.11186 7.72735 3.10808 7.79014 3.0632C7.8477 3.02205 7.73557 3.01017 7.37118 3.01879C7.09754 3.02526 6.79243 3.03834 6.69314 3.0478ZM6.14414 3.26112C6.12837 3.28671 6.1456 3.3328 6.18247 3.36355C6.23285 3.40549 6.25144 3.39393 6.2572 3.31693C6.26506 3.21198 6.19551 3.17766 6.14414 3.26112ZM12.5404 3.54922C12.3351 3.58349 12.1636 3.64204 12.1353 3.6875C12.1027 3.73973 12.0858 3.74415 12.0853 3.70063C12.0842 3.60866 11.9796 3.61881 11.8661 3.72192C11.8111 3.77185 11.7703 3.78362 11.7703 3.74951C11.7703 3.70736 11.731 3.7051 11.635 3.74173C11.5606 3.77011 11.4778 3.77978 11.451 3.76317C11.4242 3.74662 11.3322 3.76817 11.2464 3.8111C11.1579 3.85541 11.0775 3.86828 11.0607 3.8409C11.0443 3.81436 11.0029 3.79297 10.9686 3.79339C10.9311 3.79392 10.9376 3.81457 10.9847 3.84516C11.048 3.88615 11.0397 3.89624 10.9424 3.89692C10.8759 3.89735 10.8344 3.87669 10.8502 3.85105C10.8772 3.80721 10.4209 3.71025 10.3802 3.75114C10.3531 3.77826 10.4972 5.29898 10.6205 6.288C10.7594 7.403 10.9337 8.2445 11.1975 9.07434C11.6412 10.4701 12.0195 11.0579 12.9654 11.8203C13.1475 11.9672 13.2182 11.9911 13.4692 11.9911C13.9388 11.9911 14.7944 11.8421 15.0566 11.7146C15.2728 11.6095 15.3225 11.5492 15.5222 11.1502C15.829 10.537 16.0915 9.87164 16.1752 9.49477C16.2889 8.983 16.2619 7.62919 16.1217 6.81449C16.0037 6.12913 15.6745 4.64183 15.4992 4.00282C15.4149 3.69554 15.393 3.66264 15.2806 3.67541C15.2119 3.68319 15.1379 3.6608 15.1163 3.62564C15.0882 3.58007 15.0463 3.59868 14.9703 3.69028C14.9058 3.76806 14.8629 3.79034 14.8619 3.74678C14.8605 3.68954 14.8444 3.68776 14.7838 3.73826C14.7209 3.79066 14.7014 3.77815 14.6737 3.66742C14.6441 3.54907 14.6309 3.54223 14.5631 3.61024C14.4667 3.70699 14.3888 3.70957 14.3888 3.61597C14.3888 3.5672 14.3454 3.55275 14.2524 3.57061C14.1707 3.58628 14.0986 3.56888 14.073 3.52726C14.0379 3.47018 14.0139 3.47129 13.9392 3.53319C13.869 3.59132 13.843 3.59358 13.8261 3.54297C13.814 3.50687 13.749 3.47728 13.6818 3.47728C13.6146 3.47728 13.5497 3.50687 13.5376 3.54297C13.5208 3.59305 13.4928 3.5899 13.42 3.52983C13.3471 3.46976 13.3192 3.46661 13.3024 3.51669C13.2762 3.59458 13.1319 3.60572 13.1319 3.52983C13.1319 3.46666 13.0107 3.4706 12.5404 3.54922ZM13.2679 3.62674C13.2498 3.65617 13.2605 3.69606 13.2917 3.7154C13.3722 3.76533 13.4242 3.69696 13.3569 3.62947C13.3193 3.59174 13.29 3.59085 13.2679 3.62674ZM12.3464 3.6875C12.3464 3.7164 12.3699 3.74005 12.3987 3.74005C12.4276 3.74005 12.4511 3.7164 12.4511 3.6875C12.4511 3.65859 12.4276 3.63494 12.3987 3.63494C12.3699 3.63494 12.3464 3.65859 12.3464 3.6875ZM14.0222 3.74315C14.0222 3.77374 14.0458 3.7842 14.0746 3.76633C14.1034 3.74846 14.127 3.72344 14.127 3.71067C14.127 3.6979 14.1034 3.6875 14.0746 3.6875C14.0458 3.6875 14.0222 3.71256 14.0222 3.74315ZM4.85739 3.7926C4.85739 3.82151 4.88237 3.84516 4.91285 3.84516C4.94333 3.84516 4.95375 3.82151 4.93595 3.7926C4.91814 3.7637 4.89321 3.74005 4.88049 3.74005C4.86776 3.74005 4.85739 3.7637 4.85739 3.7926ZM7.79014 3.84516C7.79014 3.87406 7.81371 3.89771 7.84251 3.89771C7.87132 3.89771 7.89488 3.87406 7.89488 3.84516C7.89488 3.81625 7.87132 3.7926 7.84251 3.7926C7.81371 3.7926 7.79014 3.81625 7.79014 3.84516ZM11.587 3.84516C11.6048 3.87406 11.6297 3.89771 11.6425 3.89771C11.6552 3.89771 11.6656 3.87406 11.6656 3.84516C11.6656 3.81625 11.6406 3.7926 11.6101 3.7926C11.5796 3.7926 11.5692 3.81625 11.587 3.84516ZM3.54933 4.64304C3.26261 5.85017 3.16493 6.64132 3.16451 7.76047C3.1642 8.66898 3.17635 8.80479 3.29953 9.26642C3.37394 9.54549 3.47345 9.84111 3.52069 9.92336C3.61789 10.0926 3.62496 10.1333 3.43689 9.44238C3.14304 8.36275 3.21867 6.42564 3.62527 4.61535C3.7022 4.27295 3.75395 3.98164 3.74033 3.96798C3.72671 3.95432 3.64077 4.25808 3.54933 4.64304ZM7.39736 4.00282C7.41517 4.03173 7.4401 4.05538 7.45282 4.05538C7.46555 4.05538 7.47592 4.03173 7.47592 4.00282C7.47592 3.97392 7.45094 3.95027 7.42046 3.95027C7.38998 3.95027 7.37956 3.97392 7.39736 4.00282ZM5.17162 4.05538C5.17162 4.08428 5.19518 4.10793 5.22399 4.10793C5.25279 4.10793 5.27636 4.08428 5.27636 4.05538C5.27636 4.02647 5.25279 4.00282 5.22399 4.00282C5.19518 4.00282 5.17162 4.02647 5.17162 4.05538ZM4.80502 4.16049C4.80502 4.18939 4.82859 4.21304 4.85739 4.21304C4.8862 4.21304 4.90976 4.18939 4.90976 4.16049C4.90976 4.13158 4.8862 4.10793 4.85739 4.10793C4.82859 4.10793 4.80502 4.13158 4.80502 4.16049ZM7.31881 4.3707C7.31881 4.39961 7.34237 4.42326 7.37118 4.42326C7.39998 4.42326 7.42355 4.39961 7.42355 4.3707C7.42355 4.3418 7.39998 4.31815 7.37118 4.31815C7.34237 4.31815 7.31881 4.3418 7.31881 4.3707ZM14.4936 4.3707C14.4936 4.39961 14.5171 4.42326 14.5459 4.42326C14.5747 4.42326 14.5983 4.39961 14.5983 4.3707C14.5983 4.3418 14.5747 4.31815 14.5459 4.31815C14.5171 4.31815 14.4936 4.3418 14.4936 4.3707ZM7.79014 4.58092C7.79014 4.60983 7.81512 4.63348 7.8456 4.63348C7.87608 4.63348 7.8865 4.60983 7.8687 4.58092C7.85089 4.55202 7.82596 4.52837 7.81324 4.52837C7.80051 4.52837 7.79014 4.55202 7.79014 4.58092ZM11.5608 4.58092C11.5608 4.60983 11.5844 4.63348 11.6132 4.63348C11.642 4.63348 11.6656 4.60983 11.6656 4.58092C11.6656 4.55202 11.642 4.52837 11.6132 4.52837C11.5844 4.52837 11.5608 4.55202 11.5608 4.58092ZM14.1793 4.63348C14.1793 4.66238 14.2029 4.68603 14.2317 4.68603C14.2605 4.68603 14.2841 4.66238 14.2841 4.63348C14.2841 4.60457 14.2605 4.58092 14.2317 4.58092C14.2029 4.58092 14.1793 4.60457 14.1793 4.63348ZM8.79943 4.8437C8.79943 4.97377 8.80964 5.02701 8.82216 4.96194C8.83462 4.89688 8.83462 4.79051 8.82216 4.72545C8.80964 4.66039 8.79943 4.71362 8.79943 4.8437ZM11.9798 4.68603C11.9798 4.71494 12.0034 4.73859 12.0322 4.73859C12.061 4.73859 12.0845 4.71494 12.0845 4.68603C12.0845 4.65713 12.061 4.63348 12.0322 4.63348C12.0034 4.63348 11.9798 4.65713 11.9798 4.68603ZM14.5721 4.73859C14.5899 4.76749 14.6149 4.79114 14.6276 4.79114C14.6403 4.79114 14.6507 4.76749 14.6507 4.73859C14.6507 4.70968 14.6257 4.68603 14.5952 4.68603C14.5647 4.68603 14.5543 4.70968 14.5721 4.73859ZM4.85739 5.16212C4.85739 5.19271 4.88096 5.20317 4.90976 5.1853C4.93857 5.16743 4.96213 5.14242 4.96213 5.12965C4.96213 5.11687 4.93857 5.10647 4.90976 5.10647C4.88096 5.10647 4.85739 5.13154 4.85739 5.16212ZM8.71202 5.5926C8.60252 6.9165 8.251 8.46465 7.85665 9.35945C7.7716 9.55237 7.75636 9.62359 7.80952 9.57928C7.93479 9.47496 8.20989 8.75833 8.37213 8.11348C8.58518 7.26693 8.87207 5.15902 8.77424 5.15902C8.75973 5.15902 8.73171 5.35411 8.71202 5.5926ZM11.6394 5.31669C11.6216 5.34559 11.632 5.36924 11.6625 5.36924C11.693 5.36924 11.7179 5.34559 11.7179 5.31669C11.7179 5.28778 11.7076 5.26413 11.6948 5.26413C11.6821 5.26413 11.6572 5.28778 11.6394 5.31669ZM5.06687 5.4218C5.06687 5.4507 5.09186 5.47435 5.12234 5.47435C5.15282 5.47435 5.16324 5.4507 5.14543 5.4218C5.12762 5.39289 5.10269 5.36924 5.08997 5.36924C5.07724 5.36924 5.06687 5.39289 5.06687 5.4218ZM10.6807 5.71085C10.6818 5.79756 10.6935 5.82668 10.7068 5.77554C10.7201 5.7244 10.7192 5.65346 10.7049 5.61788C10.6905 5.5823 10.6797 5.62413 10.6807 5.71085ZM12.0322 5.78968C12.0322 5.81858 12.0557 5.84223 12.0845 5.84223C12.1133 5.84223 12.1369 5.81858 12.1369 5.78968C12.1369 5.76077 12.1133 5.73712 12.0845 5.73712C12.0557 5.73712 12.0322 5.76077 12.0322 5.78968ZM10.7296 6.07873C10.7262 6.16544 10.7702 6.55566 10.8274 6.94588C11.0435 8.42019 11.4477 9.69821 11.9349 10.4471C12.2101 10.8702 12.5388 11.2554 12.6246 11.2554C12.6557 11.2554 12.6092 11.1785 12.5212 11.0846C11.6268 10.1292 11.1212 8.72674 10.7828 6.26267C10.7569 6.07479 10.7331 5.99201 10.7296 6.07873ZM14.415 5.9999C14.3972 6.0288 14.4076 6.05245 14.4381 6.05245C14.4686 6.05245 14.4936 6.0288 14.4936 5.9999C14.4936 5.97099 14.4832 5.94734 14.4705 5.94734C14.4578 5.94734 14.4328 5.97099 14.415 5.9999ZM11.3775 6.05245C11.3953 6.08136 11.4203 6.10501 11.433 6.10501C11.4457 6.10501 11.4561 6.08136 11.4561 6.05245C11.4561 6.02355 11.4311 5.9999 11.4006 5.9999C11.3701 5.9999 11.3597 6.02355 11.3775 6.05245ZM15.7243 6.68311C15.7421 6.71201 15.767 6.73566 15.7797 6.73566C15.7925 6.73566 15.8028 6.71201 15.8028 6.68311C15.8028 6.6542 15.7779 6.63055 15.7474 6.63055C15.7169 6.63055 15.7065 6.6542 15.7243 6.68311ZM15.6023 6.78821C15.6031 6.83157 15.6227 6.92617 15.6457 6.99843C15.6794 7.10407 15.6879 7.10922 15.6892 7.02471C15.69 6.9669 15.6705 6.8723 15.6457 6.81449C15.6181 6.75011 15.6013 6.73992 15.6023 6.78821ZM16.0543 7.36631C16.1163 8.123 16.0924 8.88798 15.9933 9.32345C15.9382 9.56551 15.7854 9.95783 15.6161 10.2923C15.4595 10.6014 15.3315 10.8659 15.3315 10.8801C15.3315 10.8942 15.3889 10.8516 15.4592 10.7854C15.6644 10.5919 15.9524 9.94454 16.0705 9.41085C16.1652 8.98321 16.1757 8.81051 16.149 8.12836C16.1319 7.69478 16.0954 7.24544 16.0678 7.12982C16.0308 6.97442 16.0273 7.03606 16.0543 7.36631ZM3.63082 7.3248C3.61134 7.39102 3.58159 7.68411 3.56463 7.97621C3.50995 8.92025 3.70597 9.76412 4.10975 10.3225C4.26885 10.5426 4.43843 10.6499 4.43843 10.5305C4.43843 10.5077 4.3484 10.2652 4.23837 9.99184C3.97751 9.34368 3.82753 8.81698 3.73761 8.23347C3.69754 7.97332 3.66209 7.82244 3.65884 7.89811C3.64172 8.29401 3.9242 9.42871 4.21145 10.118C4.28205 10.2873 4.32918 10.4365 4.31625 10.4495C4.24377 10.5222 3.85261 9.77274 3.73425 9.33427C3.61506 8.89276 3.57054 7.97521 3.64889 7.57559C3.71163 7.25558 3.69969 7.09046 3.63082 7.3248ZM15.66 7.52398C15.66 7.65405 15.6702 7.70729 15.6827 7.64223C15.6952 7.57716 15.6952 7.47079 15.6827 7.40573C15.6702 7.34067 15.66 7.39391 15.66 7.52398ZM15.815 7.68164C15.815 7.78281 15.8258 7.82417 15.8389 7.77361C15.8521 7.72306 15.8521 7.64023 15.8389 7.58967C15.8258 7.53911 15.815 7.58047 15.815 7.68164ZM15.8655 8.16562C15.8492 8.63992 15.7452 9.2463 15.6625 9.34862C15.5946 9.43271 15.5904 9.42088 15.6215 9.232C15.6979 8.76747 15.7333 8.22905 15.6923 8.15463C15.6652 8.10539 15.6476 8.19421 15.6455 8.39113C15.6436 8.56456 15.6086 8.89476 15.5677 9.12495C15.5269 9.35514 15.5062 9.55616 15.5217 9.57166C15.5372 9.58717 15.6044 9.53634 15.671 9.45867C15.8234 9.28098 15.9237 8.7352 15.896 8.23347C15.876 7.87131 15.8756 7.87026 15.8655 8.16562ZM12.3202 8.15463C12.338 8.18354 12.3629 8.20719 12.3757 8.20719C12.3884 8.20719 12.3987 8.18354 12.3987 8.15463C12.3987 8.12573 12.3738 8.10208 12.3433 8.10208C12.3128 8.10208 12.3024 8.12573 12.3202 8.15463ZM4.12368 11.2083C4.31127 11.3674 4.68358 11.5476 5.03875 11.6512C5.38204 11.7514 6.01902 11.7392 6.1953 11.6291C6.28004 11.5762 6.2472 11.5707 6.00394 11.5971C5.51857 11.6497 4.68923 11.4776 4.2357 11.23C4.03125 11.1184 4.0137 11.115 4.12368 11.2083ZM14.8324 11.4659C14.4233 11.634 13.9596 11.7239 13.4462 11.7346L13.1058 11.7418L13.4723 11.7928C13.7259 11.8281 13.95 11.8255 14.199 11.7845C14.5701 11.7234 15.0624 11.5222 15.1754 11.3855C15.2552 11.289 15.2727 11.2849 14.8324 11.4659ZM4.20397 11.6571C4.22758 11.7107 4.30546 11.9262 4.3771 12.1359L4.50735 12.5172L4.59884 12.3662C4.75412 12.1099 5.08845 12.1049 5.22278 12.3567C5.30553 12.5119 5.28673 12.7854 5.16984 13.1259C5.06546 13.43 4.69541 15.4352 4.70526 15.6432C4.70803 15.7013 4.77847 15.3822 4.86174 14.9342C5.16371 13.3104 5.39026 12.6361 5.7811 12.1983C5.91826 12.0447 5.94963 11.9857 5.87862 12.015C5.82101 12.0388 5.6407 12.0695 5.47788 12.0832C5.10678 12.1145 4.73076 11.9959 4.40182 11.744C4.23486 11.616 4.17422 11.5894 4.20397 11.6571ZM14.834 11.9906C14.4639 12.2102 14.0947 12.2848 13.7201 12.2157C13.555 12.1853 13.4166 12.1637 13.4124 12.1678C13.4082 12.1717 13.5073 12.2914 13.6325 12.4336L13.8602 12.6921L13.9543 12.5783C14.0061 12.5157 14.1226 12.4501 14.2132 12.4325C14.4571 12.3853 14.5986 12.5469 14.5974 12.8714C14.5969 13.0087 14.8724 14.8536 15.2095 16.9712L15.8225 20.8213L15.7158 20.9653C15.6469 21.0584 15.5508 21.1152 15.4441 21.1258C15.3146 21.1387 15.279 21.167 15.2784 21.2572C15.278 21.3204 15.2639 21.4235 15.2472 21.4864C15.1774 21.7475 15.8091 21.8658 16.0859 21.6435L16.2382 21.5213L16.1026 21.2365C15.945 20.9055 15.7726 20.0387 15.3612 17.5093C14.6046 12.8575 14.6087 12.9072 14.9301 12.2281C15.0328 12.0111 15.1121 11.8339 15.1064 11.8343C15.1005 11.8348 14.978 11.9052 14.834 11.9906ZM4.74202 12.3459C4.59617 12.5151 4.54317 12.7907 4.54317 13.3803C4.54317 13.7525 4.49646 14.2519 4.41481 14.7521C4.34421 15.1846 4.20208 16.0943 4.09902 16.7736C3.87204 18.269 3.57473 20.0558 3.46879 20.5613C3.38541 20.9589 3.41191 21.0869 3.59825 21.187C3.73755 21.2618 3.75463 21.2565 3.80836 21.1225L3.8557 21.0042L3.85905 21.1206C3.86576 21.3562 3.48633 21.4068 3.41453 21.1798C3.38662 21.0915 3.34828 21.1378 3.20563 21.4321C3.10947 21.6304 3.05009 21.8121 3.07365 21.8361C3.14561 21.9093 3.54263 21.9796 3.69367 21.9459C3.99904 21.8778 4.02722 21.8623 3.99564 21.7798C3.91519 21.5694 3.98092 20.7649 4.20224 19.2508C4.33473 18.3442 4.43539 17.5791 4.42596 17.5506C4.41648 17.5221 4.29169 18.2723 4.14861 19.2179C4.00559 20.1635 3.88183 20.893 3.87361 20.8393C3.85041 20.6868 4.39742 16.8367 4.64917 15.3809C4.82293 14.3761 5.06064 13.1957 5.14569 12.9156C5.24839 12.5772 5.24472 12.5063 5.1172 12.3689C4.98837 12.2301 4.84912 12.2216 4.74202 12.3459ZM14.0402 12.6533C13.9635 12.7707 13.9599 12.8205 14.014 13.008C14.1237 13.3876 14.6729 16.3353 15.0193 18.4028C15.1686 19.2943 15.3291 20.5346 15.3305 20.8071C15.3314 21.0049 15.3453 21.0305 15.452 21.0305C15.7407 21.0305 15.7544 20.8717 15.5652 19.7148C15.4921 19.2678 15.2569 17.7905 15.0426 16.432C14.8283 15.0734 14.6289 13.8345 14.5995 13.6789C14.57 13.5231 14.5459 13.2437 14.5459 13.0579C14.5459 12.6381 14.487 12.5167 14.2835 12.5167C14.1753 12.5167 14.1028 12.5574 14.0402 12.6533ZM4.62371 16.0661C4.6035 16.2289 4.59779 16.3729 4.61109 16.3863C4.62434 16.3996 4.65184 16.2774 4.67211 16.1147C4.69232 15.9519 4.69803 15.8078 4.68473 15.7945C4.67148 15.7811 4.64398 15.9034 4.62371 16.0661ZM4.55532 16.6159C4.55532 16.7171 4.56611 16.7584 4.57925 16.7079C4.59245 16.6573 4.59245 16.5745 4.57925 16.5239C4.56611 16.4734 4.55532 16.5148 4.55532 16.6159ZM4.50101 16.9575C4.50206 17.0442 4.51379 17.0734 4.52709 17.0222C4.54039 16.9711 4.5395 16.9001 4.52515 16.8646C4.5108 16.829 4.49996 16.8708 4.50101 16.9575ZM4.45058 17.2991C4.45058 17.4003 4.46137 17.4417 4.47451 17.3911C4.48771 17.3405 4.48771 17.2577 4.47451 17.2072C4.46137 17.1566 4.45058 17.198 4.45058 17.2991ZM16.1956 21.7695C15.9611 21.8735 15.4172 21.929 15.2452 21.8664C15.0427 21.7928 15.0651 21.8862 15.2723 21.9793C15.7338 22.1866 16.0292 22.1554 16.301 21.8707C16.3828 21.785 16.4398 21.7062 16.4275 21.6957C16.4152 21.6852 16.3108 21.7184 16.1956 21.7695ZM2.84463 21.9726C2.76011 22.0664 2.76488 22.078 2.94472 22.2157C3.19337 22.406 3.5531 22.4435 3.90671 22.3159C4.28168 22.1806 4.20276 22.1038 3.69084 22.106C3.32765 22.1076 3.23448 22.0895 3.0968 21.991C2.93749 21.8769 2.93131 21.8765 2.84463 21.9726ZM16.5151 21.9503C16.3598 22.0682 15.9681 22.1827 15.5399 22.2352L15.1482 22.2832L15.4993 22.2744C15.6924 22.2695 15.8328 22.2831 15.8113 22.3046C15.7362 22.3795 15.1361 22.4121 14.9609 22.3508C14.8092 22.2977 14.7751 22.3044 14.6653 22.4079L14.5412 22.5248L14.7399 22.5867L14.9387 22.6487L14.6719 22.6542C14.4769 22.6582 14.3797 22.6878 14.3107 22.7643C14.2186 22.8664 14.2212 22.871 14.4205 22.9611C14.5819 23.0342 14.7685 23.0534 15.3144 23.0533C15.6939 23.0532 15.9962 23.0612 15.9863 23.0712C15.9287 23.129 15.1873 23.1785 14.8087 23.1499C14.4183 23.1203 14.3471 23.0989 14.2218 22.9731L14.0791 22.83L13.6579 23.0004C13.4262 23.0941 13.2367 23.1607 13.2367 23.1483C13.2367 23.1185 14.1022 22.7122 14.1658 22.7122C14.1932 22.7122 14.2582 22.6649 14.3103 22.6071C14.3624 22.5493 14.3942 22.502 14.3809 22.502C14.3292 22.502 13.4094 22.8868 13.1693 23.0089C12.6891 23.2531 12.992 23.3882 14.0298 23.3925C15.3344 23.3979 16.447 23.2311 17.5589 22.8633C18.1917 22.6541 18.7899 22.3647 18.8283 22.2492C18.8396 22.2152 18.7876 22.164 18.7129 22.1355C18.5726 22.0819 17.5938 21.9753 17.2692 21.9782C17.0967 21.9797 17.0919 21.9844 17.1876 22.057C17.2579 22.1104 17.4432 22.1371 17.7898 22.1438L18.2904 22.1534L17.8715 22.1844C17.5913 22.2052 17.4829 22.23 17.5442 22.2593C17.7717 22.368 17.5975 22.6045 17.1698 22.7676C16.7943 22.9108 16.7216 22.8927 17.0335 22.7337C17.2906 22.6027 17.5744 22.3686 17.5283 22.3258C17.4994 22.299 16.6486 21.8707 16.6288 21.8731C16.621 21.8739 16.5699 21.9087 16.5151 21.9503ZM0.955787 22.2438C0.40752 22.2796 0.248785 22.3214 0.248785 22.4298C0.248785 22.473 0.272091 22.4938 0.30058 22.4761C0.329122 22.4584 0.339596 22.4773 0.323937 22.5183C0.283926 22.6229 1.00151 22.988 1.5747 23.1547C2.68087 23.4764 4.32756 23.7167 5.34858 23.7055C6.23353 23.6959 6.30633 23.5835 5.64295 23.2515C5.23216 23.0458 5.05294 22.9785 5.13485 23.0607C5.20524 23.1314 5.05656 23.2883 4.86986 23.3403C4.76218 23.3703 4.5327 23.3916 4.35987 23.3877L4.04565 23.3805L4.38606 23.345C4.75255 23.3066 4.96213 23.2224 4.96213 23.1133C4.96213 23.0759 4.8631 22.9653 4.74213 22.8677C4.53118 22.6976 4.50572 22.6908 4.12677 22.7028C3.90933 22.7097 3.69608 22.6913 3.65287 22.6621C3.59301 22.6214 3.62417 22.6071 3.7838 22.6018C3.97992 22.5953 3.9749 22.5919 3.70524 22.5493C3.26082 22.479 2.79855 22.3423 2.69585 22.2509C2.63039 22.1926 2.58661 22.1846 2.54743 22.2239C2.48564 22.2859 2.67537 22.4495 2.80913 22.4495C2.85071 22.4495 2.87056 22.4637 2.85322 22.4811C2.83589 22.4985 2.70517 22.4739 2.56267 22.4264C2.35131 22.3559 2.24342 22.3498 1.97628 22.393C1.79623 22.4221 1.63833 22.4565 1.62545 22.4694C1.55653 22.5386 1.75549 22.7256 2.05567 22.8739C2.24285 22.9663 2.39598 23.0495 2.39598 23.0587C2.39598 23.0968 1.93768 22.9093 1.72485 22.7841C1.53082 22.67 1.49934 22.6288 1.52071 22.5166L1.546 22.3839L0.967571 22.4079C0.621873 22.4221 0.437215 22.4139 0.508701 22.3874C0.574531 22.3629 0.944475 22.3277 1.33086 22.3092C1.7172 22.2906 2.04237 22.2607 2.05337 22.2428C2.07819 22.2026 1.57999 22.203 0.955787 22.2438ZM18.6604 22.5543C18.3479 22.7382 17.3195 23.0869 16.6505 23.236C16.3821 23.2958 15.8636 23.3801 15.4983 23.4235C14.7309 23.5145 13.2199 23.5315 13.0101 23.4515C12.8798 23.4018 12.8718 23.4056 12.9193 23.4946C12.9988 23.6436 13.3713 23.7108 14.1184 23.7108C15.3507 23.7108 16.4436 23.5489 17.5049 23.2093C18.1473 23.0037 18.7618 22.6932 18.8801 22.5145C18.9765 22.3687 18.9756 22.3689 18.6604 22.5543ZM4.7019 22.6495C4.70442 22.7049 4.914 22.8414 5.11925 22.9215C5.5402 23.0857 6.00588 23.3479 6.10811 23.4784C6.20122 23.5971 6.22259 23.605 6.25087 23.531C6.31921 23.3523 6.0639 23.1883 5.05378 22.7622C4.85938 22.6802 4.70101 22.6295 4.7019 22.6495ZM0.188769 22.7505C0.349808 23.0524 1.0511 23.3508 2.21268 23.6115C3.82197 23.9728 6.08071 24.083 6.24977 23.8085C6.2682 23.7786 6.2218 23.7755 6.13178 23.8007C5.9147 23.8614 4.89091 23.8299 4.01946 23.7356C2.52565 23.5741 0.770239 23.14 0.369604 22.8332C0.226633 22.7237 0.157661 22.6921 0.188769 22.7505ZM3.85256 23.3262C3.89032 23.3414 3.93551 23.3395 3.9529 23.3221C3.97029 23.3046 3.93939 23.2922 3.88419 23.2945C3.82318 23.297 3.81077 23.3095 3.85256 23.3262Z" fill="#1D6235" stroke="#1D6235" stroke-width="0.0937307"/>
</svg>
