<svg width="5" height="594" viewBox="0 0 5 594" fill="none" xmlns="http://www.w3.org/2000/svg">
<g filter="url(#filter0_g_522_2040)">
<path d="M2.60319 332.38C2.54003 345.406 2.81922 355.659 2.77975 371.534C2.74029 387.41 2.5922 389.788 2.62552 407.969C2.65883 426.15 2.55754 444.341 2.61839 452.436C2.67925 460.531 2.49524 461.385 2.53611 472.881C2.57697 484.376 2.55295 491.343 2.49314 501.396C2.43333 511.45 2.38227 542.337 2.45574 553.569C2.52922 564.8 2.40173 577.61 2.37149 585.314C2.36207 587.714 2.34919 589.602 2.33578 591.05C2.33009 591.663 2.31819 591.947 2.30645 591.947C2.30645 591.947 2.30644 591.947 2.30643 591.947C2.29181 591.947 2.27744 591.508 2.27559 590.719C2.26662 586.893 2.24296 581.174 2.18995 574.419C2.09109 561.822 2.20033 560.446 2.14953 543.436C2.09873 526.427 1.99718 516.208 2.06285 496.194C2.12851 476.181 1.8537 471.583 2.00944 443.332C2.16518 415.082 1.87777 412.109 1.83955 383.956C1.80134 355.804 1.95991 320.266 1.94676 303.296C1.93362 286.325 1.90014 263.532 1.93807 239.473C1.976 215.415 1.88025 185.716 1.94792 159.159C2.0156 132.603 2.10107 95.0583 2.15835 77.713C2.21562 60.3684 2.22854 56.1408 2.19354 39.4458C2.17343 29.8493 2.19239 16.6292 2.26637 5.46255C2.3036 -0.157243 2.35544 1.1162 2.38025 6.77271C2.41652 15.0444 2.39229 21.8345 2.45708 26.0965C2.58656 34.6129 2.63623 38.2325 2.56087 48.9839C2.48551 59.7347 2.65677 64.8005 2.63706 71.0676C2.61734 77.335 2.51632 77.2319 2.59415 109.098C2.67198 140.966 2.69184 158.435 2.71052 170.503C2.72921 182.571 2.64154 207.769 2.67318 227.437C2.70482 247.104 2.67582 287.088 2.72763 303.206C2.77943 319.323 2.66636 319.356 2.60319 332.38Z" fill="#D4AF37"/>
</g>
<defs>
<filter id="filter0_g_522_2040" x="0.000211239" y="0.000211239" width="4.61677" height="593.781" filterUnits="userSpaceOnUse" color-interpolation-filters="sRGB">
<feFlood flood-opacity="0" result="BackgroundImageFix"/>
<feBlend mode="normal" in="SourceGraphic" in2="BackgroundImageFix" result="shape"/>
<feTurbulence type="fractalNoise" baseFrequency="4.3625898361206055 4.3625898361206055" numOctaves="3" seed="8102" />
<feDisplacementMap in="shape" scale="3.667546272277832" xChannelSelector="R" yChannelSelector="G" result="displacedImage" width="100%" height="100%" />
<feMerge result="effect1_texture_522_2040">
<feMergeNode in="displacedImage"/>
</feMerge>
</filter>
</defs>
</svg>
