<svg width="105" height="16" viewBox="0 0 105 16" fill="none" xmlns="http://www.w3.org/2000/svg">
<path fill-rule="evenodd" clip-rule="evenodd" d="M101.936 14.9787C105.25 13.2113 105.611 8.03311 102.621 5.15398C99.7484 2.38713 93.0276 2.11174 85.6428 4.45759C85.0276 4.65325 85.0154 4.57149 85.5135 3.58181C86.484 1.65128 85.2047 -0.20929 83.2538 0.295919C82.1235 0.588387 81.4661 2.01778 82.1417 2.71458C82.4567 3.03959 82.5751 2.93098 82.5751 2.31635C82.5751 1.05903 83.5184 0.397209 84.5216 0.951231C86.1219 1.83433 85.0982 3.79415 82.4213 4.97257C80.923 5.63181 21.3513 6.33409 15.9161 6.11359C15.8698 6.11171 15.8271 6.10976 15.7882 6.10775C15.7714 6.10688 10.1488 6.19295 9.3259 6.11359C8.503 6.03422 6.0344 5.21135 4.93724 3.8399C3.84007 2.46844 0 -0.000179507 0 -0.000179507C0 -0.000179507 0.274291 3.5656 4.38866 4.66277C5.79226 5.03706 7.38696 5.17302 9.3259 5.48564C11.8846 5.89819 13.3243 6.39254 15.9089 6.8571C36.38 10.5366 63.0869 4.61379 72.6871 4.61379C82.2873 4.61379 87.4116 5.72712 88.6786 6.32264C89.706 6.80547 90.3559 8.29059 89.8846 9.07728C89.4969 9.72445 87.7093 9.59347 87.451 8.89952C87.3264 8.56516 87.0542 8.40042 86.846 8.53302C86.247 8.91498 87.7215 10.3208 88.7208 10.3208C89.2138 10.3208 89.896 10.0332 90.2372 9.68175C91.52 8.35812 90.7226 6.537 88.3628 5.40211L86.7159 4.60973L88.207 4.79765C89.0272 4.90097 90.658 5.45377 91.8304 6.0261C94.2751 7.21916 95.9834 7.38756 95.9834 6.43572C95.9834 5.56035 93.62 4.62843 91.3623 4.61379C88.3647 4.59386 91.5177 2.17856 95.179 1.91986C100.067 1.5741 101.505 4.62802 101.505 7.68165C101.505 9.07281 100.345 10.5827 100.026 9.60649C99.8502 9.06549 99.1384 9.30793 99.1384 9.90913C99.1384 10.4575 100.316 11.5411 100.913 11.5411C102.545 11.5411 103.213 8.72502 102.101 6.52683C101.695 5.72224 101.663 5.42611 101.997 5.54123C102.26 5.63153 102.895 6.54677 103.408 7.57549C104.504 9.77246 105.482 12.393 103.956 14.263C102.267 16.3338 98.3059 14.6932 97.6015 12.1508C97.3097 11.0969 97.2222 11.0343 96.9579 11.6904C96.517 12.7862 97.2198 14.4926 98.3563 15.0857C99.655 15.7634 100.513 15.7382 101.936 14.9787Z" fill="#D4AF37"/>
</svg>
