<svg width="5" height="596" viewBox="0 0 5 596" fill="none" xmlns="http://www.w3.org/2000/svg">
<g filter="url(#filter0_g_522_2039)">
<path d="M2.60317 333.599C2.54 346.672 2.81919 356.963 2.77973 372.897C2.74026 388.832 2.59217 391.218 2.62549 409.467C2.6588 427.714 2.55751 445.972 2.61835 454.097C2.67922 462.222 2.4952 463.08 2.53607 474.618C2.57694 486.155 2.55292 493.148 2.49311 503.238C2.43329 513.329 2.38223 544.33 2.4557 555.603C2.52918 566.876 2.40169 579.733 2.37145 587.465C2.36203 589.874 2.34914 591.769 2.33573 593.223C2.33005 593.838 2.31815 594.122 2.30641 594.123C2.3064 594.123 2.30639 594.123 2.30639 594.123C2.29177 594.122 2.27739 593.682 2.27555 592.89C2.26658 589.05 2.24292 583.31 2.1899 576.53C2.09105 563.887 2.20029 562.505 2.14949 545.433C2.0987 528.361 1.99714 518.104 2.06281 498.016C2.12848 477.929 1.85367 473.315 2.00941 444.96C2.16515 416.606 1.87774 413.621 1.83953 385.365C1.80131 357.109 1.95989 321.44 1.94674 304.407C1.93359 287.374 1.90012 264.496 1.93805 240.35C1.97598 216.202 1.88024 186.394 1.94791 159.739C2.01559 133.085 2.10106 95.402 2.15834 77.9927C2.21562 60.5842 2.22853 56.3411 2.19354 39.5845C2.17342 29.9526 2.19239 16.6838 2.26637 5.47592C2.3036 -0.164585 2.35544 1.11356 2.38025 6.79092C2.41652 15.0931 2.39229 21.9082 2.45707 26.186C2.58656 34.7338 2.63623 38.3667 2.56086 49.1577C2.48551 59.9482 2.65676 65.0327 2.63705 71.3229C2.61733 77.6133 2.51632 77.5098 2.59414 109.494C2.67197 141.478 2.69183 159.012 2.71051 171.125C2.72919 183.237 2.64152 208.528 2.67316 228.268C2.7048 248.008 2.6758 288.139 2.7276 304.317C2.7794 320.493 2.66634 320.527 2.60317 333.599Z" fill="#D4AF37"/>
</g>
<defs>
<filter id="filter0_g_522_2039" x="0.000211239" y="0.000211239" width="4.61677" height="595.957" filterUnits="userSpaceOnUse" color-interpolation-filters="sRGB">
<feFlood flood-opacity="0" result="BackgroundImageFix"/>
<feBlend mode="normal" in="SourceGraphic" in2="BackgroundImageFix" result="shape"/>
<feTurbulence type="fractalNoise" baseFrequency="4.3625898361206055 4.3625898361206055" numOctaves="3" seed="8102" />
<feDisplacementMap in="shape" scale="3.667546272277832" xChannelSelector="R" yChannelSelector="G" result="displacedImage" width="100%" height="100%" />
<feMerge result="effect1_texture_522_2039">
<feMergeNode in="displacedImage"/>
</feMerge>
</filter>
</defs>
</svg>
