<svg width="67" height="65" viewBox="0 0 67 65" fill="none" xmlns="http://www.w3.org/2000/svg">
<g filter="url(#filter0_g_522_2038)">
<path fill-rule="evenodd" clip-rule="evenodd" d="M1.03682 36.9465C1.1507 36.9136 1.54525 36.8638 1.91355 36.8358C3.54891 36.7112 4.85157 37.3827 5.7292 38.8027L6.03423 39.2962L6.20981 38.6882C6.30638 38.3538 6.49247 37.8962 6.62325 37.6713C6.90914 37.1795 7.83142 36.2568 8.28651 36.007L8.61481 35.8268L8.22481 36.6273C8.01031 37.0675 7.73295 37.7626 7.60839 38.172C7.39993 38.8573 7.38162 39.0312 7.37723 40.3637C7.37309 41.6372 7.39538 41.89 7.563 42.468C8.03565 44.0983 8.99462 45.3186 10.3126 45.9671C11.3766 46.4906 12.259 46.677 13.7082 46.6844C14.91 46.6906 15.9027 46.6118 16.0916 46.4952C16.1544 46.4564 16.2229 46.0319 16.2744 45.3627C16.3196 44.774 16.383 44.0689 16.4153 43.796L16.474 43.2997L16.5327 43.7133C16.5649 43.9407 16.6192 44.6213 16.6533 45.2256C16.6873 45.8299 16.742 46.3411 16.7748 46.3612C16.8077 46.3815 17.1827 46.3076 17.6081 46.1968C18.0335 46.0862 18.3945 46.0085 18.4104 46.0243C18.4521 46.066 17.5979 46.749 17.1532 47.0297L16.7729 47.2696L16.7727 47.8306L16.7725 48.3918L17.1822 48.3376C17.7124 48.2673 17.9463 48.3311 18.302 48.643C18.6592 48.9561 18.8038 49.4144 18.6832 49.8507C18.6369 50.018 18.6168 50.1726 18.6383 50.1942C18.6599 50.2157 18.8743 50.2497 19.1148 50.2695L19.5521 50.3058L19.9859 49.5968C20.4693 48.8068 20.8694 48.312 20.7978 48.5929C20.679 49.0582 20.4923 50.226 20.5305 50.2642C20.5546 50.2883 21.0327 50.3397 21.5929 50.3783C22.8588 50.4656 23.7425 50.5508 23.711 50.5824C23.6767 50.6166 22.177 50.7672 21.2324 50.8313L20.4333 50.8857L20.3985 51.5587C20.3479 52.5389 20.4717 54.027 20.6673 54.7917C21.2382 57.0232 22.5942 58.4081 24.7646 58.9767C25.7864 59.2443 27.4652 59.2252 28.5743 58.9335C29.3584 58.7271 30.7392 58.1237 31.3281 57.73C31.4761 57.6311 31.5972 57.5863 31.5972 57.6305C31.5972 57.8523 31.0876 58.5818 30.567 59.1051C29.9545 59.7208 29.5362 59.9818 28.7874 60.2156L28.338 60.3559L28.898 60.6228C29.9473 61.1229 30.7762 62.1575 31.0079 63.2564C31.1252 63.8127 31.1325 65.3703 31.0175 65.2993C30.9719 65.2711 30.9347 65.1852 30.9346 65.1083C30.9346 65.0314 30.8223 64.7315 30.6851 64.4419C30.0232 63.0448 28.4006 62.1523 25.7596 61.7327C21.7403 61.094 18.7469 58.2335 18.5372 54.8308C18.4661 53.6756 18.7209 52.283 19.2289 51.0509C19.2633 50.9674 19.0328 50.95 18.1335 50.9682L16.9944 50.9913L16.8446 51.5223C16.5826 52.4507 16.3583 53.9986 16.3598 54.8681C16.3622 56.2699 16.6645 57.2546 17.3123 57.9705C17.4693 58.1441 17.5736 58.3103 17.544 58.3397C17.4593 58.4244 16.3491 58.4013 16.0125 58.308C15.8449 58.2616 15.529 58.1036 15.3103 57.957C14.0597 57.1183 14.0327 54.6745 15.246 52.1156C15.4488 51.6877 15.5992 51.3221 15.5802 51.3031C15.5612 51.2841 15.4397 51.3225 15.3102 51.3884C14.9626 51.5652 13.4107 52.0735 12.8386 52.1979C12.5653 52.2573 11.9317 52.3052 11.4307 52.3045C10.6784 52.3033 10.4348 52.2699 10.0326 52.1128C9.03197 51.7218 8.55162 50.9948 8.55162 49.8716C8.55162 49.5278 8.57704 49.1666 8.60809 49.0688C8.66159 48.9005 8.67973 48.9079 8.95097 49.2077C9.37301 49.6741 10.2177 50.0842 11.0994 50.2508C12.2001 50.4586 14.4277 50.3171 15.7948 49.9524L16.1008 49.8709L16.1261 48.7905C16.14 48.1963 16.1416 47.7005 16.1297 47.6887C16.1178 47.677 15.8941 47.7689 15.6328 47.8929C14.0016 48.6673 12.134 48.8927 10.6025 48.5001C8.43881 47.9453 6.44866 46.0824 5.37996 43.6115C5.22708 43.2581 4.98764 42.5126 4.84784 41.9547C4.35374 39.9829 3.92457 39.0576 3.0914 38.1682C2.55556 37.5962 1.83818 37.1829 1.1815 37.0679C0.865296 37.0125 0.850724 37.0003 1.03682 36.9465ZM5.75206 31.955C6.20923 30.6867 7.3774 29.7651 8.88745 29.4812C10.3958 29.1976 11.7571 29.7678 12.5562 31.0181L12.794 31.3902L12.7948 30.8526C12.7978 28.7092 12.315 25.1854 11.6301 22.3516C11.2327 20.7077 10.3172 17.7896 10.1337 17.5826C10.0955 17.5395 10.0641 19.9046 10.0641 22.8385C10.0641 26.8773 10.0401 28.1971 9.96477 28.2723C9.82124 28.4156 9.61361 28.3943 9.45584 28.2202C9.33087 28.0823 9.31877 27.518 9.31877 21.8094L9.31877 15.5497L8.8236 14.5632C7.80218 12.5284 7.01465 10.4653 6.61256 8.77042C6.45918 8.12392 6.39499 7.57443 6.36154 6.62001C6.30712 5.06656 6.42863 4.34819 6.91942 3.32199C7.6681 1.75671 9.50247 0.539212 10.3797 1.02535C10.8668 1.29522 11.0281 1.95652 10.726 2.44464C10.5308 2.76 10.3816 2.82386 9.27737 3.06444C8.40395 3.25483 7.5881 3.57018 7.38287 3.79679C7.31545 3.87123 7.18303 4.21056 7.08861 4.55081C6.70367 5.93852 6.92901 8.08719 7.69832 10.3627C8.13197 11.6457 9.18734 14.0638 9.3134 14.0634C9.33915 14.0634 9.37327 12.0257 9.38925 9.53528C9.41501 5.51698 9.43315 4.99568 9.55001 4.90396C9.72103 4.76973 9.77676 4.77354 9.93404 4.93052C10.0497 5.04597 10.0642 5.65467 10.0642 10.3836L10.0642 15.7067L10.5516 16.9321C11.9714 20.5013 12.9583 24.7163 13.2977 28.661C13.4132 30.0036 13.4124 32.9092 13.2962 33.7887C13.2481 34.1526 13.1859 34.7316 13.1579 35.0753C13.0649 36.2181 13.4923 37.6525 14.0498 38.0681C14.6714 38.5316 15.8638 38.1788 15.9957 37.4924C16.0396 37.2636 16.0175 37.213 15.8375 37.1311C15.6696 37.0547 15.575 37.0624 15.3595 37.1697C15.0327 37.3325 14.59 37.3437 14.4642 37.1924C14.4133 37.1312 14.3496 36.9705 14.3225 36.8353C14.2635 36.5405 14.5541 36.1443 14.9493 35.9809C15.2902 35.8398 16.0262 35.9104 16.2965 36.1099C16.8095 36.489 16.9916 37.2313 16.7267 37.8645C16.4418 38.5459 15.8071 38.9529 15.025 38.9559C13.8599 38.9605 13.2786 38.3671 12.9609 36.8488L12.8572 36.3525L12.6868 36.8074C12.5443 37.1879 12.5159 37.4583 12.5137 38.4615C12.511 39.6334 12.5172 39.6758 12.7851 40.3224C13.102 41.0871 13.3696 41.4708 13.7084 41.6457C14.0651 41.8299 14.3722 41.7993 14.6287 41.5539C14.7527 41.4352 14.8945 41.3629 14.9438 41.3934C14.993 41.4237 15.0333 41.6757 15.0333 41.9534C15.0333 42.9327 14.3312 43.6352 13.3656 43.622C12.9066 43.6158 12.8964 43.6207 12.8471 43.8712C12.6945 44.6471 12.4085 45.5249 12.2826 45.6042C11.967 45.8028 11.287 44.7908 11.0119 43.7133C10.9034 43.2884 10.8513 42.6609 10.8161 41.3562L10.7681 39.578L10.2712 39.5297C9.65784 39.4702 9.33724 39.309 8.96264 38.8719C8.6399 38.4954 8.5276 38.0962 8.65232 37.7687C8.74293 37.5307 8.98998 37.4795 9.14551 37.6666C9.30726 37.8612 9.90986 37.9716 10.2695 37.8725C11.0938 37.6452 11.5861 37.0514 11.9736 35.8171C12.4899 34.173 12.5125 32.8755 12.0413 31.9484C10.895 29.6931 7.27122 29.5538 6.20799 31.724C5.95746 32.2352 5.98189 32.5431 6.29636 32.8381C6.50357 33.0324 6.58515 33.0344 7.60209 32.8696C8.67369 32.696 9.06791 34.0322 8.0899 34.5228C7.44407 34.8469 6.73332 34.726 6.2099 34.2034C5.61865 33.613 5.45101 32.7899 5.75206 31.955ZM9.47455 55.7055C9.69651 55.3506 10.1184 54.9758 10.6439 54.6669C11.1695 54.3578 12.6614 53.8138 12.697 53.9182C12.7363 54.0333 12.3148 55.0847 12.0139 55.6221C11.4793 56.5768 10.8249 57.1528 10.2752 57.1528C9.53782 57.1528 9.08323 56.3311 9.47455 55.7055ZM21.2024 54.1763C21.2702 54.12 21.7228 53.9712 22.2082 53.8455L23.0907 53.6169L23.1037 53.1116C23.1143 52.6966 23.1609 52.5435 23.364 52.2549C23.7927 51.6458 24.4381 51.3523 25.0527 51.4871C25.3448 51.5512 25.3868 51.7676 25.1373 51.9232C24.8968 52.0733 24.9169 52.568 25.1794 52.9536C25.4388 53.3348 26.3104 53.7645 27.2424 53.9706C28.0243 54.1434 29.0537 54.0992 29.8191 53.8598L30.3135 53.7052L29.9408 53.6093C28.8718 53.3343 28.6797 53.248 28.2864 52.8665C27.9596 52.5493 27.8699 52.3965 27.7856 52.015C27.5209 50.8148 28.3379 49.6927 29.4843 49.6821C30.2794 49.6747 30.78 50.1436 30.8321 50.9446C30.8678 51.4958 30.6793 51.9039 30.281 52.1375C30.0544 52.2704 29.9845 52.2771 29.7658 52.1866C29.4201 52.0436 29.3303 51.7745 29.4929 51.3688C29.6708 50.9245 29.6229 50.5856 29.377 50.5507C28.7206 50.4579 28.196 51.7191 28.6117 52.3907C29.0449 53.0908 30.7907 53.5678 31.9756 53.3099C34.2598 52.8129 38.5664 53.0113 42.6087 53.7999C45.2302 54.3113 47.3441 54.93 50.0064 55.9648L51.1478 56.4085L56.8432 56.4085C61.1626 56.4085 62.5626 56.4325 62.638 56.5077C62.7901 56.6596 62.7562 56.9715 62.5772 57.0672C62.4723 57.1232 60.7322 57.1552 57.5459 57.1597L52.6748 57.1665L53.6167 57.6159C57.1475 59.3006 60.448 59.9294 62.3788 59.2851C62.9407 59.0976 62.9462 59.0928 63.2133 58.5588C63.3744 58.2364 63.5521 57.6736 63.6573 57.1528C63.8778 56.0604 63.9835 55.8551 64.4264 55.6595C65.3118 55.2684 66.0811 56.0322 65.8025 57.0259C65.5566 57.9028 64.5114 59.0597 63.5284 59.543C62.5808 60.0089 61.8544 60.1551 60.5012 60.1525C58.2143 60.1479 56.0062 59.4964 52.4032 57.7634L51.1341 57.1528L45.2711 57.1528C39.5886 57.1528 39.4035 57.1479 39.2636 56.9935C39.081 56.7921 39.1225 56.5636 39.3638 56.4435C39.498 56.3767 40.8754 56.3586 44.2365 56.3794C46.8137 56.3955 48.9613 56.3844 49.0092 56.3549C49.1174 56.2881 48.4257 56.0318 46.7118 55.5037C43.3062 54.4543 39.9491 53.8634 36.5043 53.7071C35.8551 53.6776 35.3241 53.6771 35.3241 53.706C35.3241 53.735 35.4711 53.8335 35.6508 53.925C36.1316 54.17 36.752 54.83 37.0224 55.3844C37.2293 55.8087 37.2641 55.9878 37.2941 56.7854C37.3247 57.5957 37.3056 57.7661 37.1257 58.2825C36.3171 60.6043 33.9392 61.6828 32.5564 60.3549C32.3106 60.119 32.1614 59.8876 32.0951 59.6398C31.8222 58.6208 32.5039 57.6365 33.3008 57.8991C33.8424 58.0775 34.0645 58.6603 33.8262 59.2771C33.6646 59.6955 33.7119 60.0642 33.9539 60.2721C34.5593 60.7921 35.7527 60.0961 36.2997 58.9041C36.8919 57.6137 36.4678 55.776 35.3706 54.8782C34.794 54.4063 34.304 54.2315 33.4462 54.1916C32.5317 54.1491 31.8866 54.2524 30.781 54.6185C29.8424 54.9293 29.4488 55.1894 29.1102 55.7228C28.7545 56.2827 28.7214 56.6566 28.9805 57.1854C29.0987 57.4267 29.1955 57.663 29.1955 57.7105C29.1955 57.961 28.4035 57.9614 28.0352 57.7111C27.4987 57.3463 27.2673 56.9618 27.2145 56.347L27.1664 55.7882L25.4266 55.7369C23.0959 55.6682 22.2156 55.4465 21.3349 54.7064C21.0519 54.4686 21.0172 54.3298 21.2024 54.1763Z" fill="#D4AF37" fill-opacity="0.5"/>
</g>
<defs>
<filter id="filter0_g_522_2038" x="-0.000871003" y="0.00010556" width="66.7791" height="66.2185" filterUnits="userSpaceOnUse" color-interpolation-filters="sRGB">
<feFlood flood-opacity="0" result="BackgroundImageFix"/>
<feBlend mode="normal" in="SourceGraphic" in2="BackgroundImageFix" result="shape"/>
<feTurbulence type="fractalNoise" baseFrequency="4.3625893592834473 4.3625893592834473" numOctaves="3" seed="1956" />
<feDisplacementMap in="shape" scale="1.8337732553482056" xChannelSelector="R" yChannelSelector="G" result="displacedImage" width="100%" height="100%" />
<feMerge result="effect1_texture_522_2038">
<feMergeNode in="displacedImage"/>
</feMerge>
</filter>
</defs>
</svg>
