<svg width="28" height="24" viewBox="0 0 28 24" fill="none" xmlns="http://www.w3.org/2000/svg">
<path fill-rule="evenodd" clip-rule="evenodd" d="M5.23699 0.375004C4.69301 0.847894 0.389671 7.03569 0.389671 7.34477C0.389671 7.71086 13.7324 24 14.0324 24C14.2723 24 27.6667 7.63003 27.6667 7.33676C27.6667 7.27097 26.5619 5.67227 25.2119 3.78403C23.5858 1.50978 22.5826 0.282849 22.2407 0.14969C21.9062 0.0196545 18.8794 -0.0275978 13.649 0.015552C6.8175 0.0717834 5.52184 0.127234 5.23699 0.375004ZM7.32699 3.63603C8.01983 5.215 8.62888 6.54894 8.68032 6.60068C8.80599 6.72642 8.80228 6.73091 11.1804 3.54778L13.2591 0.7655H9.66326H6.06719L7.32699 3.63603ZM14.8075 0.851797C14.8075 1.02928 19.0158 6.49915 19.197 6.55733C19.3573 6.60868 21.6268 1.33465 21.6268 0.910959C21.6268 0.830907 20.0924 0.7655 18.2171 0.7655C16.3418 0.7655 14.8075 0.804352 14.8075 0.851797ZM3.2218 4.0359L1.16278 6.91581L2.91942 6.97204C3.88561 7.00289 5.44936 7.00289 6.39451 6.97204L8.11276 6.91581L6.844 4.0359C6.14609 2.45186 5.50898 1.156 5.42812 1.156C5.34726 1.156 4.35438 2.45186 3.2218 4.0359ZM11.5834 4.0359L9.30925 6.91581L11.6798 6.97067C12.9837 7.00094 15.0526 7.00094 16.2774 6.97067L18.5041 6.91581L16.3442 4.0359C15.1563 2.45186 14.1108 1.156 14.021 1.156C13.9309 1.156 12.8342 2.45186 11.5834 4.0359ZM21.0869 4.08471L19.9052 7.01343H23.3121H26.719L26.3439 6.4765C23.9083 2.99015 22.5579 1.156 22.4271 1.156C22.3399 1.156 21.7366 2.47392 21.0869 4.08471ZM1.36385 7.70051C1.36385 7.75635 2.21879 8.83822 3.2635 10.1046C4.30821 11.3712 6.62656 14.203 8.41535 16.3976C10.2039 18.5922 12.0204 20.7833 12.4519 21.2665L13.2366 22.1451L11.1912 15.9948C10.0662 12.6122 8.96225 9.33942 8.73799 8.72185L8.33039 7.59918H4.84712C2.9313 7.59918 1.36385 7.64487 1.36385 7.70051ZM9.15728 7.7011C9.15728 7.89049 13.6482 21.3591 13.9083 21.9499L14.1663 22.5356L14.6 21.0713C15.8368 16.8947 18.093 9.87206 18.8498 7.84324C18.9211 7.65209 17.881 7.59918 14.049 7.59918C11.3585 7.59918 9.15728 7.64506 9.15728 7.7011ZM19.5048 8.03848C19.0705 9.20216 15.1978 21.0471 15.084 21.5594C14.9688 22.0782 14.987 22.1118 15.243 21.8523C16.2565 20.8257 26.4967 7.98987 26.4973 7.74561C26.4975 7.66497 24.9612 7.59918 23.0832 7.59918C19.7207 7.59918 19.6663 7.60581 19.5048 8.03848ZM2.02551 13.9935C1.6676 15.152 1.35333 15.5776 0.694197 15.7955C0.312319 15.9218 0 16.0886 0 16.1661C0 16.2436 0.315831 16.4213 0.701606 16.5611C1.26312 16.7645 1.48933 17.0109 1.8336 17.7925L2.26399 18.7697L2.50072 17.9778C2.72322 17.2337 3.56082 16.3853 4.07284 16.3853C4.46933 16.3853 4.28989 16.0811 3.68045 15.7203C3.32487 15.5098 2.91864 15.0084 2.69711 14.5067C2.28094 13.5638 2.18157 13.4879 2.02551 13.9935ZM25.3592 14.9678C24.9047 15.412 24.8026 15.6043 25.0212 15.6043C25.1934 15.6043 25.5007 15.8785 25.7041 16.2135L26.0737 16.8227L26.3882 16.2135C26.561 15.8785 26.8318 15.6043 26.9898 15.6043C27.1478 15.6043 27.277 15.5165 27.277 15.4091C27.277 15.3017 27.1529 15.2138 27.0009 15.2138C26.8491 15.2138 26.5643 15.0153 26.3677 14.7726L26.0106 14.3311L25.3592 14.9678ZM1.79229 15.7889C1.39385 16.3287 1.39288 16.351 1.74748 16.6727C2.09078 16.984 2.13501 16.9793 2.52487 16.5886C2.93247 16.1801 2.93306 16.1674 2.56969 15.7045L2.20106 15.2347L1.79229 15.7889ZM22.0443 18.9851C21.9217 19.2873 21.8216 19.61 21.8216 19.7022C21.8216 20.065 20.8192 21.0361 20.3122 21.1644L19.7758 21.3001L20.3603 21.6C21.249 22.0557 21.7883 22.6225 21.9245 23.2436C22.0585 23.8555 22.4057 24.0135 22.4069 23.4631C22.4083 22.81 23.1404 21.8974 23.8524 21.6621C24.7114 21.3778 24.7309 21.207 23.9319 20.9653C23.2092 20.7466 22.6218 20.0226 22.4145 19.0948L22.267 18.4354L22.0443 18.9851ZM21.6829 20.8719L21.2521 21.4079L21.7096 21.8386L22.167 22.2693L22.688 21.7472C22.9746 21.46 23.1817 21.2124 23.1486 21.197C23.1153 21.1816 22.8688 20.9815 22.6009 20.7524L22.1138 20.3362L21.6829 20.8719Z" fill="#1D6235"/>
</svg>
