<svg width="24" height="33" viewBox="0 0 24 33" fill="none" xmlns="http://www.w3.org/2000/svg">
<path fill-rule="evenodd" clip-rule="evenodd" d="M10.0534 0.0634628C9.9493 0.0902011 9.48491 0.228055 9.02134 0.369755C7.79882 0.743523 7.48458 0.927475 7.23403 1.41614C7.05714 1.76122 7.10028 2.23916 7.33953 2.58436C7.50772 2.82709 7.51327 2.85711 7.4492 3.17595C7.37674 3.53679 7.42435 3.87966 7.59121 4.1997C7.64431 4.30148 7.68789 4.53834 7.68814 4.72608C7.68839 4.98129 7.73084 5.13951 7.85614 5.35342C7.97293 5.55263 8.00017 5.64722 7.94613 5.66526C7.89354 5.68279 7.9134 5.73891 8.00774 5.83937C8.12712 5.96644 8.14093 6.03057 8.10448 6.28976C7.97438 7.21614 7.97224 7.1836 8.17687 7.40009C8.35521 7.58871 8.61497 8.26026 8.82459 9.07439C8.86356 9.2258 8.96717 9.42135 9.05483 9.50901C9.20807 9.66225 9.23569 9.66692 9.77954 9.63173L10.3449 9.59509L10.4674 9.88089C10.5348 10.038 10.6082 10.2396 10.6306 10.3288C10.6661 10.4701 10.6559 10.4846 10.5515 10.441C10.2423 10.3119 10.152 10.3252 10.0804 10.5104C9.87766 11.0347 9.54797 13.5211 9.45565 15.2215C9.39423 16.3533 9.46473 17.9408 9.61002 18.7004C9.72202 19.2856 9.73438 19.7157 9.64086 19.7735C9.57093 19.8167 9.6 19.9701 9.73628 20.2764C9.78256 20.3805 9.85162 20.5451 9.88971 20.6423C10.0034 20.9321 10.7209 21.1335 10.8891 20.9228C10.9237 20.8795 11.2429 20.1487 11.5984 19.2989C11.9539 18.4492 12.302 17.6185 12.372 17.4529C12.442 17.2873 12.5111 17.1637 12.5255 17.1781C12.54 17.1925 12.45 17.853 12.3255 18.6457C12.2011 19.4386 12.0491 20.4419 11.9877 20.8755C11.9013 21.4859 11.8554 21.6609 11.7845 21.6509C11.5601 21.6194 11.0008 21.3783 11.0151 21.3193C11.0237 21.2833 10.9796 21.2539 10.9171 21.2539C10.7675 21.2539 10.1813 21.5476 10.0749 21.6759C10.014 21.7492 10.0651 21.7388 10.2635 21.6376C10.6971 21.4164 10.7101 21.5209 10.2777 21.7514C10.0627 21.8659 9.86808 21.9409 9.84512 21.918C9.82223 21.8951 9.85263 21.7907 9.91266 21.6861C10.0753 21.4027 10.0523 21.3129 9.69655 20.843L9.37127 20.4134L9.38502 19.6791L9.39877 18.9449L9.08144 18.6481C8.70288 18.294 8.54623 18.2269 8.09811 18.2269H7.75921L7.7396 17.9953C7.71494 17.7035 7.64204 17.6803 7.35725 17.8735L7.12985 18.0279L7.06282 17.8355C7.00341 17.6651 6.98367 17.6531 6.89053 17.7301C6.79606 17.8081 6.78856 17.7998 6.81731 17.6484C6.84191 17.5193 6.82104 17.4723 6.72821 17.4481C6.62832 17.422 6.61892 17.3942 6.67479 17.2898C6.71206 17.2201 6.74208 17.1116 6.74151 17.0486C6.74076 16.9673 6.70128 16.9953 6.60536 17.1451C6.47697 17.3457 6.47545 17.3648 6.5749 17.5332C6.63242 17.6306 6.67952 17.8025 6.67952 17.9153C6.67952 18.1099 6.68539 18.115 6.79486 18.0159C6.95157 17.8741 6.99483 17.8845 6.99483 18.0641C6.99483 18.2575 6.9348 18.4161 6.86152 18.4161C6.79322 18.4161 6.51752 18.1083 6.53227 18.0484C6.53801 18.0252 6.51323 17.9707 6.47728 17.9273C6.43112 17.8718 6.43402 17.8485 6.48699 17.8485C6.58487 17.8485 6.54589 17.5825 6.44304 17.5487C6.39688 17.5335 6.36421 17.5772 6.36421 17.6541C6.36421 17.7288 6.32341 17.7855 6.26962 17.7855C6.21078 17.7855 6.17503 17.845 6.17503 17.9431C6.17503 18.0298 6.14394 18.1008 6.10591 18.1008C5.95273 18.1008 5.66391 17.8718 5.59069 17.6924C5.54787 17.5875 4.78185 18.2295 4.78185 17.6484C4.74471 17.1233 4.96404 16.4166 4.99948 15.9882C5.08386 14.967 5.5888 12.4017 5.75553 12.1471C5.81784 12.0521 6.18139 11.8953 7.00247 11.6094C7.63996 11.3874 8.45693 11.0827 8.81803 10.9323C9.17912 10.7819 9.48674 10.6709 9.50162 10.6857C9.53233 10.7165 9.1194 11.3418 8.72772 11.8576C8.58287 12.0484 8.4179 12.3464 8.36114 12.5198C8.11627 13.2678 7.87191 15.267 7.88704 16.3981L7.89505 16.9972L7.94707 16.3666C8.09287 14.6009 8.44262 12.5519 8.64587 12.2728C8.71953 12.1717 9.00633 11.7603 9.28311 11.3584C9.55996 10.9567 9.88517 10.5058 10.0058 10.3564C10.1264 10.2072 10.2108 10.0707 10.1934 10.0532C10.1759 10.0358 10.0203 10.1085 9.84746 10.2149C9.38521 10.4993 8.39955 10.9164 7.16819 11.3487C5.85587 11.8094 5.66466 11.9016 5.55771 12.1251C5.42622 12.3999 5.18066 13.5635 5.00863 14.7269C4.92147 15.3166 4.82089 15.9781 4.78513 16.197C4.72163 16.5854 4.52399 17.344 4.52399 17.344C4.52399 17.344 4.42889 17.8355 4.46093 18.0484C4.46112 18.1631 4.46093 18.0843 4.46093 18.0917C4.46092 18.1307 4.38147 18.1168 4.24589 18.1999C4.1103 18.2829 3.84973 18.4222 3.66679 18.5095C3.24219 18.712 3.15195 18.9045 3.33956 19.2081L3.46997 19.4191L3.20725 19.5531C2.84811 19.7363 2.40876 20.2034 2.3305 20.4852C2.29493 20.6131 2.26573 20.8845 2.26554 21.0881C2.26523 21.4102 2.25281 21.4482 2.17057 21.38C2.01601 21.2517 2.0616 20.8911 2.30344 20.3279L2.53097 19.7983L2.36651 19.561C2.16805 19.2746 2.16401 19.2359 2.33239 19.2359C2.58956 19.2359 2.72312 19.3581 2.68339 19.557C2.64253 19.7612 2.68661 19.7836 2.86798 19.6507C2.9888 19.5622 2.98874 19.5588 2.86041 19.3867C2.78896 19.2907 2.65842 19.1883 2.57045 19.1589C2.35314 19.0865 2.07598 19.1975 2.07598 19.3569C2.07598 19.4251 2.01216 19.5282 1.93409 19.5859L1.7922 19.6909L1.96694 19.6511C2.17265 19.6041 2.39129 19.7035 2.39129 19.8439C2.39129 19.9129 2.35774 19.9298 2.28093 19.8994C2.22027 19.8754 2.07125 19.8425 1.94985 19.8262L1.72914 19.7966L1.91164 19.9014L2.09414 20.0062L1.91057 20.1224C1.69357 20.2598 1.19311 20.3555 1.19311 20.2597C1.19311 20.2242 1.23971 20.1774 1.29672 20.1555C1.35373 20.1337 1.38299 20.0984 1.36174 20.0772C1.34055 20.0559 1.24759 20.0881 1.15521 20.1486C1.02341 20.235 1.00607 20.2705 1.07442 20.3139C1.2073 20.398 1.58876 20.3816 1.87885 20.2792C2.19075 20.1692 2.21402 20.229 2.01292 20.6232C1.86087 20.9213 1.85507 21.0726 1.98605 21.3259C2.0406 21.4314 2.07333 21.5298 2.05876 21.5443C2.04419 21.5589 1.92173 21.5246 1.78659 21.4681C1.55363 21.3708 0.926857 21.3729 0.82848 21.4714C0.773868 21.526 0.995848 21.6839 1.38229 21.8656L1.72914 22.0286L1.24747 22.1124C0.654934 22.2156 0.0620232 22.4312 0.0118887 22.5619C-0.057669 22.7431 0.181714 22.8419 0.632483 22.8179C0.980965 22.7994 1.08817 22.7649 1.286 22.6081C1.7816 22.2151 1.77814 22.2122 1.50937 22.7969C1.37012 23.0997 1.25617 23.3588 1.25617 23.3727C1.25617 23.3866 1.32806 23.398 1.41584 23.398C1.52255 23.398 1.5945 23.4451 1.63259 23.5399C1.67629 23.6486 1.69054 23.656 1.69363 23.5714C1.6966 23.4885 1.75152 23.461 1.9146 23.461C2.18211 23.461 2.24795 23.546 2.05025 23.6361C1.86573 23.7201 1.44536 24.0852 1.44536 24.1613C1.44536 24.2367 1.9759 24.2305 2.32079 24.151C2.47277 24.1159 2.60835 24.0985 2.6221 24.1123C2.63585 24.126 2.61863 24.2121 2.58382 24.3036C2.50745 24.5045 2.54541 24.5096 2.83273 24.337C3.27132 24.0737 3.33722 23.9758 3.33722 23.5872C3.33722 23.2914 3.36327 23.2063 3.49034 23.0869L3.64339 22.9431L3.52944 23.3862C3.45294 23.6836 3.43636 23.8502 3.47893 23.8928C3.593 24.0069 3.46764 24.2453 3.18524 24.4515C2.9936 24.5915 2.87441 24.7424 2.79836 24.9417C2.73788 25.1 2.70458 25.2457 2.72432 25.2655C2.7952 25.3364 3.24042 25.1283 3.43743 24.9322L3.63835 24.7323L3.84216 25.0161C4.10702 25.3849 4.17822 25.3098 4.14713 24.6943C4.1267 24.2902 4.13805 24.217 4.21877 24.2322C4.28587 24.245 4.32415 24.3544 4.34622 24.5967L4.37775 24.943L4.68404 24.5331C4.9689 24.1519 4.988 24.1033 4.95673 23.8394C4.93819 23.6833 4.89209 23.4744 4.85425 23.3751L4.78538 23.1947L4.66096 23.3528C4.59254 23.4398 4.48054 23.6417 4.41206 23.8014C4.23359 24.2177 3.96551 24.1732 3.78459 23.6974C3.7132 23.5096 3.77866 23.4667 3.90478 23.6187C4.06357 23.81 4.40928 23.6948 4.40928 23.4506C4.40928 23.3894 4.49442 23.2423 4.59847 23.1238C4.84359 22.8446 4.84302 22.7538 4.59759 22.9889C4.41716 23.1618 4.40197 23.1655 4.29804 23.0615C4.20193 22.9654 4.2001 22.944 4.28316 22.8863C4.35688 22.835 4.343 22.8274 4.2201 22.8519C4.13338 22.8692 3.99862 22.9031 3.92055 22.9273C3.72424 22.9881 3.73319 22.832 3.93701 22.6406C4.0666 22.5189 4.08817 22.4539 4.05607 22.2828C4.00707 22.0214 4.10488 22.0088 4.20124 22.2641C4.25528 22.4071 4.35965 22.4928 4.62073 22.6082C4.95944 22.7581 4.96934 22.7697 5.00869 23.0642C5.06929 23.518 5.16029 23.7027 5.43001 23.9195L5.67475 24.1161L5.19964 24.594C4.76256 25.0337 4.72459 25.0926 4.72459 25.3315C4.72459 25.4868 4.76987 25.6471 4.83722 25.7302L4.94985 25.8694L5.33447 25.6139C5.65571 25.4006 5.75509 25.3643 5.9376 25.3939C6.14368 25.4274 6.16197 25.4154 6.25694 25.1862L6.35772 24.943L6.36093 25.3881C6.36314 25.6888 6.39562 25.873 6.46095 25.9557C6.54936 26.0676 6.55611 26.0258 6.53978 25.4685C6.52994 25.1332 6.53952 24.8413 6.56115 24.8196C6.62371 24.757 6.74814 25.6952 6.78648 26.5195C6.81227 27.0732 6.84796 27.3063 6.91941 27.3881C6.99502 27.4747 7.02857 27.4819 7.06805 27.4197C7.10299 27.3646 7.11932 27.3828 7.12001 27.4775C7.12052 27.5535 7.15123 27.6344 7.18825 27.6572C7.23371 27.6854 7.24954 27.5778 7.23699 27.3249C7.22318 27.0458 7.24664 26.9123 7.32944 26.7983C7.39049 26.7143 7.51125 26.548 7.59784 26.4287C7.81301 26.1321 7.84718 25.9516 7.76375 25.5537C7.70441 25.2708 7.70801 25.1983 7.78507 25.1212C7.83602 25.0702 7.87771 24.969 7.87771 24.8961C7.87771 24.7962 7.92507 24.8352 8.07062 25.055C8.36556 25.5003 8.96086 26.0183 9.34195 26.1612C9.62176 26.2662 9.67832 26.2716 9.69598 26.1948C9.72064 26.0873 9.48113 25.2726 9.35052 25.02C9.26148 24.8477 9.26268 24.8454 9.42217 24.8854C9.76907 24.9725 9.79997 24.9574 9.8211 24.6907C9.83957 24.4573 9.95876 24.2072 9.95876 24.4018C9.95876 24.4475 10.0368 24.5798 10.1322 24.6958C10.2276 24.8119 10.3711 24.9924 10.4513 25.097C10.5397 25.2126 10.7221 25.3311 10.9155 25.3989C11.1167 25.4694 11.2529 25.5598 11.2854 25.6443C11.3137 25.7178 11.3968 26.4131 11.47 27.1893C11.672 29.329 11.8686 30.5981 12.1748 31.7385C12.3984 32.5712 12.4042 32.3317 12.1863 31.2632C11.8943 29.831 11.4337 25.8119 11.5483 25.6972C11.5691 25.6764 11.6953 25.7147 11.8287 25.7822C11.9622 25.8498 12.1616 25.9245 12.2719 25.9483C12.5208 26.002 12.5629 26.0549 12.7023 26.488C12.8993 27.1005 13.0201 27.2863 13.2507 27.3322C13.3979 27.3615 13.5835 27.5046 13.8856 27.8217L14.3125 28.2698L14.7428 28.2274L15.1731 28.185L15.3967 28.645C15.6259 29.1166 15.9115 29.4594 16.1993 29.6082C16.4486 29.7371 17.0369 29.8291 17.8942 29.8733C18.6063 29.9099 18.6763 29.9245 18.7221 30.0453C18.7496 30.1178 18.8198 30.617 18.8779 31.1546C18.936 31.6922 19.0139 32.1604 19.051 32.1951C19.1182 32.258 19.1105 31.9934 19.0009 30.4862L18.9593 29.9125L19.3552 29.8766C19.8399 29.8326 22.6546 29.9308 23.3891 30.0173C23.6974 30.0536 23.9466 30.0567 23.9787 30.0246C24.0109 29.9924 23.985 29.9538 23.9177 29.933C23.7037 29.8671 22.178 29.7732 20.7109 29.7358C18.8563 29.6883 18.8505 29.6875 18.8505 29.4498C18.8505 29.2813 18.8956 29.2416 19.3393 29.0201C20.5255 28.4276 21.0176 28.3989 22.1219 28.8579C22.9017 29.1819 23.7044 29.4519 23.8885 29.4519C24.1157 29.4519 23.9873 29.3603 23.5802 29.2319C23.3894 29.1717 22.8361 28.9626 22.3505 28.7671C21.4956 28.4229 21.4496 28.4118 20.9001 28.4179C20.3024 28.4245 19.919 28.5342 19.1731 28.9122C18.9888 29.0056 18.8242 29.0682 18.8073 29.0513C18.7405 28.9845 18.4725 27.5977 18.5181 27.5547C18.5449 27.5295 19.0066 27.3936 19.5442 27.2529C20.7625 26.934 21.3288 26.7418 21.8173 26.4814C22.2638 26.2434 22.3913 26.0851 22.5495 25.5722C22.6501 25.2461 22.6653 24.9784 22.6622 23.5872C22.6603 22.7027 22.6254 21.6811 22.5848 21.3169C22.5442 20.9527 22.4811 20.1156 22.4446 19.4566C22.4081 18.7976 22.3354 17.9051 22.2833 17.4733C22.1493 16.3644 21.7798 14.2468 21.6228 13.6869C21.3465 12.702 20.9052 12.144 20.1575 11.8337C19.9416 11.7442 19.1406 11.413 18.3776 11.0979C16.7163 10.4117 16.5862 10.3391 15.9272 9.7308C15.2087 9.06757 14.8814 8.80587 14.8321 8.85518C14.8088 8.87845 15.1571 9.25367 15.6062 9.68899L16.4226 10.4804L17.2109 10.8153C17.6445 10.9995 18.4107 11.3207 18.9136 11.529C19.4165 11.7374 20.021 12.0001 20.257 12.113C20.9175 12.4288 21.1852 12.8232 21.4683 13.8971C21.7571 14.9925 22.3719 18.9369 22.2308 18.7892C22.217 18.7748 22.1308 18.2638 22.0393 17.6538C21.8383 16.313 21.5311 14.7652 21.4499 14.684C21.4174 14.6515 21.4435 14.9316 21.508 15.3065C21.6965 16.4023 22.2396 20.0697 22.3607 21.0647C22.4404 21.7194 22.4726 22.4536 22.4743 23.6502C22.4766 25.264 22.4716 25.3322 22.3313 25.6367C22.2514 25.8101 22.1114 26.03 22.02 26.1253C21.7147 26.4442 20.3711 26.884 18.4406 27.2971C16.5824 27.6946 15.4663 27.8969 15.3588 27.8558C15.3049 27.835 15.1745 27.6473 15.0692 27.4386C14.9086 27.1206 14.8774 26.9849 14.8766 26.6002C14.8747 25.6882 14.756 24.6595 14.6015 24.2152C14.5187 23.9773 14.4666 23.7669 14.4856 23.7479C14.5047 23.7289 14.6724 23.7133 14.8584 23.7133C15.3253 23.7133 16.8368 23.5503 18.1569 23.3577C19.4882 23.1634 19.8144 23.18 20.4211 23.4727C20.7197 23.6167 20.8303 23.6494 20.7613 23.5732C20.7051 23.5111 20.6743 23.4451 20.6928 23.4265C20.7813 23.3381 21.4388 24.0607 21.6847 24.5166C21.9261 24.9641 21.9954 24.9576 21.8447 24.5015C21.8176 24.4194 21.8704 24.4524 21.9962 24.5961C22.1025 24.7175 22.1902 24.7942 22.1911 24.7664C22.1991 24.5281 21.4348 23.6576 20.9378 23.3391C20.7783 23.2369 20.5059 23.1177 20.3325 23.0741C20.1591 23.0305 19.9922 22.9741 19.9617 22.9486C19.8661 22.8689 20.3691 22.7989 21.0375 22.7989C21.494 22.7989 21.6488 22.7807 21.5735 22.7358C21.5153 22.7011 21.1697 22.6761 20.8055 22.6801C20.2816 22.686 20.0323 22.7223 19.612 22.8536C18.7797 23.1136 18.8521 23.209 18.8406 21.8372L18.8307 20.6548L18.784 21.6953C18.7338 22.8149 18.682 23.0476 18.4679 23.1155C18.2215 23.1938 18.1965 23.0637 18.0917 21.1593C17.912 17.8923 18.5111 14.0439 19.4049 12.7239C19.6949 12.2956 19.7038 12.2538 19.4551 12.4882C18.8563 13.0525 18.3976 14.6016 18.0547 17.2179C17.9288 18.1785 17.897 20.6862 17.9906 22.2704L18.0452 23.1923L17.7699 23.2328C16.9013 23.3607 15.1702 23.5335 14.4191 23.5675C13.4148 23.6128 13.4609 23.6334 12.9388 22.9049L12.6532 22.5065L12.8289 21.9275C13.1257 20.949 13.9346 18.603 14.0921 18.2639L14.2412 17.9431L14.2122 18.2899C14.1818 18.6551 14.1914 18.6456 14.3863 18.1165C14.4872 17.8427 14.5346 17.7855 14.66 17.7855C14.8788 17.7855 15.0223 18.0321 14.9691 18.3162C14.916 18.5991 14.956 18.602 15.1183 18.327C15.2452 18.1119 15.2455 18.1118 15.629 18.1465C16.0778 18.1872 16.1085 18.1334 15.852 17.7553C15.7635 17.625 15.7059 17.5038 15.7238 17.4858C15.7417 17.4679 16.0122 17.4297 16.3249 17.4008C16.863 17.3511 17.2143 17.2393 17.3078 17.088C17.3831 16.9662 17.3028 16.9672 17.0498 17.0915C16.7503 17.2386 15.837 17.33 15.6593 17.2306C15.5484 17.1685 15.5526 17.1589 15.7173 17.0962C15.8149 17.0591 16.0065 17.0287 16.143 17.0287C16.4576 17.0287 16.4654 16.9306 16.1554 16.8724C15.9336 16.8308 15.927 16.8229 16.042 16.7388C16.1211 16.681 16.2434 16.6622 16.388 16.6857C16.5111 16.7056 16.697 16.7355 16.801 16.7522L16.9902 16.7825L16.8522 16.6621C16.7443 16.5681 16.7305 16.5243 16.7891 16.462C16.8471 16.4004 16.8462 16.3758 16.7852 16.3534C16.6497 16.3037 16.698 16.2373 16.931 16.153C17.184 16.0615 17.3428 15.8111 17.2235 15.6918C17.121 15.5893 16.868 15.7154 16.7296 15.938C16.5869 16.1677 16.382 16.3981 16.3205 16.3981C16.2937 16.3981 16.2632 16.2699 16.2527 16.1133L16.2335 15.8285L15.9028 16.0516C15.4466 16.3595 15.2854 16.4149 15.1877 16.2972C15.1448 16.2455 15.0717 16.2177 15.0252 16.2356C14.9787 16.2534 14.9407 16.2419 14.9407 16.2101C14.9407 16.1783 15.112 16.1185 15.3214 16.0773C15.5489 16.0325 15.692 15.9741 15.677 15.9322C15.6631 15.8937 15.6949 15.7521 15.7477 15.6176C15.8388 15.3854 15.837 15.3681 15.7121 15.2708C15.585 15.1718 15.5833 15.1503 15.6622 14.6324C15.7071 14.3375 15.806 13.889 15.882 13.6357C16.0986 12.9135 16.3277 11.7511 16.3692 11.1639C16.417 10.4884 16.3131 10.5485 16.2055 11.2585C16.0422 12.3353 15.3921 14.818 15.1569 15.263C15.0771 15.4137 15.0751 15.4102 15.1098 15.1853C15.1379 15.0028 15.1227 14.941 15.0425 14.9102C14.8666 14.8427 14.7516 15.0033 14.7505 15.318C14.75 15.4785 14.722 15.6524 14.6884 15.7044C14.6458 15.7704 14.627 15.6642 14.6263 15.3528C14.6255 14.9571 14.6433 14.8897 14.7838 14.7577C14.8909 14.6571 14.9216 14.5881 14.8784 14.5449C14.8433 14.5098 14.8146 14.3749 14.8146 14.2451C14.8146 13.99 14.7265 13.8746 14.6614 14.0444C14.6278 14.1317 14.5793 14.1084 14.371 13.9051L14.1209 13.6608V14.0691C14.1209 14.4318 14.1425 14.5038 14.3142 14.712C14.4959 14.9325 14.5144 15.0738 14.3616 15.0738C14.3246 15.0738 14.182 14.9461 14.0446 14.79C13.9073 14.6339 13.7689 14.5062 13.7371 14.5062C13.6164 14.5062 13.6871 14.8115 13.8728 15.0919C14.0435 15.3496 14.0613 15.4177 14.0234 15.6703C13.9997 15.8278 13.9668 15.9567 13.9502 15.9567C13.9336 15.9567 13.8479 15.8999 13.7597 15.8305C13.5566 15.6708 13.4669 15.669 13.5511 15.8264C13.587 15.8935 13.6164 16.0014 13.6164 16.0662C13.6164 16.131 13.7299 16.4188 13.8686 16.7056C14.0074 16.9926 14.1209 17.3083 14.1209 17.4074C14.1209 17.5065 13.9541 18.0506 13.7502 18.6167C13.5463 19.1827 13.185 20.2346 12.9473 20.9543C12.4906 22.337 12.4915 22.3356 12.1488 22.2053C11.9725 22.1382 11.961 22.2861 12.3323 19.835C12.717 17.2952 12.907 16.5214 13.713 14.2127C14.243 12.6948 15.0512 10.115 15.1082 9.75936C15.142 9.54931 15.1124 9.4718 14.8556 9.09721C14.6956 8.86388 14.4803 8.57367 14.377 8.45228C14.1518 8.18742 13.9943 7.62831 13.9959 7.09897C13.9968 6.80447 14.0486 6.59649 14.2244 6.18205C14.3494 5.88723 14.596 5.23454 14.7724 4.73162C15.0816 3.84983 15.0932 3.79244 15.0957 3.12354C15.0981 2.4742 15.0857 2.40319 14.9007 2.01271C14.5154 1.19952 13.7462 0.641993 12.5234 0.289666C11.5751 0.0164184 10.5882 -0.0739492 10.0534 0.0634628ZM10.3371 0.214244C10.3371 0.226919 10.5036 0.29799 10.7069 0.372151C11.2426 0.567517 11.6179 0.927033 11.9255 1.53974C12.2807 2.24717 12.5094 2.56261 12.8123 2.76296C13.0538 2.92269 13.1148 2.93385 13.7065 2.92685C14.3589 2.91916 14.3669 2.98128 13.7239 3.06162C13.2104 3.12575 12.772 3.00461 12.4888 2.72033C12.3632 2.59433 12.1193 2.2246 11.9468 1.89863C11.4828 1.02219 11.3479 0.861575 10.8836 0.633039C10.4447 0.416988 9.85465 0.324477 9.58115 0.428907C9.43535 0.484591 9.44884 0.495941 9.7733 0.590282C10.1643 0.703983 10.778 1.08141 11.0584 1.38076C11.3004 1.63913 11.2279 1.63181 10.8747 1.36222C10.4201 1.01526 9.82734 0.753676 9.36604 0.696479C9.13649 0.667975 8.89925 0.654479 8.83884 0.666398C8.77849 0.678317 8.64933 0.704929 8.5519 0.72555C8.14887 0.810747 7.49738 1.64102 7.50072 2.06518C7.50236 2.26937 7.7022 2.73874 7.81799 2.81032C7.87808 2.84746 7.8854 2.8223 7.848 2.70771C7.8207 2.62428 7.78538 2.42501 7.76949 2.26489C7.74401 2.00855 7.76369 1.94744 7.93497 1.75245C8.21093 1.43809 8.42319 1.36822 9.0004 1.40164C9.65013 1.43922 10.034 1.64607 10.5517 2.2374C11.4062 3.21334 11.6438 3.37901 12.4679 3.57292C12.9333 3.68246 13.6963 3.71658 14.0893 3.64545L14.3416 3.59979L14.0893 3.68789C13.7812 3.79553 12.7986 3.81117 12.3425 3.71576C11.7357 3.58882 11.3318 3.31841 10.6452 2.57976C9.94085 1.82182 9.58442 1.59587 8.99775 1.53533C8.33989 1.46741 7.94077 1.73379 7.94077 2.24068C7.94077 2.56545 8.07389 2.75022 8.50953 3.02971C8.85681 3.25257 8.88159 3.33575 8.5683 3.22652C8.39532 3.16624 8.37457 3.17034 8.40831 3.25837C8.44728 3.3599 8.3776 3.35908 8.12775 3.25528C8.04634 3.22142 8.01878 3.33253 7.95363 3.9576C7.84107 5.03823 7.83842 5.01912 8.12573 5.20926C8.53841 5.48238 8.56433 5.76899 8.25444 6.63301L8.10404 7.05243L8.33768 7.31111C8.4739 7.46189 8.57139 7.63456 8.57139 7.72505C8.57139 7.94211 8.73996 8.01066 9.27668 8.01179C9.59786 8.01249 9.70929 8.03134 9.64345 8.07391C9.59142 8.10752 9.37153 8.13546 9.15472 8.13602C8.84786 8.13678 8.76058 8.15778 8.76058 8.23106C8.76058 8.28277 8.81399 8.35844 8.87926 8.39924C8.97121 8.45663 8.99107 8.52486 8.96736 8.70156C8.92612 9.00943 9.08793 9.38194 9.29762 9.46165C9.67845 9.60644 10.7486 9.2357 11.5576 8.67874C11.7953 8.51509 12.0022 8.39369 12.0175 8.40896C12.0732 8.46464 11.429 8.97765 10.9842 9.23192C10.4826 9.5186 10.4542 9.5792 10.6473 9.95252C10.8232 10.2924 11.4585 11.0378 11.5724 11.0378C11.7258 11.0378 11.8991 10.9287 12.6074 10.3859C13.989 9.32701 14.1612 9.13089 14.1004 8.6846C14.0808 8.53949 14.0063 8.20981 13.9351 7.95207C13.7538 7.29635 13.7688 6.77874 13.9939 5.91189C14.0974 5.51303 14.202 4.93531 14.2264 4.62808C14.2645 4.14729 14.2778 4.10025 14.3222 4.29019C14.3691 4.49098 14.3522 4.89533 14.2761 5.39378C14.2238 5.73551 14.4735 5.11573 14.701 4.339C14.9658 3.43431 14.9919 2.61287 14.771 2.1324C14.604 1.76897 14.1484 1.27141 13.7465 1.01355C13.3562 0.763135 13.3181 0.771649 13.5473 1.05827C13.7696 1.33624 14.0308 1.89655 14.0837 2.20915C14.1181 2.41195 14.1154 2.41706 14.0499 2.27221C13.7235 1.54983 13.5817 1.3119 13.3192 1.04528C13.0242 0.745857 12.3778 0.380476 12.1427 0.380413C12.035 0.38035 12.0381 0.398007 12.1787 0.585301C12.4621 0.962853 12.4465 0.98133 12.1002 0.678128C11.7002 0.327945 11.3169 0.191163 10.7356 0.191163C10.5164 0.191163 10.3371 0.201568 10.3371 0.214244ZM7.40556 1.4722C7.26411 1.81085 7.29249 1.90727 7.43879 1.5849C7.50797 1.43235 7.55029 1.29317 7.53282 1.2757C7.51529 1.25817 7.45803 1.34665 7.40556 1.4722ZM8.66598 2.1546C8.1705 2.45679 8.38214 3.04131 9.06164 3.24721C9.19772 3.28845 9.20302 3.27817 9.16569 3.04459C9.12861 2.81284 9.13857 2.79253 9.3376 2.69447L9.54886 2.59042L9.35368 2.58897C9.14469 2.58739 8.94976 2.74889 8.94976 2.92357C8.94976 3.09485 8.77155 3.0439 8.66762 2.84292C8.53677 2.58998 8.54648 2.48599 8.71158 2.3704C8.91073 2.2309 9.60303 2.24232 9.92925 2.39045C10.0691 2.45402 10.4397 2.75974 10.7528 3.06988C11.0659 3.38002 11.4248 3.68253 11.5502 3.74206C11.8395 3.87934 12.34 3.97488 12.7699 3.97488C13.2922 3.97488 13.2282 3.86837 12.6849 3.83362C11.8982 3.7833 11.5565 3.61536 10.8337 2.9237C10.4923 2.59698 10.1117 2.28734 9.98796 2.23563C9.6804 2.10717 8.82932 2.05496 8.66598 2.1546ZM9.46202 3.0212C9.26867 3.21454 9.29573 3.30119 9.51417 3.18825C9.74624 3.06824 10.1917 3.06742 10.4002 3.18661C10.5805 3.28971 10.6524 3.30258 10.6524 3.23176C10.6524 3.12802 10.2774 2.9674 9.94369 2.92818C9.64149 2.89261 9.57837 2.90485 9.46202 3.0212ZM12.3794 3.08073C12.5478 3.27142 13.1012 3.53389 13.3292 3.53118C13.4961 3.52922 13.4769 3.51276 13.1852 3.40783C13.0001 3.34117 12.7163 3.21007 12.5545 3.11642C12.2973 2.96734 12.2754 2.96293 12.3794 3.08073ZM9.74258 3.21082C9.7236 3.24147 9.7895 3.30024 9.88895 3.34149C10.0251 3.39786 10.1123 3.51629 10.2415 3.82025C10.4409 4.2895 10.7305 4.57876 11.2766 4.85453C11.7052 5.07084 11.817 5.20251 11.9483 5.64602C12.0896 6.12302 12.1792 6.21535 12.1319 5.83521C12.0459 5.14455 11.9304 4.99081 11.2358 4.64302C11.0536 4.55183 10.9047 4.46651 10.9047 4.45339C10.9047 4.44028 11.0775 4.48335 11.2887 4.54906C11.4999 4.61477 11.7482 4.66705 11.8405 4.66516C11.9602 4.66276 11.9088 4.62972 11.6614 4.54988C11.2038 4.40219 10.97 4.27524 10.7789 4.0708C10.6356 3.91737 10.655 3.92254 10.9984 4.12938C11.2056 4.25412 11.4892 4.38705 11.6286 4.42483C11.9737 4.51822 12.5789 4.45762 12.9227 4.2953C13.0788 4.22158 13.1355 4.17725 13.0488 4.19673C12.2924 4.36706 12.1755 4.37375 11.7575 4.27058C11.4859 4.20354 11.208 4.07521 10.9644 3.90438C10.5788 3.63384 10.4271 3.41338 10.7943 3.65711C11.3274 4.01089 12.1352 4.22442 12.5811 4.12945C12.8104 4.08057 12.7916 4.07389 12.3181 4.03517C11.7817 3.9914 11.554 3.90406 10.684 3.40846C10.2557 3.16454 9.82684 3.07448 9.74258 3.21082ZM7.75587 3.5366C7.75984 3.74092 7.76432 3.7454 7.82946 3.61019C7.88073 3.50381 7.87966 3.44712 7.82518 3.39263C7.76911 3.33657 7.75259 3.37075 7.75587 3.5366ZM13.0146 4.91217C12.8418 5.01748 12.6074 5.2966 12.6074 5.39686C12.6074 5.41831 12.7138 5.35316 12.8439 5.25201C13.1994 4.97548 13.2313 4.96495 13.3928 5.07077C13.8709 5.38406 13.6407 6.331 12.968 6.81828C12.7283 6.99189 12.7234 7.00185 12.8768 7.00185C13.1969 7.00185 13.6893 6.41052 13.8102 5.88068C13.8818 5.56688 13.7772 5.19803 13.5531 4.97391C13.3426 4.76347 13.2718 4.75534 13.0146 4.91217ZM13.0346 5.28342C12.9362 5.39554 12.8041 6.19321 12.8995 6.09937C12.928 6.07119 12.9663 5.90092 12.9844 5.721C13.0107 5.45961 13.0458 5.38123 13.1592 5.33153C13.2372 5.29729 13.3011 5.2476 13.3011 5.22117C13.3011 5.13251 13.1324 5.17186 13.0346 5.28342ZM9.04436 5.28108C8.82257 5.33443 8.78662 5.42486 8.98445 5.4318C9.40444 5.44656 10.1938 5.41635 10.4002 5.37769L10.6209 5.33626L10.3371 5.29086C10.0206 5.24022 9.23884 5.23429 9.04436 5.28108ZM8.17019 5.58296C8.19018 5.63499 8.23098 5.67755 8.26087 5.67755C8.2907 5.67755 8.29884 5.63499 8.27891 5.58296C8.25892 5.53093 8.21812 5.48837 8.18823 5.48837C8.1584 5.48837 8.15026 5.53093 8.17019 5.58296ZM9.38408 5.9385C9.56475 6.10272 9.63235 6.12706 9.82217 6.09629C9.94558 6.07623 10.1145 5.99186 10.1976 5.9088L10.3486 5.75777L9.98991 5.81957C9.73773 5.86302 9.58531 5.8605 9.47671 5.81099C9.20321 5.68638 9.16487 5.73923 9.38408 5.9385ZM14.3731 8.85594C14.3731 9.01057 13.8259 9.67089 13.4305 9.99333C13.0931 10.2686 12.9524 10.4703 13.0978 10.4703C13.2505 10.4703 13.8712 9.91715 14.2543 9.43983C14.4885 9.14811 14.5914 8.76759 14.4362 8.76759C14.4015 8.76759 14.3731 8.80732 14.3731 8.85594ZM14.4832 9.4059C14.304 9.70847 13.7899 10.2349 13.3977 10.5175L13.1474 10.6977L13.1653 11.4827C13.1848 12.3432 13.1169 12.6513 12.8223 13.0375L12.6614 13.2485L12.3438 12.963C12.1691 12.806 12.0041 12.6774 11.9772 12.6774C11.9134 12.6774 11.8708 13.0598 11.7591 14.6324C11.6257 16.509 11.5204 18.6114 11.5579 18.6488C11.6442 18.7351 12.8227 16.0615 13.4131 14.4401C13.8494 13.242 14.5623 11.0891 14.5623 10.9695C14.5623 10.9222 14.4896 10.9555 14.3889 11.0487C14.1716 11.25 13.734 11.5423 13.6499 11.5423C13.6151 11.5423 13.7716 11.3753 13.9978 11.1712C14.853 10.3993 15.1003 9.75003 14.7312 9.24535C14.653 9.13833 14.6348 9.15019 14.4832 9.4059ZM10.2408 10.5993C10.2183 10.6355 10.1487 10.9157 10.086 11.2217C10.0016 11.6334 9.98638 11.8552 10.0273 12.0743C10.1197 12.5688 10.1568 12.5811 10.7108 12.3015C11.1104 12.0997 11.0937 12.1338 11.173 11.3588C11.1849 11.2412 11.0992 11.1307 10.7936 10.8701C10.3871 10.5234 10.3108 10.486 10.2408 10.5993ZM12.4993 10.7393C12.3532 10.8515 12.2327 10.9645 12.2313 10.9905C12.2274 11.0699 12.9098 11.0449 12.9366 10.9647C12.9801 10.834 12.9103 10.5333 12.8367 10.5343C12.7973 10.5349 12.6455 10.6271 12.4993 10.7393ZM11.4092 11.2222C11.4092 11.2521 11.4518 11.2929 11.5038 11.3129C11.5558 11.3328 11.5984 11.3247 11.5984 11.2949C11.5984 11.265 11.5558 11.2242 11.5038 11.2042C11.4518 11.1843 11.4092 11.1924 11.4092 11.2222ZM12.2725 11.2317C11.6913 11.3719 11.6515 11.5157 12.1186 11.7879C12.4876 12.003 12.4652 12.0362 12.0563 11.8801C11.7436 11.7606 11.6824 11.7871 11.7928 11.9941C11.8825 12.1624 12.6041 12.9297 12.6726 12.9297C12.6976 12.9297 12.7836 12.7807 12.8637 12.5986C12.977 12.3413 13.0104 12.1481 13.0134 11.7315L13.0173 11.1955L12.765 11.1846C12.6263 11.1786 12.4047 11.1998 12.2725 11.2317ZM11.3116 11.6266C11.2699 11.7927 11.3705 12.0468 11.4781 12.0468C11.5691 12.0468 11.5211 11.5263 11.4273 11.4955C11.3852 11.4816 11.3331 11.5406 11.3116 11.6266ZM10.6051 11.6488C10.6658 11.6647 10.7652 11.6647 10.8259 11.6488C10.8865 11.633 10.8369 11.62 10.7155 11.62C10.5941 11.62 10.5445 11.633 10.6051 11.6488ZM10.6873 12.5234L10.1425 12.8107L10.0283 12.6697L9.91399 12.5286L9.8747 12.7449C9.70235 13.6933 9.62573 14.738 9.62302 16.1774C9.61974 17.8677 9.68968 18.6559 9.91222 19.4384C10.0441 19.9023 10.0579 19.923 10.2096 19.8869C10.2971 19.8661 10.3899 19.8371 10.416 19.8225C10.442 19.8079 10.4633 19.0667 10.4633 18.1755C10.4633 16.501 10.5363 15.5897 10.7735 14.3085C10.9327 13.4481 11.1568 12.4835 11.2256 12.3621C11.3353 12.1686 11.2809 12.6011 11.0342 13.8816C10.7219 15.5028 10.6658 15.9708 10.6186 17.344C10.5725 18.6884 10.6504 19.7935 10.7972 19.8757C10.888 19.9265 10.8883 19.9482 10.8005 20.1041C10.7218 20.2438 10.7173 20.3122 10.7768 20.4651C10.8488 20.6504 10.8551 20.6409 11.1296 19.9398C11.3849 19.288 11.4092 19.1775 11.4092 18.6725C11.4092 17.5645 11.5921 14.3871 11.7337 13.0335C11.7937 12.4608 11.791 12.34 11.7176 12.2934C11.5291 12.1741 11.2179 12.2435 10.6873 12.5234ZM5.86476 13.4972C5.85877 13.8414 6.10402 16.0335 6.15377 16.0807C6.17326 16.0992 6.17187 15.944 6.15068 15.7359C6.12943 15.5278 6.0682 14.9035 6.01459 14.3486C5.90941 13.261 5.87251 13.0512 5.86476 13.4972ZM14.2147 14.1291C14.3103 14.5738 14.4917 14.7272 14.4106 14.2948C14.3881 14.1753 14.3242 14.0397 14.2686 13.9935C14.178 13.9183 14.1724 13.9324 14.2147 14.1291ZM14.5623 14.5099C14.5623 14.5813 14.5907 14.6223 14.6254 14.6008C14.6601 14.5794 14.6884 14.521 14.6884 14.471C14.6884 14.421 14.6601 14.3801 14.6254 14.3801C14.5907 14.3801 14.5623 14.4386 14.5623 14.5099ZM13.8706 14.8296C13.8695 14.8861 13.9112 14.9675 13.9632 15.0107C14.0845 15.1114 14.0857 15.0087 13.9652 14.8493C13.8874 14.7465 13.8723 14.7433 13.8706 14.8296ZM15.4294 14.8579C15.4034 14.8842 15.3821 14.9633 15.3821 15.0339C15.3821 15.1266 15.4012 15.143 15.4511 15.0931C15.489 15.0552 15.5103 14.976 15.4984 14.9172C15.4865 14.8584 15.4555 14.8317 15.4294 14.8579ZM14.3318 15.2972C14.3113 15.3508 14.3103 15.4103 14.3296 15.4296C14.3848 15.4849 14.4992 15.3912 14.4992 15.2908C14.4992 15.1698 14.3789 15.1744 14.3318 15.2972ZM15.2841 15.4564C15.0679 15.5193 14.7675 15.8045 14.8406 15.8776C14.8982 15.9353 15.5838 15.5723 15.6195 15.4651C15.6484 15.3784 15.5603 15.3762 15.2841 15.4564ZM14.1218 15.8463C14.1226 16.0018 14.1375 16.0284 14.1839 15.9567C14.264 15.8327 14.264 15.6413 14.1839 15.6413C14.1492 15.6413 14.1213 15.7335 14.1218 15.8463ZM14.3741 15.9724C14.3754 16.2527 14.4698 16.398 14.5202 16.1972C14.5639 16.0229 14.5096 15.7675 14.4288 15.7675C14.3982 15.7675 14.3736 15.8597 14.3741 15.9724ZM16.9429 15.8376C16.8296 15.9015 16.7889 16.0828 16.8879 16.0828C16.9681 16.0828 17.1005 15.9085 17.075 15.8366C17.061 15.7971 17.0139 15.7975 16.9429 15.8376ZM13.7425 16.1019C13.7425 16.2537 14.0511 16.7889 14.187 16.8729C14.3142 16.9516 14.2066 16.626 13.9877 16.2703C13.8815 16.0978 13.783 15.9567 13.7686 15.9567C13.7542 15.9567 13.7425 16.022 13.7425 16.1019ZM14.6043 16.3193C14.5058 16.5148 14.4181 16.8395 14.4639 16.8395C14.5105 16.8395 14.8146 16.3016 14.8146 16.2191C14.8146 16.0854 14.693 16.1433 14.6043 16.3193ZM15.7924 16.4594C15.7682 16.5694 15.7643 16.6752 15.7836 16.6945C15.803 16.7138 15.8532 16.6543 15.8951 16.5622C15.9494 16.4431 15.9519 16.3751 15.9039 16.3271C15.8558 16.279 15.8236 16.3172 15.7924 16.4594ZM15.0497 16.5107C14.8964 16.5301 14.6279 16.8007 14.6957 16.8674C14.7322 16.9033 15.1987 16.7328 15.2765 16.6551C15.3739 16.5576 15.2585 16.4842 15.0497 16.5107ZM15.3506 16.7134C15.2874 16.7832 15.2499 16.8545 15.2673 16.8718C15.2846 16.8892 15.3505 16.8463 15.4136 16.7765C15.4768 16.7067 15.5143 16.6354 15.4969 16.618C15.4796 16.6007 15.4138 16.6436 15.3506 16.7134ZM15.0668 17.1439C14.8878 17.2483 14.8198 17.3168 14.8826 17.3293C15.0401 17.3607 15.3049 17.2359 15.3805 17.0948C15.4681 16.931 15.4181 16.9388 15.0668 17.1439ZM14.481 17.281C14.4629 17.3503 14.4585 17.4071 14.4714 17.4071C14.4843 17.4071 14.5252 17.3503 14.5623 17.281C14.5996 17.2113 14.6039 17.1548 14.5719 17.1548C14.54 17.1548 14.4991 17.2116 14.481 17.281ZM14.8776 17.5319C14.7971 17.5875 14.8064 17.6156 14.9407 17.7214C15.1305 17.8711 15.6532 18.0555 15.8047 18.0263C15.8872 18.0104 15.8437 17.9479 15.6261 17.7696C15.3184 17.5174 15.031 17.4262 14.8776 17.5319ZM7.37491 17.941C7.28776 18.0461 7.33878 18.1638 7.47152 18.1638C7.56996 18.1638 7.59784 17.941 7.50646 17.8845C7.47575 17.8655 7.41653 17.8909 7.37491 17.941ZM4.80746 18.0917C4.315 18.2619 3.97056 18.5129 3.92641 18.7336C3.88189 18.9561 3.80943 18.9747 3.75129 18.7787L3.70917 18.6368L3.65373 18.7722C3.57409 18.9669 3.4368 19.0406 3.49488 18.8575C3.52559 18.7608 3.51764 18.7294 3.4701 18.7587C3.35072 18.8325 3.39284 19.0974 3.54047 19.2008C3.61754 19.2547 3.65298 19.2998 3.6193 19.3008C3.58556 19.3019 3.60202 19.3286 3.65588 19.3601C3.71175 19.3928 3.85383 19.3948 3.98689 19.3648C4.17412 19.3226 4.24986 19.3358 4.37189 19.4317C4.58844 19.6021 4.61966 19.5828 4.57532 19.3056C4.54499 19.1161 4.55849 19.0514 4.63429 19.0222C4.82505 18.9491 4.66223 18.8706 4.42889 18.9233C4.15962 18.984 4.09397 18.959 4.09397 18.7959C4.09397 18.5812 4.17047 18.4748 4.41452 18.3503C4.7292 18.1898 4.97684 18.1867 4.97684 18.3432C4.97684 18.4998 4.76142 18.6858 4.6189 18.6522C4.52588 18.6303 4.53875 18.6108 4.68606 18.5503C4.78621 18.5092 4.8521 18.4595 4.83243 18.4398C4.76792 18.3753 4.42467 18.4837 4.31715 18.6025C4.1728 18.7621 4.2836 18.8182 4.63807 18.765C4.85444 18.7326 4.94613 18.6815 5.02773 18.548C5.08645 18.452 5.17246 18.3862 5.21881 18.4018C5.31757 18.4351 5.79665 18.2316 5.79665 18.1564C5.79665 18.068 5.5613 17.9746 5.34361 17.9767C5.22859 17.9779 4.98731 18.0296 4.80746 18.0917ZM7.12127 18.3209C7.05273 18.4489 7.05197 18.5103 7.11705 18.652L7.19689 18.826L7.2918 18.5895C7.43848 18.2239 7.29451 17.9972 7.12127 18.3209ZM5.64492 18.4328C5.32917 18.6135 5.19239 18.8051 5.07169 19.2359C4.98624 19.5411 4.97773 19.5524 5.001 19.3305C5.01556 19.1917 5.0493 19.0215 5.07591 18.9521L5.12434 18.826L4.98031 18.9521C4.90104 19.0215 4.81181 19.1422 4.78185 19.2204C4.71457 19.3964 4.82442 19.6605 4.98643 19.7119C5.0505 19.7322 5.10297 19.7746 5.10297 19.8061C5.10297 19.8397 5.03776 19.8386 4.94531 19.8034C4.71734 19.7167 4.74767 19.8292 5.00837 20.0372C5.24643 20.2271 5.28408 20.3079 5.1345 20.3079C5.00749 20.3079 5.01518 20.3921 5.15373 20.5175C5.2593 20.613 5.29241 20.611 5.61093 20.4897C6.09273 20.3062 6.64219 20.3426 6.95151 20.5785C7.21738 20.7812 7.24708 20.7865 7.24708 20.6309C7.24708 20.4493 7.11352 20.3756 6.60801 20.2785C5.92391 20.1471 5.35736 19.8752 5.26472 19.6338C5.24631 19.5857 5.33712 19.6253 5.46665 19.7217L5.70206 19.8971L5.46557 19.6293C5.18085 19.3071 5.15941 19.0761 5.38883 18.8035C5.9077 18.1868 6.80565 18.581 6.80565 19.4254C6.80565 19.8892 6.4689 20.0862 5.9369 19.9336C5.6185 19.8423 5.75976 19.9702 6.10339 20.0844C6.42475 20.1911 6.55807 20.1679 6.85294 19.954C6.93102 19.8974 6.99483 19.8813 6.99483 19.9181C6.99483 19.955 6.96646 20.0027 6.93177 20.0242C6.81353 20.0972 6.86846 20.18 7.0992 20.2764C7.3087 20.3639 7.3442 20.3632 7.48918 20.2682L7.64866 20.1637L7.47587 20.0151C7.38084 19.9333 7.3314 19.8665 7.36596 19.8665C7.40051 19.8665 7.44428 19.8915 7.46307 19.9219C7.48193 19.9524 7.56164 19.9942 7.64021 20.0148C7.75745 20.0454 7.7461 20.0231 7.5769 19.8906C7.33083 19.6981 7.21454 19.4874 7.15438 19.1255C7.12991 18.9781 7.07984 18.8575 7.04314 18.8575C7.00644 18.8575 6.83989 18.7298 6.67303 18.5737C6.42286 18.3398 6.32764 18.2901 6.13044 18.291C5.99889 18.2915 5.78038 18.3554 5.64492 18.4328ZM7.588 18.7156C7.26058 19.4485 7.34098 19.6793 8.01897 19.9529C8.21805 20.0332 8.35994 20.1215 8.33428 20.149C8.19939 20.2934 8.57038 20.0361 8.74481 19.8642C8.94604 19.666 8.97814 19.5827 8.95046 19.3305C8.91193 18.98 8.52788 18.606 8.20595 18.6055C7.85746 18.6049 7.62628 19.121 7.85134 19.3973C7.94966 19.518 7.95042 19.5179 7.90741 19.3935C7.80947 19.1109 7.85557 18.8749 8.03114 18.7599C8.22594 18.6322 8.38826 18.7093 8.52668 18.995C8.65136 19.2525 8.56956 19.3764 8.29297 19.3495C8.14642 19.3351 8.09344 19.2955 8.07824 19.1886C8.05094 18.9963 7.94077 19.0078 7.94077 19.2029C7.94077 19.4273 8.19503 19.5775 8.49376 19.5295C8.65539 19.5035 8.69941 19.5106 8.63445 19.552C8.50953 19.6317 8.1478 19.6311 8.09842 19.5512C8.07698 19.5165 8.0278 19.4881 7.98914 19.4881C7.95042 19.4881 7.98756 19.5629 8.07169 19.6544C8.21067 19.8055 8.21244 19.8143 8.0913 19.7513C7.90924 19.6568 7.5624 19.2532 7.5624 19.136C7.5624 18.94 7.76672 18.6556 7.96795 18.5715C8.24536 18.4555 8.54825 18.5416 8.8068 18.8096C9.16203 19.1779 9.25896 19.7622 9.00892 20.0283L8.87888 20.1667L9.07198 20.2341L9.26508 20.3014L9.27662 19.8475C9.29415 19.1592 9.28399 19.106 9.08825 18.8627C8.78082 18.4805 8.53847 18.353 8.11987 18.353H7.75L7.588 18.7156ZM7.33518 18.7688C7.19613 19.1016 7.26758 19.1854 7.42631 18.8758C7.58144 18.5732 7.58787 18.5422 7.49612 18.5422C7.45967 18.5422 7.38721 18.6442 7.33518 18.7688ZM5.79665 18.6806L5.639 18.7526L5.85971 18.7893C6.15112 18.8377 6.15951 19.0076 5.87188 19.0352C5.62708 19.0587 5.55834 19.1839 5.6728 19.3978C5.77748 19.5934 5.86583 19.591 6.10982 19.3857C6.34819 19.185 6.41466 19.2178 6.23437 19.4469L6.10282 19.6142L6.24925 19.6152C6.36699 19.616 6.37714 19.6282 6.30115 19.6773C6.03654 19.8483 5.68409 19.6903 5.48361 19.3108C5.37735 19.1096 5.36039 19.0982 5.35799 19.2264C5.35459 19.4094 5.71164 19.7797 5.94895 19.8393C6.2029 19.903 6.41832 19.7741 6.55025 19.4795C6.67864 19.1926 6.64011 18.9556 6.43484 18.7698C6.28526 18.6344 5.98842 18.5929 5.79665 18.6806ZM8.19302 18.8575C8.19302 18.8922 8.2231 18.9206 8.2598 18.9206C8.2965 18.9206 8.30905 18.8922 8.28761 18.8575C8.26617 18.8228 8.23615 18.7944 8.22083 18.7944C8.2055 18.7944 8.19302 18.8228 8.19302 18.8575ZM4.09397 19.4934C4.09397 19.5333 4.1832 19.6677 4.29224 19.7919C4.80254 20.3731 4.85349 21.052 4.42019 21.4962C4.29281 21.6268 4.10343 21.7951 3.99938 21.8701C3.70008 22.086 3.95952 22.0377 4.349 21.805C4.59569 21.6576 4.7379 21.5166 4.85147 21.3063C4.93856 21.1451 5.06387 20.9536 5.12983 20.8807C5.24795 20.7501 5.24776 20.7458 5.12069 20.6068C5.04968 20.5292 4.94815 20.3805 4.89499 20.2764C4.69212 19.8791 4.09397 19.2943 4.09397 19.4934ZM3.20769 19.7322C3.05351 19.8317 2.828 20.0189 2.7066 20.148L2.48588 20.3828L2.91382 20.1492L3.3417 19.9155L3.58979 20.0874C3.72619 20.1819 3.85496 20.3135 3.87596 20.3796C3.9278 20.5428 3.8544 20.8496 3.74107 20.9436C3.66136 21.0097 3.65758 20.9966 3.71358 20.8493C3.7494 20.7551 3.77645 20.6161 3.7738 20.5403C3.77059 20.4479 3.74461 20.4809 3.69498 20.6404C3.6543 20.7712 3.5418 20.9769 3.44493 21.0975L3.26886 21.3168L3.01926 21.1895C2.88198 21.1194 2.76966 21.0286 2.76966 20.9877C2.76966 20.9313 2.78795 20.9316 2.84534 20.989C3.07634 21.22 3.59357 20.8681 3.58449 20.4862C3.58178 20.3708 3.56482 20.313 3.54684 20.3579C3.5201 20.4244 3.49595 20.4244 3.41466 20.3579C3.33111 20.2895 3.33224 20.3026 3.42173 20.4402C3.52326 20.5962 3.52206 20.6118 3.39663 20.7712C3.24433 20.9648 3.0822 20.9853 2.94529 20.8282C2.8092 20.6719 2.77786 20.5458 2.84345 20.4183C2.94567 20.2196 2.77427 20.2973 2.64638 20.5076C2.47857 20.7835 2.4215 21.1692 2.52095 21.3551C2.60993 21.5213 3.04733 21.7584 3.26508 21.7584C3.44664 21.7584 3.83926 21.5571 3.99616 21.3836C4.0707 21.3012 4.14865 21.069 4.1943 20.7936L4.2696 20.3395L4.27635 20.7147C4.28417 21.1462 4.3956 21.1302 4.45475 20.689C4.48918 20.4322 4.47941 20.4139 4.12872 20.0823C3.92988 19.8942 3.80363 19.7404 3.84815 19.7404C3.89274 19.7404 4.08331 19.8995 4.27162 20.094L4.61411 20.4475L4.46446 20.1813C4.25074 19.801 3.94533 19.5512 3.69422 19.5512C3.5744 19.5512 3.37065 19.627 3.20769 19.7322ZM8.88191 19.9067C8.79785 19.9982 8.76915 20.0604 8.81822 20.0451C8.90133 20.0192 9.12527 19.7404 9.06303 19.7404C9.04751 19.7404 8.96604 19.8152 8.88191 19.9067ZM9.77455 19.9033C9.77758 19.9767 9.79253 19.9917 9.81264 19.9414C9.83087 19.8959 9.8286 19.8415 9.80766 19.8205C9.78673 19.7996 9.77184 19.8368 9.77455 19.9033ZM10.0361 20.0666C9.97963 20.1231 10.0228 20.1676 10.2197 20.2558C10.5483 20.4029 10.6639 20.4012 10.4699 20.2521C10.3857 20.1873 10.3386 20.1044 10.3633 20.0643C10.4233 19.9673 10.1334 19.9694 10.0361 20.0666ZM7.68682 20.2856C7.35089 20.5093 7.30504 20.6524 7.50179 20.8636C7.68171 21.0567 7.75158 21.0359 7.75158 20.7894C7.75158 20.6727 7.80834 20.5051 7.87771 20.4168C7.94707 20.3287 8.00383 20.2397 8.00383 20.2191C8.00383 20.1483 7.8422 20.1821 7.68682 20.2856ZM8.27229 20.3839C8.2354 20.4288 8.16224 20.5649 8.10965 20.6863C8.04047 20.8461 8.01272 20.8717 8.009 20.7792C8.00616 20.7088 8.04804 20.5882 8.10202 20.5112C8.18917 20.3866 8.18942 20.371 8.10422 20.371C7.9786 20.371 7.87771 20.5662 7.87771 20.8092C7.87771 20.9412 7.94468 21.0765 8.08657 21.2313C8.25999 21.4206 8.34872 21.4644 8.60942 21.4895C8.90108 21.5175 8.92877 21.5077 8.99965 21.3522C9.04158 21.2602 9.07589 21.1387 9.07589 21.0823C9.07589 20.9974 9.0506 21.0034 8.92996 21.1168C8.74021 21.295 8.66081 21.2897 8.53002 21.09C8.44552 20.9611 8.43801 20.9016 8.49477 20.8107C8.54957 20.7229 8.5485 20.6878 8.49029 20.664C8.36322 20.6123 8.58482 20.4947 8.72905 20.5373C9.09821 20.6466 9.2903 21.0894 9.1153 21.4277C8.96086 21.7264 8.74336 21.7694 8.36398 21.576C8.07534 21.4288 8.05006 21.5276 8.30022 21.8249C8.61932 22.2041 9.02985 22.2637 9.26482 21.9651C9.65083 21.4744 9.35658 20.5945 8.752 20.4318C8.61364 20.3945 8.46419 20.3501 8.41992 20.3331C8.37558 20.3161 8.30918 20.339 8.27229 20.3839ZM9.96084 20.3909C9.95819 20.5365 10.0706 20.7494 10.1502 20.7494C10.2511 20.7494 10.2188 20.5835 10.087 20.4253C9.97926 20.296 9.96267 20.2915 9.96084 20.3909ZM6.3352 20.5012C6.35526 20.5336 6.41554 20.5602 6.46927 20.5602C6.58411 20.5602 7.43665 21.3659 7.6971 21.7205C7.9957 22.1271 7.91926 22.7136 7.55016 22.8474C7.45708 22.8811 7.5513 23.0993 7.65926 23.1001C7.72081 23.1005 8.30773 22.3955 8.3151 22.3124C8.31731 22.2875 8.23804 22.174 8.13897 22.0601C8.0399 21.9462 7.92462 21.7479 7.88288 21.6196C7.80127 21.3688 7.60149 21.1701 7.05556 20.7966C6.71988 20.567 6.25902 20.378 6.3352 20.5012ZM10.3042 20.4993C10.2629 20.5662 10.5468 20.8755 10.6496 20.8755C10.7389 20.8755 10.7328 20.8344 10.6171 20.6579C10.5044 20.4859 10.3583 20.4119 10.3042 20.4993ZM3.02191 20.6548C3.02191 20.7068 3.04941 20.7494 3.08302 20.7494C3.11657 20.7494 3.12773 20.7068 3.1078 20.6548C3.08781 20.6027 3.06032 20.5602 3.0467 20.5602C3.03307 20.5602 3.02191 20.6027 3.02191 20.6548ZM5.62708 20.6673C5.4809 20.6956 5.15562 21.0392 4.94531 21.3872C4.83073 21.5769 4.51876 21.8367 4.32743 21.9018C4.2701 21.9212 4.27464 21.9952 4.34622 22.2055C4.41571 22.4098 4.47846 22.4889 4.5827 22.5037C4.74534 22.5268 4.75001 22.5138 4.65453 22.3042C4.60711 22.2002 4.60478 22.1143 4.64722 22.0384C4.70164 21.9412 4.71558 21.9521 4.75272 22.1211C4.80077 22.34 5.11066 22.7127 5.149 22.5978C5.16244 22.5575 5.11501 22.41 5.04356 22.2701C4.90054 21.9897 4.88408 21.9217 4.97249 21.9764C5.04917 22.0238 5.09502 21.9484 5.33447 21.3809C5.52063 20.9396 5.55531 20.8976 5.83897 20.769C6.116 20.6434 6.1264 20.6314 5.95431 20.6357C5.85025 20.6383 5.703 20.6525 5.62708 20.6673ZM9.32952 20.6313C9.32877 20.6531 9.37405 20.7807 9.43011 20.9149C9.50345 21.0904 9.52351 21.2779 9.50169 21.5832C9.46978 22.0293 9.5107 22.0788 9.64446 21.756C9.74315 21.5177 9.64383 20.9937 9.45363 20.7494C9.38615 20.6627 9.33028 20.6096 9.32952 20.6313ZM4.42177 21.0068C4.26077 21.344 3.91759 21.6318 3.47533 21.8007L3.1942 21.9081L2.84534 21.7229C2.65344 21.621 2.47283 21.5282 2.44388 21.5166C2.33819 21.4744 2.39539 21.6573 2.55216 21.8628C2.73132 22.0977 2.71467 22.1232 2.48172 21.9706C2.29342 21.8472 2.22676 21.8878 2.33447 22.0602C2.52259 22.3615 2.93791 22.4634 3.30569 22.2985L3.49488 22.2137L3.22176 22.1663C2.89055 22.1089 2.98792 22.013 3.37885 22.0115C3.80811 22.01 4.4883 21.4113 4.57287 20.9607C4.6317 20.6471 4.58705 20.6607 4.42177 21.0068ZM8.22398 20.8755C8.27525 21.2126 8.45151 21.4115 8.69909 21.4115C8.82862 21.4115 8.91956 21.3756 8.93898 21.3169C8.96578 21.2359 8.95525 21.2348 8.86577 21.3086C8.71675 21.4316 8.47219 21.2589 8.3134 20.9184L8.19037 20.6548L8.22398 20.8755ZM6.0139 20.8167C5.90796 20.8476 5.75188 20.9466 5.66706 21.0369C5.53431 21.1781 5.51287 21.2614 5.51287 21.6356C5.51287 21.9923 5.53646 22.0938 5.64467 22.202C5.83443 22.3917 6.12476 22.3792 6.39972 22.1695C6.60013 22.0167 6.62056 22.0113 6.55819 22.1278C6.47646 22.2805 6.17793 22.452 5.99378 22.452C5.79394 22.452 5.49017 22.1533 5.44495 21.9122C5.39816 21.6631 5.324 21.6314 5.26882 21.8372C5.20223 22.0858 5.22607 22.3566 5.32734 22.5012C5.38139 22.5783 5.41008 22.6666 5.3911 22.6972C5.34021 22.7796 5.50474 22.8945 5.8104 22.9899C5.96591 23.0384 6.02355 23.076 5.94624 23.0784C5.87245 23.0808 5.70622 23.0384 5.57682 22.9843C5.44741 22.9303 5.3315 22.8962 5.31921 22.9085C5.25387 22.9738 5.57732 23.3551 5.76449 23.4333C6.21387 23.6211 7.05058 23.488 7.26846 23.194C7.41924 22.9906 7.37888 22.9153 7.17696 23.0234C7.00291 23.1165 6.3907 23.1344 6.30519 23.0489C6.26558 23.0093 6.34075 22.9953 6.51808 23.0094C6.66887 23.0214 6.85351 22.9984 6.92843 22.9583C7.10311 22.8648 7.30958 22.5269 7.30989 22.334C7.31015 22.2014 7.29797 22.1942 7.20376 22.2709C7.10885 22.348 7.1033 22.3438 7.1523 22.2313C7.18251 22.162 7.21826 21.9633 7.23182 21.7899C7.26045 21.4232 7.10362 21.1327 6.7475 20.8928C6.52477 20.7426 6.33609 20.7231 6.0139 20.8167ZM3.68148 21.132C3.61363 21.2418 3.69088 21.265 3.7774 21.1608C3.82716 21.1009 3.83195 21.0647 3.79007 21.0647C3.75325 21.0647 3.70431 21.0949 3.68148 21.132ZM5.83039 21.2604C5.7078 21.3681 5.60747 21.4958 5.60747 21.5442C5.60747 21.6733 5.71291 21.6515 5.81879 21.5004C5.90771 21.3734 5.91073 21.376 5.90115 21.5706C5.8944 21.7081 5.92902 21.7954 6.00974 21.8442C6.10023 21.8991 6.13492 21.8974 6.15686 21.8372C6.19098 21.7433 6.30115 21.7313 6.30115 21.8214C6.30115 21.9454 6.05281 22.1342 5.93999 22.096C5.86432 22.0704 5.87498 22.093 5.97278 22.166C6.14028 22.2908 6.24761 22.234 6.39991 21.9395C6.52666 21.6943 6.51253 21.5224 6.35879 21.4401C6.15529 21.3312 6.24704 21.3133 6.52426 21.4077C6.7523 21.4854 6.78124 21.5212 6.85547 21.8167C6.96002 22.2325 6.87029 22.4515 6.55264 22.5558L6.33268 22.6281L6.52187 22.654L6.71105 22.6798L6.54079 22.7296C6.41403 22.7667 6.27801 22.7371 6.00917 22.614C5.68528 22.4658 5.65993 22.4619 5.76411 22.577C6.04701 22.8896 6.67984 22.8826 6.97856 22.5635C7.09845 22.4354 7.10545 22.3909 7.04592 22.1367C6.90756 21.5458 6.79455 21.3083 6.59344 21.1857C6.30834 21.0118 6.08901 21.0333 5.83039 21.2604ZM6.14349 21.1908C6.12079 21.2275 6.18366 21.2539 6.29371 21.2539C6.39776 21.2539 6.50043 21.2822 6.52187 21.3169C6.54331 21.3516 6.59464 21.379 6.63595 21.3779C6.67725 21.3767 6.64408 21.3199 6.56217 21.2518C6.40148 21.1179 6.20612 21.0895 6.14349 21.1908ZM9.77052 21.1713C9.77109 21.1994 9.79902 21.2649 9.83264 21.3169C9.88529 21.3985 9.89387 21.3968 9.89475 21.3049C9.89526 21.2462 9.86732 21.1807 9.83264 21.1593C9.79795 21.1378 9.77002 21.1432 9.77052 21.1713ZM1.12626 21.5084C1.02038 21.5739 1.25604 21.6749 1.65403 21.7347C1.85583 21.7651 1.90186 21.7568 1.8487 21.7C1.7408 21.5845 1.22464 21.4476 1.12626 21.5084ZM7.38443 21.7741C7.44611 22.046 7.42795 22.4254 7.34035 22.6948C7.29268 22.8414 7.29413 22.8419 7.48268 22.7444C7.70479 22.6296 7.75158 22.5333 7.75158 22.1915C7.75158 21.8333 7.55659 21.5061 7.34325 21.5061C7.33241 21.5061 7.35095 21.6267 7.38443 21.7741ZM10.8416 21.6245C10.8416 21.7397 11.0309 21.8293 11.2815 21.8328C11.6294 21.8376 11.6662 21.7802 11.3894 21.6646C11.138 21.5595 10.8416 21.5379 10.8416 21.6245ZM10.3649 21.8482C10.2471 21.9347 10.2494 21.9407 10.426 22.0081C10.6797 22.105 11.799 22.1261 11.831 22.0346C11.8477 21.9868 11.7172 21.9651 11.4275 21.9673C11.1388 21.9696 10.9377 21.9363 10.8101 21.8649C10.5789 21.7356 10.5213 21.7334 10.3649 21.8482ZM1.91832 21.9475C1.89688 21.9822 1.90672 22.0106 1.9402 22.0106C1.97369 22.0106 1.98656 22.0662 1.96877 22.1342C1.95099 22.2022 1.99621 22.3545 2.06929 22.4727C2.24391 22.7553 2.23761 22.8227 2.05265 22.6489L1.90319 22.5085L1.86434 22.6537C1.84296 22.7335 1.82505 22.8937 1.82461 23.0094L1.82373 23.22L2.01594 23.0583C2.1217 22.9693 2.34885 22.8466 2.52076 22.7855C2.69267 22.7244 2.82402 22.6457 2.81261 22.6106C2.80126 22.5754 2.67286 22.4804 2.52738 22.3994C2.38189 22.3184 2.22008 22.1694 2.1678 22.0683C2.06961 21.8785 1.98605 21.838 1.91832 21.9475ZM9.8957 22.0779C9.8957 22.1165 9.84191 22.1281 9.76957 22.1052C9.66495 22.072 9.64345 22.0938 9.64345 22.2333C9.64345 22.4862 9.46158 22.8189 9.25745 22.9396C8.941 23.1265 9.06056 23.2088 9.64862 23.2088C10.0023 23.2088 10.0218 23.2007 10.0218 23.0547C10.0218 22.97 9.96198 22.7993 9.88882 22.6753C9.73804 22.4197 9.79959 22.2629 10.0506 22.2629C10.2331 22.2629 10.2899 22.2003 10.2027 22.0952C10.1192 21.9945 9.8957 21.9819 9.8957 22.0779ZM8.35067 22.1367C8.37211 22.1714 8.41802 22.1998 8.45271 22.1998C8.48739 22.1998 8.49824 22.1714 8.4768 22.1367C8.45536 22.102 8.40945 22.0737 8.37476 22.0737C8.34008 22.0737 8.32923 22.102 8.35067 22.1367ZM8.77048 22.2625C8.40743 22.3484 8.38013 22.452 8.7206 22.452C9.02847 22.452 9.26508 22.3689 9.26508 22.2606C9.26508 22.1904 9.07261 22.1911 8.77048 22.2625ZM1.03545 22.4151C0.931399 22.4986 0.867581 22.5884 0.893688 22.6147C0.957255 22.6788 1.25087 22.5167 1.32636 22.3757C1.41477 22.2104 1.2655 22.2307 1.03545 22.4151ZM3.34763 22.4207C2.94964 22.606 2.94245 22.7385 3.33079 22.7301C3.6135 22.7241 3.92156 22.5451 3.95668 22.3665C3.9867 22.2139 3.74587 22.2353 3.34763 22.4207ZM9.28217 22.3993C9.17143 22.5105 9.05098 22.546 8.71461 22.5666C8.2796 22.5931 8.12996 22.6538 8.12996 22.8036C8.12996 22.9247 8.5258 23.0166 8.79041 22.9569C9.18959 22.8669 9.49191 22.5863 9.44247 22.3518C9.42696 22.2782 9.39259 22.2883 9.28217 22.3993ZM10.6735 22.3529C10.7009 22.4245 10.6613 22.4353 10.4797 22.4058L10.2514 22.3688L10.5155 22.6074C10.767 22.8346 10.796 22.8446 11.1281 22.817C11.533 22.7835 11.5089 22.8512 11.0746 22.9669C10.8155 23.0359 10.7313 23.0331 10.4931 22.9475L10.2147 22.8474L10.544 23.1574L10.8732 23.4675L11.2567 23.4012C12.0518 23.2638 12.152 23.3465 11.3712 23.4956C11.0972 23.5479 10.8637 23.6183 10.8522 23.652C10.8406 23.6857 10.7753 23.7133 10.7071 23.7133C10.5293 23.7133 10.2258 23.8831 10.1498 24.0251C10.0623 24.1886 10.0681 24.2968 10.172 24.4389C10.2549 24.5523 10.2695 24.547 10.479 24.3248C10.6909 24.1001 10.7146 24.0916 11.1329 24.0908C11.3715 24.0903 11.6307 24.0728 11.7087 24.0519C11.7867 24.031 11.8506 24.0413 11.8506 24.0747C11.8506 24.1082 11.6024 24.1703 11.2988 24.2128C10.6874 24.2982 10.5486 24.3818 10.4889 24.7001C10.4387 24.9677 10.5161 25.0636 10.8939 25.2015C11.0559 25.2607 11.4133 25.4056 11.6881 25.5236C12.0935 25.6977 12.3182 25.7495 12.8813 25.799C13.2627 25.8324 13.6122 25.8908 13.6579 25.9287C13.8903 26.1216 14.0578 25.6564 14.0578 24.8179C14.0578 24.2438 13.9897 24.0542 13.7337 23.9156C13.4088 23.7397 13.1243 23.4682 12.765 22.9908C12.2991 22.3717 12.1728 22.3154 11.4025 22.3838C10.9899 22.4204 10.8621 22.4122 10.8227 22.3468C10.755 22.2341 10.6299 22.2392 10.6735 22.3529ZM0.542683 22.39C0.348704 22.4483 0.184111 22.5648 0.184111 22.6439C0.184111 22.6716 0.274795 22.7142 0.385659 22.7385C0.559017 22.7766 0.607575 22.7574 0.732186 22.6017C0.957885 22.3197 0.919543 22.2769 0.542683 22.39ZM10.0299 22.5564C10.1061 22.6483 10.4581 22.8304 10.5596 22.8304C10.6533 22.8304 10.4949 22.6908 10.2723 22.5773C9.97333 22.4247 9.91663 22.4199 10.0299 22.5564ZM1.54638 23.0296C1.42972 23.1961 1.41837 23.2718 1.50999 23.2718C1.57772 23.2718 1.72075 22.9587 1.67427 22.9122C1.65952 22.8974 1.60194 22.9502 1.54638 23.0296ZM2.42282 22.9609C2.17524 23.0379 1.90615 23.2493 1.97205 23.3149C2.06646 23.4088 2.84219 23.341 3.04808 23.2208C3.34763 23.0458 3.30096 22.9271 2.92732 22.9135C2.7539 22.9072 2.52687 22.9285 2.42282 22.9609ZM5.13198 23.0647C5.23603 23.482 5.36417 23.6453 5.71934 23.8133C5.9125 23.9047 6.23033 23.9939 6.42563 24.0116C6.76024 24.042 6.79228 24.0322 6.98235 23.8422C7.2532 23.5713 7.24368 23.4944 6.94754 23.5598C6.8175 23.5885 6.50358 23.6134 6.25007 23.6153L5.78902 23.6187L5.43865 23.2539C5.13179 22.9346 5.0937 22.9111 5.13198 23.0647ZM3.84771 23.107C3.75318 23.2209 3.84267 23.4233 4.03236 23.5248C4.19626 23.6126 4.19084 23.5366 4.02013 23.355C3.84563 23.1692 3.90661 23.1027 4.12197 23.2438C4.30838 23.3659 4.40727 23.3201 4.30611 23.1585C4.21833 23.0182 3.94672 22.9877 3.84771 23.107ZM7.9368 23.1403L7.78311 23.2688L8.09842 23.2299C8.52712 23.177 8.56666 23.1313 8.25198 23.0524C8.13809 23.0238 8.04514 23.0497 7.9368 23.1403ZM10.1703 23.176C10.1927 23.2344 10.211 23.294 10.211 23.3085C10.211 23.323 10.2557 23.3349 10.3102 23.3349C10.4505 23.3349 10.3959 23.1212 10.2484 23.0927C10.1589 23.0755 10.1396 23.0962 10.1703 23.176ZM8.52895 23.2429C8.12378 23.4219 8.21559 23.5588 8.69638 23.4927C8.97953 23.4538 9.00066 23.4391 8.95437 23.3138C8.89238 23.1457 8.7882 23.1284 8.52895 23.2429ZM9.44701 23.5139C9.60725 23.7389 9.76957 23.8773 9.76957 23.7889C9.76957 23.6991 9.45811 23.3349 9.3813 23.3349C9.34731 23.3349 9.37689 23.4154 9.44701 23.5139ZM9.14078 23.4698C9.13819 23.6161 9.35267 23.8627 9.45332 23.8292C9.51253 23.8094 9.47879 23.7363 9.34018 23.5837C9.20176 23.4315 9.1421 23.3974 9.14078 23.4698ZM9.76957 23.447C9.76957 23.5572 9.97333 23.7763 10.0759 23.7763C10.1839 23.7763 10.3371 23.6639 10.3371 23.5847C10.3371 23.525 10.0348 23.398 9.89273 23.398C9.82501 23.398 9.76957 23.42 9.76957 23.447ZM10.5263 23.461C10.5263 23.4957 10.5564 23.5241 10.5931 23.5241C10.6298 23.5241 10.6424 23.4957 10.6209 23.461C10.5995 23.4263 10.5695 23.398 10.5541 23.398C10.5388 23.398 10.5263 23.4263 10.5263 23.461ZM2.90871 23.7371C2.63156 24.2069 2.68756 24.3996 2.98717 24.0069C3.14457 23.8006 3.2041 23.5241 3.09122 23.5241C3.05994 23.5241 2.97783 23.6199 2.90871 23.7371ZM2.50089 23.7549C2.25697 23.9284 2.20217 24.0286 2.35118 24.0286C2.44546 24.0286 2.76966 23.7288 2.76966 23.6416C2.76966 23.5653 2.76411 23.5676 2.50089 23.7549ZM4.57362 23.6871C4.5525 23.7421 4.51888 23.9478 4.49889 24.1443L4.46257 24.5015L4.66052 24.2913C4.82745 24.1139 4.85173 24.0498 4.81559 23.8814C4.74767 23.5644 4.65062 23.4865 4.57362 23.6871ZM7.46925 23.7747C7.40726 23.8432 7.30359 23.9161 7.23876 23.9366C7.07947 23.9872 7.09056 24.0576 7.27086 24.1397C7.35328 24.1773 7.5192 24.2944 7.63952 24.4001L7.85822 24.5921L7.80702 24.263C7.70347 23.5985 7.67112 23.5517 7.46925 23.7747ZM8.48279 23.783C8.54888 23.8561 8.70225 23.9677 8.82364 24.031C9.0745 24.1619 9.34497 24.4039 9.49323 24.6302C9.62939 24.8379 9.70651 24.7708 9.70651 24.4447C9.70651 24.1774 9.70178 24.1717 9.26703 23.9124C8.96427 23.7318 8.75515 23.6502 8.5951 23.6502C8.36278 23.6502 8.36272 23.6503 8.48279 23.783ZM1.96562 23.8387C1.85286 23.9074 1.76067 23.9924 1.76067 24.0276C1.76067 24.1497 1.94891 24.0907 2.1538 23.9043C2.39356 23.6862 2.28043 23.6467 1.96562 23.8387ZM7.97848 23.8294C7.90993 23.9404 8.06607 24.7407 8.19567 24.9429C8.29518 25.0982 8.31668 25.1095 8.3153 25.006C8.31435 24.9367 8.27273 24.7664 8.22272 24.6277C8.17278 24.4889 8.13096 24.2761 8.12996 24.1547C8.12775 23.9052 8.0435 23.7242 7.97848 23.8294ZM8.25242 23.9223C8.28913 24.0199 8.31958 24.2044 8.32009 24.3322C8.32066 24.4601 8.35086 24.6072 8.38725 24.6592C8.43556 24.7283 8.44697 24.6468 8.42944 24.3578C8.41317 24.0896 8.36997 23.9267 8.29556 23.8533C8.19138 23.7504 8.18917 23.7539 8.25242 23.9223ZM13.9947 23.8104C13.9947 23.8291 14.0515 23.9557 14.1209 24.0916C14.3637 24.5675 14.2452 25.6914 13.8628 26.5401C13.7639 26.7595 13.6548 26.9217 13.6205 26.9004C13.5464 26.8547 13.4163 26.4148 13.4629 26.3682C13.4807 26.3504 13.5116 26.3985 13.5316 26.475C13.5792 26.6567 13.6424 26.651 13.7307 26.4572C13.8263 26.2474 13.7719 26.1322 13.5389 26.051C13.3333 25.9793 12.842 25.959 12.7814 26.0196C12.745 26.0561 13.0073 26.8912 13.1025 27.0422C13.1423 27.1051 13.3262 27.1136 13.9211 27.08L14.6884 27.0366L14.6879 26.3997C14.687 25.2074 14.5006 24.156 14.2445 23.9C14.1278 23.7833 13.9947 23.7355 13.9947 23.8104ZM3.65254 23.9524C3.65254 24.0761 3.71459 24.2955 3.88574 24.7764C3.95631 24.9748 3.99881 25.0274 4.0386 24.9656C4.09567 24.8769 4.05229 24.5492 3.96879 24.4385C3.94262 24.4038 3.88706 24.2694 3.84532 24.1398C3.75987 23.8745 3.65254 23.7701 3.65254 23.9524ZM5.33913 24.6437C5.03581 24.9484 4.78766 25.2313 4.78766 25.2724C4.78766 25.4091 4.93301 25.6682 5.00976 25.6682C5.05138 25.6682 5.2144 25.5476 5.37199 25.4002C5.60646 25.1809 5.68364 25.0492 5.7964 24.6764C5.8722 24.4257 5.92442 24.1911 5.91237 24.1551C5.90039 24.1191 5.6424 24.339 5.33913 24.6437ZM8.69386 24.211C8.84048 24.485 9.38912 24.8124 9.31269 24.5804C9.2821 24.4875 8.77805 24.0916 8.69039 24.0916C8.65318 24.0916 8.65451 24.1374 8.69386 24.211ZM6.08548 24.2966C6.06958 24.3746 6.04278 24.6229 6.02595 24.8484C5.99864 25.2143 6.00501 25.2452 6.08522 25.1359C6.14217 25.0583 6.17503 24.8563 6.17503 24.5841C6.17503 24.1512 6.13876 24.0349 6.08548 24.2966ZM6.3021 24.2966C6.30336 24.4806 6.39688 24.6333 6.45288 24.5427C6.50579 24.457 6.43144 24.1547 6.3574 24.1547C6.32644 24.1547 6.30159 24.2185 6.3021 24.2966ZM6.69409 24.2966C6.72903 24.4063 7.48634 24.9745 7.59758 24.9745C7.714 24.9745 7.71349 24.8274 7.59632 24.6008C7.54083 24.4934 7.40247 24.3819 7.24822 24.3202C6.93947 24.1966 6.65846 24.1847 6.69409 24.2966ZM8.59718 24.5569C8.57883 24.6046 8.57265 24.7812 8.58337 24.9494C8.60147 25.2324 8.62159 25.2655 8.85517 25.3975C8.99391 25.4759 9.1732 25.5405 9.25354 25.5411C9.37619 25.5419 9.39265 25.5192 9.35582 25.4002C9.26495 25.1063 9.0629 24.7674 9.01995 24.8369C8.99353 24.8796 8.92977 24.821 8.85851 24.6888C8.7334 24.4565 8.65154 24.4152 8.59718 24.5569ZM3.15447 24.7793C3.04688 24.8799 2.95885 24.9948 2.95885 25.0349C2.95885 25.1317 3.3294 24.915 3.40602 24.7734C3.50774 24.5854 3.35829 24.589 3.15447 24.7793ZM10.747 24.7223C10.7685 24.757 10.9404 24.7853 11.1291 24.7853C11.3179 24.7853 11.4723 24.757 11.4723 24.7223C11.4723 24.6871 11.3029 24.6592 11.0902 24.6592C10.8515 24.6592 10.7227 24.6829 10.747 24.7223ZM6.89602 24.9415C6.98058 25.3946 7.24595 26.1563 7.34893 26.2417C7.5984 26.4488 7.72598 25.7703 7.51497 25.3582C7.45437 25.2398 7.27975 25.0412 7.12695 24.9168L6.84922 24.6907L6.89602 24.9415ZM8.67197 25.5503C8.82414 25.7204 9.21065 25.9676 9.36661 25.9945C9.45578 26.0099 9.48031 25.9833 9.46404 25.8889C9.43055 25.6949 9.32908 25.6051 9.1433 25.6051C9.05009 25.6051 8.9188 25.5634 8.85145 25.5126C8.65457 25.3636 8.5287 25.3901 8.67197 25.5503ZM7.12096 26.5473C7.12096 26.58 7.14934 26.6242 7.18402 26.6457C7.21871 26.6671 7.24708 26.6404 7.24708 26.5863C7.24708 26.5323 7.21871 26.488 7.18402 26.488C7.14934 26.488 7.12096 26.5147 7.12096 26.5473ZM16.8714 27.0438C16.8516 27.0758 16.6696 27.1208 16.467 27.1437C15.9303 27.2044 15.6766 27.4226 15.9139 27.6196C16.0317 27.7174 17.1429 27.4571 17.1958 27.3192C17.2652 27.1386 16.9684 26.8867 16.8714 27.0438ZM13.6711 27.3524C13.7052 27.4146 13.886 27.6153 14.0728 27.7984L14.4124 28.1314L14.7391 28.0613C14.9187 28.0228 15.0812 27.9662 15.1002 27.9355C15.1505 27.8539 14.8765 27.3459 14.8171 27.4107C14.7894 27.4408 14.7327 27.5719 14.6911 27.7019C14.6111 27.9527 14.4992 28.02 14.4992 27.8175C14.4992 27.7509 14.482 27.6516 14.461 27.5968C14.4354 27.5302 14.4579 27.497 14.5286 27.497C14.5955 27.497 14.6268 27.4563 14.6135 27.3866C14.596 27.2948 14.5102 27.2732 14.1008 27.2578C13.6441 27.2406 13.6135 27.2474 13.6711 27.3524ZM16.5645 27.8643C15.5896 28.0623 15.4452 28.1071 15.4452 28.2108C15.4452 28.3963 16.2492 29.1543 16.6552 29.3516C17.1624 29.5981 17.4315 29.6198 17.9283 29.4545C18.1569 29.3784 18.4004 29.2687 18.4695 29.2106C18.5946 29.1055 18.5946 29.1024 18.4729 28.484C18.2938 27.5743 18.3214 27.622 17.9792 27.63C17.8168 27.6338 17.1802 27.7392 16.5645 27.8643ZM15.8382 29.0872C15.8673 29.1759 16.3836 29.5435 16.4233 29.5038C16.4368 29.4903 16.3048 29.3728 16.1298 29.2428C15.9548 29.1128 15.8236 29.0428 15.8382 29.0872ZM18.1884 29.5507L17.8731 29.7025L18.2672 29.7033C18.6458 29.7041 18.6614 29.6979 18.6614 29.5465C18.6614 29.3547 18.5941 29.3552 18.1884 29.5507Z" fill="#1D6235"/>
</svg>
