<svg width="157" height="52" viewBox="0 0 157 52" fill="none" xmlns="http://www.w3.org/2000/svg">
<path fill-rule="evenodd" clip-rule="evenodd" d="M77.32 0.698918C77.2018 1.08334 76.8005 1.49752 76.4279 1.61945C75.614 1.88625 75.5504 2.35423 76.2882 2.64649C76.5843 2.76339 76.9906 3.34576 77.1911 3.93997C77.6366 5.25819 78.096 5.32489 78.3904 4.11461C78.5116 3.61615 78.9054 3.04561 79.2657 2.84658C80.1085 2.38112 80.0998 1.89987 79.2435 1.61945C78.871 1.49752 78.4696 1.08334 78.3514 0.698918C78.2333 0.314496 78.0011 0 77.8357 0C77.6703 0 77.4382 0.314496 77.32 0.698918ZM77.3339 1.76074C77.0945 2.16022 77.4597 3.22742 77.8357 3.22742C78.2117 3.22742 78.5769 2.16022 78.3375 1.76074C78.2301 1.58108 78.0043 1.43441 77.8357 1.43441C77.6672 1.43441 77.4413 1.58108 77.3339 1.76074ZM67.9316 2.8093C66.9759 3.36119 65.5685 4.26091 64.8039 4.8085C61.0949 7.46682 57.414 8.71512 53.1621 8.75672C49.7332 8.79043 47.5105 7.94914 47.3169 6.5445C47.2426 6.00193 47.3847 5.73764 47.7513 5.73764C48.0651 5.73764 48.2969 6.0421 48.2969 6.45485C48.2969 7.2305 49.1417 7.43348 49.548 6.75536C49.9546 6.07688 48.3963 5.00609 47.498 5.34641C46.3741 5.77243 46.3536 6.95295 47.4545 7.84659C48.9138 9.03105 50.9252 9.4291 54.3784 9.21753C58.0903 8.98945 61.4903 7.76626 65.3989 5.25245C70.0444 2.26458 73.1874 1.68866 74.9798 3.49638C75.5178 4.03858 75.6137 4.18704 75.1932 3.82557C74.7731 3.4641 73.8098 3.0829 73.0532 2.97819C70.9358 2.68521 69.4387 3.61328 67.7731 6.25116C66.3934 8.43649 65.2553 9.37567 64.3695 9.0601C63.7138 8.82629 63.8479 8.35508 64.6302 8.14386C65.4503 7.9226 65.5469 7.23732 64.7994 6.94147C63.4907 6.42293 62.7494 8.64161 63.9681 9.42946C64.9113 10.0394 66.3222 9.38248 67.4158 7.82435C68.4139 6.40249 68.449 6.38456 68.2527 7.39725C67.9976 8.71404 69.1812 10.4888 69.8575 9.80312C70.3426 9.31148 70.0149 8.60646 69.3011 8.60646C68.7176 8.60646 68.6415 7.43096 69.16 6.43118C69.422 5.92626 69.4075 5.73764 69.1062 5.73764C68.3482 5.73764 69.7685 4.475 71.0748 3.98766C73.4219 3.11159 76.0502 4.43304 75.6926 6.30925C75.5338 7.14157 74.3272 7.86918 74.1132 7.2617C73.8883 6.62411 72.9705 6.70515 72.9705 7.36247C72.9705 8.64842 75.3916 8.43182 76.0182 7.09029L76.3987 6.27555L76.422 7.0824C76.4533 8.15355 75.2742 9.32367 74.1639 9.32367C72.6192 9.32367 71.928 8.70652 71.928 7.32733C71.928 5.90906 72.6703 5.37151 73.7069 6.03959C74.5528 6.58502 74.7081 6.56386 74.7081 5.90546C74.7081 5.25567 73.44 4.6959 72.5268 4.94262C72.1726 5.038 71.6447 5.492 71.3528 5.95101C70.9153 6.64024 70.8945 7.01033 71.2326 8.06749C71.7761 9.76726 72.9573 10.549 74.5229 10.246C77.6071 9.64892 77.9973 4.69985 75.1192 2.68199C73.2725 1.38672 70.304 1.43944 67.9316 2.8093ZM80.5616 2.67517C77.6484 4.71813 78.0129 9.63888 81.1222 10.241C82.7162 10.5494 83.8911 9.77946 84.4388 8.06749C84.777 7.01033 84.7561 6.64024 84.3186 5.95101C84.0267 5.492 83.4988 5.038 83.1447 4.94262C82.2314 4.6959 80.9633 5.25567 80.9633 5.90546C80.9633 6.56386 81.1187 6.58502 81.9645 6.03959C83.0012 5.37151 83.7435 5.90906 83.7435 7.32733C83.7435 8.70652 83.0522 9.32367 81.5075 9.32367C80.1098 9.32367 79.2188 8.14817 79.2657 6.3652L79.3057 4.84114L79.5646 6.22319C79.7067 6.98343 80.0407 7.75156 80.3065 7.92978C81.0697 8.44258 82.508 8.141 82.6366 7.441C82.7687 6.72236 81.805 6.56207 81.5583 7.2617C81.3442 7.86918 80.1376 7.14157 79.9788 6.30925C79.6212 4.43304 82.2495 3.11159 84.5966 3.98766C85.9029 4.475 87.3232 5.73764 86.5653 5.73764C86.264 5.73764 86.2494 5.92626 86.5114 6.43118C87.0928 7.55217 86.9378 8.50461 86.1396 8.72013C85.7372 8.82879 85.473 9.11998 85.553 9.36706C85.8205 10.1951 86.4739 10.0939 87.0855 9.13038C87.5884 8.33859 87.6249 7.98249 87.2999 7.04618L86.9076 5.91694L87.4938 6.81345C88.7529 8.73807 89.9682 9.73355 90.9162 9.61664C92.1047 9.47033 92.7469 8.48561 92.218 7.62031C91.7676 6.88338 90.6448 6.78584 90.4255 7.46468C90.3414 7.72502 90.6013 8.02517 91.0048 8.13419C91.8183 8.35365 91.9688 8.82235 91.3019 9.0601C90.4085 9.37854 89.2516 8.41963 87.9359 6.26981C86.3328 3.65058 84.7665 2.68091 82.6182 2.97819C81.8617 3.0829 80.8584 3.5412 80.3886 3.99662C79.8777 4.49185 79.6167 4.6041 79.7387 4.27598C80.0709 3.38199 81.8391 2.51022 83.3191 2.51022C85.203 2.51022 86.9826 3.21308 90.1965 5.22628C94.3434 7.82399 97.5849 8.98981 101.293 9.21753C104.746 9.4291 106.758 9.03105 108.217 7.84659C109.318 6.95295 109.297 5.77243 108.173 5.34641C107.275 5.00609 105.717 6.07688 106.123 6.75536C106.53 7.43348 107.374 7.2305 107.374 6.45485C107.374 6.0421 107.606 5.73764 107.92 5.73764C108.287 5.73764 108.429 6.00193 108.354 6.5445C108.161 7.94914 105.938 8.79043 102.509 8.75672C98.1142 8.71369 94.865 7.58875 90.6635 4.65681C87.3475 2.34239 86.0381 1.79301 83.838 1.79301C82.2665 1.79301 81.5413 1.98845 80.5616 2.67517ZM52.3132 4.02459C51.5872 5.09359 51.6317 5.81546 52.4925 6.94434C53.0919 7.73111 53.4923 7.88926 54.8824 7.88926C55.8008 7.88926 57.1579 7.63322 57.8981 7.32051C60.9479 6.03098 65.1254 3.82844 64.766 3.69899C64.554 3.6226 63.1466 4.19315 61.6384 4.96701C56.5233 7.59162 54.5811 7.95094 53.0753 6.55059C52.3302 5.85777 52.2788 4.45456 52.9884 4.17342C53.607 3.92849 54.5522 4.24693 54.5522 4.7002C54.5522 4.87628 54.3176 5.02044 54.0309 5.02044C53.3533 5.02044 53.3564 5.69963 54.0354 5.96822C54.6429 6.20885 55.5948 5.50957 55.5948 4.82285C55.5948 4.07624 54.5751 3.22742 53.6782 3.22742C53.2205 3.22742 52.6134 3.58172 52.3132 4.02459ZM100.623 3.79079C100.322 4.10098 100.077 4.56537 100.077 4.82285C100.077 5.52535 100.955 6.13892 101.596 5.88467C102.306 5.60353 102.336 5.02044 101.64 5.02044C101.354 5.02044 101.119 4.87628 101.119 4.7002C101.119 4.24693 102.064 3.92849 102.683 4.17342C103.393 4.45456 103.341 5.85777 102.596 6.55059C101.09 7.95094 99.1481 7.59162 94.033 4.96701C92.5248 4.19315 91.1174 3.6226 90.9054 3.69899C90.5461 3.82844 94.7235 6.03098 97.7733 7.32051C98.5135 7.63322 99.8706 7.88926 100.789 7.88926C102.179 7.88926 102.579 7.73111 103.179 6.94434C104.04 5.81546 104.084 5.09359 103.358 4.02459C102.727 3.09474 101.407 2.98214 100.623 3.79079ZM45.7486 8.12844C45.3097 8.581 45.5178 9.04145 46.0631 8.82557C46.3637 8.70651 46.911 8.77536 47.2794 8.97905C47.7187 9.22147 47.9494 9.22541 47.9494 8.99017C47.9494 8.30524 46.2295 7.63178 45.7486 8.12844ZM108.33 8.27188C107.477 8.79114 107.535 9.45241 108.392 8.97905C108.76 8.77536 109.329 8.71476 109.656 8.84421C110.072 9.00881 110.2 8.92813 110.086 8.57383C109.878 7.92906 109.11 7.79709 108.33 8.27188ZM4.50693 9.76009C3.94708 11.419 2.20081 12.9097 0.817353 12.9097H0V25.8194V38.7291H0.817353C2.20081 38.7291 3.94708 40.2198 4.50693 41.8787L5.01743 43.3909H10.1541C13.3467 43.3909 44.4742 43.2554 44.4742 43.0323C44.4742 42.8107 13.4596 42.6737 10.4922 42.6737H5.69405L5.0845 41.2479C4.38807 39.6195 3.06473 38.4114 1.66007 38.1212L0.695031 37.9222V25.8194V13.7166L1.66007 13.5175C3.06473 13.2274 4.38807 12.0193 5.0845 10.3909L5.69405 8.96506H10.4922C13.4596 8.96506 44.4742 8.82808 44.4742 8.60646C44.4742 8.38341 13.3467 8.24786 10.1541 8.24786H5.01743L4.50693 9.76009ZM61.5025 8.60646C61.0532 8.9059 61.0626 8.95466 61.5689 8.95968C61.8921 8.96255 62.2532 8.80369 62.3713 8.60646C62.6431 8.15247 62.183 8.15247 61.5025 8.60646ZM77.4031 9.14437C77.2779 9.81997 77.3846 10.0409 77.8357 10.0409C78.2868 10.0409 78.3935 9.81997 78.2684 9.14437C78.177 8.65129 77.9824 8.24786 77.8357 8.24786C77.6891 8.24786 77.4944 8.65129 77.4031 9.14437ZM93.3001 8.60646C93.4183 8.80369 93.7794 8.96255 94.1026 8.95968C94.6089 8.95466 94.6183 8.9059 94.1689 8.60646C93.4885 8.15247 93.0284 8.15247 93.3001 8.60646ZM111.197 8.60646C111.197 8.8288 142.781 8.96506 145.88 8.96506H150.875L151.09 10.0742C151.353 11.4283 153.047 13.1324 154.447 13.4498L155.48 13.6839V25.8194V37.9549L154.447 38.189C153.047 38.5064 151.353 40.2105 151.09 41.5646L150.875 42.6737H145.88C142.781 42.6737 111.197 42.81 111.197 43.0323C111.197 43.2561 142.911 43.3909 146.271 43.3909C151.469 43.3909 151.657 43.3651 151.657 42.6558C151.657 40.7807 153.645 38.7291 155.462 38.7291C156.167 38.7291 156.175 38.5942 156.175 25.8194C156.175 13.0445 156.167 12.9097 155.462 12.9097C153.645 12.9097 151.657 10.8581 151.657 8.98299C151.657 8.27367 151.469 8.24786 146.271 8.24786C142.911 8.24786 111.197 8.38269 111.197 8.60646ZM72.3891 41.7564C71.9735 42.0648 71.4512 42.8878 71.2281 43.5849C70.8952 44.6267 70.9174 45.0014 71.3528 45.6878C71.6447 46.1468 72.1726 46.6008 72.5268 46.6962C73.44 46.9429 74.7081 46.3831 74.7081 45.7333C74.7081 45.0749 74.5528 45.0538 73.7069 45.5992C72.6703 46.2673 71.928 45.7297 71.928 44.3114C71.928 43.4386 72.1323 42.9448 72.6001 42.6863C74.3602 41.7144 76.4707 42.8473 76.4182 44.7357L76.3907 45.7218L76.0415 44.735C75.5157 43.2493 72.9705 42.8688 72.9705 44.2763C72.9705 44.9336 73.8883 45.0147 74.1132 44.3771C74.3272 43.7696 75.5338 44.4972 75.6926 45.3295C76.0502 47.2057 73.4219 48.5272 71.0748 47.6511C69.7685 47.1638 68.3482 45.9011 69.1062 45.9011C69.4075 45.9011 69.422 45.7125 69.16 45.2076C68.5786 44.0866 68.7336 43.1342 69.5319 42.9186C69.9343 42.81 70.1984 42.5188 70.1185 42.2717C69.8509 41.4437 69.1976 41.5448 68.5859 42.5084C68.0831 43.3002 68.0466 43.6563 68.3715 44.5926L68.7639 45.7218L68.1776 44.8253C66.9186 42.9007 65.7033 41.9052 64.7553 42.0221C63.5668 42.1684 62.9246 43.1532 63.4535 44.0185C63.9039 44.7554 65.0267 44.8529 65.2459 44.1741C65.33 43.9138 65.0701 43.6136 64.6666 43.5046C63.686 43.2399 63.7339 42.6737 64.7376 42.6737C65.8385 42.6737 66.4477 43.2378 67.8784 45.5809C69.3456 47.9846 70.9667 48.9493 73.0532 48.6606C73.8098 48.5559 74.813 48.0976 75.2829 47.6422C75.7937 47.1469 76.0547 47.0347 75.9327 47.3628C75.6005 48.2568 73.8324 49.1286 72.3523 49.1286C70.4684 49.1286 68.6888 48.4257 65.475 46.4125C61.3281 43.8148 58.0864 42.649 54.3784 42.4213C50.9252 42.2097 48.9138 42.6077 47.4545 43.7922C46.3536 44.6858 46.3741 45.8664 47.498 46.2924C48.3963 46.6327 49.9546 45.5619 49.548 44.8834C49.1417 44.2053 48.2969 44.4083 48.2969 45.1839C48.2969 45.5967 48.0651 45.9011 47.7513 45.9011C47.3847 45.9011 47.2426 45.6368 47.3169 45.0943C47.5105 43.6896 49.7332 42.8483 53.1621 42.8821C57.5572 42.9251 60.8064 44.05 65.0079 46.982C68.3239 49.2964 69.6334 49.8458 71.8335 49.8458C74.4607 49.8458 76.2288 48.7033 76.8352 46.6144C77.295 45.0319 76.8623 42.7598 75.9539 41.9816C75.1154 41.2637 73.2141 41.1435 72.3891 41.7564ZM80.2683 41.7015C78.9672 42.3782 78.2805 44.7009 78.8261 46.5803C79.4433 48.7058 81.1934 49.8458 83.838 49.8458C86.0381 49.8458 87.3475 49.2964 90.6635 46.982C94.865 44.05 98.1142 42.9251 102.509 42.8821C105.938 42.8483 108.161 43.6896 108.354 45.0943C108.429 45.6368 108.287 45.9011 107.92 45.9011C107.606 45.9011 107.374 45.5967 107.374 45.1839C107.374 44.4083 106.53 44.2053 106.123 44.8834C105.771 45.4715 107.229 46.5904 108.057 46.367C109.216 46.0543 109.329 44.802 108.282 43.8725C106.888 42.6346 104.822 42.205 101.293 42.4195C97.3396 42.6594 94.9634 43.5308 90.0391 46.547C85.3316 49.4301 82.4552 49.9211 80.6916 48.1424C80.1536 47.6002 80.0577 47.4517 80.4782 47.8132C80.8984 48.1747 81.8617 48.5559 82.6182 48.6606C84.7665 48.9579 86.3328 47.9882 87.9359 45.369C89.2516 43.2191 90.4085 42.2602 91.3019 42.5787C91.9577 42.8125 91.8235 43.2837 91.0413 43.4949C90.2211 43.7162 90.1245 44.4015 90.872 44.6973C92.1808 45.2158 92.922 42.9972 91.7033 42.2093C90.7602 41.5993 89.3492 42.2563 88.2556 43.8144C87.2575 45.2363 87.2224 45.2542 87.4188 44.2415C87.6739 42.9247 86.4902 41.15 85.814 41.8357C85.3288 42.3273 85.6565 43.0323 86.3703 43.0323C86.9538 43.0323 87.0299 44.2078 86.5114 45.2076C86.2494 45.7125 86.264 45.9011 86.5653 45.9011C87.3232 45.9011 85.9029 47.1638 84.5966 47.6511C82.2495 48.5272 79.6212 47.2057 79.9788 45.3295C80.1376 44.4972 81.3442 43.7696 81.5583 44.3771C81.7831 45.0147 82.7009 44.9336 82.7009 44.2763C82.7009 42.8688 80.1557 43.2493 79.6299 44.735L79.2807 45.7218L79.2532 44.7357C79.2007 42.8473 81.3112 41.7144 83.0714 42.6863C83.5391 42.9448 83.7435 43.4386 83.7435 44.3114C83.7435 45.7297 83.0012 46.2673 81.9645 45.5992C81.1187 45.0538 80.9633 45.0749 80.9633 45.7333C80.9633 46.3831 82.2314 46.9429 83.1447 46.6962C83.4988 46.6008 84.0267 46.1468 84.3186 45.6878C84.754 45.0014 84.7763 44.6267 84.4433 43.5849C83.7667 41.4699 82.132 40.7326 80.2683 41.7015ZM77.4031 42.4944C77.4944 42.9875 77.6891 43.3909 77.8357 43.3909C77.9824 43.3909 78.177 42.9875 78.2684 42.4944C78.3935 41.8188 78.2868 41.5979 77.8357 41.5979C77.3846 41.5979 77.2779 41.8188 77.4031 42.4944ZM47.2443 42.6852C46.9632 42.867 46.4408 42.9219 46.0839 42.8071C45.636 42.6633 45.4831 42.749 45.5915 43.0843C45.8157 43.78 46.6355 43.8542 47.4344 43.2514C48.2066 42.6687 48.0394 42.1702 47.2443 42.6852ZM107.722 42.6486C107.722 43.1664 109.079 43.8392 109.66 43.6089C109.932 43.5014 110.155 43.2299 110.155 43.0051C110.155 42.7806 109.908 42.6945 109.608 42.8132C109.308 42.9323 108.76 42.8634 108.392 42.6597C107.953 42.4173 107.722 42.4134 107.722 42.6486ZM61.5025 43.0323C62.183 43.4863 62.6431 43.4863 62.3713 43.0323C62.2532 42.8351 61.8921 42.6762 61.5689 42.6791C61.0626 42.6841 61.0532 42.7329 61.5025 43.0323ZM93.3001 43.0323C93.182 43.2295 93.32 43.3909 93.6067 43.3909C93.8934 43.3909 94.2245 43.2295 94.3427 43.0323C94.4608 42.8351 94.3229 42.6737 94.0362 42.6737C93.7495 42.6737 93.4183 42.8351 93.3001 43.0323ZM52.4925 44.6944C52.0963 45.2141 51.7721 45.9044 51.7721 46.2282C51.7721 47.2251 52.808 48.4114 53.6782 48.4114C54.5751 48.4114 55.5948 47.5625 55.5948 46.8159C55.5948 46.1292 54.6429 45.4299 54.0354 45.6705C53.3564 45.9391 53.3533 46.6183 54.0309 46.6183C54.3176 46.6183 54.5522 46.7625 54.5522 46.9386C54.5522 47.3918 53.607 47.7103 52.9884 47.4654C52.2315 47.1656 52.3496 45.7631 53.1986 44.9706C54.4542 43.7983 56.3965 44.1304 60.7429 46.2601C62.8836 47.309 64.7288 48.0707 64.8432 47.9523C65.0381 47.7512 60.9142 45.5935 57.8981 44.3183C57.1579 44.0056 55.8008 43.7495 54.8824 43.7495C53.4923 43.7495 53.0919 43.9077 52.4925 44.6944ZM97.9916 44.1884C93.315 46.3784 90.5864 47.8225 90.9054 47.9384C91.1174 48.0158 92.5248 47.4456 94.033 46.6718C99.1481 44.0472 101.09 43.6878 102.596 45.0882C103.341 45.781 103.393 47.1842 102.683 47.4654C102.064 47.7103 101.119 47.3918 101.119 46.9386C101.119 46.7625 101.354 46.6183 101.64 46.6183C102.329 46.6183 102.31 45.9374 101.613 45.6616C100.821 45.3478 99.9554 46.3763 100.238 47.2947C100.508 48.1743 102.019 48.6789 102.824 48.1582C103.129 47.9606 103.526 47.3718 103.706 46.8493C103.966 46.0966 103.886 45.6953 103.323 44.9143C102.717 44.074 102.335 43.9181 100.736 43.8553C99.7044 43.8148 98.4694 43.9647 97.9916 44.1884ZM77.3009 47.4252C77.172 47.8691 76.7313 48.5265 76.3219 48.8861C75.7958 49.348 75.7065 49.5944 76.0175 49.7249C76.5655 49.9548 77.3596 50.7613 77.631 51.3634C77.7965 51.7306 77.875 51.7306 78.0404 51.3634C78.3153 50.7537 79.1118 49.9498 79.6539 49.7357C79.958 49.6155 79.8645 49.386 79.3523 48.9948C78.9443 48.6832 78.5113 48.0208 78.39 47.5231C78.1172 46.4014 77.6112 46.3558 77.3009 47.4252ZM77.3402 49.0091C77.0552 49.7758 77.6915 50.4966 78.1947 49.9774C78.5725 49.5876 78.3028 48.4114 77.8357 48.4114C77.6856 48.4114 77.4625 48.6803 77.3402 49.0091Z" fill="#D4AF37"/>
</svg>
