<svg width="28" height="23" viewBox="0 0 28 23" fill="none" xmlns="http://www.w3.org/2000/svg">
<path fill-rule="evenodd" clip-rule="evenodd" d="M21.5004 0.0746794C21.2577 0.181038 20.949 0.521407 20.844 0.79839C20.7793 0.968961 20.7592 1.16061 20.7733 1.47323C20.791 1.86484 20.8206 1.96579 21.0609 2.45312C21.3889 3.11836 21.8622 3.64198 22.2355 3.75242C22.463 3.81972 22.4887 3.81454 22.8727 3.62323L23.2728 3.42386L23.3074 3.68639C23.3491 4.00315 23.5851 4.49991 23.7312 4.57863C23.9406 4.69144 24.721 4.70617 25.1693 4.60582C26.1098 4.39509 26.8136 3.8777 26.9898 3.26747C27.2315 2.43039 26.6336 1.82402 25.7926 2.05345C25.6438 2.09405 25.642 2.09135 25.642 1.83511C25.642 1.51289 25.4697 1.14064 25.2467 0.980768C25.1543 0.914514 24.9638 0.850025 24.8189 0.836013C24.6115 0.815933 24.543 0.782778 24.4855 0.67471C24.378 0.472585 24.0022 0.272006 23.731 0.272006C23.4931 0.272006 23.1405 0.419462 23.0154 0.571387C22.9119 0.696887 22.8706 0.681001 22.7378 0.464589C22.4927 0.0653595 21.9278 -0.112661 21.5004 0.0746794ZM21.3875 0.633777C21.2569 0.765291 21.2488 0.803741 21.2682 1.19922C21.2836 1.51388 21.3281 1.70911 21.4402 1.95454C21.6098 2.32558 22.4647 3.63156 22.5402 3.63492C22.567 3.63608 22.7458 3.49844 22.9374 3.32897C23.2807 3.02557 23.286 3.01663 23.2868 2.73595C23.2887 2.10111 23.5395 1.48155 23.9234 1.16287C24.1614 0.96543 24.1435 0.856095 23.8532 0.733959C23.5721 0.615741 23.3317 0.673937 23.1258 0.910044C23.033 1.01635 22.9572 1.13826 22.9572 1.18102C22.9572 1.26481 22.7536 1.43047 22.6507 1.43047C22.616 1.43047 22.5725 1.33741 22.554 1.2236C22.4817 0.780628 22.1561 0.492666 21.7273 0.492666C21.5862 0.492666 21.4866 0.534039 21.3875 0.633777ZM24.6322 1.61698C24.5917 1.88834 24.3272 2.36122 23.9822 2.77882L23.7517 3.05784L23.8007 3.76119L23.8498 4.46455L23.9925 4.46388C24.264 4.46267 25.7462 4.08297 26.0152 3.94572C26.3334 3.78342 26.5481 3.54495 26.6234 3.27034C26.7013 2.9864 26.6413 2.77744 26.4276 2.58855C26.1773 2.36723 25.8086 2.35752 25.5061 2.56411C25.1693 2.79421 25.0582 2.70997 25.2071 2.33744C25.3013 2.10172 25.2317 1.79754 25.0309 1.56723C24.7963 1.29824 24.6774 1.31308 24.6322 1.61698ZM24.0569 1.576C23.9402 1.72538 23.7791 2.19445 23.7791 2.38505C23.7791 2.666 24.19 2.03624 24.249 1.66492C24.2925 1.39064 24.2258 1.35975 24.0569 1.576ZM15.3687 4.49599C15.3085 4.51056 15.0913 4.56103 14.8862 4.6082C13.2872 4.97609 12.1187 6.10262 11.8024 7.58137C11.6872 8.11973 11.669 9.63991 11.7704 10.2506C11.8076 10.4747 11.8297 10.6666 11.8194 10.677C11.809 10.6873 11.4446 10.7578 11.0095 10.8337C8.08313 11.3439 4.93361 12.6027 2.43818 14.2595C1.39113 14.9546 0.722521 15.6019 0.361342 16.27C0.17615 16.6126 0 17.4865 0 18.0627C0 19.694 0.741976 21.0842 1.92611 21.6716C2.67553 22.0434 3.36912 22.1775 4.72113 22.2122C5.95512 22.2438 6.65721 22.1922 7.93618 21.976C10.2952 21.5771 12.7774 20.6834 14.8135 19.4998C15.1033 19.3314 15.3608 19.1936 15.3857 19.1936C15.4106 19.1936 15.6623 19.4948 15.9451 19.8629C16.9128 21.1225 18.0535 22.1583 18.9708 22.6104C19.5599 22.9008 19.9656 23 20.5638 23C21.5592 23 22.4489 22.6091 23.242 21.8232C23.8201 21.2504 24.304 20.3975 24.4647 19.6684C24.6136 18.9926 24.5546 17.6058 24.3319 16.5457C23.8888 14.437 23.3902 12.9896 22.4883 11.1947C21.4043 9.0374 20.1134 7.16179 18.8243 5.87126C17.6952 4.74098 17.306 4.54046 16.1549 4.49583C15.7828 4.48137 15.429 4.48148 15.3687 4.49599ZM15.4509 4.82582C15.4057 4.83548 15.2741 4.85898 15.1583 4.87806C14.6942 4.95458 14.2397 5.62323 14.0522 6.50565C13.9193 7.13067 13.8887 8.45667 13.9917 9.12373C14.0755 9.66683 14.0694 9.80629 13.9686 9.64846C13.693 9.21702 13.6216 7.17552 13.8517 6.30938C13.9682 5.87142 14.1944 5.38475 14.3729 5.18864L14.4921 5.05768L14.3551 5.09806C14.2798 5.1203 14.1211 5.19168 14.0025 5.25661C13.6262 5.46287 13.2045 6.4234 13.2045 7.07435C13.2045 7.47049 13.1376 7.99511 13.0871 7.99511C13.0115 7.99511 13.035 6.89782 13.119 6.49843C13.1614 6.29724 13.26 6.00553 13.3382 5.85024C13.5228 5.48339 13.4467 5.48753 13.2062 5.85747C12.9748 6.21306 12.7376 6.89153 12.6516 7.44346C12.5576 8.04713 12.6255 9.95639 12.7665 10.6706C12.9356 11.5274 12.8896 11.7355 12.681 11.0568C12.226 9.57531 12.1569 7.7857 12.5135 6.71252C12.5816 6.50775 12.6296 6.34016 12.6203 6.34016C12.5562 6.34016 12.2683 7.05256 12.1856 7.41588C12.0404 8.05309 12.0537 9.49267 12.2131 10.3948C12.4408 11.684 12.903 13.2249 13.4835 14.6301C13.6368 15.001 13.7806 15.3241 13.8033 15.3481C13.8259 15.372 13.8974 15.3472 13.9622 15.2929L14.08 15.1941L13.8866 14.7252C13.5022 13.793 13.2677 13.0415 13.4141 13.211C13.4391 13.2398 13.5533 13.4992 13.6679 13.7874C13.8848 14.3327 14.2454 15.0562 14.3002 15.0562C14.3176 15.0562 14.4129 14.988 14.5118 14.9045L14.6917 14.7528L14.4382 14.0709C14.2987 13.6959 14.1983 13.3753 14.2151 13.3584C14.2583 13.3149 14.2565 13.3119 14.5717 13.9667C14.7287 14.2929 14.887 14.5597 14.9235 14.5597C14.9599 14.5597 15.0981 14.4486 15.2304 14.3128L15.4711 14.0659L15.2097 13.4033C15.0659 13.0389 14.9586 12.7095 14.9712 12.6712C14.9839 12.633 15.1361 12.8809 15.3094 13.2222C15.4828 13.5634 15.6426 13.8426 15.6645 13.8426C15.6865 13.8426 15.7696 13.774 15.8494 13.6902L15.9944 13.5378L15.754 12.9029C15.4904 12.207 14.9711 10.5392 14.8012 9.84314C14.5924 8.9872 14.5468 8.58648 14.5535 7.66412C14.5589 6.92226 14.5818 6.67225 14.6777 6.31258C14.8293 5.74294 15.0366 5.33401 15.3253 5.03496C15.4524 4.90328 15.5512 4.79841 15.5448 4.80194C15.5384 4.80547 15.4961 4.81623 15.4509 4.82582ZM15.8451 4.96478C15.2315 5.27978 14.9041 6.18961 14.9036 7.58137C14.9031 8.85204 15.1161 10.417 15.4331 11.4705C15.6204 12.0935 16.0261 13.1618 16.1111 13.2561C16.1349 13.2825 16.2043 13.2054 16.2654 13.0849C16.3266 12.9642 16.3557 12.8436 16.3303 12.8163C16.1457 12.6184 15.6611 10.9243 15.4484 9.73281C14.9843 7.13442 15.5947 5.28403 16.9629 5.14187L17.2747 5.10948L17.0614 4.99882C16.7317 4.82786 16.144 4.81143 15.8451 4.96478ZM17.4508 5.7158C17.9143 6.02886 18.8554 6.96783 19.1366 7.39773C19.5592 8.04399 19.4612 8.05342 18.9484 7.41588C18.5344 6.90119 17.8395 6.27959 17.3565 5.99196C16.9527 5.75144 16.5243 5.59874 16.3942 5.64894C16.3232 5.67641 16.3772 5.7265 16.6184 5.85686C17.0058 6.06616 17.4435 6.53053 17.6869 6.9905C17.7865 7.17894 17.8558 7.33313 17.8409 7.33313C17.8259 7.33313 17.5832 7.09846 17.3016 6.81171C16.786 6.28665 16.4489 6.06797 16.1514 6.06555C16.0596 6.06477 15.981 6.10516 15.946 6.17102C15.866 6.32157 15.8633 6.31765 16.1351 6.45016C16.5005 6.62823 17.3926 7.67289 17.5645 8.12409C17.6398 8.32163 17.4911 8.19812 17.2156 7.83441C16.773 7.25005 16.2803 6.85198 15.8755 6.75169C15.6017 6.68384 15.7022 6.88155 16.2173 7.4241C17.631 8.91289 19.3468 11.6668 20.3734 14.0945C21.1285 15.8801 21.6969 17.996 21.7898 19.3676C21.8197 19.8078 21.8328 19.8499 21.9584 19.9076C22.0334 19.9419 22.1048 19.9599 22.1172 19.9475C22.1295 19.9351 22.1426 19.63 22.1463 19.2696C22.1555 18.363 21.9447 17.3144 21.3942 15.5292C21.2562 15.0817 21.152 14.6891 21.1626 14.657C21.1953 14.5584 21.5323 15.3715 21.8083 16.2147C22.1934 17.3914 22.4641 18.8241 22.4641 19.6865C22.4641 19.9276 22.4826 20.1359 22.5052 20.1492C22.5278 20.1626 22.6234 20.1902 22.7176 20.2106L22.8889 20.2475L22.9581 19.8783C23.0456 19.4114 23.0026 18.7648 22.8223 17.8361C22.6223 16.8065 22.7206 16.8597 22.9861 17.9248C23.1447 18.5609 23.2331 19.3874 23.1918 19.8468C23.1659 20.1347 23.1746 20.1866 23.249 20.1866C23.4046 20.1866 23.7099 19.8675 23.7475 19.6655C23.7797 19.493 23.7042 18.4021 23.6396 18.1041C23.6247 18.0359 23.6353 17.98 23.6631 17.98C23.7484 17.98 23.8349 18.3132 23.8911 18.8582C23.9205 19.1445 23.9535 19.3877 23.9644 19.3986C24.0109 19.4454 24.1221 18.8532 24.1481 18.4203C24.2039 17.4925 23.9033 15.8399 23.4158 14.3943C22.6803 12.2132 21.3495 9.67174 19.9494 7.77445C19.5371 7.21579 18.625 6.27363 18.1999 5.96735C17.8655 5.72639 17.3186 5.46154 17.15 5.45884C17.1052 5.45812 17.2405 5.57375 17.4508 5.7158ZM15.6521 7.56212C15.605 7.74312 15.711 9.31223 15.8102 9.90376C15.922 10.5708 15.9621 10.7098 16.0564 10.7572C16.1001 10.7791 16.3207 10.8855 16.5467 10.9937C16.8447 11.1364 17.0977 11.3218 17.4672 11.6685C18.4722 12.6114 18.9035 13.5214 18.902 14.6955C18.9014 15.1728 18.8781 15.3141 18.7339 15.7182C18.6419 15.9761 18.5543 16.2258 18.5392 16.273C18.4957 16.4099 19.4603 17.6571 20.2095 18.4328C20.8362 19.0817 21.4516 19.6249 21.5019 19.5738C21.5469 19.528 21.3145 18.1415 21.1563 17.5111C20.633 15.4275 19.733 13.2917 18.5064 11.2223C17.6162 9.72062 16.5816 8.3047 15.8737 7.61911C15.6867 7.438 15.6844 7.43745 15.6521 7.56212ZM13.1339 8.74657C13.0382 8.84294 13.1574 9.65006 13.2674 9.65006C13.296 9.65006 13.3014 9.49157 13.2802 9.2777C13.2389 8.85977 13.1916 8.68842 13.1339 8.74657ZM11.1013 11.1183C9.06728 11.4658 6.96721 12.1709 4.76677 13.2452C3.40397 13.9106 2.55066 14.468 1.9146 15.1084C1.4331 15.5932 1.22287 15.9317 1.17038 16.3067C1.14085 16.5178 1.14117 16.5176 1.37129 16.1595C1.6682 15.6976 2.41089 14.9626 2.78434 14.7612C2.94455 14.6747 3.08734 14.6157 3.10164 14.6301C3.11588 14.6445 2.95479 14.7852 2.74363 14.9428C1.7888 15.6555 1.07855 16.7219 1.33059 17.0644C1.40368 17.1636 1.41705 17.1558 1.5783 16.9198C1.7522 16.6653 2.27353 16.1595 2.36191 16.1595C2.46168 16.1595 2.4041 16.2534 2.15743 16.4928C1.86994 16.7719 1.58892 17.1829 1.58892 17.3243C1.58892 17.3766 1.67697 17.4741 1.78464 17.5411L1.98035 17.6629L2.15447 17.4966C2.40739 17.2549 3.62697 16.3726 3.66088 16.4068C3.71113 16.4574 3.43816 16.7111 3.00175 17.0192C2.56715 17.3262 2.19162 17.6688 2.19162 17.7587C2.19162 17.7866 2.27348 17.825 2.37347 17.8438C2.53559 17.8744 2.60578 17.8399 3.01879 17.5262C5.06774 15.9704 8.71969 14.4453 11.908 13.8142C12.2647 13.7436 12.5655 13.6768 12.5766 13.6657C12.5876 13.6547 12.5232 13.4107 12.4335 13.1235C12.3438 12.8363 12.1823 12.2414 12.0746 11.8015C11.9668 11.3616 11.875 10.9986 11.8704 10.995C11.8659 10.9913 11.5198 11.0468 11.1013 11.1183ZM16.4014 11.4133C16.7762 11.8311 16.8463 12.1846 16.6809 12.824C16.3677 14.0345 15.1226 15.2035 12.9853 16.2934C10.4952 17.5633 8.40174 18.231 6.05468 18.504C3.44736 18.8072 1.41195 18.2649 0.930783 17.1387C0.781917 16.7903 0.800271 16.3169 0.977354 15.9377L1.09269 15.6906L0.923713 15.8837C0.726413 16.1092 0.516073 16.5427 0.464241 16.8307C0.441229 16.9586 0.461172 17.1482 0.518483 17.3468C0.781258 18.2569 2.01218 18.7953 4.10408 18.9152C4.98774 18.9658 6.28798 18.906 7.01318 18.7813C10.9929 18.097 15.9837 15.3812 17.0852 13.3004C17.4542 12.6033 17.4144 12.1406 16.9458 11.6829C16.8017 11.542 16.5728 11.3709 16.4371 11.3026L16.1906 11.1784L16.4014 11.4133ZM17.627 12.2486C17.7623 13.4763 15.9653 15.2838 13.0876 16.8146C10.8514 18.0041 8.06949 18.841 5.25989 19.1693C3.49783 19.3752 1.84047 19.138 0.98338 18.5573L0.708056 18.3708L0.821911 18.5317C1.11948 18.9525 1.82239 19.3428 2.83503 19.6497C3.17385 19.7524 3.46972 19.8566 3.49251 19.8812C3.55103 19.9445 2.67679 19.8703 2.22701 19.7739C1.73198 19.6679 1.1386 19.3889 0.774023 19.0909L0.479584 18.8503L0.637046 19.1418C0.837032 19.5121 1.20276 19.8061 1.84918 20.1161C2.12795 20.2497 2.35599 20.3727 2.35599 20.3893C2.35599 20.5117 1.38511 20.1504 0.967 19.8725L0.684881 19.685L0.979434 19.9602C1.50482 20.451 2.33101 20.807 3.35154 20.982C3.81731 21.0618 5.6283 21.2306 6.05161 21.2336C6.17642 21.2344 6.1984 21.2497 6.14815 21.3003C6.05249 21.3966 4.02392 21.4323 3.44221 21.348C2.7559 21.2485 2.13869 21.0799 1.73132 20.8808L1.36604 20.7022L1.56882 20.9112C2.23787 21.6011 4.12096 21.9945 6.02487 21.8421C9.39832 21.572 12.8792 20.3984 15.6427 18.5993C16.7815 17.8579 17.7729 16.9316 18.1891 16.2204C18.6075 15.5052 18.7706 14.6685 18.6331 13.9418C18.5504 13.5041 18.1006 12.5691 17.8157 12.2428L17.599 11.9946L17.627 12.2486ZM17.5877 13.8924C17.5877 14.0014 16.5036 15.0811 15.9518 15.5214C15.1996 16.1217 14.8746 16.5388 15.3499 16.294C15.7411 16.0924 16.7242 15.2231 17.1491 14.703C17.4493 14.3354 17.7339 13.8426 17.6459 13.8426C17.6139 13.8426 17.5877 13.865 17.5877 13.8924ZM12.0396 14.0661C9.80213 14.4941 7.24834 15.4005 5.05618 16.5446C3.96184 17.1158 2.74445 17.9458 2.91283 18.0059C3.32956 18.1549 5.01673 18.2381 5.83519 18.1502C7.21936 18.0015 9.36567 17.4712 10.6604 16.958C11.3877 16.6698 13.2791 15.7647 13.331 15.6802C13.3758 15.6072 12.7026 13.9515 12.631 13.9584C12.5998 13.9614 12.3337 14.0099 12.0396 14.0661ZM17.2298 15.2862C16.3908 16.1909 16.1031 16.6121 16.5889 16.2248C17.0131 15.8865 17.5684 15.1909 17.5233 15.0545C17.5119 15.0201 17.3798 15.1244 17.2298 15.2862ZM3.14443 15.5867C2.8776 15.7674 2.87864 15.7663 2.91962 15.8076C2.95852 15.8468 3.45153 15.5467 3.45169 15.4838C3.45186 15.4095 3.36123 15.4399 3.14443 15.5867ZM17.1719 16.1334C17.0909 16.2405 17.0404 16.344 17.0598 16.3635C17.1001 16.404 17.3528 16.1802 17.4303 16.0354C17.528 15.8531 17.3265 15.9296 17.1719 16.1334ZM18.2175 16.7323L18.1173 16.9195L18.3856 17.298C19.8431 19.3548 21.7202 20.9817 22.7788 21.106C23.4861 21.1889 24.0646 20.6043 24.1941 19.6758L24.2267 19.4419L24.0603 19.7249C23.8513 20.0803 23.4955 20.3907 23.2067 20.4694C23.0845 20.5026 22.8467 20.5155 22.6782 20.4979C21.6406 20.3896 20.1625 19.1377 18.7936 17.2077C18.5461 16.8588 18.3378 16.5669 18.3307 16.5592C18.3235 16.5514 18.2726 16.6293 18.2175 16.7323ZM23.3592 17.0246C23.3771 17.1362 23.4297 17.2657 23.4759 17.3122C23.5514 17.3882 23.5599 17.3852 23.5599 17.2829C23.5599 17.1137 23.4479 16.8215 23.383 16.8215C23.3484 16.8215 23.3391 16.9004 23.3592 17.0246ZM17.7449 17.2952L17.6026 17.4384L18.2025 18.4033C18.7584 19.2973 18.8736 19.5408 18.6538 19.3571C18.6058 19.317 18.3187 18.9163 18.0158 18.4666C17.7129 18.0169 17.4496 17.65 17.4306 17.6513C17.4115 17.6526 17.3031 17.7363 17.1895 17.8373L16.9831 18.021L17.1793 18.3729C17.2872 18.5664 17.4867 18.8698 17.6225 19.0471C17.7584 19.2244 17.8552 19.384 17.8377 19.4016C17.7795 19.4603 17.4729 19.1174 17.1498 18.6324L16.831 18.1538L16.6067 18.3199C16.4833 18.4113 16.3824 18.4981 16.3824 18.5129C16.3824 18.6123 17.2473 19.7825 17.7532 20.3676C18.0885 20.7553 18.3546 21.0974 18.3446 21.1276C18.2887 21.2964 17.1399 20.0918 16.5133 19.2074C16.3145 18.9268 16.1359 18.6977 16.1164 18.6983C16.097 18.699 16.0257 18.7425 15.9581 18.7949L15.8353 18.8902L16.2439 19.4237C17.2407 20.7251 18.503 21.8906 19.4232 22.3593C20.4577 22.886 21.5717 22.8339 22.5449 22.2132C22.848 22.0198 23.401 21.514 23.5699 21.2755L23.6778 21.1232L23.4682 21.2479C23.295 21.351 23.1824 21.3718 22.8202 21.368C22.2749 21.3623 21.9723 21.2458 21.2587 20.7668C20.3307 20.1438 19.4142 19.1935 18.4381 17.8421C18.1751 17.478 17.9436 17.1737 17.9236 17.166C17.9036 17.1582 17.8232 17.2163 17.7449 17.2952ZM4.68136 19.8318C4.58251 19.9121 4.59703 19.9163 4.88737 19.8912C5.34229 19.8518 5.48815 19.7491 5.09229 19.7469C4.89531 19.7459 4.75012 19.7758 4.68136 19.8318Z" fill="#1D6235"/>
</svg>
