<svg width="67" height="67" viewBox="0 0 67 67" fill="none" xmlns="http://www.w3.org/2000/svg">
<g filter="url(#filter0_g_522_2037)">
<path fill-rule="evenodd" clip-rule="evenodd" d="M1.03676 29.2857C1.15059 29.3186 1.54496 29.3684 1.91309 29.3965C3.54767 29.5211 4.84973 28.8493 5.72695 27.4286L6.03183 26.9349L6.20734 27.5432C6.30386 27.8777 6.48986 28.3355 6.62058 28.5606C6.90633 29.0526 7.82818 29.9757 8.28306 30.2256L8.6112 30.4059L8.22139 29.605C8.00699 29.1646 7.72976 28.4691 7.60525 28.0596C7.39689 27.374 7.3786 27.2 7.37421 25.8669C7.37007 24.5928 7.39234 24.3399 7.55989 23.7616C8.03232 22.1306 8.99084 20.9097 10.3082 20.2609C11.3717 19.7371 12.2537 19.5506 13.7022 19.5432C14.9035 19.537 15.8957 19.6158 16.0845 19.7325C16.1473 19.7713 16.2158 20.196 16.2672 20.8656C16.3124 21.4545 16.3758 22.1599 16.4081 22.433L16.4668 22.9295L16.5254 22.5157C16.5576 22.2882 16.6118 21.6073 16.6459 21.0027C16.6799 20.3981 16.7346 19.8867 16.7674 19.8665C16.8003 19.8463 17.175 19.9202 17.6003 20.031C18.0255 20.1417 18.3864 20.2194 18.4022 20.2036C18.4439 20.1619 17.5901 19.4785 17.1456 19.1978L16.7654 18.9578L16.7653 18.3964L16.7651 17.835L17.1746 17.8893C17.7045 17.9595 17.9384 17.8958 18.2939 17.5837C18.6509 17.2705 18.7954 16.8119 18.6749 16.3754C18.6286 16.208 18.6085 16.0534 18.63 16.0318C18.6516 16.0103 18.8659 15.9763 19.1063 15.9564L19.5434 15.9202L19.977 16.6294C20.4602 17.4198 20.8601 17.9149 20.7885 17.6339C20.6698 17.1684 20.4831 15.9999 20.5213 15.9617C20.5455 15.9376 21.0233 15.8862 21.5832 15.8476C22.8485 15.7602 23.7319 15.675 23.7003 15.6434C23.666 15.6092 22.167 15.4585 21.2229 15.3943L20.4242 15.34L20.3894 14.6666C20.3388 13.686 20.4625 12.1972 20.658 11.4321C21.2287 9.19957 22.5841 7.81402 24.7535 7.24516C25.7747 6.9774 27.4528 6.99651 28.5614 7.28843C29.3451 7.49487 30.7253 8.09857 31.3138 8.49243C31.4618 8.59139 31.5829 8.63625 31.5829 8.59198C31.5829 8.37006 31.0734 7.64026 30.5531 7.11666C29.9409 6.50071 29.5228 6.23957 28.7744 6.00566L28.3252 5.86532L28.8849 5.5983C29.9337 5.09795 30.7622 4.06291 30.9938 2.9635C31.1111 2.40688 31.1184 0.848573 31.0034 0.91965C30.9579 0.947783 30.9206 1.03376 30.9205 1.11071C30.9205 1.18766 30.8083 1.48768 30.6712 1.77737C30.0096 3.17516 28.3878 4.06805 25.748 4.48789C21.7306 5.12692 18.7386 7.98868 18.529 11.393C18.4579 12.5488 18.7125 13.942 19.2203 15.1746C19.2547 15.2582 19.0243 15.2756 18.1254 15.2574L16.9869 15.2343L16.8371 14.703C16.5753 13.7742 16.3511 12.2256 16.3526 11.3557C16.355 9.95319 16.6572 8.96804 17.3046 8.25182C17.4615 8.07814 17.5658 7.9119 17.5362 7.88244C17.4515 7.79771 16.3419 7.8208 16.0054 7.91422C15.838 7.96063 15.5222 8.11869 15.3036 8.26539C14.0535 9.10441 14.0266 11.5494 15.2393 14.1095C15.442 14.5376 15.5924 14.9033 15.5733 14.9224C15.5544 14.9414 15.4329 14.903 15.3035 14.837C14.956 14.6601 13.4049 14.1516 12.833 14.0271C12.5598 13.9677 11.9266 13.9198 11.4257 13.9205C10.6739 13.9217 10.4303 13.9551 10.0283 14.1123C9.02817 14.5035 8.54805 15.2308 8.54805 16.3546C8.54805 16.6985 8.57345 17.0599 8.60449 17.1577C8.65797 17.3261 8.6761 17.3187 8.94721 17.0187C9.36906 16.5521 10.2133 16.1418 11.0946 15.9752C12.1948 15.7673 14.4214 15.9088 15.7879 16.2736L16.0937 16.3552L16.119 17.4361C16.1329 18.0306 16.1345 18.5267 16.1226 18.5384C16.1106 18.5502 15.8871 18.4582 15.6259 18.3341C13.9954 17.5594 12.1287 17.3339 10.5979 17.7267C8.43529 18.2818 6.44608 20.1455 5.37787 22.6176C5.22506 22.9712 4.98574 23.717 4.846 24.2751C4.35213 26.2479 3.92316 27.1735 3.09039 28.0634C2.5548 28.6356 1.83775 29.0492 1.18138 29.1642C0.86532 29.2196 0.850755 29.2319 1.03676 29.2857ZM5.7498 34.2795C6.20675 35.5484 7.37438 36.4705 8.88372 36.7544C10.3914 37.0382 11.752 36.4677 12.5507 35.2169L12.7885 34.8445L12.7892 35.3824C12.7922 37.5268 12.3097 41.0523 11.6251 43.8874C11.2279 45.5321 10.3128 48.4515 10.1294 48.6586C10.0912 48.7018 10.0599 46.3356 10.0599 43.4002C10.0599 39.3596 10.0358 38.0392 9.96054 37.964C9.81708 37.8206 9.60954 37.8419 9.45185 38.016C9.32693 38.154 9.31484 38.7186 9.31484 44.4299L9.31484 50.6925L8.8199 51.6794C7.79896 53.7151 7.0118 55.7793 6.6099 57.4749C6.45659 58.1217 6.39243 58.6715 6.35899 59.6263C6.3046 61.1805 6.42605 61.8992 6.91661 62.9259C7.66494 64.4919 9.49846 65.71 10.3753 65.2236C10.8621 64.9536 11.0234 64.292 10.7214 63.8037C10.5263 63.4882 10.3772 63.4243 9.27345 63.1836C8.40045 62.9931 7.58497 62.6776 7.37984 62.4509C7.31246 62.3764 7.18009 62.0369 7.08572 61.6965C6.70096 60.3082 6.9262 58.1585 7.69515 55.8819C8.12859 54.5984 9.18347 52.1791 9.30947 52.1795C9.33521 52.1795 9.36931 54.2181 9.38529 56.7097C9.41103 60.7299 9.42916 61.2514 9.54597 61.3432C9.71691 61.4775 9.77262 61.4737 9.92982 61.3166C10.0454 61.2011 10.0599 60.5921 10.0599 55.861L10.0599 50.5354L10.5471 49.3094C11.9662 45.7386 12.9526 41.5215 13.2919 37.5751C13.4074 36.2318 13.4065 33.3249 13.2904 32.445C13.2424 32.0809 13.1801 31.5016 13.1521 31.1577C13.0592 30.0144 13.4864 28.5794 14.0437 28.1635C14.665 27.6998 15.8568 28.0528 15.9886 28.7395C16.0325 28.9684 16.0104 29.0191 15.8305 29.101C15.6627 29.1774 15.5681 29.1697 15.3527 29.0623C15.0261 28.8995 14.5836 28.8883 14.4578 29.0397C14.407 29.1009 14.3433 29.2617 14.3162 29.397C14.2573 29.6919 14.5477 30.0883 14.9427 30.2518C15.2835 30.3928 16.0192 30.3223 16.2893 30.1226C16.8021 29.7434 16.9841 29.0007 16.7193 28.3672C16.4345 27.6856 15.8001 27.2784 15.0184 27.2753C13.8538 27.2708 13.2728 27.8644 12.9553 29.3835L12.8516 29.8799L12.6813 29.4248C12.5388 29.0441 12.5105 28.7736 12.5083 27.77C12.5055 26.5975 12.5118 26.5551 12.7795 25.9082C13.0963 25.1431 13.3637 24.7593 13.7024 24.5843C14.0589 24.4 14.3659 24.4306 14.6222 24.6761C14.7463 24.7948 14.888 24.8672 14.9372 24.8367C14.9864 24.8063 15.0267 24.5542 15.0267 24.2764C15.0267 23.2967 14.3249 22.5939 13.3598 22.607C12.901 22.6132 12.8908 22.6083 12.8416 22.3577C12.689 21.5815 12.4031 20.7032 12.2772 20.6239C11.9618 20.4252 11.2821 21.4377 11.0071 22.5157C10.8987 22.9408 10.8466 23.5686 10.8114 24.8739L10.7635 26.6529L10.2668 26.7012C9.65375 26.7608 9.3333 26.9221 8.95888 27.3594C8.63628 27.736 8.52404 28.1354 8.6487 28.4631C8.73927 28.7012 8.9862 28.7524 9.14166 28.5652C9.30333 28.3705 9.90565 28.2601 10.2651 28.3593C11.089 28.5866 11.5811 29.1808 11.9685 30.4156C12.4844 32.0605 12.5071 33.3585 12.0361 34.2861C10.8903 36.5424 7.26825 36.6819 6.20551 34.5106C5.9551 33.9992 5.97952 33.6912 6.29384 33.396C6.50096 33.2016 6.58249 33.1996 7.59896 33.3644C8.67006 33.5381 9.0641 32.2013 8.08654 31.7105C7.44101 31.3863 6.73059 31.5072 6.20742 32.03C5.61645 32.6207 5.44889 33.4442 5.7498 34.2795ZM9.47055 10.5179C9.6924 10.873 10.1141 11.2479 10.6393 11.557C11.1647 11.8662 12.6559 12.4105 12.6915 12.306C12.7308 12.1908 12.3095 11.139 12.0087 10.6013C11.4743 9.64621 10.8203 9.0699 10.2709 9.0699C9.53379 9.0699 9.07941 9.89196 9.47055 10.5179ZM21.1929 12.0478C21.2607 12.1041 21.7131 12.253 22.1983 12.3787L23.0803 12.6074L23.0933 13.113C23.104 13.5282 23.1505 13.6814 23.3535 13.9701C23.782 14.5795 24.4271 14.8731 25.0414 14.7382C25.3334 14.6741 25.3754 14.4577 25.126 14.3019C24.8856 14.1518 24.9057 13.6569 25.168 13.2711C25.4273 12.8897 26.2985 12.4598 27.2301 12.2536C28.0116 12.0807 29.0405 12.125 29.8056 12.3645L30.2998 12.5192L29.9273 12.615C28.8587 12.8903 28.6667 12.9765 28.2736 13.3582C27.947 13.6756 27.8572 13.8284 27.7731 14.2101C27.5085 15.4109 28.3251 16.5335 29.471 16.5441C30.2657 16.5515 30.766 16.0824 30.8181 15.281C30.8538 14.7296 30.6654 14.3212 30.2673 14.0876C30.0407 13.9546 29.9709 13.9479 29.7523 14.0384C29.4067 14.1815 29.317 14.4507 29.4795 14.8567C29.6574 15.3012 29.6094 15.6402 29.3637 15.6751C28.7076 15.768 28.1832 14.5062 28.5987 13.8343C29.0317 13.1339 30.7767 12.6566 31.961 12.9146C34.2442 13.4119 38.5488 13.2134 42.5892 12.4244C45.2095 11.9127 47.3224 11.2938 49.9835 10.2584L51.1243 9.81459L56.817 9.81459C61.1344 9.81459 62.5338 9.7906 62.6091 9.7153C62.7612 9.5633 62.7273 9.25126 62.5483 9.15553C62.4435 9.09951 60.7042 9.0675 57.5194 9.06303L52.6506 9.05624L53.592 8.60661C57.1212 6.92112 60.4201 6.29203 62.35 6.9366C62.9117 7.12418 62.9171 7.12898 63.1841 7.66325C63.3452 7.98579 63.5228 8.54886 63.628 9.06989C63.8483 10.1629 63.954 10.3682 64.3967 10.5639C65.2817 10.9552 66.0506 10.1911 65.7722 9.1969C65.5264 8.31957 64.4816 7.16208 63.4991 6.67861C62.5519 6.21252 61.8259 6.06622 60.4734 6.06886C58.1875 6.07342 55.9804 6.72518 52.3791 8.45908L51.1106 9.06989L45.2503 9.06989C39.5705 9.0699 39.3854 9.07478 39.2456 9.22926C39.0631 9.43083 39.1047 9.65936 39.3458 9.7795C39.4799 9.84636 40.8567 9.86449 44.2162 9.84364C46.7922 9.82759 48.9389 9.83866 48.9867 9.8682C49.0948 9.93506 48.4035 10.1914 46.6904 10.7198C43.2863 11.7697 39.9308 12.3609 36.4876 12.5173C35.8388 12.5467 35.308 12.5472 35.308 12.5183C35.308 12.4894 35.4549 12.3908 35.6345 12.2992C36.1151 12.0541 36.7352 11.3938 37.0055 10.8391C37.2123 10.4147 37.2471 10.2354 37.2771 9.43754C37.3077 8.62682 37.2885 8.45636 37.1087 7.93971C36.3005 5.61676 33.9237 4.53778 32.5416 5.86631C32.2959 6.10238 32.1468 6.33381 32.0805 6.58171C31.8077 7.6012 32.4892 8.58602 33.2857 8.32331C33.827 8.14475 34.049 7.56172 33.8108 6.94462C33.6492 6.52602 33.6965 6.15715 33.9385 5.94913C34.5435 5.42892 35.7364 6.12521 36.2832 7.3178C36.875 8.60876 36.4511 10.4474 35.3544 11.3456C34.7781 11.8177 34.2884 11.9926 33.431 12.0325C32.5169 12.0751 31.8721 11.9717 30.7671 11.6054C29.8289 11.2945 29.4354 11.0342 29.097 10.5006C28.7415 9.94045 28.7084 9.56636 28.9674 9.03729C29.0855 8.79585 29.1822 8.55946 29.1822 8.51196C29.1822 8.26133 28.3906 8.26091 28.0225 8.51138C27.4863 8.87628 27.255 9.26103 27.2022 9.87606L27.1541 10.4352L25.4151 10.4865C23.0855 10.5552 22.2056 10.777 21.3253 11.5175C21.0425 11.7554 21.0078 11.8943 21.1929 12.0478Z" fill="#D4AF37" fill-opacity="0.5"/>
</g>
<defs>
<filter id="filter0_g_522_2037" x="-0.000870943" y="0.000105619" width="66.7478" height="66.2488" filterUnits="userSpaceOnUse" color-interpolation-filters="sRGB">
<feFlood flood-opacity="0" result="BackgroundImageFix"/>
<feBlend mode="normal" in="SourceGraphic" in2="BackgroundImageFix" result="shape"/>
<feTurbulence type="fractalNoise" baseFrequency="4.3625898361206055 4.3625898361206055" numOctaves="3" seed="1956" />
<feDisplacementMap in="shape" scale="1.833773136138916" xChannelSelector="R" yChannelSelector="G" result="displacedImage" width="100%" height="100%" />
<feMerge result="effect1_texture_522_2037">
<feMergeNode in="displacedImage"/>
</feMerge>
</filter>
</defs>
</svg>
