<svg width="111" height="43" viewBox="0 0 111 43" fill="none" xmlns="http://www.w3.org/2000/svg">
<path fill-rule="evenodd" clip-rule="evenodd" d="M109.908 1.469C109.463 3.24386 110.098 7.03148 110.84 7.03148C111.582 7.03148 109.064 5.2367 108.619 3.46184C108.417 2.6538 111.15 0 110.84 0C110.53 0 110.111 0.660962 109.908 1.469ZM100.311 3.09737C98.6232 3.95169 97.5798 6.40978 98.2344 7.98835C98.6267 8.9335 98.7567 8.84327 99.19 7.32505C100.236 3.66282 104.424 2.8624 106.932 5.84551C109.198 8.53915 109.438 10.7511 107.811 13.9159C107.049 15.3978 106.106 16.7162 105.717 16.8463C105.22 17.0121 105.267 16.5855 105.871 15.4265C107.521 12.26 106.53 8.2034 104.107 8.2034C103.221 8.2034 101.472 9.76438 101.472 10.5543C101.472 11.4203 102.529 11.7695 102.79 10.9902C103.263 9.58391 104.985 11.759 104.985 13.763C104.985 18.1617 103.533 22.7156 96.2762 22.2176C90.8402 21.8449 85.4759 18.211 89.9264 18.1822C93.2785 18.1612 96.7875 16.8187 96.7875 15.5577C96.7875 14.1866 94.2511 14.4292 90.6214 16.1478C88.8807 16.9722 86.4595 17.7686 85.2417 17.9174L83.0278 18.1881L85.473 17.0467C88.9767 15.4118 90.1606 12.7885 88.2559 10.8818C87.7495 10.3755 86.7365 9.96127 86.0046 9.96127C84.5209 9.96127 82.3316 11.9863 83.221 12.5366C83.5302 12.7276 83.9342 12.4903 84.1192 12.0086C84.5028 11.009 87.1569 10.8203 87.7324 11.7525C88.4321 12.8858 87.4672 15.0251 85.9419 15.7206C84.0607 16.5785 74.9161 18.0899 67.7499 18.9047C48.2266 21.1247 21.8189 14.9536 17.5008 16.3388C13.0502 17.7662 8.61319 20.9521 6.106 24.52C4.44372 26.8849 4.30729 27.4831 4.03386 33.5953C3.74286 40.0982 4.74065 42.2112 3.29149 42.2112C2.14505 42.2112 0.744416 39.7619 0.449315 38.3802L0.0740034 36.6223L0.00431601 38.4095C-0.116301 41.5285 2.31477 42.6559 4.33773 40.4187L5.40806 39.2351L6.91695 40.6402C7.74663 41.4131 9.00081 42.3418 9.70402 42.7034C11.5086 43.6309 14.877 41.6487 16.8256 40.6402C19.3428 39.3376 23.7998 37.8183 24.7413 34.7262C25.2091 33.191 26.0382 31.061 26.5839 29.994C27.1302 28.9264 27.3948 27.8716 27.1723 27.6501C26.5968 27.0759 24.5709 29.7444 24.1973 31.569C24.024 32.4146 23.6592 33.8976 23.3864 34.8644L22.8898 36.6223L22.8301 35.0244C22.7599 33.1464 20.4605 31.3669 18.7895 31.8972C18.1782 32.0911 17.4065 32.8476 17.0739 33.5777C16.5001 34.8387 16.5733 34.8937 18.5161 34.6664C20.8119 34.3986 21.5765 35.1322 21.5906 37.6179C21.6087 40.874 15.5949 43.5899 11.4202 42.2112C8.85559 41.3645 6.04862 38.2343 5.24002 35.3197C4.32193 32.0103 4.55145 30.3514 5.54976 33.0808C7.12246 37.3776 10.3323 39.7296 13.1568 38.655C15.5486 37.745 14.5421 36.6223 11.3341 36.6223C8.75665 36.6223 8.36495 36.4366 7.14063 34.6312C5.12118 31.654 4.92972 23.7899 7.14063 20.7353C9.16301 17.9408 14.675 17.9672 16.8256 17.9742C17.6799 17.9772 19.8622 18.6844 21.6749 19.5458C23.5363 20.4306 25.397 20.9485 25.9515 20.7353C26.8245 20.4001 26.7836 20.1985 25.5832 18.9047C24.8414 18.1049 23.7072 17.2453 23.0632 16.9945C22.0906 16.616 22.2768 16.4648 24.1622 16.1009C26.8983 15.5724 74.2825 16.6541 76.6515 17.6654C80.626 19.3629 82.146 22.1861 79.77 23.4582C78.2804 24.2563 76.8799 23.3029 76.8799 21.4917C76.8799 20.6063 76.7042 20.4499 76.2364 20.9181C75.2334 21.9218 76.2095 23.9809 77.8875 24.4022C80.7841 25.1299 82.6835 22.4498 81.2426 19.6688C80.503 18.2432 80.5212 18.1254 81.4346 18.4073C92.399 21.7865 102.378 21.3898 106.642 17.4041C111.081 13.2567 109.425 8.0318 104.505 5.48582C102.392 4.39184 102.239 2.12116 100.311 3.09737ZM17.5008 10.6974C10.8545 11.431 7.1125 17.376 4.57721 22.3496C3.18543 25.079 3.12045 26.1706 4.49758 23.6803C8.15765 17.0607 14.4338 13.535 23.6487 12.9215C27.4821 12.6666 28.2801 12.495 26.5763 12.2916C25.2881 12.1381 19.5249 10.4741 17.5008 10.6974Z" fill="#D4AF37"/>
</svg>
