<svg width="105" height="16" viewBox="0 0 105 16" fill="none" xmlns="http://www.w3.org/2000/svg">
<path fill-rule="evenodd" clip-rule="evenodd" d="M2.80624 14.9787C-0.507587 13.2113 -0.868446 8.03311 2.12121 5.15398C4.99374 2.38713 11.7146 2.11174 19.0994 4.45759C19.7146 4.65325 19.7268 4.57149 19.2287 3.58181C18.2582 1.65128 19.5375 -0.20929 21.4884 0.295919C22.6187 0.588387 23.2761 2.01778 22.6005 2.71458C22.2854 3.03959 22.1671 2.93098 22.1671 2.31635C22.1671 1.05903 21.2238 0.397209 20.2206 0.951231C18.6202 1.83433 19.644 3.79415 22.3209 4.97257C23.8191 5.63181 83.3909 6.33409 88.826 6.11359C88.8724 6.11171 88.9151 6.10976 88.954 6.10775C88.9708 6.10688 94.5934 6.19295 95.4163 6.11359C96.2392 6.03422 98.7078 5.21135 99.8049 3.8399C100.902 2.46844 104.742 -0.000179507 104.742 -0.000179507C104.742 -0.000179507 104.468 3.5656 100.354 4.66277C98.9499 5.03706 97.3552 5.17302 95.4163 5.48564C92.8576 5.89819 91.4179 6.39254 88.8333 6.8571C68.3621 10.5366 41.6552 4.61379 32.0551 4.61379C22.4549 4.61379 17.3306 5.72712 16.0635 6.32264C15.0362 6.80547 14.3863 8.29059 14.8576 9.07728C15.2453 9.72445 17.0329 9.59347 17.2912 8.89952C17.4158 8.56516 17.6879 8.40042 17.8962 8.53302C18.4952 8.91498 17.0207 10.3208 16.0214 10.3208C15.5284 10.3208 14.8461 10.0332 14.505 9.68175C13.2222 8.35812 14.0196 6.537 16.3794 5.40211L18.0263 4.60973L16.5352 4.79765C15.715 4.90097 14.0842 5.45377 12.9118 6.0261C10.4671 7.21916 8.75874 7.38756 8.75874 6.43572C8.75874 5.56035 11.1222 4.62843 13.3799 4.61379C16.3774 4.59386 13.2245 2.17856 9.5632 1.91986C4.67548 1.5741 3.23766 4.62802 3.23766 7.68165C3.23766 9.07281 4.39708 10.5827 4.71573 9.60649C4.89201 9.06549 5.60382 9.30793 5.60382 9.90913C5.60382 10.4575 4.42587 11.5411 3.8292 11.5411C2.19694 11.5411 1.52929 8.72502 2.641 6.52683C3.04759 5.72224 3.07913 5.42611 2.74471 5.54123C2.48246 5.63153 1.84753 6.54677 1.33447 7.57549C0.23814 9.77246 -0.739902 12.393 0.785884 14.263C2.47494 16.3338 6.43632 14.6932 7.14065 12.1508C7.43248 11.0969 7.52003 11.0343 7.78426 11.6904C8.22515 12.7862 7.5224 14.4926 6.38585 15.0857C5.08721 15.7634 4.22949 15.7382 2.80624 14.9787Z" fill="#D4AF37"/>
</svg>
