<svg width="227" height="762" viewBox="0 0 227 762" fill="none" xmlns="http://www.w3.org/2000/svg">
<g filter="url(#filter0_g_236_40)">
<path d="M115.156 101.5C115.156 100.672 114.485 100 113.656 100C112.828 100 112.156 100.672 112.156 101.5L113.656 101.5L115.156 101.5ZM113.656 101.6L115.139 101.826L115.156 101.714L115.156 101.6L113.656 101.6ZM112.768 169L114.089 169.711L112.768 169ZM119.012 229L117.522 228.831L119.012 229ZM114.728 658.5L116.035 659.237L116.043 659.223L116.05 659.208L114.728 658.5ZM113.656 660.4L112.35 659.663L112.156 660.006L112.156 660.4L113.656 660.4ZM112.156 660.5C112.156 661.328 112.828 662 113.656 662C114.485 662 115.156 661.328 115.156 660.5L113.656 660.5L112.156 660.5ZM113.656 101.5L112.156 101.5L112.156 101.6L113.656 101.6L115.156 101.6L115.156 101.5L113.656 101.5ZM113.656 101.6L112.173 101.374C110.677 111.189 108.037 118.368 104.381 123.081L105.567 124L106.752 124.919C110.853 119.632 113.606 111.878 115.139 101.826L113.656 101.6ZM105.567 124L104.381 123.081C103.295 124.481 102.58 125.96 102.332 127.514C102.082 129.08 102.323 130.628 103.005 132.123C104.34 135.046 107.346 137.742 111.65 140.291L112.414 139L113.179 137.709C109.039 135.258 106.682 132.954 105.734 130.877C105.275 129.872 105.145 128.92 105.294 127.986C105.445 127.04 105.899 126.019 106.752 124.919L105.567 124ZM112.414 139L111.65 140.291C115.786 142.74 118.344 145.076 119.575 147.241C120.741 149.292 120.754 151.236 119.629 153.275L120.942 154L122.256 154.725C123.889 151.764 123.86 148.708 122.183 145.759C120.571 142.924 117.486 140.26 113.179 137.709L112.414 139ZM120.942 154L119.629 153.275C116.868 158.28 114.141 163.285 111.448 168.289L112.768 169L114.089 169.711C116.778 164.715 119.5 159.72 122.256 154.725L120.942 154ZM112.768 169L111.448 168.289C108.747 173.307 106.18 178.326 103.749 183.346L105.098 184L106.448 184.654C108.861 179.674 111.408 174.693 114.089 169.711L112.768 169ZM105.098 184L103.749 183.346C102.367 186.198 102.194 189.124 103.278 192.025C104.341 194.869 106.566 197.572 109.759 200.165L110.705 199L111.65 197.835C108.684 195.428 106.894 193.131 106.088 190.975C105.304 188.876 105.408 186.802 106.448 184.654L105.098 184ZM110.705 199L109.759 200.165C115.773 205.046 118.427 209.659 118.404 213.992L119.904 214L121.404 214.008C121.434 208.341 117.955 202.954 111.65 197.835L110.705 199ZM119.904 214L118.404 213.992C118.378 218.938 118.084 223.884 117.522 228.831L119.012 229L120.503 229.169C121.077 224.116 121.377 219.062 121.404 214.008L119.904 214ZM119.012 229L117.522 228.831C117.011 233.325 114.236 238.014 108.826 242.885L109.83 244L110.833 245.115C116.531 239.986 119.877 234.675 120.503 229.169L119.012 229ZM109.83 244L108.826 242.885C105.899 245.521 104.125 248.36 103.94 251.41C103.754 254.486 105.207 257.379 107.857 260.055L108.923 259L109.989 257.945C107.689 255.621 106.819 253.514 106.935 251.591C107.053 249.64 108.207 247.479 110.833 245.115L109.83 244ZM108.923 259L107.857 260.055C112.616 264.863 114.444 269.426 113.86 273.802L115.347 274L116.834 274.198C117.584 268.574 115.128 263.137 109.989 257.945L108.923 259ZM115.347 274L113.86 273.802C113.232 278.518 111.257 283.295 107.861 288.139L109.089 289L110.317 289.861C113.932 284.705 116.13 279.482 116.834 274.198L115.347 274ZM109.089 289L107.861 288.139C105.849 291.008 105.399 294.061 106.741 297.105C108.022 300.011 110.852 302.71 114.902 305.268L115.703 304L116.504 302.732C112.639 300.29 110.409 297.989 109.486 295.895C108.624 293.939 108.824 291.992 110.317 289.861L109.089 289ZM115.703 304L114.902 305.268C118.776 307.716 120.55 309.926 120.931 311.799C121.28 313.519 120.538 315.513 117.78 317.857L118.751 319L119.723 320.143C122.847 317.487 124.538 314.481 123.871 311.201C123.235 308.074 120.544 305.284 116.504 302.732L115.703 304ZM118.751 319L117.78 317.857C111.748 322.985 108.389 328.352 108.271 333.968L109.77 334L111.27 334.032C111.362 329.648 113.991 325.015 119.723 320.143L118.751 319ZM109.77 334L108.271 333.968C108.168 338.847 107.476 343.729 106.192 348.619L107.643 349L109.094 349.381C110.436 344.271 111.162 339.153 111.27 334.032L109.77 334ZM107.643 349L106.192 348.619C104.673 354.407 107.325 359.948 113.217 365.127L114.207 364L115.197 362.873C109.711 358.052 107.988 353.593 109.094 349.381L107.643 349ZM114.207 364L113.217 365.127C118.763 370.001 121.584 374.686 122.081 379.165L123.572 379L125.063 378.835C124.451 373.314 121.029 367.999 115.197 362.873L114.207 364ZM123.572 379L122.081 379.165C122.527 383.188 119.445 387.736 111.182 392.715L111.956 394L112.73 395.285C121.062 390.264 125.725 384.812 125.063 378.835L123.572 379ZM111.956 394L111.182 392.715C106.946 395.268 103.938 397.943 102.44 400.804C100.875 403.793 101.029 406.855 102.822 409.783L104.101 409L105.381 408.217C104.112 406.145 104.045 404.207 105.098 402.196C106.218 400.057 108.668 397.732 112.73 395.285L111.956 394ZM104.101 409L102.822 409.783C105.893 414.799 109.093 419.815 112.42 424.829L113.67 424L114.92 423.171C111.612 418.185 108.432 413.201 105.381 408.217L104.101 409ZM113.67 424L112.42 424.829C115.559 429.559 116.564 434.156 115.622 438.695L117.091 439L118.56 439.305C119.693 433.844 118.418 428.441 114.92 423.171L113.67 424ZM117.091 439L115.622 438.695C114.632 443.466 112.482 448.282 109.125 453.148L110.36 454L111.594 454.852C115.137 449.718 117.474 444.534 118.56 439.305L117.091 439ZM110.36 454L109.125 453.148C105.623 458.225 102.808 463.317 100.689 468.425L102.074 469L103.46 469.575C105.489 464.683 108.197 459.775 111.594 454.852L110.36 454ZM102.074 469L100.689 468.425C99.4251 471.472 99.9302 474.513 101.955 477.368C103.922 480.141 107.333 482.774 111.994 485.317L112.713 484L113.431 482.683C108.926 480.226 105.981 477.859 104.402 475.632C102.881 473.487 102.65 471.528 103.46 469.575L102.074 469ZM112.713 484L111.994 485.317C116.499 487.774 119.566 490.156 121.342 492.425C123.083 494.648 123.527 496.672 123.009 498.613L124.458 499L125.907 499.387C126.724 496.328 125.879 493.352 123.704 490.575C121.565 487.843 118.092 485.226 113.431 482.683L112.713 484ZM124.458 499L123.009 498.613C121.716 503.452 119.56 508.317 116.522 513.209L117.796 514L119.071 514.791C122.244 509.683 124.529 504.548 125.907 499.387L124.458 499ZM117.796 514L116.522 513.209C114.815 515.958 114.108 518.811 114.536 521.719C114.961 524.601 116.476 527.366 118.901 530.013L120.007 529L121.113 527.987C118.958 525.634 117.816 523.399 117.504 521.281C117.196 519.189 117.673 517.042 119.071 514.791L117.796 514ZM120.007 529L118.901 530.013C121.032 532.341 121.98 534.509 122.024 536.533C122.069 538.551 121.223 540.702 119.208 543.014L120.339 544L121.47 544.986C123.812 542.298 125.09 539.449 125.024 536.467C124.958 533.491 123.56 530.659 121.113 527.987L120.007 529ZM120.339 544L119.208 543.014C114.654 548.241 112.647 553.677 113.579 559.248L115.059 559L116.538 558.752C115.797 554.323 117.31 549.759 121.47 544.986L120.339 544ZM115.059 559L113.579 559.248C114.307 563.596 112.554 568.135 107.745 572.939L108.805 574L109.865 575.061C115.068 569.865 117.484 564.404 116.538 558.752L115.059 559ZM108.805 574L107.745 572.939C105.111 575.569 103.402 578.32 102.813 581.199C102.216 584.115 102.802 586.991 104.443 589.764L105.734 589L107.025 588.236C105.707 586.009 105.325 583.885 105.752 581.801C106.186 579.68 107.492 577.431 109.865 575.061L108.805 574ZM105.734 589L104.443 589.764C107.156 594.347 107.348 598.808 105.095 603.331L106.437 604L107.78 604.669C110.508 599.192 110.231 593.653 107.025 588.236L105.734 589ZM106.437 604L105.095 603.331C103.633 606.265 103.67 609.271 105.19 612.192C106.662 615.023 109.482 617.696 113.423 620.258L114.241 619L115.058 617.742C111.307 615.304 108.979 612.977 107.851 610.808C106.769 608.729 106.751 606.735 107.78 604.669L106.437 604ZM114.241 619L113.423 620.258C117.193 622.708 118.345 624.77 118.217 626.381C118.081 628.079 116.484 630.234 112.285 632.708L113.046 634L113.807 635.292C118.097 632.766 120.944 629.921 121.207 626.619C121.477 623.23 118.982 620.292 115.058 617.742L114.241 619ZM113.046 634L112.285 632.708C107.967 635.251 105.019 637.988 104.008 641.026C102.928 644.273 104.193 647.347 107.012 650.078L108.056 649L109.099 647.922C106.756 645.653 106.271 643.727 106.855 641.974C107.507 640.012 109.636 637.749 113.807 635.292L113.046 634ZM108.056 649L107.012 650.078C109.573 652.557 111.339 654.521 112.368 655.987C112.887 656.725 113.168 657.267 113.291 657.633C113.421 658.022 113.302 657.985 113.406 657.792L114.728 658.5L116.05 659.208C116.511 658.348 116.382 657.415 116.135 656.679C115.881 655.921 115.417 655.108 114.823 654.263C113.629 652.562 111.701 650.443 109.099 647.922L108.056 649ZM114.728 658.5L113.422 657.763L112.35 659.663L113.656 660.4L114.963 661.137L116.035 659.237L114.728 658.5ZM113.656 660.4L112.156 660.4L112.156 660.5L113.656 660.5L115.156 660.5L115.156 660.4L113.656 660.4Z" fill="#D4AF37"/>
</g>
<defs>
<filter id="filter0_g_236_40" x="0" y="0" width="226.213" height="762" filterUnits="userSpaceOnUse" color-interpolation-filters="sRGB">
<feFlood flood-opacity="0" result="BackgroundImageFix"/>
<feBlend mode="normal" in="SourceGraphic" in2="BackgroundImageFix" result="shape"/>
<feTurbulence type="fractalNoise" baseFrequency="0.3333333432674408 0.3333333432674408" numOctaves="3" seed="2514" />
<feDisplacementMap in="shape" scale="200" xChannelSelector="R" yChannelSelector="G" result="displacedImage" width="100%" height="100%" />
<feMerge result="effect1_texture_236_40">
<feMergeNode in="displacedImage"/>
</feMerge>
</filter>
</defs>
</svg>
