<svg width="227" height="762" viewBox="0 0 227 762" fill="none" xmlns="http://www.w3.org/2000/svg">
<g filter="url(#filter0_g_500_39)">
<path d="M123.703 490.574C125.878 493.351 126.723 496.327 125.906 499.387C124.528 504.547 122.247 509.689 119.074 514.797C117.679 517.045 117.197 519.187 117.504 521.277C117.816 523.395 118.959 525.639 121.113 527.992C123.559 530.663 124.961 533.491 125.027 536.465C125.093 539.446 123.818 542.297 121.477 544.984C117.316 549.758 115.801 554.325 116.543 558.754C117.488 564.405 115.066 569.87 109.863 575.066C107.494 577.434 106.184 579.686 105.75 581.805C105.325 583.888 105.71 586.013 107.027 588.238C110.232 593.654 110.516 599.192 107.789 604.668C106.76 606.734 106.778 608.73 107.859 610.809C108.988 612.977 111.317 615.309 115.066 617.746C118.987 620.295 121.476 623.23 121.207 626.617C120.944 629.918 118.101 632.763 113.813 635.289C109.645 637.744 107.518 640.008 106.863 641.969C106.28 643.722 106.759 645.653 109.102 647.922C111.704 650.442 113.638 652.561 114.832 654.262C115.425 655.106 115.89 655.918 116.145 656.676C116.392 657.412 116.512 658.347 116.051 659.207L116.051 659.219L116.039 659.242L115.066 660.941C114.876 661.55 114.332 661.996 113.66 661.996C112.832 661.996 112.16 661.325 112.16 660.496L112.16 660.004L112.359 659.664L113.355 657.883C113.349 657.837 113.337 657.757 113.297 657.637C113.174 657.27 112.889 656.722 112.371 655.984C111.341 654.518 109.575 652.557 107.016 650.078C104.197 647.348 102.937 644.277 104.016 641.031C105.026 637.993 107.972 635.254 112.289 632.711C116.487 630.238 118.082 628.081 118.219 626.383C118.347 624.772 117.195 622.704 113.426 620.254C109.486 617.693 106.672 615.021 105.199 612.191C103.68 609.271 103.634 606.265 105.094 603.332C107.347 598.809 107.162 594.345 104.449 589.762C102.808 586.989 102.224 584.111 102.82 581.195C103.411 578.317 105.122 575.563 107.754 572.934C112.559 568.132 114.306 563.593 113.578 559.246C112.646 553.676 114.661 548.241 119.215 543.016C121.229 540.705 122.072 538.553 122.027 536.535C121.983 534.511 121.042 532.336 118.91 530.008C116.487 527.362 114.965 524.604 114.539 521.723C114.111 518.815 114.824 515.952 116.531 513.203C119.567 508.314 121.72 503.45 123.012 498.613C123.53 496.673 123.088 494.648 121.348 492.426C119.572 490.158 116.501 487.77 111.996 485.313C107.337 482.77 103.92 480.14 101.953 477.367C99.9307 474.514 99.4254 471.471 100.688 468.426C102.806 463.317 105.623 458.221 109.125 453.145C112.482 448.279 114.639 443.465 115.629 438.695C116.57 434.157 115.566 429.56 112.43 424.832C109.102 419.817 105.891 414.801 102.82 409.785C101.028 406.858 100.882 403.796 102.445 400.809C103.944 397.948 106.952 395.263 111.188 392.711C119.449 387.732 122.532 383.187 122.086 379.164C121.589 374.686 118.771 369.999 113.227 365.125C107.335 359.947 104.676 354.401 106.195 348.613C107.478 343.725 108.167 338.841 108.27 333.965C108.389 328.35 111.754 322.978 117.785 317.852C120.54 315.508 121.287 313.512 120.938 311.793C120.555 309.922 118.773 307.711 114.902 305.266C110.856 302.709 108.028 300.013 106.746 297.109C105.405 294.067 105.851 291.012 107.859 288.145C111.256 283.3 113.231 278.517 113.859 273.801C114.443 269.425 112.619 264.863 107.859 260.055C105.21 257.378 103.759 254.482 103.945 251.406C104.131 248.358 105.906 245.521 108.832 242.887C114.24 238.018 117.015 233.329 117.527 228.836C118.089 223.889 118.38 218.934 118.406 213.988C118.428 209.657 115.77 205.04 109.758 200.16C106.567 197.569 104.339 194.869 103.277 192.027C102.193 189.126 102.376 186.196 103.758 183.344C106.189 178.325 108.757 173.302 111.457 168.285C114.149 163.282 116.877 158.276 119.637 153.273C120.76 151.236 120.743 149.287 119.578 147.238C118.347 145.074 115.79 142.737 111.656 140.289C107.352 137.74 104.342 135.044 103.008 132.121C102.326 130.627 102.09 129.081 102.34 127.516C102.588 125.962 103.305 124.486 104.391 123.086C108.046 118.373 110.675 111.186 112.172 101.371L112.184 101.371C112.25 100.604 112.876 100 113.66 100C114.489 100 115.16 100.672 115.16 101.5L115.16 101.711L115.148 101.828C113.616 111.877 110.857 119.627 106.758 124.914C105.905 126.013 105.444 127.038 105.293 127.984C105.144 128.918 105.279 129.874 105.738 130.879C106.687 132.955 109.042 135.261 113.18 137.711C117.487 140.262 120.58 142.927 122.191 145.762C123.866 148.71 123.894 151.767 122.262 154.727C119.506 159.722 116.782 164.72 114.094 169.715C111.413 174.696 108.866 179.677 106.453 184.656C105.414 186.803 105.307 188.875 106.09 190.973C106.896 193.129 108.69 195.432 111.656 197.84C117.959 202.957 121.437 208.345 121.406 214.012C121.379 219.063 121.077 224.114 120.504 229.164C119.879 234.67 116.533 239.984 110.836 245.113C108.209 247.478 107.051 249.643 106.934 251.594C106.819 253.517 107.694 255.623 109.992 257.945C115.131 263.137 117.586 268.575 116.836 274.199C116.132 279.481 113.934 284.701 110.32 289.855C108.828 291.985 108.628 293.936 109.488 295.891C110.412 297.985 112.643 300.293 116.508 302.734C120.547 305.287 123.243 308.08 123.879 311.207C124.542 314.485 122.852 317.495 119.73 320.148C113.999 325.021 111.362 329.652 111.27 334.035C111.161 339.156 110.443 344.278 109.102 349.387C107.998 353.598 109.723 358.055 115.207 362.875C121.036 367.999 124.451 373.316 125.063 378.836C125.724 384.813 121.066 390.269 112.734 395.289C108.677 397.734 106.227 400.054 105.105 402.191C104.053 404.202 104.119 406.144 105.387 408.215C108.438 413.199 111.618 418.183 114.926 423.168C118.423 428.439 119.692 433.844 118.559 439.305C117.473 444.534 115.14 449.722 111.598 454.855C108.202 459.778 105.493 464.684 103.465 469.574C102.655 471.527 102.882 473.488 104.402 475.633C105.981 477.859 108.933 480.23 113.438 482.687C118.095 485.229 121.564 487.844 123.703 490.574Z" fill="#D4AF37"/>
</g>
<defs>
<filter id="filter0_g_500_39" x="0" y="0" width="226.213" height="761.996" filterUnits="userSpaceOnUse" color-interpolation-filters="sRGB">
<feFlood flood-opacity="0" result="BackgroundImageFix"/>
<feBlend mode="normal" in="SourceGraphic" in2="BackgroundImageFix" result="shape"/>
<feTurbulence type="fractalNoise" baseFrequency="0.3333333432674408 0.3333333432674408" numOctaves="3" seed="2514" />
<feDisplacementMap in="shape" scale="200" xChannelSelector="R" yChannelSelector="G" result="displacedImage" width="100%" height="100%" />
<feMerge result="effect1_texture_500_39">
<feMergeNode in="displacedImage"/>
</feMerge>
</filter>
</defs>
</svg>
