<svg width="28" height="27" viewBox="0 0 28 27" fill="none" xmlns="http://www.w3.org/2000/svg">
<path d="M12.883 0.565255C13.1751 -0.188356 14.2414 -0.188355 14.5335 0.565255L17.5285 8.29281C17.6541 8.6168 17.9576 8.83734 18.3046 8.85665L26.5794 9.31714C27.3864 9.36205 27.7159 10.3762 27.0894 10.8868L20.6656 16.1232C20.3963 16.3428 20.2803 16.6996 20.3692 17.0355L22.4883 25.0477C22.695 25.829 21.8323 26.4558 21.153 26.0178L14.1879 21.5265C13.8958 21.3382 13.5206 21.3382 13.2286 21.5265L6.26345 26.0178C5.58419 26.4558 4.72153 25.829 4.92819 25.0477L7.04731 17.0355C7.13616 16.6996 7.02021 16.3428 6.75088 16.1232L0.327053 10.8868C-0.299415 10.3762 0.0300935 9.36205 0.837078 9.31714L9.11193 8.85665C9.45887 8.83734 9.76242 8.6168 9.88799 8.29281L12.883 0.565255Z" fill="#D4AF37"/>
</svg>
