<svg width="129" height="130" viewBox="0 0 129 130" fill="none" xmlns="http://www.w3.org/2000/svg">
<path fill-rule="evenodd" clip-rule="evenodd" d="M72.1881 0.241814C72.1222 0.469763 72.0225 1.25955 71.9663 1.99678C71.7167 5.27028 73.0621 7.87783 75.9071 9.63461L76.8959 10.2452L75.6778 10.5967C75.0078 10.79 74.091 11.1625 73.6403 11.4242C72.655 11.9965 70.8062 13.8426 70.3057 14.7536L69.9447 15.4107L71.5485 14.6301C72.4306 14.2007 73.8234 13.6455 74.6436 13.3962C76.0166 12.9789 76.365 12.9423 79.0348 12.9335C81.5864 12.9252 82.0928 12.9698 83.2509 13.3053C86.5173 14.2515 88.9623 16.171 90.2616 18.8093C91.3105 20.939 91.684 22.7054 91.6989 25.6063C91.7114 28.0119 91.5534 29.9989 91.3198 30.3771C91.2421 30.5029 90.3915 30.64 89.0506 30.743C87.8711 30.8335 86.4585 30.9605 85.9116 31.0251L84.9174 31.1427L85.7459 31.26C86.2016 31.3245 87.5652 31.4331 88.776 31.5014C89.9868 31.5696 91.0109 31.6791 91.0514 31.7448C91.092 31.8106 90.9438 32.5611 90.7219 33.4127C90.5002 34.2643 90.3446 34.987 90.3763 35.0186C90.4598 35.1022 91.8284 33.3923 92.3906 32.5021L92.8713 31.7408L93.9954 31.7405L95.1198 31.7401L95.0111 32.5603C94.8704 33.6214 94.9981 34.0898 95.623 34.8018C96.2504 35.5166 97.1687 35.8061 98.0428 35.5647C98.378 35.472 98.6878 35.4317 98.731 35.4748C98.7741 35.5181 98.8422 35.9473 98.882 36.4288L98.9545 37.3041L97.5341 38.1724C95.9513 39.1401 94.9599 39.941 95.5226 39.7976C96.4549 39.5599 98.7948 39.186 98.8714 39.2624C98.9196 39.3109 99.0225 40.2677 99.0998 41.3891C99.2748 43.923 99.4455 45.6921 99.5088 45.6289C99.5773 45.5603 99.8792 42.5583 100.008 40.6676L100.116 39.068L101.465 38.9984C103.429 38.8971 106.41 39.1447 107.943 39.5363C112.414 40.6792 115.188 43.3935 116.328 47.738C116.864 49.7832 116.825 53.1438 116.241 55.3639C115.827 56.9333 114.618 59.6974 113.83 60.8761C113.631 61.1723 113.542 61.4149 113.63 61.4149C114.075 61.4149 115.536 60.3947 116.585 59.3526C117.818 58.1266 118.341 57.2893 118.81 55.7904L119.091 54.8909L119.626 56.0118C120.628 58.1122 122.7 59.7713 124.902 60.2352C126.017 60.4701 129.138 60.4847 128.995 60.2544C128.939 60.1632 128.767 60.0886 128.613 60.0885C128.459 60.0885 127.858 59.8637 127.278 59.5892C124.478 58.2642 122.69 55.0163 121.849 49.7297C120.57 41.6842 114.838 35.6923 108.021 35.2726C105.706 35.1302 102.916 35.6401 100.448 36.657C100.28 36.726 100.245 36.2645 100.282 34.4644L100.328 32.1843L101.392 31.8844C103.252 31.36 106.353 30.9111 108.096 30.9141C110.904 30.9189 112.877 31.524 114.312 32.8205C114.659 33.1349 114.992 33.3436 115.051 33.2844C115.221 33.1148 115.175 30.8925 114.988 30.2188C114.895 29.8834 114.578 29.2509 114.284 28.8133C112.604 26.3098 107.708 26.2558 102.581 28.6845C101.723 29.0905 100.991 29.3915 100.953 29.3534C100.915 29.3154 100.992 29.0722 101.124 28.813C101.478 28.1172 102.496 25.0108 102.746 23.8656C102.865 23.3185 102.961 22.0503 102.959 21.0473C102.957 19.5415 102.89 19.0538 102.575 18.2487C101.792 16.2458 100.335 15.2843 98.0846 15.2843C97.3959 15.2843 96.6721 15.3351 96.4762 15.3973C96.139 15.5044 96.1538 15.5407 96.7545 16.0836C97.6891 16.9285 98.5106 18.6193 98.8443 20.3842C99.2608 22.5874 98.9772 27.0466 98.2466 29.7831L98.0832 30.3955L95.9186 30.4462C94.728 30.4741 93.7346 30.4772 93.7111 30.4534C93.6876 30.4295 93.8717 29.9819 94.1202 29.4587C95.6717 26.1935 96.1233 22.4551 95.3367 19.3895C94.2251 15.0585 90.4928 11.0748 85.5419 8.93553C84.8339 8.62949 83.3402 8.15021 82.2225 7.87038C78.2718 6.88133 76.418 6.02225 74.636 4.3545C73.49 3.2819 72.6617 1.8459 72.4314 0.531425C72.3204 -0.101526 72.2959 -0.130695 72.1881 0.241814ZM62.1873 9.68037C59.6462 10.5955 57.7995 12.9338 57.2308 15.9565C56.6626 18.9759 57.805 21.7006 60.31 23.3002L61.0557 23.7764L59.9786 23.7779C55.684 23.7838 48.6237 22.8175 42.9461 21.4465C39.6524 20.6511 33.8058 18.8184 33.391 18.4512C33.3045 18.3746 38.0432 18.3119 43.9217 18.3119C52.0136 18.3119 54.6579 18.2637 54.8086 18.113C55.0957 17.8257 55.0531 17.4101 54.7043 17.0943C54.4281 16.8441 53.2973 16.8199 41.8596 16.8199L29.3178 16.8199L27.3414 15.8287C23.2645 13.7841 19.1308 12.2077 15.735 11.4028C14.4397 11.0958 13.3387 10.9673 11.4265 10.9004C8.31401 10.7914 6.8747 11.0346 4.81861 12.0171C1.68245 13.5157 -0.756915 17.1876 0.217107 18.9436C0.757807 19.9185 2.08278 20.2414 3.06077 19.6367C3.69261 19.2461 3.82056 18.9474 4.3026 16.737C4.68406 14.9887 5.31589 13.3556 5.76993 12.9448C5.91906 12.8098 6.59895 12.5447 7.28066 12.3558C10.061 11.5852 14.3661 12.0363 18.9253 13.5762C21.4958 14.4442 26.3407 16.5568 26.3399 16.8091C26.3399 16.8607 22.2572 16.929 17.2675 16.961C9.21646 17.0125 8.172 17.0488 7.98823 17.2827C7.71929 17.6251 7.72692 17.7366 8.04143 18.0515C8.27276 18.2829 9.49233 18.3119 18.9671 18.3119L29.6324 18.3119L32.0876 19.2877C39.2388 22.1297 47.684 24.1051 55.5874 24.7845C58.2774 25.0157 64.099 25.0141 65.8612 24.7815C66.5903 24.6854 67.7504 24.5607 68.439 24.5046C70.7288 24.3185 73.6026 25.1741 74.4355 26.2901C75.3641 27.5343 74.6572 29.921 73.282 30.1851C72.8235 30.273 72.7221 30.2287 72.558 29.8685C72.4049 29.5324 72.4203 29.343 72.6354 28.9116C72.9615 28.2576 72.9839 27.3713 72.6808 27.1195C72.5582 27.0177 72.2362 26.8901 71.9653 26.8359C71.3747 26.7178 70.5808 27.2995 70.2534 28.0905C69.9709 28.773 70.1122 30.2463 70.512 30.7872C71.2715 31.8142 72.7589 32.1786 74.0275 31.6485C75.3926 31.078 76.208 29.8076 76.2142 28.242C76.2233 25.9098 75.0345 24.7464 71.9923 24.1104L70.9981 23.9027L71.9094 23.5617C72.6719 23.2764 73.2136 23.2197 75.2236 23.2152C77.5716 23.2097 77.6565 23.2222 78.952 23.7585C80.4842 24.3927 81.253 24.9284 81.6034 25.6066C81.9725 26.3206 81.9112 26.9353 81.4195 27.4487C81.1817 27.6971 81.0369 27.9809 81.0979 28.0795C81.1587 28.178 81.6636 28.2588 82.2199 28.2588C84.182 28.2588 85.5895 26.8533 85.5631 24.9204C85.5507 24.0017 85.5605 23.9813 86.0624 23.8826C87.6169 23.5771 89.3757 23.0047 89.5346 22.7525C89.9325 22.1209 87.9049 20.7597 85.7459 20.2089C84.8947 19.9918 83.6375 19.8875 81.0233 19.817L77.4606 19.721L77.3638 18.7264C77.2445 17.4986 76.9215 16.8568 76.0458 16.107C75.2915 15.461 74.4917 15.2362 73.8355 15.4858C73.3586 15.6672 73.2561 16.1617 73.631 16.4731C74.0209 16.7968 74.2421 18.0031 74.0434 18.7229C73.588 20.3729 72.3983 21.3585 69.9253 22.1342C66.6312 23.1675 64.0316 23.2129 62.174 22.2696C57.6554 19.975 57.3762 12.7213 61.7245 10.593C62.7487 10.0915 63.3655 10.1404 63.9566 10.7699C64.346 11.1847 64.3499 11.348 64.0198 13.3836C63.672 15.5286 66.3492 16.3177 67.3321 14.36C67.9814 13.0673 67.7393 11.6445 66.6922 10.5968C65.5092 9.41331 63.8601 9.07775 62.1873 9.68037ZM109.773 17.1317C109.062 17.576 108.311 18.4205 107.692 19.4724C107.073 20.5246 105.983 23.5108 106.192 23.5821C106.423 23.6608 108.53 22.8172 109.606 22.2147C111.519 21.1446 112.673 19.8348 112.673 18.7345C112.673 17.2584 111.027 16.3484 109.773 17.1317ZM106.709 40.6074C106.597 40.7432 106.299 41.6492 106.047 42.6208L105.589 44.3872L104.576 44.4132C103.745 44.4346 103.438 44.5278 102.86 44.9343C101.639 45.7925 101.051 47.0843 101.322 48.3146C101.45 48.8994 101.883 48.9835 102.195 48.484C102.496 48.0026 103.487 48.0429 104.26 48.5682C105.024 49.0874 105.884 50.8321 106.297 52.6978C106.644 54.2629 106.555 56.3234 106.075 57.8556L105.766 58.8453L105.574 58.0993C105.022 55.9594 104.85 55.5748 104.085 54.7876C103.45 54.1335 103.144 53.9538 102.379 53.7852C99.9745 53.2553 97.7261 54.8908 97.7049 57.1855C97.6902 58.777 98.6296 59.779 100.234 59.8832C101.339 59.9549 102.157 59.5775 102.625 58.7803C102.891 58.3265 102.904 58.1866 102.723 57.749C102.437 57.0568 101.897 56.8772 101.084 57.2026C100.194 57.5588 99.5151 57.4628 99.4454 56.9706C99.2593 55.6568 101.786 54.6066 103.132 55.4387C104.535 56.3059 105.49 59.8004 104.974 62.1722C103.978 66.7446 104.375 75.3652 105.955 83.4568C106.98 88.7042 108.22 92.9356 110.293 98.2648L111.182 100.549L111.182 111.95C111.182 120.596 111.23 123.399 111.381 123.549C111.685 123.854 112.31 123.786 112.502 123.428C112.614 123.218 112.678 119.735 112.687 113.357L112.701 103.606L113.601 105.492C116.976 112.559 118.236 119.166 116.945 123.031C116.57 124.155 116.56 124.166 115.49 124.701C114.844 125.024 113.717 125.379 112.673 125.59C110.484 126.031 110.073 126.243 109.681 127.129C108.898 128.902 110.428 130.442 112.419 129.884C114.176 129.392 116.494 127.299 117.462 125.332C118.396 123.435 118.689 121.981 118.683 119.272C118.674 114.694 117.369 110.275 113.896 103.062L112.673 100.522L112.673 88.7859C112.673 77.4114 112.663 77.0407 112.354 76.7607C111.95 76.3951 111.493 76.4784 111.252 76.9613C111.118 77.2299 111.082 79.9871 111.124 86.715C111.156 91.8738 111.134 96.1728 111.074 96.2686C110.941 96.4851 110.427 95.1007 109.369 91.6699C107.267 84.8528 106.083 78.1329 105.769 71.2374C105.71 69.938 105.709 68.875 105.767 68.875C105.825 68.875 106.023 69.1693 106.206 69.5289C106.697 70.4914 108.019 71.7333 109.13 72.2745C109.98 72.6887 110.339 72.7583 111.937 72.8185C113.561 72.8796 113.902 72.8413 114.937 72.4812C119.589 70.8627 121.749 66.1028 119.089 63.3348C118.616 62.8429 118.153 62.5442 117.656 62.4114C115.614 61.8651 113.642 63.2299 114.168 64.825C114.526 65.909 115.694 66.3537 116.929 65.8767C117.768 65.5531 118.506 65.6478 118.923 66.1324C119.965 67.344 118.57 69.7329 116.182 70.8279C113.597 72.0132 109.915 71.1643 108.116 68.968C107.17 67.8139 106.82 66.8331 106.74 65.1161C106.655 63.2854 106.862 61.9941 107.595 59.7811C108.218 57.9023 108.739 57.1144 109.808 56.4365C110.93 55.7246 111.679 55.6583 112.738 56.177C113.222 56.4136 113.695 56.6072 113.791 56.6072C114.292 56.6072 114.293 55.0219 113.792 54.2848C113.061 53.2109 112.29 52.7477 111.059 52.6419L109.939 52.5456L109.836 49.0631C109.699 44.3977 109.255 42.6356 107.772 40.8727C107.295 40.3062 107.017 40.2367 106.709 40.6074Z" fill="#D4AF37"/>
</svg>
