<svg width="62" height="78" viewBox="0 0 62 78" fill="none" xmlns="http://www.w3.org/2000/svg">
<path fill-rule="evenodd" clip-rule="evenodd" d="M14.4949 0.824006C14.1645 1.65277 11.7193 10.2045 11.0382 12.9132C8.98691 21.072 8.82063 28.0174 10.5654 32.6626C10.791 33.2633 11.5051 34.8149 12.1522 36.1106C13.7549 39.3192 14.073 40.3858 14.0583 42.4985C14.0517 43.422 13.9652 44.9359 13.8658 45.8627C13.4583 49.6672 11.3135 63.5319 10.7582 65.9506C10.3151 67.8813 9.46027 69.4505 8.41683 70.2493C7.88749 70.6545 7.73797 70.6771 5.12544 70.7465C0.880629 70.8596 -0.0776583 71.2127 0.191875 72.5649C0.392013 73.5693 1.01321 73.9896 3.47287 74.7842C6.98435 75.919 10.6331 76.5879 15.0524 76.907C18.3488 77.1452 19.9672 76.9691 20.5334 76.3107C21.0215 75.7434 21.0127 75.1282 20.5098 74.6635C20.13 74.3124 16.2603 72.5122 15.0789 72.1368C14.6112 71.9883 14.423 71.7504 13.8422 70.574C12.897 68.6599 12.8623 67.8586 13.5259 63.2754C14.342 57.6392 16.4693 44.9697 16.9128 43.103C17.0136 42.6797 17.3614 41.7656 17.6857 41.0718C18.2122 39.9458 18.5681 39.5209 20.9961 37.1188C23.8563 34.2891 24.3305 33.6943 25.3513 31.6566C27.9114 26.5461 28.697 21.9652 29.3856 8.13017C29.5661 4.50358 29.6072 2.46489 29.5019 2.35925C28.9466 1.80198 21.4609 0.603314 16.4529 0.269924L14.7608 0.157227L14.4949 0.824006ZM14.8762 0.664544C14.8762 0.887926 16.8169 1.50037 18.4801 1.80197C21.3766 2.32712 21.7747 2.41358 21.6892 2.49954C21.5757 2.61325 19.6165 2.29113 17.2489 1.76934C16.203 1.53889 15.3315 1.37472 15.3124 1.40433C15.2933 1.4341 15.1052 2.25328 14.8943 3.22469C14.6835 4.1961 14.4423 5.06288 14.3583 5.15068C14.1315 5.38836 14.161 5.17793 14.625 3.25598C15.0933 1.31619 15.1076 1.20618 14.8895 1.20618C14.8047 1.20618 14.6857 1.4521 14.625 1.75286C14.5643 2.05362 14.068 3.78684 13.522 5.60468C12.9763 7.42251 12.5296 8.98333 12.5296 9.07316C12.5296 9.39157 18.3822 9.58451 22.5868 9.40469C24.7759 9.31117 27.2972 9.47147 28.4037 9.77442C28.9376 9.92076 28.9409 9.91773 29.0256 9.22236C29.0723 8.83783 29.1553 7.19863 29.2098 5.57962L29.309 2.63596L27.5131 2.59945C26.5253 2.57944 24.8537 2.44319 23.7983 2.29685C20.9521 1.90172 15.5906 0.905252 15.209 0.700205C15.0259 0.601971 14.8762 0.585822 14.8762 0.664544ZM16.301 0.716185C17.8632 1.19407 24.4879 2.14966 27.1963 2.28759L28.8725 2.37305L27.9506 2.13049C25.727 1.54562 18.0431 0.500035 16.3195 0.547807L15.7982 0.562272L16.301 0.716185ZM44.4612 1.66539C40.5189 1.9066 34.3765 3.00602 32.7073 3.76918L32.2613 3.97322L32.3664 5.91183C32.6601 11.3329 33.8963 22.9481 34.5061 26.017C35.5658 31.3501 37.0304 34.1032 40.9496 38.1281C42.2107 39.4233 43.458 40.7961 43.7212 41.1787C44.7656 42.6975 45.1575 44.2055 46.6429 52.4259C48.9541 65.215 49.0853 68.3077 47.4148 70.6217C47.0053 71.1889 46.7346 71.358 45.6996 71.6919C45.0236 71.91 43.6387 72.5089 42.6221 73.0226C40.9087 73.8884 40.7699 73.9952 40.7226 74.4833C40.5647 76.1111 42.8817 76.5573 48.4841 75.9783C52.7214 75.5403 55.1567 75.0073 57.8708 73.9235C58.7005 73.5923 59.6994 73.1015 60.0904 72.8328C61.1996 72.0708 61.2596 71.0185 60.2188 70.5822C59.6112 70.3274 56.6551 70.0041 54.9311 70.0039C53.8441 70.0037 53.8292 69.9973 53.0628 69.2047C52.6379 68.7654 52.1364 68.0964 51.9481 67.7183C51.3043 66.4241 50.6551 63.2516 49.2493 54.5285C47.9324 46.3577 47.6589 44.2393 47.6524 42.1651C47.6452 39.8569 47.5726 40.0564 49.671 36.6071C51.7574 33.1777 52.3011 31.2239 52.3139 27.1104C52.3231 24.1802 52.1412 22.579 51.3299 18.4476C50.4791 14.1151 47.7858 3.9093 47.0565 2.25412C46.7056 1.45782 46.9495 1.51316 44.4612 1.66539ZM41.5897 2.14209C38.6852 2.4955 33.7759 3.57557 34.0094 3.80989C34.3027 4.10425 45.3831 2.29146 45.3831 1.94916C45.3831 1.81694 43.4555 1.91518 41.5897 2.14209ZM46.5139 1.97775C46.3565 2.1357 40.6063 3.34681 38.6783 3.62806C37.7103 3.76918 35.9189 3.97726 34.6973 4.09029C33.4757 4.20333 32.4764 4.35774 32.4764 4.4331C32.4764 4.58415 32.8215 4.61157 34.5716 4.5998C35.6333 4.59256 35.6811 4.60586 35.0745 4.73958C34.7057 4.82083 34.0081 4.89181 33.524 4.89702C32.9348 4.90358 32.6452 4.97625 32.6475 5.11704C32.6495 5.23277 32.7605 6.6898 32.8942 8.35507C33.028 10.0203 33.1395 11.4875 33.1421 11.6155C33.1485 11.927 36.9131 11.7771 38.6282 11.397C40.5243 10.9768 42.7009 10.8002 46.0229 10.797C48.8676 10.7943 49.087 10.7724 49.0066 10.4997C48.1767 7.68375 46.8917 3.01123 46.8917 2.80988C46.8917 2.62233 46.7821 2.57035 46.5145 2.63141C44.3393 3.12763 43.6633 3.14815 45.3409 2.66707C46.3689 2.3722 46.8565 2.12392 46.7053 1.9722C46.6542 1.9209 46.568 1.92342 46.5139 1.97775ZM46.395 2.97237C46.3892 3.21308 47.3344 6.75977 47.5379 7.26171C47.9091 8.17677 47.7268 6.9729 47.2196 5.1601C46.7484 3.47616 46.4048 2.56447 46.395 2.97237ZM21.4223 9.75591C21.1045 9.78619 20.7579 9.93018 20.6518 10.0758C20.5147 10.2637 20.4243 10.2844 20.3397 10.1467C20.1953 9.91235 19.402 9.88644 19.402 10.116C19.402 10.2055 19.2966 10.2383 19.1675 10.1885C19.0386 10.1389 18.883 10.1795 18.822 10.2785C18.7447 10.4042 18.613 10.4059 18.3864 10.2841C17.8904 10.0178 15.838 10.1349 15.6067 10.4427C15.4418 10.6622 15.3763 10.6647 15.1319 10.4612C14.8545 10.2301 14.6409 10.1736 13.6191 10.0605C13.3425 10.0299 12.9251 9.95137 12.6918 9.88577C12.2713 9.76786 12.2615 9.78838 11.6328 12.1342C10.2032 17.4683 9.68823 20.7406 9.68337 24.5232C9.67985 27.214 9.92106 29.0788 10.5305 31.071C10.9804 32.5424 12.58 35.7952 13.1467 36.3917C13.7488 37.0253 14.9244 37.4897 16.7085 37.7986C19.0032 38.1961 19.5359 37.9996 21.6102 35.9896C24.6882 33.0073 26.7357 28.9656 27.6848 23.9985C28.5158 19.6493 29.2475 10.3216 28.7802 10.0319C28.6834 9.97189 28.1365 9.90209 27.5649 9.87686C26.9935 9.85162 26.3928 9.77408 26.23 9.70478C25.9445 9.58316 25.7345 9.61108 25.0173 9.86575C24.7492 9.96096 24.7325 9.94885 24.9335 9.8052C25.1177 9.67349 24.7588 9.63548 23.5925 9.66306C22.7167 9.68375 21.7401 9.72564 21.4223 9.75591ZM19.6652 10.4387C19.6147 10.5206 19.6698 10.6681 19.7878 10.7665C19.9491 10.9007 20.0086 10.8637 20.027 10.6173C20.0522 10.2814 19.8296 10.1716 19.6652 10.4387ZM40.1373 11.3608C39.4804 11.4705 38.9314 11.6579 38.8407 11.8034C38.7365 11.9706 38.6825 11.9847 38.6808 11.8454C38.6773 11.551 38.3424 11.5835 37.9792 11.9135C37.8032 12.0733 37.6726 12.111 37.6726 12.0018C37.6726 11.8669 37.5469 11.8597 37.2395 11.9769C37.0013 12.0678 36.7363 12.0987 36.6506 12.0456C36.565 11.9926 36.2703 12.0616 35.9957 12.199C35.7124 12.3408 35.4553 12.382 35.4013 12.2944C35.349 12.2094 35.2163 12.141 35.1065 12.1423C34.9865 12.144 35.0073 12.2101 35.1583 12.308C35.3606 12.4392 35.3341 12.4715 35.0227 12.4737C34.8098 12.475 34.6771 12.4089 34.7277 12.3268C34.814 12.1865 33.3537 11.8762 33.2233 12.0071C33.1366 12.0939 33.5977 16.9612 33.9923 20.1267C34.4372 23.6954 34.995 26.3888 35.8392 29.0448C37.2592 33.5123 38.4703 35.3933 41.4977 37.8337C42.0807 38.3037 42.3068 38.3804 43.11 38.3804C44.6131 38.3804 47.3518 37.9034 48.1909 37.4955C48.8829 37.159 49.0421 36.9661 49.6811 35.6891C50.6632 33.7264 51.5033 31.5967 51.7713 30.3905C52.1352 28.7524 52.0485 24.4194 51.5998 21.8118C51.2223 19.6182 50.1685 14.8579 49.6076 12.8126C49.3378 11.8291 49.2675 11.7238 48.9078 11.7647C48.6879 11.7896 48.4512 11.7179 48.382 11.6054C48.2922 11.4595 48.1579 11.5191 47.9147 11.8123C47.7083 12.0612 47.5711 12.1325 47.5677 11.9931C47.5634 11.8099 47.5117 11.8042 47.3176 11.9658C47.1163 12.1336 47.0541 12.0935 46.9655 11.7391C46.8707 11.3603 46.8283 11.3384 46.6114 11.5561C46.3027 11.8658 46.0536 11.874 46.0536 11.5744C46.0536 11.4183 45.9145 11.3721 45.6168 11.4293C45.3553 11.4794 45.1248 11.4237 45.0428 11.2905C44.9304 11.1078 44.8536 11.1113 44.6144 11.3095C44.3898 11.4955 44.3067 11.5028 44.2524 11.3408C44.2136 11.2252 44.0058 11.1305 43.7907 11.1305C43.5757 11.1305 43.3678 11.2252 43.3291 11.3408C43.2753 11.5011 43.1858 11.491 42.9526 11.2987C42.7195 11.1065 42.63 11.0964 42.5762 11.2567C42.4925 11.506 42.0307 11.5416 42.0307 11.2987C42.0307 11.0965 41.6427 11.1092 40.1373 11.3608ZM42.466 11.6089C42.408 11.7031 42.4422 11.8308 42.542 11.8927C42.7998 12.0525 42.966 11.8336 42.7508 11.6177C42.6305 11.4969 42.5368 11.494 42.466 11.6089ZM39.5164 11.8034C39.5164 11.8959 39.5918 11.9716 39.684 11.9716C39.7762 11.9716 39.8517 11.8959 39.8517 11.8034C39.8517 11.7108 39.7762 11.6351 39.684 11.6351C39.5918 11.6351 39.5164 11.7108 39.5164 11.8034ZM44.8803 11.9815C44.8803 12.0794 44.9557 12.1129 45.0479 12.0557C45.1401 11.9985 45.2155 11.9184 45.2155 11.8775C45.2155 11.8367 45.1401 11.8034 45.0479 11.8034C44.9557 11.8034 44.8803 11.8836 44.8803 11.9815ZM15.5467 12.1398C15.5467 12.2323 15.6267 12.308 15.7242 12.308C15.8218 12.308 15.8551 12.2323 15.7982 12.1398C15.7412 12.0473 15.6614 11.9716 15.6206 11.9716C15.5799 11.9716 15.5467 12.0473 15.5467 12.1398ZM24.9335 12.308C24.9335 12.4005 25.0089 12.4762 25.1011 12.4762C25.1933 12.4762 25.2687 12.4005 25.2687 12.308C25.2687 12.2155 25.1933 12.1398 25.1011 12.1398C25.0089 12.1398 24.9335 12.2155 24.9335 12.308ZM37.0859 12.308C37.1429 12.4005 37.2227 12.4762 37.2634 12.4762C37.3042 12.4762 37.3373 12.4005 37.3373 12.308C37.3373 12.2155 37.2574 12.1398 37.1598 12.1398C37.0623 12.1398 37.0289 12.2155 37.0859 12.308ZM11.3601 14.8617C10.4424 18.7253 10.1297 21.2576 10.1284 24.8396C10.1274 27.7474 10.1663 28.1821 10.5605 29.6596C10.7987 30.5528 11.1172 31.499 11.2684 31.7622C11.5795 32.304 11.6021 32.4342 11.0002 30.2228C10.0597 26.7672 10.3017 20.5672 11.6031 14.7731C11.8494 13.6772 12.015 12.7448 11.9714 12.7011C11.9278 12.6574 11.6527 13.6296 11.3601 14.8617ZM23.6763 12.8126C23.7333 12.9051 23.8131 12.9808 23.8538 12.9808C23.8945 12.9808 23.9277 12.9051 23.9277 12.8126C23.9277 12.7201 23.8478 12.6444 23.7502 12.6444C23.6527 12.6444 23.6193 12.7201 23.6763 12.8126ZM16.5524 12.9808C16.5524 13.0733 16.6279 13.149 16.7201 13.149C16.8123 13.149 16.8877 13.0733 16.8877 12.9808C16.8877 12.8883 16.8123 12.8126 16.7201 12.8126C16.6279 12.8126 16.5524 12.8883 16.5524 12.9808ZM15.3791 13.3172C15.3791 13.4098 15.4545 13.4854 15.5467 13.4854C15.6389 13.4854 15.7143 13.4098 15.7143 13.3172C15.7143 13.2247 15.6389 13.149 15.5467 13.149C15.4545 13.149 15.3791 13.2247 15.3791 13.3172ZM23.4249 13.9901C23.4249 14.0826 23.5003 14.1583 23.5925 14.1583C23.6847 14.1583 23.7601 14.0826 23.7601 13.9901C23.7601 13.8976 23.6847 13.8219 23.5925 13.8219C23.5003 13.8219 23.4249 13.8976 23.4249 13.9901ZM46.3888 13.9901C46.3888 14.0826 46.4643 14.1583 46.5565 14.1583C46.6486 14.1583 46.7241 14.0826 46.7241 13.9901C46.7241 13.8976 46.6486 13.8219 46.5565 13.8219C46.4643 13.8219 46.3888 13.8976 46.3888 13.9901ZM24.9335 14.6629C24.9335 14.7554 25.0134 14.8311 25.111 14.8311C25.2085 14.8311 25.2419 14.7554 25.1849 14.6629C25.1279 14.5704 25.0481 14.4947 25.0074 14.4947C24.9666 14.4947 24.9335 14.5704 24.9335 14.6629ZM37.0021 14.6629C37.0021 14.7554 37.0775 14.8311 37.1697 14.8311C37.2619 14.8311 37.3373 14.7554 37.3373 14.6629C37.3373 14.5704 37.2619 14.4947 37.1697 14.4947C37.0775 14.4947 37.0021 14.5704 37.0021 14.6629ZM45.3831 14.8311C45.3831 14.9236 45.4585 14.9993 45.5507 14.9993C45.6429 14.9993 45.7184 14.9236 45.7184 14.8311C45.7184 14.7386 45.6429 14.6629 45.5507 14.6629C45.4585 14.6629 45.3831 14.7386 45.3831 14.8311ZM28.1638 15.504C28.1638 15.9203 28.1965 16.0907 28.2366 15.8824C28.2765 15.6742 28.2765 15.3337 28.2366 15.1255C28.1965 14.9172 28.1638 15.0876 28.1638 15.504ZM38.3431 14.9993C38.3431 15.0918 38.4185 15.1675 38.5107 15.1675C38.6029 15.1675 38.6783 15.0918 38.6783 14.9993C38.6783 14.9068 38.6029 14.8311 38.5107 14.8311C38.4185 14.8311 38.3431 14.9068 38.3431 14.9993ZM46.6403 15.1675C46.6973 15.2601 46.777 15.3357 46.8178 15.3357C46.8585 15.3357 46.8917 15.2601 46.8917 15.1675C46.8917 15.075 46.8117 14.9993 46.7142 14.9993C46.6166 14.9993 46.5833 15.075 46.6403 15.1675ZM15.5467 16.5231C15.5467 16.621 15.6222 16.6545 15.7143 16.5973C15.8065 16.5401 15.882 16.4601 15.882 16.4192C15.882 16.3783 15.8065 16.345 15.7143 16.345C15.6222 16.345 15.5467 16.4252 15.5467 16.5231ZM27.8841 17.9009C27.5336 22.1383 26.4085 27.0934 25.1463 29.9573C24.8741 30.5748 24.8253 30.8028 24.9955 30.661C25.3964 30.3271 26.2769 28.0334 26.7962 25.9694C27.4781 23.2599 28.3963 16.5132 28.0832 16.5132C28.0368 16.5132 27.9471 17.1376 27.8841 17.9009ZM37.2535 17.0178C37.1965 17.1104 37.2299 17.1861 37.3275 17.1861C37.425 17.1861 37.505 17.1104 37.505 17.0178C37.505 16.9253 37.4718 16.8496 37.431 16.8496C37.3903 16.8496 37.3105 16.9253 37.2535 17.0178ZM16.2172 17.3543C16.2172 17.4468 16.2972 17.5225 16.3947 17.5225C16.4923 17.5225 16.5256 17.4468 16.4686 17.3543C16.4116 17.2617 16.3319 17.1861 16.2911 17.1861C16.2504 17.1861 16.2172 17.2617 16.2172 17.3543ZM34.1852 18.2794C34.1886 18.557 34.2261 18.6501 34.2687 18.4865C34.3113 18.3228 34.3084 18.0957 34.2625 17.9818C34.2166 17.868 34.1819 18.0019 34.1852 18.2794ZM38.5107 18.5317C38.5107 18.6242 38.5861 18.6999 38.6783 18.6999C38.7705 18.6999 38.8459 18.6242 38.8459 18.5317C38.8459 18.4392 38.7705 18.3635 38.6783 18.3635C38.5861 18.3635 38.5107 18.4392 38.5107 18.5317ZM34.3418 19.4569C34.3309 19.7344 34.4717 20.9834 34.6547 22.2323C35.3462 26.9511 36.64 31.0416 38.1994 33.4386C39.0803 34.7927 40.1322 36.0255 40.407 36.0255C40.5064 36.0255 40.3575 35.7796 40.0761 35.4788C37.2133 32.4209 35.5949 27.9323 34.5118 20.0456C34.4291 19.4443 34.3527 19.1793 34.3418 19.4569ZM46.1374 19.2046C46.0804 19.2971 46.1138 19.3728 46.2113 19.3728C46.3089 19.3728 46.3888 19.2971 46.3888 19.2046C46.3888 19.112 46.3557 19.0364 46.3149 19.0364C46.2742 19.0364 46.1944 19.112 46.1374 19.2046ZM36.4154 19.3728C36.4724 19.4653 36.5522 19.541 36.5929 19.541C36.6337 19.541 36.6669 19.4653 36.6669 19.3728C36.6669 19.2803 36.5869 19.2046 36.4894 19.2046C36.3918 19.2046 36.3584 19.2803 36.4154 19.3728ZM50.3279 21.3913C50.3849 21.4838 50.4647 21.5595 50.5054 21.5595C50.5462 21.5595 50.5793 21.4838 50.5793 21.3913C50.5793 21.2988 50.4994 21.2231 50.4018 21.2231C50.3043 21.2231 50.2709 21.2988 50.3279 21.3913ZM49.9374 21.7277C49.94 21.8665 50.0027 22.1692 50.0765 22.4005C50.1844 22.7386 50.2116 22.7551 50.2156 22.4846C50.2183 22.2996 50.1558 21.9968 50.0765 21.8118C49.9881 21.6057 49.9343 21.5731 49.9374 21.7277ZM51.3843 23.578C51.5825 25.9999 51.5061 28.4483 51.1888 29.8421C51.0125 30.6169 50.5237 31.8726 49.9816 32.943C49.4806 33.9324 49.0708 34.779 49.0708 34.8243C49.0708 34.8695 49.2546 34.7333 49.4794 34.5213C50.1363 33.902 51.0579 31.83 51.4361 30.1218C51.7391 28.7531 51.7728 28.2004 51.6871 26.017C51.6325 24.6293 51.5158 23.1911 51.4275 22.8211C51.309 22.3237 51.2978 22.521 51.3843 23.578ZM11.6209 23.4451C11.5585 23.6571 11.4633 24.5952 11.409 25.5301C11.234 28.5516 11.8614 31.2525 13.1538 33.0398C13.663 33.7441 14.2058 34.0875 14.2058 33.7055C14.2058 33.6324 13.9176 32.8564 13.5655 31.9814C12.7305 29.9069 12.2505 28.2211 11.9627 26.3535C11.8344 25.5208 11.721 25.0379 11.7106 25.2801C11.6558 26.5472 12.5599 30.179 13.4793 32.3851C13.7052 32.9271 13.8561 33.4046 13.8147 33.4462C13.5827 33.679 12.3308 31.2801 11.9519 29.8768C11.5704 28.4636 11.428 25.5269 11.6787 24.2478C11.8795 23.2236 11.8413 22.6951 11.6209 23.4451ZM50.1221 24.0826C50.1221 24.4989 50.1548 24.6693 50.1948 24.4611C50.2347 24.2529 50.2347 23.9124 50.1948 23.7042C50.1548 23.4959 50.1221 23.6663 50.1221 24.0826ZM50.6182 24.5873C50.6182 24.9111 50.6528 25.0434 50.6948 24.8816C50.7371 24.7198 50.7371 24.4547 50.6948 24.2929C50.6528 24.1311 50.6182 24.2635 50.6182 24.5873ZM50.7798 26.1363C50.7278 27.6544 50.395 29.5952 50.1303 29.9227C49.9127 30.1918 49.8993 30.154 49.9989 29.5494C50.2434 28.0626 50.3569 26.3393 50.2257 26.1011C50.1388 25.9435 50.0825 26.2278 50.0758 26.8581C50.0698 27.4132 49.9578 28.47 49.8269 29.2068C49.6961 29.9435 49.6298 30.5869 49.6794 30.6366C49.7292 30.6862 49.9442 30.5235 50.1574 30.2749C50.6452 29.7062 50.966 27.9593 50.8775 26.3535C50.8137 25.1943 50.8122 25.191 50.7798 26.1363ZM39.4326 26.1011C39.4896 26.1937 39.5694 26.2693 39.6101 26.2693C39.6508 26.2693 39.684 26.1937 39.684 26.1011C39.684 26.0086 39.6041 25.9329 39.5065 25.9329C39.409 25.9329 39.3756 26.0086 39.4326 26.1011ZM13.1984 35.8749C13.7988 36.3841 14.9904 36.9609 16.1272 37.2924C17.2259 37.613 19.2647 37.574 19.8289 37.2216C20.1001 37.0524 19.995 37.0347 19.2164 37.1192C17.6629 37.2877 15.0085 36.7367 13.5569 35.9444C12.9025 35.5873 12.8464 35.5764 13.1984 35.8749ZM47.4733 36.6993C46.1641 37.2374 44.6798 37.5252 43.0364 37.5595L41.9469 37.5824L43.1202 37.7458C43.9317 37.8586 44.6491 37.8504 45.4461 37.719C46.6337 37.5234 48.2094 36.8795 48.5713 36.442C48.8267 36.1331 48.8825 36.12 47.4733 36.6993ZM13.4553 37.3113C13.5309 37.483 13.7802 38.1727 14.0095 38.8438L14.4264 40.0642L14.7192 39.5809C15.2162 38.7607 16.2863 38.7446 16.7162 39.5506C16.981 40.0474 16.9209 40.9226 16.5467 42.0126C16.2127 42.9858 15.0283 49.4038 15.0598 50.0696C15.0687 50.2555 15.2941 49.2341 15.5606 47.8001C16.5271 42.603 17.2523 40.4448 18.5032 39.0435C18.9422 38.5518 19.0426 38.3631 18.8153 38.4569C18.6309 38.5331 18.0538 38.6312 17.5327 38.6751C16.3449 38.7752 15.1414 38.3957 14.0886 37.5893C13.5542 37.1799 13.3601 37.0946 13.4553 37.3113ZM47.4784 38.3789C46.294 39.0817 45.1122 39.3205 43.9131 39.0993C43.3849 39.0019 42.9417 38.9328 42.9283 38.9458C42.9149 38.9585 43.232 39.3416 43.6328 39.7966L44.3616 40.624L44.6629 40.2596C44.8285 40.0593 45.2014 39.8494 45.4914 39.7932C46.272 39.642 46.7249 40.1592 46.7212 41.1979C46.7197 41.6373 47.6012 47.5423 48.6804 54.3199L50.6422 66.6429L50.3009 67.1038C50.0803 67.4017 49.7726 67.5834 49.4313 67.6173C49.0168 67.6587 48.9026 67.7492 48.9008 68.0379C48.8996 68.2402 48.8545 68.5703 48.8009 68.7714C48.5775 69.6071 50.5995 69.9859 51.4855 69.2744L51.9728 68.8833L51.5388 67.9716C51.0344 66.9124 50.4826 64.1379 49.166 56.0424C46.7444 41.1533 46.7574 41.3125 47.786 39.139C48.1147 38.4443 48.3686 37.8771 48.3502 37.8786C48.3316 37.8802 47.9393 38.1054 47.4784 38.3789ZM15.1775 39.5158C14.7106 40.0575 14.541 40.9397 14.541 42.8269C14.541 44.0179 14.3915 45.6164 14.1302 47.2173C13.9042 48.6018 13.4493 51.5133 13.1194 53.6874C12.393 58.4737 11.4414 64.1928 11.1023 65.8108C10.8354 67.0833 10.9202 67.4929 11.5166 67.8131C11.9625 68.0527 12.0171 68.0359 12.1891 67.6068L12.3407 67.2283L12.3514 67.6009C12.3728 68.3549 11.1584 68.5168 10.9286 67.7903C10.8393 67.5077 10.7166 67.6559 10.26 68.5978C9.95223 69.2323 9.76215 69.8142 9.83758 69.8909C10.0679 70.1252 11.3386 70.3502 11.822 70.2424C12.7994 70.0244 12.8896 69.9748 12.7885 69.7107C12.5311 69.0374 12.7414 66.4623 13.4498 61.6161C13.8739 58.7144 14.196 56.2656 14.1659 56.1744C14.1355 56.0831 13.7361 58.4844 13.2782 61.5109C12.8204 64.5373 12.4243 66.8724 12.398 66.7003C12.3237 66.2125 14.0745 53.8895 14.8803 49.2299C15.4364 46.0139 16.1973 42.2359 16.4695 41.3394C16.7982 40.2561 16.7864 40.0292 16.3783 39.5897C15.9659 39.1454 15.5202 39.118 15.1775 39.5158ZM44.9378 40.4997C44.6924 40.8755 44.6806 41.0351 44.8539 41.6351C45.2049 42.8501 46.9629 52.2846 48.0714 58.9019C48.5495 61.7554 49.0632 65.7252 49.0674 66.5975C49.0704 67.2303 49.115 67.3124 49.4563 67.3124C50.3805 67.3124 50.4243 66.8042 49.8187 63.1013C49.5847 61.6705 48.8321 56.9423 48.1462 52.5941C47.4603 48.2459 46.822 44.2805 46.7278 43.7823C46.6336 43.2839 46.5565 42.3895 46.5565 41.7947C46.5565 40.4512 46.3679 40.0625 45.7163 40.0625C45.3702 40.0625 45.1381 40.1929 44.9378 40.4997ZM14.7988 51.423C14.7341 51.944 14.7158 52.405 14.7584 52.4477C14.8008 52.4905 14.8888 52.0992 14.9537 51.5784C15.0184 51.0575 15.0367 50.5964 14.9941 50.5537C14.9517 50.511 14.8637 50.9022 14.7988 51.423ZM14.5799 53.1828C14.5799 53.5066 14.6144 53.639 14.6565 53.4772C14.6987 53.3154 14.6987 53.0503 14.6565 52.8884C14.6144 52.7266 14.5799 52.859 14.5799 53.1828ZM14.4061 54.2762C14.4094 54.5537 14.447 54.6469 14.4895 54.4832C14.5321 54.3196 14.5293 54.0925 14.4833 53.9786C14.4374 53.8647 14.4027 53.9986 14.4061 54.2762ZM14.2446 55.3695C14.2446 55.6933 14.2792 55.8257 14.3213 55.6639C14.3635 55.5021 14.3635 55.237 14.3213 55.0752C14.2792 54.9133 14.2446 55.0457 14.2446 55.3695ZM51.8365 69.6776C51.0859 70.0105 49.3452 70.1881 48.7947 69.9879C48.1465 69.7523 48.2182 70.0512 48.8813 70.3491C50.3582 71.0126 51.3038 70.9129 52.1737 70.0015C52.4357 69.7272 52.6179 69.475 52.5785 69.4414C52.5392 69.4078 52.2053 69.5141 51.8365 69.6776ZM9.10458 70.3277C8.83404 70.6278 8.84929 70.6651 9.4249 71.1057C10.2208 71.7149 11.3721 71.8349 12.5039 71.4264C13.7041 70.9933 13.4515 70.7477 11.813 70.7548C10.6505 70.7597 10.3523 70.702 9.91167 70.3866C9.40177 70.0216 9.38199 70.0202 9.10458 70.3277ZM52.8591 70.2562C52.362 70.6338 51.1083 71 49.7377 71.1682L48.4841 71.322L49.6078 71.2937C50.226 71.2781 50.6752 71.3217 50.6063 71.3904C50.366 71.6301 48.4452 71.7344 47.8845 71.5383C47.3991 71.3684 47.2898 71.3896 46.9385 71.7208L46.5412 72.0952L47.1773 72.2934L47.8136 72.4915L46.9596 72.5092C46.3354 72.5222 46.0243 72.6169 45.8037 72.8616C45.5088 73.1884 45.517 73.2032 46.1548 73.4917C46.6716 73.7255 47.2688 73.7869 49.0161 73.7866C50.2307 73.7863 51.1984 73.812 51.1667 73.8439C50.9823 74.0288 48.6093 74.1874 47.3974 74.0958C46.148 74.0012 45.92 73.9326 45.5189 73.5299L45.0623 73.0719L43.7141 73.6174C42.9726 73.9173 42.366 74.1304 42.366 74.0909C42.366 73.9953 45.1362 72.6951 45.3399 72.6951C45.4274 72.6951 45.6354 72.5437 45.8022 72.3587C45.9689 72.1736 46.0709 72.0222 46.0283 72.0222C45.8627 72.0222 42.9189 73.2537 42.1504 73.6446C40.6133 74.4263 41.5828 74.8586 44.9044 74.8724C49.0801 74.8897 52.6411 74.3558 56.1998 73.1787C58.2253 72.5089 60.1401 71.5825 60.2628 71.2132C60.299 71.1042 60.1327 70.9403 59.8933 70.849C59.4443 70.6776 56.3116 70.3365 55.2727 70.3457C54.7206 70.3506 54.7051 70.3654 55.0114 70.5978C55.2367 70.7687 55.8297 70.8542 56.939 70.8756L58.5413 70.9065L57.2003 71.0058C56.3036 71.0722 55.9566 71.1516 56.1527 71.2453C56.881 71.5931 56.3234 72.3503 54.9544 72.8722C53.7527 73.3306 53.5201 73.2727 54.5184 72.7639C55.3411 72.3445 56.2496 71.5953 56.1019 71.4582C56.0096 71.3724 53.2864 70.0017 53.223 70.0091C53.1979 70.012 53.0343 70.1232 52.8591 70.2562ZM3.05902 71.1957C1.3042 71.3104 0.796148 71.4441 0.796148 71.7911C0.796148 71.9292 0.870741 71.9958 0.961926 71.9393C1.05328 71.8826 1.0868 71.943 1.03668 72.0742C0.90862 72.4091 3.20535 73.5777 5.03995 74.1112C8.58043 75.1408 13.8509 75.9101 17.1188 75.8742C19.9513 75.8433 20.1843 75.4838 18.061 74.4209C16.7462 73.7627 16.1726 73.5474 16.4348 73.8105C16.6601 74.0367 16.1842 74.5388 15.5866 74.7053C15.242 74.8014 14.5075 74.8695 13.9543 74.8569L12.9486 74.834L14.0381 74.7201C15.2111 74.5975 15.882 74.3279 15.882 73.9789C15.882 73.8589 15.565 73.505 15.1778 73.1926C14.5026 72.6483 14.4212 72.6264 13.2083 72.6648C12.5123 72.687 11.8297 72.6281 11.6915 72.5344C11.4999 72.4044 11.5996 72.3585 12.1105 72.3415C12.7382 72.3208 12.7222 72.31 11.8591 72.1735C10.4367 71.9484 8.95707 71.5109 8.62837 71.2184C8.41885 71.0318 8.27871 71.0063 8.15333 71.1321C7.95554 71.3306 8.56283 71.854 8.99093 71.854C9.12402 71.854 9.18755 71.8996 9.13206 71.9553C9.07658 72.011 8.65821 71.9321 8.20211 71.7802C7.5256 71.5546 7.1803 71.5349 6.32527 71.6732C5.74899 71.7664 5.24361 71.8764 5.20238 71.918C4.98179 72.1392 5.61858 72.7378 6.57938 73.2125C7.17846 73.5084 7.66858 73.7747 7.66858 73.8041C7.66858 73.926 6.20173 73.3259 5.52052 72.9252C4.89949 72.56 4.79875 72.428 4.86714 72.0688L4.9481 71.6443L3.09674 71.7208C1.99027 71.7666 1.39925 71.7402 1.62805 71.6552C1.83875 71.577 3.02281 71.4643 4.25951 71.4049C5.49605 71.3454 6.53681 71.2498 6.57201 71.1926C6.65146 71.0638 5.05688 71.0651 3.05902 71.1957ZM59.7254 72.1896C58.7253 72.778 55.4338 73.8942 53.2923 74.3715C52.4334 74.5627 50.7739 74.8327 49.6046 74.9715C47.1485 75.2628 42.3121 75.3173 41.6408 75.0611C41.2238 74.902 41.1981 74.9143 41.3502 75.1992C41.6045 75.6761 42.7969 75.8911 45.1882 75.8911C49.1323 75.8911 52.6303 75.373 56.027 74.2858C58.0832 73.6278 60.05 72.634 60.4285 72.0621C60.7373 71.5955 60.7343 71.596 59.7254 72.1896ZM15.0491 72.4944C15.0571 72.6715 15.7279 73.1085 16.3848 73.3649C17.7322 73.8904 19.2226 74.7297 19.5498 75.1472C19.8479 75.5272 19.9162 75.5525 20.0068 75.3158C20.2255 74.7435 19.4084 74.2187 16.1753 72.855C15.5531 72.5925 15.0462 72.4302 15.0491 72.4944ZM0.604055 72.8174C1.11949 73.7839 3.36409 74.7388 7.0819 75.5733C12.2327 76.7296 19.4622 77.0823 20.0032 76.2038C20.0622 76.108 19.9137 76.0981 19.6256 76.1787C18.9308 76.3731 15.654 76.2722 12.8648 75.9706C8.0836 75.4535 2.46514 74.0643 1.18285 73.0821C0.725245 72.7316 0.504489 72.6307 0.604055 72.8174ZM12.3306 74.6603C12.4514 74.7089 12.5961 74.7028 12.6518 74.647C12.7074 74.5911 12.6085 74.5514 12.4318 74.5587C12.2366 74.5667 12.1968 74.6066 12.3306 74.6603Z" fill="#1D6235" stroke="#1D6235" stroke-width="0.3"/>
</svg>
