<svg width="84" height="58" viewBox="0 0 84 58" fill="none" xmlns="http://www.w3.org/2000/svg">
<path fill-rule="evenodd" clip-rule="evenodd" d="M23.6809 0.87197C23.4175 1.33304 22.8263 1.92687 22.3674 2.19148C21.4017 2.74826 21.214 4.14008 22.0146 4.80739C22.6963 5.37573 25.899 5.34697 26.2574 4.76944C26.7588 3.96049 26.9155 1.91057 26.5314 1.17836C25.7772 -0.258785 24.4109 -0.405758 23.6809 0.87197ZM28.9068 0.502457C28.9068 1.02576 29.5419 0.934781 29.7242 0.385405C29.7885 0.191613 29.6306 0.0333817 29.3737 0.0333817C29.1168 0.0333817 28.9068 0.244363 28.9068 0.502457ZM24.3611 1.95946C24.2469 2.41727 23.9667 2.70025 23.6278 2.70025C23.3263 2.70025 22.9098 2.9059 22.7022 3.15718C22.1317 3.8479 22.7293 4.23431 24.2015 4.12674C25.3362 4.04377 25.5011 3.9365 25.7117 3.14473C25.8415 2.65581 25.8745 2.02228 25.7852 1.73722C25.5374 0.947823 24.5764 1.09776 24.3611 1.95946ZM32.9968 6.00214C32.2222 6.83539 32.093 6.8825 31.7724 6.45076C31.5754 6.18496 30.9881 5.88361 30.4672 5.78079C29.6728 5.62433 29.3758 5.73931 28.6236 6.49493C27.5965 7.52671 27.5337 7.97978 28.2166 9.42522C29.1498 11.4011 33.3313 14.3059 33.3313 12.9787C33.3313 12.7647 33.7413 12.1979 34.2425 11.7193C35.5424 10.478 36.6296 8.49507 36.6633 7.30476C36.7261 5.07822 34.5687 4.31194 32.9968 6.00214ZM33.6263 6.99688C33.4242 7.24135 33.021 7.44136 32.7299 7.44136C32.4387 7.44136 32.1467 7.60375 32.0809 7.80228C32.0031 8.03638 31.7639 7.93207 31.4008 7.50596C30.7866 6.78532 29.8141 6.64841 29.2608 7.20431C28.5366 7.93177 28.9068 8.84681 30.6029 10.5231L32.2989 12.1994L33.1201 11.228C34.2103 9.93785 35.4008 7.5024 35.1993 6.97465C34.9878 6.42143 34.0911 6.43417 33.6263 6.99688ZM23.6711 8.8228C23.1614 9.02963 23.2074 10.0081 23.7363 10.2122C23.9749 10.3041 24.3675 10.1811 24.6088 9.93904C25.3828 9.1612 24.736 8.39136 23.6711 8.8228ZM38.0508 11.42C38.0508 11.6947 38.303 11.8861 38.6652 11.8861C39.384 11.8861 39.2826 11.1937 38.5425 11.0496C38.2514 10.9927 38.0508 11.1439 38.0508 11.42ZM69.1539 12.8009C68.8501 13.2951 69.5335 13.8617 69.9406 13.4528C70.281 13.1108 70.068 12.4788 69.6123 12.4788C69.4692 12.4788 69.2631 12.6237 69.1539 12.8009ZM40.558 14.5394C34.3717 14.7391 34.3451 14.7539 31.5043 19.653L30.1793 21.9379L28.8272 20.3647C28.0835 19.4995 27.034 18.6111 26.4949 18.391C25.9559 18.1708 25.3533 17.7678 25.1563 17.4958C24.4628 16.5387 22.7915 16.0017 20.5061 16.0017C18.185 16.0017 17.4178 16.2551 16.2232 17.4167C15.8176 17.8111 15.1194 18.4283 14.6717 18.788C13.2632 19.92 13.1328 21.4721 13.1358 37.0733C13.1381 51.6326 13.4145 56.2967 14.3295 57.223C14.6628 57.5605 15.4932 57.6672 17.7818 57.6657C22.8774 57.6627 28.7086 57.1898 29.2271 56.7379C29.8306 56.2116 32.9767 55.8048 38.3676 55.5556C42.1039 55.3831 42.895 55.4293 44.4144 55.91C45.6264 56.2931 46.9762 56.4534 48.8171 56.4327C78.0569 56.1035 77.8026 56.1162 78.3359 54.9232C79.3769 52.5954 78.1758 25.0303 76.9699 23.5706C76.7791 23.3395 76.1302 23.0174 75.5282 22.8544C74.7583 22.6461 74.2217 22.228 73.7191 21.4448C72.2472 19.1516 69.0436 18.6076 67.2387 20.3446C66.7597 20.8056 66.3676 21.358 66.3676 21.5719C66.3676 21.7859 66.0688 21.9533 65.704 21.9435C65.2126 21.9308 64.6958 21.385 63.7129 19.8417C62.1428 17.3758 59.9223 14.964 58.8419 14.5515C58.0505 14.2493 49.7135 14.2437 40.558 14.5394ZM35.7592 16.1318C34.7899 16.6738 31.5615 21.006 31.5615 21.7648C31.5615 21.8727 33.5938 21.961 36.078 21.961C39.9232 21.961 40.7683 21.8768 41.7632 21.3938C46.2721 19.2055 52.1343 19.2583 57.0827 21.5322C58.6339 22.2449 60.4294 22.4224 61.8732 22.0055C62.5375 21.8137 62.5357 21.8057 61.4898 20.2471C60.9119 19.3857 59.871 18.0857 59.1769 17.358L57.9148 16.0346H47.5644C41.8718 16.0346 37.0373 15.9724 36.8214 15.8959C36.6051 15.8198 36.1273 15.9259 35.7592 16.1318ZM18.2142 17.1277C16.968 17.4549 17.9308 17.6682 20.8707 17.7159C23.7735 17.7633 23.9655 17.7331 23.1549 17.3589C22.3184 16.9728 19.3366 16.8332 18.2142 17.1277ZM78.7563 17.3681C78.7563 17.6125 78.9554 17.8125 79.1987 17.8125C79.4421 17.8125 79.6412 17.6125 79.6412 17.3681C79.6412 17.1236 79.4421 16.9236 79.1987 16.9236C78.9554 16.9236 78.7563 17.1236 78.7563 17.3681ZM76.1753 18.7756C76.3611 19.3362 77.2814 19.4159 77.2814 18.8713C77.2814 18.5966 77.0292 18.4052 76.667 18.4052C76.3066 18.4052 76.103 18.5584 76.1753 18.7756ZM16.3412 19.7173C15.838 19.9371 15.3247 20.3653 15.2003 20.6687C14.5233 22.3169 14.8127 52.4656 15.5306 55.1123L15.7218 55.8167L21.7981 55.6018C25.1401 55.4836 27.9408 55.3227 28.0219 55.2439C28.103 55.1653 28.2113 52.7782 28.262 49.9392C28.3337 45.9637 28.4425 44.7776 28.7363 44.7776C29.1522 44.7776 29.3342 46.0606 29.6767 51.4056L29.8831 54.626L32.8608 54.4361C34.4985 54.3318 36.6615 54.1679 37.667 54.0719L39.4958 53.8977L38.0906 52.7817C33.5422 49.1702 30.9866 43.8954 30.976 38.0985C30.9671 33.297 32.9192 28.6051 36.342 25.2004L38.4313 23.1223L34.1554 23.3253L29.8793 23.5282L28.1175 21.6685C26.5783 20.0435 26.1725 19.7783 24.9029 19.5691C22.5361 19.1789 17.368 19.2683 16.3412 19.7173ZM68.8749 20.4599C68.5504 20.5953 68.0321 20.9882 67.723 21.3334L67.1611 21.961L68.9029 21.9643C69.8609 21.966 71.1603 22.0532 71.7903 22.1578C72.6764 22.3047 72.9062 22.2576 72.8041 21.95C72.4531 20.8922 70.0365 19.9757 68.8749 20.4599ZM82.5785 21.235C82.2652 21.6146 82.2844 21.7802 82.69 22.1874C83.1445 22.644 83.2165 22.6446 83.6636 22.1957C84.1996 21.657 84.0197 20.7757 83.3737 20.7757C83.1451 20.7757 82.7873 20.9826 82.5785 21.235ZM46.4574 21.5408C46.1329 21.6196 45.2701 21.8321 44.5401 22.0132C40.4503 23.0275 36.1199 26.5821 34.1354 30.5543C30.8105 37.2078 31.9895 44.3524 37.2933 49.6914C40.5533 52.9732 44.2852 54.5457 48.8289 54.5525C53.4947 54.5594 57.3248 52.9726 60.6193 49.6674C64.0802 46.1955 65.6954 41.9261 65.3836 37.0733C64.8294 28.4427 58.1805 21.8878 49.5967 21.5097C48.1944 21.4481 46.7818 21.462 46.4574 21.5408ZM61.6482 23.413L60.3208 23.5908L61.2756 24.275C61.8007 24.651 62.8316 25.7441 63.5666 26.7036C70.3025 35.4978 68.2549 47.6308 58.9973 53.7777L57.3791 54.8524H66.3072C74.5365 54.8524 75.2509 54.8118 75.4367 54.3339C75.7945 53.4132 75.6662 37.0878 75.2736 33.5598C74.8662 29.9 73.7525 26.7877 72.5894 26.0579C71.8175 25.5737 71.7868 24.9242 72.5357 24.9242C73.9336 24.9242 75.5972 28.3689 76.1729 32.4563C76.3685 33.8422 76.5175 39.0011 76.5272 44.7035C76.5396 51.8863 76.6354 54.5561 76.8811 54.5561C77.492 54.5561 77.5764 53.6832 77.5764 47.3555C77.5764 40.4442 77.1248 31.2714 76.5812 27.1466C76.2656 24.7497 76.1541 24.4433 75.481 24.1185C73.8344 23.3244 65.4892 22.8989 61.6482 23.413ZM79.7559 24.0453C78.9038 24.3692 78.7135 25.0273 79.2495 25.796C79.5577 26.2381 79.9432 26.4111 80.481 26.3486C81.1213 26.2742 81.28 26.0864 81.3543 25.3141C81.4596 24.2222 80.7576 23.6651 79.7559 24.0453ZM46.8998 24.539C44.1652 25.0095 40.7503 26.9237 38.9206 29.0119C31.8547 37.0759 36.4718 49.5388 47.1662 51.269C55.0052 52.5373 62.5331 45.9726 62.5331 37.8686C62.5331 29.8656 54.7099 23.1955 46.8998 24.539ZM28.3169 32.3322C28.3169 38.3626 28.3912 39.7401 28.716 39.7401C29.1858 39.7401 29.4967 36.7897 29.4967 32.3322C29.4967 27.8746 29.1858 24.9242 28.716 24.9242C28.3912 24.9242 28.3169 26.3018 28.3169 32.3322ZM79.9361 25.2205C79.9361 25.3835 80.0689 25.5168 80.2311 25.5168C80.3933 25.5168 80.5261 25.3835 80.5261 25.2205C80.5261 25.0575 80.3933 24.9242 80.2311 24.9242C80.0689 24.9242 79.9361 25.0575 79.9361 25.2205ZM47.2461 26.4215C43.5012 26.9492 39.3498 30.2461 38.0561 33.7189C36.7733 37.1636 37.0609 41.3989 38.7776 44.3417C39.7663 46.0363 41.9048 48.0424 43.7292 48.9862C49.6849 52.0667 57.0163 49.5012 59.9881 43.296C60.8414 41.5148 60.9108 41.1358 60.9108 38.2585C60.9108 35.3887 60.8397 34.9979 59.9946 33.2211C57.6918 28.3813 52.6018 25.6662 47.2461 26.4215ZM45.3197 29.8298C42.4561 30.8847 40.707 32.8783 40.11 35.7677C39.7321 37.5954 40.1368 40.3283 40.8763 40.945C41.5429 41.5006 41.6765 41.1005 41.3459 39.5383C40.5132 35.6026 42.7806 32.16 46.6396 31.5013C47.6956 31.3211 47.9505 31.1525 48.0316 30.5806C48.2041 29.3684 47.2726 29.1106 45.3197 29.8298ZM80.5904 31.1925C80.7435 31.6542 81.4033 31.7348 81.4266 31.295C81.4352 31.1321 81.2207 30.9528 80.9502 30.8962C80.6426 30.8325 80.5078 30.9433 80.5904 31.1925ZM47.9322 32.9861C44.6542 34.137 43.0629 37.8973 44.5047 41.0857C46.4512 45.3907 52.539 45.6105 54.861 41.46C55.696 39.9674 55.7963 37.4034 55.0742 36.0059C53.7363 33.4176 50.5453 32.0684 47.9322 32.9861ZM48.7967 33.8075C46.3447 34.3649 44.8262 36.2631 44.8474 38.7433C44.8849 43.1164 49.789 45.4487 52.9968 42.6192C54.9155 40.9272 55.3418 38.8444 54.2383 36.5547C53.2401 34.4831 50.9373 33.3207 48.7967 33.8075ZM81.5425 39.1733C81.2895 39.5849 81.8505 40.1648 82.2572 39.9123C82.5962 39.7019 82.3791 38.8512 81.9868 38.8512C81.8514 38.8512 81.6517 38.9961 81.5425 39.1733ZM7.68065 43.1339C7.1798 43.7402 7.19455 45.0721 7.70602 45.4067C8.34492 45.8245 9.48231 45.575 9.91061 44.9231C10.7766 43.6039 8.68148 41.9225 7.68065 43.1339ZM8.25908 44.3577C8.25908 44.6158 8.41659 44.7743 8.6095 44.7097C9.15637 44.5266 9.24693 43.8886 8.72602 43.8886C8.4691 43.8886 8.25908 44.0996 8.25908 44.3577ZM3.11781 45.9294C3.02902 46.0737 3.14199 46.3469 3.36912 46.5362C3.82897 46.9197 4.29974 46.479 3.98206 45.9628C3.75641 45.596 3.33313 45.5794 3.11781 45.9294ZM8.98855 48.9391C8.75729 49.3148 9.36699 50.1113 9.88583 50.1113C10.3209 50.1113 10.589 49.5353 10.4032 49.0001C10.2475 48.5512 9.25343 48.5085 8.98855 48.9391ZM0 51.4448C0 51.6892 0.199103 51.8892 0.442451 51.8892C0.685799 51.8892 0.884902 51.6892 0.884902 51.4448C0.884902 51.2003 0.685799 51.0003 0.442451 51.0003C0.199103 51.0003 0 51.2003 0 51.4448ZM6.01439 51.4228C5.74597 52.1254 6.12559 52.8348 6.70962 52.7219C7.03615 52.6588 7.2267 52.3518 7.2267 51.8892C7.2267 51.0444 6.29579 50.6865 6.01439 51.4228Z" fill="#1D6235"/>
</svg>
