<svg width="405" height="61" viewBox="0 0 405 61" fill="none" xmlns="http://www.w3.org/2000/svg">
<path fill-rule="evenodd" clip-rule="evenodd" d="M393.586 57.8352C406.381 51.011 407.774 31.0174 396.231 19.9008C385.14 9.21768 359.19 8.15439 330.676 17.212C328.301 17.9674 328.254 17.6517 330.177 13.8305C333.924 6.37648 328.985 -0.807387 321.452 1.14328C317.088 2.27253 314.55 7.79158 317.158 10.482C318.375 11.7369 318.831 11.3176 318.831 8.9444C318.831 4.08972 322.474 1.53437 326.347 3.67351C332.526 7.08326 328.574 14.6503 318.238 19.2003C312.453 21.7457 82.4398 24.4573 61.454 23.606C61.275 23.5987 61.1103 23.5912 60.96 23.5834C60.8952 23.58 39.1856 23.9124 36.0083 23.606C32.831 23.2995 23.2995 20.1223 19.0632 14.827C14.827 9.53162 0 1.06953e-05 0 1.06953e-05C0 1.06953e-05 1.05907 13.7679 16.9451 18.0042C22.3645 19.4494 28.5219 19.9743 36.0083 21.1814C45.8878 22.7743 51.4465 24.683 61.426 26.4767C140.467 40.6837 243.586 17.8151 280.653 17.8151C317.72 17.8151 337.506 22.1138 342.398 24.4131C346.365 26.2774 348.874 32.0116 347.054 35.0491C345.558 37.5479 338.655 37.0422 337.658 34.3628C337.177 33.0717 336.126 32.4356 335.322 32.9477C333.009 34.4224 338.703 39.8504 342.561 39.8504C344.464 39.8504 347.099 38.74 348.416 37.383C353.369 32.2723 350.29 25.2408 341.178 20.8589L334.82 17.7994L340.577 18.525C343.744 18.9239 350.041 21.0583 354.567 23.2681C364.006 27.8747 370.603 28.5249 370.603 24.8497C370.603 21.4698 361.477 17.8716 352.76 17.8151C341.186 17.7381 353.36 8.41238 367.497 7.41349C386.369 6.07849 391.92 17.87 391.92 29.6604C391.92 35.0318 387.444 40.8619 386.213 37.0924C385.533 35.0036 382.784 35.9396 382.784 38.261C382.784 40.3781 387.332 44.5622 389.636 44.5622C395.939 44.5622 398.516 33.689 394.224 25.2015C392.654 22.0949 392.532 20.9515 393.824 21.396C394.836 21.7447 397.288 25.2785 399.269 29.2505C403.502 37.7333 407.278 47.8516 401.387 55.0716C394.865 63.0674 379.57 56.7326 376.85 46.9164C375.724 42.8471 375.386 42.6052 374.365 45.1386C372.663 49.3697 375.376 55.9583 379.765 58.2483C384.779 60.8648 388.091 60.7675 393.586 57.8352Z" fill="#D4AF37"/>
</svg>
