<svg width="76" height="102" viewBox="0 0 76 102" fill="none" xmlns="http://www.w3.org/2000/svg">
<path fill-rule="evenodd" clip-rule="evenodd" d="M31.5389 0.199092C31.2125 0.282975 29.7556 0.715442 28.3013 1.15998C24.4661 2.33255 23.4803 2.90963 22.6943 4.44265C22.1393 5.52521 22.2746 7.0246 23.0252 8.10755C23.5529 8.86901 23.5703 8.96318 23.3693 9.96344C23.142 11.0954 23.2913 12.1711 23.8148 13.1751C23.9814 13.4944 24.1181 14.2375 24.1189 14.8264C24.1197 15.6271 24.2528 16.1234 24.6459 16.7945C25.0123 17.4194 25.0978 17.7162 24.9282 17.7728C24.7632 17.8278 24.8255 18.0038 25.1215 18.319C25.496 18.7176 25.5393 18.9188 25.425 19.7319C25.0169 22.6381 25.0101 22.536 25.6521 23.2152C26.2116 23.8069 27.0265 25.9137 27.6841 28.4677C27.8063 28.9427 28.1314 29.5562 28.4064 29.8312C28.8871 30.312 28.9738 30.3266 30.6799 30.2162L32.4535 30.1013L32.8379 30.9978C33.0492 31.4909 33.2797 32.1233 33.3499 32.4031C33.4611 32.8462 33.429 32.8917 33.1018 32.755C32.1316 32.3501 31.8485 32.3918 31.6238 32.9728C30.9877 34.6176 29.9534 42.4177 29.6638 47.7521C29.4711 51.3027 29.6923 56.2829 30.1481 58.6661C30.4995 60.5018 30.5383 61.8512 30.2449 62.0324C30.0255 62.1681 30.1167 62.6493 30.5442 63.6102C30.6894 63.9366 30.906 64.4531 31.0255 64.758C31.3822 65.6673 33.6332 66.2989 34.1608 65.638C34.2694 65.5021 35.2707 63.2095 36.3859 60.5437C37.5013 57.8779 38.5933 55.2718 38.8129 54.7523C39.0325 54.233 39.2492 53.845 39.2945 53.8903C39.3398 53.9356 39.0575 56.0076 38.6671 58.4945C38.2768 60.9817 37.7998 64.1295 37.6073 65.4896C37.3361 67.4046 37.1923 67.9534 36.9699 67.9222C36.2658 67.8235 34.5112 67.0671 34.5559 66.8818C34.583 66.769 34.4447 66.6766 34.2485 66.6766C33.7794 66.6766 31.9403 67.5981 31.6064 68.0005C31.4155 68.2306 31.5759 68.198 32.1983 67.8804C33.5584 67.1866 33.5992 67.5142 32.2426 68.2373C31.5682 68.5968 30.9577 68.832 30.8857 68.7602C30.8138 68.6882 30.9092 68.3608 31.0975 68.0326C31.6078 67.1437 31.5355 66.8618 30.4196 65.3877L29.3991 64.0399L29.4422 61.7365L29.4854 59.4331L28.4899 58.5019C27.3023 57.391 26.8108 57.1805 25.405 57.1805H24.3418L24.2803 56.4539C24.203 55.5385 23.9743 55.4657 23.0808 56.0721L22.3674 56.5562L22.1571 55.9526C21.9708 55.4182 21.9089 55.3804 21.6166 55.622C21.3203 55.8667 21.2967 55.8406 21.387 55.3658C21.4641 54.9606 21.3986 54.8134 21.1074 54.7375C20.794 54.6554 20.7646 54.5683 20.9398 54.2407C21.0568 54.0221 21.1509 53.6816 21.1492 53.4842C21.1468 53.229 21.0229 53.3168 20.722 53.7869C20.3192 54.4162 20.3145 54.4761 20.6265 55.0043C20.8069 55.31 20.9547 55.8493 20.9547 56.203C20.9547 56.8135 20.9731 56.8296 21.3165 56.5188C21.8082 56.0738 21.9439 56.1065 21.9439 56.6697C21.9439 57.2767 21.7555 57.774 21.5256 57.774C21.3114 57.774 20.4464 56.8084 20.4927 56.6207C20.5107 56.5477 20.433 56.3769 20.3202 56.2408C20.1754 56.0665 20.1845 55.9935 20.3507 55.9935C20.6577 55.9935 20.5355 55.159 20.2128 55.0528C20.068 55.0051 19.9655 55.1422 19.9655 55.3836C19.9655 55.618 19.8375 55.7957 19.6688 55.7957C19.4842 55.7957 19.372 55.9824 19.372 56.2903C19.372 56.5623 19.2745 56.7849 19.1552 56.7849C18.6746 56.7849 17.7685 56.0667 17.5389 55.5039C17.4045 55.1747 15.0014 57.1886 15.0014 55.3658C14.8849 53.7184 15.573 51.5015 15.6841 50.1574C15.9488 46.9536 17.5329 38.9059 18.056 38.1074C18.2515 37.8093 19.392 37.3173 21.9678 36.4203C23.9677 35.7241 26.5307 34.7682 27.6635 34.2962C28.7963 33.8243 29.7613 33.4763 29.808 33.5228C29.9044 33.6194 28.609 35.5811 27.3802 37.1992C26.9258 37.7976 26.4082 38.7324 26.2302 39.2765C25.462 41.6232 24.6954 47.8949 24.7429 51.4433L24.768 53.3227L24.9312 51.3444C25.3886 45.8052 26.4858 39.3774 27.1234 38.5017C27.3545 38.1846 28.2542 36.8937 29.1225 35.6331C29.991 34.3727 31.0113 32.9582 31.3897 32.4897C31.7682 32.0214 32.0329 31.5933 31.9783 31.5385C31.9235 31.4839 31.4352 31.712 30.893 32.0456C29.4428 32.938 26.3507 34.2465 22.4877 35.6027C18.3708 37.0478 17.7709 37.3371 17.4354 38.0382C17.0229 38.9004 16.2525 42.5508 15.7128 46.2007C15.4394 48.0504 15.1239 50.1257 15.0117 50.8124C14.8125 52.0309 14.1924 54.4108 14.1924 54.4108C14.1924 54.4108 13.8941 55.9526 13.9946 56.6207C13.9952 56.9803 13.9946 56.7333 13.9946 56.7566C13.9946 56.8789 13.7453 56.8353 13.32 57.0959C12.8947 57.3562 12.0772 57.7932 11.5033 58.067C10.1712 58.7023 9.88814 59.3065 10.4767 60.2586L10.8858 60.9208L10.0616 61.3412C8.93497 61.9159 7.55665 63.3813 7.31113 64.2652C7.19955 64.6666 7.10795 65.5179 7.10736 66.1567C7.10637 67.167 7.06739 67.2863 6.80942 67.0723C6.32452 66.6699 6.46755 65.5385 7.22626 63.7716L7.94005 62.1102L7.42409 61.3657C6.8015 60.4674 6.78884 60.3459 7.31707 60.3459C8.12384 60.3459 8.54285 60.7293 8.41822 61.3533C8.29002 61.9939 8.42831 62.0641 8.99728 61.6472C9.37634 61.3695 9.37614 61.359 8.97354 60.8189C8.74939 60.518 8.33988 60.1965 8.06389 60.1045C7.38215 59.8774 6.51266 60.2254 6.51266 60.7255C6.51266 60.9396 6.31245 61.263 6.06753 61.4441L5.6224 61.7735L6.1706 61.6484C6.81594 61.501 7.50184 61.8128 7.50184 62.2534C7.50184 62.4698 7.39659 62.5229 7.15563 62.4275C6.96531 62.3521 6.49782 62.2489 6.11699 62.1978L5.42456 62.1048L5.9971 62.4336L6.56964 62.7624L5.99374 63.1271C5.31299 63.5581 3.74296 63.8584 3.74296 63.5577C3.74296 63.4466 3.88916 63.2996 4.068 63.2309C4.24685 63.1625 4.33865 63.0519 4.27197 62.9852C4.2055 62.9185 3.91389 63.0194 3.62406 63.2093C3.21058 63.4804 3.15618 63.5918 3.37063 63.7277C3.78747 63.9916 4.98418 63.9402 5.89423 63.6189C6.87272 63.2738 6.94573 63.4614 6.31483 64.6983C5.83784 65.6334 5.81964 66.108 6.23055 66.9027C6.40168 67.2337 6.50435 67.5421 6.45865 67.5878C6.41295 67.6335 6.02876 67.5261 5.6048 67.3489C4.87399 67.0436 2.90769 67.0501 2.59907 67.3589C2.42774 67.5303 3.12413 68.0258 4.33647 68.5958L5.42456 69.1072L3.91349 69.3701C2.05463 69.6936 0.194576 70.3702 0.0372966 70.7801C-0.180916 71.3487 0.570063 71.6585 1.98419 71.5833C3.07744 71.5251 3.41376 71.4171 4.03437 70.9251C5.58916 69.6922 5.57829 69.6831 4.73511 71.5172C4.29829 72.4672 3.9408 73.2801 3.9408 73.3239C3.9408 73.3674 4.16633 73.403 4.44172 73.403C4.77646 73.403 5.00218 73.5508 5.12168 73.8481C5.25878 74.1892 5.30349 74.2123 5.31319 73.947C5.32248 73.6869 5.4948 73.6008 6.0064 73.6008C6.84562 73.6008 7.05216 73.8675 6.43195 74.15C5.85308 74.4137 4.5343 75.5588 4.5343 75.7976C4.5343 76.0342 6.19869 76.0148 7.28066 75.7653C7.75744 75.6553 8.18279 75.6007 8.22592 75.6439C8.26905 75.6868 8.21504 75.957 8.10584 76.2441C7.86626 76.8742 7.98535 76.8902 8.88669 76.349C10.2626 75.523 10.4694 75.2158 10.4694 73.9965C10.4694 73.0687 10.5511 72.8018 10.9497 72.4273L11.4299 71.976L11.0724 73.3662C10.8324 74.299 10.7804 74.8219 10.9139 74.9554C11.2718 75.3133 10.8785 76.0613 9.9926 76.7082C9.39137 77.1472 9.01746 77.6208 8.77887 78.2458C8.58915 78.7426 8.48469 79.1998 8.54662 79.2617C8.76898 79.4841 10.1657 78.8312 10.7837 78.2161L11.414 77.589L12.0535 78.4794C12.8844 79.6364 13.1077 79.4008 13.0102 77.4699C12.9461 76.2022 12.9817 75.9723 13.2349 76.0202C13.4454 76.0601 13.5655 76.4034 13.6348 77.1636L13.7337 78.25L14.6946 76.964C15.5882 75.7683 15.6481 75.6158 15.55 74.7878C15.4918 74.2982 15.3472 73.6428 15.2285 73.3314L15.0125 72.7652L14.6222 73.2613C14.4075 73.5344 14.0561 74.1676 13.8413 74.6685C13.2814 75.9747 12.4404 75.8352 11.8728 74.3423C11.6489 73.7532 11.8542 73.6186 12.2499 74.0954C12.7481 74.6957 13.8326 74.3342 13.8326 73.5682C13.8326 73.3761 14.0997 72.9147 14.4261 72.543C15.1951 71.667 15.1933 71.3821 14.4233 72.1196C13.8573 72.6621 13.8096 72.6736 13.4836 72.3473C13.1821 72.0458 13.1764 71.9788 13.4369 71.7978C13.6682 71.6369 13.6247 71.6132 13.2391 71.6899C12.9671 71.7442 12.5443 71.8504 12.2994 71.9264C11.6835 72.1173 11.7116 71.6276 12.351 71.027C12.7575 70.6452 12.8252 70.4412 12.7245 69.9045C12.5708 69.0845 12.8776 69.0449 13.1799 69.8459C13.3495 70.2946 13.6769 70.5633 14.4959 70.9255C15.5585 71.3956 15.5896 71.4322 15.713 72.3559C15.9031 73.7795 16.1886 74.3589 17.0348 75.0391L17.8026 75.6559L16.3121 77.1551C14.9409 78.5344 14.8218 78.7194 14.8218 79.4688C14.8218 79.9561 14.9638 80.4588 15.1751 80.7197L15.5284 81.1562L16.735 80.3547C17.7428 79.6854 18.0546 79.5717 18.6271 79.6647C19.2737 79.7695 19.331 79.7321 19.629 79.013L19.9451 78.25L19.9552 79.6465C19.9621 80.5896 20.064 81.1676 20.269 81.427C20.5464 81.778 20.5675 81.6468 20.5163 79.8985C20.4854 78.8468 20.5155 77.9308 20.5833 77.863C20.7796 77.6665 21.1699 80.6099 21.2902 83.1958C21.3711 84.9326 21.4831 85.664 21.7073 85.9208C21.9445 86.1924 22.0497 86.2148 22.1736 86.0197C22.2832 85.847 22.3344 85.9042 22.3366 86.2011C22.3382 86.4395 22.4345 86.6934 22.5506 86.765C22.6933 86.8532 22.7429 86.5159 22.7036 85.7224C22.6602 84.847 22.7338 84.428 22.9936 84.0705C23.1851 83.8069 23.5639 83.2853 23.8356 82.9108C24.5106 81.9803 24.6178 81.4141 24.3561 80.166C24.1699 79.2783 24.1812 79.0508 24.423 78.809C24.5828 78.6492 24.7136 78.3315 24.7136 78.103C24.7136 77.7896 24.8621 77.9119 25.3188 78.6013C26.244 79.9982 28.1116 81.6232 29.3071 82.0717C30.1849 82.4011 30.3624 82.4179 30.4178 82.1772C30.4951 81.8399 29.7437 79.284 29.334 78.4915C29.0547 77.951 29.0584 77.9437 29.5588 78.0693C30.6471 78.3425 30.744 78.2953 30.8103 77.4586C30.8682 76.7262 31.2422 75.9416 31.2422 76.5521C31.2422 76.6956 31.4869 77.1106 31.7862 77.4746C32.0855 77.8387 32.5358 78.4051 32.7873 78.7333C33.0646 79.0957 33.6368 79.4676 34.2435 79.6803C34.8748 79.9015 35.3021 80.185 35.404 80.4501C35.4927 80.6807 35.7534 82.8619 35.9833 85.297C36.617 92.0096 37.2336 95.9908 38.1943 99.5687C38.8956 102.181 38.9138 101.429 38.2303 98.0774C37.3143 93.5845 35.8691 80.9759 36.2288 80.6161C36.2941 80.5508 36.69 80.6709 37.1086 80.8827C37.5272 81.0946 38.1528 81.3293 38.499 81.4038C39.2796 81.5724 39.4118 81.7382 39.849 83.0969C40.467 85.0183 40.8459 85.6013 41.5696 85.7453C42.0313 85.8371 42.6136 86.286 43.5612 87.2809L44.9004 88.6867L46.2504 88.5536L47.6004 88.4206L48.3017 89.8639C49.0207 91.3433 49.9167 92.4185 50.8198 92.8856C51.6016 93.2898 53.4473 93.5784 56.1368 93.7171C58.3708 93.832 58.5904 93.8777 58.7342 94.2566C58.8205 94.4841 59.0405 96.0502 59.2229 97.7367C59.4051 99.4232 59.6496 100.892 59.7659 101.001C59.9768 101.198 59.9525 100.368 59.6089 95.6398L59.4781 93.8399L60.7201 93.7274C62.2407 93.5895 71.0709 93.8975 73.3751 94.1688C74.3423 94.2827 75.1241 94.2924 75.2248 94.1917C75.3257 94.0908 75.2446 93.9695 75.0333 93.9044C74.3621 93.6977 69.5758 93.4031 64.9732 93.2856C59.1552 93.1368 59.137 93.1341 59.137 92.3884C59.137 91.8598 59.2785 91.7354 60.6703 91.0404C64.3915 89.1817 65.9355 89.0917 69.3998 90.5316C71.846 91.5482 74.3643 92.3952 74.9417 92.3952C75.6545 92.3952 75.2519 92.1079 73.9747 91.7049C73.3763 91.5162 71.6403 90.86 70.1169 90.2467C67.4351 89.1671 67.2906 89.1323 65.5667 89.1513C63.6918 89.172 62.489 89.5163 60.149 90.7021C59.5707 90.9951 59.0543 91.1913 59.0013 91.1383C58.7918 90.9288 57.9512 86.5782 58.094 86.4433C58.1781 86.3642 59.6267 85.938 61.3132 85.4967C65.1352 84.496 66.9116 83.893 68.4442 83.0761C69.8449 82.3297 70.2449 81.8329 70.7413 80.224C71.0568 79.2008 71.1045 78.3609 71.0948 73.9965C71.0887 71.2219 70.9793 68.0169 70.8521 66.8744C70.7247 65.7319 70.5266 63.1057 70.4121 61.0383C70.2975 58.9709 70.0696 56.171 69.906 54.8164C69.4856 51.3377 68.3267 44.6944 67.8339 42.9378C66.9672 39.848 65.5829 38.0976 63.2372 37.1242C62.5598 36.8433 60.0471 35.8043 57.6533 34.8157C52.4417 32.663 52.0335 32.4353 49.9661 30.527C47.712 28.4464 46.6852 27.6254 46.5305 27.7801C46.4575 27.8531 47.5502 29.0302 48.959 30.3958L51.5203 32.8787L53.9933 33.9294C55.3534 34.5072 57.7571 35.5148 59.3349 36.1683C60.9126 36.8219 62.8091 37.6461 63.5492 38.0002C65.6213 38.9912 66.4611 40.2282 67.3494 43.5974C68.2553 47.0338 70.184 59.4079 69.7414 58.9446C69.6981 58.8993 69.4279 57.2963 69.1408 55.3826C68.5101 51.1764 67.5462 46.3206 67.2916 46.066C67.1895 45.9639 67.2716 46.8427 67.474 48.0188C68.0654 51.4564 69.7691 62.9619 70.149 66.0831C70.3988 68.1372 70.5001 70.4404 70.5053 74.1943C70.5124 79.2571 70.497 79.471 70.0568 80.4261C69.8061 80.9702 69.3667 81.66 69.0803 81.9592C68.1223 82.9596 63.9072 84.3393 57.8511 85.6351C52.0217 86.8823 48.5202 87.5169 48.183 87.3878C48.0137 87.3227 47.6048 86.7339 47.2744 86.0791C46.7705 85.0814 46.6728 84.6557 46.6702 83.4489C46.6641 80.5878 46.2917 77.3605 45.807 75.9667C45.5473 75.2203 45.3839 74.5605 45.4436 74.5008C45.5034 74.441 46.0296 74.3922 46.613 74.3922C48.0778 74.3922 52.8197 73.881 56.9608 73.2768C61.1375 72.6672 62.161 72.7191 64.0641 73.6374C65.0009 74.0893 65.3477 74.1918 65.1313 73.9526C64.955 73.7579 64.8584 73.5508 64.9166 73.4926C65.1942 73.2151 67.2568 75.482 68.0284 76.9124C68.7855 78.3162 69.0029 78.2959 68.5301 76.8651C68.445 76.6075 68.6108 76.711 69.0055 77.1619C69.3388 77.5427 69.614 77.7831 69.617 77.696C69.6421 76.9484 67.2441 74.2175 65.685 73.2184C65.1847 72.8977 64.3302 72.5236 63.7862 72.3869C63.2421 72.2502 62.7186 72.0731 62.6229 71.9932C62.323 71.7432 63.9009 71.5236 65.9978 71.5236C67.4299 71.5236 67.9156 71.4664 67.6794 71.3257C67.4968 71.2169 66.4124 71.1384 65.2699 71.151C63.6265 71.1694 62.8445 71.2832 61.5257 71.6951C58.9148 72.511 59.142 72.8103 59.106 68.5066L59.0747 64.7972L58.9283 68.0615C58.7708 71.5738 58.6084 72.3038 57.9366 72.5169C57.1636 72.7624 57.0851 72.3543 56.7565 66.3799C56.1926 56.131 58.0723 44.0579 60.8762 39.9168C61.786 38.5732 61.8139 38.4422 61.0335 39.1775C59.155 40.9478 57.7162 45.8074 56.6403 54.0152C56.2453 57.0286 56.1455 64.8957 56.4393 69.8655L56.6105 72.7579L55.7469 72.8849C53.0221 73.2861 47.5913 73.8283 45.2349 73.9348C42.0842 74.0768 42.2288 74.1415 40.5909 71.8563L39.6951 70.6062L40.2461 68.7899C41.1773 65.7201 43.7151 58.3604 44.2091 57.2967L44.6768 56.2903L44.586 57.3784C44.4904 58.524 44.5205 58.494 45.132 56.8343C45.4486 55.9753 45.5971 55.7957 45.9906 55.7957C46.6769 55.7957 47.1274 56.5694 46.9602 57.4609C46.7936 58.3481 46.9193 58.3572 47.4283 57.4945C47.8265 56.8197 47.8275 56.8195 49.0306 56.9285C50.4386 57.0561 50.5349 56.8871 49.7301 55.7011C49.4526 55.2924 49.2717 54.9119 49.3279 54.8558C49.3841 54.7996 50.2326 54.6795 51.2137 54.5891C52.9018 54.4332 54.004 54.0824 54.2974 53.6078C54.5336 53.2254 54.2815 53.2288 53.4878 53.6187C52.5481 54.0803 49.683 54.3669 49.1257 54.0551C48.7777 53.8603 48.7908 53.83 49.3075 53.6333C49.6138 53.517 50.2148 53.4217 50.6429 53.4217C51.6299 53.4217 51.6545 53.1138 50.6821 52.9312C49.9861 52.8009 49.9653 52.7761 50.3262 52.5122C50.5743 52.3308 50.9579 52.2718 51.4117 52.3454C51.7979 52.408 52.3809 52.5019 52.7074 52.5542L53.3009 52.6493L52.8678 52.2716C52.5295 51.9767 52.4862 51.8392 52.67 51.6439C52.852 51.4504 52.8492 51.3733 52.6579 51.3032C52.2327 51.1473 52.3843 50.9388 53.1151 50.6745C53.9088 50.3875 54.4072 49.6019 54.0329 49.2276C53.7112 48.9059 52.9175 49.3016 52.4834 49.9999C52.0357 50.7204 51.3927 51.4433 51.1998 51.4433C51.116 51.4433 51.0202 51.0413 50.9872 50.5499L50.9268 49.6565L49.8894 50.3564C48.4582 51.3222 47.9526 51.4959 47.6461 51.1268C47.5116 50.9645 47.2821 50.8775 47.1363 50.9335C46.9905 50.9895 46.8712 50.9535 46.8712 50.8536C46.8712 50.7537 47.4087 50.5661 48.0657 50.4369C48.7791 50.2965 49.2282 50.1133 49.1811 49.9819C49.1376 49.8608 49.2373 49.4167 49.4029 48.9949C49.6888 48.2663 49.6832 48.2121 49.2913 47.9068C48.8927 47.5964 48.8873 47.5289 49.1348 45.9039C49.2757 44.979 49.5859 43.572 49.8243 42.7773C50.5037 40.5115 51.2224 36.865 51.3528 35.023C51.5027 32.9038 51.1767 33.0921 50.839 35.3198C50.3268 38.6978 48.2873 46.4864 47.5494 47.8823C47.2993 48.3551 47.2928 48.3442 47.4016 47.6385C47.4898 47.066 47.4423 46.8721 47.1907 46.7756C46.6387 46.5637 46.2779 47.0678 46.2747 48.0548C46.2729 48.5585 46.1853 49.1039 46.0798 49.2671C45.9461 49.4743 45.8872 49.1409 45.885 48.164C45.8824 46.9226 45.9382 46.7113 46.3792 46.2972C46.7151 45.9817 46.8114 45.765 46.6759 45.6295C46.5657 45.5193 46.4755 45.0962 46.4755 44.689C46.4755 43.8888 46.1993 43.5267 45.995 44.0593C45.8897 44.3333 45.7374 44.2603 45.0839 43.6223L44.2993 42.8561V44.1371C44.2993 45.2746 44.3672 45.5005 44.9057 46.1538C45.4759 46.8454 45.5338 47.2888 45.0545 47.2888C44.9385 47.2888 44.4912 46.8882 44.0601 46.3985C43.6293 45.9089 43.195 45.5083 43.0955 45.5083C42.7166 45.5083 42.9386 46.466 43.5212 47.3458C44.0566 48.1539 44.1124 48.3678 43.9935 49.1601C43.9193 49.6543 43.816 50.0585 43.764 50.0585C43.712 50.0585 43.4429 49.8804 43.1663 49.6628C42.5291 49.1617 42.2476 49.1559 42.5119 49.6497C42.6245 49.8602 42.7166 50.1987 42.7166 50.4021C42.7166 50.6055 43.0727 51.5082 43.508 52.4082C43.9432 53.3083 44.2993 54.2989 44.2993 54.6097C44.2993 54.9205 43.7761 56.6276 43.1364 58.4033C42.4968 60.1789 41.3634 63.479 40.6176 65.7369C39.1849 70.0746 39.1878 70.0701 38.1126 69.6613C37.5595 69.451 37.5234 69.915 38.6883 62.2253C39.8953 54.2577 40.4914 51.8303 43.0199 44.5873C44.6823 39.8254 47.2178 31.7322 47.3968 30.6166C47.5027 29.9576 47.4099 29.7145 46.6043 28.5394C46.1024 27.8074 45.4268 26.8969 45.1029 26.5161C44.3963 25.6852 43.9023 23.9312 43.9072 22.2706C43.91 21.3467 44.0726 20.6942 44.624 19.394C45.0163 18.4692 45.7898 16.4216 46.3432 14.8438C47.3134 12.0775 47.3496 11.8975 47.3575 9.79904C47.3652 7.76193 47.3262 7.53917 46.7458 6.31417C45.537 3.76309 43.1238 2.01403 39.2878 0.908726C36.3129 0.0515071 33.217 -0.23199 31.5389 0.199092ZM32.4292 0.672116C32.4292 0.711881 32.9513 0.93484 33.5893 1.16749C35.2699 1.78039 36.4472 2.90824 37.4123 4.83041C38.5265 7.04972 39.2438 8.03929 40.1942 8.66782C40.9517 9.16893 41.1431 9.20395 42.9995 9.18199C45.0462 9.15785 45.0711 9.35272 43.054 9.60476C41.4432 9.80596 40.0678 9.42592 39.1791 8.53408C38.7852 8.13881 38.0202 6.9789 37.4789 5.95629C36.0233 3.20678 35.6001 2.70289 34.1436 1.98594C32.7667 1.30816 30.9155 1.01793 30.0575 1.34555C29.6001 1.52024 29.6425 1.55584 30.6603 1.85181C31.8871 2.2085 33.8122 3.39255 34.6918 4.33167C35.4511 5.1422 35.2236 5.11925 34.1155 4.27351C32.6895 3.18502 30.8299 2.3644 29.3827 2.18496C28.6626 2.09554 27.9183 2.0532 27.7288 2.09059C27.5395 2.12798 27.1343 2.21147 26.8286 2.27616C25.5643 2.54344 23.5204 5.14813 23.5309 6.47877C23.5361 7.11936 24.163 8.59185 24.5262 8.81639C24.7148 8.93292 24.7377 8.85398 24.6204 8.49451C24.5347 8.23278 24.4239 7.60762 24.3741 7.10532C24.2942 6.30112 24.3559 6.10941 24.8932 5.49771C25.7589 4.5115 26.4248 4.2923 28.2356 4.39715C30.2739 4.51506 31.4782 5.16396 33.1024 7.01906C35.7831 10.0808 36.5285 10.6005 39.1138 11.2088C40.5737 11.5525 42.9673 11.6595 44.2004 11.4363L44.9918 11.2931L44.2004 11.5695C43.2338 11.9072 40.1511 11.9562 38.7202 11.6569C36.8168 11.2587 35.5494 10.4103 33.3956 8.09311C31.186 5.71533 30.0678 5.00648 28.2273 4.81656C26.1635 4.60349 24.9114 5.43915 24.9114 7.02935C24.9114 8.0482 25.329 8.62785 26.6957 9.50466C27.7852 10.2038 27.8629 10.4648 26.8801 10.1221C26.3374 9.93297 26.2723 9.94583 26.3782 10.222C26.5004 10.5405 26.2818 10.538 25.498 10.2123C25.2426 10.1061 25.1561 10.4547 24.9518 12.4156C24.5986 15.8057 24.5903 15.7458 25.4917 16.3422C26.7863 17.1991 26.8676 18.0982 25.8954 20.8088L25.4236 22.1246L26.1566 22.9361C26.5839 23.4091 26.8898 23.9508 26.8898 24.2347C26.8898 24.9156 27.4186 25.1307 29.1024 25.1342C30.1099 25.1364 30.4595 25.1955 30.253 25.3291C30.0898 25.4345 29.3999 25.5222 28.7197 25.524C27.7571 25.5263 27.4833 25.5922 27.4833 25.8221C27.4833 25.9843 27.6508 26.2217 27.8556 26.3497C28.144 26.5297 28.2064 26.7438 28.132 27.2981C28.0026 28.264 28.5102 29.4326 29.168 29.6826C30.3628 30.1369 33.7199 28.9738 36.2579 27.2265C37.0035 26.7131 37.6528 26.3323 37.7007 26.3802C37.8754 26.5549 35.8545 28.1643 34.4592 28.9619C32.8854 29.8613 32.7966 30.0514 33.4023 31.2226C33.9539 32.2887 35.9471 34.6273 36.3044 34.6273C36.7857 34.6273 37.3292 34.2849 39.5513 32.5821C43.8857 29.2603 44.4257 28.645 44.2352 27.2449C44.1735 26.7897 43.9399 25.7554 43.7165 24.9469C43.1479 22.8898 43.1948 21.266 43.9009 18.5465C44.2257 17.2952 44.5539 15.4828 44.6303 14.519C44.7498 13.0107 44.7917 12.8631 44.931 13.459C45.0782 14.0889 45.0252 15.3574 44.7862 16.9211C44.6224 17.9932 45.4056 16.0488 46.1192 13.6121C46.9501 10.774 47.032 8.19697 46.339 6.68967C45.8149 5.54954 44.3856 3.98862 43.125 3.17968C41.9006 2.39407 41.7809 2.42078 42.5 3.31994C43.1972 4.192 44.0166 5.94976 44.1828 6.93043C44.2906 7.56667 44.2821 7.58269 44.0768 7.12826C43.0526 4.86206 42.6078 4.11563 41.7842 3.27919C40.859 2.33987 38.8309 1.19361 38.0934 1.19341C37.7557 1.19322 37.7654 1.24861 38.2064 1.83618C39.0955 3.02062 39.0466 3.07858 37.9601 2.12739C36.7052 1.02881 35.5027 0.599709 33.6791 0.599709C32.9916 0.599709 32.4292 0.632351 32.4292 0.672116ZM23.2324 4.61853C22.7886 5.6809 22.8777 5.98339 23.3366 4.97206C23.5537 4.4935 23.6864 4.05688 23.6316 4.00208C23.5766 3.94708 23.397 4.22464 23.2324 4.61853ZM27.1865 6.7593C25.6321 7.70733 26.2961 9.54106 28.4277 10.187C28.8547 10.3164 28.8713 10.2841 28.7542 9.55135C28.6378 8.8243 28.6691 8.7606 29.2935 8.45297L29.9562 8.12654L29.3439 8.12199C28.6883 8.11704 28.0768 8.6237 28.0768 9.1717C28.0768 9.70902 27.5177 9.54917 27.1917 8.91867C26.7812 8.12516 26.8116 7.79893 27.3296 7.4363C27.9543 6.99868 30.1262 7.03449 31.1496 7.49921C31.5882 7.69862 32.7508 8.65773 33.7333 9.63068C34.7156 10.6036 35.8413 11.5526 36.2347 11.7394C37.1424 12.1701 38.7124 12.4698 40.0611 12.4698C41.6998 12.4698 41.4988 12.1357 39.7946 12.0267C37.3264 11.8688 36.2545 11.342 33.9869 9.1721C32.9159 8.14711 31.7219 7.17574 31.3338 7.01352C30.3689 6.61053 27.6989 6.44672 27.1865 6.7593ZM29.6838 9.47795C29.0772 10.0845 29.1621 10.3563 29.8474 10.002C30.5755 9.62554 31.973 9.62296 32.627 9.99687C33.1926 10.3203 33.4183 10.3607 33.4183 10.1385C33.4183 9.81308 32.2418 9.3092 31.1949 9.18614C30.2468 9.07456 30.0488 9.11295 29.6838 9.47795ZM38.8361 9.66471C39.3643 10.263 41.1003 11.0864 41.8157 11.0778C42.3394 11.0717 42.279 11.0201 41.3638 10.6909C40.7832 10.4818 39.8929 10.0705 39.3855 9.77668C38.5785 9.309 38.5099 9.29515 38.8361 9.66471ZM30.564 10.0728C30.5044 10.169 30.7112 10.3534 31.0232 10.4828C31.4503 10.6596 31.7237 11.0312 32.129 11.9847C32.7546 13.4568 33.6631 14.3643 35.3765 15.2294C36.721 15.908 37.0716 16.3211 37.4837 17.7124C37.927 19.2089 38.208 19.4985 38.0596 18.3059C37.7899 16.1393 37.4275 15.6569 35.2483 14.5659C34.677 14.2798 34.2097 14.0121 34.2097 13.971C34.2097 13.9298 34.7518 14.065 35.4143 14.2711C36.0769 14.4772 36.8559 14.6412 37.1454 14.6353C37.5209 14.6278 37.3598 14.5241 36.5837 14.2737C35.148 13.8103 34.4146 13.4121 33.8152 12.7707C33.3655 12.2894 33.4263 12.3056 34.5037 12.9545C35.1538 13.3458 36.0434 13.7629 36.4808 13.8814C37.5634 14.1744 39.4618 13.9842 40.5404 13.475C41.0301 13.2437 41.2081 13.1047 40.9361 13.1658C38.5631 13.7001 38.1965 13.7211 36.885 13.3975C36.033 13.1872 35.1613 12.7846 34.397 12.2486C33.1873 11.3999 32.7115 10.7083 33.8635 11.4729C35.5358 12.5828 38.0699 13.2526 39.469 12.9547C40.1883 12.8014 40.1293 12.7804 38.6438 12.6589C36.961 12.5216 36.2468 12.2476 33.5173 10.6929C32.1736 9.92763 30.8283 9.64512 30.564 10.0728ZM24.3313 11.0949C24.3438 11.7358 24.3579 11.7499 24.5622 11.3257C24.7231 10.992 24.7197 10.8141 24.5488 10.6432C24.3729 10.4673 24.3211 10.5746 24.3313 11.0949ZM40.8287 15.4102C40.2868 15.7406 39.5513 16.6162 39.5513 16.9308C39.5513 16.9981 39.8852 16.7937 40.2931 16.4764C41.4085 15.6089 41.5087 15.5758 42.0153 15.9078C43.5151 16.8906 42.793 19.8613 40.6827 21.39C39.9307 21.9346 39.9153 21.9659 40.3966 21.9659C41.4008 21.9659 42.9453 20.1108 43.3246 18.4486C43.5493 17.4642 43.2211 16.307 42.518 15.6039C41.8578 14.9437 41.6357 14.9182 40.8287 15.4102ZM40.8916 16.5749C40.5828 16.9266 40.1685 19.4291 40.4676 19.1347C40.5573 19.0462 40.6772 18.5121 40.7339 17.9477C40.8164 17.1276 40.9268 16.8817 41.2823 16.7258C41.5271 16.6184 41.7275 16.4625 41.7275 16.3796C41.7275 16.1015 41.1985 16.2249 40.8916 16.5749ZM28.3735 16.5676C27.6777 16.7349 27.565 17.0186 28.1856 17.0404C29.5032 17.0867 31.9795 16.9919 32.627 16.8706L33.3194 16.7407L32.4292 16.5982C31.4362 16.4394 28.9837 16.4208 28.3735 16.5676ZM25.6311 17.5146C25.6938 17.6778 25.8218 17.8114 25.9156 17.8114C26.0092 17.8114 26.0347 17.6778 25.9722 17.5146C25.9095 17.3514 25.7815 17.2178 25.6877 17.2178C25.5941 17.2178 25.5686 17.3514 25.6311 17.5146ZM29.4393 18.63C30.0061 19.1452 30.2182 19.2215 30.8136 19.125C31.2008 19.0621 31.7308 18.7974 31.9914 18.5368L32.4652 18.063L31.3399 18.2569C30.5487 18.3932 30.0706 18.3853 29.7299 18.23C28.8719 17.8391 28.7516 18.0048 29.4393 18.63ZM45.0907 27.7824C45.0907 28.2675 43.374 30.3391 42.1336 31.3506C41.075 32.2141 40.6336 32.8468 41.0898 32.8468C41.5688 32.8468 43.5161 31.1116 44.718 29.6142C45.4525 28.699 45.7754 27.5053 45.2885 27.5053C45.1797 27.5053 45.0907 27.6299 45.0907 27.7824ZM45.4361 29.5078C44.8738 30.457 43.2611 32.1085 42.0305 32.995L41.2455 33.5604L41.3015 36.0229C41.3628 38.7225 41.1496 39.6891 40.2255 40.9005L39.7206 41.5626L38.7243 40.6668C38.1763 40.1742 37.6588 39.771 37.5743 39.771C37.3743 39.771 37.2405 40.9707 36.89 45.9039C36.4715 51.7913 36.1414 58.3867 36.2589 58.5042C36.5295 58.7749 40.2269 50.3873 42.079 45.3009C43.4478 41.5423 45.6842 34.7882 45.6842 34.4129C45.6842 34.2647 45.4561 34.369 45.1401 34.6616C44.4586 35.293 43.0856 36.21 42.8219 36.21C42.7127 36.21 43.2037 35.6861 43.9131 35.0457C46.5962 32.6242 47.3719 30.5873 46.2142 29.0041C45.9687 28.6683 45.9115 28.7055 45.4361 29.5078ZM32.1269 33.2516C32.0564 33.3653 31.838 34.2441 31.6412 35.2042C31.3767 36.4957 31.3288 37.1915 31.4572 37.8789C31.747 39.4302 31.8634 39.4687 33.6013 38.5915C34.855 37.9587 34.8026 38.0657 35.0513 35.6343C35.0889 35.2653 34.82 34.9187 33.8613 34.1011C32.5861 33.0134 32.3465 32.8961 32.1269 33.2516ZM39.2124 33.6908C38.754 34.0427 38.3757 34.3972 38.3716 34.479C38.3593 34.728 40.5001 34.6495 40.584 34.3978C40.7207 33.9879 40.5017 33.0446 40.2708 33.0478C40.147 33.0496 39.6708 33.3388 39.2124 33.6908ZM35.7924 35.2058C35.7924 35.2996 35.9259 35.4276 36.0891 35.4903C36.2523 35.5528 36.3859 35.5273 36.3859 35.4337C36.3859 35.3399 36.2523 35.2119 36.0891 35.1492C35.9259 35.0867 35.7924 35.1122 35.7924 35.2058ZM38.5008 35.2355C36.6775 35.6755 36.5527 36.1265 38.018 36.9806C39.1756 37.6554 39.1051 37.7595 37.8224 37.2696C36.8415 36.8949 36.6496 36.978 36.9958 37.6273C37.2773 38.1553 39.541 40.5624 39.756 40.5624C39.8342 40.5624 40.104 40.0949 40.3555 39.5237C40.711 38.7166 40.8156 38.1104 40.8251 36.8035L40.8372 35.1219L40.0459 35.0877C39.6106 35.0691 38.9154 35.1356 38.5008 35.2355ZM35.4861 36.4743C35.3554 36.9956 35.6711 37.7927 36.0086 37.7927C36.2939 37.7927 36.1433 36.1598 35.8492 36.063C35.7172 36.0195 35.5538 36.2047 35.4861 36.4743ZM33.27 36.5442C33.4603 36.594 33.7721 36.594 33.9624 36.5442C34.1527 36.4945 33.997 36.4537 33.6162 36.4537C33.2354 36.4537 33.0797 36.4945 33.27 36.5442ZM33.5277 39.2877L31.8185 40.1893L31.4602 39.7467L31.1017 39.3042L30.9784 39.9827C30.4378 42.958 30.1974 46.2353 30.1889 50.7509C30.1786 56.0537 30.398 58.5264 31.0962 60.9813C31.51 62.4364 31.5532 62.5015 32.0292 62.3883C32.3036 62.323 32.5948 62.232 32.6765 62.1863C32.7582 62.1404 32.8248 59.8153 32.8248 57.0193C32.8248 51.7662 33.0541 48.9073 33.798 44.8878C34.2975 42.1888 35.0004 39.1627 35.2165 38.7819C35.5607 38.1747 35.3898 39.5315 34.6161 43.5487C33.6364 48.6346 33.4603 50.103 33.3123 54.4108C33.1675 58.6285 33.412 62.0953 33.8726 62.3531C34.1573 62.5124 34.1583 62.5806 33.8829 63.0697C33.636 63.5079 33.6219 63.7223 33.8085 64.2021C34.0344 64.7833 34.0542 64.7536 34.9154 62.5541C35.716 60.5093 35.7924 60.1629 35.7924 58.5784C35.7924 55.1027 36.3661 45.1345 36.8104 40.888C36.9986 39.0913 36.9903 38.7124 36.76 38.5664C36.1685 38.1919 35.1921 38.4097 33.5277 39.2877ZM18.3986 42.3429C18.3798 43.4227 19.1492 50.2996 19.3053 50.4476C19.3665 50.5056 19.3621 50.0189 19.2956 49.366C19.229 48.7132 19.0369 46.7546 18.8687 45.0137C18.5387 41.6018 18.423 40.9436 18.3986 42.3429ZM44.5937 44.3252C44.8936 45.7201 45.4626 46.2015 45.2082 44.8449C45.1378 44.47 44.9374 44.0447 44.7629 43.8999C44.4786 43.6638 44.461 43.708 44.5937 44.3252ZM45.6842 45.5199C45.6842 45.7439 45.7732 45.8723 45.882 45.805C45.9908 45.7377 46.0798 45.5546 46.0798 45.3977C46.0798 45.2408 45.9908 45.1126 45.882 45.1126C45.7732 45.1126 45.6842 45.296 45.6842 45.5199ZM43.5143 46.5228C43.5107 46.6998 43.6415 46.9554 43.8047 47.0909C44.1852 47.4067 44.1891 47.0846 43.8111 46.5847C43.5669 46.262 43.5197 46.2521 43.5143 46.5228ZM48.4044 46.6116C48.3227 46.6939 48.256 46.9422 48.256 47.1635C48.256 47.4546 48.3158 47.506 48.4725 47.3493C48.5914 47.2304 48.6582 46.9819 48.6209 46.7975C48.5835 46.613 48.4861 46.5293 48.4044 46.6116ZM44.9611 47.9897C44.8966 48.1577 44.8936 48.3446 44.9542 48.4052C45.1275 48.5785 45.4863 48.2847 45.4863 47.9695C45.4863 47.5899 45.1089 47.6045 44.9611 47.9897ZM47.9484 48.4892C47.2702 48.6865 46.3279 49.5811 46.5572 49.8104C46.7381 49.9914 48.8887 48.8527 49.0009 48.5165C49.0915 48.2445 48.8151 48.2374 47.9484 48.4892ZM44.3023 49.7123C44.3047 50.2001 44.3516 50.2836 44.4972 50.0585C44.7484 49.6697 44.7484 49.0693 44.4972 49.0693C44.3884 49.0693 44.3007 49.3585 44.3023 49.7123ZM45.0936 50.1079C45.0978 50.9873 45.3939 51.4429 45.552 50.8132C45.6891 50.2662 45.519 49.465 45.2654 49.465C45.1694 49.465 45.0921 49.7542 45.0936 50.1079ZM53.1525 49.685C52.797 49.8856 52.6694 50.4541 52.98 50.4541C53.2314 50.4541 53.6469 49.9073 53.5669 49.6818C53.523 49.5579 53.3752 49.5591 53.1525 49.685ZM43.1123 50.5143C43.1123 50.9903 44.0805 52.6695 44.5067 52.933C44.9059 53.1797 44.5682 52.1583 43.8815 51.0423C43.5485 50.5012 43.2393 50.0585 43.1942 50.0585C43.1491 50.0585 43.1123 50.2636 43.1123 50.5143ZM45.8159 51.196C45.5069 51.8095 45.2319 52.8282 45.3754 52.8282C45.5216 52.8282 46.4755 51.1406 46.4755 50.8819C46.4755 50.4622 46.0941 50.6439 45.8159 51.196ZM49.5432 51.6358C49.4674 51.9806 49.4551 52.3126 49.5157 52.3733C49.5764 52.4339 49.7339 52.2471 49.8654 51.9581C50.0358 51.5844 50.0437 51.3713 49.8929 51.2205C49.7422 51.0698 49.6411 51.1897 49.5432 51.6358ZM47.2131 51.7964C46.7323 51.8576 45.8899 52.7063 46.1026 52.9156C46.2171 53.0284 47.6807 52.4934 47.9247 52.2495C48.2303 51.9438 47.8683 51.7134 47.2131 51.7964ZM48.1571 52.4325C47.9589 52.6515 47.8414 52.875 47.8958 52.9294C47.9502 52.9838 48.1567 52.8493 48.355 52.6303C48.5532 52.4113 48.6707 52.1878 48.6163 52.1334C48.5619 52.079 48.3554 52.2135 48.1571 52.4325ZM47.2669 53.7829C46.7054 54.1105 46.4919 54.3254 46.689 54.3645C47.1832 54.4631 48.0139 54.0717 48.2509 53.629C48.5259 53.1152 48.3688 53.1397 47.2669 53.7829ZM45.429 54.213C45.3722 54.4306 45.3585 54.6087 45.3989 54.6087C45.4395 54.6087 45.5677 54.4306 45.6842 54.213C45.8011 53.9944 45.8145 53.8173 45.7142 53.8173C45.6143 53.8173 45.486 53.9954 45.429 54.213ZM46.6734 55.0004C46.4207 55.1747 46.45 55.2629 46.8712 55.5949C47.4667 56.0643 49.1063 56.6428 49.5817 56.5512C49.8405 56.5014 49.704 56.3053 49.0215 55.746C48.056 54.9549 47.1545 54.6686 46.6734 55.0004ZM23.1362 56.2837C22.8628 56.6133 23.0229 56.9827 23.4393 56.9827C23.7481 56.9827 23.8356 56.2835 23.5489 56.1063C23.4526 56.0467 23.2668 56.1265 23.1362 56.2837ZM15.0817 56.7566C13.5368 57.2905 12.4562 58.0777 12.3178 58.7701C12.1781 59.4683 11.9508 59.5267 11.7684 58.9116L11.6362 58.4665L11.4623 58.8914C11.2125 59.5019 10.7818 59.7332 10.964 59.1589C11.0603 58.8556 11.0354 58.7569 10.8862 58.8491C10.5117 59.0805 10.6439 59.9114 11.107 60.2357C11.3488 60.405 11.4599 60.5465 11.3543 60.5497C11.2485 60.553 11.3001 60.6367 11.469 60.7356C11.6443 60.8381 12.0901 60.8444 12.5075 60.7505C13.0949 60.6179 13.3325 60.6593 13.7153 60.9602C14.3946 61.4947 14.4926 61.4342 14.3535 60.5645C14.2583 59.97 14.3007 59.767 14.5385 59.6756C15.1369 59.4461 14.6261 59.2 13.8941 59.3652C13.0494 59.5557 12.8434 59.4774 12.8434 58.9656C12.8434 58.292 13.0834 57.9584 13.849 57.5677C14.8362 57.0642 15.6131 57.0543 15.6131 57.5455C15.6131 58.0368 14.9373 58.6204 14.4902 58.5149C14.1984 58.4461 14.2388 58.3849 14.7009 58.1952C15.0151 58.0662 15.2218 57.9103 15.1601 57.8486C14.9577 57.6462 13.8809 57.9863 13.5436 58.359C13.0907 58.8596 13.4383 59.0354 14.5503 58.8686C15.2291 58.767 15.5168 58.6067 15.7728 58.1879C15.957 57.8868 16.2268 57.6805 16.3722 57.7293C16.682 57.8338 18.185 57.1954 18.185 56.9595C18.185 56.682 17.4467 56.389 16.7637 56.3957C16.4029 56.3993 15.646 56.5617 15.0817 56.7566ZM22.3405 57.4755C22.1255 57.8771 22.1231 58.0696 22.3273 58.5141L22.5777 59.06L22.8755 58.3181C23.3356 57.1712 22.884 56.46 22.3405 57.4755ZM17.709 57.8267C16.7184 58.3933 16.2893 58.9945 15.9107 60.3459C15.6426 61.3034 15.6159 61.339 15.6889 60.6426C15.7346 60.2074 15.8404 59.6732 15.9239 59.4556L16.0759 59.06L15.624 59.4556C15.3753 59.6732 15.0954 60.0519 15.0014 60.2972C14.7903 60.8496 15.1349 61.6779 15.6432 61.8391C15.8442 61.903 16.0088 62.036 16.0088 62.1349C16.0088 62.2402 15.8042 62.2366 15.5142 62.1264C14.799 61.8544 14.8942 62.2073 15.712 62.8598C16.4589 63.4557 16.577 63.7091 16.1077 63.7091C15.7093 63.7091 15.7334 63.9732 16.168 64.3665C16.4992 64.6662 16.6031 64.6599 17.6024 64.2792C19.1138 63.7035 20.8376 63.8177 21.808 64.5578C22.642 65.1938 22.7352 65.2105 22.7352 64.7224C22.7352 64.1524 22.3162 63.9214 20.7303 63.6167C18.5842 63.2046 16.8069 62.3515 16.5162 61.5942C16.4585 61.4433 16.7434 61.5675 17.1497 61.87L17.8882 62.4202L17.1463 61.5802C16.2531 60.5692 16.1858 59.8448 16.9056 58.9893C18.5334 57.0549 21.3504 58.2914 21.3504 60.9406C21.3504 62.3955 20.2939 63.0135 18.625 62.5347C17.6261 62.2483 18.0693 62.6497 19.1473 63.0078C20.1554 63.3427 20.5737 63.2699 21.4987 62.5988C21.7437 62.4212 21.9439 62.3705 21.9439 62.4863C21.9439 62.602 21.8548 62.7516 21.746 62.8188C21.3751 63.0481 21.5474 63.3077 22.2713 63.6102C22.9285 63.8848 23.0399 63.8824 23.4947 63.5844L23.995 63.2566L23.453 62.7903C23.1548 62.5339 22.9997 62.3242 23.1081 62.3242C23.2165 62.3242 23.3538 62.4026 23.4128 62.4981C23.4719 62.5939 23.722 62.7249 23.9685 62.7893C24.3363 62.8855 24.3007 62.8155 23.7699 62.4C22.9979 61.7958 22.6331 61.135 22.4444 59.9997C22.3676 59.5373 22.2105 59.1589 22.0954 59.1589C21.9803 59.1589 21.4578 58.7583 20.9343 58.2686C20.1495 57.5346 19.8508 57.379 19.2321 57.3815C18.8194 57.3833 18.1339 57.5837 17.709 57.8267ZM23.8047 58.7137C22.7775 61.013 23.0298 61.7369 25.1567 62.5953C25.7813 62.8473 26.2264 63.1241 26.1459 63.2103C25.7227 63.6634 26.8866 62.8562 27.4338 62.3171C28.0651 61.6953 28.1658 61.434 28.079 60.6426C27.9581 59.5431 26.7533 58.3699 25.7433 58.3683C24.6501 58.3665 23.9248 59.9856 24.6309 60.8521C24.9393 61.2308 24.9417 61.2306 24.8068 60.8405C24.4995 59.9538 24.6441 59.2135 25.1949 58.8526C25.806 58.4522 26.3153 58.694 26.7495 59.5904C27.1406 60.3979 26.884 60.7869 26.0163 60.7022C25.5566 60.6573 25.3904 60.5328 25.3427 60.1975C25.257 59.5943 24.9114 59.6303 24.9114 60.2424C24.9114 60.9465 25.7091 61.4176 26.6462 61.267C27.1533 61.1855 27.2914 61.2077 27.0876 61.3376C26.6957 61.5875 25.5609 61.5859 25.406 61.3351C25.3387 61.2263 25.1844 61.1372 25.0632 61.1372C24.9417 61.1372 25.0582 61.3719 25.3221 61.6587C25.7581 62.1327 25.7637 62.1604 25.3836 61.963C24.8125 61.6662 23.7244 60.4003 23.7244 60.0325C23.7244 59.4176 24.3654 58.5254 24.9967 58.2615C25.867 57.8979 26.8172 58.1677 27.6283 59.0085C28.7427 60.1639 29.0468 61.997 28.2623 62.8319L27.8544 63.2661L28.4602 63.4774L29.066 63.6885L29.1022 62.2645C29.1572 60.1053 29.1253 59.9383 28.5112 59.1751C27.5468 57.9762 26.7865 57.5762 25.4733 57.5762H24.3129L23.8047 58.7137ZM23.0116 58.8805C22.5754 59.9245 22.7995 60.1876 23.2975 59.2162C23.7841 58.2668 23.8043 58.1697 23.5165 58.1697C23.4021 58.1697 23.1748 58.4896 23.0116 58.8805ZM18.185 58.6038L17.6904 58.8299L18.3828 58.945C19.297 59.0968 19.3233 59.6297 18.421 59.7164C17.653 59.79 17.4374 60.1829 17.7964 60.8537C18.1248 61.4676 18.402 61.4599 19.1674 60.8159C19.9153 60.1864 20.1238 60.2891 19.5582 61.008L19.1455 61.5329L19.6049 61.5359C19.9742 61.5384 20.0061 61.5766 19.7677 61.7307C18.9376 62.2673 17.8318 61.7715 17.2029 60.5809C16.8696 59.9498 16.8164 59.914 16.8088 60.3162C16.7982 60.8901 17.9183 62.052 18.6628 62.2388C19.4594 62.4388 20.1353 62.0344 20.5491 61.1101C20.9519 60.2102 20.831 59.4665 20.1871 58.8837C19.7178 58.4589 18.7866 58.3288 18.185 58.6038ZM25.7027 59.1589C25.7027 59.2677 25.7971 59.3567 25.9123 59.3567C26.0274 59.3567 26.0668 59.2677 25.9995 59.1589C25.9322 59.0501 25.8381 58.961 25.79 58.961C25.7419 58.961 25.7027 59.0501 25.7027 59.1589ZM12.8434 61.1536C12.8434 61.2791 13.1234 61.7007 13.4654 62.0902C15.0663 63.9134 15.2262 66.0433 13.8668 67.4369C13.4672 67.8466 12.8731 68.3744 12.5467 68.6099C11.6077 69.2872 12.4216 69.1357 13.6435 68.4057C14.4174 67.9433 14.8635 67.5008 15.2198 66.8412C15.493 66.3355 15.8861 65.7345 16.0931 65.5058C16.4636 65.0963 16.463 65.0828 16.0644 64.6468C15.8416 64.4031 15.5231 63.9366 15.3563 63.6102C14.7199 62.3638 12.8434 60.5293 12.8434 61.1536ZM10.063 61.9028C9.57932 62.2152 8.87186 62.8022 8.49102 63.2074L7.7986 63.9441L9.14111 63.2111L10.4834 62.478L11.2617 63.0172C11.6896 63.3138 12.0936 63.7265 12.1595 63.934C12.3221 64.4458 12.0918 65.4083 11.7363 65.7033C11.4863 65.9106 11.4744 65.8694 11.6501 65.4073C11.7624 65.1119 11.8473 64.6759 11.839 64.4381C11.8289 64.1483 11.7474 64.2517 11.5917 64.7521C11.4641 65.1624 11.1112 65.8077 10.8073 66.1862L10.2549 66.874L9.47189 66.4746C9.04121 66.2548 8.68886 65.9699 8.68886 65.8417C8.68886 65.6647 8.74623 65.6657 8.92626 65.8457C9.65094 66.5704 11.2736 65.4664 11.2451 64.2684C11.2366 63.9063 11.1834 63.7251 11.127 63.8658C11.0431 64.0745 10.9673 64.0745 10.7123 63.8658C10.4502 63.6511 10.4538 63.6925 10.7345 64.1239C11.053 64.6134 11.0492 64.6622 10.6557 65.1626C10.178 65.7699 9.66933 65.8342 9.23983 65.3412C8.8129 64.851 8.71458 64.4553 8.92033 64.0553C9.24102 63.4321 8.7033 63.6756 8.30209 64.3354C7.77565 65.201 7.59661 66.4111 7.90859 66.9941C8.18774 67.5156 9.55993 68.2593 10.2431 68.2593C10.8126 68.2593 12.0444 67.628 12.5366 67.0838C12.7704 66.8252 13.0149 66.0967 13.1582 65.2326L13.3944 63.808L13.4156 64.9851C13.4401 66.3389 13.7897 66.2887 13.9752 64.9046C14.0833 64.0988 14.0526 64.0414 12.9524 63.0012C12.3286 62.4113 11.9326 61.9286 12.0722 61.9286C12.2121 61.9286 12.81 62.4277 13.4007 63.0378L14.4752 64.1471L14.0057 63.3118C13.3352 62.1189 12.3771 61.3351 11.5893 61.3351C11.2134 61.3351 10.5742 61.5729 10.063 61.9028ZM27.8639 62.4503C27.6002 62.7373 27.5102 62.9326 27.6641 62.8845C27.9248 62.8032 28.6274 61.9286 28.4321 61.9286C28.3834 61.9286 28.1278 62.1634 27.8639 62.4503ZM30.6643 62.4396C30.6738 62.6701 30.7207 62.7169 30.7838 62.5593C30.8409 62.4164 30.8338 62.2457 30.7681 62.18C30.7025 62.1143 30.6558 62.2311 30.6643 62.4396ZM31.4849 62.952C31.3076 63.1292 31.443 63.2689 32.0606 63.5455C33.0915 64.007 33.4542 64.0017 32.8458 63.534C32.5815 63.3306 32.4337 63.0705 32.5113 62.9448C32.6994 62.6406 31.79 62.6469 31.4849 62.952ZM24.1147 63.639C23.0609 64.3408 22.917 64.7899 23.5343 65.4522C24.0987 66.0582 24.3179 65.9929 24.3179 65.2196C24.3179 64.8534 24.496 64.3275 24.7136 64.0507C24.9312 63.7742 25.1092 63.495 25.1092 63.4305C25.1092 63.2082 24.6022 63.3144 24.1147 63.639ZM25.9514 63.9473C25.8357 64.0883 25.6062 64.5153 25.4412 64.8961C25.2242 65.3974 25.1371 65.4777 25.1255 65.1875C25.1166 64.9667 25.2479 64.5885 25.4173 64.3467C25.6907 63.956 25.6915 63.9069 25.4242 63.9069C25.0301 63.9069 24.7136 64.5192 24.7136 65.2817C24.7136 65.6957 24.9237 66.1203 25.3688 66.606C25.9129 67.1997 26.1912 67.3372 27.0091 67.4157C27.9241 67.5036 28.0109 67.4731 28.2333 66.9852C28.3648 66.6964 28.4725 66.3154 28.4725 66.1383C28.4725 65.872 28.3931 65.8908 28.0147 66.2465C27.4194 66.8056 27.1703 66.789 26.76 66.1626C26.4949 65.7581 26.4713 65.5715 26.6494 65.2864C26.8213 65.011 26.8179 64.9008 26.6353 64.8263C26.2367 64.6638 26.9319 64.2949 27.3844 64.4288C28.5425 64.7717 29.1451 66.1607 28.5961 67.222C28.1116 68.1592 27.4293 68.2939 26.2391 67.6871C25.3336 67.2254 25.2543 67.5354 26.0391 68.4682C27.0401 69.6578 28.328 69.8447 29.0652 68.9078C30.2761 67.3684 29.353 64.6082 27.4564 64.0976C27.0223 63.9807 26.5534 63.8414 26.4146 63.788C26.2755 63.7348 26.0672 63.8064 25.9514 63.9473ZM31.2487 63.9694C31.2404 64.426 31.5931 65.0939 31.8426 65.0939C32.1593 65.0939 32.0578 64.5736 31.6444 64.0773C31.3065 63.6717 31.2544 63.6574 31.2487 63.9694ZM19.8745 64.3152C19.9374 64.4171 20.1265 64.5004 20.2951 64.5004C20.6554 64.5004 23.3299 67.028 24.147 68.1406C25.0837 69.4162 24.8439 71.2561 23.686 71.6757C23.394 71.7815 23.6896 72.466 24.0283 72.4684C24.2214 72.4698 26.0626 70.2582 26.0858 69.9973C26.0927 69.9193 25.844 69.5632 25.5332 69.2059C25.2224 68.8484 24.8608 68.2266 24.7298 67.824C24.4738 67.0373 23.8471 66.4139 22.1344 65.2421C21.0813 64.5218 19.6355 63.9289 19.8745 64.3152ZM32.3259 64.3095C32.1963 64.5194 33.087 65.4896 33.4094 65.4896C33.6896 65.4896 33.6704 65.3606 33.3076 64.8069C32.954 64.2674 32.4957 64.0351 32.3259 64.3095ZM9.4802 64.7972C9.4802 64.9604 9.56646 65.0939 9.6719 65.0939C9.77715 65.0939 9.81217 64.9604 9.74965 64.7972C9.68694 64.634 9.60069 64.5004 9.55795 64.5004C9.51522 64.5004 9.4802 64.634 9.4802 64.7972ZM17.653 64.8363C17.1944 64.9254 16.174 66.0032 15.5142 67.095C15.1547 67.6901 14.176 68.505 13.5758 68.7092C13.396 68.7703 13.4102 69.0024 13.6348 69.6621C13.8528 70.3029 14.0496 70.5512 14.3766 70.5977C14.8869 70.6701 14.9015 70.6292 14.602 69.9717C14.4532 69.6453 14.4459 69.3759 14.579 69.1379C14.7498 68.8328 14.7935 68.867 14.91 69.3974C15.0608 70.0841 16.0329 71.2533 16.1532 70.8927C16.1953 70.7663 16.0466 70.3037 15.8224 69.8647C15.3737 68.9849 15.3221 68.7719 15.5995 68.9432C15.84 69.092 15.9839 68.8554 16.735 67.0752C17.3191 65.6908 17.4279 65.5588 18.3177 65.1555C19.1868 64.7616 19.2195 64.724 18.6796 64.7374C18.3531 64.7455 17.8912 64.7901 17.653 64.8363ZM29.2681 64.7236C29.2658 64.7918 29.4078 65.1922 29.5837 65.6132C29.8138 66.1638 29.8767 66.7522 29.8082 67.7099C29.7081 69.1094 29.8365 69.2647 30.2561 68.2518C30.5658 67.5043 30.2542 65.8605 29.6575 65.0939C29.4458 64.8219 29.2705 64.6553 29.2681 64.7236ZM13.8718 65.9017C13.3667 66.9593 12.2901 67.8622 10.9026 68.392L10.0207 68.7289L8.92626 68.1479C8.32425 67.8284 7.75765 67.5372 7.66684 67.501C7.33527 67.3684 7.5147 67.9422 8.00652 68.5869C8.56857 69.3238 8.51634 69.4038 7.78554 68.925C7.1948 68.538 6.98569 68.6652 7.32359 69.2061C7.91374 70.1514 9.21668 70.4711 10.3705 69.9537L10.964 69.6877L10.1071 69.5391C9.06811 69.359 9.37357 69.0581 10.6 69.0536C11.9466 69.0487 14.0805 67.1706 14.3458 65.7571C14.5304 64.773 14.3903 64.8158 13.8718 65.9017ZM25.7999 65.4896C25.9607 66.5472 26.5137 67.1712 27.2904 67.1712C27.6967 67.1712 27.982 67.0586 28.0429 66.8744C28.127 66.6202 28.094 66.6167 27.8133 66.8483C27.3458 67.2343 26.5786 66.6924 26.0804 65.6243L25.6944 64.7972L25.7999 65.4896ZM18.8665 65.3052C18.5342 65.402 18.0445 65.7126 17.7784 65.9959C17.362 66.439 17.2947 66.7002 17.2947 67.8741C17.2947 68.9933 17.3687 69.3116 17.7082 69.6511C18.3035 70.2461 19.2143 70.207 20.0769 69.5492C20.7056 69.0696 20.7697 69.0528 20.574 69.4182C20.3177 69.8974 19.3811 70.4355 18.8034 70.4355C18.1765 70.4355 17.2235 69.4983 17.0817 68.742C16.9349 67.9604 16.7022 67.861 16.5291 68.5066C16.3202 69.2864 16.395 70.1361 16.7127 70.5896C16.8822 70.8317 16.9722 71.1085 16.9127 71.2047C16.753 71.4632 17.2692 71.8235 18.2281 72.1228C18.716 72.2751 18.8968 72.3931 18.6543 72.4006C18.4228 72.4079 17.9013 72.2751 17.4953 72.1054C17.0894 71.9359 16.7257 71.8288 16.6872 71.8674C16.4822 72.0724 17.4969 73.2685 18.0841 73.5138C19.4939 74.1029 22.1188 73.6853 22.8023 72.7632C23.2753 72.1252 23.1487 71.8888 22.5152 72.2279C21.9692 72.5201 20.0486 72.576 19.7803 72.3078C19.6561 72.1835 19.8919 72.1398 20.4482 72.1841C20.9213 72.2217 21.5005 72.1495 21.7355 72.0237C22.2835 71.7305 22.9313 70.6703 22.9323 70.0651C22.933 69.6493 22.8949 69.6267 22.5993 69.8673C22.3016 70.1092 22.2841 70.0958 22.4379 69.743C22.5326 69.5254 22.6448 68.9022 22.6873 68.3582C22.7772 67.208 22.2851 66.2966 21.168 65.5438C20.4692 65.0728 19.8773 65.0114 18.8665 65.3052ZM11.5494 66.2942C11.3365 66.6386 11.5788 66.7116 11.8503 66.3846C12.0064 66.1967 12.0214 66.0831 11.89 66.0831C11.7745 66.0831 11.621 66.1781 11.5494 66.2942ZM18.2908 66.6972C17.9062 67.0349 17.5915 67.4355 17.5915 67.5874C17.5915 67.9926 17.9223 67.9242 18.2544 67.4501C18.5334 67.0517 18.5429 67.0598 18.5128 67.6701C18.4916 68.1016 18.6002 68.3756 18.8535 68.5287C19.1374 68.7009 19.2462 68.6955 19.315 68.5066C19.4221 68.2122 19.7677 68.1744 19.7677 68.4571C19.7677 68.8461 18.9886 69.4384 18.6347 69.3185C18.3973 69.2382 18.4307 69.3092 18.7375 69.5381C19.263 69.9298 19.5997 69.7514 20.0775 68.8275C20.4751 68.0585 20.4308 67.5192 19.9485 67.261C19.3101 66.9194 19.5979 66.863 20.4676 67.1593C21.183 67.4031 21.2738 67.5152 21.5067 68.4423C21.8347 69.7468 21.5531 70.4337 20.5566 70.7611L19.8666 70.9878L20.4601 71.0689L21.0536 71.1499L20.5194 71.3063C20.1218 71.4227 19.6951 71.3299 18.8517 70.9437C17.8356 70.4786 17.7561 70.4665 18.0829 70.8276C18.9704 71.8082 20.9557 71.7861 21.8928 70.785C22.2689 70.3832 22.2909 70.2438 22.1041 69.4463C21.6701 67.5926 21.3155 66.8475 20.6846 66.4627C19.7902 65.9173 19.1022 65.9846 18.2908 66.6972ZM19.2731 66.4788C19.2019 66.5939 19.3991 66.6766 19.7443 66.6766C20.0708 66.6766 20.3928 66.7656 20.4601 66.8744C20.5274 66.9833 20.6884 67.0693 20.818 67.0657C20.9476 67.062 20.8435 66.8839 20.5865 66.6701C20.0824 66.2501 19.4695 66.1609 19.2731 66.4788ZM30.6516 66.4176C30.6534 66.5057 30.741 66.7112 30.8465 66.8744C31.0117 67.1302 31.0386 67.1249 31.0414 66.8367C31.0429 66.6527 30.9553 66.4471 30.8465 66.3799C30.7377 66.3126 30.65 66.3296 30.6516 66.4176ZM3.53325 67.4753C3.20109 67.6806 3.9404 67.9974 5.18894 68.1851C5.82202 68.2805 5.96644 68.2545 5.79966 68.0761C5.46116 67.7139 3.84188 67.2846 3.53325 67.4753ZM23.1661 68.3087C23.3596 69.1616 23.3026 70.352 23.0278 71.1969C22.8782 71.6571 22.8828 71.6587 23.4743 71.3526C24.1711 70.9924 24.3179 70.6905 24.3179 69.6182C24.3179 68.4945 23.7062 67.4679 23.0369 67.4679C23.0029 67.4679 23.061 67.8464 23.1661 68.3087ZM34.0119 67.8395C34.0119 68.2007 34.6056 68.4818 35.3918 68.4927C36.4832 68.5078 36.5986 68.3279 35.7303 67.9651C34.9415 67.6355 34.0119 67.5677 34.0119 67.8395ZM32.5164 68.5412C32.1467 68.8126 32.154 68.8314 32.7079 69.0429C33.5038 69.3468 37.0152 69.4129 37.1155 69.126C37.1679 68.976 36.7586 68.908 35.8497 68.9149C34.9441 68.922 34.3132 68.8174 33.9129 68.5936C33.1875 68.1879 33.0068 68.1811 32.5164 68.5412ZM6.01807 68.8528C5.95081 68.9616 5.98167 69.0506 6.08672 69.0506C6.19177 69.0506 6.23213 69.2251 6.17634 69.4384C6.12055 69.6516 6.2624 70.1296 6.49169 70.5004C7.0395 71.3869 7.01972 71.5981 6.43946 71.0531L5.97059 70.6127L5.84873 71.0681C5.78166 71.3186 5.72547 71.8209 5.72409 72.1841L5.72132 72.8447L6.32432 72.3373C6.65609 72.0581 7.3687 71.6731 7.908 71.4816C8.4473 71.2899 8.85939 71.043 8.82358 70.9328C8.78797 70.8224 8.38518 70.5243 7.92877 70.2703C7.47236 70.0163 6.96472 69.5488 6.80071 69.2316C6.49268 68.6362 6.23055 68.5092 6.01807 68.8528ZM31.0443 69.2617C31.0443 69.383 30.8756 69.4194 30.6486 69.3474C30.3204 69.2433 30.253 69.3118 30.253 69.7492C30.253 70.5427 29.6824 71.5865 29.042 71.9649C28.0493 72.5513 28.4244 72.8095 30.2692 72.8095C31.3789 72.8095 31.44 72.7842 31.44 72.3262C31.44 72.0605 31.2522 71.5248 31.0228 71.1358C30.5497 70.3342 30.7428 69.842 31.5302 69.842C32.1027 69.842 32.281 69.6457 32.0076 69.3161C31.7455 69.0002 31.0443 68.9606 31.0443 69.2617ZM26.1973 69.4463C26.2646 69.5551 26.4086 69.6441 26.5174 69.6441C26.6262 69.6441 26.6603 69.5551 26.593 69.4463C26.5257 69.3375 26.3817 69.2485 26.2729 69.2485C26.1641 69.2485 26.1301 69.3375 26.1973 69.4463ZM27.5143 69.841C26.3754 70.1102 26.2897 70.4355 27.3579 70.4355C28.3237 70.4355 29.066 70.1745 29.066 69.835C29.066 69.6147 28.4622 69.6168 27.5143 69.841ZM3.24837 70.3197C2.92194 70.5815 2.72173 70.8632 2.80364 70.9457C3.00306 71.1469 3.92418 70.6383 4.16099 70.1961C4.43835 69.6776 3.97007 69.7411 3.24837 70.3197ZM10.502 70.3371C9.25348 70.9184 9.23093 71.334 10.4492 71.3079C11.3361 71.2889 12.3025 70.7275 12.4127 70.1672C12.5069 69.6883 11.7514 69.7555 10.502 70.3371ZM29.1196 70.2699C28.7722 70.6189 28.3943 70.7302 27.3391 70.7947C25.9744 70.878 25.5049 71.0685 25.5049 71.5384C25.5049 71.9184 26.7467 72.2065 27.5769 72.0193C28.8292 71.737 29.7776 70.8567 29.6225 70.1209C29.5738 69.89 29.466 69.9219 29.1196 70.2699ZM33.4844 70.1245C33.5705 70.349 33.446 70.383 32.8765 70.2905L32.1601 70.1743L32.9886 70.9227C33.7778 71.6357 33.8688 71.667 34.9106 71.5805C36.1809 71.4753 36.1052 71.6876 34.7429 72.0506C33.9298 72.2672 33.6656 72.2583 32.9186 71.9899L32.0452 71.6757L33.0781 72.6483L34.1108 73.621L35.314 73.4131C37.8083 72.982 38.1227 73.2416 35.6731 73.7092C34.8137 73.8734 34.0811 74.0942 34.0449 74.1999C34.0085 74.3057 33.8037 74.3922 33.5899 74.3922C33.0322 74.3922 32.0798 74.9249 31.8416 75.3705C31.567 75.8835 31.5852 76.2229 31.911 76.6685C32.1712 77.0244 32.2169 77.0075 32.8741 76.3106C33.539 75.6057 33.6134 75.5792 34.9255 75.5764C35.6743 75.575 36.4874 75.52 36.7321 75.4545C36.9768 75.3889 37.1772 75.4211 37.1772 75.5262C37.1772 75.6312 36.3984 75.8261 35.4462 75.9592C33.5281 76.2273 33.0925 76.4894 32.9052 77.4879C32.7477 78.3275 32.9906 78.6284 34.1759 79.0611C34.6841 79.2466 35.8052 79.7013 36.6672 80.0714C37.9393 80.6176 38.644 80.7803 40.4105 80.9354C41.6072 81.0402 42.7036 81.2234 42.8468 81.3423C43.576 81.9475 44.1015 80.4881 44.1015 77.8574C44.1015 76.0564 43.8878 75.4617 43.0848 75.027C42.0654 74.4751 41.1729 73.6232 40.0459 72.1256C38.5842 70.1834 38.188 70.007 35.7714 70.2214C34.477 70.3364 34.076 70.3106 33.9525 70.1053C33.7402 69.7518 33.3475 69.7678 33.4844 70.1245ZM1.70248 70.241C1.09394 70.4236 0.577584 70.7892 0.577584 71.0375C0.577584 71.1243 0.862075 71.2579 1.20987 71.3342C1.75372 71.4537 1.90605 71.3936 2.29698 70.9049C3.00503 70.0202 2.88475 69.8861 1.70248 70.241ZM31.4653 70.7629C31.7045 71.0513 32.8086 71.6225 33.1269 71.6225C33.4209 71.6225 32.924 71.1845 32.2258 70.8284C31.2879 70.3498 31.11 70.3346 31.4653 70.7629ZM4.85123 72.2472C4.48524 72.7697 4.44963 73.0073 4.73708 73.0073C4.94956 73.0073 5.39825 72.0249 5.25245 71.8791C5.20615 71.8326 5.02553 71.9984 4.85123 72.2472ZM7.60076 72.0318C6.82406 72.2736 5.97989 72.9365 6.18663 73.1423C6.48279 73.437 8.91637 73.2242 9.56231 72.8471C10.502 72.2983 10.3556 71.926 9.18345 71.8832C8.6394 71.8634 7.92719 71.9303 7.60076 72.0318ZM16.0998 72.3576C16.4262 73.6665 16.8282 74.1789 17.9424 74.7059C18.5484 74.9926 19.5455 75.2725 20.1582 75.3281C21.2079 75.4233 21.3084 75.3928 21.9047 74.7965C22.7544 73.9468 22.7245 73.7055 21.7955 73.9106C21.3876 74.0007 20.4027 74.079 19.6074 74.0849L18.161 74.0954L17.0619 72.9511C16.0992 71.9493 15.9797 71.8755 16.0998 72.3576ZM12.0709 72.4902C11.7743 72.8475 12.055 73.4825 12.6501 73.801C13.1643 74.0762 13.1473 73.838 12.6117 73.2681C12.0643 72.6854 12.2556 72.4767 12.9313 72.9195C13.5161 73.3025 13.8263 73.1587 13.5089 72.6516C13.2335 72.2116 12.3815 72.1159 12.0709 72.4902ZM24.8989 72.5946L24.4168 72.9976L25.406 72.8758C26.7509 72.7098 26.8749 72.5665 25.8877 72.3189C25.5304 72.229 25.2388 72.3106 24.8989 72.5946ZM31.9057 72.7066C31.9759 72.8898 32.0335 73.077 32.0335 73.1225C32.0335 73.168 32.1736 73.2052 32.3447 73.2052C32.7849 73.2052 32.6136 72.5347 32.1508 72.4455C31.8701 72.3915 31.8096 72.4562 31.9057 72.7066ZM26.7566 72.9165C25.4855 73.478 25.7736 73.9077 27.2819 73.7001C28.1702 73.5781 28.2364 73.5322 28.0912 73.1389C27.8968 72.6117 27.5699 72.5572 26.7566 72.9165ZM29.6367 73.7668C30.1394 74.4725 30.6486 74.9067 30.6486 74.6294C30.6486 74.3477 29.6715 73.2052 29.4306 73.2052C29.3239 73.2052 29.4167 73.4578 29.6367 73.7668ZM28.676 73.6283C28.6679 74.0873 29.3408 74.861 29.6565 74.7558C29.8423 74.6939 29.7364 74.4644 29.3016 73.9858C28.8673 73.5082 28.6802 73.4012 28.676 73.6283ZM30.6486 73.5567C30.6486 73.9025 31.2879 74.59 31.6095 74.59C31.9484 74.59 32.4292 74.2373 32.4292 73.9888C32.4292 73.8014 31.4805 73.403 31.035 73.403C30.8225 73.403 30.6486 73.4722 30.6486 73.5567ZM33.0227 73.6008C33.0227 73.7096 33.117 73.7987 33.2322 73.7987C33.3473 73.7987 33.3867 73.7096 33.3194 73.6008C33.2522 73.492 33.158 73.403 33.1099 73.403C33.0618 73.403 33.0227 73.492 33.0227 73.6008ZM9.12508 74.4668C8.25559 75.9406 8.43128 76.5454 9.3712 75.3133C9.86499 74.666 10.0517 73.7987 9.69762 73.7987C9.5995 73.7987 9.34191 74.0992 9.12508 74.4668ZM7.84568 74.5227C7.08045 75.0672 6.90854 75.3813 7.37602 75.3813C7.67179 75.3813 8.68886 74.4408 8.68886 74.1674C8.68886 73.9279 8.67145 73.9352 7.84568 74.5227ZM14.3482 74.3101C14.2819 74.4826 14.1764 75.1279 14.1137 75.7444L13.9998 76.8651L14.6208 76.2055C15.1444 75.649 15.2206 75.448 15.1072 74.9196C14.8942 73.9253 14.5897 73.6808 14.3482 74.3101ZM23.4322 74.5849C23.2377 74.7997 22.9125 75.0284 22.7091 75.0929C22.2094 75.2516 22.2442 75.4723 22.8098 75.7299C23.0684 75.8478 23.5889 76.2152 23.9663 76.5468L24.6524 77.1492L24.4918 76.1169C24.167 74.0321 24.0655 73.8853 23.4322 74.5849ZM26.6118 74.611C26.8191 74.8403 27.3003 75.1902 27.6811 75.3891C28.4681 75.7996 29.3166 76.5589 29.7817 77.2687C30.2089 77.9204 30.4508 77.7099 30.4508 76.6867C30.4508 75.8482 30.436 75.8302 29.0721 75.0167C28.1223 74.4503 27.4663 74.1943 26.9641 74.1943C26.2353 74.1943 26.2351 74.1945 26.6118 74.611ZM6.16645 74.7857C5.81272 75.0013 5.52348 75.268 5.52348 75.3784C5.52348 75.7614 6.11402 75.5762 6.75679 74.9914C7.50897 74.3073 7.15405 74.1835 6.16645 74.7857ZM25.0297 74.7566C24.8147 75.1046 25.3045 77.6153 25.7111 78.2496C26.0232 78.7368 26.0907 78.7724 26.0864 78.4478C26.0834 78.2302 25.9528 77.696 25.7959 77.2608C25.6392 76.8255 25.5081 76.1578 25.5049 75.777C25.498 74.9944 25.2337 74.4266 25.0297 74.7566ZM25.8891 75.048C26.0043 75.3542 26.0998 75.9329 26.1014 76.3339C26.1032 76.7349 26.1979 77.1965 26.3121 77.3597C26.4636 77.5763 26.4994 77.3207 26.4444 76.414C26.3934 75.5726 26.2579 75.0616 26.0244 74.8314C25.6976 74.5085 25.6907 74.5196 25.8891 75.048ZM43.9037 74.6968C43.9037 74.7556 44.0817 75.1526 44.2993 75.5792C45.061 77.072 44.6893 80.5979 43.4896 83.2603C43.1794 83.9488 42.8373 84.4574 42.7295 84.3907C42.4972 84.2473 42.0889 82.8674 42.2353 82.721C42.2911 82.6652 42.388 82.816 42.4507 83.0562C42.5999 83.6261 42.7981 83.6083 43.0753 83.0004C43.3752 82.3422 43.2045 81.9807 42.4735 81.7259C41.8288 81.5012 40.2874 81.4375 40.0973 81.6276C39.9829 81.7419 40.8057 84.3617 41.1047 84.8355C41.2293 85.0329 41.8062 85.0596 43.6726 84.9542L46.0798 84.8181L46.0783 82.8199C46.0755 79.0795 45.4905 75.7812 44.6873 74.978C44.3211 74.6118 43.9037 74.462 43.9037 74.6968ZM11.4586 75.1424C11.4586 75.5303 11.6532 76.2186 12.1902 77.7273C12.4115 78.3499 12.5449 78.5148 12.6697 78.3208C12.8488 78.0426 12.7126 77.0145 12.4507 76.6673C12.3686 76.5585 12.1943 76.1369 12.0633 75.7303C11.7953 74.8978 11.4586 74.5704 11.4586 75.1424ZM16.7497 77.311C15.7981 78.267 15.0196 79.1545 15.0196 79.2833C15.0196 79.7124 15.4756 80.5251 15.7164 80.5251C15.847 80.5251 16.3584 80.1466 16.8528 79.6843C17.5883 78.9964 17.8305 78.5833 18.1842 77.4135C18.422 76.6271 18.5858 75.8912 18.548 75.7782C18.5104 75.6654 17.7011 76.3551 16.7497 77.311ZM27.274 75.9535C27.7339 76.8131 29.4551 77.8404 29.2153 77.1124C29.1194 76.821 27.5381 75.5792 27.2631 75.5792C27.1464 75.5792 27.1505 75.7226 27.274 75.9535ZM19.0911 76.2221C19.0412 76.4669 18.9571 77.2459 18.9043 77.9532C18.8186 79.101 18.8386 79.198 19.0903 78.8551C19.2689 78.6116 19.372 77.9781 19.372 77.1241C19.372 75.7659 19.2582 75.4011 19.0911 76.2221ZM19.7706 76.2221C19.7746 76.7994 20.068 77.2784 20.2437 76.9943C20.4097 76.7254 20.1764 75.777 19.9441 75.777C19.847 75.777 19.7691 75.9772 19.7706 76.2221ZM21.0004 76.2221C21.11 76.5662 23.4858 78.3489 23.8348 78.3489C24.2 78.3489 24.1984 77.8873 23.8308 77.1765C23.6567 76.8396 23.2227 76.4898 22.7388 76.2961C21.7702 75.9086 20.8886 75.871 21.0004 76.2221ZM26.9707 77.0386C26.9131 77.1884 26.8937 77.7425 26.9274 78.2699C26.9841 79.158 27.0472 79.2619 27.78 79.676C28.2153 79.9217 28.7777 80.1244 29.0298 80.1262C29.4146 80.1288 29.4662 80.0578 29.3507 79.6843C29.0656 78.7623 28.4317 77.6992 28.297 77.917C28.2141 78.0511 28.0141 77.8673 27.7905 77.4525C27.398 76.7237 27.1412 76.5941 26.9707 77.0386ZM9.89605 77.7366C9.55854 78.0519 9.28237 78.4126 9.28237 78.5384C9.28237 78.8421 10.4449 78.1623 10.6852 77.718C11.0043 77.1282 10.5355 77.1393 9.89605 77.7366ZM33.7151 77.5575C33.7824 77.6663 34.3217 77.7554 34.9138 77.7554C35.5059 77.7554 35.9902 77.6663 35.9902 77.5575C35.9902 77.4473 35.4588 77.3597 34.7915 77.3597C34.0427 77.3597 33.6387 77.4339 33.7151 77.5575ZM21.6339 78.2452C21.8992 79.6667 22.7316 82.0563 23.0547 82.3244C23.8374 82.9741 24.2376 80.8454 23.5756 79.5527C23.3855 79.1812 22.8377 78.558 22.3583 78.1679L21.4871 77.4586L21.6339 78.2452ZM27.2053 80.1551C27.6827 80.6889 28.8952 81.4644 29.3845 81.5487C29.6642 81.5969 29.7412 81.5136 29.6901 81.2175C29.5851 80.6089 29.2668 80.3272 28.6839 80.3272C28.3915 80.3272 27.9796 80.1964 27.7684 80.0368C27.1507 79.5695 26.7558 79.6526 27.2053 80.1551ZM22.3395 83.2831C22.3395 83.3855 22.4286 83.5242 22.5374 83.5915C22.6462 83.6588 22.7352 83.5749 22.7352 83.4053C22.7352 83.2358 22.6462 83.0969 22.5374 83.0969C22.4286 83.0969 22.3395 83.1806 22.3395 83.2831ZM52.9281 84.8404C52.866 84.9409 52.2951 85.082 51.6594 85.154C49.9758 85.3443 49.1799 86.029 49.9242 86.6469C50.294 86.9537 53.78 86.137 53.946 85.7046C54.1634 85.138 53.2326 84.3476 52.9281 84.8404ZM42.8884 85.8086C42.9954 86.0037 43.5626 86.6334 44.1486 87.2079L45.2139 88.2525L46.2387 88.0327C46.8021 87.9118 47.312 87.7342 47.3715 87.6378C47.5296 87.382 46.67 85.7883 46.4834 85.9914C46.3966 86.086 46.2187 86.4973 46.0884 86.9052C45.8371 87.6918 45.4863 87.9029 45.4863 87.2677C45.4863 87.0589 45.4323 86.7474 45.3663 86.5752C45.2861 86.3663 45.3568 86.2623 45.5785 86.2623C45.7884 86.2623 45.8866 86.1347 45.8448 85.9161C45.7898 85.6278 45.5206 85.5601 44.2362 85.5119C42.8037 85.4581 42.7075 85.4792 42.8884 85.8086ZM51.9655 87.4145C48.9069 88.0359 48.4539 88.1761 48.4539 88.5016C48.4539 89.0834 50.9763 91.4616 52.25 92.0806C53.841 92.8537 54.6853 92.922 56.2437 92.4033C56.9608 92.1647 57.7249 91.8204 57.9415 91.6382C58.334 91.3085 58.334 91.2988 57.9522 89.3586C57.3903 86.5048 57.477 86.6546 56.4035 86.6795C55.8939 86.6914 53.8969 87.0222 51.9655 87.4145ZM49.6868 91.2511C49.778 91.5292 51.3979 92.6824 51.5225 92.558C51.5648 92.5154 51.1506 92.1471 50.6016 91.7391C50.0528 91.3312 49.6411 91.1116 49.6868 91.2511ZM57.0597 92.705L56.0706 93.1814L57.307 93.1839C58.4946 93.1863 58.5435 93.1669 58.5435 92.6919C58.5435 92.0901 58.3326 92.0919 57.0597 92.705Z" fill="#1D6235"/>
</svg>
