<svg width="16" height="1620" viewBox="0 0 16 1620" fill="none" xmlns="http://www.w3.org/2000/svg">
<g filter="url(#filter0_g_205_26)">
<path d="M8.51465 906.339C8.39694 941.774 8.91714 969.669 8.84361 1012.86C8.77008 1056.05 8.49414 1062.52 8.55622 1111.98C8.61829 1161.44 8.42955 1210.93 8.54292 1232.95C8.65632 1254.98 8.31346 1257.3 8.3896 1288.57C8.46574 1319.85 8.42099 1338.8 8.30954 1366.15C8.19809 1393.5 8.10294 1477.53 8.23984 1508.09C8.37674 1538.64 8.13919 1573.49 8.08285 1594.45C8.0653 1600.98 8.04129 1606.12 8.0163 1610.06C8.0057 1611.72 7.98354 1612.5 7.96166 1612.5C7.96165 1612.5 7.96163 1612.5 7.96162 1612.5C7.93438 1612.5 7.9076 1611.3 7.90415 1609.16C7.88745 1598.75 7.84337 1583.19 7.74459 1564.81C7.56039 1530.54 7.76394 1526.8 7.66929 1480.52C7.57465 1434.25 7.38542 1406.45 7.50779 1352C7.63015 1297.55 7.1181 1285.04 7.4083 1208.19C7.69848 1131.33 7.16297 1123.24 7.09177 1046.65C7.02057 970.063 7.31605 873.383 7.29155 827.214C7.26706 781.044 7.20468 719.035 7.27536 653.584C7.34604 588.132 7.16765 507.335 7.29375 435.088C7.41985 362.841 7.57913 260.699 7.68585 213.511C7.79257 166.325 7.81664 154.824 7.75144 109.404C7.71396 83.2969 7.74929 47.3313 7.88714 16.9521C7.95652 1.66339 8.05311 5.12783 8.09933 20.5165C8.16691 43.0197 8.12176 61.4924 8.24248 73.0874C8.48373 96.2564 8.57628 106.104 8.43586 135.353C8.29545 164.601 8.61454 178.382 8.57781 195.432C8.54107 212.483 8.35285 212.202 8.49786 298.896C8.64286 385.591 8.67986 433.117 8.71467 465.948C8.74948 498.779 8.58612 567.332 8.64508 620.837C8.70403 674.344 8.64998 783.12 8.7465 826.968C8.84302 870.816 8.63235 870.906 8.51465 906.339Z" fill="#D4AF37"/>
</g>
<defs>
<filter id="filter0_g_205_26" x="0.000652313" y="0.000164032" width="15.9303" height="1619.58" filterUnits="userSpaceOnUse" color-interpolation-filters="sRGB">
<feFlood flood-opacity="0" result="BackgroundImageFix"/>
<feBlend mode="normal" in="SourceGraphic" in2="BackgroundImageFix" result="shape"/>
<feTurbulence type="fractalNoise" baseFrequency="1.1298792362213135 1.1298792362213135" numOctaves="3" seed="8102" />
<feDisplacementMap in="shape" scale="14.160804748535156" xChannelSelector="R" yChannelSelector="G" result="displacedImage" width="100%" height="100%" />
<feMerge result="effect1_texture_205_26">
<feMergeNode in="displacedImage"/>
</feMerge>
</filter>
</defs>
</svg>
