<svg width="429" height="166" viewBox="0 0 429 166" fill="none" xmlns="http://www.w3.org/2000/svg">
<path fill-rule="evenodd" clip-rule="evenodd" d="M424.369 5.67196C422.651 12.5249 425.099 27.1493 427.966 27.1493C430.832 27.1493 421.109 20.2195 419.391 13.3665C418.609 10.2466 429.161 0 427.966 0C426.77 0 425.151 2.55205 424.369 5.67196ZM387.311 11.9593C380.795 15.2579 376.766 24.7489 379.294 30.8439C380.809 34.4932 381.311 34.1448 382.983 28.2828C387.021 14.1426 403.195 11.052 412.877 22.5701C421.624 32.9706 422.553 41.5113 416.268 53.7308C413.327 59.4525 409.687 64.543 408.184 65.0453C406.267 65.6856 406.448 64.0385 408.779 59.5634C415.152 47.3371 411.324 31.6742 401.967 31.6742C398.546 31.6742 391.794 37.7014 391.794 40.7511C391.794 44.095 395.874 45.4435 396.885 42.4344C398.712 37.0045 405.358 45.4028 405.358 53.1403C405.358 70.1245 399.753 87.7076 371.733 85.7845C350.744 84.3456 330.032 70.3145 347.216 70.2037C360.159 70.1222 373.707 64.9389 373.707 60.0702C373.707 54.776 363.914 55.7127 349.899 62.3485C343.178 65.5317 333.83 68.6064 329.128 69.181L320.58 70.2263L330.021 65.819C343.549 59.5068 348.12 49.3779 340.766 42.0159C338.81 40.0611 334.899 38.4616 332.073 38.4616C326.345 38.4616 317.892 46.2806 321.326 48.405C322.519 49.1426 324.079 48.2263 324.794 46.3666C326.275 42.5068 336.522 41.7783 338.745 45.3779C341.446 49.7534 337.721 58.0136 331.831 60.6991C324.568 64.0113 289.26 69.847 261.59 72.9933C186.208 81.5646 84.2454 57.7376 67.5724 63.086C50.3884 68.5973 33.2565 80.8982 23.576 94.6743C17.1577 103.805 16.6309 106.115 15.5752 129.715C14.4516 154.824 18.3042 162.982 12.7088 162.982C8.28228 162.982 2.87427 153.525 1.73485 148.19L0.285736 141.403L0.0166646 148.303C-0.449049 160.346 8.93758 164.699 16.7485 156.061L20.8811 151.491L26.7071 156.916C29.9106 159.901 34.7531 163.487 37.4683 164.882C44.4359 168.464 57.4419 160.81 64.9657 156.916C74.6846 151.887 91.8936 146.02 95.5288 134.082C97.3352 128.154 100.536 119.93 102.643 115.81C104.753 111.688 105.774 107.615 104.915 106.76C102.693 104.543 94.8709 114.846 93.4286 121.892C92.7594 125.156 91.3509 130.882 90.2974 134.615L88.3802 141.403L88.1497 135.233C87.8784 127.982 79.0004 121.111 72.5482 123.158C70.188 123.907 67.2084 126.828 65.9243 129.647C63.7087 134.516 63.9914 134.729 71.4925 133.851C80.3569 132.817 83.3094 135.649 83.3637 145.247C83.4337 157.819 60.2136 168.306 44.0945 162.982C34.1924 159.713 23.3544 147.627 20.2323 136.373C16.6875 123.595 17.5736 117.19 21.4282 127.729C27.5006 144.319 39.894 153.401 50.7999 149.251C60.035 145.738 56.1489 141.403 43.7622 141.403C33.8104 141.403 32.298 140.686 27.5708 133.715C19.7735 122.22 19.0342 91.8553 27.5708 80.0611C35.3794 69.2715 56.662 69.3734 64.9657 69.4005C68.2641 69.4118 76.69 72.1426 83.6893 75.4684C90.8762 78.8847 98.0608 80.8847 100.202 80.0611C103.572 78.767 103.414 77.9887 98.7798 72.9933C95.9154 69.905 91.5363 66.586 89.0495 65.6177C85.2944 64.1562 86.0133 63.5724 93.2929 62.1675C103.857 60.1267 286.813 64.3032 295.96 68.2082C311.306 74.7625 317.175 85.6629 308.001 90.5747C302.249 93.6562 296.842 89.9752 296.842 82.9819C296.842 79.5634 296.163 78.9593 294.357 80.767C290.484 84.6426 294.253 92.5928 300.732 94.2195C311.916 97.0295 319.25 86.6811 313.687 75.9435C310.831 70.439 310.901 69.9842 314.428 71.0725C356.763 84.12 395.291 82.5883 411.758 67.1991C428.897 51.1855 422.502 31.0117 403.505 21.1814C395.346 16.9574 394.755 8.19004 387.311 11.9593ZM67.5724 41.3037C41.9106 44.1362 27.4621 67.0905 17.6731 86.2942C12.2993 96.8326 12.0484 101.048 17.3657 91.4322C31.4976 65.8733 55.7306 52.2602 91.3102 49.8914C106.111 48.9073 109.193 48.2444 102.614 47.4593C97.6403 46.8666 75.3878 40.4417 67.5724 41.3037Z" fill="#D4AF37"/>
</svg>
