<svg width="1089" height="1" viewBox="0 0 1089 1" fill="none" xmlns="http://www.w3.org/2000/svg">
<path d="M609.993 0.189947C634.03 0.256441 652.952 -0.0374401 682.249 0.0041013C711.545 0.0456433 715.933 0.201533 749.486 0.166461C783.036 0.131395 816.606 0.238022 831.545 0.173975C846.484 0.10991 848.06 0.303606 869.274 0.260587C890.487 0.217574 903.344 0.242859 921.897 0.305819C940.45 0.36878 997.45 0.422535 1018.18 0.345195C1038.9 0.267855 1062.54 0.402055 1076.76 0.433884C1081.19 0.443799 1084.67 0.457367 1087.34 0.471483C1088.48 0.477468 1089 0.489989 1089 0.502349C1089 0.502357 1089 0.502365 1089 0.502373C1089 0.517762 1088.19 0.532893 1086.73 0.534837C1079.67 0.544276 1069.12 0.569176 1056.65 0.624983C1033.41 0.729043 1030.87 0.61405 999.478 0.66752C968.088 0.72099 949.229 0.827892 912.296 0.75876C875.363 0.689634 866.88 0.978909 814.745 0.814965C762.612 0.651032 757.125 0.953563 705.172 0.993788C653.219 1.03401 587.638 0.867083 556.32 0.880921C525.002 0.89476 482.939 0.929996 438.542 0.890066C394.144 0.850138 339.337 0.950917 290.33 0.879677C241.323 0.808438 172.037 0.718459 140.028 0.658167C108.02 0.597877 100.218 0.584278 69.4092 0.621113C51.6997 0.642287 27.3033 0.622325 6.69618 0.544447C-3.67463 0.505254 -1.3246 0.450684 9.11397 0.424575C24.3786 0.386396 36.9091 0.411904 44.7743 0.343706C60.4906 0.20741 67.1702 0.155125 87.0109 0.234457C106.851 0.313779 116.199 0.133511 127.764 0.15426C139.33 0.17502 139.14 0.28135 197.947 0.199432C256.755 0.117512 288.993 0.0966106 311.263 0.0769448C333.533 0.0572789 380.035 0.149567 416.329 0.116261C452.624 0.0829566 526.41 0.113489 556.154 0.0589609C585.897 0.00443665 585.958 0.123453 609.993 0.189947Z" fill="#D4AF37"/>
</svg>
