<svg width="303" height="45" viewBox="0 0 303 45" fill="none" xmlns="http://www.w3.org/2000/svg">
<path fill-rule="evenodd" clip-rule="evenodd" d="M8.10806 43.2745C-1.46564 38.1684 -2.50815 23.2085 6.12903 14.8906C14.4278 6.89714 33.8444 6.10155 55.1793 12.8787C56.9566 13.444 56.9919 13.2078 55.553 10.3486C52.7491 4.77126 56.4451 -0.60397 62.0813 0.855591C65.3465 1.70053 67.2458 5.83008 65.2942 7.84314C64.3839 8.7821 64.0421 8.46835 64.0421 6.69267C64.0421 3.06022 61.3168 1.14822 58.4184 2.7488C53.795 5.30009 56.7527 10.9621 64.4864 14.3665C68.8148 16.2711 240.919 18.3 256.621 17.663C256.755 17.6575 256.878 17.6519 256.991 17.6461C257.039 17.6436 273.283 17.8922 275.66 17.663C278.038 17.4337 285.17 15.0564 288.339 11.0942C291.509 7.13205 302.603 0.000156403 302.603 0.000156403C302.603 0.000156403 301.811 10.3018 289.924 13.4715C285.869 14.5528 281.262 14.9456 275.66 15.8488C268.268 17.0407 264.109 18.4688 256.642 19.811C197.5 30.4411 120.344 13.33 92.6085 13.33C64.8734 13.33 50.0693 16.5464 46.4087 18.2669C43.4408 19.6618 41.5632 23.9523 42.9247 26.2251C44.0446 28.0948 49.2092 27.7164 49.9554 25.7116C50.3155 24.7456 51.1016 24.2696 51.7032 24.6527C53.4338 25.7562 49.1738 29.8176 46.2868 29.8176C44.8627 29.8176 42.8916 28.9868 41.9061 27.9714C38.1999 24.1474 40.5036 18.8862 47.3213 15.6075L52.0792 13.3183L47.7714 13.8612C45.4016 14.1597 40.6904 15.7567 37.3032 17.4102C30.2405 20.857 25.305 21.3435 25.305 18.5936C25.305 16.0646 32.133 13.3723 38.6556 13.33C47.3156 13.2724 38.2065 6.29459 27.6291 5.54718C13.5083 4.54829 9.35446 13.3711 9.35446 22.1931C9.35446 26.2122 12.704 30.5744 13.6246 27.754C14.1339 26.1911 16.1903 26.8915 16.1903 28.6284C16.1903 30.2125 12.7872 33.3431 11.0634 33.3431C6.34778 33.3431 4.41895 25.2074 7.63068 18.8568C8.80533 16.5323 8.89645 15.6768 7.93033 16.0094C7.17267 16.2703 5.33835 18.9144 3.85608 21.8864C0.688782 28.2335 -2.13681 35.8044 2.27124 41.2066C7.15094 47.1894 18.5955 42.4495 20.6303 35.1047C21.4734 32.0598 21.7263 31.8789 22.4897 33.7744C23.7634 36.9403 21.7332 41.8702 18.4496 43.5835C14.6978 45.5414 12.2199 45.4685 8.10806 43.2745Z" fill="#D4AF37"/>
</svg>
