<svg width="69" height="59" viewBox="0 0 69 59" fill="none" xmlns="http://www.w3.org/2000/svg">
<path fill-rule="evenodd" clip-rule="evenodd" d="M54.4862 0.189252C53.8713 0.458785 53.089 1.32135 52.8228 2.02328C52.6588 2.45554 52.608 2.9412 52.6437 3.73345C52.6885 4.72588 52.7635 4.98171 53.3725 6.2167C54.2037 7.90253 55.4032 9.2295 56.3491 9.50938C56.9256 9.67994 56.9908 9.6668 57.9639 9.18198L58.9779 8.67674L59.0656 9.34204C59.1713 10.1448 59.7693 11.4037 60.1396 11.6032C60.6703 11.889 62.648 11.9264 63.7839 11.6721C66.1674 11.138 67.9511 9.82686 68.3976 8.28041C69.0101 6.15909 67.4948 4.62243 65.3636 5.20385C64.9865 5.30675 64.9818 5.29989 64.9818 4.65053C64.9818 3.83396 64.5454 2.8906 63.9801 2.48546C63.7459 2.31756 63.2631 2.15413 62.8961 2.11862C62.3703 2.06774 62.1967 1.98372 62.0511 1.70985C61.7788 1.19763 60.8264 0.689317 60.139 0.689317C59.5361 0.689317 58.6427 1.063 58.3254 1.44801C58.0632 1.76605 57.9586 1.72579 57.622 1.17736C57.0009 0.165634 55.5693 -0.285505 54.4862 0.189252ZM54.2002 1.60612C53.8692 1.9394 53.8486 2.03684 53.8978 3.03906C53.9368 3.83647 54.0496 4.33122 54.3338 4.95319C54.7635 5.89348 56.93 9.20308 57.1213 9.21161C57.1892 9.21455 57.6423 8.86574 58.128 8.43628C58.9979 7.66739 59.0112 7.64474 59.0134 6.93344C59.0182 5.32463 59.6537 3.75455 60.6267 2.94693C61.2298 2.44659 61.1844 2.16951 60.4486 1.86C59.7364 1.56041 59.127 1.70789 58.6052 2.30623C58.3703 2.57562 58.1781 2.88459 58.1781 2.99293C58.1781 3.20529 57.6622 3.6251 57.4013 3.6251C57.3135 3.6251 57.2033 3.38926 57.1562 3.10085C56.9732 1.97826 56.148 1.24851 55.0614 1.24851C54.7038 1.24851 54.4512 1.35336 54.2002 1.60612ZM62.4228 4.09776C62.3203 4.78543 61.6499 5.98379 60.7756 7.04207L60.1914 7.74917L60.3157 9.53161L60.44 11.314L60.8017 11.3124C61.4898 11.3093 65.246 10.3471 65.9276 9.99923C66.7339 9.58794 67.2782 8.9836 67.469 8.28768C67.6663 7.56813 67.5142 7.03857 66.9727 6.5599C66.3383 5.99902 65.404 5.97442 64.6376 6.49797C63.784 7.08107 63.5023 6.8676 63.8797 5.92353C64.1185 5.32617 63.9422 4.55532 63.4332 3.97166C62.8388 3.29 62.5374 3.3276 62.4228 4.09776ZM60.9648 3.99389C60.6691 4.37246 60.2609 5.56118 60.2609 6.04418C60.2609 6.75618 61.3023 5.16023 61.4517 4.21924C61.562 3.52416 61.393 3.44588 60.9648 3.99389ZM38.9474 11.3937C38.7947 11.4306 38.2444 11.5586 37.7247 11.6781C33.6724 12.6104 30.7111 15.4652 29.9095 19.2127C29.6177 20.577 29.5716 24.4294 29.8286 25.977C29.9229 26.545 29.9787 27.0312 29.9526 27.0575C29.9265 27.0837 29.003 27.2625 27.9004 27.4547C20.4842 28.7477 12.5027 31.9378 6.17882 36.1364C3.5254 37.898 1.83101 39.5384 0.915711 41.2313C0.446398 42.0996 0 44.3142 0 45.7745C0 49.9085 1.88031 53.4316 4.88114 54.9202C6.78033 55.8623 8.53802 56.2021 11.9643 56.2901C15.0915 56.3702 16.8707 56.2395 20.1118 55.6915C26.09 54.6806 32.3805 52.4158 37.5404 49.4164C38.2748 48.9896 38.9273 48.6404 38.9903 48.6404C39.0535 48.6404 39.6914 49.4036 40.4081 50.3365C42.8603 53.5285 45.751 56.1535 48.0757 57.2993C49.5687 58.0352 50.5968 58.2865 52.1126 58.2865C54.6354 58.2865 56.89 57.2959 58.8999 55.3044C60.3647 53.8528 61.5912 51.6914 61.9983 49.8435C62.3757 48.131 62.2263 44.6166 61.6619 41.9301C60.539 36.5862 59.2753 32.9182 56.9897 28.3695C54.2427 22.9026 50.9713 18.1494 47.7044 14.8789C44.8432 12.0146 43.8569 11.5064 40.9396 11.3933C39.9967 11.3567 39.1001 11.357 38.9474 11.3937ZM39.1557 12.2296C39.0411 12.2541 38.7075 12.3136 38.4142 12.362C37.2379 12.5559 36.0863 14.2504 35.611 16.4866C35.2743 18.0705 35.1966 21.4309 35.4577 23.1213C35.6701 24.4977 35.6546 24.8511 35.3991 24.4511C34.7008 23.3577 34.5199 18.1842 35.1031 15.9892C35.3981 14.8793 35.9714 13.646 36.4238 13.149L36.7258 12.8172L36.3787 12.9195C36.1878 12.9758 35.7856 13.1567 35.4852 13.3213C34.5316 13.844 33.4628 16.2782 33.4628 17.9278C33.4628 18.9317 33.2933 20.2612 33.1654 20.2612C32.9738 20.2612 33.0332 17.4804 33.2462 16.4683C33.3535 15.9585 33.6035 15.2192 33.8016 14.8257C34.2695 13.896 34.0767 13.9065 33.467 14.844C32.8808 15.7451 32.2796 17.4645 32.0617 18.8632C31.8234 20.393 31.9956 25.2315 32.3529 27.0414C32.7814 29.2127 32.6647 29.7401 32.1363 28.02C30.983 24.2657 30.808 19.7305 31.7118 17.0109C31.8843 16.4919 32.006 16.0672 31.9824 16.0672C31.82 16.0672 31.0903 17.8726 30.8806 18.7933C30.5128 20.4081 30.5466 24.0563 30.9503 26.3424C31.5274 29.6096 32.6987 33.5144 34.1699 37.0755C34.5582 38.0155 34.9228 38.8342 34.9803 38.895C35.0377 38.9557 35.2189 38.8928 35.383 38.7552L35.6814 38.505L35.1914 37.3167C34.2172 34.9541 33.6231 33.0497 33.9941 33.4792C34.0573 33.5522 34.3466 34.2096 34.6372 34.9401C35.1868 36.322 36.1006 38.1555 36.2396 38.1555C36.2837 38.1555 36.525 37.9825 36.7758 37.771L37.2318 37.3866L36.5892 35.6585C36.2358 34.7082 35.9813 33.8957 36.0238 33.8529C36.1333 33.7426 36.1288 33.735 36.9276 35.3944C37.3254 36.2211 37.7265 36.8973 37.819 36.8973C37.9115 36.8973 38.2615 36.6157 38.5969 36.2715L39.2069 35.6458L38.5443 33.9667C38.1798 33.0432 37.908 32.2083 37.94 32.1114C37.9721 32.0145 38.3578 32.6428 38.7972 33.5076C39.2365 34.3724 39.6414 35.0799 39.6969 35.0799C39.7526 35.0799 39.9634 34.9061 40.1655 34.6936L40.5331 34.3074L39.9237 32.6984C39.2557 30.9349 37.9398 26.7084 37.5092 24.9445C36.9799 22.7753 36.8644 21.7598 36.8815 19.4224C36.8951 17.5424 36.9532 16.9088 37.1961 15.9973C37.5804 14.5538 38.1058 13.5174 38.8373 12.7596C39.1594 12.4259 39.4098 12.1601 39.3935 12.1691C39.3773 12.178 39.2702 12.2053 39.1557 12.2296ZM40.1547 12.5817C38.5997 13.38 37.77 15.6857 37.7687 19.2127C37.7675 22.4328 38.3073 26.3986 39.1104 29.0685C39.5851 30.6473 40.6133 33.3546 40.8287 33.5937C40.8889 33.6605 41.0649 33.4652 41.2197 33.1598C41.3748 32.8537 41.4487 32.5481 41.3842 32.4791C40.9164 31.9776 39.6884 27.6844 39.1493 24.6649C37.9732 18.08 39.5202 13.3908 42.9874 13.0305L43.7776 12.9484L43.2369 12.668C42.4014 12.2348 40.912 12.1931 40.1547 12.5817ZM44.2238 14.485C45.3984 15.2783 47.7833 17.6579 48.4958 18.7473C49.5669 20.3851 49.3185 20.409 48.0189 18.7933C46.9697 17.489 45.2087 15.9137 43.9847 15.1848C42.9616 14.5753 41.8758 14.1883 41.5463 14.3155C41.3662 14.3852 41.5031 14.5121 42.1144 14.8424C43.0961 15.3728 44.2052 16.5497 44.822 17.7153C45.0746 18.1929 45.2502 18.5836 45.2123 18.5836C45.1743 18.5836 44.5593 17.9889 43.8456 17.2622C42.539 15.9316 41.6847 15.3774 40.9309 15.3713C40.6982 15.3693 40.4989 15.4717 40.4102 15.6386C40.2075 16.0201 40.2007 16.0102 40.8896 16.346C41.8156 16.7973 44.0763 19.4446 44.512 20.588C44.7027 21.0887 44.3259 20.7756 43.6278 19.854C42.506 18.3731 41.2575 17.3643 40.2318 17.1101C39.5378 16.9382 39.7925 17.4392 41.0979 18.8141C44.6804 22.587 49.0286 29.5659 51.6302 35.7184C53.5439 40.2434 54.9842 45.6055 55.2196 49.0813C55.2953 50.1969 55.3285 50.3035 55.647 50.4497C55.837 50.5368 56.018 50.5824 56.0493 50.5509C56.0805 50.5194 56.1137 49.7464 56.123 48.833C56.1465 46.5356 55.6122 43.8781 54.2172 39.3541C53.8674 38.2199 53.6033 37.2251 53.6302 37.1436C53.713 36.8938 54.5671 38.9544 55.2664 41.0913C56.2426 44.0732 56.9285 47.704 56.9285 49.8894C56.9285 50.5006 56.9754 51.0283 57.0326 51.0621C57.0898 51.0961 57.3321 51.166 57.5709 51.2176L58.0051 51.3113L58.1805 50.3756C58.4022 49.1923 58.2931 47.5536 57.8361 45.2002C57.3293 42.591 57.5786 42.7259 58.2514 45.425C58.6533 47.0371 58.8774 49.1315 58.7725 50.2958C58.7069 51.0252 58.7289 51.1568 58.9176 51.1568C59.3118 51.1568 60.0855 50.3481 60.1809 49.8363C60.2624 49.3991 60.0712 46.6346 59.9074 45.8794C59.8697 45.7064 59.8965 45.5648 59.9669 45.5648C60.1833 45.5648 60.4023 46.4092 60.5447 47.7904C60.6194 48.516 60.703 49.1322 60.7306 49.1599C60.8484 49.2785 61.1301 47.7778 61.196 46.6806C61.3375 44.3296 60.5756 40.1415 59.3403 36.4779C57.4764 30.9506 54.1039 24.5101 50.5557 19.702C49.511 18.2862 47.1994 15.8986 46.1221 15.1225C45.2747 14.5118 43.8888 13.8406 43.4616 13.8338C43.3478 13.832 43.6908 14.125 44.2238 14.485ZM39.6654 19.1639C39.5463 19.6226 39.8148 23.599 40.0661 25.0981C40.3494 26.7885 40.4512 27.1408 40.6901 27.2608C40.8008 27.3163 41.3599 27.586 41.9327 27.8602C42.6877 28.2218 43.3289 28.6918 44.2652 29.5703C46.8121 31.9597 47.9053 34.266 47.9014 37.2412C47.8998 38.4509 47.8409 38.809 47.4754 39.8331C47.2422 40.4866 47.0203 41.1194 46.9821 41.239C46.8718 41.5859 49.3162 44.7466 51.2148 46.7124C52.8031 48.3568 54.3625 49.7335 54.49 49.6038C54.6041 49.4879 54.0153 45.9742 53.6141 44.3765C52.2881 39.0965 50.0074 33.6837 46.8988 28.4394C44.6429 24.634 42.0211 21.0457 40.227 19.3083C39.7531 18.8494 39.7475 18.848 39.6654 19.1639ZM33.2839 22.1655C33.0413 22.4098 33.3434 24.4552 33.6221 24.4552C33.6946 24.4552 33.7085 24.0535 33.6547 23.5115C33.5499 22.4524 33.4302 22.0182 33.2839 22.1655ZM28.1328 28.1761C22.9783 29.0565 17.6563 30.8434 12.0799 33.566C8.62633 35.2523 6.46388 36.6648 4.85197 38.2876C3.63175 39.5161 3.09899 40.3741 2.96597 41.3244C2.89113 41.8593 2.89196 41.8588 3.47513 40.9515C4.22756 39.7808 6.10967 37.9182 7.05607 37.4077C7.46207 37.1886 7.82392 37.0392 7.86016 37.0757C7.89626 37.112 7.48803 37.4686 6.9529 37.868C4.53317 39.6741 2.73327 42.3767 3.37198 43.2444C3.5572 43.4959 3.59108 43.4761 3.99972 42.878C4.44042 42.2331 5.76158 40.9515 5.98555 40.9515C6.23839 40.9515 6.09245 41.1893 5.46735 41.7961C4.73881 42.5032 4.02665 43.5449 4.02665 43.9032C4.02665 44.0357 4.24978 44.2829 4.52262 44.4527L5.0186 44.7613L5.45986 44.3398C6.10079 43.7274 9.19145 41.4915 9.2774 41.578C9.40473 41.7064 8.71297 42.3493 7.60703 43.1301C6.50568 43.9079 5.554 44.7764 5.554 45.0039C5.554 45.0748 5.76143 45.172 6.01484 45.2198C6.42569 45.2974 6.60357 45.2099 7.65022 44.415C12.8427 40.4721 22.0974 36.6073 30.1772 35.008C31.0813 34.8291 31.8436 34.6598 31.8715 34.6317C31.8994 34.6037 31.7362 33.9853 31.5089 33.2576C31.2816 32.5298 30.8723 31.0222 30.5993 29.9073C30.3263 28.7924 30.0935 27.8727 30.082 27.8635C30.0705 27.8542 29.1933 27.9949 28.1328 28.1761ZM41.5643 28.9236C42.5143 29.9823 42.6919 30.8781 42.2727 32.4985C41.4791 35.5663 38.3237 38.5286 32.9074 41.2907C26.597 44.5089 21.2917 46.2011 15.3437 46.8928C8.7363 47.6613 3.57817 46.2867 2.35879 43.4329C1.98153 42.5501 2.02804 41.3503 2.47681 40.3892L2.76908 39.7632L2.34087 40.2525C1.84087 40.8238 1.30783 41.9225 1.17648 42.6523C1.11816 42.9764 1.1687 43.4569 1.31394 43.9602C1.97986 46.2665 5.09927 47.6311 10.4006 47.9348C12.6399 48.0632 15.935 47.9115 17.7728 47.5955C27.8582 45.8615 40.5059 38.979 43.2973 33.7059C44.2325 31.9393 44.1315 30.7668 42.9441 29.6068C42.5788 29.2497 41.9986 28.8161 41.655 28.643L41.0302 28.3282L41.5643 28.9236ZM44.6702 31.0403C45.0131 34.1515 40.4592 38.7323 33.1667 42.6114C27.4996 45.6261 20.4497 47.7468 13.3296 48.5788C8.86418 49.1006 4.66411 48.4995 2.49208 47.0278L1.79435 46.5552L2.08288 46.963C2.83698 48.0293 4.61829 49.0186 7.18452 49.7963C8.04317 50.0566 8.79296 50.3205 8.85072 50.383C8.99901 50.5432 6.78351 50.3553 5.64369 50.1111C4.38918 49.8423 2.88543 49.1353 1.96153 48.3801L1.21536 47.7703L1.6144 48.509C2.1212 49.4476 3.04803 50.1926 4.68619 50.9781C5.39265 51.3169 5.97055 51.6285 5.97055 51.6706C5.97055 51.9808 3.51013 51.0652 2.45057 50.3609L1.73562 49.8856L2.48208 50.5831C3.81351 51.827 5.90724 52.729 8.49346 53.1724C9.67382 53.3748 14.2632 53.8026 15.336 53.81C15.6523 53.8123 15.708 53.8509 15.5806 53.9791C15.3382 54.2231 10.1974 54.3137 8.72324 54.1C6.98401 53.8478 5.41987 53.4207 4.38752 52.916L3.46181 52.4634L3.9757 52.9932C5.67119 54.7415 10.4433 55.7383 15.2682 55.3522C23.8172 54.6677 32.6383 51.6935 39.6417 47.1342C42.5275 45.2555 45.0401 42.9079 46.0947 41.1057C47.1551 39.2933 47.5683 37.173 47.2201 35.3312C47.0104 34.2219 45.8705 31.8526 45.1486 31.0257L44.5994 30.3966L44.6702 31.0403ZM44.5708 35.206C44.5708 35.4824 41.8234 38.2184 40.425 39.3343C38.5188 40.8557 37.6951 41.9127 38.8998 41.2921C39.8912 40.7813 42.3824 38.5782 43.4592 37.2602C44.2201 36.3287 44.9413 35.0799 44.7183 35.0799C44.6372 35.0799 44.5708 35.1366 44.5708 35.206ZM30.5106 35.6464C24.8405 36.7309 18.3687 39.0278 12.8133 41.9273C10.0401 43.3747 6.95499 45.4781 7.38167 45.6305C8.43777 46.008 12.7134 46.2189 14.7875 45.9962C18.2953 45.6195 23.7345 44.2756 27.0156 42.9749C28.8586 42.2445 33.6518 39.9509 33.7833 39.7366C33.8969 39.5516 32.191 35.3559 32.0093 35.3733C31.9305 35.3809 31.2561 35.5038 30.5106 35.6464ZM43.6637 38.7382C41.5375 41.0309 40.8086 42.0984 42.0395 41.1168C43.1146 40.2594 44.5218 38.4969 44.4074 38.151C44.3785 38.0639 44.0439 38.3281 43.6637 38.7382ZM7.9686 39.4998C7.2924 39.9576 7.29503 39.955 7.39889 40.0597C7.49748 40.1589 8.74686 39.3984 8.74727 39.2389C8.74769 39.0507 8.51803 39.1276 7.9686 39.4998ZM43.5171 40.8853C43.3117 41.1565 43.1839 41.4189 43.2329 41.4684C43.3349 41.571 43.9754 41.0039 44.1719 40.6369C44.4193 40.1749 43.9087 40.3686 43.5171 40.8853ZM46.1666 42.403L45.9128 42.8775L46.5926 43.8366C50.2865 49.0489 55.0432 53.1719 57.7259 53.4867C59.5183 53.6969 60.9845 52.2155 61.3127 49.8622L61.3953 49.2695L60.9736 49.9868C60.444 50.8874 59.5422 51.674 58.8103 51.8734C58.5008 51.9577 57.8981 51.9903 57.471 51.9457C54.8416 51.6714 51.0958 48.4988 47.6266 43.6076C46.9996 42.7234 46.4715 41.9839 46.4535 41.9642C46.4353 41.9445 46.3063 42.142 46.1666 42.403ZM59.1967 43.1437C59.2423 43.4266 59.3754 43.7547 59.4925 43.8726C59.6839 44.0652 59.7055 44.0577 59.7055 43.7983C59.7055 43.3694 59.4217 42.629 59.2571 42.629C59.1695 42.629 59.1459 42.829 59.1967 43.1437ZM44.9692 43.8294L44.6086 44.1924L46.1289 46.6375C47.5375 48.9032 47.8294 49.5202 47.2723 49.0548C47.1508 48.9531 46.4232 47.9376 45.6557 46.798C44.8881 45.6585 44.2206 44.7287 44.1725 44.7319C44.1243 44.7351 43.8494 44.9472 43.5617 45.2032L43.0385 45.6687L43.5357 46.5605C43.8091 47.0509 44.3147 47.8198 44.659 48.2691C45.0033 48.7186 45.2487 49.1229 45.2043 49.1676C45.0567 49.3162 44.2797 48.4472 43.4609 47.2181L42.6532 46.0053L42.0846 46.4263C41.7719 46.6578 41.5161 46.8778 41.5161 46.9153C41.5161 47.1672 43.708 50.1328 44.9902 51.6155C45.8398 52.5981 46.5142 53.465 46.4889 53.5416C46.3473 53.9693 43.4359 50.9165 41.848 48.6754C41.3441 47.9642 40.8914 47.3836 40.8422 47.3853C40.7929 47.387 40.6123 47.4971 40.441 47.6299L40.1297 47.8715L41.1653 49.2235C43.6914 52.5215 46.8903 55.4752 49.2223 56.6628C51.8438 57.9977 54.6669 57.8656 57.1331 56.2926C57.9013 55.8026 59.3028 54.5206 59.7309 53.9163L60.0043 53.5303L59.473 53.8464C59.0341 54.1075 58.7488 54.1604 57.831 54.1507C56.449 54.1362 55.6822 53.8409 53.8738 52.6271C51.5221 51.0485 49.1994 48.6401 46.7258 45.2153C46.0593 44.2927 45.4727 43.5217 45.422 43.502C45.3713 43.4824 45.1675 43.6296 44.9692 43.8294ZM11.8635 50.2576C11.613 50.4613 11.6498 50.4719 12.3856 50.4082C13.5384 50.3084 13.908 50.0482 12.9049 50.0426C12.4057 50.0399 12.0377 50.1158 11.8635 50.2576Z" fill="#1D6235"/>
</svg>
