<svg width="56" height="49" viewBox="0 0 56 49" fill="none" xmlns="http://www.w3.org/2000/svg">
<path fill-rule="evenodd" clip-rule="evenodd" d="M10.5976 0.758856C9.49675 1.71579 0.788537 14.2374 0.788537 14.8628C0.788537 15.6036 27.7888 48.5663 28.396 48.5663C28.8813 48.5663 55.9861 15.4401 55.9861 14.8466C55.9861 14.7135 53.7506 11.4784 51.0187 7.65734C47.7282 3.05519 45.6981 0.572371 45.0061 0.302911C44.3292 0.0397728 38.2042 -0.0558467 27.6201 0.031471C13.7959 0.145261 11.174 0.257471 10.5976 0.758856ZM14.8269 7.35786C16.2289 10.5531 17.4614 13.2524 17.5654 13.3571C17.8197 13.6115 17.8122 13.6206 22.6247 7.17927L26.8311 1.54906H19.5545H12.2775L14.8269 7.35786ZM29.9644 1.72369C29.9644 2.08284 38.4802 13.1516 38.8469 13.2694C39.1713 13.3733 43.7638 2.70078 43.7638 1.84341C43.7638 1.68142 40.6589 1.54906 36.8641 1.54906C33.0693 1.54906 29.9644 1.62768 29.9644 1.72369ZM6.51963 8.16703L2.353 13.9948L5.90772 14.1086C7.8629 14.171 11.0273 14.171 12.9399 14.1086L16.4169 13.9948L13.8495 8.16703C12.4372 4.96156 11.1479 2.33927 10.9843 2.33927C10.8207 2.33927 8.81151 4.96156 6.51963 8.16703ZM23.4401 8.16703L18.8382 13.9948L23.6352 14.1058C26.2737 14.1671 30.4604 14.1671 32.9388 14.1058L37.4449 13.9948L33.074 8.16703C30.6701 4.96156 28.5545 2.33927 28.3727 2.33927C28.1906 2.33927 25.9713 4.96156 23.4401 8.16703ZM42.6713 8.26581L40.28 14.1923H47.1742H54.0684L53.3094 13.1058C48.3807 6.05086 45.648 2.33927 45.3834 2.33927C45.2068 2.33927 43.9862 5.00621 42.6713 8.26581ZM2.75988 15.5827C2.75988 15.6957 4.48993 17.885 6.604 20.4476C8.71806 23.0106 13.4095 28.7412 17.0292 33.1822C20.6486 37.6231 24.3244 42.0569 25.1977 43.0348L26.7854 44.8128L22.6464 32.3671C20.3699 25.5219 18.136 18.8992 17.6822 17.6495L16.8573 15.3777H9.80861C5.93176 15.3777 2.75988 15.4701 2.75988 15.5827ZM18.5306 15.5839C18.5306 15.9671 27.6185 43.2221 28.1449 44.4177L28.6669 45.603L29.5445 42.6397C32.0473 34.1881 36.6129 19.977 38.1443 15.8715C38.2886 15.4847 36.184 15.3777 28.4295 15.3777C22.9851 15.3777 18.5306 15.4705 18.5306 15.5839ZM39.4698 16.2666C38.591 18.6214 30.7541 42.5907 30.5239 43.6275C30.2909 44.6773 30.3275 44.7452 30.8456 44.2201C32.8966 42.1427 53.6185 16.1683 53.6197 15.674C53.6201 15.5108 50.5113 15.3777 46.7109 15.3777C39.9067 15.3777 39.7967 15.3911 39.4698 16.2666ZM4.09881 28.3173C3.37454 30.6614 2.73858 31.5227 1.40477 31.9637C0.632008 32.2193 0 32.5567 0 32.7136C0 32.8704 0.639114 33.23 1.41977 33.5129C2.55605 33.9246 3.01379 34.4232 3.71046 36.0048L4.5814 37.9822L5.06044 36.3797C5.5107 34.874 7.20565 33.1573 8.24178 33.1573C9.04412 33.1573 8.68101 32.5417 7.44774 31.8115C6.7282 31.3856 5.90615 30.371 5.45786 29.3556C4.61571 27.4476 4.41462 27.2939 4.09881 28.3173ZM51.3168 30.2888C50.397 31.1877 50.1904 31.5769 50.6327 31.5769C50.9813 31.5769 51.603 32.1316 52.0146 32.8096L52.7626 34.0423L53.3989 32.8096C53.7486 32.1316 54.2967 31.5769 54.6164 31.5769C54.9362 31.5769 55.1976 31.3991 55.1976 31.1818C55.1976 30.9644 54.9464 30.7866 54.6389 30.7866C54.3318 30.7866 53.7553 30.3848 53.3575 29.8937L52.6348 29.0004L51.3168 30.2888ZM3.62686 31.9502C2.82059 33.0427 2.81862 33.0877 3.53619 33.7388C4.23089 34.3686 4.32039 34.3592 5.10932 33.5686C5.93413 32.742 5.93533 32.7163 5.20002 31.7795L4.45405 30.8289L3.62686 31.9502ZM44.6087 38.4181C44.3607 39.0297 44.1581 39.6828 44.1581 39.8693C44.1581 40.6034 42.1295 42.5686 41.1037 42.8282L40.0182 43.1028L41.201 43.7097C42.9993 44.6318 44.0906 45.7788 44.3662 47.0356C44.6375 48.2739 45.3401 48.5935 45.3425 47.4797C45.3452 46.1581 46.8269 44.3114 48.2675 43.8353C50.0058 43.26 50.0453 42.9143 48.4284 42.4252C46.966 41.9827 45.7773 40.5176 45.3578 38.6401L45.0594 37.3058L44.6087 38.4181ZM43.8773 42.2363L43.0056 43.3209L43.9314 44.1925L44.8571 45.0641L45.9114 44.0076C46.4913 43.4264 46.9104 42.9254 46.8434 42.8942C46.776 42.863 46.2773 42.458 45.7351 41.9945L44.7495 41.1522L43.8773 42.2363Z" fill="#1D6235"/>
</svg>
