<svg width="218" height="216" viewBox="0 0 218 216" fill="none" xmlns="http://www.w3.org/2000/svg">
<g filter="url(#filter0_g_205_23)">
<path fill-rule="evenodd" clip-rule="evenodd" d="M213.249 120.098C212.88 119.991 211.604 119.83 210.413 119.74C205.122 119.337 200.908 121.509 198.069 126.103L197.082 127.699L196.514 125.732C196.201 124.651 195.599 123.17 195.176 122.443C194.251 120.852 191.268 117.866 189.796 117.058L188.734 116.475L189.995 119.065C190.689 120.489 191.586 122.738 191.989 124.063C192.664 126.28 192.723 126.842 192.737 131.153C192.751 135.273 192.678 136.09 192.136 137.96C190.607 143.234 187.505 147.182 183.241 149.28C179.799 150.974 176.944 151.577 172.256 151.601C168.368 151.621 165.157 151.366 164.546 150.989C164.342 150.863 164.121 149.49 163.954 147.325C163.808 145.42 163.603 143.139 163.498 142.256L163.308 140.651L163.119 141.989C163.014 142.725 162.839 144.926 162.729 146.881C162.618 148.836 162.441 150.49 162.335 150.555C162.229 150.621 161.016 150.382 159.64 150.023C158.263 149.665 157.095 149.414 157.044 149.465C156.909 149.6 159.673 151.81 161.111 152.718L162.342 153.494L162.342 155.309L162.343 157.124L161.017 156.949C159.302 156.722 158.545 156.928 157.395 157.937C156.239 158.95 155.772 160.433 156.162 161.844C156.311 162.385 156.377 162.885 156.307 162.955C156.237 163.025 155.543 163.135 154.765 163.199L153.351 163.316L151.947 161.022C150.383 158.467 149.089 156.866 149.321 157.775C149.705 159.28 150.309 163.058 150.186 163.182C150.107 163.259 148.561 163.426 146.749 163.551C142.653 163.833 139.794 164.109 139.896 164.211C140.007 164.321 144.859 164.809 147.915 165.016L150.5 165.192L150.612 167.369C150.776 170.54 150.376 175.354 149.743 177.828C147.896 185.047 143.509 189.528 136.488 191.367C133.182 192.233 127.751 192.171 124.163 191.227C121.627 190.56 117.16 188.607 115.255 187.334C114.776 187.014 114.384 186.869 114.384 187.012C114.384 187.73 116.033 190.089 117.717 191.783C119.698 193.774 121.052 194.619 123.474 195.375L124.928 195.829L123.116 196.692C119.722 198.31 117.04 201.657 116.29 205.212C115.911 207.012 115.887 212.051 116.259 211.821C116.407 211.73 116.527 211.452 116.528 211.203C116.528 210.954 116.891 209.984 117.335 209.047C119.476 204.528 124.725 201.64 133.269 200.283C146.272 198.216 155.955 188.963 156.634 177.955C156.864 174.218 156.04 169.712 154.396 165.727C154.285 165.456 155.031 165.4 157.94 165.459L161.625 165.534L162.11 167.252C162.957 170.255 163.683 175.263 163.678 178.075C163.67 182.61 162.692 185.796 160.597 188.112C160.089 188.674 159.751 189.211 159.847 189.306C160.121 189.58 163.713 189.506 164.802 189.204C165.344 189.054 166.366 188.542 167.073 188.068C171.119 185.355 171.206 177.449 167.281 169.171C166.625 167.787 166.138 166.604 166.2 166.542C166.261 166.481 166.655 166.605 167.074 166.818C168.198 167.39 173.218 169.035 175.069 169.437C175.953 169.629 178.003 169.784 179.624 169.782C182.058 169.778 182.846 169.67 184.147 169.162C187.384 167.897 188.938 165.545 188.938 161.911C188.938 160.799 188.856 159.631 188.755 159.314C188.582 158.77 188.524 158.794 187.646 159.764C186.281 161.273 183.548 162.599 180.696 163.138C177.135 163.81 169.928 163.353 165.506 162.173L164.516 161.909L164.434 158.414C164.389 156.492 164.384 154.888 164.422 154.85C164.461 154.812 165.184 155.109 166.03 155.51C171.307 158.015 177.349 158.744 182.303 157.474C189.303 155.68 195.741 149.653 199.198 141.659C199.693 140.516 200.468 138.104 200.92 136.3C202.518 129.921 203.907 126.928 206.602 124.05C208.336 122.2 210.656 120.863 212.781 120.491C213.804 120.311 213.851 120.272 213.249 120.098ZM197.995 103.95C196.516 99.8472 192.737 96.8655 187.852 95.9472C182.972 95.0298 178.568 96.8743 175.983 100.919L175.213 102.123L175.211 100.384C175.201 93.4496 176.763 82.0498 178.979 72.8825C180.264 67.5643 183.226 58.1242 183.82 57.4545C183.944 57.3148 184.045 64.9661 184.045 74.4577C184.045 87.5233 184.123 91.7929 184.366 92.0361C184.831 92.4998 185.502 92.431 186.013 91.8678C186.417 91.4218 186.456 89.596 186.456 71.1282L186.456 50.8777L188.058 47.6865C191.362 41.1039 193.91 34.4294 195.211 28.9464C195.707 26.8549 195.915 25.0773 196.023 21.9897C196.199 16.9642 195.806 14.6402 194.218 11.3204C191.796 6.2566 185.862 2.31789 183.024 3.89059C181.448 4.76362 180.926 6.90297 181.904 8.48209C182.535 9.50228 183.018 9.70887 186.59 10.4872C189.416 11.1031 192.055 12.1233 192.719 12.8564C192.937 13.0972 193.365 14.195 193.671 15.2957C194.916 19.785 194.187 26.7361 191.698 34.0976C190.296 38.248 186.881 46.0708 186.474 46.0695C186.39 46.0695 186.28 39.4774 186.228 31.4208C186.145 18.4213 186.086 16.7349 185.708 16.4382C185.155 16.0039 184.975 16.0162 184.466 16.5241C184.092 16.8976 184.045 18.8667 184.045 34.165L184.045 51.3858L182.468 55.3499C177.875 66.8966 174.682 80.5325 173.584 93.2936C173.21 97.6371 173.213 107.037 173.589 109.882C173.744 111.059 173.946 112.932 174.036 114.044C174.337 117.742 172.955 122.382 171.151 123.726C169.14 125.226 165.283 124.084 164.856 121.864C164.714 121.124 164.785 120.96 165.368 120.695C165.911 120.448 166.217 120.473 166.914 120.82C167.971 121.347 169.403 121.383 169.81 120.893C169.975 120.695 170.181 120.175 170.269 119.738C170.46 118.784 169.519 117.503 168.241 116.974C167.138 116.518 164.757 116.746 163.883 117.392C162.223 118.618 161.634 121.019 162.491 123.068C163.413 125.272 165.466 126.589 167.996 126.598C171.765 126.613 173.646 124.694 174.674 119.782L175.009 118.176L175.56 119.648C176.021 120.879 176.113 121.754 176.12 124.999C176.129 128.79 176.109 128.927 175.242 131.019C174.217 133.493 173.352 134.734 172.256 135.3C171.102 135.896 170.108 135.797 169.278 135.003C168.877 134.619 168.418 134.385 168.259 134.484C168.1 134.582 167.969 135.397 167.969 136.295C167.969 139.464 170.241 141.736 173.364 141.694C174.849 141.674 174.882 141.689 175.042 142.5C175.535 145.01 176.461 147.85 176.868 148.106C177.889 148.749 180.089 145.475 180.979 141.989C181.33 140.614 181.498 138.584 181.612 134.363L181.767 128.611L183.375 128.455C185.359 128.262 186.396 127.741 187.608 126.327C188.652 125.109 189.016 123.817 188.612 122.758C188.319 121.988 187.52 121.822 187.017 122.427C186.493 123.057 184.544 123.414 183.381 123.093C180.714 122.358 179.121 120.437 177.868 116.444C176.198 111.125 176.124 106.928 177.649 103.929C181.357 96.6327 193.08 96.1818 196.52 103.203C197.33 104.857 197.251 105.852 196.234 106.807C195.564 107.436 195.3 107.442 192.01 106.909C188.543 106.347 187.268 110.67 190.432 112.257C192.521 113.305 194.82 112.915 196.514 111.224C198.426 109.314 198.969 106.651 197.995 103.95ZM185.952 180.784C185.234 179.636 183.869 178.424 182.169 177.424C180.469 176.425 175.643 174.665 175.527 175.003C175.4 175.375 176.764 178.776 177.737 180.515C179.467 183.603 181.584 185.467 183.362 185.467C185.748 185.467 187.218 182.808 185.952 180.784ZM148.012 175.837C147.792 175.655 146.328 175.174 144.758 174.767L141.903 174.028L141.861 172.393C141.827 171.05 141.676 170.555 141.019 169.621C139.632 167.651 137.544 166.702 135.556 167.138C134.611 167.345 134.475 168.045 135.282 168.549C136.06 169.034 135.995 170.634 135.146 171.882C134.307 173.115 131.487 174.505 128.472 175.172C125.943 175.731 122.612 175.588 120.136 174.813L118.537 174.313L119.742 174.003C123.201 173.113 123.822 172.834 125.095 171.6C126.152 170.574 126.442 170.08 126.715 168.846C127.571 164.963 124.928 161.333 121.219 161.298C118.647 161.274 117.028 162.791 116.859 165.383C116.744 167.166 117.353 168.486 118.642 169.242C119.375 169.672 119.601 169.693 120.309 169.401C121.427 168.938 121.718 168.067 121.192 166.755C120.616 165.318 120.771 164.221 121.567 164.108C123.69 163.808 125.387 167.888 124.042 170.061C122.641 172.326 116.993 173.869 113.16 173.035C105.77 171.427 91.8381 172.069 78.7609 174.62C70.2802 176.274 63.4417 178.276 54.8289 181.623L51.1366 183.059L32.7115 183.059C18.7381 183.059 14.2088 183.136 13.965 183.38C13.4728 183.871 13.5824 184.88 14.1617 185.19C14.5008 185.371 20.1303 185.474 30.4382 185.489L46.1966 185.511L43.1494 186.965C31.7269 192.415 21.0498 194.449 14.8036 192.365C12.9857 191.758 12.968 191.743 12.1039 190.015C11.5825 188.972 11.0076 187.151 10.6674 185.467C9.95413 181.933 9.61222 181.268 8.17935 180.636C5.31495 179.37 2.82618 181.841 3.72749 185.056C4.52296 187.893 7.90446 191.636 11.0845 193.199C14.1501 194.706 16.4998 195.179 20.8775 195.171C28.276 195.156 35.4192 193.048 47.0751 187.442L51.1808 185.467L70.1481 185.467C88.5311 185.467 89.1302 185.451 89.5828 184.951C90.1735 184.3 90.039 183.561 89.2585 183.172C88.8245 182.956 84.3683 182.897 73.4951 182.965C65.1577 183.017 58.2099 182.981 58.055 182.885C57.7051 182.669 59.9425 181.84 65.4873 180.132C76.5047 176.737 87.3651 174.825 98.5092 174.319C100.609 174.224 102.327 174.223 102.327 174.316C102.327 174.41 101.852 174.728 101.27 175.024C99.7149 175.817 97.7078 177.952 96.8331 179.746C96.1638 181.118 96.0512 181.698 95.954 184.278C95.8551 186.899 95.9171 187.451 96.499 189.121C99.1148 196.633 106.807 200.122 111.281 195.826C112.076 195.062 112.559 194.314 112.773 193.512C113.656 190.216 111.451 187.031 108.873 187.881C107.121 188.458 106.402 190.343 107.173 192.339C107.696 193.692 107.543 194.885 106.76 195.558C104.801 197.24 100.941 194.988 99.171 191.132C97.2553 186.958 98.6274 181.012 102.177 178.108C104.042 176.581 105.627 176.016 108.402 175.887C111.361 175.749 113.448 176.083 117.024 177.268C120.061 178.273 121.334 179.115 122.43 180.84C123.58 182.652 123.687 183.861 122.849 185.572C122.467 186.353 122.154 187.117 122.154 187.271C122.154 188.081 124.716 188.083 125.907 187.273C127.643 186.093 128.391 184.849 128.562 182.86L128.718 181.052L134.346 180.886C141.886 180.664 144.734 179.947 147.583 177.552C148.499 176.783 148.611 176.334 148.012 175.837Z" fill="#D4AF37" fill-opacity="0.5"/>
</g>
<defs>
<filter id="filter0_g_205_23" x="-0.000162363" y="-0.000162363" width="217.18" height="215.369" filterUnits="userSpaceOnUse" color-interpolation-filters="sRGB">
<feFlood flood-opacity="0" result="BackgroundImageFix"/>
<feBlend mode="normal" in="SourceGraphic" in2="BackgroundImageFix" result="shape"/>
<feTurbulence type="fractalNoise" baseFrequency="1.1298792362213135 1.1298792362213135" numOctaves="3" seed="1956" />
<feDisplacementMap in="shape" scale="7.0804028511047363" xChannelSelector="R" yChannelSelector="G" result="displacedImage" width="100%" height="100%" />
<feMerge result="effect1_texture_205_23">
<feMergeNode in="displacedImage"/>
</feMerge>
</filter>
</defs>
</svg>
