<svg width="129" height="130" viewBox="0 0 129 130" fill="none" xmlns="http://www.w3.org/2000/svg">
<path fill-rule="evenodd" clip-rule="evenodd" d="M72.1881 129.758C72.1222 129.53 72.0225 128.74 71.9663 128.003C71.7167 124.73 73.0621 122.122 75.9071 120.365L76.8959 119.755L75.6778 119.403C75.0078 119.21 74.091 118.838 73.6403 118.576C72.655 118.004 70.8062 116.157 70.3057 115.246L69.9447 114.589L71.5485 115.37C72.4306 115.799 73.8234 116.354 74.6436 116.604C76.0166 117.021 76.365 117.058 79.0348 117.067C81.5864 117.075 82.0928 117.03 83.2509 116.695C86.5173 115.749 88.9623 113.829 90.2616 111.191C91.3105 109.061 91.684 107.295 91.6989 104.394C91.7114 101.988 91.5534 100.001 91.3198 99.6229C91.2421 99.4971 90.3915 99.36 89.0506 99.257C87.8711 99.1665 86.4585 99.0395 85.9116 98.9749L84.9174 98.8573L85.7459 98.74C86.2016 98.6755 87.5652 98.5669 88.776 98.4986C89.9868 98.4304 91.0109 98.3209 91.0514 98.2552C91.092 98.1894 90.9438 97.4389 90.7219 96.5873C90.5002 95.7357 90.3446 95.013 90.3763 94.9814C90.4598 94.8978 91.8284 96.6077 92.3906 97.4979L92.8713 98.2592L93.9954 98.2595L95.1198 98.2599L95.0111 97.4397C94.8704 96.3786 94.9981 95.9102 95.623 95.1982C96.2504 94.4834 97.1687 94.1939 98.0428 94.4353C98.378 94.528 98.6878 94.5683 98.731 94.5252C98.7741 94.4819 98.8422 94.0527 98.882 93.5712L98.9545 92.6959L97.5341 91.8276C95.9513 90.8599 94.9599 90.059 95.5226 90.2024C96.4549 90.4401 98.7948 90.814 98.8714 90.7376C98.9196 90.6891 99.0225 89.7323 99.0998 88.6109C99.2748 86.077 99.4455 84.3079 99.5088 84.3711C99.5773 84.4397 99.8792 87.4417 100.008 89.3324L100.116 90.932L101.465 91.0016C103.429 91.1029 106.41 90.8553 107.943 90.4637C112.414 89.3208 115.188 86.6065 116.328 82.262C116.864 80.2168 116.825 76.8562 116.241 74.6361C115.827 73.0667 114.618 70.3026 113.83 69.1239C113.631 68.8277 113.542 68.5851 113.63 68.5851C114.075 68.5851 115.536 69.6053 116.585 70.6474C117.818 71.8734 118.341 72.7107 118.81 74.2096L119.091 75.1091L119.626 73.9882C120.628 71.8878 122.7 70.2287 124.902 69.7648C126.017 69.5299 129.138 69.5153 128.995 69.7456C128.939 69.8368 128.767 69.9114 128.613 69.9115C128.459 69.9115 127.858 70.1363 127.278 70.4108C124.478 71.7358 122.69 74.9837 121.849 80.2703C120.57 88.3158 114.838 94.3076 108.021 94.7274C105.706 94.8698 102.916 94.3599 100.448 93.343C100.28 93.274 100.245 93.7355 100.282 95.5356L100.328 97.8157L101.392 98.1156C103.252 98.64 106.353 99.0889 108.096 99.0859C110.904 99.0811 112.877 98.476 114.312 97.1795C114.659 96.8651 114.992 96.6564 115.051 96.7156C115.221 96.8852 115.175 99.1075 114.988 99.7812C114.895 100.117 114.578 100.749 114.284 101.187C112.604 103.69 107.708 103.744 102.581 101.316C101.723 100.91 100.991 100.608 100.953 100.647C100.915 100.685 100.992 100.928 101.124 101.187C101.478 101.883 102.496 104.989 102.746 106.134C102.865 106.682 102.961 107.95 102.959 108.953C102.957 110.458 102.89 110.946 102.575 111.751C101.792 113.754 100.335 114.716 98.0846 114.716C97.3959 114.716 96.6721 114.665 96.4762 114.603C96.139 114.496 96.1538 114.459 96.7545 113.916C97.6891 113.072 98.5106 111.381 98.8443 109.616C99.2607 107.413 98.9772 102.953 98.2466 100.217L98.0832 99.6045L95.9186 99.5538C94.728 99.5259 93.7346 99.5228 93.7111 99.5466C93.6876 99.5705 93.8717 100.018 94.1202 100.541C95.6718 103.807 96.1233 107.545 95.3367 110.611C94.2251 114.942 90.4928 118.925 85.5419 121.064C84.8339 121.371 83.3402 121.85 82.2225 122.13C78.2717 123.119 76.418 123.978 74.636 125.646C73.49 126.718 72.6617 128.154 72.4314 129.469C72.3204 130.102 72.2959 130.131 72.1881 129.758ZM62.1873 120.32C59.6462 119.405 57.7995 117.066 57.2308 114.044C56.6626 111.024 57.805 108.299 60.31 106.7L61.0557 106.224L59.9786 106.222C55.684 106.216 48.6237 107.183 42.9461 108.554C39.6524 109.349 33.8058 111.182 33.391 111.549C33.3045 111.625 38.0432 111.688 43.9217 111.688C52.0136 111.688 54.6579 111.736 54.8086 111.887C55.0957 112.174 55.0531 112.59 54.7043 112.906C54.4281 113.156 53.2973 113.18 41.8596 113.18L29.3178 113.18L27.3414 114.171C23.2645 116.216 19.1308 117.792 15.735 118.597C14.4397 118.904 13.3387 119.033 11.4265 119.1C8.31401 119.209 6.8747 118.965 4.81861 117.983C1.68245 116.484 -0.756915 112.812 0.217107 111.056C0.757807 110.081 2.08278 109.759 3.06077 110.363C3.69261 110.754 3.82056 111.053 4.3026 113.263C4.68406 115.011 5.31589 116.644 5.76993 117.055C5.91906 117.19 6.59895 117.455 7.28066 117.644C10.061 118.415 14.3661 117.964 18.9253 116.424C21.4958 115.556 26.3407 113.443 26.3399 113.191C26.3399 113.139 22.2572 113.071 17.2675 113.039C9.21645 112.987 8.172 112.951 7.98823 112.717C7.71929 112.375 7.72692 112.263 8.04143 111.949C8.27276 111.717 9.49233 111.688 18.9671 111.688L29.6324 111.688L32.0876 110.712C39.2388 107.87 47.684 105.895 55.5874 105.216C58.2774 104.984 64.099 104.986 65.8612 105.218C66.5903 105.315 67.7504 105.439 68.439 105.495C70.7288 105.682 73.6026 104.826 74.4355 103.71C75.3641 102.466 74.6572 100.079 73.282 99.8149C72.8235 99.727 72.7221 99.7713 72.558 100.132C72.4049 100.468 72.4203 100.657 72.6354 101.088C72.9615 101.742 72.9839 102.629 72.6808 102.88C72.5582 102.982 72.2362 103.11 71.9653 103.164C71.3747 103.282 70.5808 102.7 70.2534 101.91C69.9709 101.227 70.1122 99.7537 70.512 99.2128C71.2715 98.1858 72.7589 97.8214 74.0275 98.3515C75.3926 98.922 76.208 100.192 76.2142 101.758C76.2233 104.09 75.0345 105.254 71.9923 105.89L70.9981 106.097L71.9094 106.438C72.6719 106.724 73.2136 106.78 75.2236 106.785C77.5716 106.79 77.6565 106.778 78.952 106.242C80.4843 105.607 81.253 105.072 81.6034 104.393C81.9725 103.679 81.9112 103.065 81.4195 102.551C81.1817 102.303 81.0369 102.019 81.0979 101.92C81.1587 101.822 81.6636 101.741 82.2199 101.741C84.182 101.741 85.5895 103.147 85.5631 105.08C85.5507 105.998 85.5605 106.019 86.0624 106.117C87.6169 106.423 89.3757 106.995 89.5346 107.247C89.9325 107.879 87.9049 109.24 85.7459 109.791C84.8947 110.008 83.6375 110.113 81.0233 110.183L77.4606 110.279L77.3638 111.274C77.2445 112.501 76.9215 113.143 76.0458 113.893C75.2915 114.539 74.4917 114.764 73.8355 114.514C73.3586 114.333 73.2561 113.838 73.631 113.527C74.0209 113.203 74.2421 111.997 74.0434 111.277C73.588 109.627 72.3983 108.642 69.9253 107.866C66.6312 106.833 64.0316 106.787 62.174 107.73C57.6554 110.025 57.3762 117.279 61.7245 119.407C62.7487 119.908 63.3655 119.86 63.9566 119.23C64.346 118.815 64.3499 118.652 64.0198 116.616C63.672 114.471 66.3492 113.682 67.3321 115.64C67.9814 116.933 67.7393 118.355 66.6922 119.403C65.5092 120.587 63.8601 120.922 62.1873 120.32ZM109.773 112.868C109.062 112.424 108.311 111.58 107.692 110.528C107.073 109.475 105.983 106.489 106.192 106.418C106.423 106.339 108.53 107.183 109.606 107.785C111.519 108.855 112.673 110.165 112.673 111.266C112.673 112.742 111.027 113.652 109.773 112.868ZM106.709 89.3926C106.597 89.2568 106.299 88.3508 106.047 87.3792L105.589 85.6128L104.576 85.5868C103.745 85.5654 103.438 85.4722 102.86 85.0657C101.639 84.2075 101.051 82.9157 101.322 81.6854C101.45 81.1006 101.883 81.0165 102.195 81.516C102.496 81.9974 103.487 81.9571 104.26 81.4318C105.024 80.9126 105.884 79.1679 106.297 77.3022C106.644 75.7371 106.555 73.6766 106.075 72.1444L105.766 71.1547L105.574 71.9007C105.022 74.0406 104.85 74.4252 104.085 75.2124C103.45 75.8665 103.144 76.0462 102.379 76.2148C99.9745 76.7447 97.7261 75.1092 97.7049 72.8145C97.6902 71.223 98.6296 70.221 100.234 70.1168C101.339 70.0451 102.157 70.4225 102.625 71.2197C102.891 71.6735 102.904 71.8134 102.723 72.251C102.437 72.9432 101.897 73.1229 101.084 72.7974C100.194 72.4412 99.5151 72.5372 99.4454 73.0294C99.2593 74.3432 101.786 75.3934 103.132 74.5613C104.535 73.6941 105.49 70.1996 104.974 67.8278C103.978 63.2554 104.375 54.6348 105.955 46.5432C106.98 41.2958 108.22 37.0644 110.293 31.7352L111.182 29.4506L111.182 18.05C111.182 9.40388 111.23 6.60136 111.381 6.4505C111.685 6.14596 112.31 6.21379 112.502 6.57221C112.614 6.78208 112.678 10.2653 112.687 16.6434L112.701 26.3939L113.601 24.5085C116.976 17.4408 118.236 10.8343 116.945 6.96942C116.57 5.84459 116.56 5.83362 115.49 5.29898C114.844 4.97637 113.717 4.62064 112.673 4.4101C110.484 3.96879 110.073 3.75723 109.681 2.87063C108.898 1.09827 110.428 -0.441659 112.419 0.116027C114.176 0.60823 116.494 2.70055 117.462 4.6682C118.396 6.56506 118.689 8.01896 118.683 10.7277C118.674 15.3055 117.369 19.7254 113.896 26.9375L112.673 29.4779L112.673 41.2141C112.673 52.5886 112.663 52.9593 112.354 53.2393C111.95 53.6049 111.493 53.5216 111.252 53.0387C111.118 52.7701 111.082 50.0129 111.124 43.285C111.156 38.1262 111.134 33.8272 111.074 33.7314C110.941 33.5149 110.427 34.8993 109.369 38.3301C107.267 45.1472 106.083 51.8671 105.769 58.7626C105.71 60.062 105.709 61.125 105.767 61.125C105.825 61.125 106.023 60.8307 106.206 60.4711C106.697 59.5086 108.019 58.2667 109.13 57.7255C109.98 57.3113 110.339 57.2417 111.937 57.1815C113.561 57.1204 113.902 57.1587 114.937 57.5188C119.589 59.1373 121.749 63.8972 119.089 66.6652C118.616 67.1571 118.153 67.4558 117.656 67.5886C115.614 68.1349 113.642 66.7701 114.168 65.175C114.526 64.091 115.694 63.6463 116.929 64.1233C117.768 64.4469 118.506 64.3522 118.923 63.8676C119.965 62.656 118.57 60.2671 116.182 59.1721C113.597 57.9867 109.915 58.8357 108.116 61.032C107.17 62.1861 106.82 63.1669 106.74 64.8839C106.655 66.7146 106.862 68.0059 107.595 70.2189C108.218 72.0977 108.739 72.8856 109.808 73.5635C110.93 74.2754 111.679 74.3417 112.738 73.8229C113.222 73.5864 113.695 73.3928 113.791 73.3928C114.292 73.3928 114.293 74.9781 113.792 75.7152C113.061 76.7891 112.29 77.2523 111.059 77.3581L109.939 77.4544L109.836 80.9369C109.699 85.6023 109.255 87.3644 107.772 89.1273C107.295 89.6938 107.017 89.7633 106.709 89.3926Z" fill="#D4AF37"/>
</svg>
