<svg width="405" height="61" viewBox="0 0 405 61" fill="none" xmlns="http://www.w3.org/2000/svg">
<path fill-rule="evenodd" clip-rule="evenodd" d="M10.8358 57.8352C-1.95921 51.011 -3.35252 31.0174 8.19087 19.9008C19.282 9.21768 45.2319 8.15439 73.7455 17.212C76.1208 17.9674 76.1681 17.6517 74.2449 13.8305C70.4976 6.37648 75.4371 -0.807387 82.9698 1.14328C87.3338 2.27253 89.8722 7.79158 87.2638 10.482C86.0472 11.7369 85.5904 11.3176 85.5904 8.9444C85.5904 4.08972 81.9482 1.53437 78.0745 3.67351C71.8955 7.08326 75.8483 14.6503 86.1842 19.2003C91.969 21.7457 321.982 24.4573 342.968 23.606C343.147 23.5987 343.312 23.5912 343.462 23.5834C343.527 23.58 365.236 23.9124 368.414 23.606C371.591 23.2995 381.122 20.1223 385.359 14.827C389.595 9.53162 404.422 1.06953e-05 404.422 1.06953e-05C404.422 1.06953e-05 403.363 13.7679 387.477 18.0042C382.057 19.4494 375.9 19.9743 368.414 21.1814C358.534 22.7743 352.975 24.683 342.996 26.4767C263.954 40.6837 160.836 17.8151 123.769 17.8151C86.7014 17.8151 66.9161 22.1138 62.0238 24.4131C58.0572 26.2774 55.5479 32.0116 57.3675 35.0491C58.8643 37.5479 65.7666 37.0422 66.7639 34.3628C67.2451 33.0717 68.2958 32.4356 69.0997 32.9477C71.4127 34.4224 65.7193 39.8504 61.8609 39.8504C59.9575 39.8504 57.3233 38.74 56.0061 37.383C51.0529 32.2723 54.1318 25.2408 63.2434 20.8589L69.6023 17.7994L63.845 18.525C60.6778 18.9239 54.3814 21.0583 49.8545 23.2681C40.4154 27.8747 33.8191 28.5249 33.8191 24.8497C33.8191 21.4698 42.9446 17.8716 51.6619 17.8151C63.2358 17.7381 51.0617 8.41238 36.9252 7.41349C18.0532 6.07849 12.5016 17.87 12.5016 29.6604C12.5016 35.0318 16.9783 40.8619 18.2086 37.0924C18.8892 35.0036 21.6376 35.9396 21.6376 38.261C21.6376 40.3781 17.0894 44.5622 14.7856 44.5622C8.48326 44.5622 5.90541 33.689 10.1978 25.2015C11.7677 22.0949 11.8895 20.9515 10.5983 21.396C9.5857 21.7447 7.13416 25.2785 5.15316 29.2505C0.920126 37.7333 -2.8562 47.8516 3.03503 55.0716C9.55664 63.0674 24.852 56.7326 27.5715 46.9164C28.6983 42.8471 29.0363 42.6052 30.0565 45.1386C31.7589 49.3697 29.0455 55.9583 24.6571 58.2483C19.6429 60.8648 16.3312 60.7675 10.8358 57.8352Z" fill="#D4AF37"/>
</svg>
