<svg width="429" height="166" viewBox="0 0 429 166" fill="none" xmlns="http://www.w3.org/2000/svg">
<path fill-rule="evenodd" clip-rule="evenodd" d="M4.12252 5.67196C5.84069 12.5249 3.3923 27.1493 0.525671 27.1493C-2.34096 27.1493 7.38199 20.2195 9.10016 13.3665C9.88237 10.2466 -0.670265 0 0.525671 0C1.72161 0 3.3403 2.55205 4.12252 5.67196ZM41.1806 11.9593C47.6961 15.2579 51.7249 24.7489 49.1973 30.8439C47.6826 34.4932 47.1807 34.1448 45.5077 28.2828C41.47 14.1426 25.2967 11.052 15.6139 22.5701C6.86707 32.9706 5.93793 41.5113 12.2228 53.7308C15.164 59.4525 18.8038 64.543 20.3072 65.0453C22.2243 65.6856 22.0435 64.0385 19.7126 59.5634C13.3396 47.3371 17.167 31.6742 26.5242 31.6742C29.9447 31.6742 36.6976 37.7014 36.6976 40.7511C36.6976 44.095 32.6169 45.4435 31.6064 42.4344C29.7797 37.0045 23.1331 45.4028 23.1331 53.1403C23.1331 70.1245 28.7385 87.7076 56.7582 85.7845C77.747 84.3456 98.4592 70.3145 81.2753 70.2037C68.3325 70.1222 54.7837 64.9389 54.7837 60.0702C54.7837 54.776 64.5774 55.7127 78.5918 62.3485C85.313 65.5317 94.6613 68.6064 99.3637 69.181L107.912 70.2263L98.4706 65.819C84.9423 59.5068 80.371 49.3779 87.7252 42.0159C89.6808 40.0611 93.592 38.4616 96.418 38.4616C102.147 38.4616 110.6 46.2806 107.165 48.405C105.972 49.1426 104.412 48.2263 103.697 46.3666C102.217 42.5068 91.9688 41.7783 89.7465 45.3779C87.0449 49.7534 90.7706 58.0136 96.6598 60.6991C103.924 64.0113 139.232 69.847 166.901 72.9933C242.283 81.5646 344.246 57.7376 360.919 63.086C378.103 68.5973 395.235 80.8982 404.915 94.6743C411.334 103.805 411.86 106.115 412.916 129.715C414.04 154.824 410.187 162.982 415.782 162.982C420.209 162.982 425.617 153.525 426.756 148.19L428.205 141.403L428.475 148.303C428.94 160.346 419.554 164.699 411.743 156.061L407.61 151.491L401.784 156.916C398.581 159.901 393.738 163.487 391.023 164.882C384.055 168.464 371.049 160.81 363.526 156.916C353.807 151.887 336.598 146.02 332.962 134.082C331.156 128.154 327.955 119.93 325.848 115.81C323.739 111.688 322.717 107.615 323.576 106.76C325.798 104.543 333.62 114.846 335.063 121.892C335.732 125.156 337.14 130.882 338.194 134.615L340.111 141.403L340.342 135.233C340.613 127.982 349.491 121.111 355.943 123.158C358.303 123.907 361.283 126.828 362.567 129.647C364.782 134.516 364.5 134.729 356.999 133.851C348.134 132.817 345.182 135.649 345.128 145.247C345.057 157.819 368.278 168.306 384.397 162.982C394.299 159.713 405.137 147.627 408.259 136.373C411.804 123.595 410.918 117.19 407.063 127.729C400.991 144.319 388.597 153.401 377.691 149.251C368.456 145.738 372.342 141.403 384.729 141.403C394.681 141.403 396.193 140.686 400.92 133.715C408.718 122.22 409.457 91.8553 400.92 80.0611C393.112 69.2715 371.829 69.3734 363.526 69.4005C360.227 69.4118 351.801 72.1426 344.802 75.4684C337.615 78.8847 330.43 80.8847 328.29 80.0611C324.919 78.767 325.077 77.9887 329.711 72.9933C332.576 69.905 336.955 66.586 339.442 65.6177C343.197 64.1562 342.478 63.5724 335.198 62.1675C324.634 60.1267 141.678 64.3032 132.531 68.2082C117.185 74.7625 111.316 85.6629 120.49 90.5747C126.242 93.6562 131.649 89.9752 131.649 82.9819C131.649 79.5634 132.328 78.9593 134.134 80.767C138.007 84.6426 134.238 92.5928 127.759 94.2195C116.575 97.0295 109.241 86.6811 114.805 75.9435C117.66 70.439 117.59 69.9842 114.063 71.0725C71.7283 84.12 33.2002 82.5883 16.733 67.1991C-0.405769 51.1855 5.98912 31.0117 24.9862 21.1814C33.1452 16.9574 33.736 8.19004 41.1806 11.9593ZM360.919 41.3037C386.581 44.1362 401.029 67.0905 410.818 86.2942C416.192 96.8326 416.443 101.048 411.126 91.4322C396.994 65.8733 372.761 52.2602 337.181 49.8914C322.38 48.9073 319.298 48.2444 325.877 47.4593C330.851 46.8666 353.103 40.4417 360.919 41.3037Z" fill="#D4AF37"/>
</svg>
