<svg width="1085" height="1" viewBox="0 0 1085 1" fill="none" xmlns="http://www.w3.org/2000/svg">
<path d="M607.753 0.189894C631.701 0.256386 650.553 -0.0374972 679.743 0.00404164C708.932 0.0455811 713.304 0.20147 746.733 0.166395C780.16 0.131327 813.607 0.23795 828.491 0.173902C843.374 0.109836 844.945 0.303532 866.081 0.260511C887.216 0.217497 900.026 0.24278 918.51 0.305738C936.996 0.368698 993.786 0.422448 1014.44 0.345106C1035.09 0.267764 1058.64 0.401962 1072.8 0.43379C1077.22 0.443704 1080.69 0.457272 1083.35 0.471388C1084.48 0.477373 1085 0.489894 1085 0.502254C1085 0.502262 1085 0.50227 1085 0.502278C1085 0.517667 1084.19 0.532798 1082.74 0.534742C1075.71 0.544181 1065.19 0.569083 1052.77 0.624891C1029.61 0.728953 1027.08 0.61396 995.807 0.667433C964.533 0.720905 945.743 0.827809 908.945 0.75868C872.148 0.689557 863.696 0.978833 811.753 0.814893C759.811 0.650966 754.344 0.953497 702.582 0.993726C650.819 1.03395 585.48 0.867031 554.276 0.880872C523.073 0.894714 481.165 0.929954 436.931 0.890028C392.697 0.850103 338.091 0.950888 289.263 0.879652C240.436 0.808417 171.405 0.718444 139.513 0.658155C107.623 0.597867 99.8503 0.584269 69.1543 0.621107C51.5098 0.642282 27.203 0.622322 6.67159 0.544447C-3.66113 0.505254 -1.31973 0.450684 9.0805 0.424574C24.289 0.386394 36.7735 0.4119 44.6099 0.343702C60.2684 0.207405 66.9235 0.155119 86.6913 0.234449C106.458 0.31377 115.772 0.133501 127.295 0.154249C138.818 0.175008 138.629 0.281338 197.22 0.199415C255.812 0.117489 287.932 0.0965854 310.12 0.0769176C332.308 0.0572498 378.639 0.149534 414.8 0.116224C450.961 0.082917 524.476 0.113443 554.111 0.0589122C583.745 0.00438544 583.806 0.123402 607.753 0.189894Z" fill="#D4AF37"/>
</svg>
