<svg width="62" height="78" viewBox="0 0 62 78" fill="none" xmlns="http://www.w3.org/2000/svg">
<path fill-rule="evenodd" clip-rule="evenodd" d="M14.4954 0.823518C14.165 1.65228 11.7198 10.204 11.0387 12.9127C8.9874 21.0715 8.82112 28.0169 10.5659 32.6622C10.7915 33.2628 11.5056 34.8144 12.1527 36.1101C13.7554 39.3187 14.0735 40.3853 14.0587 42.498C14.0522 43.4215 13.9657 44.9354 13.8663 45.8622C13.4588 49.6668 11.314 63.5314 10.7586 65.9501C10.3156 67.8808 9.46075 69.45 8.41732 70.2488C7.88797 70.654 7.73846 70.6766 5.12593 70.7461C0.881117 70.8591 -0.07717 71.2122 0.192363 72.5644C0.392502 73.5688 1.0137 73.9891 3.47336 74.7837C6.98484 75.9185 10.6336 76.5875 15.0529 76.9065C18.3493 77.1447 19.9677 76.9686 20.5339 76.3102C21.022 75.7429 21.0131 75.1277 20.5103 74.663C20.1305 74.3119 16.2608 72.5118 15.0794 72.1363C14.6117 71.9878 14.4235 71.7499 13.8427 70.5735C12.8975 68.6594 12.8628 67.8581 13.5264 63.2749C14.3425 57.6387 16.4698 44.9692 16.9133 43.1026C17.0141 42.6792 17.3619 41.7651 17.6862 41.0713C18.2127 39.9453 18.5686 39.5204 20.9965 37.1183C23.8568 34.2886 24.331 33.6938 25.3518 31.6561C27.9119 26.5456 28.6975 21.9647 29.3861 8.12968C29.5666 4.50309 29.6077 2.4644 29.5024 2.35877C28.9471 1.80149 21.4614 0.602826 16.4534 0.269436L14.7612 0.156738L14.4954 0.823518ZM14.8767 0.664056C14.8767 0.887437 16.8174 1.49989 18.4806 1.80149C21.377 2.32663 21.7751 2.41309 21.6897 2.49905C21.5762 2.61276 19.617 2.29064 17.2494 1.76885C16.2035 1.53841 15.332 1.37424 15.3129 1.40384C15.2938 1.43361 15.1057 2.25279 14.8948 3.2242C14.684 4.19561 14.4428 5.06239 14.3588 5.1502C14.132 5.38788 14.1615 5.17745 14.6255 3.25549C15.0938 1.3157 15.108 1.20569 14.89 1.20569C14.8052 1.20569 14.6861 1.45161 14.6255 1.75237C14.5648 2.05313 14.0685 3.78635 13.5225 5.60419C12.9768 7.42203 12.53 8.98284 12.53 9.07267C12.53 9.39109 18.3827 9.58402 22.5873 9.4042C24.7764 9.31068 27.2977 9.47098 28.4042 9.77393C28.9381 9.92027 28.9414 9.91724 29.0261 9.22187C29.0728 8.83734 29.1558 7.19814 29.2103 5.57913L29.3095 2.63547L27.5136 2.59896C26.5258 2.57895 24.8542 2.4427 23.7988 2.29636C20.9526 1.90124 15.5911 0.904764 15.2095 0.699717C15.0264 0.601483 14.8767 0.585334 14.8767 0.664056ZM16.3015 0.715697C17.8637 1.19358 24.4884 2.14917 27.1968 2.2871L28.873 2.37256L27.9511 2.13C25.7275 1.54513 18.0436 0.499547 16.3199 0.547318L15.7986 0.561784L16.3015 0.715697ZM44.4617 1.6649C40.5194 1.90611 34.377 3.00553 32.7078 3.76869L32.2618 3.97273L32.3669 5.91134C32.6606 11.3324 33.8968 22.9476 34.5066 26.0165C35.5663 31.3496 37.0309 34.1027 40.95 38.1276C42.2112 39.4228 43.4585 40.7956 43.7217 41.1782C44.7661 42.697 45.158 44.205 46.6434 52.4254C48.9546 65.2145 49.0858 68.3072 47.4153 70.6212C47.0058 71.1884 46.7351 71.3575 45.7001 71.6914C45.0241 71.9096 43.6392 72.5084 42.6226 73.0221C40.9092 73.8879 40.7704 73.9947 40.7231 74.4828C40.5652 76.1106 42.8822 76.5568 48.4846 75.9779C52.7218 75.5398 55.1572 75.0068 57.8713 73.923C58.701 73.5918 59.6999 73.101 60.0909 72.8323C61.2001 72.0704 61.2601 71.0181 60.2193 70.5817C59.6117 70.3269 56.6556 70.0036 54.9316 70.0034C53.8446 70.0032 53.8296 69.9969 53.0633 69.2043C52.6384 68.7649 52.1369 68.0959 51.9486 67.7178C51.3048 66.4236 50.6556 63.2512 49.2498 54.528C47.9329 46.3572 47.6594 44.2388 47.6528 42.1646C47.6456 39.8565 47.5731 40.056 49.6715 36.6067C51.7579 33.1772 52.3016 31.2235 52.3144 27.1099C52.3236 24.1797 52.1417 22.5785 51.3304 18.4471C50.4796 14.1146 47.7863 3.90881 47.057 2.25363C46.7061 1.45733 46.95 1.51267 44.4617 1.6649ZM41.5902 2.1416C38.6857 2.49501 33.7764 3.57508 34.0099 3.8094C34.3032 4.10377 45.3836 2.29097 45.3836 1.94867C45.3836 1.81646 43.456 1.91469 41.5902 2.1416ZM46.5144 1.97727C46.357 2.13521 40.6068 3.34632 38.6788 3.62757C37.7108 3.76869 35.9194 3.97677 34.6978 4.0898C33.4762 4.20284 32.4768 4.35726 32.4768 4.43261C32.4768 4.58366 32.822 4.61108 34.5721 4.59931C35.6338 4.59207 35.6816 4.60537 35.075 4.73909C34.7062 4.82034 34.0086 4.89132 33.5245 4.89653C32.9353 4.90309 32.6456 4.97576 32.648 5.11655C32.65 5.23228 32.761 6.68931 32.8947 8.35458C33.0285 10.0199 33.14 11.487 33.1426 11.615C33.149 11.9265 36.9136 11.7766 38.6287 11.3965C40.5248 10.9763 42.7013 10.7997 46.0234 10.7965C48.8681 10.7938 49.0875 10.7719 49.007 10.4992C48.1772 7.68326 46.8922 3.01074 46.8922 2.8094C46.8922 2.62184 46.7826 2.56986 46.515 2.63092C44.3398 3.12714 43.6638 3.14766 45.3414 2.66659C46.3694 2.37172 46.857 2.12344 46.7058 1.97171C46.6547 1.92041 46.5685 1.92293 46.5144 1.97727ZM46.3955 2.97189C46.3897 3.21259 47.3349 6.75928 47.5384 7.26122C47.9096 8.17628 47.7273 6.97241 47.22 5.15962C46.7489 3.47567 46.4052 2.56398 46.3955 2.97189ZM21.4228 9.75543C21.105 9.7857 20.7584 9.92969 20.6523 10.0754C20.5151 10.2633 20.4248 10.2839 20.3401 10.1462C20.1958 9.91186 19.4025 9.88596 19.4025 10.1156C19.4025 10.205 19.297 10.2378 19.168 10.1881C19.0391 10.1384 18.8835 10.179 18.8225 10.2781C18.7452 10.4037 18.6135 10.4054 18.3869 10.2836C17.8909 10.0173 15.8385 10.1344 15.6072 10.4422C15.4423 10.6617 15.3767 10.6643 15.1324 10.4607C14.8549 10.2296 14.6414 10.1731 13.6196 10.0601C13.343 10.0294 12.9256 9.95089 12.6923 9.88528C12.2717 9.76737 12.262 9.78789 11.6333 12.1337C10.2036 17.4678 9.68872 20.7402 9.68386 24.5227C9.68034 27.2135 9.92154 29.0783 10.531 31.0706C10.9809 32.5419 12.5805 35.7947 13.1472 36.3912C13.7493 37.0248 14.9248 37.4893 16.709 37.7981C19.0037 38.1956 19.5364 37.9991 21.6107 35.9892C24.6887 33.0068 26.7362 28.9651 27.6853 23.998C28.5163 19.6488 29.248 10.3211 28.7807 10.0315C28.6839 9.97141 28.137 9.9016 27.5654 9.87637C26.994 9.85114 26.3932 9.77359 26.2305 9.70429C25.945 9.58267 25.735 9.6106 25.0178 9.86526C24.7497 9.96047 24.733 9.94836 24.9339 9.80471C25.1182 9.673 24.7593 9.63499 23.593 9.66257C22.7172 9.68326 21.7406 9.72515 21.4228 9.75543ZM19.6656 10.4382C19.6152 10.5201 19.6703 10.6676 19.7883 10.766C19.9496 10.9003 20.0091 10.8633 20.0275 10.6168C20.0527 10.2809 19.8301 10.1711 19.6656 10.4382ZM40.1378 11.3603C39.4809 11.47 38.9319 11.6574 38.8412 11.8029C38.737 11.9701 38.683 11.9842 38.6813 11.8449C38.6778 11.5506 38.3429 11.583 37.9796 11.913C37.8036 12.0728 37.6731 12.1105 37.6731 12.0014C37.6731 11.8664 37.5474 11.8592 37.2399 11.9765C37.0018 12.0673 36.7368 12.0982 36.6511 12.0451C36.5654 11.9921 36.2708 12.0611 35.9962 12.1985C35.7129 12.3403 35.4558 12.3815 35.4018 12.2939C35.3495 12.2089 35.2168 12.1405 35.107 12.1418C34.987 12.1435 35.0077 12.2096 35.1588 12.3075C35.3611 12.4387 35.3346 12.471 35.0232 12.4732C34.8103 12.4745 34.6775 12.4084 34.7282 12.3263C34.8145 12.186 33.3542 11.8757 33.2238 12.0066C33.1371 12.0934 33.5982 16.9607 33.9928 20.1262C34.4377 23.6949 34.9955 26.3883 35.8396 29.0443C37.2597 33.5118 38.4708 35.3929 41.4982 37.8332C42.0812 38.3032 42.3073 38.3799 43.1105 38.3799C44.6136 38.3799 47.3523 37.9029 48.1914 37.495C48.8833 37.1586 49.0426 36.9656 49.6816 35.6886C50.6636 33.7259 51.5038 31.5962 51.7718 30.39C52.1357 28.752 52.049 24.4189 51.6003 21.8113C51.2228 19.6177 50.169 14.8574 49.6081 12.8121C49.3383 11.8286 49.268 11.7233 48.9083 11.7642C48.6884 11.7891 48.4517 11.7174 48.3825 11.6049C48.2926 11.459 48.1584 11.5186 47.9152 11.8118C47.7088 12.0607 47.5716 12.1321 47.5682 11.9926C47.5638 11.8094 47.5122 11.8037 47.3181 11.9654C47.1168 12.1331 47.0546 12.093 46.9659 11.7386C46.8712 11.3598 46.8288 11.3379 46.6119 11.5556C46.3032 11.8653 46.0541 11.8735 46.0541 11.5739C46.0541 11.4178 45.915 11.3716 45.6173 11.4288C45.3558 11.4789 45.1253 11.4232 45.0433 11.29C44.9309 11.1073 44.8541 11.1109 44.6149 11.309C44.3903 11.495 44.3072 11.5023 44.2528 11.3403C44.2141 11.2247 44.0063 11.13 43.7912 11.13C43.5762 11.13 43.3683 11.2247 43.3296 11.3403C43.2758 11.5006 43.1863 11.4905 42.9531 11.2982C42.72 11.106 42.6304 11.0959 42.5766 11.2562C42.493 11.5055 42.0312 11.5411 42.0312 11.2982C42.0312 11.0961 41.6432 11.1087 40.1378 11.3603ZM42.4665 11.6084C42.4085 11.7026 42.4427 11.8303 42.5424 11.8922C42.8002 12.052 42.9665 11.8331 42.7513 11.6172C42.6309 11.4964 42.5372 11.4935 42.4665 11.6084ZM39.5169 11.8029C39.5169 11.8954 39.5923 11.9711 39.6845 11.9711C39.7767 11.9711 39.8521 11.8954 39.8521 11.8029C39.8521 11.7104 39.7767 11.6347 39.6845 11.6347C39.5923 11.6347 39.5169 11.7104 39.5169 11.8029ZM44.8807 11.981C44.8807 12.0789 44.9562 12.1124 45.0484 12.0552C45.1406 11.998 45.216 11.9179 45.216 11.877C45.216 11.8362 45.1406 11.8029 45.0484 11.8029C44.9562 11.8029 44.8807 11.8831 44.8807 11.981ZM15.5472 12.1393C15.5472 12.2318 15.6272 12.3075 15.7247 12.3075C15.8223 12.3075 15.8556 12.2318 15.7986 12.1393C15.7417 12.0468 15.6619 11.9711 15.6211 11.9711C15.5804 11.9711 15.5472 12.0468 15.5472 12.1393ZM24.9339 12.3075C24.9339 12.4 25.0094 12.4757 25.1016 12.4757C25.1938 12.4757 25.2692 12.4 25.2692 12.3075C25.2692 12.215 25.1938 12.1393 25.1016 12.1393C25.0094 12.1393 24.9339 12.215 24.9339 12.3075ZM37.0864 12.3075C37.1434 12.4 37.2232 12.4757 37.2639 12.4757C37.3046 12.4757 37.3378 12.4 37.3378 12.3075C37.3378 12.215 37.2579 12.1393 37.1603 12.1393C37.0628 12.1393 37.0294 12.215 37.0864 12.3075ZM11.3606 14.8612C10.4428 18.7248 10.1302 21.2571 10.1289 24.8391C10.1279 27.7469 10.1668 28.1816 10.561 29.6591C10.7992 30.5523 11.1177 31.4985 11.2689 31.7617C11.58 32.3035 11.6026 32.4337 11.0007 30.2223C10.0602 26.7668 10.3022 20.5667 11.6036 14.7726C11.8498 13.6767 12.0155 12.7443 11.9719 12.7006C11.9283 12.6569 11.6532 13.6291 11.3606 14.8612ZM23.6768 12.8121C23.7338 12.9046 23.8136 12.9803 23.8543 12.9803C23.895 12.9803 23.9282 12.9046 23.9282 12.8121C23.9282 12.7196 23.8483 12.6439 23.7507 12.6439C23.6532 12.6439 23.6198 12.7196 23.6768 12.8121ZM16.5529 12.9803C16.5529 13.0728 16.6284 13.1485 16.7206 13.1485C16.8127 13.1485 16.8882 13.0728 16.8882 12.9803C16.8882 12.8878 16.8127 12.8121 16.7206 12.8121C16.6284 12.8121 16.5529 12.8878 16.5529 12.9803ZM15.3796 13.3168C15.3796 13.4093 15.455 13.485 15.5472 13.485C15.6394 13.485 15.7148 13.4093 15.7148 13.3168C15.7148 13.2242 15.6394 13.1485 15.5472 13.1485C15.455 13.1485 15.3796 13.2242 15.3796 13.3168ZM23.4254 13.9896C23.4254 14.0821 23.5008 14.1578 23.593 14.1578C23.6852 14.1578 23.7606 14.0821 23.7606 13.9896C23.7606 13.8971 23.6852 13.8214 23.593 13.8214C23.5008 13.8214 23.4254 13.8971 23.4254 13.9896ZM46.3893 13.9896C46.3893 14.0821 46.4648 14.1578 46.5569 14.1578C46.6491 14.1578 46.7246 14.0821 46.7246 13.9896C46.7246 13.8971 46.6491 13.8214 46.5569 13.8214C46.4648 13.8214 46.3893 13.8971 46.3893 13.9896ZM24.9339 14.6624C24.9339 14.7549 25.0139 14.8306 25.1115 14.8306C25.209 14.8306 25.2424 14.7549 25.1854 14.6624C25.1284 14.5699 25.0486 14.4942 25.0079 14.4942C24.9671 14.4942 24.9339 14.5699 24.9339 14.6624ZM37.0026 14.6624C37.0026 14.7549 37.078 14.8306 37.1702 14.8306C37.2624 14.8306 37.3378 14.7549 37.3378 14.6624C37.3378 14.5699 37.2624 14.4942 37.1702 14.4942C37.078 14.4942 37.0026 14.5699 37.0026 14.6624ZM45.3836 14.8306C45.3836 14.9231 45.459 14.9988 45.5512 14.9988C45.6434 14.9988 45.7188 14.9231 45.7188 14.8306C45.7188 14.7381 45.6434 14.6624 45.5512 14.6624C45.459 14.6624 45.3836 14.7381 45.3836 14.8306ZM28.1643 15.5035C28.1643 15.9198 28.197 16.0902 28.2371 15.8819C28.277 15.6737 28.277 15.3332 28.2371 15.125C28.197 14.9168 28.1643 15.0872 28.1643 15.5035ZM38.3436 14.9988C38.3436 15.0914 38.419 15.1671 38.5112 15.1671C38.6034 15.1671 38.6788 15.0914 38.6788 14.9988C38.6788 14.9063 38.6034 14.8306 38.5112 14.8306C38.419 14.8306 38.3436 14.9063 38.3436 14.9988ZM46.6408 15.1671C46.6977 15.2596 46.7775 15.3353 46.8183 15.3353C46.859 15.3353 46.8922 15.2596 46.8922 15.1671C46.8922 15.0745 46.8122 14.9988 46.7147 14.9988C46.6171 14.9988 46.5838 15.0745 46.6408 15.1671ZM15.5472 16.5226C15.5472 16.6205 15.6226 16.654 15.7148 16.5968C15.807 16.5396 15.8825 16.4596 15.8825 16.4187C15.8825 16.3778 15.807 16.3445 15.7148 16.3445C15.6226 16.3445 15.5472 16.4247 15.5472 16.5226ZM27.8846 17.9005C27.5341 22.1378 26.409 27.0929 25.1468 29.9568C24.8746 30.5743 24.8258 30.8023 24.996 30.6605C25.3969 30.3266 26.2774 28.0329 26.7967 25.9689C27.4786 23.2594 28.3968 16.5127 28.0837 16.5127C28.0373 16.5127 27.9476 17.1371 27.8846 17.9005ZM37.254 17.0174C37.197 17.1099 37.2304 17.1856 37.3279 17.1856C37.4255 17.1856 37.5055 17.1099 37.5055 17.0174C37.5055 16.9248 37.4723 16.8491 37.4315 16.8491C37.3908 16.8491 37.311 16.9248 37.254 17.0174ZM16.2177 17.3538C16.2177 17.4463 16.2977 17.522 16.3952 17.522C16.4928 17.522 16.5261 17.4463 16.4691 17.3538C16.4121 17.2613 16.3323 17.1856 16.2916 17.1856C16.2509 17.1856 16.2177 17.2613 16.2177 17.3538ZM34.1857 18.2789C34.1891 18.5565 34.2266 18.6497 34.2692 18.486C34.3118 18.3223 34.3089 18.0952 34.263 17.9814C34.2171 17.8675 34.1824 18.0014 34.1857 18.2789ZM38.5112 18.5312C38.5112 18.6238 38.5866 18.6994 38.6788 18.6994C38.771 18.6994 38.8464 18.6238 38.8464 18.5312C38.8464 18.4387 38.771 18.363 38.6788 18.363C38.5866 18.363 38.5112 18.4387 38.5112 18.5312ZM34.3423 19.4564C34.3314 19.7339 34.4722 20.9829 34.6552 22.2318C35.3467 26.9506 36.6405 31.0411 38.1999 33.4381C39.0808 34.7922 40.1327 36.025 40.4075 36.025C40.5069 36.025 40.358 35.7791 40.0766 35.4783C37.2138 32.4204 35.5954 27.9318 34.5123 20.0451C34.4296 19.4438 34.3532 19.1788 34.3423 19.4564ZM46.1379 19.2041C46.0809 19.2966 46.1143 19.3723 46.2118 19.3723C46.3094 19.3723 46.3893 19.2966 46.3893 19.2041C46.3893 19.1116 46.3561 19.0359 46.3154 19.0359C46.2747 19.0359 46.1949 19.1116 46.1379 19.2041ZM36.4159 19.3723C36.4729 19.4648 36.5527 19.5405 36.5934 19.5405C36.6342 19.5405 36.6674 19.4648 36.6674 19.3723C36.6674 19.2798 36.5874 19.2041 36.4898 19.2041C36.3923 19.2041 36.3589 19.2798 36.4159 19.3723ZM50.3284 21.3908C50.3854 21.4833 50.4652 21.559 50.5059 21.559C50.5466 21.559 50.5798 21.4833 50.5798 21.3908C50.5798 21.2983 50.4999 21.2226 50.4023 21.2226C50.3048 21.2226 50.2714 21.2983 50.3284 21.3908ZM49.9378 21.7272C49.9405 21.866 50.0032 22.1688 50.077 22.4C50.1849 22.7381 50.2121 22.7546 50.2161 22.4842C50.2188 22.2991 50.1563 21.9963 50.077 21.8113C49.9886 21.6053 49.9348 21.5726 49.9378 21.7272ZM51.3847 23.5775C51.583 25.9994 51.5066 28.4478 51.1893 29.8416C51.013 30.6164 50.5242 31.8721 49.9821 32.9426C49.4811 33.932 49.0712 34.7786 49.0712 34.8238C49.0712 34.8691 49.2551 34.7328 49.4799 34.5209C50.1368 33.9015 51.0584 31.8295 51.4365 30.1214C51.7396 28.7526 51.7733 28.1999 51.6876 26.0165C51.633 24.6288 51.5163 23.1906 51.428 22.8206C51.3095 22.3232 51.2982 22.5205 51.3847 23.5775ZM11.6214 23.4446C11.559 23.6566 11.4638 24.5947 11.4095 25.5296C11.2345 28.5511 11.8619 31.2521 13.1543 33.0393C13.6635 33.7436 14.2063 34.0871 14.2063 33.7051C14.2063 33.6319 13.9181 32.8559 13.5659 31.9809C12.731 29.9064 12.251 28.2206 11.9632 26.353C11.8349 25.5203 11.7215 25.0374 11.7111 25.2796C11.6562 26.5467 12.5604 30.1785 13.4798 32.3846C13.7057 32.9266 13.8566 33.4041 13.8152 33.4457C13.5832 33.6785 12.3312 31.2796 11.9524 29.8763C11.5709 28.4631 11.4285 25.5264 11.6792 24.2473C11.88 23.2231 11.8418 22.6946 11.6214 23.4446ZM50.1226 24.0821C50.1226 24.4985 50.1552 24.6689 50.1953 24.4606C50.2352 24.2524 50.2352 23.9119 50.1953 23.7037C50.1552 23.4954 50.1226 23.6658 50.1226 24.0821ZM50.6187 24.5868C50.6187 24.9106 50.6533 25.0429 50.6953 24.8811C50.7376 24.7193 50.7376 24.4542 50.6953 24.2924C50.6533 24.1306 50.6187 24.263 50.6187 24.5868ZM50.7803 26.1358C50.7283 27.6539 50.3954 29.5947 50.1308 29.9222C49.9132 30.1913 49.8998 30.1535 49.9994 29.5489C50.2439 28.0621 50.3574 26.3388 50.2262 26.1006C50.1393 25.943 50.083 26.2273 50.0763 26.8576C50.0703 27.4127 49.9583 28.4695 49.8274 29.2063C49.6966 29.9431 49.6303 30.5865 49.6799 30.6361C49.7297 30.6857 49.9447 30.523 50.1579 30.2744C50.6457 29.7057 50.9665 27.9589 50.878 26.353C50.8142 25.1938 50.8127 25.1905 50.7803 26.1358ZM39.4331 26.1006C39.4901 26.1932 39.5699 26.2689 39.6106 26.2689C39.6513 26.2689 39.6845 26.1932 39.6845 26.1006C39.6845 26.0081 39.6046 25.9324 39.507 25.9324C39.4094 25.9324 39.3761 26.0081 39.4331 26.1006ZM13.1989 35.8744C13.7993 36.3836 14.9909 36.9604 16.1277 37.2919C17.2264 37.6125 19.2652 37.5735 19.8294 37.2211C20.1006 37.0519 19.9955 37.0342 19.2169 37.1187C17.6634 37.2872 15.009 36.7362 13.5574 35.9439C12.903 35.5868 12.8468 35.5759 13.1989 35.8744ZM47.4738 36.6988C46.1645 37.2369 44.6803 37.5247 43.0369 37.5591L41.9474 37.5819L43.1207 37.7453C43.9322 37.8581 44.6496 37.8499 45.4466 37.7185C46.6342 37.5229 48.2099 36.879 48.5717 36.4415C48.8272 36.1326 48.883 36.1195 47.4738 36.6988ZM13.4558 37.3108C13.5314 37.4825 13.7807 38.1722 14.01 38.8433L14.4268 40.0637L14.7197 39.5804C15.2167 38.7602 16.2868 38.7441 16.7167 39.5501C16.9815 40.0469 16.9214 40.9221 16.5472 42.0121C16.2132 42.9853 15.0288 49.4033 15.0603 50.0691C15.0692 50.255 15.2946 49.2336 15.5611 47.7996C16.5276 42.6025 17.2527 40.4444 18.5037 39.043C18.9427 38.5513 19.0431 38.3626 18.8158 38.4565C18.6314 38.5327 18.0543 38.6307 17.5332 38.6746C16.3454 38.7747 15.1419 38.3952 14.0891 37.5888C13.5547 37.1794 13.3606 37.0941 13.4558 37.3108ZM47.4789 38.3784C46.2945 39.0812 45.1127 39.32 43.9136 39.0988C43.3854 39.0014 42.9422 38.9323 42.9288 38.9453C42.9154 38.9581 43.2325 39.3411 43.6333 39.7961L44.3621 40.6235L44.6633 40.2592C44.8289 40.0588 45.2019 39.8489 45.4919 39.7927C46.2725 39.6415 46.7254 40.1587 46.7217 41.1974C46.7202 41.6368 47.6017 47.5418 48.6809 54.3194L50.6427 66.6424L50.3014 67.1033C50.0808 67.4012 49.7731 67.5829 49.4318 67.6169C49.0173 67.6582 48.9031 67.7487 48.9013 68.0374C48.9001 68.2397 48.855 68.5698 48.8014 68.7709C48.5779 69.6066 50.5999 69.9854 51.486 69.2739L51.9733 68.8828L51.5393 67.9711C51.0349 66.9119 50.4831 64.1375 49.1665 56.0419C46.7448 41.1528 46.7579 41.312 47.7864 39.1385C48.1151 38.4438 48.3691 37.8766 48.3506 37.8782C48.332 37.8797 47.9398 38.1049 47.4789 38.3784ZM15.1779 39.5153C14.7111 40.057 14.5415 40.9392 14.5415 42.8264C14.5415 44.0175 14.392 45.6159 14.1307 47.2168C13.9047 48.6013 13.4498 51.5129 13.1199 53.687C12.3934 58.4732 11.4419 64.1923 11.1028 65.8103C10.8359 67.0828 10.9207 67.4924 11.5171 67.8127C11.963 68.0522 12.0176 68.0354 12.1896 67.6063L12.3411 67.2278L12.3519 67.6004C12.3733 68.3545 11.1589 68.5163 10.9291 67.7898C10.8398 67.5072 10.7171 67.6554 10.2605 68.5974C9.95272 69.2318 9.76264 69.8137 9.83807 69.8904C10.0684 70.1247 11.3391 70.3498 11.8225 70.2419C12.7999 70.0239 12.8901 69.9743 12.789 69.7102C12.5316 69.0369 12.7419 66.4618 13.4503 61.6157C13.8744 58.7139 14.1965 56.2651 14.1664 56.1739C14.136 56.0826 13.7366 58.4839 13.2786 61.5104C12.8209 64.5368 12.4248 66.8719 12.3985 66.6998C12.3242 66.212 14.075 53.889 14.8808 49.2294C15.4369 46.0134 16.1977 42.2354 16.47 41.3389C16.7987 40.2556 16.7869 40.0287 16.3788 39.5892C15.9664 39.1449 15.5207 39.1175 15.1779 39.5153ZM44.9382 40.4992C44.6928 40.875 44.6811 41.0346 44.8544 41.6346C45.2054 42.8496 46.9634 52.2841 48.0719 58.9014C48.55 61.7549 49.0637 65.7247 49.0679 66.597C49.0709 67.2298 49.1155 67.3119 49.4568 67.3119C50.381 67.3119 50.4248 66.8037 49.8192 63.1008C49.5852 61.67 48.8326 56.9418 48.1467 52.5936C47.4608 48.2454 46.8225 44.28 46.7282 43.7818C46.634 43.2834 46.5569 42.389 46.5569 41.7942C46.5569 40.4507 46.3684 40.062 45.7168 40.062C45.3707 40.062 45.1385 40.1924 44.9382 40.4992ZM14.7993 51.4225C14.7346 51.9435 14.7163 52.4045 14.7589 52.4473C14.8013 52.49 14.8893 52.0987 14.9542 51.5779C15.0189 51.057 15.0371 50.5959 14.9946 50.5532C14.9522 50.5105 14.8642 50.9018 14.7993 51.4225ZM14.5804 53.1823C14.5804 53.5061 14.6149 53.6385 14.657 53.4767C14.6992 53.3149 14.6992 53.0498 14.657 52.888C14.6149 52.7261 14.5804 52.8585 14.5804 53.1823ZM14.4066 54.2757C14.4099 54.5532 14.4475 54.6464 14.49 54.4828C14.5326 54.3191 14.5298 54.092 14.4838 53.9781C14.4379 53.8642 14.4032 53.9981 14.4066 54.2757ZM14.2451 55.369C14.2451 55.6928 14.2797 55.8252 14.3217 55.6634C14.364 55.5016 14.364 55.2365 14.3217 55.0747C14.2797 54.9129 14.2451 55.0452 14.2451 55.369ZM51.837 69.6771C51.0864 70.01 49.3456 70.1876 48.7952 69.9874C48.147 69.7518 48.2187 70.0507 48.8818 70.3486C50.3587 71.0122 51.3043 70.9124 52.1742 70.0011C52.4362 69.7267 52.6184 69.4746 52.579 69.4409C52.5396 69.4073 52.2057 69.5136 51.837 69.6771ZM9.10506 70.3272C8.83452 70.6273 8.84978 70.6646 9.42539 71.1052C10.2212 71.7144 11.3726 71.8344 12.5044 71.426C13.7046 70.9928 13.452 70.7472 11.8135 70.7543C10.651 70.7592 10.3528 70.7015 9.91215 70.3861C9.40225 70.0211 9.38247 70.0197 9.10506 70.3272ZM52.8596 70.2557C52.3625 70.6334 51.1088 70.9995 49.7382 71.1678L48.4846 71.3215L49.6083 71.2932C50.2265 71.2776 50.6757 71.3212 50.6068 71.39C50.3665 71.6297 48.4457 71.7339 47.885 71.5378C47.3996 71.3679 47.2903 71.3891 46.9389 71.7203L46.5417 72.0948L47.1778 72.2929L47.8141 72.4911L46.9601 72.5087C46.3359 72.5217 46.0247 72.6164 45.8042 72.8611C45.5093 73.1879 45.5175 73.2028 46.1553 73.4912C46.6721 73.725 47.2693 73.7864 49.0166 73.7861C50.2312 73.7858 51.1989 73.8115 51.1672 73.8435C50.9828 74.0283 48.6098 74.1869 47.3979 74.0953C46.1485 74.0007 45.9205 73.9321 45.5194 73.5294L45.0628 73.0714L43.7146 73.6169C42.9731 73.9168 42.3664 74.1299 42.3664 74.0904C42.3664 73.9948 45.1367 72.6946 45.3404 72.6946C45.4279 72.6946 45.6359 72.5432 45.8027 72.3582C45.9694 72.1731 46.0713 72.0218 46.0288 72.0218C45.8632 72.0218 42.9194 73.2532 42.1509 73.6441C40.6138 74.4258 41.5833 74.8581 44.9049 74.8719C49.0806 74.8892 52.6416 74.3553 56.2003 73.1782C58.2258 72.5084 60.1406 71.5821 60.2633 71.2127C60.2995 71.1037 60.1332 70.9398 59.8938 70.8485C59.4448 70.6771 56.3121 70.336 55.2732 70.3452C54.7211 70.3501 54.7056 70.3649 55.0119 70.5974C55.2372 70.7683 55.8302 70.8537 56.9395 70.8751L58.5418 70.906L57.2008 71.0053C56.3041 71.0717 55.9571 71.1511 56.1532 71.2448C56.8815 71.5926 56.3238 72.3498 54.9549 72.8717C53.7532 73.3301 53.5206 73.2722 54.5189 72.7634C55.3416 72.344 56.2501 71.5948 56.1024 71.4577C56.0101 71.372 53.2869 70.0012 53.2235 70.0086C53.1984 70.0115 53.0348 70.1227 52.8596 70.2557ZM3.05951 71.1952C1.30469 71.3099 0.796636 71.4436 0.796636 71.7906C0.796636 71.9287 0.871229 71.9953 0.962415 71.9388C1.05377 71.8821 1.08729 71.9425 1.03717 72.0737C0.909109 72.4086 3.20584 73.5772 5.04044 74.1107C8.58092 75.1404 13.8514 75.9096 17.1193 75.8737C19.9518 75.8428 20.1848 75.4833 18.0615 74.4204C16.7467 73.7622 16.1731 73.5469 16.4353 73.81C16.6605 74.0362 16.1847 74.5383 15.5871 74.7049C15.2425 74.8009 14.508 74.869 13.9548 74.8564L12.9491 74.8335L14.0386 74.7197C15.2116 74.597 15.8825 74.3274 15.8825 73.9784C15.8825 73.8584 15.5655 73.5045 15.1783 73.1922C14.5031 72.6478 14.4216 72.626 13.2087 72.6643C12.5128 72.6865 11.8302 72.6276 11.6919 72.5339C11.5004 72.4039 11.6001 72.358 12.111 72.341C12.7387 72.3203 12.7226 72.3096 11.8596 72.173C10.4371 71.9479 8.95756 71.5104 8.62886 71.2179C8.41933 71.0313 8.2792 71.0058 8.15382 71.1316C7.95603 71.3301 8.56332 71.8535 8.99142 71.8535C9.12451 71.8535 9.18804 71.8991 9.13255 71.9548C9.07707 72.0105 8.6587 71.9316 8.2026 71.7797C7.52609 71.5541 7.18078 71.5345 6.32575 71.6727C5.74948 71.7659 5.2441 71.8759 5.20287 71.9175C4.98228 72.1387 5.61907 72.7373 6.57987 73.212C7.17894 73.5079 7.66906 73.7742 7.66906 73.8036C7.66906 73.9255 6.20222 73.3254 5.52101 72.9247C4.89998 72.5595 4.79924 72.4275 4.86762 72.0683L4.94859 71.6438L3.09722 71.7203C1.99076 71.7661 1.39974 71.7397 1.62854 71.6547C1.83924 71.5765 3.0233 71.4638 4.26 71.4044C5.49654 71.3449 6.53729 71.2493 6.57249 71.1921C6.65195 71.0633 5.05737 71.0646 3.05951 71.1952ZM59.7259 72.1891C58.7258 72.7775 55.4343 73.8938 53.2928 74.371C52.4339 74.5622 50.7744 74.8322 49.6051 74.971C47.149 75.2623 42.3126 75.3168 41.6413 75.0606C41.2243 74.9015 41.1986 74.9138 41.3507 75.1987C41.6049 75.6756 42.7974 75.8906 45.1887 75.8906C49.1328 75.8906 52.6308 75.3725 56.0275 74.2853C58.0837 73.6273 60.0505 72.6335 60.429 72.0616C60.7378 71.595 60.7348 71.5955 59.7259 72.1891ZM15.0495 72.4939C15.0576 72.671 15.7284 73.108 16.3853 73.3644C17.7326 73.8899 19.2231 74.7292 19.5503 75.1467C19.8483 75.5267 19.9167 75.552 20.0072 75.3153C20.226 74.743 19.4088 74.2182 16.1758 72.8546C15.5536 72.592 15.0467 72.4297 15.0495 72.4939ZM0.604544 72.8169C1.11998 73.7834 3.36458 74.7383 7.08239 75.5728C12.2332 76.7291 19.4626 77.0818 20.0037 76.2033C20.0627 76.1076 19.9142 76.0976 19.6261 76.1782C18.9313 76.3727 15.6545 76.2717 12.8653 75.9701C8.08409 75.4531 2.46563 74.0638 1.18334 73.0816C0.725734 72.7311 0.504977 72.6302 0.604544 72.8169ZM12.3311 74.6598C12.4519 74.7084 12.5966 74.7023 12.6522 74.6465C12.7079 74.5906 12.609 74.5509 12.4323 74.5582C12.237 74.5663 12.1973 74.6061 12.3311 74.6598Z" fill="#1D6235" stroke="#1D6235" stroke-width="0.3"/>
</svg>
