<svg width="218" height="216" viewBox="0 0 218 216" fill="none" xmlns="http://www.w3.org/2000/svg">
<g filter="url(#filter0_g_205_24)">
<path fill-rule="evenodd" clip-rule="evenodd" d="M3.93066 95.3139C4.29889 95.4204 5.57471 95.5815 6.76563 95.6723C12.0536 96.0754 16.2659 93.9021 19.1037 89.3063L20.09 87.709L20.6578 89.6768C20.9701 90.759 21.5718 92.2401 21.9947 92.9682C22.9191 94.5598 25.9014 97.5463 27.3729 98.3547L28.4345 98.938L27.1734 96.3471C26.4798 94.9222 25.5829 92.6724 25.1802 91.3474C24.5061 89.1294 24.4469 88.5667 24.4327 84.2538C24.4193 80.1321 24.4914 79.314 25.0334 77.4432C26.5618 72.1666 29.6626 68.217 33.9244 66.1182C37.3649 64.4237 40.2183 63.8204 44.9043 63.7963C48.7903 63.7762 52.0002 64.0313 52.611 64.4087C52.8143 64.5343 53.0358 65.9083 53.2021 68.0743C53.3483 69.9797 53.5534 72.2617 53.6579 73.145L53.8478 74.7511L54.0374 73.4127C54.1415 72.6766 54.317 70.4739 54.4273 68.5179C54.5374 66.562 54.7143 64.9077 54.8204 64.8424C54.9267 64.7768 56.1391 65.0161 57.5148 65.3745C58.8905 65.7327 60.0578 65.984 60.109 65.9329C60.2439 65.798 57.4818 63.5872 56.0437 62.6789L54.814 61.9024L54.8134 60.0865L54.8129 58.2703L56.1377 58.4459C57.8519 58.6731 58.6085 58.4668 59.7587 57.4573C60.9134 56.4439 61.381 54.9604 60.9911 53.5484C60.8414 53.0069 60.7763 52.5065 60.8459 52.4367C60.9158 52.3671 61.6092 52.2571 62.3869 52.1928L63.8009 52.0756L65.2036 54.3702C66.7668 56.9271 68.0605 58.5286 67.8289 57.6195C67.4448 56.1136 66.8409 52.3336 66.9644 52.21C67.0426 52.1321 68.5883 51.9659 70.3998 51.8409C74.4931 51.5582 77.3508 51.2825 77.2488 51.1802C77.1379 51.0697 72.2885 50.5819 69.2343 50.3745L66.6503 50.1986L66.5378 48.0202C66.3742 44.8479 66.7742 40.0316 67.4068 37.5563C69.253 30.334 73.6377 25.8517 80.6557 24.0114C83.9596 23.1452 89.3882 23.207 92.9746 24.1513C95.5099 24.8192 99.9749 26.7722 101.879 28.0464C102.358 28.3665 102.749 28.5117 102.749 28.3684C102.749 27.6505 101.101 25.2895 99.4179 23.5957C97.4375 21.603 96.0848 20.7582 93.6636 20.0015L92.2106 19.5475L94.0212 18.6837C97.4142 17.065 100.094 13.7166 100.844 10.1599C101.223 8.35922 101.247 3.318 100.875 3.54794C100.727 3.63895 100.607 3.91709 100.607 4.16604C100.607 4.41498 100.244 5.38556 99.8001 6.32271C97.6598 10.8446 92.413 13.7332 83.8731 15.0914C70.8764 17.1587 61.1973 26.4167 60.5192 37.4299C60.2892 41.1689 61.113 45.6762 62.7556 49.6638C62.867 49.9342 62.1215 49.9904 59.2137 49.9315L55.5303 49.8568L55.0459 48.138C54.1988 45.1333 53.4736 40.1234 53.4784 37.3092C53.4862 32.772 54.4637 29.585 56.5582 27.268C57.0659 26.7061 57.4031 26.1683 57.3075 26.073C57.0335 25.7989 53.4436 25.8736 52.3553 26.1758C51.8135 26.326 50.7919 26.8373 50.0849 27.3119C46.0408 30.0262 45.9535 37.9359 49.8768 46.2179C50.5326 47.6029 51.019 48.786 50.9574 48.8476C50.8961 48.9092 50.5032 48.785 50.0843 48.5716C48.9604 47.9993 43.9423 46.3542 42.0923 45.9516C41.2086 45.7594 39.1599 45.6042 37.5397 45.6066C35.1073 45.6103 34.3194 45.7184 33.019 46.227C29.7834 47.4926 28.2302 49.8456 28.2302 53.4809C28.2302 54.5934 28.3123 55.7627 28.4128 56.0791C28.5858 56.6238 28.6444 56.5999 29.5215 55.6296C30.8862 54.1199 33.6175 52.7927 36.4685 52.2536C40.0276 51.5809 47.2309 52.0389 51.6515 53.2191L52.6408 53.4831L52.7227 56.9798C52.7677 58.9031 52.7728 60.5078 52.7342 60.5458C52.6957 60.5838 51.9726 60.2864 51.1274 59.8849C45.8528 57.3786 39.8139 56.6492 34.8617 57.9199C27.8654 59.7155 21.4301 65.7447 17.9744 73.7422C17.4801 74.886 16.7059 77.2989 16.2538 79.1044C14.6561 85.4865 13.2684 88.481 10.5743 91.3597C8.8416 93.2109 6.5219 94.5489 4.3985 94.9209C3.37603 95.1003 3.32892 95.1399 3.93066 95.3139ZM19.1777 111.469C20.6559 115.574 24.4333 118.557 29.3161 119.476C34.1936 120.394 38.5951 118.548 41.1791 114.502L41.9483 113.297L41.9507 115.037C41.9603 121.975 40.3993 133.38 38.1846 142.551C36.8997 147.872 33.9391 157.317 33.346 157.987C33.2222 158.126 33.121 150.471 33.121 140.975C33.121 127.904 33.0431 123.632 32.7997 123.389C32.3356 122.925 31.6642 122.994 31.154 123.557C30.7499 124.003 30.7108 125.83 30.7108 144.306L30.7108 164.566L29.1096 167.759C25.8068 174.345 23.2603 181.022 21.9601 186.508C21.4642 188.6 21.2566 190.379 21.1484 193.468C20.9725 198.496 21.3654 200.821 22.9523 204.142C25.3733 209.208 31.3048 213.149 34.1414 211.576C35.7163 210.702 36.238 208.562 35.261 206.982C34.6301 205.961 34.1475 205.755 30.5769 204.976C27.7527 204.36 25.1146 203.339 24.4509 202.606C24.233 202.365 23.8048 201.266 23.4995 200.165C22.2547 195.674 22.9834 188.719 25.471 181.354C26.8732 177.202 30.2858 169.376 30.6934 169.377C30.7767 169.377 30.887 175.972 30.9387 184.032C31.022 197.038 31.0806 198.725 31.4585 199.022C32.0115 199.457 32.1917 199.444 32.7003 198.936C33.0741 198.562 33.121 196.592 33.121 181.287L33.121 164.058L34.6973 160.092C39.2882 148.54 42.4793 134.898 43.5768 122.131C43.9504 117.785 43.9477 108.381 43.572 105.534C43.4166 104.357 43.2152 102.483 43.1247 101.37C42.824 97.6714 44.2061 93.029 46.0089 91.6836C48.0188 90.1835 51.8743 91.3254 52.3009 93.5469C52.4429 94.2876 52.3714 94.4514 51.7894 94.7164C51.2466 94.9637 50.9405 94.9388 50.2437 94.5914C49.1872 94.0646 47.7556 94.0285 47.3488 94.518C47.1843 94.7161 46.9781 95.2363 46.8905 95.6739C46.6999 96.6279 47.6396 97.9103 48.9173 98.4393C50.0198 98.8957 52.3997 98.6674 53.2736 98.0215C54.9326 96.7947 55.5213 94.392 54.6648 92.3426C53.7433 90.1375 51.6912 88.8202 49.1621 88.8103C45.3946 88.7956 43.5152 90.7159 42.4879 95.6303L42.1523 97.2363L41.6015 95.7641C41.1406 94.5325 41.049 93.6575 41.0418 90.4105C41.0329 86.6174 41.053 86.4804 41.9194 84.3877C42.944 81.9124 43.8092 80.6706 44.9048 80.1045C46.0582 79.5084 47.0512 79.6074 47.8806 80.4016C48.2818 80.7857 48.7402 81.0197 48.8996 80.9212C49.0587 80.823 49.1891 80.0073 49.1891 79.1087C49.1891 75.9391 46.9187 73.6654 43.7964 73.708C42.3122 73.7281 42.2793 73.7123 42.1199 72.9015C41.6264 70.3904 40.7017 67.5492 40.2943 67.2925C39.274 66.6498 37.0751 69.9251 36.1855 73.4127C35.8346 74.7878 35.6662 76.8187 35.5524 81.0416L35.3973 86.7968L33.7905 86.9531C31.8072 87.1458 30.7705 87.6676 29.5592 89.0823C28.5156 90.3008 28.1525 91.5928 28.5558 92.6528C28.8488 93.4232 29.6476 93.5887 30.1505 92.9832C30.6736 92.3533 32.6221 91.996 33.7849 92.3169C36.4503 93.0525 38.0424 94.9745 39.2954 98.9694C40.9646 104.291 41.038 108.49 39.5142 111.491C35.8076 118.79 24.0899 119.241 20.6519 112.217C19.8418 110.562 19.9208 109.566 20.9377 108.611C21.6077 107.982 21.8715 107.976 25.1598 108.509C28.6249 109.071 29.8996 104.746 26.7372 103.158C24.6488 102.11 22.3506 102.501 20.6581 104.192C18.7462 106.103 18.2042 108.767 19.1777 111.469ZM31.2145 34.599C31.9322 35.7476 33.2964 36.9605 34.9956 37.9605C36.6953 38.9608 41.5193 40.7217 41.6344 40.3836C41.7616 40.011 40.3988 36.6082 39.4256 34.8688C37.6969 31.7789 35.581 29.9145 33.8036 29.9145C31.4191 29.9145 29.9492 32.5739 31.2145 34.599ZM69.1371 39.5484C69.3564 39.7304 70.8199 40.212 72.3895 40.6188L75.2429 41.3587L75.285 42.9942C75.3195 44.3375 75.47 44.8329 76.1267 45.7671C77.5131 47.7386 79.5998 48.6883 81.5872 48.252C82.532 48.0445 82.6677 47.3443 81.8608 46.8405C81.0831 46.355 81.1482 44.7537 81.9969 43.5058C82.8357 42.2718 85.654 40.8812 88.6678 40.2141C91.1961 39.6547 94.5246 39.7978 96.9997 40.5728L98.5984 41.0731L97.3933 41.3833C93.9365 42.2736 93.3153 42.5528 92.0437 43.7876C90.987 44.8142 90.6967 45.3086 90.4243 46.5434C89.5684 50.428 92.2103 54.0599 95.9172 54.0942C98.4881 54.118 100.107 52.6005 100.275 50.008C100.391 48.2239 99.7813 46.903 98.4934 46.147C97.7605 45.7169 97.5344 45.6952 96.8274 45.988C95.7094 46.4508 95.4191 47.3218 95.9448 48.6351C96.5203 50.0731 96.3652 51.17 95.5701 51.2827C93.4478 51.5833 91.7513 47.5012 93.0954 45.3276C94.4963 43.0617 100.141 41.5177 103.973 42.3524C111.359 43.9611 125.285 43.3189 138.356 40.7666C146.832 39.1112 153.668 37.109 162.276 33.7595L165.967 32.3237L184.383 32.3237C198.35 32.3237 202.878 32.246 203.121 32.0024C203.613 31.5107 203.504 30.5013 202.925 30.1915C202.586 30.0103 196.959 29.9068 186.656 29.8923L170.905 29.8703L173.95 28.4158C185.368 22.9631 196.04 20.9279 202.283 23.0132C204.1 23.62 204.118 23.6355 204.981 25.3639C205.503 26.4074 206.077 28.2289 206.417 29.9145C207.13 33.4503 207.472 34.1147 208.904 34.7477C211.767 36.0136 214.255 33.5416 213.354 30.3254C212.559 27.4872 209.179 23.7426 206 22.1786C202.936 20.6707 200.588 20.1974 196.212 20.206C188.817 20.2207 181.677 22.3292 170.027 27.9385L165.923 29.9145L146.964 29.9145C128.59 29.9145 127.991 29.9303 127.539 30.4301C126.948 31.0822 127.083 31.8215 127.863 32.2101C128.297 32.4264 132.751 32.4851 143.619 32.4176C151.952 32.3657 158.897 32.4015 159.052 32.4971C159.402 32.7134 157.165 33.5427 151.623 35.2521C140.611 38.6484 129.756 40.561 118.617 41.067C116.518 41.1622 114.8 41.1638 114.8 41.0704C114.8 40.9767 115.276 40.6579 115.857 40.3616C117.411 39.5687 119.418 37.4324 120.292 35.6381C120.961 34.2649 121.073 33.6851 121.171 31.1039C121.269 28.4811 121.208 27.9297 120.626 26.2583C118.011 18.7434 110.322 15.2528 105.851 19.5507C105.056 20.3144 104.574 21.0631 104.359 21.8651C103.477 25.1632 105.681 28.3491 108.258 27.4993C110.009 26.9216 110.727 25.0355 109.957 23.0391C109.434 21.6849 109.587 20.4916 110.37 19.8187C112.327 18.1357 116.186 20.3883 117.955 24.2464C119.87 28.4227 118.498 34.3709 114.951 37.2765C113.086 38.8039 111.502 39.3695 108.728 39.4988C105.771 39.6364 103.685 39.3021 100.11 38.1171C97.0752 37.1112 95.8023 36.2693 94.7073 34.543C93.5573 32.7308 93.4502 31.5206 94.2882 29.8091C94.6703 29.028 94.9831 28.2632 94.9831 28.1096C94.9831 27.2988 92.4221 27.2974 91.2315 28.1077C89.4966 29.2882 88.7484 30.5328 88.5776 32.5225L88.422 34.3313L82.7963 34.4973C75.2598 34.7197 72.4133 35.4371 69.5656 37.8326C68.6505 38.6022 68.5383 39.0516 69.1371 39.5484Z" fill="#D4AF37" fill-opacity="0.5"/>
</g>
<defs>
<filter id="filter0_g_205_24" x="-0.000162125" y="0.000326157" width="217.081" height="215.466" filterUnits="userSpaceOnUse" color-interpolation-filters="sRGB">
<feFlood flood-opacity="0" result="BackgroundImageFix"/>
<feBlend mode="normal" in="SourceGraphic" in2="BackgroundImageFix" result="shape"/>
<feTurbulence type="fractalNoise" baseFrequency="1.1298792362213135 1.1298792362213135" numOctaves="3" seed="1956" />
<feDisplacementMap in="shape" scale="7.0804023742675781" xChannelSelector="R" yChannelSelector="G" result="displacedImage" width="100%" height="100%" />
<feMerge result="effect1_texture_205_24">
<feMergeNode in="displacedImage"/>
</feMerge>
</filter>
</defs>
</svg>
