<svg width="889" height="16" viewBox="0 0 889 16" fill="none" xmlns="http://www.w3.org/2000/svg">
<g filter="url(#filter0_g_205_28)">
<path d="M391.706 8.51423C372.406 8.39654 357.212 8.91674 333.688 8.84321C310.163 8.76968 306.64 8.49374 279.699 8.55582C252.758 8.6179 225.803 8.42916 213.808 8.54253C201.813 8.65594 200.547 8.31308 183.512 8.38923C166.479 8.46537 156.155 8.42061 141.259 8.30917C126.36 8.19772 80.592 8.10258 63.9493 8.23948C47.3064 8.37638 28.3243 8.13884 16.9086 8.0825C13.353 8.06495 10.5544 8.04093 8.40916 8.01595C7.50043 8.00535 7.08042 7.98319 7.0802 7.96131C7.0802 7.9613 7.0802 7.96128 7.0802 7.96127C7.08067 7.93403 7.73132 7.90724 8.89955 7.9038C14.5692 7.8871 23.043 7.84302 33.0537 7.74423C51.719 7.56003 53.7587 7.76358 78.9635 7.66893C104.168 7.57428 119.311 7.38505 148.967 7.50742C178.623 7.62977 185.435 7.11772 227.297 7.40792C269.159 7.69809 273.565 7.16257 315.281 7.09137C356.998 7.02016 409.657 7.31563 434.804 7.29113C459.951 7.26663 493.726 7.20426 529.376 7.27493C565.025 7.3456 609.034 7.16721 648.385 7.2933C687.736 7.4194 743.37 7.57866 769.072 7.68538C794.773 7.79209 801.038 7.81616 825.777 7.75096C839.997 7.71348 859.586 7.74881 876.133 7.88666C884.46 7.95603 882.573 8.05263 874.192 8.09884C861.935 8.16642 851.873 8.12128 845.558 8.24199C832.938 8.48325 827.574 8.5758 811.643 8.43538C795.712 8.29498 788.206 8.61407 778.919 8.57734C769.632 8.5406 769.785 8.35238 722.565 8.49739C675.345 8.64241 649.458 8.67941 631.576 8.71422C613.694 8.74903 576.355 8.58568 547.212 8.64464C518.068 8.7036 458.821 8.64956 434.937 8.74609C411.055 8.8426 411.006 8.63193 391.706 8.51423Z" fill="#D4AF37"/>
</g>
<defs>
<filter id="filter0_g_205_28" x="-0.000324249" y="-0.000324249" width="888.59" height="15.9313" filterUnits="userSpaceOnUse" color-interpolation-filters="sRGB">
<feFlood flood-opacity="0" result="BackgroundImageFix"/>
<feBlend mode="normal" in="SourceGraphic" in2="BackgroundImageFix" result="shape"/>
<feTurbulence type="fractalNoise" baseFrequency="1.1298792362213135 1.1298792362213135" numOctaves="3" seed="8102" />
<feDisplacementMap in="shape" scale="14.160804748535156" xChannelSelector="R" yChannelSelector="G" result="displacedImage" width="100%" height="100%" />
<feMerge result="effect1_texture_205_28">
<feMergeNode in="displacedImage"/>
</feMerge>
</filter>
</defs>
</svg>
