<svg width="321" height="125" viewBox="0 0 321 125" fill="none" xmlns="http://www.w3.org/2000/svg">
<path fill-rule="evenodd" clip-rule="evenodd" d="M317.528 4.24396C316.242 9.37158 318.074 20.3141 320.219 20.3141C322.364 20.3141 315.089 15.1289 313.803 10.0013C313.218 7.66689 321.114 0 320.219 0C319.324 0 318.113 1.90953 317.528 4.24396ZM289.799 8.94835C284.924 11.4165 281.91 18.518 283.801 23.0785C284.934 25.8091 285.31 25.5484 286.562 21.1622C289.583 10.582 301.684 8.26953 308.929 16.8878C315.474 24.6698 316.169 31.0602 311.467 40.2033C309.266 44.4845 306.543 48.2934 305.418 48.6692C303.983 49.1483 304.119 47.9159 305.863 44.5674C310.631 35.4193 307.767 23.6998 300.766 23.6998C298.207 23.6998 293.154 28.2095 293.154 30.4914C293.154 32.9935 296.207 34.0024 296.963 31.7509C298.33 27.6881 303.303 33.972 303.303 39.7615C303.303 52.4696 299.109 65.6259 278.144 64.187C262.439 63.1104 246.942 52.6118 259.799 52.5289C269.483 52.4679 279.621 48.5896 279.621 44.9466C279.621 40.9854 272.293 41.6862 261.807 46.6513C256.778 49.0331 249.783 51.3337 246.265 51.7637L239.869 52.5458L246.933 49.2481C257.055 44.5251 260.476 36.9463 254.973 31.4378C253.51 29.9751 250.583 28.7783 248.469 28.7783C244.182 28.7783 237.858 34.6288 240.427 36.2183C241.32 36.7702 242.488 36.0846 243.022 34.6931C244.13 31.8051 251.798 31.26 253.461 33.9533C255.482 37.2273 252.694 43.4078 248.288 45.4172C242.853 47.8955 216.434 52.262 195.731 54.6161C139.328 61.0295 63.0354 43.2013 50.56 47.2032C37.7024 51.327 24.8837 60.5309 17.6404 70.8386C12.838 77.6709 12.4439 79.3993 11.6539 97.0574C10.8132 115.845 13.6958 121.949 9.50919 121.949C6.19709 121.949 2.15063 114.873 1.29808 110.881L0.213797 105.803L0.012469 110.966C-0.335995 119.977 6.68741 123.234 12.5318 116.771L15.624 113.351L19.9832 117.41C22.3802 119.643 26.0035 122.326 28.0351 123.371C33.2485 126.051 42.9801 120.324 48.6096 117.41C55.8817 113.647 68.758 109.258 71.478 100.325C72.8296 95.8893 75.2248 89.7358 76.8014 86.6532C78.3796 83.5688 79.1442 80.5217 78.5014 79.8818C76.8386 78.2228 70.9858 85.932 69.9065 91.2035C69.4058 93.6463 68.352 97.9309 67.5637 100.724L66.1292 105.803L65.9567 101.186C65.7537 95.7607 59.1109 90.6195 54.2832 92.1515C52.5172 92.7118 50.2877 94.8973 49.3269 97.0066C47.6691 100.65 47.8806 100.809 53.4932 100.152C60.1259 99.3782 62.335 101.498 62.3756 108.679C62.4281 118.086 45.054 125.932 32.993 121.949C25.584 119.503 17.4746 110.46 15.1385 102.039C12.4861 92.4782 13.1492 87.6858 16.0334 95.571C20.5769 107.985 29.8501 114.78 38.0103 111.675C44.9203 109.046 42.0126 105.803 32.7444 105.803C25.2981 105.803 24.1665 105.266 20.6294 100.05C14.7952 91.449 14.242 68.7293 20.6294 59.9046C26.4721 51.8314 42.3965 51.9076 48.6096 51.9279C51.0776 51.9364 57.3822 53.9796 62.6193 56.4681C67.9968 59.0243 73.3725 60.5208 74.9744 59.9046C77.4966 58.9363 77.3782 58.3539 73.9105 54.6161C71.7673 52.3054 68.4907 49.822 66.63 49.0975C63.8203 48.0039 64.3582 47.5671 69.8051 46.5159C77.7098 44.9889 214.604 48.1139 221.448 51.0358C232.93 55.9399 237.321 64.096 230.457 67.7712C226.154 70.0769 222.107 67.3226 222.107 62.09C222.107 59.5321 221.6 59.0802 220.248 60.4328C217.351 63.3326 220.171 69.2812 225.019 70.4984C233.387 72.6009 238.874 64.8578 234.711 56.8236C232.575 52.7049 232.627 52.3647 235.266 53.1789C266.943 62.9415 295.771 61.7955 308.092 50.2808C320.916 38.2988 316.131 23.204 301.917 15.8486C295.812 12.6881 295.37 6.12808 289.799 8.94835ZM50.56 30.9049C31.359 33.0243 20.5481 50.1995 13.2236 64.5684C9.20277 72.4536 9.01503 75.6074 12.9936 68.4128C23.5676 49.2888 41.6996 39.1029 68.3215 37.3305C79.3962 36.5942 81.7019 36.0982 76.7794 35.5107C73.0579 35.0672 56.4078 30.2599 50.56 30.9049Z" fill="#D4AF37"/>
</svg>
