<svg width="218" height="216" viewBox="0 0 218 216" fill="none" xmlns="http://www.w3.org/2000/svg">
<g filter="url(#filter0_g_205_25)">
<path fill-rule="evenodd" clip-rule="evenodd" d="M3.93085 120.098C4.29925 119.991 5.57567 119.83 6.76714 119.74C12.0576 119.337 16.2718 121.509 19.111 126.103L20.0978 127.699L20.6658 125.732C20.9782 124.651 21.5803 123.17 22.0033 122.443C22.9282 120.852 25.9118 117.866 27.3841 117.058L28.4461 116.475L27.1845 119.065C26.4905 120.489 25.5933 122.738 25.1903 124.063C24.5159 126.28 24.4567 126.842 24.4425 131.153C24.4291 135.273 24.5012 136.09 25.0435 137.96C26.5725 143.234 29.6748 147.182 33.9386 149.28C37.3807 150.974 40.2354 151.577 44.9236 151.601C48.8115 151.621 52.0229 151.366 52.634 150.989C52.8374 150.863 53.059 149.49 53.2253 147.325C53.3716 145.42 53.5769 143.139 53.6814 142.256L53.8713 140.651L54.061 141.989C54.1652 142.725 54.3407 144.926 54.4511 146.881C54.5612 148.836 54.7383 150.49 54.8444 150.555C54.9508 150.621 56.1637 150.382 57.54 150.023C58.9164 149.665 60.0843 149.414 60.1354 149.465C60.2705 149.6 57.5071 151.81 56.0683 152.718L54.838 153.494L54.8374 155.309L54.8369 157.124L56.1624 156.949C57.8774 156.722 58.6342 156.928 59.785 157.937C60.9403 158.95 61.4081 160.433 61.018 161.844C60.8682 162.385 60.8031 162.885 60.8728 162.955C60.9427 163.025 61.6364 163.135 62.4144 163.199L63.8291 163.316L65.2325 161.022C66.7964 158.467 68.0907 156.866 67.859 157.775C67.4748 159.28 66.8706 163.058 66.9941 163.182C67.0723 163.259 68.6188 163.426 70.4311 163.551C74.5263 163.833 77.3853 164.109 77.2833 164.211C77.1723 164.321 72.3207 164.809 69.265 165.016L66.6798 165.192L66.5673 167.369C66.4036 170.54 66.8039 175.354 67.4367 177.828C69.2838 185.047 73.6706 189.528 80.6918 191.367C83.9973 192.233 89.4284 192.171 93.0165 191.227C95.5529 190.56 100.02 188.607 101.925 187.334C102.404 187.014 102.796 186.869 102.796 187.012C102.796 187.73 101.147 190.089 99.4628 191.783C97.4815 193.774 96.1282 194.619 93.7058 195.375L92.2521 195.829L94.0635 196.692C97.4581 198.31 100.14 201.657 100.889 205.212C101.269 207.012 101.292 212.051 100.92 211.821C100.773 211.73 100.652 211.452 100.652 211.203C100.652 210.954 100.289 209.984 99.8451 209.047C97.7039 204.528 92.4546 201.64 83.9107 200.283C70.908 198.216 61.2243 188.963 60.5459 177.955C60.3157 174.218 61.1399 169.712 62.7834 165.727C62.8948 165.456 62.1489 165.4 59.2398 165.459L55.5547 165.534L55.07 167.252C54.2226 170.255 53.497 175.263 53.5018 178.075C53.5096 182.61 54.4875 185.796 56.583 188.112C57.091 188.674 57.4283 189.211 57.3326 189.306C57.0585 189.58 53.467 189.506 52.3781 189.204C51.8361 189.054 50.814 188.542 50.1067 188.068C46.0607 185.355 45.9734 177.449 49.8985 169.171C50.5546 167.787 51.0412 166.604 50.9796 166.542C50.9182 166.481 50.5252 166.605 50.1061 166.818C48.9817 167.39 43.9612 169.035 42.1104 169.437C41.2262 169.629 39.1766 169.784 37.5556 169.782C35.1221 169.778 34.3338 169.67 33.0328 169.162C29.7957 167.897 28.2417 165.545 28.2417 161.911C28.2417 160.799 28.3239 159.631 28.4244 159.314C28.5975 158.77 28.6562 158.794 29.5336 159.764C30.899 161.273 33.6316 162.599 36.4839 163.138C40.0447 163.81 47.2514 163.353 51.674 162.173L52.6638 161.909L52.7457 158.414C52.7907 156.492 52.7959 154.888 52.7573 154.85C52.7187 154.812 51.9953 155.109 51.1497 155.51C45.8726 158.015 39.8309 158.744 34.8764 157.474C27.8768 155.68 21.4385 149.653 17.9812 141.659C17.4866 140.516 16.712 138.104 16.2598 136.3C14.6613 129.921 13.2729 126.928 10.5776 124.05C8.84408 122.2 6.52329 120.863 4.3989 120.491C3.37596 120.311 3.32882 120.272 3.93085 120.098ZM19.185 103.95C20.6639 99.8472 24.443 96.8655 29.3282 95.9472C34.2079 95.0298 38.6115 96.8743 41.1968 100.919L41.9663 102.123L41.9687 100.384C41.9783 93.4496 40.4166 82.0498 38.2008 72.8825C36.9153 67.5643 33.9534 58.1242 33.3599 57.4545C33.2361 57.3148 33.1349 64.9661 33.1349 74.4577C33.1349 87.5233 33.0569 91.7929 32.8134 92.0361C32.349 92.4998 31.6773 92.431 31.1669 91.8678C30.7626 91.4218 30.7235 89.596 30.7235 71.1282L30.7235 50.8777L29.1216 47.6865C25.8172 41.1039 23.2695 34.4294 21.9687 28.9464C21.4725 26.8549 21.2649 25.0773 21.1567 21.9897C20.9806 16.9642 21.3737 14.6402 22.9614 11.3204C25.3835 6.2566 31.3178 2.31789 34.1557 3.89059C35.7314 4.76362 36.2533 6.90297 35.2759 8.48209C34.6446 9.50228 34.1618 9.70887 30.5896 10.4872C27.764 11.1031 25.1247 12.1233 24.4607 12.8564C24.2426 13.0972 23.8142 14.195 23.5088 15.2957C22.2635 19.785 22.9925 26.7361 25.4813 34.0976C26.8841 38.248 30.2983 46.0708 30.7061 46.0695C30.7894 46.0695 30.8998 39.4774 30.9515 31.4208C31.0348 18.4213 31.0935 16.7349 31.4716 16.4382C32.0248 16.0039 32.2051 16.0162 32.7139 16.5241C33.088 16.8976 33.1349 18.8667 33.1349 34.165L33.1349 51.3858L34.7119 55.3499C39.3049 66.8966 42.4976 80.5325 43.5955 93.2936C43.9693 97.6371 43.9666 107.037 43.5907 109.882C43.4353 111.059 43.2338 112.932 43.1433 114.044C42.8424 117.742 44.2251 122.382 46.0288 123.726C48.0396 125.226 51.897 124.084 52.3238 121.864C52.4658 121.124 52.3942 120.96 51.812 120.695C51.2689 120.448 50.9627 120.473 50.2656 120.82C49.2086 121.347 47.7763 121.383 47.3693 120.893C47.2048 120.695 46.9985 120.175 46.9108 119.738C46.7201 118.784 47.6602 117.503 48.9385 116.974C50.0416 116.518 52.4226 116.746 53.2969 117.392C54.9567 118.618 55.5456 121.019 54.6888 123.068C53.7668 125.272 51.7137 126.589 49.1834 126.598C45.4142 126.613 43.5339 124.694 42.5061 119.782L42.1704 118.176L41.6193 119.648C41.1582 120.879 41.0666 121.754 41.0593 124.999C41.0505 128.79 41.0706 128.927 41.9373 131.019C42.9624 133.493 43.8281 134.734 44.9242 135.3C46.0781 135.896 47.0716 135.797 47.9014 135.003C48.3027 134.619 48.7614 134.385 48.9208 134.484C49.08 134.582 49.2105 135.397 49.2105 136.295C49.2105 139.464 46.939 141.736 43.8152 141.694C42.3304 141.674 42.2974 141.689 42.138 142.5C41.6442 145.01 40.7191 147.85 40.3115 148.106C39.2907 148.749 37.0908 145.475 36.2007 141.989C35.8498 140.614 35.6812 138.584 35.5674 134.363L35.4122 128.611L33.8047 128.455C31.8204 128.262 30.7833 127.741 29.5714 126.327C28.5273 125.109 28.164 123.817 28.5675 122.758C28.8606 121.988 29.6598 121.822 30.163 122.427C30.6863 123.057 32.6357 123.414 33.799 123.093C36.4657 122.358 38.0586 120.437 39.3122 116.444C40.9822 111.125 41.0556 106.928 39.5311 103.929C35.8227 96.6327 24.0996 96.1818 20.6599 103.203C19.8494 104.857 19.9285 105.852 20.9458 106.807C21.6161 107.436 21.8801 107.442 25.1699 106.909C28.6366 106.347 29.912 110.67 26.748 112.257C24.6587 113.305 22.3594 112.915 20.6661 111.224C18.7534 109.314 18.2111 106.651 19.185 103.95ZM31.2275 180.784C31.9455 179.636 33.3103 178.424 35.0103 177.424C36.7109 176.425 41.537 174.665 41.6523 175.003C41.7795 175.375 40.416 178.776 39.4424 180.515C37.7129 183.603 35.596 185.467 33.8178 185.467C31.4322 185.467 29.9615 182.808 31.2275 180.784ZM69.1678 175.837C69.3872 175.655 70.8514 175.174 72.4218 174.767L75.2765 174.028L75.3186 172.393C75.3531 171.05 75.5037 170.555 76.1607 169.621C77.5477 167.651 79.6354 166.702 81.6237 167.138C82.5689 167.345 82.7048 168.045 81.8975 168.549C81.1195 169.034 81.1846 170.634 82.0336 171.882C82.8728 173.115 85.6924 174.505 88.7077 175.172C91.2372 175.731 94.5672 175.588 97.0434 174.813L98.6429 174.313L97.4373 174.003C93.9789 173.113 93.3573 172.834 92.0852 171.6C91.0279 170.574 90.7375 170.08 90.465 168.846C89.6087 164.963 92.2518 161.333 95.9605 161.298C98.5326 161.274 100.152 162.791 100.32 165.383C100.436 167.166 99.8263 168.486 98.5379 169.242C97.8046 169.672 97.5784 169.693 96.8711 169.401C95.7525 168.938 95.4621 168.067 95.9881 166.755C96.5638 165.318 96.4087 164.221 95.6132 164.108C93.4899 163.808 91.7926 167.888 93.1373 170.061C94.5388 172.326 100.186 173.869 104.02 173.035C111.409 171.427 125.342 172.069 138.419 174.62C146.899 176.274 153.738 178.276 162.351 181.623L166.043 183.059L184.468 183.059C198.442 183.059 202.971 183.136 203.215 183.38C203.707 183.871 203.597 184.88 203.018 185.19C202.679 185.371 197.049 185.474 186.741 185.489L170.983 185.511L174.03 186.965C185.453 192.415 196.13 194.449 202.376 192.365C204.194 191.758 204.212 191.743 205.076 190.015C205.597 188.972 206.172 187.151 206.512 185.467C207.226 181.933 207.567 181.268 209 180.636C211.865 179.37 214.354 181.841 213.452 185.056C212.657 187.893 209.275 191.636 206.095 193.199C203.03 194.706 200.68 195.179 196.302 195.171C188.904 195.156 181.76 193.048 170.105 187.442L165.999 185.467L147.032 185.467C128.649 185.467 128.049 185.451 127.597 184.951C127.006 184.3 127.141 183.561 127.921 183.172C128.355 182.956 132.811 182.897 143.685 182.965C152.022 183.017 158.97 182.981 159.125 182.885C159.475 182.669 157.237 181.84 151.692 180.132C140.675 176.737 129.815 174.825 118.67 174.319C116.57 174.224 114.852 174.223 114.852 174.316C114.852 174.41 115.328 174.728 115.909 175.024C117.465 175.817 119.472 177.952 120.347 179.746C121.016 181.118 121.128 181.698 121.226 184.278C121.325 186.899 121.263 187.451 120.681 189.121C118.065 196.633 110.372 200.122 105.899 195.826C105.104 195.062 104.621 194.314 104.406 193.512C103.523 190.216 105.729 187.031 108.307 187.881C110.059 188.458 110.778 190.343 110.007 192.339C109.484 193.692 109.637 194.885 110.42 195.558C112.378 197.24 116.239 194.988 118.009 191.132C119.924 186.958 118.552 181.012 115.003 178.108C113.138 176.581 111.552 176.016 108.778 175.887C105.819 175.749 103.732 176.083 100.155 177.268C97.119 178.273 95.8455 179.115 94.7499 180.84C93.5995 182.652 93.4923 183.861 94.3307 185.572C94.713 186.353 95.0259 187.117 95.0259 187.271C95.0259 188.081 92.4637 188.083 91.2725 187.273C89.5369 186.093 88.7883 184.849 88.6174 182.86L88.4617 181.052L82.8334 180.886C75.2934 180.664 72.4456 179.947 69.5965 177.552C68.681 176.783 68.5687 176.334 69.1678 175.837Z" fill="#D4AF37" fill-opacity="0.5"/>
</g>
<defs>
<filter id="filter0_g_205_25" x="-0.000162363" y="-0.000162363" width="217.18" height="215.369" filterUnits="userSpaceOnUse" color-interpolation-filters="sRGB">
<feFlood flood-opacity="0" result="BackgroundImageFix"/>
<feBlend mode="normal" in="SourceGraphic" in2="BackgroundImageFix" result="shape"/>
<feTurbulence type="fractalNoise" baseFrequency="1.1298792362213135 1.1298792362213135" numOctaves="3" seed="1956" />
<feDisplacementMap in="shape" scale="7.0804028511047363" xChannelSelector="R" yChannelSelector="G" result="displacedImage" width="100%" height="100%" />
<feMerge result="effect1_texture_205_25">
<feMergeNode in="displacedImage"/>
</feMerge>
</filter>
</defs>
</svg>
