<svg width="129" height="130" viewBox="0 0 129 130" fill="none" xmlns="http://www.w3.org/2000/svg">
<path fill-rule="evenodd" clip-rule="evenodd" d="M56.8119 129.758C56.8778 129.53 56.9775 128.74 57.0337 128.003C57.2833 124.73 55.9379 122.122 53.0929 120.365L52.1041 119.755L53.3222 119.403C53.9922 119.21 54.909 118.838 55.3597 118.576C56.345 118.004 58.1938 116.157 58.6943 115.246L59.0553 114.589L57.4515 115.37C56.5694 115.799 55.1766 116.354 54.3564 116.604C52.9834 117.021 52.635 117.058 49.9652 117.067C47.4136 117.075 46.9072 117.03 45.7491 116.695C42.4827 115.749 40.0377 113.829 38.7384 111.191C37.6895 109.061 37.316 107.295 37.3011 104.394C37.2886 101.988 37.4466 100.001 37.6802 99.6229C37.7579 99.4971 38.6085 99.36 39.9494 99.257C41.1289 99.1665 42.5415 99.0395 43.0884 98.9749L44.0826 98.8573L43.2541 98.74C42.7984 98.6755 41.4348 98.5669 40.224 98.4986C39.0132 98.4304 37.9891 98.3209 37.9486 98.2552C37.908 98.1894 38.0562 97.4389 38.2781 96.5873C38.4998 95.7357 38.6554 95.013 38.6237 94.9814C38.5402 94.8978 37.1716 96.6077 36.6094 97.4979L36.1287 98.2592L35.0046 98.2595L33.8802 98.2599L33.9889 97.4397C34.1296 96.3786 34.0019 95.9102 33.377 95.1982C32.7496 94.4834 31.8313 94.1939 30.9572 94.4353C30.622 94.528 30.3122 94.5683 30.269 94.5252C30.2259 94.4819 30.1578 94.0527 30.118 93.5712L30.0455 92.6959L31.4659 91.8276C33.0487 90.8599 34.0401 90.059 33.4774 90.2024C32.5451 90.4401 30.2052 90.814 30.1286 90.7376C30.0804 90.6891 29.9775 89.7323 29.9002 88.6109C29.7252 86.077 29.5545 84.3079 29.4912 84.3711C29.4227 84.4397 29.1208 87.4417 28.9924 89.3324L28.8835 90.932L27.535 91.0016C25.5712 91.1029 22.5897 90.8553 21.0574 90.4637C16.5865 89.3208 13.8117 86.6065 12.6725 82.262C12.1363 80.2168 12.1745 76.8562 12.7591 74.6361C13.1726 73.0667 14.3816 70.3026 15.1703 69.1239C15.3685 68.8276 15.4584 68.5851 15.3697 68.5851C14.9253 68.5851 13.4637 69.6053 12.4151 70.6474C11.1816 71.8734 10.6587 72.7107 10.1902 74.2096L9.90915 75.1091L9.37442 73.9882C8.37239 71.8878 6.29957 70.2287 4.09783 69.7648C2.98312 69.5299 -0.137617 69.5153 0.00472496 69.7456C0.0610651 69.8368 0.233247 69.9114 0.387354 69.9115C0.541461 69.9115 1.14229 70.1363 1.72243 70.4108C4.52171 71.7358 6.30985 74.9837 7.15065 80.2703C8.4304 88.3158 14.1615 94.3076 20.9792 94.7274C23.2937 94.8698 26.0839 94.3599 28.5525 93.343C28.7198 93.274 28.7546 93.7355 28.7182 95.5356L28.6719 97.8157L27.6079 98.1156C25.7479 98.64 22.6465 99.0889 20.9044 99.0859C18.0957 99.0811 16.1228 98.476 14.6885 97.1795C14.3406 96.8651 14.0077 96.6564 13.9487 96.7156C13.7791 96.8852 13.8253 99.1075 14.0124 99.7812C14.1053 100.117 14.4219 100.749 14.7156 101.187C16.3959 103.69 21.2924 103.744 26.4193 101.316C27.2767 100.91 28.0091 100.608 28.0472 100.647C28.0853 100.685 28.0084 100.928 27.8764 101.187C27.5221 101.883 26.5036 104.989 26.2544 106.134C26.1354 106.682 26.0394 107.95 26.0408 108.953C26.0432 110.458 26.1101 110.946 26.4249 111.751C27.2084 113.754 28.665 114.716 30.9154 114.716C31.6041 114.716 32.3279 114.665 32.5238 114.603C32.861 114.496 32.8462 114.459 32.2455 113.916C31.3109 113.072 30.4894 111.381 30.1557 109.616C29.7392 107.413 30.0228 102.953 30.7534 100.217L30.9168 99.6045L33.0814 99.5538C34.272 99.5259 35.2654 99.5228 35.2889 99.5466C35.3124 99.5705 35.1283 100.018 34.8798 100.541C33.3283 103.807 32.8767 107.545 33.6633 110.611C34.7749 114.942 38.5072 118.925 43.4581 121.064C44.1661 121.371 45.6598 121.85 46.7775 122.13C50.7283 123.119 52.582 123.978 54.364 125.646C55.51 126.718 56.3383 128.154 56.5686 129.469C56.6796 130.102 56.7042 130.131 56.8119 129.758ZM66.8127 120.32C69.3538 119.405 71.2005 117.066 71.7692 114.044C72.3374 111.024 71.195 108.299 68.69 106.7L67.9443 106.224L69.0214 106.222C73.316 106.216 80.3763 107.183 86.0539 108.554C89.3476 109.349 95.1942 111.182 95.609 111.549C95.6955 111.625 90.9568 111.688 85.0783 111.688C76.9864 111.688 74.3421 111.736 74.1914 111.887C73.9043 112.174 73.9469 112.59 74.2957 112.906C74.5719 113.156 75.7027 113.18 87.1404 113.18L99.6822 113.18L101.659 114.171C105.735 116.216 109.869 117.792 113.265 118.597C114.56 118.904 115.661 119.033 117.574 119.1C120.686 119.209 122.125 118.965 124.181 117.983C127.318 116.484 129.757 112.812 128.783 111.056C128.242 110.081 126.917 109.759 125.939 110.363C125.307 110.754 125.179 111.053 124.697 113.263C124.316 115.011 123.684 116.644 123.23 117.055C123.081 117.19 122.401 117.455 121.719 117.644C118.939 118.415 114.634 117.964 110.075 116.424C107.504 115.556 102.659 113.443 102.66 113.191C102.66 113.139 106.743 113.071 111.733 113.039C119.784 112.987 120.828 112.951 121.012 112.717C121.281 112.375 121.273 112.263 120.959 111.949C120.727 111.717 119.508 111.688 110.033 111.688L99.3676 111.688L96.9124 110.712C89.7612 107.87 81.316 105.895 73.4126 105.216C70.7225 104.984 64.901 104.986 63.1388 105.218C62.4097 105.315 61.2496 105.439 60.561 105.495C58.2712 105.682 55.3974 104.826 54.5645 103.71C53.6359 102.466 54.3428 100.079 55.718 99.8149C56.1765 99.727 56.2779 99.7713 56.442 100.132C56.5951 100.468 56.5797 100.657 56.3646 101.088C56.0385 101.742 56.0161 102.629 56.3192 102.88C56.4418 102.982 56.7638 103.11 57.0347 103.164C57.6253 103.282 58.4192 102.7 58.7466 101.91C59.0291 101.227 58.8878 99.7537 58.488 99.2128C57.7285 98.1858 56.2411 97.8214 54.9725 98.3515C53.6074 98.922 52.792 100.192 52.7858 101.758C52.7767 104.09 53.9655 105.254 57.0077 105.89L58.0019 106.097L57.0906 106.438C56.3281 106.724 55.7864 106.78 53.7764 106.785C51.4284 106.79 51.3435 106.778 50.048 106.242C48.5157 105.607 47.747 105.072 47.3966 104.393C47.0275 103.679 47.0888 103.065 47.5805 102.551C47.8183 102.303 47.9631 102.019 47.9021 101.92C47.8413 101.822 47.3364 101.741 46.7801 101.741C44.818 101.741 43.4105 103.147 43.4369 105.08C43.4493 105.998 43.4395 106.019 42.9376 106.117C41.3831 106.423 39.6243 106.995 39.4654 107.247C39.0675 107.879 41.0951 109.24 43.2541 109.791C44.1053 110.008 45.3625 110.113 47.9767 110.183L51.5394 110.279L51.6362 111.274C51.7555 112.501 52.0784 113.143 52.9542 113.893C53.7085 114.539 54.5083 114.764 55.1645 114.514C55.6414 114.333 55.7439 113.838 55.369 113.527C54.9791 113.203 54.7579 111.997 54.9566 111.277C55.412 109.627 56.6017 108.642 59.0747 107.866C62.3688 106.833 64.9684 106.787 66.826 107.73C71.3446 110.025 71.6238 117.279 67.2755 119.407C66.2513 119.908 65.6345 119.86 65.0434 119.23C64.654 118.815 64.6501 118.652 64.9802 116.616C65.328 114.471 62.6508 113.682 61.6679 115.64C61.0186 116.933 61.2607 118.355 62.3078 119.403C63.4908 120.587 65.1399 120.922 66.8127 120.32ZM19.2267 112.868C19.9377 112.424 20.6885 111.58 21.3076 110.528C21.9269 109.475 23.0169 106.489 22.8076 106.418C22.5769 106.339 20.4705 107.183 19.3937 107.785C17.4809 108.855 16.3268 110.165 16.3268 111.266C16.3268 112.742 17.9731 113.652 19.2267 112.868ZM22.2906 89.3926C22.4032 89.2568 22.7014 88.3508 22.9532 87.3792L23.4112 85.6128L24.4237 85.5868C25.2552 85.5654 25.5619 85.4722 26.1402 85.0657C27.3607 84.2075 27.9486 82.9157 27.6785 81.6854C27.5501 81.1006 27.1166 81.0165 26.8047 81.516C26.5041 81.9974 25.5129 81.9571 24.7404 81.4318C23.9765 80.9126 23.1156 79.1679 22.7027 77.3022C22.3564 75.7371 22.445 73.6766 22.9247 72.1444L23.2344 71.1547L23.4265 71.9007C23.9776 74.0406 24.1504 74.4252 24.9148 75.2124C25.5503 75.8665 25.8564 76.0462 26.6208 76.2148C29.0255 76.7447 31.2739 75.1092 31.2951 72.8145C31.3098 71.223 30.3704 70.221 28.7655 70.1168C27.6611 70.0451 26.8434 70.4225 26.3754 71.2197C26.1091 71.6735 26.0957 71.8134 26.277 72.251C26.5635 72.9432 27.1027 73.1228 27.9156 72.7974C28.8058 72.4412 29.4849 72.5372 29.5546 73.0294C29.7407 74.3432 27.2137 75.3934 25.8682 74.5613C24.4655 73.6941 23.5097 70.1996 24.0264 67.8278C25.0222 63.2554 24.6247 54.6348 23.0447 46.5432C22.02 41.2958 20.7805 37.0644 18.707 31.7352L17.8182 29.4506L17.8182 18.05C17.8182 9.40389 17.7701 6.60136 17.6193 6.4505C17.3149 6.14596 16.69 6.21379 16.4983 6.57221C16.3861 6.78209 16.322 10.2653 16.313 16.6434L16.2994 26.3939L15.399 24.5085C12.0235 17.4408 10.7637 10.8343 12.0546 6.96942C12.4302 5.84459 12.4398 5.83363 13.5098 5.29898C14.1557 4.97637 15.2833 4.62064 16.3268 4.4101C18.5156 3.96879 18.9269 3.75723 19.3188 2.87063C20.1024 1.09827 18.5721 -0.441664 16.5811 0.116022C14.8242 0.608225 12.5061 2.70055 11.5379 4.6682C10.6045 6.56506 10.3115 8.01896 10.3168 10.7276C10.3259 15.3055 11.6312 19.7254 15.1035 26.9375L16.3268 29.478L16.3268 41.2141C16.3268 52.5886 16.3366 52.9593 16.646 53.2393C17.0496 53.6049 17.5073 53.5216 17.7479 53.0387C17.8818 52.7701 17.9181 50.0129 17.8763 43.285C17.8442 38.1262 17.8664 33.8272 17.9255 33.7314C18.0594 33.5149 18.5728 34.8993 19.631 38.3301C21.7334 45.1472 22.9174 51.8671 23.2306 58.7626C23.2896 60.062 23.2906 61.125 23.2328 61.125C23.1748 61.125 22.9774 60.8307 22.794 60.4711C22.3032 59.5086 20.9807 58.2667 19.8699 57.7255C19.0199 57.3113 18.661 57.2417 17.0631 57.1815C15.4395 57.1204 15.0981 57.1587 14.0634 57.5188C9.41139 59.1373 7.25055 63.8972 9.91113 66.6652C10.3839 67.1571 10.8474 67.4558 11.3438 67.5886C13.3855 68.1349 15.3578 66.7701 14.8316 65.175C14.474 64.091 13.3065 63.6463 12.0706 64.1233C11.2323 64.4469 10.4936 64.3522 10.077 63.8676C9.03521 62.656 10.4296 60.2671 12.818 59.1721C15.4033 57.9868 19.0855 58.8357 20.8842 61.032C21.8297 62.1861 22.1799 63.1669 22.2599 64.8839C22.3451 66.7146 22.1381 68.0059 21.4045 70.2189C20.7818 72.0977 20.2607 72.8856 19.192 73.5635C18.0702 74.2754 17.321 74.3417 16.2615 73.823C15.778 73.5864 15.3046 73.3928 15.2095 73.3928C14.7075 73.3928 14.7067 74.9781 15.2083 75.7152C15.939 76.7891 16.7096 77.2523 17.9413 77.3581L19.061 77.4544L19.1637 80.9369C19.3014 85.6023 19.7455 87.3644 21.2284 89.1273C21.7048 89.6938 21.983 89.7633 22.2906 89.3926Z" fill="#D4AF37"/>
</svg>
