<svg width="303" height="45" viewBox="0 0 303 45" fill="none" xmlns="http://www.w3.org/2000/svg">
<path fill-rule="evenodd" clip-rule="evenodd" d="M294.495 43.2745C304.069 38.1684 305.111 23.2085 296.474 14.8906C288.175 6.89714 268.759 6.10155 247.424 12.8787C245.646 13.444 245.611 13.2078 247.05 10.3486C249.854 4.77126 246.158 -0.60397 240.522 0.855591C237.256 1.70053 235.357 5.83008 237.309 7.84314C238.219 8.7821 238.561 8.46835 238.561 6.69267C238.561 3.06022 241.286 1.14822 244.185 2.7488C248.808 5.30009 245.85 10.9621 238.117 14.3665C233.788 16.2711 61.6843 18.3 45.9821 17.663C45.8481 17.6575 45.7249 17.6519 45.6124 17.6461C45.564 17.6436 29.3201 17.8922 26.9427 17.663C24.5653 17.4337 17.4335 15.0564 14.2638 11.0942C11.0941 7.13205 0 0.000156403 0 0.000156403C0 0.000156403 0.792432 10.3018 12.6789 13.4715C16.7339 14.5528 21.3411 14.9456 26.9427 15.8488C34.3348 17.0407 38.4941 18.4688 45.9611 19.811C105.103 30.4411 182.259 13.33 209.995 13.33C237.73 13.33 252.534 16.5464 256.194 18.2669C259.162 19.6618 261.04 23.9523 259.678 26.2251C258.558 28.0948 253.394 27.7164 252.648 25.7116C252.288 24.7456 251.501 24.2696 250.9 24.6527C249.169 25.7562 253.429 29.8176 256.316 29.8176C257.74 29.8176 259.711 28.9868 260.697 27.9714C264.403 24.1474 262.099 18.8862 255.282 15.6075L250.524 13.3183L254.832 13.8612C257.201 14.1597 261.913 15.7567 265.3 17.4102C272.362 20.857 277.298 21.3435 277.298 18.5936C277.298 16.0646 270.47 13.3723 263.947 13.33C255.287 13.2724 264.397 6.29459 274.974 5.54718C289.095 4.54829 293.249 13.3711 293.249 22.1931C293.249 26.2122 289.899 30.5744 288.978 27.754C288.469 26.1911 286.413 26.8915 286.413 28.6284C286.413 30.2125 289.816 33.3431 291.54 33.3431C296.255 33.3431 298.184 25.2074 294.972 18.8568C293.798 16.5323 293.707 15.6768 294.673 16.0094C295.43 16.2703 297.265 18.9144 298.747 21.8864C301.914 28.2335 304.74 35.8044 300.332 41.2066C295.452 47.1894 284.008 42.4495 281.973 35.1047C281.13 32.0598 280.877 31.8789 280.113 33.7744C278.84 36.9403 280.87 41.8702 284.153 43.5835C287.905 45.5414 290.383 45.4685 294.495 43.2745Z" fill="#D4AF37"/>
</svg>
