<svg width="218" height="216" viewBox="0 0 218 216" fill="none" xmlns="http://www.w3.org/2000/svg">
<g filter="url(#filter0_g_205_22)">
<path fill-rule="evenodd" clip-rule="evenodd" d="M213.249 95.2708C212.88 95.3773 211.604 95.5383 210.413 95.629C205.122 96.0319 200.908 93.8597 198.069 89.266L197.082 87.6695L196.514 89.6363C196.201 90.718 195.599 92.1984 195.176 92.9261C194.251 94.517 191.268 97.5022 189.796 98.3102L188.734 98.8932L189.995 96.3035C190.689 94.8793 191.586 92.6305 191.989 91.3061C192.664 89.0891 192.723 88.5267 192.737 84.2159C192.751 80.096 192.678 79.2784 192.136 77.4084C190.607 72.1344 187.505 68.1866 183.241 66.0887C179.799 64.3951 176.944 63.792 172.256 63.7679C168.368 63.7478 165.157 64.0028 164.546 64.3801C164.342 64.5056 164.121 65.8789 163.954 68.044C163.808 69.9484 163.603 72.2294 163.498 73.1123L163.308 74.7176L163.119 73.3799C163.014 72.6441 162.839 70.4424 162.729 68.4874C162.618 66.5323 162.441 64.8788 162.335 64.8135C162.229 64.7479 161.016 64.9871 159.64 65.3454C158.263 65.7034 157.095 65.9546 157.044 65.9035C156.909 65.7687 159.673 63.5589 161.111 62.6511L162.342 61.8749L162.342 60.0599L162.343 58.2445L161.017 58.42C159.302 58.6471 158.545 58.4409 157.395 57.4319C156.239 56.419 155.772 54.9362 156.162 53.5248C156.311 52.9835 156.377 52.4834 156.307 52.4136C156.237 52.344 155.543 52.2341 154.765 52.1699L153.351 52.0527L151.947 54.3462C150.383 56.9019 149.089 58.5027 149.321 57.594C149.705 56.0888 150.309 52.3106 150.186 52.187C150.107 52.1092 148.561 51.943 146.749 51.8181C142.653 51.5355 139.794 51.26 139.896 51.1577C140.007 51.0472 144.859 50.5598 147.915 50.3524L150.5 50.1766L150.612 47.9992C150.776 44.8284 150.376 40.0143 149.743 37.5402C147.896 30.3213 143.509 25.841 136.488 24.0016C133.182 23.1358 127.751 23.1976 124.163 24.1415C121.627 24.8091 117.16 26.7612 115.255 28.0347C114.776 28.3547 114.384 28.4998 114.384 28.3566C114.384 27.639 116.033 25.2792 117.717 23.5861C119.698 21.5944 121.052 20.75 123.474 19.9936L124.928 19.5398L123.116 18.6764C119.722 17.0585 117.04 13.7116 116.29 10.1566C115.911 8.35677 115.887 3.31791 116.259 3.54774C116.407 3.63871 116.527 3.91672 116.528 4.16555C116.528 4.41437 116.891 5.3845 117.335 6.32121C119.476 10.841 124.725 13.7282 133.269 15.0858C146.272 17.1522 155.955 26.4058 156.634 37.4139C156.864 41.1511 156.04 45.6562 154.396 49.642C154.285 49.9123 155.031 49.9684 157.94 49.9096L161.625 49.8349L162.11 48.117C162.957 45.1137 163.683 40.1061 163.678 37.2932C163.67 32.7582 162.692 29.5727 160.597 27.2567C160.089 26.6951 159.751 26.1575 159.847 26.0623C160.121 25.7883 163.713 25.863 164.802 26.165C165.344 26.3151 166.366 26.8262 167.073 27.3006C171.119 30.0136 171.206 37.9196 167.281 46.1978C166.625 47.5821 166.138 48.7647 166.2 48.8262C166.261 48.8878 166.655 48.7636 167.074 48.5504C168.198 47.9783 173.218 46.3339 175.069 45.9315C175.953 45.7394 178.003 45.5843 179.624 45.5867C182.058 45.5904 182.846 45.6985 184.147 46.2069C187.384 47.4719 188.938 49.8237 188.938 53.4574C188.938 54.5693 188.856 55.738 188.755 56.0543C188.582 56.5988 188.524 56.5749 187.646 55.605C186.281 54.096 183.548 52.7695 180.696 52.2307C177.135 51.5583 169.928 52.0161 165.506 53.1957L164.516 53.4595L164.434 56.9546C164.389 58.877 164.384 60.4809 164.422 60.5189C164.461 60.5569 165.184 60.2597 166.03 59.8583C171.307 57.3532 177.349 56.6242 182.303 57.8943C189.303 59.689 195.741 65.7154 199.198 73.7092C199.693 74.8525 200.468 77.2642 200.92 79.0689C202.518 85.448 203.907 88.4411 206.602 91.3184C208.336 93.1688 210.656 94.5061 212.781 94.878C213.804 95.0573 213.851 95.0969 213.249 95.2708ZM197.995 111.419C196.516 115.522 192.737 118.503 187.852 119.421C182.972 120.339 178.568 118.494 175.983 114.45L175.213 113.246L175.211 114.985C175.201 121.919 176.763 133.319 178.979 142.486C180.264 147.804 183.226 157.244 183.82 157.914C183.944 158.054 184.045 150.403 184.045 140.911C184.045 127.845 184.123 123.576 184.366 123.333C184.831 122.869 185.502 122.938 186.013 123.501C186.417 123.947 186.456 125.773 186.456 144.24L186.456 164.491L188.058 167.682C191.362 174.265 193.91 180.939 195.211 186.422C195.707 188.514 195.915 190.291 196.023 193.379C196.199 198.404 195.806 200.728 194.218 204.048C191.796 209.112 185.862 213.051 183.024 211.478C181.448 210.605 180.926 208.466 181.904 206.887C182.535 205.866 183.018 205.66 186.59 204.881C189.416 204.266 192.055 203.245 192.719 202.512C192.937 202.271 193.365 201.174 193.671 200.073C194.916 195.584 194.187 188.633 191.698 181.271C190.296 177.121 186.881 169.298 186.474 169.299C186.39 169.299 186.28 175.891 186.228 183.948C186.145 196.947 186.086 198.634 185.708 198.93C185.155 199.365 184.975 199.352 184.466 198.845C184.092 198.471 184.045 196.502 184.045 181.204L184.045 163.983L182.468 160.019C177.875 148.472 174.682 134.836 173.584 122.075C173.21 117.732 173.213 108.332 173.589 105.487C173.744 104.309 173.946 102.436 174.036 101.324C174.337 97.6271 172.955 92.9869 171.151 91.6422C169.14 90.1428 165.283 91.2842 164.856 93.5046C164.714 94.2449 164.785 94.4087 165.368 94.6735C165.911 94.9208 166.217 94.8959 166.914 94.5486C167.971 94.022 169.403 93.9859 169.81 94.4753C169.975 94.6733 170.181 95.1932 170.269 95.6306C170.46 96.5842 169.519 97.866 168.241 98.3947C167.138 98.8509 164.757 98.6227 163.883 97.9771C162.223 96.7509 161.634 94.3493 162.491 92.3009C163.413 90.0968 165.466 88.7801 167.996 88.7702C171.765 88.7555 173.646 90.6749 174.674 95.587L175.009 97.1923L175.56 95.7208C176.021 94.4898 176.113 93.6151 176.12 90.3697C176.129 86.5784 176.109 86.4414 175.242 84.3496C174.217 81.8756 173.352 80.6344 172.256 80.0685C171.102 79.4726 170.108 79.5716 169.278 80.3654C168.877 80.7494 168.418 80.9833 168.259 80.8848C168.1 80.7866 167.969 79.9714 167.969 79.0732C167.969 75.9051 170.241 73.6324 173.364 73.675C174.849 73.695 174.882 73.6793 175.042 72.8688C175.535 70.3589 176.461 67.519 176.868 67.2624C177.889 66.62 180.089 69.8939 180.979 73.3799C181.33 74.7543 181.498 76.7842 181.612 81.0052L181.767 86.7577L183.375 86.9139C185.359 87.1065 186.396 87.628 187.608 89.0421C188.652 90.26 189.016 91.5514 188.612 92.611C188.319 93.381 187.52 93.5464 187.017 92.9412C186.493 92.3116 184.544 91.9544 183.381 92.2752C180.714 93.0105 179.121 94.9315 177.868 98.9245C176.198 104.243 176.124 108.441 177.649 111.44C181.357 118.736 193.08 119.187 196.52 112.166C197.33 110.512 197.251 109.516 196.234 108.562C195.564 107.933 195.3 107.927 192.01 108.46C188.543 109.021 187.268 104.699 190.432 103.111C192.521 102.063 194.82 102.454 196.514 104.145C198.426 106.055 198.969 108.718 197.995 111.419ZM185.952 34.5842C185.234 35.7323 183.869 36.9446 182.169 37.9442C180.469 38.9441 175.643 40.7041 175.527 40.3661C175.4 39.9937 176.764 36.5925 177.737 34.8539C179.467 31.7655 181.584 29.902 183.362 29.902C185.748 29.902 187.218 32.5602 185.952 34.5842ZM148.012 39.5313C147.792 39.7133 146.328 40.1946 144.758 40.6013L141.903 41.3408L141.861 42.9756C141.827 44.3182 141.676 44.8134 141.019 45.7472C139.632 47.7177 137.544 48.667 135.556 48.2309C134.611 48.0235 134.475 47.3236 135.282 46.8201C136.06 46.3347 135.995 44.7342 135.146 43.4869C134.307 42.2534 131.487 40.8635 128.472 40.1968C125.943 39.6376 122.612 39.7807 120.136 40.5552L118.537 41.0553L119.742 41.3654C123.201 42.2553 123.822 42.5344 125.095 43.7686C126.152 44.7947 126.442 45.2889 126.715 46.5231C127.571 50.4059 124.928 54.0361 121.219 54.0704C118.647 54.0942 117.028 52.5774 116.859 49.9861C116.744 48.2028 117.353 46.8825 118.642 46.1269C119.375 45.6969 119.601 45.6753 120.309 45.968C121.427 46.4306 121.718 47.3012 121.192 48.6138C120.616 50.0511 120.771 51.1475 121.567 51.2602C123.69 51.5606 125.387 47.4805 124.042 45.3079C122.641 43.043 116.993 41.4998 113.16 42.334C105.77 43.942 91.8381 43.3001 78.7609 40.749C70.2802 39.0944 63.4417 37.0931 54.8289 33.7452L51.1366 32.31L32.7115 32.31C18.7381 32.31 14.2088 32.2324 13.965 31.9889C13.4728 31.4974 13.5824 30.4885 14.1617 30.1789C14.5008 29.9978 20.1303 29.8942 30.4382 29.8798L46.1966 29.8578L43.1494 28.4039C31.7269 22.9538 21.0498 20.9196 14.8036 23.0039C12.9857 23.6104 12.968 23.6259 12.1039 25.3535C11.5825 26.3965 11.0076 28.2172 10.6674 29.902C9.95413 33.4361 9.61222 34.1002 8.17935 34.733C5.31495 35.9982 2.82618 33.5274 3.72749 30.3127C4.52296 27.4758 7.90446 23.733 11.0845 22.1697C14.1501 20.6625 16.4998 20.1894 20.8775 20.198C28.276 20.2127 35.4192 22.3202 47.0751 27.9269L51.1808 29.902L70.1481 29.902C88.5311 29.902 89.1302 29.9178 89.5828 30.4173C90.1735 31.0691 90.039 31.808 89.2585 32.1965C88.8245 32.4127 84.3683 32.4714 73.4951 32.4039C65.1577 32.352 58.2099 32.3878 58.055 32.4834C57.7051 32.6995 59.9425 33.5284 65.4873 35.237C76.5047 38.6318 87.3651 40.5435 98.5092 41.0492C100.609 41.1445 102.327 41.146 102.327 41.0527C102.327 40.959 101.852 40.6404 101.27 40.3442C99.7149 39.5517 97.7078 37.4163 96.8331 35.6229C96.1638 34.2503 96.0512 33.6708 95.954 31.0908C95.8551 28.4693 95.9171 27.9181 96.499 26.2475C99.1148 18.7361 106.807 15.2471 111.281 19.543C112.076 20.3064 112.559 21.0547 112.773 21.8563C113.656 25.1529 111.451 28.3373 108.873 27.4879C107.121 26.9105 106.402 25.0252 107.173 23.0298C107.696 21.6762 107.543 20.4835 106.76 19.8108C104.801 18.1287 100.941 20.3802 99.171 24.2365C97.2553 28.4109 98.6274 34.3563 102.177 37.2606C104.042 38.7872 105.627 39.3526 108.402 39.4818C111.361 39.6193 113.448 39.2852 117.024 38.1007C120.061 37.0953 121.334 36.2538 122.43 34.5283C123.58 32.717 123.687 31.5073 122.849 29.7966C122.467 29.0158 122.154 28.2515 122.154 28.0979C122.154 27.2875 124.716 27.2861 125.907 28.096C127.643 29.2759 128.391 30.52 128.562 32.5088L128.718 34.3167L134.346 34.4826C141.886 34.7049 144.734 35.422 147.583 37.8163C148.499 38.5856 148.611 39.0348 148.012 39.5313Z" fill="#D4AF37" fill-opacity="0.5"/>
</g>
<defs>
<filter id="filter0_g_205_22" x="-0.000162363" y="-0.000162363" width="217.18" height="215.369" filterUnits="userSpaceOnUse" color-interpolation-filters="sRGB">
<feFlood flood-opacity="0" result="BackgroundImageFix"/>
<feBlend mode="normal" in="SourceGraphic" in2="BackgroundImageFix" result="shape"/>
<feTurbulence type="fractalNoise" baseFrequency="1.1298792362213135 1.1298792362213135" numOctaves="3" seed="1956" />
<feDisplacementMap in="shape" scale="7.0804028511047363" xChannelSelector="R" yChannelSelector="G" result="displacedImage" width="100%" height="100%" />
<feMerge result="effect1_texture_205_22">
<feMergeNode in="displacedImage"/>
</feMerge>
</filter>
</defs>
</svg>
