<svg width="129" height="130" viewBox="0 0 129 130" fill="none" xmlns="http://www.w3.org/2000/svg">
<path fill-rule="evenodd" clip-rule="evenodd" d="M56.8119 0.241814C56.8778 0.469763 56.9775 1.25955 57.0337 1.99678C57.2833 5.27028 55.9379 7.87783 53.0929 9.63461L52.1041 10.2452L53.3222 10.5967C53.9922 10.79 54.909 11.1625 55.3597 11.4242C56.345 11.9965 58.1938 13.8426 58.6943 14.7536L59.0553 15.4107L57.4515 14.6301C56.5694 14.2007 55.1766 13.6455 54.3564 13.3962C52.9834 12.9789 52.635 12.9423 49.9652 12.9335C47.4136 12.9252 46.9072 12.9698 45.7491 13.3053C42.4827 14.2515 40.0377 16.171 38.7384 18.8093C37.6895 20.939 37.316 22.7054 37.3011 25.6063C37.2886 28.0119 37.4466 29.9989 37.6802 30.3771C37.7579 30.5029 38.6085 30.64 39.9494 30.743C41.1289 30.8335 42.5415 30.9605 43.0884 31.0251L44.0826 31.1427L43.2541 31.26C42.7984 31.3245 41.4348 31.4331 40.224 31.5014C39.0132 31.5696 37.9891 31.6791 37.9486 31.7448C37.908 31.8106 38.0562 32.5611 38.2781 33.4127C38.4998 34.2643 38.6554 34.987 38.6237 35.0186C38.5402 35.1022 37.1716 33.3923 36.6094 32.5021L36.1287 31.7408L35.0046 31.7405L33.8802 31.7401L33.9889 32.5603C34.1296 33.6214 34.0019 34.0898 33.377 34.8018C32.7496 35.5166 31.8313 35.8061 30.9572 35.5647C30.622 35.472 30.3122 35.4317 30.269 35.4748C30.2259 35.5181 30.1578 35.9473 30.118 36.4288L30.0455 37.3041L31.4659 38.1724C33.0487 39.1401 34.0401 39.941 33.4774 39.7976C32.5451 39.5599 30.2052 39.186 30.1286 39.2624C30.0804 39.3109 29.9775 40.2677 29.9002 41.3891C29.7252 43.923 29.5545 45.6921 29.4912 45.6289C29.4227 45.5603 29.1208 42.5583 28.9924 40.6676L28.8835 39.068L27.535 38.9984C25.5712 38.8971 22.5897 39.1447 21.0574 39.5363C16.5865 40.6792 13.8117 43.3935 12.6725 47.738C12.1363 49.7832 12.1745 53.1438 12.7591 55.3639C13.1726 56.9333 14.3816 59.6974 15.1703 60.8761C15.3685 61.1723 15.4583 61.4149 15.3697 61.4149C14.9253 61.4149 13.4637 60.3947 12.4151 59.3526C11.1816 58.1266 10.6587 57.2893 10.1902 55.7904L9.90915 54.8909L9.37442 56.0118C8.37239 58.1122 6.29956 59.7713 4.09783 60.2352C2.98312 60.4701 -0.137624 60.4847 0.00472496 60.2544C0.0610604 60.1632 0.233241 60.0886 0.387354 60.0885C0.541453 60.0885 1.14229 59.8637 1.72243 59.5892C4.52171 58.2642 6.30986 55.0163 7.15065 49.7297C8.4304 41.6842 14.1615 35.6923 20.9792 35.2726C23.2937 35.1302 26.0839 35.6401 28.5525 36.657C28.7198 36.726 28.7546 36.2645 28.7182 34.4644L28.6719 32.1843L27.6079 31.8844C25.7479 31.36 22.6465 30.9111 20.9044 30.9141C18.0957 30.9189 16.1228 31.524 14.6885 32.8205C14.3406 33.1349 14.0077 33.3436 13.9487 33.2844C13.779 33.1148 13.8253 30.8925 14.0124 30.2188C14.1053 29.8834 14.4219 29.2509 14.7156 28.8133C16.3959 26.3098 21.2924 26.2558 26.4193 28.6845C27.2767 29.0905 28.0091 29.3915 28.0472 29.3534C28.0853 29.3154 28.0084 29.0722 27.8764 28.813C27.5221 28.1172 26.5036 25.0108 26.2544 23.8656C26.1354 23.3185 26.0394 22.0503 26.0408 21.0473C26.0432 19.5415 26.1101 19.0538 26.4249 18.2487C27.2084 16.2458 28.665 15.2843 30.9154 15.2843C31.6041 15.2843 32.3279 15.3351 32.5238 15.3973C32.861 15.5044 32.8462 15.5407 32.2455 16.0836C31.3109 16.9285 30.4894 18.6193 30.1557 20.3842C29.7392 22.5874 30.0228 27.0466 30.7534 29.7831L30.9168 30.3955L33.0814 30.4462C34.272 30.4741 35.2654 30.4772 35.2889 30.4534C35.3124 30.4295 35.1283 29.9819 34.8798 29.4587C33.3283 26.1935 32.8767 22.4551 33.6633 19.3895C34.7749 15.0585 38.5072 11.0748 43.4581 8.93553C44.1661 8.62949 45.6598 8.15021 46.7775 7.87038C50.7282 6.88133 52.582 6.02225 54.364 4.3545C55.51 3.2819 56.3383 1.8459 56.5686 0.531425C56.6796 -0.101526 56.7041 -0.130695 56.8119 0.241814ZM66.8127 9.68037C69.3538 10.5955 71.2005 12.9338 71.7692 15.9565C72.3374 18.9759 71.195 21.7006 68.69 23.3002L67.9443 23.7764L69.0214 23.7779C73.316 23.7838 80.3763 22.8175 86.0539 21.4465C89.3476 20.6511 95.1942 18.8184 95.609 18.4512C95.6955 18.3746 90.9568 18.3119 85.0783 18.3119C76.9864 18.3119 74.3421 18.2637 74.1914 18.113C73.9043 17.8257 73.9469 17.4101 74.2957 17.0943C74.5719 16.8441 75.7027 16.8199 87.1404 16.8199L99.6822 16.8199L101.659 15.8287C105.735 13.7841 109.869 12.2077 113.265 11.4028C114.56 11.0958 115.661 10.9673 117.574 10.9004C120.686 10.7914 122.125 11.0346 124.181 12.0171C127.318 13.5157 129.757 17.1876 128.783 18.9436C128.242 19.9185 126.917 20.2414 125.939 19.6367C125.307 19.2461 125.179 18.9474 124.697 16.737C124.316 14.9887 123.684 13.3556 123.23 12.9448C123.081 12.8098 122.401 12.5447 121.719 12.3558C118.939 11.5852 114.634 12.0363 110.075 13.5762C107.504 14.4442 102.659 16.5568 102.66 16.8091C102.66 16.8607 106.743 16.929 111.733 16.961C119.784 17.0125 120.828 17.0488 121.012 17.2827C121.281 17.6251 121.273 17.7366 120.959 18.0515C120.727 18.2829 119.508 18.3119 110.033 18.3119L99.3676 18.3119L96.9124 19.2877C89.7612 22.1297 81.316 24.1051 73.4126 24.7845C70.7226 25.0157 64.901 25.0141 63.1388 24.7815C62.4097 24.6854 61.2496 24.5607 60.561 24.5046C58.2712 24.3185 55.3974 25.1741 54.5645 26.2901C53.6359 27.5343 54.3428 29.921 55.718 30.1851C56.1765 30.273 56.2779 30.2287 56.442 29.8685C56.5951 29.5324 56.5797 29.343 56.3646 28.9116C56.0385 28.2576 56.0161 27.3713 56.3192 27.1195C56.4418 27.0177 56.7638 26.8901 57.0347 26.8359C57.6253 26.7178 58.4192 27.2995 58.7466 28.0905C59.0291 28.773 58.8878 30.2463 58.488 30.7872C57.7285 31.8142 56.2411 32.1786 54.9725 31.6485C53.6074 31.078 52.792 29.8076 52.7858 28.242C52.7767 25.9098 53.9655 24.7464 57.0077 24.1104L58.0019 23.9027L57.0906 23.5617C56.3281 23.2764 55.7864 23.2197 53.7764 23.2152C51.4284 23.2097 51.3435 23.2222 50.048 23.7585C48.5158 24.3927 47.747 24.9284 47.3966 25.6066C47.0275 26.3206 47.0888 26.9353 47.5805 27.4487C47.8183 27.6971 47.9631 27.9809 47.9021 28.0795C47.8413 28.178 47.3364 28.2588 46.7801 28.2588C44.818 28.2588 43.4105 26.8533 43.4369 24.9204C43.4493 24.0017 43.4395 23.9813 42.9376 23.8826C41.3831 23.5771 39.6243 23.0047 39.4654 22.7525C39.0675 22.1209 41.0951 20.7597 43.2541 20.2089C44.1053 19.9918 45.3625 19.8875 47.9767 19.817L51.5394 19.721L51.6362 18.7264C51.7555 17.4986 52.0785 16.8568 52.9542 16.107C53.7085 15.461 54.5083 15.2362 55.1645 15.4858C55.6414 15.6672 55.7439 16.1617 55.369 16.4731C54.9791 16.7968 54.7579 18.0031 54.9566 18.7229C55.412 20.3729 56.6017 21.3585 59.0747 22.1342C62.3688 23.1675 64.9684 23.2129 66.826 22.2696C71.3446 19.975 71.6238 12.7213 67.2755 10.593C66.2513 10.0915 65.6345 10.1404 65.0434 10.7699C64.654 11.1847 64.6501 11.348 64.9802 13.3836C65.328 15.5286 62.6508 16.3177 61.6679 14.36C61.0186 13.0673 61.2607 11.6445 62.3078 10.5968C63.4908 9.41331 65.1399 9.07775 66.8127 9.68037ZM19.2267 17.1317C19.9377 17.576 20.6885 18.4205 21.3076 19.4724C21.9269 20.5246 23.0169 23.5108 22.8076 23.5821C22.5769 23.6608 20.4705 22.8172 19.3937 22.2147C17.481 21.1446 16.3268 19.8348 16.3268 18.7345C16.3268 17.2584 17.9731 16.3484 19.2267 17.1317ZM22.2906 40.6074C22.4032 40.7432 22.7014 41.6492 22.9532 42.6208L23.4112 44.3872L24.4237 44.4132C25.2552 44.4346 25.5619 44.5278 26.1402 44.9343C27.3607 45.7925 27.9486 47.0843 27.6785 48.3146C27.5501 48.8994 27.1166 48.9835 26.8047 48.484C26.5041 48.0026 25.5129 48.0429 24.7404 48.5682C23.9765 49.0874 23.1156 50.8321 22.7027 52.6978C22.3564 54.2629 22.445 56.3234 22.9247 57.8556L23.2344 58.8453L23.4265 58.0993C23.9776 55.9594 24.1504 55.5748 24.9148 54.7876C25.5503 54.1335 25.8564 53.9538 26.6208 53.7852C29.0255 53.2553 31.2739 54.8908 31.2951 57.1855C31.3098 58.777 30.3704 59.779 28.7655 59.8832C27.6611 59.9549 26.8434 59.5775 26.3754 58.7803C26.1091 58.3265 26.0957 58.1866 26.277 57.749C26.5635 57.0568 27.1027 56.8772 27.9156 57.2026C28.8058 57.5588 29.4849 57.4628 29.5546 56.9706C29.7407 55.6568 27.2137 54.6066 25.8682 55.4387C24.4655 56.3059 23.5097 59.8004 24.0264 62.1722C25.0222 66.7446 24.6247 75.3652 23.0447 83.4568C22.02 88.7042 20.7805 92.9356 18.707 98.2648L17.8182 100.549L17.8182 111.95C17.8182 120.596 17.7701 123.399 17.6193 123.549C17.3149 123.854 16.69 123.786 16.4983 123.428C16.3861 123.218 16.322 119.735 16.313 113.357L16.2994 103.606L15.399 105.492C12.0235 112.559 10.7637 119.166 12.0546 123.031C12.4302 124.155 12.4398 124.166 13.5098 124.701C14.1557 125.024 15.2833 125.379 16.3268 125.59C18.5156 126.031 18.9269 126.243 19.3188 127.129C20.1024 128.902 18.5721 130.442 16.5811 129.884C14.8242 129.392 12.5061 127.299 11.5379 125.332C10.6045 123.435 10.3115 121.981 10.3168 119.272C10.3259 114.694 11.6312 110.275 15.1035 103.062L16.3268 100.522L16.3268 88.7859C16.3268 77.4114 16.3366 77.0407 16.646 76.7607C17.0496 76.3951 17.5073 76.4784 17.7479 76.9613C17.8818 77.2299 17.9181 79.9871 17.8763 86.715C17.8442 91.8738 17.8664 96.1728 17.9255 96.2686C18.0594 96.4851 18.5728 95.1007 19.631 91.6699C21.7335 84.8528 22.9174 78.1329 23.2306 71.2374C23.2896 69.938 23.2906 68.875 23.2328 68.875C23.1748 68.875 22.9774 69.1693 22.794 69.5289C22.3032 70.4914 20.9807 71.7333 19.8699 72.2745C19.0199 72.6887 18.661 72.7583 17.0631 72.8185C15.4395 72.8796 15.0981 72.8413 14.0634 72.4812C9.41139 70.8627 7.25056 66.1028 9.91113 63.3348C10.3839 62.8429 10.8474 62.5442 11.3438 62.4114C13.3855 61.8651 15.3578 63.2299 14.8316 64.825C14.474 65.909 13.3065 66.3537 12.0706 65.8767C11.2323 65.5531 10.4936 65.6478 10.077 66.1324C9.03521 67.344 10.4296 69.7329 12.818 70.8279C15.4033 72.0132 19.0855 71.1643 20.8842 68.968C21.8297 67.8139 22.1799 66.8331 22.2599 65.1161C22.3451 63.2854 22.1381 61.9941 21.4045 59.7811C20.7818 57.9023 20.2607 57.1144 19.192 56.4365C18.0702 55.7246 17.321 55.6583 16.2615 56.177C15.778 56.4136 15.3046 56.6072 15.2095 56.6072C14.7075 56.6072 14.7067 55.0219 15.2083 54.2848C15.939 53.2109 16.7096 52.7477 17.9413 52.6419L19.061 52.5456L19.1637 49.0631C19.3014 44.3977 19.7455 42.6356 21.2284 40.8727C21.7048 40.3062 21.983 40.2367 22.2906 40.6074Z" fill="#D4AF37"/>
</svg>
