<svg width="16" height="1614" viewBox="0 0 16 1614" fill="none" xmlns="http://www.w3.org/2000/svg">
<g filter="url(#filter0_g_205_27)">
<path d="M8.51474 903.036C8.39704 938.341 8.91724 966.133 8.84372 1009.16C8.77019 1052.2 8.49425 1058.64 8.55633 1107.92C8.61841 1157.2 8.42967 1206.51 8.54305 1228.45C8.65645 1250.39 8.31359 1252.71 8.38974 1283.87C8.46588 1315.02 8.42113 1333.91 8.30968 1361.16C8.19824 1388.41 8.10309 1472.13 8.24 1502.57C8.3769 1533.02 8.13936 1567.74 8.08302 1588.62C8.06547 1595.13 8.04145 1600.24 8.01647 1604.17C8.00587 1605.83 7.98371 1606.6 7.96183 1606.6C7.96182 1606.6 7.9618 1606.6 7.96179 1606.6C7.93455 1606.6 7.90776 1605.41 7.90432 1603.27C7.88762 1592.9 7.84354 1577.4 7.74475 1559.09C7.56055 1524.95 7.7641 1521.21 7.66945 1475.11C7.5748 1429 7.38557 1401.31 7.50793 1347.06C7.63029 1292.81 7.11824 1280.35 7.40843 1203.78C7.6986 1127.2 7.16309 1119.14 7.09187 1042.83C7.02067 966.525 7.31614 870.201 7.29164 824.201C7.26714 778.201 7.20476 716.42 7.27543 651.209C7.3461 585.998 7.1677 505.498 7.2938 433.516C7.41989 361.534 7.57915 259.768 7.68587 212.753C7.79259 165.74 7.81666 154.281 7.75145 109.029C7.71397 83.0169 7.7493 47.1835 7.88715 16.9159C7.95652 1.68329 8.05311 5.135 8.09933 20.4671C8.16691 42.8877 8.12177 61.2925 8.24248 72.8449C8.48374 95.9289 8.57629 105.74 8.43587 134.882C8.29547 164.022 8.61456 177.753 8.57783 194.74C8.54109 211.728 8.35287 211.449 8.49789 297.824C8.6429 384.201 8.6799 431.552 8.71472 464.263C8.74953 496.973 8.58618 565.274 8.64514 618.583C8.7041 671.893 8.65006 780.269 8.74659 823.957C8.84311 867.643 8.63244 867.733 8.51474 903.036Z" fill="#D4AF37"/>
</g>
<defs>
<filter id="filter0_g_205_27" x="0.000652313" y="0.000164032" width="15.9303" height="1613.68" filterUnits="userSpaceOnUse" color-interpolation-filters="sRGB">
<feFlood flood-opacity="0" result="BackgroundImageFix"/>
<feBlend mode="normal" in="SourceGraphic" in2="BackgroundImageFix" result="shape"/>
<feTurbulence type="fractalNoise" baseFrequency="1.1298792362213135 1.1298792362213135" numOctaves="3" seed="8102" />
<feDisplacementMap in="shape" scale="14.160804748535156" xChannelSelector="R" yChannelSelector="G" result="displacedImage" width="100%" height="100%" />
<feMerge result="effect1_texture_205_27">
<feMergeNode in="displacedImage"/>
</feMerge>
</filter>
</defs>
</svg>
