<svg width="1" height="494" viewBox="0 0 1 494" fill="none" xmlns="http://www.w3.org/2000/svg">
<path d="M0.810094 276.71C0.743602 287.613 1.03748 296.197 0.995945 309.487C0.954405 322.776 0.798516 324.767 0.83359 339.987C0.868658 355.206 0.762034 370.435 0.826081 377.211C0.890147 383.988 0.696451 384.703 0.739471 394.326C0.782486 403.949 0.757203 409.781 0.694243 418.197C0.631283 426.614 0.577532 452.47 0.654874 461.872C0.732216 471.275 0.598017 481.998 0.566189 488.448C0.556275 490.456 0.542707 492.037 0.528591 493.249C0.522605 493.763 0.510084 494 0.497725 494C0.497717 494 0.497709 494 0.497701 494C0.482312 494 0.46718 493.632 0.465236 492.972C0.455797 489.769 0.430896 484.982 0.375088 479.327C0.271026 468.782 0.386019 467.629 0.332548 453.39C0.279076 439.151 0.172172 430.596 0.241302 413.842C0.310426 397.088 0.0211501 393.24 0.18509 369.591C0.349019 345.941 0.0464881 343.452 0.00625959 319.885C-0.0339661 296.318 0.132957 266.569 0.119117 252.362C0.105276 238.155 0.0700365 219.074 0.109964 198.935C0.149889 178.795 0.0491057 153.933 0.120342 131.701C0.191578 109.471 0.281552 78.0407 0.341842 63.5204C0.402131 49.0008 0.415729 45.4618 0.378892 31.4859C0.357717 23.4524 0.377677 12.3855 0.455553 3.03757C0.494746 -1.66691 0.549316 -0.600874 0.575426 4.13435C0.613605 11.0588 0.588099 16.743 0.656297 20.3108C0.792594 27.4402 0.84488 30.4702 0.765549 39.4705C0.686228 48.4703 0.866497 52.711 0.845748 57.9574C0.82499 63.204 0.718659 63.1176 0.800581 89.794C0.882506 116.471 0.903409 131.095 0.923076 141.197C0.942744 151.3 0.850459 172.394 0.883768 188.858C0.917074 205.322 0.886546 238.794 0.941077 252.286C0.995603 265.779 0.876587 265.806 0.810094 276.71Z" fill="#D4AF37"/>
</svg>
