<svg width="321" height="125" viewBox="0 0 321 125" fill="none" xmlns="http://www.w3.org/2000/svg">
<path fill-rule="evenodd" clip-rule="evenodd" d="M3.0842 4.24396C4.36981 9.37158 2.53784 20.3141 0.392914 20.3141C-1.75198 20.3141 5.52304 15.1289 6.80865 10.0013C7.39392 7.66689 -0.501923 0 0.392914 0C1.28775 0 2.49893 1.90953 3.0842 4.24396ZM30.8124 8.94835C35.6875 11.4165 38.7019 18.518 36.8108 23.0785C35.6774 25.8091 35.3018 25.5484 34.0501 21.1622C31.0289 10.582 18.9275 8.26953 11.6825 16.8878C5.13779 24.6698 4.44257 31.0602 9.14511 40.2033C11.3459 44.4845 14.0692 48.2934 15.1942 48.6692C16.6286 49.1483 16.4933 47.9159 14.7493 44.5674C9.98074 35.4193 12.8445 23.6998 19.8459 23.6998C22.4053 23.6998 27.458 28.2095 27.458 30.4914C27.458 32.9935 24.4047 34.0024 23.6486 31.7509C22.2818 27.6881 17.3086 33.972 17.3086 39.7615C17.3086 52.4696 21.5028 65.6259 42.4681 64.187C58.1726 63.1104 73.6703 52.6118 60.8126 52.5289C51.1284 52.4679 40.9907 48.5896 40.9907 44.9466C40.9907 40.9854 48.3187 41.6862 58.8047 46.6513C63.8337 49.0331 70.8285 51.3337 74.347 51.7637L80.7428 52.5458L73.6788 49.2481C63.5564 44.5251 60.136 36.9463 65.6387 31.4378C67.1019 29.9751 70.0284 28.7783 72.1429 28.7783C76.4294 28.7783 82.7541 34.6288 80.1846 36.2183C79.2914 36.7702 78.1242 36.0846 77.5897 34.6931C76.4817 31.8051 68.8139 31.26 67.1511 33.9533C65.1297 37.2273 67.9173 43.4078 72.3239 45.4172C77.7589 47.8955 104.178 52.262 124.881 54.6161C181.284 61.0295 257.576 43.2013 270.052 47.2032C282.909 51.327 295.728 60.5309 302.971 70.8386C307.774 77.6709 308.168 79.3993 308.958 97.0574C309.799 115.845 306.916 121.949 311.103 121.949C314.415 121.949 318.461 114.873 319.314 110.881L320.398 105.803L320.599 110.966C320.948 119.977 313.924 123.234 308.08 116.771L304.988 113.351L300.629 117.41C298.232 119.643 294.608 122.326 292.577 123.371C287.363 126.051 277.632 120.324 272.002 117.41C264.73 113.647 251.854 109.258 249.134 100.325C247.782 95.8893 245.387 89.7358 243.81 86.6532C242.232 83.5688 241.468 80.5217 242.11 79.8818C243.773 78.2228 249.626 85.932 250.705 91.2035C251.206 93.6463 252.26 97.9309 253.048 100.724L254.483 105.803L254.655 101.186C254.858 95.7607 261.501 90.6195 266.329 92.1515C268.095 92.7118 270.324 94.8973 271.285 97.0066C272.943 100.65 272.731 100.809 267.119 100.152C260.486 99.3782 258.277 101.498 258.236 108.679C258.184 118.086 275.558 125.932 287.619 121.949C295.028 119.503 303.137 110.46 305.473 102.039C308.126 92.4782 307.463 87.6858 304.578 95.571C300.035 107.985 290.762 114.78 282.602 111.675C275.691 109.046 278.599 105.803 287.867 105.803C295.314 105.803 296.445 105.266 299.982 100.05C305.817 91.449 306.37 68.7293 299.982 59.9046C294.14 51.8314 278.215 51.9076 272.002 51.9279C269.534 51.9364 263.23 53.9796 257.993 56.4681C252.615 59.0243 247.239 60.5208 245.637 59.9046C243.115 58.9363 243.234 58.3539 246.701 54.6161C248.845 52.3054 252.121 49.822 253.982 49.0975C256.792 48.0039 256.254 47.5671 250.807 46.5159C242.902 44.9889 106.008 48.1139 99.1641 51.0358C87.6817 55.9399 83.2904 64.096 90.1548 67.7712C94.4582 70.0769 98.5044 67.3226 98.5044 62.09C98.5044 59.5321 99.0119 59.0802 100.363 60.4328C103.261 63.3326 100.441 69.2812 95.5932 70.4984C87.225 72.6009 81.7375 64.8578 85.9005 56.8236C88.0369 52.7049 87.9845 52.3647 85.3456 53.1789C53.6693 62.9415 24.8412 61.7955 12.5198 50.2808C-0.304016 38.2988 4.48087 23.204 18.6951 15.8486C24.8 12.6881 25.242 6.12808 30.8124 8.94835ZM270.052 30.9049C289.253 33.0243 300.064 50.1995 307.388 64.5684C311.409 72.4536 311.597 75.6074 307.618 68.4128C297.044 49.2888 278.912 39.1029 252.29 37.3305C241.216 36.5942 238.91 36.0982 243.832 35.5107C247.554 35.0672 264.204 30.2599 270.052 30.9049Z" fill="#D4AF37"/>
</svg>
